<?xml version="1.0" encoding="utf-8"?>
<!-- Generator: Adobe Illustrator 14.0.0, SVG Export Plug-In . SVG Version: 6.00 Build 43363)  -->
<!DOCTYPE svg PUBLIC "-//W3C//DTD SVG 1.1//EN" "http://www.w3.org/Graphics/SVG/1.1/DTD/svg11.dtd">
<svg version="1.1" id="_x30_4-ROUM" xmlns="http://www.w3.org/2000/svg" xmlns:xlink="http://www.w3.org/1999/xlink" x="0px"
	 y="0px" width="1796.922px" height="907.087px" viewBox="0 0 1796.922 907.087" enable-background="new 0 0 1796.922 907.087"
	 xml:space="preserve">
<path opacity="0.9" fill="#008CB7" d="M1549.808,321.426l0.895-8.928l-0.938-14.378c-0.031-0.404-0.289-0.741-0.668-0.875
	l-2.523-0.931c-0.496-0.184-1.047,0.037-1.273,0.508l-4.695,9.95c-0.375,0.778-0.645,1.604-0.803,2.443l-1.268,6.668
	c-0.111,0.557-0.252,1.096-0.43,1.635l-2.277,6.699c-0.146,0.441,0.02,0.913,0.404,1.164l8.775,5.793
	c0.25,0.165,0.576,0.22,0.857,0.116c0.293-0.086,0.531-0.318,0.643-0.606l1.623-4.121l1.305-3.625
	C1549.61,322.449,1549.739,321.928,1549.808,321.426z"/>
<path opacity="0.9" fill="#008CB7" d="M1546.042,293.944l0.439-1.464c0.074-0.257,0.252-0.478,0.496-0.612
	c0.232-0.116,0.516-0.147,0.771-0.061l12.432,3.821c0.098,0.031,0.201,0.049,0.299,0.049h0.932c0.293,0,0.57,0.134,0.766,0.355
	c0.189,0.22,0.275,0.502,0.244,0.808l-0.146,1.029l-0.68,2.676c-0.08,0.288-0.275,0.539-0.557,0.674
	c-0.275,0.116-0.607,0.116-0.877-0.019l-8.805-4.396l-4.666-1.598C1546.177,295.022,1545.888,294.464,1546.042,293.944z"/>
<path opacity="0.9" fill="#008CB7" d="M1548.019,290.809l12.461,3.857h1.029c0.295,0,0.576-0.135,0.76-0.336
	c0.189-0.221,0.287-0.502,0.25-0.809l-0.092-0.808l-7.66-10.373l-3.918-1.115c-0.539-0.147-1.09,0.153-1.25,0.692l-2.26,7.648
	C1547.187,290.086,1547.479,290.656,1548.019,290.809z"/>
<path opacity="0.9" fill="#008CB7" d="M1487.507,316.135l-1.879,2.492c-0.447,0.606-0.834,1.249-1.152,1.922l-0.453,0.956
	c-0.164,0.337-0.488,0.557-0.863,0.582l-2.332,0.153l-6.748,0.582c-0.264,0.019-0.527-0.061-0.734-0.227l-6.939-5.701l-9.76-7.428
	c-0.473-0.355-1.041-0.558-1.629-0.558h-0.49c-0.379,0-0.76,0.086-1.115,0.239l-5.639,2.535c-0.27,0.117-0.57,0.117-0.832-0.012
	c-0.27-0.116-0.473-0.336-0.559-0.618l-1.445-4.728c-0.086-0.275-0.049-0.563,0.1-0.814c0.146-0.245,0.391-0.422,0.666-0.471
	l1.904-0.398l7.129-1.537l4.396-1.164c0.967-0.263,1.953-0.422,2.957-0.472l9.338-0.539l8.133-0.423l9.178-0.747
	c0.846-0.067,1.666-0.331,2.395-0.765l6.057-3.607c0.275-0.159,0.613-0.184,0.918-0.049c0.295,0.116,0.516,0.38,0.588,0.692
	l1.789,7.489c0.066,0.288,0.006,0.575-0.16,0.82c-0.172,0.233-0.422,0.392-0.717,0.429l-0.422,0.049
	c-0.533,0.062-1.047,0.239-1.5,0.515l-1.531,0.924c-0.76,0.465-1.457,1.023-2.088,1.641l-0.852,0.863
	c-0.336,0.325-0.654,0.686-0.943,1.06l-1.971,2.541L1487.507,316.135z"/>
<path opacity="0.9" fill="#008CB7" d="M1502.099,321.879l-4.818-0.453c-0.992-0.104-1.984-0.123-2.988-0.055l-7.654,0.49
	c-0.355,0.024-0.697-0.141-0.9-0.435c-0.201-0.306-0.232-0.686-0.072-1.01l0.164-0.355l2.486-3.319l2.805-3.772l1.916-2.474
	c0.289-0.374,0.602-0.735,0.938-1.072l0.723-0.716c0.631-0.631,1.328-1.176,2.088-1.647l1.236-0.741
	c0.453-0.288,0.969-0.453,1.502-0.521l3.863-0.459l4.709-0.888c0.514-0.104,1.016,0.202,1.156,0.704l1.225,4.127
	c0.074,0.27,0.043,0.558-0.092,0.802c-0.146,0.239-0.379,0.411-0.648,0.478l-4.127,0.986c-0.398,0.092-0.691,0.404-0.766,0.796
	l-1.652,8.708C1503.091,321.573,1502.62,321.928,1502.099,321.879z"/>
<path opacity="0.9" fill="#008CB7" d="M1520.286,310.496l-2.303,5.18c-0.318,0.71-0.551,1.451-0.723,2.21l-0.809,3.809
	c-0.066,0.3,0.008,0.612,0.203,0.851s0.477,0.374,0.789,0.374c0.037,0,0.068,0,0.105,0l5.326-0.539
	c0.355-0.031,0.668-0.251,0.82-0.569l1.855-3.943c0.172-0.368,0.367-0.723,0.576-1.065l2.779-4.538
	c0.141-0.239,0.453-0.312,0.699-0.171c0.232,0.153,0.312,0.465,0.164,0.698l-2.742,4.489c-0.221,0.355-0.404,0.71-0.582,1.078
	l-1.305,2.762c-0.135,0.288-0.129,0.618,0.02,0.894c0.141,0.288,0.41,0.478,0.723,0.539l4.574,0.827
	c0.611,0.098,1.217,0.282,1.793,0.527l1.268,0.533c0.264,0.116,0.557,0.11,0.809,0c0.264-0.116,0.453-0.337,0.551-0.606l2.254-6.644
	c0.172-0.49,0.307-0.986,0.398-1.5l1.268-6.674c0.178-0.925,0.471-1.825,0.875-2.676l4.592-9.699
	c0.123-0.27,0.135-0.576,0.025-0.833c-0.117-0.263-0.336-0.472-0.619-0.569l-0.434-0.147l-14.348-3.895l-2.492-0.135l-2.334,0.906
	l-1.861,1.721l-1.684,2.167c-0.832,1.078-1.793,2.064-2.834,2.921l-2.486,2.052c-1.17,0.979-2.469,1.806-3.84,2.468l-0.613,0.293
	c-0.447,0.221-0.674,0.729-0.539,1.207l1.537,5.229c0.086,0.27,0.057,0.557-0.092,0.79c-0.135,0.251-0.367,0.422-0.637,0.49
	l-4.531,1.078c-0.398,0.098-0.691,0.404-0.766,0.802l-1.652,8.695c-0.092,0.471,0.172,0.949,0.619,1.126l1.578,0.649h3.902
	l4.199-0.423c0.441-0.042,0.803-0.361,0.895-0.796l1.035-4.868c0.158-0.759,0.404-1.5,0.717-2.205l2.344-5.272
	c0.111-0.263,0.418-0.374,0.674-0.263C1520.286,309.938,1520.403,310.244,1520.286,310.496z"/>
<path opacity="0.9" fill="#008CB7" d="M1502.651,304.409c-0.51,0.055-0.98-0.282-1.104-0.778l-2.088-8.763
	c-0.098-0.422,0.092-0.875,0.473-1.102l1.939-1.157c0.252-0.147,0.545-0.184,0.814-0.098c0.277,0.086,0.496,0.288,0.625,0.539
	l2.053,4.329c0.084,0.159,0.238,0.27,0.422,0.282c0.178,0.019,0.355-0.067,0.453-0.214c0.109-0.153,0.115-0.349,0.043-0.508
	l-2.174-4.58c-0.227-0.472-0.055-1.041,0.398-1.311l0.973-0.576c0.465-0.275,1.066-0.153,1.359,0.306l5.285,7.777
	c0.152,0.239,0.471,0.294,0.697,0.135c0.238-0.153,0.301-0.472,0.146-0.704l-5.541-8.15c-0.086-0.135-0.109-0.288-0.066-0.429
	c0.043-0.147,0.152-0.263,0.287-0.331l0.918-0.398c0.209-0.092,0.453-0.025,0.594,0.153l5.5,7.097
	c0.178,0.22,0.49,0.263,0.717,0.086c0.219-0.172,0.262-0.49,0.092-0.71l-5.016-6.466c-0.178-0.233-0.246-0.521-0.195-0.809
	c0.061-0.282,0.238-0.539,0.477-0.686l6.748-4.011c0.875-0.515,1.818-0.907,2.805-1.176l6.613-1.788
	c0.27-0.067,0.557-0.024,0.803,0.116c0.238,0.153,0.404,0.398,0.453,0.674l1.543,7.789c0.066,0.312-0.02,0.631-0.227,0.87
	c-0.203,0.233-0.508,0.361-0.82,0.343l-2.426-0.123l-2.707,1.053l-2.062,1.91l-1.666,2.137c-0.846,1.078-1.795,2.063-2.842,2.927
	l-2.295,1.904c-1.182,0.979-2.469,1.8-3.852,2.461l-0.926,0.453c-0.434,0.208-0.9,0.361-1.377,0.453l-5.273,1.004L1502.651,304.409z
	"/>
<path opacity="0.9" fill="#008CB7" d="M1545.374,288.402l-0.68-0.067c-0.619-0.067-1.207-0.288-1.709-0.643l-1.391-0.956
	c-1.004-0.692-2.111-1.225-3.281-1.549l-0.264-0.085c-1.145-0.318-2.332-0.465-3.521-0.423l-3.416,0.147
	c-0.293,0.006-0.576,0.16-0.746,0.386c-0.191,0.227-0.264,0.526-0.203,0.827l0.809,4.078c0.074,0.379,0.35,0.686,0.729,0.784
	l11.83,3.208l0.27,0.104c0.264,0.08,0.545,0.067,0.791-0.067c0.256-0.123,0.428-0.349,0.514-0.606l1.127-3.839
	c0.086-0.288,0.043-0.594-0.123-0.845C1545.937,288.604,1545.667,288.433,1545.374,288.402z"/>
<path opacity="0.9" fill="#008CB7" d="M1538.331,284.128c-1.248-0.355-2.547-0.508-3.838-0.459l-3.742,0.153
	c-0.514,0.037-0.967-0.355-1.041-0.857l-0.35-2.327c-0.072-0.502,0.246-0.992,0.742-1.126l19.049-5.119
	c0.35-0.098,0.729,0,0.992,0.27c0.252,0.269,0.344,0.637,0.246,0.992l-3.143,10.63c-0.875,1.139-2.492,1.396-3.68,0.569
	l-1.391-0.943c-1.096-0.759-2.309-1.329-3.588-1.702L1538.331,284.128z"/>
<g>
	<path fill-rule="evenodd" clip-rule="evenodd" fill="#FFFFFF" d="M473.618,172.593c29.209,0,58.418,0,87.627,0
		c0,32.989,0,65.979,0,98.967c-29.324,0-58.647,0-87.971,0c0-32.645,0-65.291,0-97.936
		C473.245,173.136,473.218,172.65,473.618,172.593z M523.789,265.375c6.65-0.974,16.108-8.179,19.587-12.371
		c2.145-2.583,5.127-6.985,6.186-9.622c4.296-10.704,3.978-29.044-0.688-37.8c-2.334-4.383-10.365-11.688-14.776-13.746
		c-14.497-6.765-34.372-2.211-42.61,6.873c-5.512,6.077-10.147,17.621-9.622,27.147c1.153,20.929,12.083,35.584,32.646,37.456
		c1.754-0.036,1.481,1.955,3.093,2.062C519.192,265.139,521.722,265.677,523.789,265.375z"/>
	<path fill-rule="evenodd" clip-rule="evenodd" fill="#008CB7" d="M517.604,265.375c-1.612-0.107-1.339-2.098-3.093-2.062
		c-20.563-1.872-31.492-16.527-32.646-37.456c-0.525-9.526,4.11-21.07,9.622-27.147c8.238-9.083,28.114-13.638,42.61-6.873
		c4.411,2.058,12.442,9.363,14.776,13.746c4.665,8.755,4.984,27.096,0.688,37.8c-1.059,2.637-4.041,7.038-6.186,9.622
		c-3.479,4.192-12.937,11.397-19.587,12.371C521.722,265.677,519.192,265.139,517.604,265.375z M547.843,233.76
		c2.033-17.28-3.209-30.034-14.089-36.082c-5.946-3.306-14.448-4.732-22.336-3.78c-16.887,2.039-27.89,19.347-24.398,37.456
		c1.645,8.531,7.157,18.046,13.745,22.336c9.192,5.986,20.561,4.049,33.333,1.375C540.642,249.318,546.694,243.527,547.843,233.76z"
		/>
	<path fill-rule="evenodd" clip-rule="evenodd" fill="#FFFFFF" d="M534.098,255.065c-12.772,2.675-24.14,4.611-33.333-1.375
		c-6.588-4.291-12.101-13.806-13.745-22.336c-3.492-18.109,7.511-35.417,24.398-37.456c7.889-0.953,16.39,0.474,22.336,3.78
		c10.879,6.048,16.122,18.801,14.089,36.082C546.694,243.527,540.642,249.318,534.098,255.065z M516.229,199.74
		c0.028,0.676-1.009,1.257-1.031,1.374c-1.308,6.952-6.745,18.672-9.622,26.117c-0.717,1.854-2.252,3.528-2.062,4.811
		c0.262,1.766,4.301,4.694,6.529,5.499c3.392,1.225,7.264,0.4,10.996,1.375c0.138,2.382-0.554,5.594,1.031,6.529
		c4.508,0.091,3.184-3.744,4.124-6.873c7.714,1.625,6.777-7.16,0.344-6.186c-1.161-4.095,3.211-14.39-1.375-14.089
		c-4.12,0.271-1.42,10.583-3.437,14.433c-4.788,0.799-10.636,0.249-13.058-2.405c1.798-8.034,7.39-15.327,9.278-23.368
		c0.527-2.245,1.166-5.196,0-7.216C517.375,199.74,516.802,199.74,516.229,199.74z"/>
	<path fill-rule="evenodd" clip-rule="evenodd" fill="#008CB7" d="M517.947,199.74c1.166,2.02,0.527,4.971,0,7.216
		c-1.888,8.041-7.48,15.334-9.278,23.368c2.422,2.654,8.27,3.204,13.058,2.405c2.016-3.85-0.684-14.162,3.437-14.433
		c4.586-0.301,0.214,9.994,1.375,14.089c6.434-0.974,7.371,7.811-0.344,6.186c-0.94,3.129,0.385,6.964-4.124,6.873
		c-1.585-0.935-0.894-4.146-1.031-6.529c-3.732-0.974-7.604-0.15-10.996-1.375c-2.228-0.805-6.268-3.732-6.529-5.499
		c-0.19-1.282,1.345-2.956,2.062-4.811c2.877-7.445,8.314-19.165,9.622-26.117c0.022-0.117,1.059-0.698,1.031-1.374
		C516.802,199.74,517.375,199.74,517.947,199.74z"/>
</g>
<g>
	<path fill-rule="evenodd" clip-rule="evenodd" fill="#FFFFFF" d="M318.36,189.138c52.728,0,105.458,0,158.184,0
		c0,38.207,0,76.416,0,114.623c-52.808,0-105.62,0-158.427,0c0-37.964,0-75.927,0-113.893
		C318.096,189.522,318.077,189.179,318.36,189.138z M454.886,220.044c0.747,6.437-0.614,15.882,1.217,20.929
		c5.433,1.713,2.646-7.522,2.92-12.168c0.363-6.171,0.656-15.002-2.677-17.522C452.319,212.485,454.465,216.421,454.886,220.044z
		 M449.775,230.996c0.388-1.023,1.291-1.397,1.46-2.434c0.212-1.294-0.644-6.28-0.73-7.788c-0.014-0.24-1.12-2.842-1.704-4.38
		c-1.748-4.607-3.976-3.12-6.084-0.244c-0.63,3.728,1.347,7.089,1.704,10.465c1.158,10.952-6.443,11.723-14.845,13.628
		c-1.554,0.353-3.064,1.176-4.38,1.46c-2.333,0.503-5.049,0.254-6.814,1.217c-2.109,1.15-3.051,3.738-3.894,6.084
		c-4.669,3.445-15.391,5.092-21.416,8.031c-1.981,0.966-4.678,1.933-2.92,4.38c8.168-0.265,16.558-3.207,23.362-5.84
		c2.612-1.011,5.22-2.293,6.571-3.65c1.425-1.433,1.61-4.653,3.164-5.598c1.656-1.006,4.85-0.278,6.814-0.486
		c7.06-0.75,13.208-5.129,18.252-9.004C449.131,235.621,448.985,233.078,449.775,230.996z M351.944,288.672
		c-0.428-2.878-0.893-6.206-0.73-9.004c0.306-5.267-0.682-9.23-1.217-14.845c-0.193-2.025,0.243-4.38,0.243-6.571
		c0-1.297-0.411-2.544-0.243-3.65c0.559-3.691,3.984-7.427,7.057-9.248c2.937-1.74,7.146-2.3,10.221-4.137
		c2.009-1.2,6.317-4.541,6.814-6.571c0.764-3.121-2.838-8.546-5.11-9.491c-2.499-1.04-7.289,0.094-8.761,1.46
		c-1.186,1.101-2.315,4.155-2.677,5.597c-0.55,2.193-0.073,4.777-0.974,7.544c-3.097,1.789-6.834,2.927-9.491,4.867
		c-3.656,2.67-3.275,6.73-2.434,12.411c0.378,2.552,0.075,5.42,0.487,7.788c0.172,0.992,0.793,2.112,0.973,3.164
		c1.27,7.425,0.558,16.723,1.947,22.876c0.393,1.741,0.948,3.833,2.19,4.624C353.522,294.47,352.269,290.857,351.944,288.672z
		 M372.143,258.495c3.854-1.681,6.665-3.798,9.734-6.084c2.802-2.086,8.381-5.083,10.221-7.544c1.83-2.448,2.585-7.836,1.46-10.951
		c-0.729-2.018-2.625-5.18-4.38-5.841c-3.374-1.27-8.779,1.969-9.978,4.867c-1.614,3.902,1.763,7.181,2.434,10.951
		c0.428,0.545,1.459,0.487,1.947,0.974c-8.113,5.272-17.359,9.411-26.04,14.115c-0.334,0.77-0.053,0.813,0,1.704
		C361.844,263.512,367.6,259.262,372.143,258.495z"/>
	<path fill-rule="evenodd" clip-rule="evenodd" fill="#008CB7" d="M456.346,211.283c3.333,2.52,3.04,11.351,2.677,17.522
		c-0.273,4.646,2.513,13.881-2.92,12.168c-1.831-5.047-0.47-14.492-1.217-20.929C454.465,216.421,452.319,212.485,456.346,211.283z"
		/>
	<path fill-rule="evenodd" clip-rule="evenodd" fill="#008CB7" d="M448.315,236.836c-5.043,3.875-11.192,8.254-18.252,9.004
		c-1.964,0.208-5.159-0.52-6.814,0.486c-1.553,0.944-1.738,4.165-3.164,5.598c-1.351,1.357-3.958,2.639-6.571,3.65
		c-6.804,2.634-15.194,5.575-23.362,5.84c-1.758-2.447,0.939-3.414,2.92-4.38c6.024-2.939,16.747-4.586,21.416-8.031
		c0.843-2.346,1.785-4.934,3.894-6.084c1.765-0.963,4.481-0.714,6.814-1.217c1.316-0.284,2.827-1.108,4.38-1.46
		c8.402-1.905,16.002-2.676,14.845-13.628c-0.357-3.376-2.334-6.737-1.704-10.465c2.108-2.876,4.336-4.364,6.084,0.244
		c0.584,1.539,1.69,4.141,1.704,4.38c0.086,1.507,0.942,6.494,0.73,7.788c-0.169,1.036-1.072,1.41-1.46,2.434
		C448.985,233.078,449.131,235.621,448.315,236.836z"/>
	<path fill-rule="evenodd" clip-rule="evenodd" fill="#008CB7" d="M350.241,295.486c-1.243-0.791-1.797-2.882-2.19-4.624
		c-1.389-6.153-0.677-15.451-1.947-22.876c-0.18-1.052-0.801-2.171-0.973-3.164c-0.412-2.368-0.109-5.236-0.487-7.788
		c-0.841-5.681-1.223-9.741,2.434-12.411c2.656-1.94,6.394-3.078,9.491-4.867c0.901-2.767,0.423-5.352,0.974-7.544
		c0.362-1.442,1.491-4.497,2.677-5.597c1.473-1.366,6.263-2.5,8.761-1.46c2.272,0.945,5.875,6.371,5.11,9.491
		c-0.497,2.03-4.805,5.371-6.814,6.571c-3.076,1.837-7.284,2.397-10.221,4.137c-3.073,1.82-6.499,5.556-7.057,9.248
		c-0.167,1.106,0.243,2.353,0.243,3.65c0,2.19-0.436,4.546-0.243,6.571c0.535,5.614,1.523,9.578,1.217,14.845
		c-0.163,2.798,0.302,6.126,0.73,9.004C352.269,290.857,353.522,294.47,350.241,295.486z M369.709,233.916
		c0.442-2.335-2.503-3.143-4.867-3.894c-1.016,1.875-2.701,5.393-1.217,7.544C365.59,236.67,369.333,235.904,369.709,233.916z"/>
	<path fill-rule="evenodd" clip-rule="evenodd" fill="#008CB7" d="M357.542,260.686c-0.053-0.89-0.334-0.934,0-1.704
		c8.681-4.704,17.927-8.843,26.04-14.115c-0.487-0.486-1.519-0.428-1.947-0.974c-0.67-3.771-4.047-7.049-2.434-10.951
		c1.199-2.898,6.604-6.137,9.978-4.867c1.756,0.661,3.652,3.823,4.38,5.841c1.125,3.115,0.37,8.503-1.46,10.951
		c-1.84,2.461-7.419,5.458-10.221,7.544c-3.07,2.286-5.881,4.403-9.734,6.084C367.6,259.262,361.844,263.512,357.542,260.686z
		 M386.258,234.646c-0.984,1.061-1.967,2.809-1.217,4.867c1.359,0.577,2.222,0.342,3.164-0.487
		C387.688,237.435,388.252,234.761,386.258,234.646z"/>
	<path fill-rule="evenodd" clip-rule="evenodd" fill="#FFFFFF" d="M363.625,237.566c-1.484-2.151,0.201-5.669,1.217-7.544
		c2.364,0.751,5.309,1.559,4.867,3.894C369.333,235.904,365.59,236.67,363.625,237.566z"/>
	<path fill-rule="evenodd" clip-rule="evenodd" fill="#FFFFFF" d="M388.205,239.026c-0.942,0.829-1.805,1.063-3.164,0.487
		c-0.75-2.058,0.232-3.807,1.217-4.867C388.252,234.761,387.688,237.435,388.205,239.026z"/>
</g>
<g>
	<path fill="#737996" d="M421.584,287.262l1.802-4.096c0.468,0.818,2.363,1.966,4.144,1.966c3.37,0,3.463-2.013,3.557-2.013
		c0,0,3.559,6.25-3.861,5.501c0,0,1.193,3.464-1.007,9.035l-0.094-0.023C425.352,290.118,421.584,287.262,421.584,287.262z"/>
	<path fill="#737996" d="M437.59,294.986l-2.996-2.996l2.996-2.996l2.996,2.996L437.59,294.986z"/>
	<path fill="#737996" d="M446.107,297.537c0.28-5.664-3.254-10.346-3.254-10.346l1.896-4.119c0,0,5.806,7.046,1.428,14.349
		L446.107,297.537z"/>
	<path fill="#737996" d="M454.134,284.641c1.989,0,4.423,3.066,4.353,8.146c-0.094,5.337-8.613,5.711-8.497,0.352
		C450.106,288.339,452.494,284.641,454.134,284.641z M451.862,291.709c0.116,1.101,3.956,1.007,4.61-0.234
		c0.516-0.982-1.029-3.675-2.434-3.675C452.752,287.8,451.698,290.211,451.862,291.709z"/>
</g>
<g>
	<path fill="#707173" d="M235.077,459.825v-15.481h4.16l2.98,10.808h0.042l3.003-10.808h4.203v15.481h-2.573v-12.18h-0.043
		l-3.474,12.18h-2.252l-3.431-12.18h-0.043v12.18H235.077z"/>
</g>
<g>
	<path fill="#707173" d="M281.929,444.322v2.486h-4.052v13.017h-2.96v-13.017h-4.052v-2.486H281.929z"/>
</g>
<g>
	<path fill="#707173" d="M302.02,444.344h2.767l1.951,10.443h0.043l2.208-10.443h3.045l2.036,10.443h0.044l2.122-10.443h2.767
		l-3.216,15.481h-3.002l-2.253-11.021h-0.042l-2.23,11.021h-3.002L302.02,444.344z"/>
</g>
<g>
	<path fill="#707173" d="M350.179,444.322v2.486h-4.052v13.017h-2.96v-13.017h-4.052v-2.486H350.179z"/>
</g>
<g>
	<path fill="#707173" d="M374.483,459.825v-15.481h9.864v2.486h-6.905v3.688h5.168v2.488h-5.168v6.818H374.483z"/>
</g>
<g>
	<path fill="#707173" d="M415.329,448.461c-0.451-1.201-1.373-2.017-2.767-2.017c-1.286,0-2.208,0.516-2.208,1.717
		c0,2.658,7.977,2.101,7.977,7.118c0,3.174-1.994,4.761-5.425,4.761c-2.531,0-4.91-1.416-5.79-3.666l2.445-1.073
		c0.707,1.459,1.629,2.424,3.365,2.424c1.48,0,2.616-0.558,2.616-2.06c0-3.044-7.976-2.443-7.976-7.204
		c0-2.767,2.315-4.332,4.995-4.332c2.488,0,4.546,1.244,5.468,3.495L415.329,448.461z"/>
</g>
<g>
	<path fill="#707173" d="M449.454,448.461c-0.451-1.201-1.373-2.017-2.767-2.017c-1.286,0-2.208,0.516-2.208,1.717
		c0,2.658,7.977,2.101,7.977,7.118c0,3.174-1.994,4.761-5.425,4.761c-2.531,0-4.91-1.416-5.79-3.666l2.445-1.073
		c0.707,1.459,1.629,2.424,3.365,2.424c1.48,0,2.616-0.558,2.616-2.06c0-3.044-7.976-2.443-7.976-7.204
		c0-2.767,2.315-4.332,4.995-4.332c2.488,0,4.546,1.244,5.468,3.495L449.454,448.461z"/>
</g>
<g>
	<path fill="#707173" d="M443.793,485.176v-1.329h2.68v-12.588l-2.979,0.3v-1.007c1.071-0.322,2.294-0.644,2.979-1.073h1.545v14.368
		h2.638v1.329H443.793z"/>
</g>
<g>
	<path fill="#707173" d="M247.19,510.525h-10.056v-1.63c2.68-5.425,8.449-5.746,8.449-9.906c0-1.802-1.158-2.831-3.131-2.831
		c-2.23,0-3.389,1.802-3.646,3.367l-1.521-0.343c0.493-2.145,1.758-4.354,5.21-4.354c2.531,0,4.718,1.459,4.718,4.117
		c0,4.718-6.776,6.003-8.449,10.25h8.427V510.525z"/>
</g>
<g>
	<path fill="#707173" d="M271.817,506.838c1.18,1.587,2.637,2.573,4.245,2.573c2.273,0,3.646-1.158,3.646-3.003
		c0-2.166-1.288-3.474-4.375-3.474h-1.522v-1.329h0.922c3.088,0,4.418-0.986,4.418-2.896c0-1.565-1.353-2.552-2.831-2.552
		c-1.887,0-2.701,0.815-3.731,2.145l-1.266-0.857c1.052-1.459,2.51-2.616,4.997-2.616c2.745,0,4.46,1.415,4.46,3.859
		c0,1.866-1.201,2.959-2.402,3.432c2.445,0.943,2.96,2.701,2.96,4.117c0,2.637-2.037,4.503-5.275,4.503
		c-2.959,0-4.76-1.845-5.489-3.046L271.817,506.838z"/>
</g>
<g>
	<path fill="#707173" d="M313.447,506.881v3.645h-1.543v-3.645h-7.12v-1.331l6.39-10.506h2.273v10.506h2.659v1.331H313.447z
		 M306.414,505.55h5.49v-8.876h-0.065L306.414,505.55z"/>
</g>
<g>
	<path fill="#707173" d="M348.837,496.373h-6.647l-0.386,4.953c1.008-0.922,2.08-1.266,3.174-1.266c2.573,0,4.954,1.759,4.954,5.233
		c0,2.358-1.416,5.446-5.361,5.446c-2.638,0-3.968-1.459-4.933-2.96l1.395-0.729c0.75,1.395,1.951,2.359,3.581,2.359
		c2.036,0,3.688-1.201,3.688-4.117c0-2.274-1.329-3.902-3.474-3.902c-1.502,0-2.639,0.899-3.261,2.337l-1.351-0.301l0.688-8.384
		h7.933V496.373z"/>
</g>
<g>
	<path fill="#707173" d="M382.533,497.038c-0.707-0.558-1.436-0.88-2.637-0.88c-2.445,0-4.718,2.016-4.761,6.476
		c0.943-0.986,2.101-1.843,4.245-1.843c2.316,0,4.654,1.629,4.654,4.974c0,3.302-2.424,4.976-4.997,4.976
		c-3.216,0-5.532-1.887-5.532-7.163c0-4.889,2.187-8.748,6.348-8.748c1.673,0,2.895,0.472,3.345,0.9L382.533,497.038z
		 M379.168,502.12c-1.889,0-3.861,1.544-3.989,3.302c0.085,2.188,1.501,3.989,3.731,3.989c2.188,0,3.495-1.502,3.495-3.604
		C382.405,503.406,380.796,502.12,379.168,502.12z"/>
</g>
<g>
	<path fill="#008CB7" d="M407.589,495.044h10.614v1.608l-6.369,13.873h-3.066l6.262-13.08h-7.44V495.044z"/>
</g>
<g>
	<path fill="#707173" d="M447.01,510.74c-3.796,0-5.641-1.887-5.641-4.245c0-1.974,1.545-3.346,3.389-4.204v-0.043
		c-1.715-0.643-2.745-1.951-2.745-3.56c0-2.53,2.145-3.859,4.997-3.859c2.852,0,4.996,1.329,4.996,3.859
		c0,1.608-1.03,2.917-2.745,3.56v0.043c1.845,0.665,3.389,2.102,3.389,4.204C452.649,508.854,450.805,510.74,447.01,510.74z
		 M447.01,509.411c2.809,0,4.01-1.544,4.01-2.916c0-1.802-1.844-2.703-4.289-3.519c-1.887,0.815-3.73,1.717-3.73,3.519
		C443,507.867,444.2,509.411,447.01,509.411z M447.01,496.158c-1.694,0-3.366,0.729-3.366,2.445c0,1.672,2.101,2.615,3.366,2.98
		c1.716-0.429,3.366-1.48,3.366-2.98C450.376,496.888,448.703,496.158,447.01,496.158z"/>
</g>
<g>
	<path fill="#707173" d="M238.507,533.881c0.708,0.558,1.437,0.88,2.638,0.88c2.444,0,4.567-2.188,4.761-6.476
		c-0.943,0.986-2.102,1.843-4.246,1.843c-2.315,0-4.653-1.629-4.653-4.974c0-3.302,2.423-4.976,4.996-4.976
		c3.218,0,5.533,1.887,5.533,7.163c0,4.889-2.188,8.748-6.348,8.748c-1.672,0-2.895-0.472-3.346-0.9L238.507,533.881z
		 M241.874,528.799c1.887,0,3.346-1.244,3.944-2.873c-0.042-2.701-1.457-4.418-3.688-4.418c-2.188,0-3.495,1.502-3.495,3.604
		C238.636,527.513,240.244,528.799,241.874,528.799z"/>
</g>
<g>
	<path fill="#707173" d="M266.723,535.875v-1.329h2.68v-12.587l-2.979,0.3v-1.007c1.071-0.322,2.294-0.644,2.979-1.073h1.544v14.367
		h2.638v1.329H266.723z"/>
	<path fill="#707173" d="M282.832,520.179c3.365,0,5.468,2.359,5.468,7.955c0,5.598-2.103,7.956-5.468,7.956
		c-3.367,0-5.468-2.358-5.468-7.956C277.364,522.538,279.465,520.179,282.832,520.179z M282.832,534.761
		c2.508,0,3.838-1.93,3.838-6.627c0-4.696-1.33-6.626-3.838-6.626c-2.51,0-3.84,1.93-3.84,6.626
		C278.992,532.831,280.322,534.761,282.832,534.761z"/>
</g>
<g>
	<path fill="#707173" d="M300.848,535.875v-1.329h2.68v-12.587l-2.979,0.3v-1.007c1.071-0.322,2.294-0.644,2.979-1.073h1.544v14.367
		h2.638v1.329H300.848z"/>
	<path fill="#707173" d="M313.739,535.875v-1.329h2.681v-12.587l-2.979,0.3v-1.007c1.071-0.322,2.294-0.644,2.979-1.073h1.545
		v14.367h2.637v1.329H313.739z"/>
</g>
<g>
	<path fill="#707173" d="M334.973,535.875v-1.329h2.68v-12.587l-2.979,0.3v-1.007c1.071-0.322,2.294-0.644,2.979-1.073h1.544v14.367
		h2.638v1.329H334.973z"/>
	<path fill="#707173" d="M356.013,535.875h-10.056v-1.63c2.68-5.425,8.448-5.746,8.448-9.906c0-1.801-1.158-2.831-3.131-2.831
		c-2.23,0-3.388,1.802-3.646,3.367l-1.522-0.343c0.494-2.145,1.758-4.354,5.21-4.354c2.531,0,4.718,1.459,4.718,4.117
		c0,4.718-6.775,6.004-8.449,10.25h8.428V535.875z"/>
</g>
<g>
	<path fill="#707173" d="M369.098,535.875v-1.329h2.68v-12.587l-2.979,0.3v-1.007c1.071-0.322,2.294-0.644,2.979-1.073h1.544v14.367
		h2.638v1.329H369.098z"/>
	<path fill="#707173" d="M380.639,532.188c1.18,1.587,2.637,2.573,4.245,2.573c2.274,0,3.646-1.158,3.646-3.002
		c0-2.166-1.287-3.474-4.375-3.474h-1.521v-1.329h0.921c3.088,0,4.418-0.986,4.418-2.896c0-1.565-1.352-2.552-2.831-2.552
		c-1.886,0-2.701,0.815-3.73,2.145l-1.266-0.856c1.051-1.459,2.51-2.617,4.996-2.617c2.745,0,4.46,1.416,4.46,3.859
		c0,1.866-1.201,2.96-2.401,3.432c2.444,0.943,2.959,2.702,2.959,4.117c0,2.637-2.036,4.503-5.275,4.503
		c-2.959,0-4.759-1.845-5.489-3.046L380.639,532.188z"/>
</g>
<g>
	<path fill="#008CB7" d="M403.029,535.875v-2.144h2.402v-10.68h-2.745v-1.8c1.416-0.065,2.659-0.386,3.367-1.073h2.166v13.553h2.379
		v2.144H403.029z"/>
	<path fill="#008CB7" d="M413.306,529.593l6.604-9.199h3.023v9.778h2.188v2.144h-2.188v3.56h-2.658v-3.56h-6.97V529.593z
		 M420.275,530.172v-6.905h-0.044l-4.782,6.905H420.275z"/>
</g>
<g>
	<path fill="#707173" d="M437.348,535.875v-1.329h2.68v-12.587l-2.979,0.3v-1.007c1.071-0.322,2.294-0.644,2.979-1.073h1.544v14.367
		h2.638v1.329H437.348z"/>
	<path fill="#707173" d="M457.659,521.723h-6.647l-0.386,4.954c1.008-0.922,2.079-1.266,3.174-1.266
		c2.573,0,4.953,1.758,4.953,5.232c0,2.359-1.415,5.446-5.361,5.446c-2.638,0-3.967-1.459-4.932-2.959l1.394-0.729
		c0.751,1.394,1.951,2.358,3.582,2.358c2.036,0,3.688-1.201,3.688-4.117c0-2.273-1.329-3.902-3.474-3.902
		c-1.502,0-2.638,0.9-3.26,2.337l-1.351-0.301l0.687-8.384h7.934V521.723z"/>
</g>
<g>
	<path fill="#707173" d="M232.598,561.226v-1.329h2.68v-12.588l-2.979,0.3v-1.007c1.071-0.322,2.294-0.644,2.979-1.072h1.544v14.367
		h2.638v1.329H232.598z"/>
	<path fill="#707173" d="M252.479,547.738c-0.707-0.558-1.436-0.88-2.637-0.88c-2.445,0-4.718,2.016-4.761,6.476
		c0.943-0.986,2.102-1.844,4.245-1.844c2.317,0,4.654,1.629,4.654,4.975c0,3.302-2.424,4.976-4.997,4.976
		c-3.216,0-5.532-1.887-5.532-7.163c0-4.889,2.188-8.748,6.348-8.748c1.673,0,2.895,0.472,3.345,0.899L252.479,547.738z
		 M249.114,552.82c-1.888,0-3.86,1.543-3.989,3.302c0.085,2.188,1.501,3.988,3.731,3.988c2.188,0,3.495-1.501,3.495-3.603
		C252.352,554.105,250.743,552.82,249.114,552.82z"/>
</g>
<g>
	<path fill="#707173" d="M266.723,561.226v-1.329h2.68v-12.588l-2.979,0.3v-1.007c1.071-0.322,2.294-0.644,2.979-1.072h1.544v14.367
		h2.638v1.329H266.723z"/>
	<path fill="#707173" d="M277.878,547.072v-1.329h9.821v0.943l-6.541,14.539h-1.801l6.369-14.153H277.878z"/>
</g>
<g>
	<path fill="#707173" d="M300.848,561.226v-1.329h2.68v-12.588l-2.979,0.3v-1.007c1.071-0.322,2.294-0.644,2.979-1.072h1.544v14.367
		h2.638v1.329H300.848z"/>
	<path fill="#707173" d="M316.957,561.44c-3.796,0-5.641-1.887-5.641-4.246c0-1.973,1.545-3.345,3.388-4.203v-0.043
		c-1.715-0.643-2.744-1.951-2.744-3.56c0-2.53,2.145-3.859,4.997-3.859c2.851,0,4.995,1.329,4.995,3.859
		c0,1.608-1.029,2.917-2.744,3.56v0.043c1.844,0.665,3.388,2.102,3.388,4.203C322.596,559.554,320.751,561.44,316.957,561.44z
		 M316.957,560.11c2.808,0,4.009-1.543,4.009-2.916c0-1.801-1.844-2.702-4.288-3.518c-1.887,0.815-3.731,1.717-3.731,3.518
		C312.946,558.567,314.147,560.11,316.957,560.11z M316.957,546.858c-1.695,0-3.367,0.729-3.367,2.445
		c0,1.672,2.102,2.615,3.367,2.98c1.715-0.429,3.365-1.48,3.365-2.98C320.322,547.588,318.65,546.858,316.957,546.858z"/>
</g>
<g>
	<path fill="#707173" d="M334.973,561.226v-1.329h2.68v-12.588l-2.979,0.3v-1.007c1.071-0.322,2.294-0.644,2.979-1.072h1.544v14.367
		h2.638v1.329H334.973z"/>
	<path fill="#707173" d="M347.329,559.231c0.707,0.557,1.436,0.879,2.637,0.879c2.445,0,4.567-2.187,4.761-6.476
		c-0.943,0.986-2.102,1.844-4.245,1.844c-2.315,0-4.654-1.629-4.654-4.975c0-3.302,2.424-4.975,4.997-4.975
		c3.217,0,5.532,1.886,5.532,7.162c0,4.89-2.188,8.749-6.348,8.749c-1.672,0-2.895-0.473-3.345-0.9L347.329,559.231z
		 M350.695,554.149c1.887,0,3.346-1.244,3.945-2.873c-0.042-2.702-1.458-4.418-3.688-4.418c-2.188,0-3.495,1.502-3.495,3.603
		C347.457,552.863,349.065,554.149,350.695,554.149z"/>
</g>
<g>
	<path fill="#707173" d="M377.245,561.226h-10.056v-1.63c2.68-5.425,8.449-5.746,8.449-9.906c0-1.802-1.158-2.831-3.131-2.831
		c-2.23,0-3.389,1.801-3.646,3.366l-1.522-0.343c0.493-2.144,1.759-4.353,5.211-4.353c2.531,0,4.717,1.458,4.717,4.117
		c0,4.717-6.775,6.003-8.448,10.25h8.427V561.226z"/>
	<path fill="#707173" d="M385.207,545.529c3.365,0,5.468,2.358,5.468,7.954c0,5.598-2.103,7.957-5.468,7.957
		c-3.367,0-5.468-2.359-5.468-7.957C379.739,547.888,381.84,545.529,385.207,545.529z M385.207,560.11
		c2.508,0,3.838-1.93,3.838-6.627c0-4.695-1.33-6.625-3.838-6.625c-2.51,0-3.84,1.93-3.84,6.625
		C381.367,558.181,382.697,560.11,385.207,560.11z"/>
</g>
<g>
	<path fill="#008CB7" d="M401.1,561.226v-2.552c0.472-2.424,7.634-5.854,7.634-8.685c0-1.352-0.88-2.145-2.294-2.145
		c-1.544,0-2.445,1.029-2.788,2.445l-2.486-0.536c0.321-2.38,2.552-4.225,5.316-4.225c2.725,0,5.04,1.565,5.04,4.46
		c0,3.773-3.475,5.317-7.334,8.834h7.334v2.402H401.1z"/>
	<path fill="#008CB7" d="M415.922,561.226v-2.145h2.401v-10.679h-2.744v-1.801c1.415-0.064,2.658-0.386,3.366-1.072h2.166v13.552
		h2.379v2.145H415.922z"/>
</g>
<g>
	<path fill="#008CB7" d="M435.225,561.226v-2.552c0.472-2.424,7.634-5.854,7.634-8.685c0-1.352-0.88-2.145-2.294-2.145
		c-1.544,0-2.445,1.029-2.788,2.445l-2.486-0.536c0.321-2.38,2.552-4.225,5.316-4.225c2.725,0,5.04,1.565,5.04,4.46
		c0,3.773-3.475,5.317-7.334,8.834h7.334v2.402H435.225z"/>
	<path fill="#008CB7" d="M448.117,561.226v-2.552c0.471-2.424,7.634-5.854,7.634-8.685c0-1.352-0.88-2.145-2.294-2.145
		c-1.544,0-2.445,1.029-2.788,2.445l-2.487-0.536c0.321-2.38,2.552-4.225,5.317-4.225c2.724,0,5.04,1.565,5.04,4.46
		c0,3.773-3.476,5.317-7.335,8.834h7.335v2.402H448.117z"/>
</g>
<g>
	<path fill="#707173" d="M240.745,586.575h-10.056v-1.63c2.68-5.425,8.449-5.746,8.449-9.906c0-1.802-1.158-2.831-3.131-2.831
		c-2.23,0-3.389,1.802-3.646,3.367l-1.522-0.343c0.493-2.145,1.759-4.354,5.211-4.354c2.531,0,4.717,1.459,4.717,4.117
		c0,4.718-6.775,6.004-8.448,10.25h8.427V586.575z"/>
	<path fill="#707173" d="M244.139,582.888c1.18,1.587,2.637,2.573,4.245,2.573c2.274,0,3.646-1.158,3.646-3.003
		c0-2.165-1.287-3.473-4.375-3.473h-1.521v-1.33h0.921c3.088,0,4.418-0.986,4.418-2.896c0-1.565-1.352-2.552-2.831-2.552
		c-1.886,0-2.701,0.815-3.73,2.145l-1.266-0.857c1.051-1.458,2.51-2.616,4.996-2.616c2.745,0,4.46,1.416,4.46,3.859
		c0,1.866-1.201,2.959-2.401,3.432c2.444,0.943,2.959,2.701,2.959,4.117c0,2.637-2.036,4.503-5.275,4.503
		c-2.959,0-4.759-1.845-5.489-3.046L244.139,582.888z"/>
</g>
<g>
	<path fill="#707173" d="M274.87,586.575h-10.056v-1.63c2.68-5.425,8.449-5.746,8.449-9.906c0-1.802-1.158-2.831-3.131-2.831
		c-2.23,0-3.389,1.802-3.646,3.367l-1.522-0.343c0.493-2.145,1.759-4.354,5.211-4.354c2.531,0,4.717,1.459,4.717,4.117
		c0,4.718-6.775,6.004-8.448,10.25h8.427V586.575z"/>
	<path fill="#707173" d="M285.77,582.931v3.645h-1.544v-3.645h-7.119v-1.33l6.39-10.507h2.273v10.507h2.658v1.33H285.77z
		 M278.736,581.601h5.489v-8.877h-0.064L278.736,581.601z"/>
</g>
<g>
	<path fill="#707173" d="M308.995,586.575h-10.056v-1.63c2.68-5.425,8.449-5.746,8.449-9.906c0-1.802-1.158-2.831-3.131-2.831
		c-2.23,0-3.389,1.802-3.646,3.367l-1.522-0.343c0.493-2.145,1.759-4.354,5.211-4.354c2.531,0,4.717,1.459,4.717,4.117
		c0,4.718-6.775,6.004-8.448,10.25h8.427V586.575z"/>
	<path fill="#707173" d="M321.159,572.423h-6.647l-0.386,4.953c1.008-0.921,2.079-1.266,3.174-1.266
		c2.573,0,4.953,1.759,4.953,5.233c0,2.358-1.415,5.446-5.361,5.446c-2.638,0-3.967-1.459-4.932-2.959l1.394-0.729
		c0.751,1.395,1.951,2.359,3.582,2.359c2.036,0,3.688-1.201,3.688-4.117c0-2.273-1.329-3.902-3.474-3.902
		c-1.502,0-2.638,0.899-3.26,2.337l-1.351-0.301l0.687-8.384h7.934V572.423z"/>
</g>
<g>
	<path fill="#707173" d="M343.12,586.575h-10.056v-1.63c2.68-5.425,8.449-5.746,8.449-9.906c0-1.802-1.158-2.831-3.131-2.831
		c-2.23,0-3.389,1.802-3.646,3.367l-1.522-0.343c0.493-2.145,1.759-4.354,5.211-4.354c2.531,0,4.717,1.459,4.717,4.117
		c0,4.718-6.775,6.004-8.448,10.25h8.427V586.575z"/>
	<path fill="#707173" d="M354.854,573.088c-0.707-0.558-1.436-0.88-2.637-0.88c-2.445,0-4.718,2.017-4.761,6.476
		c0.943-0.986,2.102-1.843,4.245-1.843c2.317,0,4.654,1.629,4.654,4.974c0,3.303-2.424,4.976-4.997,4.976
		c-3.216,0-5.532-1.887-5.532-7.163c0-4.889,2.188-8.748,6.348-8.748c1.673,0,2.895,0.473,3.345,0.9L354.854,573.088z
		 M351.489,578.17c-1.888,0-3.86,1.544-3.989,3.302c0.085,2.188,1.501,3.989,3.731,3.989c2.188,0,3.495-1.502,3.495-3.604
		C354.727,579.456,353.118,578.17,351.489,578.17z"/>
</g>
<g>
	<path fill="#707173" d="M377.245,586.575h-10.056v-1.63c2.68-5.425,8.449-5.746,8.449-9.906c0-1.802-1.158-2.831-3.131-2.831
		c-2.23,0-3.389,1.802-3.646,3.367l-1.522-0.343c0.493-2.145,1.759-4.354,5.211-4.354c2.531,0,4.717,1.459,4.717,4.117
		c0,4.718-6.775,6.004-8.448,10.25h8.427V586.575z"/>
	<path fill="#707173" d="M380.253,572.423v-1.329h9.821v0.943l-6.541,14.538h-1.801l6.369-14.152H380.253z"/>
</g>
<g>
	<path fill="#707173" d="M411.37,586.575h-10.056v-1.63c2.68-5.425,8.449-5.746,8.449-9.906c0-1.802-1.158-2.831-3.131-2.831
		c-2.23,0-3.389,1.802-3.646,3.367l-1.522-0.343c0.493-2.145,1.759-4.354,5.211-4.354c2.531,0,4.717,1.459,4.717,4.117
		c0,4.718-6.775,6.004-8.448,10.25h8.427V586.575z"/>
	<path fill="#707173" d="M419.332,586.79c-3.796,0-5.641-1.887-5.641-4.245c0-1.973,1.545-3.346,3.388-4.204v-0.043
		c-1.715-0.643-2.744-1.951-2.744-3.56c0-2.53,2.145-3.859,4.997-3.859c2.851,0,4.995,1.329,4.995,3.859
		c0,1.608-1.029,2.917-2.744,3.56v0.043c1.844,0.666,3.388,2.102,3.388,4.204C424.971,584.903,423.126,586.79,419.332,586.79z
		 M419.332,585.461c2.808,0,4.009-1.544,4.009-2.916c0-1.802-1.844-2.703-4.288-3.519c-1.887,0.815-3.731,1.717-3.731,3.519
		C415.321,583.917,416.522,585.461,419.332,585.461z M419.332,572.208c-1.695,0-3.367,0.73-3.367,2.445
		c0,1.672,2.102,2.615,3.367,2.98c1.715-0.429,3.365-1.479,3.365-2.98C422.697,572.938,421.025,572.208,419.332,572.208z"/>
</g>
<g>
	<path fill="#707173" d="M445.495,586.575h-10.056v-1.63c2.68-5.425,8.449-5.746,8.449-9.906c0-1.802-1.158-2.831-3.131-2.831
		c-2.23,0-3.389,1.802-3.646,3.367l-1.522-0.343c0.493-2.145,1.759-4.354,5.211-4.354c2.531,0,4.717,1.459,4.717,4.117
		c0,4.718-6.775,6.004-8.448,10.25h8.427V586.575z"/>
	<path fill="#707173" d="M449.704,584.581c0.707,0.558,1.436,0.88,2.637,0.88c2.445,0,4.567-2.188,4.761-6.476
		c-0.943,0.986-2.102,1.843-4.245,1.843c-2.315,0-4.654-1.629-4.654-4.974c0-3.303,2.424-4.976,4.997-4.976
		c3.217,0,5.532,1.887,5.532,7.163c0,4.889-2.188,8.748-6.348,8.748c-1.672,0-2.895-0.473-3.345-0.9L449.704,584.581z
		 M453.07,579.499c1.887,0,3.346-1.244,3.945-2.873c-0.042-2.701-1.458-4.418-3.688-4.418c-2.188,0-3.495,1.502-3.495,3.604
		C449.832,578.213,451.44,579.499,453.07,579.499z"/>
</g>
<g>
	<path fill="#707173" d="M231.247,608.237c1.179,1.587,2.637,2.573,4.245,2.573c2.273,0,3.646-1.157,3.646-3.002
		c0-2.166-1.288-3.474-4.375-3.474h-1.522v-1.329h0.922c3.087,0,4.418-0.986,4.418-2.896c0-1.565-1.353-2.552-2.831-2.552
		c-1.887,0-2.702,0.814-3.731,2.144l-1.266-0.856c1.051-1.459,2.51-2.617,4.997-2.617c2.744,0,4.46,1.416,4.46,3.859
		c0,1.866-1.201,2.96-2.402,3.432c2.445,0.943,2.959,2.702,2.959,4.117c0,2.637-2.036,4.503-5.274,4.503
		c-2.959,0-4.76-1.845-5.489-3.045L231.247,608.237z"/>
	<path fill="#707173" d="M248.707,596.229c3.365,0,5.468,2.359,5.468,7.955c0,5.598-2.103,7.956-5.468,7.956
		c-3.367,0-5.468-2.358-5.468-7.956C243.239,598.588,245.34,596.229,248.707,596.229z M248.707,610.811
		c2.508,0,3.838-1.93,3.838-6.627c0-4.695-1.33-6.625-3.838-6.625c-2.51,0-3.84,1.93-3.84,6.625
		C244.867,608.881,246.197,610.811,248.707,610.811z"/>
</g>
<g>
	<path fill="#707173" d="M241.289,388.284c-0.749,0.304-1.615,0.117-1.615,0.117s-2.574-0.117-3.979-1.218
		c-1.966-1.545-2.082-7.49-2.082-7.49c-0.118-8.052,9.479-1.825,9.479-1.825c-4.05-1.826-6.812-2.131-6.812,2.105
		c0,3.887,1.545,6.999,1.545,6.999c3.441,0.141,6.017-1.567,6.017-1.567c0.702,0.069,2.294,1.193,2.294,1.193
		c-0.914,0.491-1.85,0.937-2.529,1.17c0,0.305,0,0.866,0,1.873h-2.316C241.289,388.962,241.289,388.916,241.289,388.284z
		 M246.415,378.195l1.382,1.428l-1.382,1.382l-1.381-1.382L246.415,378.195z"/>
	<path fill="#707173" d="M237.286,390.128l1.381,1.428l-1.381,1.382l-1.382-1.382L237.286,390.128z M237.286,392.938l1.381,1.428
		l-1.381,1.381l-1.382-1.381L237.286,392.938z M241.289,396.822c-0.023-2.106,0.491-3.838,2.177-4.143c0,0-1.17-0.539-1.709-1.077
		c-0.281-0.305-0.445-0.796-0.468-2.458h2.316c0.024,2.902,0.913,3.277,0.913,3.277s1.078,0.305,1.592,0.609
		c0.352,0.256,0.141,0.256,0.141,0.256c-1.614,0-2.646,1.288-2.646,3.535H241.289z"/>
	<path fill="#707173" d="M241.289,404.171c-0.023-2.107,0.491-3.84,2.177-4.145c0,0-1.17-0.538-1.709-1.076
		c-0.281-0.305-0.445-0.795-0.468-2.458h2.316c0.024,2.902,0.913,3.278,0.913,3.278s1.078,0.305,1.592,0.609
		c0.352,0.256,0.141,0.256,0.141,0.256c-1.614,0-2.646,1.288-2.646,3.535H241.289z M250.558,398.739l1.381,1.43l-1.381,1.379
		l-1.381-1.379L250.558,398.739z"/>
	<path fill="#707173" d="M243.605,403.676c0,3.019,0.142,3.511,0.142,3.511c0.749,0.117,2.504-1.543,2.504-1.543
		c0.234-0.071,2.295,0.934,2.295,0.934s-2.2,2.202-4.752,2.037c0,0-1.404-0.14-2.247-0.724c0,0-0.258-1.079-0.258-4.215H243.605z
		 M251.798,403.98l1.382,1.427l-1.382,1.381l-1.38-1.381L251.798,403.98z M251.822,406.788l1.381,1.43l-1.381,1.381l-1.382-1.381
		L251.822,406.788z M253.905,405.384l1.382,1.428l-1.382,1.381l-1.381-1.381L253.905,405.384z"/>
	<path fill="#707173" d="M238.809,412.453c0,0-0.305-2.014-0.773-0.633c-0.469,1.382-0.14,2.012-0.094,2.364
		c0.047,0.327-0.257,0.117-0.257,0.117l-0.469-0.47c0,0-0.258-0.163-0.327-0.444c-0.352-1.567-1.218-2.458-1.265-2.504
		c-0.047-0.117-0.094-0.165,0.047-0.233c0.233,0,1.218,0.749,1.218,0.749c0.069,0,0.117-0.47,0.117-0.47s0.022-1.171,1.029-0.584
		c1.498,0.889,1.872,2.48,1.825,2.785c-0.069,0.305-0.351,0.538-0.351,0.538l-0.819-0.96L238.809,412.453z M253.741,419.872
		c0,0-0.632-0.771-1.498-0.703c-2.199,0.188-3.955-0.163-5.313-0.701c-1.498,0.843-2.809,1.382-3.58,1.498
		c-0.446,0.068-2.247-0.351-2.247-0.351c-0.469-1.17-0.399-5.923-0.399-5.923c0.983-0.399,2.974,0,2.974,0
		c-0.234,0.165-0.211,0.515-0.211,0.515c1.193,1.404,2.131,2.247,2.902,2.763c2.153-1.31,3.301-2.574,3.581-2.928
		c1.1-1.355,0.891-1.473,0.891-1.473s-0.399-0.865,0.28-1.076c0.655-0.211,1.451-0.398,2.176-0.282c1.265,0.211,1.007,1.1,1.007,1.1
		c-1.567,2.153-3.932,4.05-6.109,5.432c1.498,0.327,3.44,0.022,3.44,0.022s0.844-0.14,1.358-0.422
		c1.124-0.632,2.364,1.125,2.364,1.125C253.671,418.656,253.741,419.872,253.741,419.872z M243.419,415.939l0.164,2.435
		c0.608-0.257,1.17-0.516,1.662-0.771C244.004,416.782,243.419,415.939,243.419,415.939z"/>
	<path fill="#707173" d="M255.287,424.011c-2.786,0.071-4.191,0.236-5.572,0.305c-1.311,0.071-3.838,0.188-5.477,0.233
		c-2.387,0.071-3.44-0.724-3.909-1.122c-0.141-0.117,0-0.117,0-0.117c1.615-0.094,4.799-0.398,4.799-0.398l6.717-0.373
		C253.929,422.421,255.287,424.011,255.287,424.011z"/>
</g>
<g>
	<path fill="#707173" d="M279.04,379.765c0,0-0.469-3.815-1.382-1.193c-0.937,2.645-0.327,3.861-0.211,4.517
		c0.047,0.608-0.491,0.235-0.491,0.235l-0.912-0.891c0,0-0.492-0.352-0.633-0.89c-0.726-2.972-2.316-4.681-2.411-4.798
		c-0.141-0.21-0.188-0.328,0.095-0.374c0.374,0,2.316,1.404,2.316,1.404c0.164,0,0.233-0.913,0.233-0.913s0.024-2.294,2.014-1.101
		c2.785,1.662,3.534,4.682,3.465,5.29c-0.164,0.632-0.703,1.029-0.703,1.029l-1.544-1.801L279.04,379.765z"/>
	<path fill="#707173" d="M274.99,390.107c0,0-0.211-4.167,2.996-4.261l9.269-0.257c0.491-0.023,1.686,1.335,1.686,1.335
		c-0.912,0-6.555,0.14-9.573,0.14c-2.271,0-2.061,3.043-2.061,3.043H274.99z"/>
	<path fill="#707173" d="M277.307,389.497c0,3.019,0.141,3.51,0.141,3.51c0.749,0.118,2.505-1.544,2.505-1.544
		c0.233-0.071,2.294,0.936,2.294,0.936s-2.2,2.2-4.752,2.037c0,0-1.403-0.14-2.247-0.726c0,0-0.257-1.076-0.257-4.213H277.307z
		 M285.499,389.802l1.381,1.427l-1.381,1.381l-1.38-1.381L285.499,389.802z M285.523,392.609l1.381,1.429l-1.381,1.38l-1.382-1.38
		L285.523,392.609z M287.606,391.205l1.381,1.429l-1.381,1.38l-1.381-1.38L287.606,391.205z"/>
	<path fill="#707173" d="M274.99,409.015c0,0-0.258-3.041,2.832-3.204c3.019-0.165,4.563-0.211,4.563-0.211s-8.355-1.03-7.84-7.327
		l0.21-2.575c1.615,7.841,8.895,9.271,8.895,9.271c3.02,0.467,4.214,0,4.892,0.302c0.702,0.47,0.68,0.938-0.491,1.009
		c0,0-4.845,0.489-8.146,0.515c-2.832,0.023-2.599,2.222-2.599,2.222H274.99z M284.375,398.811c0,0-0.233-1.803,1.616-2.176
		c1.638-0.328,2.575-0.47,1.873,0.795c-0.68,1.546-2.341,2.973-4.144,3.861c-2.622,1.287-5.782,0.211-5.782,0.211
		S282.339,401.573,284.375,398.811z"/>
	<path fill="#707173" d="M274.99,416.338c-0.023-2.105,0.491-3.837,2.177-4.142c0,0-1.171-0.538-1.709-1.076
		c-0.281-0.305-0.445-0.798-0.468-2.458h2.316c0.024,2.902,0.913,3.275,0.913,3.275s1.077,0.305,1.592,0.609
		c0.352,0.257,0.141,0.257,0.141,0.257c-1.614,0-2.646,1.287-2.646,3.534H274.99z M283.837,409.505l1.382,1.427l-1.382,1.382
		l-1.38-1.382L283.837,409.505z M283.837,412.313l1.382,1.427l-1.382,1.381l-1.38-1.381L283.837,412.313z M286.295,410.909
		l1.381,1.427l-1.381,1.382l-1.381-1.382L286.295,410.909z"/>
	<path fill="#707173" d="M277.471,418.044c0.749,0.188,7.187-0.373,7.187-0.373c0.491-0.023,0.749-0.071,1.427-0.354
		c1.171-0.489,2.785,1.079,2.785,1.079s-1.731,0.092-2.176,1.521c0,0-0.468-0.843-1.732-0.772c-0.866,0.046-5.22,0.209-6.296,0.163
		c-1.218-0.046-2.435,0-3.465-0.772c0,0-0.188-1.381-0.188-2.552h2.294C277.307,417.412,277.471,418.044,277.471,418.044z"/>
	<path fill="#707173" d="M288.987,424.011c-2.785,0.071-4.19,0.236-5.571,0.305c-1.311,0.071-3.838,0.188-5.478,0.233
		c-2.387,0.071-3.44-0.724-3.908-1.122c-0.142-0.117,0-0.117,0-0.117c1.614-0.094,4.799-0.398,4.799-0.398l6.717-0.373
		C287.629,422.421,288.987,424.011,288.987,424.011z"/>
</g>
<g>
	<path fill="#707173" d="M312.74,376.185c0,0-0.468-3.815-1.381-1.193c-0.937,2.645-0.327,3.861-0.211,4.517
		c0.047,0.608-0.491,0.235-0.491,0.235l-0.913-0.891c0,0-0.491-0.352-0.632-0.89c-0.727-2.972-2.317-4.681-2.411-4.798
		c-0.141-0.21-0.188-0.328,0.094-0.374c0.375,0,2.317,1.404,2.317,1.404c0.164,0,0.233-0.913,0.233-0.913s0.024-2.294,2.014-1.101
		c2.785,1.662,3.534,4.682,3.465,5.29c-0.164,0.632-0.704,1.029-0.704,1.029l-1.543-1.801L312.74,376.185z"/>
	<path fill="#707173" d="M308.69,386.527c0,0-0.21-4.167,2.996-4.261l9.27-0.257c0.491-0.023,1.686,1.335,1.686,1.335
		c-0.913,0-6.555,0.14-9.573,0.14c-2.271,0-2.061,3.043-2.061,3.043H308.69z"/>
	<path fill="#707173" d="M308.69,394.297c0-1.265,0.352-2.763,1.382-3.559c0,0-1.382-1.498-1.382-4.846h2.317
		c-0.023,3.254,0.702,3.652,0.702,3.652c0.912-0.327,0.679-2.154,0.679-2.154s2.575,0.024,2.575,2.435
		c0,2.88-1.989,2.855-1.989,2.855l-1.265-0.796c-0.586,0.562-0.702,1.147-0.702,2.412H308.69z"/>
	<path fill="#707173" d="M305.297,394.716l1.381,1.429l-1.381,1.379l-1.381-1.379L305.297,394.716z M311.008,393.803
		c0,3.02,0.141,3.51,0.141,3.51c0.749,0.119,2.505-1.544,2.505-1.544c0.233-0.071,2.294,0.938,2.294,0.938s-2.2,2.198-4.752,2.036
		c0,0-1.404-0.14-2.247-0.727c0,0-0.258-1.076-0.258-4.213H311.008z"/>
	<path fill="#707173" d="M310.399,409.015c-1.942,0.046-5.664-1.521-6.203-4.283c-0.491-2.506,1.171-4.938,1.171-4.938
		c-0.516,1.849,0.397,3.626,0.655,4.213c0.491,1.099,3.02,4.237,4.119,4.05c1.054-0.188,1.896-1.569,2.225-1.897
		c0.233-0.233,2.668,0.727,2.668,0.727C313.513,409.015,311.195,408.992,310.399,409.015z"/>
	<path fill="#707173" d="M321.144,419.639c0,0-0.632-0.772-1.498-0.703c-2.2,0.188-3.956-0.163-5.314-0.701
		c-1.498,0.843-2.808,1.381-3.58,1.498c-0.445,0.068-2.247-0.351-2.247-0.351c-0.468-1.17-0.398-5.924-0.398-5.924
		c0.982-0.398,2.974,0,2.974,0c-0.235,0.165-0.211,0.516-0.211,0.516c1.193,1.404,2.13,2.247,2.902,2.763
		c2.152-1.311,3.301-2.574,3.581-2.928c1.1-1.355,0.89-1.473,0.89-1.473s-0.398-0.865,0.281-1.076
		c0.654-0.211,1.45-0.398,2.176-0.282c1.265,0.211,1.007,1.1,1.007,1.1c-1.568,2.153-3.932,4.05-6.109,5.431
		c1.498,0.328,3.44,0.023,3.44,0.023s0.843-0.14,1.358-0.422c1.124-0.632,2.364,1.125,2.364,1.125
		C321.072,418.422,321.144,419.639,321.144,419.639z M310.821,415.705l0.163,2.436c0.608-0.257,1.171-0.516,1.662-0.772
		C311.406,416.549,310.821,415.705,310.821,415.705z M325.544,411.681c0,0-0.375-2.412-0.938-0.749
		c-0.561,1.661-0.187,2.41-0.116,2.831c0.047,0.399-0.304,0.14-0.304,0.14l-0.562-0.561c0,0-0.305-0.188-0.397-0.538
		c-0.445-1.872-1.451-2.951-1.521-2.996c-0.047-0.14-0.095-0.188,0.07-0.282c0.281,0,1.451,0.892,1.451,0.892
		c0.093,0,0.14-0.564,0.14-0.564s0.024-1.403,1.24-0.7c1.803,1.054,2.247,2.996,2.202,3.347c-0.095,0.375-0.422,0.654-0.422,0.654
		l-0.983-1.145L325.544,411.681z"/>
	<path fill="#707173" d="M322.688,424.011c-2.785,0.071-4.19,0.236-5.572,0.305c-1.31,0.071-3.837,0.188-5.477,0.233
		c-2.387,0.071-3.44-0.724-3.908-1.122c-0.142-0.117,0-0.117,0-0.117c1.614-0.094,4.799-0.398,4.799-0.398l6.717-0.373
		C321.33,422.421,322.688,424.011,322.688,424.011z"/>
</g>
<g>
	<path fill="#707173" d="M344.899,375.461c-0.727,2.061,0.28,2.692,1.193,3.02c0.654,0.234-0.258,0.422-0.258,0.422
		s-0.678-0.234-0.889-0.071c-0.235,0.071-0.516,0.469-0.516,1.124c0,0.516,0.28,0.679,0.28,0.679s0-0.163,0.68,0
		c0.562,0.14,1.334,0.796,1.334,0.796h-0.89c-1.124,0.14-1.124,1.335-1.124,2.669h-2.316c-0.023-0.656,0-2.529,0.912-3.137
		c0,0-0.912-0.491-0.912-1.451c0-1.101,0.444-1.404,0.444-1.64c0,0-1.03-0.936-0.211-1.848c-1.169,0.21-1.615,0.21-1.615,0.21
		s-2.316-0.023-3.65-0.89c-2.084-1.357-2.061-5.384-2.061-5.384c-0.14-6.53,8.239-1.709,8.239-1.709s-5.852-2.785-5.711,1.92
		c0.117,3.815,1.802,4.962,1.802,4.962c2.061-0.141,5.314-1.614,5.314-1.614c0.444,0.069,1.778,1.287,1.778,1.287
		C346.069,375.11,345.344,375.321,344.899,375.461z"/>
	<path fill="#707173" d="M338.392,384.631l1.381,1.428l-1.381,1.382l-1.382-1.382L338.392,384.631z M338.392,387.44l1.381,1.428
		l-1.381,1.38l-1.382-1.38L338.392,387.44z M342.395,391.325c-0.023-2.106,0.491-3.838,2.177-4.143c0,0-1.17-0.539-1.709-1.077
		c-0.281-0.305-0.445-0.796-0.468-2.458h2.316c0.024,2.902,0.913,3.277,0.913,3.277s1.078,0.305,1.592,0.609
		c0.352,0.256,0.141,0.256,0.141,0.256c-1.614,0-2.646,1.288-2.646,3.535H342.395z"/>
	<path fill="#707173" d="M342.395,401.761c0-1.777,0.258-2.668,0.796-3.229l-1.522-0.632c2.201-2.436,2.061-3.745,2.061-3.745
		s-1.193-0.726-1.334-2.083c0,0,0-0.725,0-1.265h2.316c-0.069,2.95,1.101,3.254,1.101,3.254c2.949,1.054,2.598,4.283,2.598,4.283
		c-2.27-0.655-3.721,0.632-3.698,3.417H342.395z M344.664,397.432c0.796-0.444,1.873,0,1.873,0c0-1.076-1.193-1.779-1.193-1.779
		C345.344,396.66,344.664,397.432,344.664,397.432z"/>
	<path fill="#707173" d="M347.731,405.879c-0.071-0.654-0.235-1.193-0.656-1.731c-0.842-1.102,0.516-0.563,0.516-0.563
		s2.621,0.892,2.574,2.856c-0.069,2.506-1.474,4.426-1.872,6.226c-0.515,2.318-0.328,3.139-0.328,3.139l-2.621-0.749
		c0,0,0-1.547-0.095-2.272c-0.631-0.046-0.538,3.699-0.538,3.699h-2.316c-0.047-5.5,2.763-4.118,2.738-4.167
		c-0.211-0.819-0.678-1.449-1.124-2.503c-1.076-2.506-1.661-4.987-1.614-8.615h2.316c0.047,6.462,2.061,9.575,2.061,9.575
		S347.918,407.705,347.731,405.879z M353.278,408.594l1.381,1.43l-1.381,1.381l-1.38-1.381L353.278,408.594z"/>
	<path fill="#707173" d="M344.875,418.047c0.749,0.185,7.187-0.376,7.187-0.376c0.491-0.023,0.749-0.068,1.427-0.351
		c1.171-0.492,2.786,1.076,2.786,1.076s-1.732,0.095-2.177,1.521c0,0-0.468-0.843-1.732-0.772c-0.866,0.046-5.219,0.211-6.296,0.165
		c-1.217-0.048-2.435,0-3.464-0.774c0,0-0.188-1.381-0.188-2.552h2.294C344.711,417.414,344.875,418.047,344.875,418.047z"/>
	<path fill="#707173" d="M356.393,424.014c-2.786,0.07-4.191,0.233-5.572,0.305c-1.311,0.068-3.838,0.188-5.477,0.233
		c-2.387,0.071-3.44-0.727-3.909-1.125c-0.141-0.117,0-0.117,0-0.117c1.615-0.091,4.799-0.396,4.799-0.396l6.717-0.376
		C355.034,422.421,356.393,424.014,356.393,424.014z"/>
</g>
<g>
	<path fill="#707173" d="M379.234,376.419l-0.305-0.491c-0.163-4.752,0.844-4.144,0.844-4.144l2.363,0.983
		c1.826,1.92,2.902,4.189,2.902,4.189h0.516c0.585,0,1.638,1.124,1.638,1.124s-1.404,0.398-4.564,0.538
		c-3.721,0.141-4.236,1.733-4.213,4.939h-2.317c0-5.313,1.85-5.711,3.698-5.969c0.819-0.117,3.418-0.352,3.418-0.352
		c0-0.538-1.615-2.925-1.826-3.183c0,0-0.023-0.024-0.094,0.187c-0.069,0.211-0.211,1.966-0.211,3.254
		C381.083,377.496,380.194,377.238,379.234,376.419z M388.809,371.762l1.38,1.428l-1.38,1.381l-1.382-1.381L388.809,371.762z
		 M388.809,374.523l1.38,1.428l-1.38,1.381l-1.382-1.381L388.809,374.523z"/>
	<path fill="#707173" d="M376.098,391.326c0-1.265,0.352-2.763,1.382-3.559c0,0-1.382-1.498-1.382-4.846h2.317
		c-0.023,3.254,0.702,3.652,0.702,3.652c0.912-0.327,0.679-2.154,0.679-2.154s2.574,0.024,2.574,2.435
		c0,2.88-1.989,2.855-1.989,2.855l-1.264-0.796c-0.586,0.562-0.702,1.147-0.702,2.412H376.098z"/>
	<path fill="#707173" d="M376.098,401.761c0-1.777,0.258-2.668,0.796-3.229l-1.521-0.632c2.201-2.436,2.06-3.745,2.06-3.745
		s-1.193-0.726-1.334-2.083c0,0,0-0.725,0-1.265h2.317c-0.07,2.95,1.101,3.254,1.101,3.254c2.949,1.054,2.598,4.283,2.598,4.283
		c-2.271-0.655-3.722,0.632-3.698,3.417H376.098z M378.368,397.432c0.796-0.444,1.872,0,1.872,0c0-1.076-1.193-1.779-1.193-1.779
		C379.047,396.66,378.368,397.432,378.368,397.432z"/>
	<path fill="#707173" d="M373.079,408.243l1.38,1.427l-1.38,1.382l-1.382-1.382L373.079,408.243z M381.435,405.879
		c-0.07-0.654-0.234-1.193-0.656-1.731c-0.842-1.102,0.516-0.563,0.516-0.563s2.622,0.892,2.574,2.856
		c-0.069,2.506-1.474,4.426-1.872,6.226c-0.515,2.318-0.327,3.139-0.327,3.139l-2.622-0.749c0,0,0-1.547-0.094-2.272
		c-0.631-0.046-0.538,3.699-0.538,3.699h-2.317c-0.047-5.5,2.763-4.118,2.738-4.167c-0.211-0.819-0.678-1.449-1.123-2.503
		c-1.077-2.506-1.662-4.987-1.615-8.615h2.317c0.047,6.462,2.061,9.575,2.061,9.575S381.621,407.705,381.435,405.879z"/>
	<path fill="#707173" d="M378.578,418.047c0.749,0.185,7.188-0.376,7.188-0.376c0.491-0.023,0.749-0.068,1.427-0.351
		c1.17-0.492,2.785,1.076,2.785,1.076s-1.731,0.095-2.176,1.521c0,0-0.469-0.843-1.733-0.772c-0.865,0.046-5.219,0.211-6.295,0.165
		c-1.218-0.048-2.436,0-3.465-0.774c0,0-0.188-1.381-0.188-2.552h2.294C378.415,417.414,378.578,418.047,378.578,418.047z"/>
	<path fill="#707173" d="M390.096,424.014c-2.785,0.07-4.19,0.233-5.572,0.305c-1.31,0.068-3.838,0.188-5.477,0.233
		c-2.387,0.071-3.44-0.727-3.909-1.125c-0.141-0.117,0-0.117,0-0.117c1.615-0.091,4.799-0.396,4.799-0.396l6.718-0.376
		C388.737,422.421,390.096,424.014,390.096,424.014z"/>
</g>
<g>
	<path fill="#707173" d="M409.799,393.247c0-2.224,0.233-3.792,2.341-4.518c0,0-1.709-0.515-1.896-1.732
		c0,0-0.655-2.622-0.936-5.898c-0.352-3.979,0.469-9.269,6.835-5.29v0.047c-7.257-3.581-4.097,10.159-3.534,11.587
		c0.327,0.819,0.467,1.006,0.467,1.006s1.24,0.258,1.615,0.539c0.421,0.304,0.492,0.373,0.492,0.373
		c-2.879,0.493-3.067,1.897-3.067,3.887H409.799z M419.256,379.273l1.381,1.428l-1.381,1.38l-1.382-1.38L419.256,379.273z
		 M419.325,382.081l1.382,1.429l-1.382,1.381l-1.381-1.381L419.325,382.081z"/>
	<path fill="#707173" d="M406.545,394.902l1.381,1.428l-1.381,1.381l-1.381-1.381L406.545,394.902z M409.799,400.474
		c-0.022-2.107,0.491-3.839,2.177-4.144c0,0-1.17-0.538-1.708-1.077c-0.282-0.304-0.446-0.795-0.469-2.457h2.316
		c0.024,2.901,0.913,3.277,0.913,3.277s1.078,0.305,1.592,0.609c0.352,0.257,0.142,0.257,0.142,0.257
		c-1.615,0-2.646,1.287-2.646,3.534H409.799z"/>
	<path fill="#707173" d="M409.799,416.365c0-0.982,0-2.552,0.727-3.65c0,0-0.375-0.117-0.727-0.376c0,0-0.982-3.275,1.218-3.885
		c0,0-1.593-0.259-1.593-2.809c0-1.709,1.476-1.825,1.476-1.825s-1.101-0.96-1.101-3.864h2.316c0,3.138,0.938,4.309,1.335,4.588
		c0.327,0.236,0.352,0.632,0,0.492c-0.749-0.281-0.982-0.233-0.982-0.233s-0.608,0.117-0.608,1.216c0,1.942,1.591,3.161,1.965,3.278
		c0.117,0.117,0.142,0.422,0.142,0.422s-0.608-0.143-0.727-0.143c-0.749-0.117-1.124,0.447-1.124,1.312
		c0,0.49,0.117,1.333,0.117,1.333s0.235,0,0.609,0c0.375,0,1.451,0.727,1.451,0.727c-1.825,0.116-2.178,1.849-2.178,3.417H409.799z"
		/>
	<path fill="#707173" d="M412.279,418.044c0.749,0.188,7.187-0.373,7.187-0.373c0.492-0.023,0.749-0.071,1.428-0.354
		c1.17-0.489,2.785,1.079,2.785,1.079s-1.731,0.092-2.176,1.521c0,0-0.469-0.843-1.733-0.772c-0.865,0.046-5.219,0.209-6.296,0.163
		c-1.217-0.046-2.435,0-3.464-0.772c0,0-0.188-1.381-0.188-2.552h2.294C412.115,417.412,412.279,418.044,412.279,418.044z"/>
	<path fill="#707173" d="M423.797,424.011c-2.785,0.071-4.191,0.236-5.572,0.305c-1.311,0.071-3.838,0.188-5.477,0.233
		c-2.387,0.071-3.44-0.724-3.909-1.122c-0.141-0.117,0-0.117,0-0.117c1.615-0.094,4.799-0.398,4.799-0.398l6.717-0.373
		C422.438,422.421,423.797,424.011,423.797,424.011z"/>
</g>
<g>
	<path fill="#707173" d="M451.88,390.903c0.538-0.047,1.685,1.265,1.685,1.265s-3.137,0.28-5.266,0.818
		c-2.341,0.586-2.482,1.476-2.482,2.739H443.5c-0.094-3.395,2.832-3.909,2.832-3.909c-1.101-0.258-1.592-0.515-1.592-0.515
		s-1.171-1.218-1.334-3.979c-0.164-2.926,2.294-2.738,3.534-2.224c-0.631-0.023-1.451,0.304-1.193,2.528
		c0.352,3.09,1.567,3.955,1.567,3.955C448.252,391.513,451.201,390.973,451.88,390.903z"/>
	<path fill="#707173" d="M446.776,404.008c1.381-2.059,1.662-3.722,1.662-4.494c0-0.398-0.187-1.193-0.491-1.569
		c-0.702-0.889,0.188-0.467,0.188-0.467s2.574,0.609,2.551,2.809c-0.023,1.99-1.568,4.072-2.294,5.502
		c-0.842,1.684-0.866,3.229-0.866,3.229l-2.809-1.102c0,0,0.304-2.247-0.257-4.729c-0.397-1.731-0.96-4.189-0.96-7.911h2.316
		C445.724,399.303,446.776,404.008,446.776,404.008z"/>
	<path fill="#707173" d="M455.952,419.639c0,0-0.632-0.772-1.498-0.701c-2.199,0.188-3.955-0.165-5.313-0.703
		c-1.498,0.843-2.809,1.381-3.58,1.498c-0.446,0.071-2.247-0.351-2.247-0.351c-0.469-1.17-0.399-5.921-0.399-5.921
		c0.983-0.398,2.974,0,2.974,0c-0.234,0.162-0.211,0.513-0.211,0.513c1.193,1.407,2.131,2.247,2.902,2.763
		c2.153-1.311,3.301-2.574,3.581-2.925c1.1-1.358,0.891-1.476,0.891-1.476s-0.399-0.865,0.28-1.076
		c0.655-0.211,1.451-0.398,2.176-0.282c1.265,0.211,1.007,1.103,1.007,1.103c-1.567,2.152-3.932,4.05-6.109,5.431
		c1.498,0.327,3.44,0.022,3.44,0.022s0.844-0.142,1.358-0.421c1.124-0.633,2.364,1.122,2.364,1.122
		C455.882,418.422,455.952,419.639,455.952,419.639z M445.63,415.708l0.164,2.433c0.608-0.257,1.17-0.513,1.662-0.772
		C446.215,416.551,445.63,415.708,445.63,415.708z M460.353,411.681c0,0-0.374-2.409-0.937-0.749
		c-0.562,1.663-0.187,2.412-0.117,2.834c0.047,0.396-0.303,0.14-0.303,0.14l-0.562-0.562c0,0-0.305-0.188-0.397-0.538
		c-0.446-1.874-1.451-2.95-1.522-2.996c-0.047-0.142-0.094-0.188,0.071-0.281c0.28,0,1.451,0.889,1.451,0.889
		c0.093,0,0.14-0.562,0.14-0.562s0.023-1.404,1.24-0.703c1.803,1.054,2.247,2.996,2.201,3.349c-0.094,0.373-0.422,0.655-0.422,0.655
		l-0.983-1.147L460.353,411.681z"/>
	<path fill="#707173" d="M457.498,424.014c-2.786,0.07-4.191,0.233-5.572,0.305c-1.311,0.068-3.838,0.188-5.477,0.233
		c-2.387,0.071-3.44-0.727-3.909-1.125c-0.141-0.117,0-0.117,0-0.117c1.615-0.091,4.799-0.396,4.799-0.396l6.717-0.376
		C456.14,422.421,457.498,424.014,457.498,424.014z"/>
</g>
<g>
	<path fill="#008CB7" d="M281.985,338.336c-1.382,0-1.851-0.094-1.851-0.094c-0.14,1.264-1.287,3.559-1.567,4.026
		c-0.516,0.866-1.733,2.551-4.214,2.831c-2.294,0.258-5.22-1.942-5.22-1.942s1.663,0.375,4.003-0.351
		c4.33-1.358,5.664-4.401,5.664-4.401s0.117,0-0.116-0.21c-0.983-0.889-1.193-1.241-1.64-1.942c-0.561-0.89,0.235-2.973,0.446-3.44
		c0.21-0.445,0.21,0,0.21,0s0.023,1.053,1.638,1.895c0.727,0.375,1.24,0.633,2.646,0.633V338.336z"/>
	<path fill="#008CB7" d="M289.189,338.336c-2.106,0.022-3.838-0.491-4.143-2.178c0,0-0.538,1.171-1.076,1.709
		c-0.305,0.28-0.796,0.445-2.458,0.469v-2.996c2.902-0.023,3.276-0.913,3.276-0.913s0.305-1.076,0.609-1.592
		c0.257-0.351,0.468-0.304,0.468-0.304c0,1.614,1.076,2.809,3.323,2.809V338.336z M283.735,341.426l1.592-1.592l1.662,1.639
		l-1.614,1.591L283.735,341.426z"/>
	<path fill="#008CB7" d="M299.626,338.336c-1.778,0-2.668-0.258-3.229-0.796l-0.632,1.521c-2.434-2.201-3.745-2.06-3.745-2.06
		s-0.727,1.193-2.084,1.334c0,0-0.726,0-1.264,0v-2.996c2.95,0.07,3.254-1.101,3.254-1.101c1.054-2.948,4.283-2.598,4.283-2.598
		c-0.655,2.271,0.632,3.722,3.417,3.698V338.336z M295.32,335.551c-0.305-0.562,0-1.312,0-1.312c-0.749,0-1.24,0.843-1.24,0.843
		C294.782,335.082,295.32,335.551,295.32,335.551z"/>
	<path fill="#008CB7" d="M304.421,334.988c0-0.655-0.094-1.1-0.327-1.755l-0.188,0.374c-0.328,0.375-0.679,0.96-1.802,1.007
		c-2.856,0.117-2.225-3.16-1.405-4.821c1.592-3.277,3.722-0.914,3.722-0.914s1.803,1.896,1.779,4.916
		c-0.023,2.574-0.678,4.05-0.678,4.05c-0.516,0.258-4.308,0.491-6.461,0.491v-2.996C301.613,335.34,304.421,334.988,304.421,334.988
		z M299.811,325.837l1.567-1.592l1.687,1.638l-1.616,1.592L299.811,325.837z M301.355,323.543l1.567-1.592l1.687,1.639l-1.616,1.591
		L301.355,323.543z M302.854,330.658c-0.516-0.164-1.171,0.515-1.218,0.819c0,0.211,0.258,0.562,1.03,0.655
		c0.538,0.07,1.101-0.327,1.147-0.444C303.462,330.869,303.064,330.729,302.854,330.658z M303.111,325.906l1.567-1.591l1.685,1.638
		l-1.614,1.593L303.111,325.906z"/>
	<path fill="#008CB7" d="M319.073,338.336c-0.258,0-0.938,0.022-1.405,0.022c0,0.211-0.117,0.749-0.164,0.96
		c-1.311,5.431-4.705,5.806-4.705,5.806c-4.165,0.422-6.577-1.756-6.577-1.756s0.679,0.188,2.365,0.188
		c2.55,0,6.904-3.277,7.255-5.197c-0.397,0,0.047-0.046-0.421,0c-3.885,0.398-3.324-2.738-3.324-2.738
		c0.211-2.059,1.335-3.417,2.225-4.002c1.31-0.866,2.691,1.404,2.691,1.404s0.562,0.983,0.796,2.341v-0.023c0,0,1.007,0,1.265,0
		V338.336z M314.837,335.434c0.14,0,0.42-0.023,0.702-0.023c0-0.047-0.024-0.258-0.164-0.492c-0.796-1.38-1.429,0.094-1.545,0.211
		C313.83,335.129,313.806,335.48,314.837,335.434z"/>
	<path fill="#008CB7" d="M318.18,335.34c3.02,0,3.581-0.141,3.581-0.141c-0.093-0.726-1.193-2.247-1.193-2.247
		c0.188-0.726,1.287-2.364,1.287-2.364s1.825,2.575,1.803,4.682c0,0-0.164,1.615-1.007,2.786c0,0-1.334,0.28-4.471,0.28V335.34z
		 M319.374,327.546l1.592-1.593l1.662,1.639l-1.616,1.592L319.374,327.546z"/>
	<path fill="#008CB7" d="M332.312,340.98l9.06-16.853h3.113l-9.152,16.853H332.312z"/>
	<path fill="#008CB7" d="M365.1,338.336c-2.059-0.047-2.247,0.233-2.247,0.233s0.866,0.258,0.913,1.194
		c-0.117,0.983-0.771,2.809-0.771,2.809s-3.021,2.177-6.999,2.316c-8.59,0.329-2.458-9.058-2.458-9.058
		c-3.932,6.976,2.716,6.017,2.716,6.017c2.738-0.118,5.477-1.64,5.477-1.64l0.258-0.141c0.188-0.702-3.301-0.771-3.301-0.771
		l1.381-3.066c1.334-0.655,2.81-0.89,5.032-0.89V338.336z M354.941,347.793l1.592-1.593l1.662,1.64l-1.615,1.591L354.941,347.793z
		 M358.312,347.84l1.592-1.593l1.662,1.638l-1.615,1.593L358.312,347.84z"/>
	<path fill="#008CB7" d="M364.416,335.34c3.02,0,3.581-0.141,3.581-0.141c-0.093-0.726-1.193-2.247-1.193-2.247
		c0.188-0.726,1.287-2.364,1.287-2.364s1.825,2.575,1.803,4.682c0,0-0.164,1.615-1.007,2.786c0,0-1.334,0.28-4.471,0.28V335.34z
		 M365.61,327.546l1.592-1.593l1.662,1.639l-1.616,1.592L365.61,327.546z"/>
	<path fill="#008CB7" d="M377.733,338.336c0,0-4.847,0.211-4.869-2.996l-0.047-9.434c0-0.491,1.825-1.919,1.825-1.919
		c0,0.913,0.047,6.273,0.047,9.293c0,2.271,3.044,2.06,3.044,2.06V338.336z"/>
	<path fill="#008CB7" d="M384.894,338.336c-2.106,0.022-3.838-0.491-4.143-2.178c0,0-0.539,1.171-1.077,1.709
		c-0.305,0.28-0.796,0.445-2.458,0.469v-2.996c2.902-0.023,3.277-0.913,3.277-0.913s0.305-1.076,0.609-1.592
		c0.256-0.351,0.467-0.304,0.467-0.304c0,1.614,1.077,2.809,3.324,2.809V338.336z M377.896,328.856l1.591-1.592l1.662,1.638
		l-1.615,1.592L377.896,328.856z M379.511,326.398l1.592-1.592l1.661,1.639l-1.615,1.592L379.511,326.398z M381.266,328.926
		l1.591-1.591l1.662,1.638l-1.615,1.593L381.266,328.926z"/>
	<path fill="#008CB7" d="M386.576,335.176c0.187-0.749-0.352-6.366-0.352-6.366c-0.047-0.164-0.211-1.03-0.632-1.639
		c-0.772-1.123,1.334-2.95,1.334-2.95s0.352,1.686,1.989,2.014c0,0-1.005,1.077-0.842,2.364c0.117,0.865,0.21,5.079,0.164,6.156
		c-0.047,1.217-0.609,2.574-1.147,3.37c0,0-1.404,0.211-2.575,0.211v-2.996C385.944,335.34,386.576,335.176,386.576,335.176z"/>
	<path fill="#008CB7" d="M393.129,324.432c0.069,2.785,0.141,4.214,0.21,5.595c0.07,1.311,0.095,3.394,0.14,5.033
		c0.048,1.942-1.263,3.51-1.661,3.979c-0.117,0.141-0.117,0-0.117,0c-0.093-1.615-0.233-4.541-0.233-4.541l-0.141-6.531
		C391.279,325.883,393.129,324.432,393.129,324.432z"/>
	<path fill="#008CB7" d="M414.472,338.43c0.211,0.796,0.187,1.592,0.187,1.592s-0.022,2.293-1.123,3.417
		c-1.989,2.06-7.747,2.177-7.747,2.177c-8.053,0.117-1.896-9.597-1.896-9.597c-1.825,4.049-2.036,6.062,2.2,6.25
		c3.839,0.164,7.093-1.639,7.093-1.639c0-2.785-1.686-5.196-1.686-5.196c0.07-0.702,1.381-2.552,1.381-2.552
		c0.491,0.913,0.937,1.85,1.171,2.528c0.305,0,0.865,0,1.872,0v2.995C415.244,338.405,415.104,338.43,414.472,338.43z
		 M405.694,332.765l1.592-1.592l1.662,1.64l-1.616,1.591L405.694,332.765z"/>
	<path fill="#008CB7" d="M415.286,335.34c3.02,0,3.581-0.141,3.581-0.141c-0.093-0.726-1.193-2.247-1.193-2.247
		c0.188-0.726,1.287-2.364,1.287-2.364s1.825,2.575,1.803,4.682c0,0-0.164,1.615-1.007,2.786c0,0-1.334,0.28-4.471,0.28V335.34z
		 M415.66,342.058l1.592-1.592l1.662,1.638l-1.615,1.592L415.66,342.058z M418.961,342.128l1.592-1.592l1.662,1.639l-1.615,1.592
		L418.961,342.128z"/>
	<path fill="#008CB7" d="M435.134,338.336c-1.382,0-1.85-0.094-1.85-0.094c-0.14,1.264-1.288,3.559-1.568,4.026
		c-0.516,0.866-1.732,2.551-4.214,2.831c-2.294,0.258-5.22-1.942-5.22-1.942s1.663,0.375,4.003-0.351
		c4.33-1.358,5.664-4.401,5.664-4.401s0.117,0-0.116-0.21c-0.982-0.889-1.193-1.241-1.64-1.942c-0.561-0.89,0.235-2.973,0.446-3.44
		c0.211-0.445,0.211,0,0.211,0s0.022,1.053,1.638,1.895c0.726,0.375,1.24,0.633,2.646,0.633V338.336z"/>
	<path fill="#008CB7" d="M450.882,338.336c-0.982,0-2.552,0-3.651-0.727c0,0-0.116,0.375-0.374,0.727c0,0-3.276,0.982-3.886-1.218
		c0,0-0.258,1.592-2.809,1.592c-1.709,0-1.825-1.475-1.825-1.475s-0.96,1.101-3.863,1.101v-2.996c3.137,0,4.33-0.937,4.588-1.334
		c0.28-0.444,0.749-0.444,0.609-0.094c-0.282,0.749-0.235,0.982-0.235,0.982s0.117,0.609,1.218,0.609
		c1.942,0,2.927-1.546,3.16-1.873c0.188-0.258,0.491-0.164,0.491-0.164s-0.14,0.609-0.14,0.726
		c-0.118,0.749,0.444,1.124,1.311,1.124c0.491,0,1.264-0.094,1.264-0.094s0-0.234,0-0.608c0-0.375,0.726-1.451,0.726-1.451
		c0.116,1.825,1.85,2.177,3.417,2.177V338.336z M438.991,329.113l1.593-1.592l1.661,1.639l-1.616,1.592L438.991,329.113z
		 M440.489,326.445l1.593-1.592l1.661,1.639l-1.616,1.592L440.489,326.445z M442.315,329.16l1.592-1.591l1.662,1.638l-1.615,1.592
		L442.315,329.16z"/>
	<path fill="#008CB7" d="M450.339,335.34c3.021,0,3.581-0.141,3.581-0.141c-0.093-0.726-1.193-2.247-1.193-2.247
		c0.188-0.726,1.287-2.364,1.287-2.364s1.826,2.575,1.803,4.682c0,0-0.163,1.615-1.007,2.786c0,0-1.334,0.28-4.471,0.28V335.34z
		 M450.713,327.943l1.593-1.592l1.661,1.639l-1.614,1.592L450.713,327.943z M454.014,328.014l1.593-1.592l1.661,1.639l-1.614,1.591
		L454.014,328.014z"/>
</g>
</svg>
