<?xml version="1.0" encoding="UTF-8" standalone="no"?>
<!-- Generator: Adobe Illustrator 16.0.0, SVG Export Plug-In . SVG Version: 6.00 Build 0)  -->

<svg
   xmlns:dc="http://purl.org/dc/elements/1.1/"
   xmlns:cc="http://creativecommons.org/ns#"
   xmlns:rdf="http://www.w3.org/1999/02/22-rdf-syntax-ns#"
   xmlns:svg="http://www.w3.org/2000/svg"
   xmlns="http://www.w3.org/2000/svg"
   xmlns:sodipodi="http://sodipodi.sourceforge.net/DTD/sodipodi-0.dtd"
   xmlns:inkscape="http://www.inkscape.org/namespaces/inkscape"
   version="1.1"
   id="_x30_3-MSAITBEH"
   x="0px"
   y="0px"
   width="1573.961px"
   height="907.086px"
   viewBox="222.961 0 1573.961 907.086"
   enable-background="new 222.961 0 1573.961 907.086"
   xml:space="preserve"
   inkscape:version="0.48.4 r9939"
   sodipodi:docname="Area3.svg"><metadata
     id="metadata4197"><rdf:RDF><cc:Work
         rdf:about=""><dc:format>image/svg+xml</dc:format><dc:type
           rdf:resource="http://purl.org/dc/dcmitype/StillImage" /></cc:Work></rdf:RDF></metadata><defs
     id="defs4195" /><sodipodi:namedview
     pagecolor="#ffffff"
     bordercolor="#666666"
     borderopacity="1"
     objecttolerance="10"
     gridtolerance="10"
     guidetolerance="10"
     inkscape:pageopacity="0"
     inkscape:pageshadow="2"
     inkscape:window-width="640"
     inkscape:window-height="480"
     id="namedview4193"
     showgrid="false"
     inkscape:zoom="0.28500943"
     inkscape:cx="786.98053"
     inkscape:cy="453.543"
     inkscape:window-x="0"
     inkscape:window-y="27"
     inkscape:window-maximized="0"
     inkscape:current-layer="_x30_3-MSAITBEH" /><g
     id="g3824"><path
       d="M298.417,212.521c-1.319-1.453-2.907-2.636-4.664-3.65c-1.221,1.212-2.216,2.651-3.245,4.056   c-5.505,0.345-9.526-2.49-12.776-5.07c0.294-2.613,2.002-3.812,2.434-6.287c3.846-0.902,7.086,2.031,9.329,4.056   c0.657-2.182,2.488-3.189,3.853-4.664c2.118-0.435,3.707,1.077,5.881,2.028c1.593,0.697,2.946,0.55,3.65,2.028   C301.916,207.278,301.298,211.513,298.417,212.521z"
       id="path3826" /><path
       fill="#FFFFFF"
       d="M311.802,216.982c0.319,1.292,0.274,2.636,0.203,3.853c-1.859-0.168-3.773-0.282-5.07-1.014   C308.047,218.364,309.712,217.461,311.802,216.982z"
       id="path3828" /><path
       fill="#FFFFFF"
       d="M373.859,231.381c-2.502,0.859-6.446,0.727-9.126,0.811C365.686,228.49,371.801,229.032,373.859,231.381z"
       id="path3830" /><path
       fill="#FFFFFF"
       d="M408.132,234.828c0.432-0.84,3.896-3.422,5.679-3.245c0.411,0.041,2.052,1.094,2.028,1.623   c-0.027,0.595-1.751,1.49-2.231,1.622C411.562,235.395,409.772,235.136,408.132,234.828z"
       id="path3832" /><path
       fill="#FFFFFF"
       d="M254.815,161.82c79.836,0,159.669,0,239.507,0c-0.135,41.709,0.271,83.959-0.203,125.331   c-79.836,0-159.669,0-239.507,0c0-41.574,0-83.148,0-124.722C254.595,162.141,254.579,161.854,254.815,161.82z M311.396,229.556   c1.074,2.527,0.39,6.404,1.825,8.923c1.735,0.767,3.132,1.871,4.867,2.637c5.238,0.913,9.447-0.658,14.398-0.812   c4.628-0.144,8.623,0.753,11.965-1.419c6.912,3.48,15.858,2.234,23.728,2.231c0.796,0.083,0.579,1.179,1.623,1.014   c3.771-3.397,10.959,0.377,15.616-1.419c0.847,0.883,2.594,0.57,4.056,1.217c0.253,1.39-1.1,2.068-0.405,3.245   c3.356,0.891,5.348-3.209,8.72-3.853c2.29-0.438,5.245-0.324,7.909-0.406c2.68-0.082,5.316,0.858,8.112,1.014   c2.88,0.161,6.146-0.849,8.923-1.217c0.74-0.098,1.6,0.145,2.23,0c2.536-0.581,3.996-2.347,6.287-2.231   c0.636,0.032,1.149,0.573,1.825,0.608c1.211,0.064,1.811-0.729,2.839-0.811c3.389,1.843,8.896,1.512,7.707-4.665   c-1.523-3.291-4.367-5.116-6.896-8.314c-3.182-4.024-2.268-11.079-3.042-16.833c-0.436-3.244-1.734-10.825-3.853-12.371   c-1.931-1.409-3.934,0.994-4.867,2.23c-0.884,1.171-2.274,2.92-2.434,3.854c-0.237,1.398,1.433,4.94,2.23,7.503   c0.838,2.694,1.41,5.819,2.23,8.112c1.501,4.191,4.577,10.798,0,13.588c-0.686-4.52-2.611-7.799-6.084-9.532   c-2.805-0.214-4.122,1.594-6.084,2.636c-4.583,2.435-10.574,4.212-14.602,7.504c-0.626,0.05-1.146,0.206-1.623,0.405   c-1.018,0.875-2.034,1.752-3.447,2.231c-3.264-0.522-1.439-6.132-5.07-6.287c-2.066,0.717-2.755,3.853-5.07,3.65   c0.434-7.502-4.785-8.57-8.315-11.763c-2.982-0.436-5.585,1.101-7.706,1.623c-2.833-8.536-2.354-19.138-6.287-26.567   c-1.254,0.063-2.172-0.551-3.65-0.203c-0.756,1.25-0.543,1.368-1.419,2.231c-1.337,11.36,4.687,18.327,4.461,29.406   c-0.555,0.928-1.714,1.525-2.839,2.636c-1.324,1.309-3.022,4.042-4.665,4.462c-0.892,0.228-3.954-0.24-4.867-0.608   c-3.578-1.445-1.893-5.376-1.623-8.518c-4.534-1.821-6.069,3.872-7.098,7.503c-3.635,1.208-7.196,0.547-10.748,0.406   c-2.05-0.082-3.498-0.117-6.084-0.608c-2.925-0.556-4.702-3.366-5.07-6.49c-0.083-0.704,0.261-2.2,0.203-2.839   c-0.042-0.452-0.536-1.128-0.608-1.622c-0.348-2.353,0.438-5.026,0.405-7.707c-0.036-2.948-2.024-9.492-3.853-10.14   c-2.287-0.81-4.82,3.968-4.461,6.692c-3.052,0.193-3.854,2.636-6.692,3.042c-3.177,2.569-8.493,3-11.763,5.476   c-0.352,1.271-0.696,2.549-0.811,4.056C294.488,227.371,303.008,229.986,311.396,229.556z M444.027,208.059   c1.263,3.68,2.545,6.87,4.056,10.343c1.311,3.013,2.427,5.64,2.839,9.329c0.145,1.29,0.735,3.258,0.608,4.867   c-0.181,2.276-2.8,3.874-4.867,4.056c-1.601,0.141-2.12-0.796-2.839,0.203c-1.324,1.839,2.839,4.424,5.069,4.259   c1.766-0.131,4.359-2.016,5.273-3.245c3.516-4.729,3.837-16.251,1.825-23.119c-0.618-2.11-1.342-3.927-2.028-6.084   c-0.595-1.87-3.14-8.361-5.07-8.518c-1.529-0.124-3.728,2.645-4.259,3.448c-0.772,1.169-2.141,2.02-2.027,3.65   C442.694,207.905,443.691,207.651,444.027,208.059z M345.264,252.877c0.147-1.308,1.729-2.04,1.623-3.448   c-0.115-1.516-5.104-5.694-7.301-4.259c0.061,3.008-3.876,3.189-4.056,5.476c-0.099,1.264,0.826,1.165,1.825,2.231   c0.337,0.36,0.356,0.997,0.608,1.217c2.082,1.821,4.935,2.762,7.707,0.811C345.805,253.76,345.18,253.625,345.264,252.877z    M376.698,249.633c0,0.271,0,0.541,0,0.811c-1.412,0.244-2.824,2.448-2.839,4.056c-0.024,2.524,5.216,5.99,7.301,5.881   c1.971-0.103,2.34-2.215,4.259-2.839c2.01,1.235,3.846,2.643,6.895,2.839c1.377-1.597,3.421-2.527,3.65-5.272   c-0.873-0.8-1.987-0.725-3.448-1.42c-2.66-1.267-5.536-4.661-7.706-4.461c-1.496,0.137-1.758,1.876-3.448,2.231   C380.322,250.984,378.803,248.518,376.698,249.633z"
       id="path3834" /><path
       fill="#4B438C"
       d="M291.522,222.458c0.115-1.507,0.459-2.785,0.811-4.056c3.27-2.476,8.586-2.906,11.763-5.476   c2.838-0.406,3.641-2.849,6.692-3.042c-0.358-2.724,2.175-7.502,4.461-6.692c1.829,0.648,3.817,7.192,3.853,10.14   c0.033,2.68-0.753,5.354-0.405,7.707c0.073,0.494,0.567,1.17,0.608,1.622c0.058,0.64-0.286,2.135-0.203,2.839   c0.368,3.124,2.145,5.934,5.07,6.49c2.586,0.492,4.034,0.527,6.084,0.608c3.552,0.141,7.113,0.803,10.748-0.406   c1.029-3.631,2.564-9.325,7.098-7.503c-0.271,3.141-1.956,7.072,1.623,8.518c0.913,0.369,3.976,0.836,4.867,0.608   c1.643-0.42,3.34-3.153,4.665-4.462c1.125-1.111,2.284-1.708,2.839-2.636c0.225-11.079-5.799-18.045-4.461-29.406   c0.876-0.863,0.663-0.981,1.419-2.231c1.478-0.349,2.396,0.267,3.65,0.203c3.934,7.429,3.454,18.031,6.287,26.567   c2.121-0.522,4.724-2.059,7.706-1.623c3.53,3.193,8.749,4.261,8.315,11.763c2.314,0.202,3.003-2.934,5.07-3.65   c3.631,0.154,1.807,5.765,5.07,6.287c1.414-0.479,2.43-1.355,3.447-2.231c0.476-0.2,0.997-0.355,1.623-0.405   c4.027-3.292,10.019-5.069,14.602-7.504c1.962-1.042,3.279-2.85,6.084-2.636c3.473,1.732,5.398,5.012,6.084,9.532   c4.577-2.79,1.501-9.396,0-13.588c-0.821-2.292-1.394-5.417-2.23-8.112c-0.798-2.563-2.468-6.105-2.23-7.503   c0.158-0.933,1.55-2.683,2.434-3.854c0.934-1.236,2.938-3.639,4.867-2.23c2.118,1.545,3.417,9.127,3.853,12.371   c0.774,5.754-0.14,12.808,3.042,16.833c2.529,3.199,5.373,5.024,6.896,8.314c1.189,6.177-4.318,6.508-7.707,4.665   c-1.029,0.083-1.628,0.875-2.839,0.811c-0.676-0.035-1.189-0.576-1.825-0.608c-2.291-0.116-3.75,1.65-6.287,2.231   c-0.631,0.145-1.49-0.098-2.23,0c-2.777,0.368-6.043,1.377-8.923,1.217c-2.796-0.156-5.432-1.096-8.112-1.014   c-2.664,0.082-5.62-0.032-7.909,0.406c-3.372,0.644-5.364,4.744-8.72,3.853c-0.694-1.177,0.658-1.854,0.405-3.245   c-1.462-0.646-3.208-0.333-4.056-1.217c-4.657,1.796-11.845-1.978-15.616,1.419c-1.043,0.165-0.826-0.931-1.623-1.014   c-7.869,0.003-16.816,1.25-23.728-2.231c-3.343,2.172-7.337,1.276-11.965,1.419c-4.952,0.154-9.16,1.724-14.398,0.812   c-1.735-0.766-3.132-1.87-4.867-2.637c-1.435-2.519-0.751-6.396-1.825-8.923C303.008,229.986,294.488,227.371,291.522,222.458z    M306.935,219.821c1.297,0.731,3.211,0.845,5.07,1.014c0.071-1.217,0.116-2.561-0.203-3.853   C309.712,217.461,308.047,218.364,306.935,219.821z M364.733,232.192c2.68-0.084,6.624,0.048,9.126-0.811   C371.801,229.032,365.686,228.49,364.733,232.192z M413.607,234.828c0.479-0.132,2.204-1.027,2.231-1.622   c0.024-0.528-1.617-1.582-2.028-1.623c-1.783-0.177-5.247,2.404-5.679,3.245C409.772,235.136,411.562,235.395,413.607,234.828z"
       id="path3836" /><path
       fill="#4B438C"
       d="M442.608,207.248c-0.113-1.631,1.254-2.481,2.027-3.65c0.531-0.803,2.729-3.571,4.259-3.448   c1.932,0.156,4.477,6.648,5.07,8.518c0.687,2.157,1.41,3.974,2.028,6.084c2.012,6.868,1.69,18.391-1.825,23.119   c-0.914,1.229-3.508,3.114-5.273,3.245c-2.229,0.166-6.394-2.419-5.069-4.259c0.719-1,1.24-0.062,2.839-0.203   c2.067-0.182,4.687-1.779,4.867-4.056c0.127-1.609-0.464-3.578-0.608-4.867c-0.412-3.689-1.528-6.316-2.839-9.329   c-1.511-3.473-2.793-6.663-4.056-10.343C443.691,207.651,442.694,207.905,442.608,207.248z"
       id="path3838" /><path
       fill="#4B438C"
       d="M345.669,254.905c-2.772,1.951-5.625,1.01-7.707-0.811c-0.252-0.22-0.271-0.857-0.608-1.217   c-1-1.066-1.924-0.967-1.825-2.231c0.18-2.287,4.117-2.467,4.056-5.476c2.197-1.435,7.186,2.743,7.301,4.259   c0.107,1.408-1.476,2.14-1.623,3.448C345.18,253.625,345.805,253.76,345.669,254.905z"
       id="path3840" /><path
       fill="#4B438C"
       d="M381.362,251.458c1.689-0.354,1.952-2.094,3.448-2.231c2.17-0.199,5.046,3.195,7.706,4.461   c1.46,0.695,2.575,0.62,3.448,1.42c-0.229,2.745-2.273,3.676-3.65,5.272c-3.049-0.196-4.885-1.604-6.895-2.839   c-1.918,0.624-2.288,2.736-4.259,2.839c-2.085,0.109-7.325-3.356-7.301-5.881c0.015-1.608,1.427-3.812,2.839-4.056   c0-0.271,0-0.541,0-0.811C378.803,248.518,380.322,250.984,381.362,251.458z"
       id="path3842" /></g><g
     id="g3844"><path
       fill="#FFFFFF"
       d="M467.358,180.546c32.76,0,65.52,0,98.279,0c0,28.522,0,57.044,0,85.566c-32.875,0-65.75,0-98.624,0   c0-28.178,0-56.357,0-84.535C466.985,181.089,466.958,180.604,467.358,180.546z M503.44,191.886   c-11.645,9.407-19.5,12.94-21.307,29.209c-1.651,14.883,3.038,31.393,14.434,35.738c1.861,0.71,4.023,0.738,6.186,1.375   c2.234,0.658,4.405,2.191,6.529,2.749c13.886,3.65,28.968-2.954,35.395-10.996c1.147-1.436,1.935-3.621,3.093-5.499   c1.157-1.874,2.966-3.565,3.78-5.154c4.604-8.978,3.695-22.021-0.688-30.584c-4.578-8.943-11.355-14.492-19.587-18.556   c-4.923-2.431-11.084-5.857-18.557-4.468C507.614,186.649,506.688,189.262,503.44,191.886z"
       id="path3846" /><path
       fill="#4B438C"
       d="M512.719,185.7c7.473-1.389,13.633,2.037,18.557,4.468c8.231,4.064,15.009,9.613,19.587,18.556   c4.383,8.562,5.29,21.606,0.688,30.584c-0.814,1.589-2.623,3.28-3.78,5.154c-1.158,1.878-1.944,4.062-3.093,5.499   c-6.427,8.042-21.509,14.646-35.395,10.996c-2.124-0.558-4.295-2.091-6.529-2.749c-2.162-0.637-4.323-0.665-6.186-1.375   c-11.396-4.345-16.085-20.855-14.434-35.738c1.806-16.269,9.662-19.803,21.306-29.209   C506.688,189.262,507.614,186.649,512.719,185.7z M490.039,209.068c-6.007,11.683-3.733,34.069,5.154,40.893   c2.438,1.873,5.469,1.743,8.591,2.749c6.243,2.011,11.584,4.185,17.525,3.78c7.355-0.5,16.923-5.096,20.618-9.965   c3.592-4.732,7.476-11.434,8.248-16.838c1.826-12.785-5.521-21.489-10.652-27.491c-3.581-4.188-3.912-3.773-9.278-6.186   c-2.255-1.014-4.344-2.962-6.187-3.437c-1.776-0.458-6.854-0.418-7.56-0.344C506.822,193.247,492.639,204.011,490.039,209.068z"
       id="path3848" /><path
       fill="#FFFFFF"
       d="M516.499,192.229c0.706-0.074,5.783-0.114,7.56,0.344c1.843,0.474,3.931,2.422,6.187,3.437   c5.367,2.413,5.698,1.997,9.278,6.186c5.131,6.001,12.479,14.706,10.652,27.491c-0.771,5.404-4.656,12.106-8.248,16.838   c-3.695,4.869-13.263,9.465-20.617,9.965c-5.941,0.405-11.283-1.769-17.526-3.78c-3.122-1.006-6.151-0.876-8.591-2.749   c-8.889-6.824-11.162-29.21-5.154-40.893C492.639,204.011,506.822,193.247,516.499,192.229z M528.182,205.975   c-5.175-2.225-19.062-1.678-18.556,4.811c4.021,0.984,10.115-2.551,15.463-0.344c2.4,2.64,4.357,5.723,4.467,10.653   c-2.083,6.032-16.547,2.759-15.12,10.997c4.743,2.017,7.598-2.425,10.653-1.375c5.171,1.777,1.045,13.107-3.78,14.777   c-2.229,0.771-4.496,0.227-7.216,0.687c-0.623-4.006-6.39-4.311-6.186,0c0.294,6.215,9.787,4.146,14.433,4.467   c6.711-3.361,13.039-15.628,7.561-23.711C537.523,222.537,533.254,210.092,528.182,205.975z"
       id="path3850" /><path
       fill="#4B438C"
       d="M529.9,226.937c5.479,8.083-0.85,20.35-7.561,23.711c-4.646-0.322-14.138,1.748-14.433-4.467   c-0.205-4.311,5.562-4.006,6.186,0c2.722-0.46,4.987,0.084,7.216-0.687c4.825-1.669,8.951-13,3.78-14.777   c-3.056-1.05-5.91,3.392-10.653,1.375c-1.427-8.237,13.037-4.965,15.12-10.997c-0.109-4.93-2.066-8.013-4.467-10.653   c-5.349-2.208-11.442,1.328-15.463,0.344c-0.505-6.489,13.381-7.036,18.556-4.811C533.254,210.092,537.523,222.537,529.9,226.937z"
       id="path3852" /></g><g
     id="_x30_3-CALENDAR"><g
       id="g3855"><path
         fill="#737996"
         d="M419.453,287.466l1.802-4.096c0.468,0.817,2.363,1.966,4.145,1.966c3.369,0,3.463-2.014,3.557-2.014    c0,0,3.559,6.251-3.861,5.502c0,0,1.193,3.463-1.007,9.034l-0.094-0.023C423.221,290.322,419.453,287.466,419.453,287.466z"
         id="path3857" /><path
         fill="#737996"
         d="M435.459,295.189l-2.996-2.996l2.996-2.996l2.996,2.996L435.459,295.189z"
         id="path3859" /><path
         fill="#737996"
         d="M443.977,297.741c0.28-5.664-3.254-10.347-3.254-10.347l1.896-4.118c0,0,5.806,7.046,1.428,14.349    L443.977,297.741z"
         id="path3861" /><path
         fill="#737996"
         d="M452.003,284.844c1.989,0,4.423,3.066,4.354,8.147c-0.095,5.335-8.613,5.71-8.497,0.35    C447.976,288.542,450.363,284.844,452.003,284.844z M449.731,291.913c0.115,1.101,3.955,1.007,4.609-0.235    c0.517-0.982-1.029-3.674-2.434-3.674C450.621,288.004,449.567,290.415,449.731,291.913z"
         id="path3863" /></g><g
       id="g3865"><path
         fill="#707173"
         d="M235.078,459.825v-15.48h4.16l2.98,10.806h0.042l3.002-10.806h4.204v15.48h-2.573v-12.18h-0.044    l-3.473,12.18h-2.253l-3.43-12.18h-0.043v12.18H235.078z"
         id="path3867" /></g><g
       id="g3869"><path
         fill="#707173"
         d="M281.93,444.321v2.487h-4.053v13.016h-2.959V446.81h-4.052v-2.487L281.93,444.321L281.93,444.321z"
         id="path3871" /></g><g
       id="g3873"><path
         fill="#707173"
         d="M302.021,444.345h2.766l1.951,10.443h0.044l2.207-10.443h3.046l2.036,10.443h0.043l2.123-10.443h2.767    l-3.216,15.48h-3.003l-2.252-11.022h-0.042l-2.23,11.022h-3.002L302.021,444.345z"
         id="path3875" /></g><g
       id="g3877"><path
         fill="#707173"
         d="M350.18,444.321v2.487h-4.053v13.016h-2.959V446.81h-4.052v-2.487L350.18,444.321L350.18,444.321z"
         id="path3879" /></g><g
       id="g3881"><path
         fill="#707173"
         d="M374.483,459.825v-15.48h9.864v2.485h-6.904v3.688h5.168v2.488h-5.168v6.818H374.483L374.483,459.825z"
         id="path3883" /></g><g
       id="g3885"><path
         fill="#707173"
         d="M415.329,448.46c-0.45-1.201-1.372-2.016-2.766-2.016c-1.286,0-2.208,0.516-2.208,1.716    c0,2.659,7.977,2.103,7.977,7.12c0,3.174-1.994,4.762-5.425,4.762c-2.531,0-4.91-1.418-5.79-3.668l2.445-1.072    c0.707,1.459,1.628,2.424,3.365,2.424c1.48,0,2.616-0.559,2.616-2.059c0-3.044-7.977-2.446-7.977-7.207    c0-2.765,2.315-4.331,4.996-4.331c2.488,0,4.546,1.244,5.468,3.496L415.329,448.46z"
         id="path3887" /></g><g
       id="g3889"><path
         fill="#707173"
         d="M449.454,448.46c-0.45-1.201-1.372-2.016-2.766-2.016c-1.286,0-2.208,0.516-2.208,1.716    c0,2.659,7.977,2.103,7.977,7.12c0,3.174-1.994,4.762-5.425,4.762c-2.531,0-4.91-1.418-5.79-3.668l2.445-1.072    c0.706,1.459,1.628,2.424,3.364,2.424c1.48,0,2.616-0.559,2.616-2.059c0-3.044-7.977-2.446-7.977-7.207    c0-2.765,2.314-4.331,4.996-4.331c2.487,0,4.546,1.244,5.468,3.496L449.454,448.46z"
         id="path3891" /></g><g
       id="g3893"><path
         fill="#707173"
         d="M341.419,485.174v-1.328h2.68v-12.588l-2.979,0.299v-1.004c1.071-0.322,2.294-0.646,2.979-1.074h1.545    v14.367h2.637v1.328H341.419z"
         id="path3895" /></g><g
       id="g3897"><path
         fill="#707173"
         d="M383.691,485.174h-10.056v-1.629c2.68-5.424,8.448-5.746,8.448-9.906c0-1.803-1.157-2.83-3.13-2.83    c-2.231,0-3.389,1.801-3.646,3.367l-1.522-0.344c0.494-2.145,1.759-4.354,5.21-4.354c2.532,0,4.718,1.461,4.718,4.117    c0,4.719-6.775,6.004-8.448,10.25h8.427L383.691,485.174L383.691,485.174z"
         id="path3899" /></g><g
       id="g3901"><path
         fill="#4B438C"
         d="M410.505,475.805c2.272,0,4.161-0.32,4.161-2.166c0-1.113-0.945-1.846-2.231-1.846    c-1.308,0-2.187,0.732-2.959,1.545l-1.845-1.672c1.502-1.586,3.131-2.188,4.718-2.188c2.831,0,5.104,1.375,5.104,3.988    c0,1.543-0.856,2.701-2.337,3.348c1.845,0.578,2.853,1.992,2.853,3.922c0,3.236-2.745,4.654-5.489,4.654    c-2.188,0-4.396-1.029-5.468-3.004l2.229-1.264c0.751,1.264,1.78,1.951,3.261,1.951c1.372,0,2.68-0.838,2.68-2.338    c0-2.529-2.81-2.615-4.675-2.615v-2.316H410.505z"
         id="path3903" /></g><g
       id="g3905"><path
         fill="#707173"
         d="M449.948,481.532v3.643h-1.544v-3.643h-7.119v-1.33l6.39-10.508h2.273v10.508h2.658v1.33H449.948z     M442.915,480.202h5.489v-8.877h-0.064L442.915,480.202z"
         id="path3907" /></g><g
       id="g3909"><path
         fill="#707173"
         d="M246.463,496.372h-6.647l-0.386,4.955c1.008-0.922,2.079-1.266,3.174-1.266    c2.573,0,4.954,1.758,4.954,5.232c0,2.359-1.416,5.447-5.361,5.447c-2.639,0-3.968-1.461-4.933-2.961l1.395-0.73    c0.75,1.395,1.951,2.359,3.581,2.359c2.036,0,3.688-1.201,3.688-4.115c0-2.275-1.329-3.904-3.473-3.904    c-1.502,0-2.639,0.9-3.261,2.336l-1.351-0.299l0.687-8.385h7.934L246.463,496.372L246.463,496.372z"
         id="path3911" /></g><g
       id="g3913"><path
         fill="#707173"
         d="M280.159,497.038c-0.708-0.557-1.437-0.879-2.638-0.879c-2.444,0-4.717,2.016-4.761,6.475    c0.943-0.984,2.102-1.844,4.246-1.844c2.316,0,4.653,1.631,4.653,4.975c0,3.305-2.423,4.979-4.996,4.979    c-3.216,0-5.533-1.887-5.533-7.164c0-4.891,2.188-8.75,6.348-8.75c1.674,0,2.895,0.473,3.346,0.902L280.159,497.038z     M276.793,502.122c-1.888,0-3.86,1.543-3.988,3.301c0.085,2.188,1.5,3.988,3.73,3.988c2.188,0,3.495-1.5,3.495-3.604    C280.03,503.405,278.422,502.122,276.793,502.122z"
         id="path3915" /></g><g
       id="g3917"><path
         fill="#707173"
         d="M305.557,496.372v-1.328h9.821v0.943l-6.54,14.539h-1.802l6.369-14.154H305.557z"
         id="path3919" /></g><g
       id="g3921"><path
         fill="#707173"
         d="M344.636,510.741c-3.796,0-5.641-1.887-5.641-4.246c0-1.973,1.545-3.346,3.389-4.203v-0.043    c-1.716-0.643-2.745-1.951-2.745-3.562c0-2.527,2.145-3.857,4.997-3.857c2.852,0,4.995,1.33,4.995,3.857    c0,1.611-1.029,2.92-2.744,3.562v0.043c1.845,0.664,3.389,2.102,3.389,4.203C350.275,508.854,348.431,510.741,344.636,510.741z     M344.636,509.411c2.809,0,4.009-1.545,4.009-2.916c0-1.803-1.843-2.703-4.288-3.52c-1.887,0.814-3.731,1.717-3.731,3.52    C340.625,507.866,341.826,509.411,344.636,509.411z M344.636,496.159c-1.695,0-3.367,0.729-3.367,2.445    c0,1.67,2.102,2.615,3.367,2.98c1.715-0.43,3.365-1.48,3.365-2.98C348.001,496.887,346.329,496.159,344.636,496.159z"
         id="path3923" /></g><g
       id="g3925"><path
         fill="#707173"
         d="M375.008,508.532c0.707,0.557,1.436,0.879,2.637,0.879c2.445,0,4.568-2.188,4.761-6.477    c-0.943,0.986-2.101,1.846-4.245,1.846c-2.315,0-4.654-1.631-4.654-4.977c0-3.303,2.424-4.977,4.997-4.977    c3.217,0,5.532,1.887,5.532,7.164c0,4.891-2.187,8.75-6.348,8.75c-1.672,0-2.895-0.475-3.345-0.902L375.008,508.532z     M378.375,503.448c1.887,0,3.345-1.244,3.944-2.871c-0.042-2.701-1.458-4.418-3.688-4.418c-2.188,0-3.495,1.5-3.495,3.604    C375.136,502.165,376.745,503.448,378.375,503.448z"
         id="path3927" /></g><g
       id="g3929"><path
         fill="#4B438C"
         d="M403.03,510.526v-2.145h2.402v-10.68h-2.745v-1.801c1.416-0.064,2.658-0.387,3.367-1.074h2.165v13.555    h2.38v2.145H403.03z"
         id="path3931" /><path
         fill="#4B438C"
         d="M419.332,494.829c4.096,0,5.64,3.516,5.64,7.955s-1.544,7.957-5.64,7.957    c-4.095,0-5.641-3.518-5.641-7.957S415.237,494.829,419.332,494.829z M419.332,508.424c1.694,0,2.852-1.416,2.852-5.641    s-1.156-5.641-2.852-5.641c-1.695,0-2.853,1.416-2.853,5.641S417.638,508.424,419.332,508.424z"
         id="path3933" /></g><g
       id="g3935"><path
         fill="#707173"
         d="M437.349,510.526v-1.328h2.681v-12.59l-2.979,0.301v-1.006c1.071-0.322,2.294-0.646,2.979-1.074h1.544    v14.369h2.638v1.328H437.349L437.349,510.526z"
         id="path3937" /><path
         fill="#707173"
         d="M450.24,510.526v-1.328h2.68v-12.59l-2.979,0.301v-1.006c1.071-0.322,2.294-0.646,2.979-1.074h1.546    v14.369h2.637v1.328H450.24L450.24,510.526z"
         id="path3939" /></g><g
       id="g3941"><path
         fill="#707173"
         d="M232.599,535.875v-1.328h2.68v-12.59l-2.979,0.301v-1.006c1.071-0.322,2.294-0.645,2.979-1.074h1.544    v14.369h2.638v1.328H232.599z"
         id="path3943" /><path
         fill="#707173"
         d="M253.639,535.875h-10.057v-1.631c2.681-5.424,8.449-5.746,8.449-9.904c0-1.803-1.158-2.832-3.131-2.832    c-2.23,0-3.389,1.801-3.646,3.367l-1.521-0.342c0.493-2.146,1.758-4.355,5.21-4.355c2.531,0,4.718,1.461,4.718,4.119    c0,4.717-6.775,6.002-8.449,10.25h8.428L253.639,535.875L253.639,535.875z"
         id="path3945" /></g><g
       id="g3947"><path
         fill="#707173"
         d="M266.724,535.875v-1.328h2.68v-12.59l-2.979,0.301v-1.006c1.071-0.322,2.294-0.645,2.979-1.074h1.544    v14.369h2.638v1.328H266.724z"
         id="path3949" /><path
         fill="#707173"
         d="M278.265,532.188c1.18,1.588,2.637,2.572,4.245,2.572c2.273,0,3.646-1.158,3.646-3.002    c0-2.166-1.287-3.473-4.375-3.473h-1.522v-1.332h0.922c3.088,0,4.418-0.984,4.418-2.895c0-1.566-1.352-2.553-2.831-2.553    c-1.887,0-2.701,0.816-3.731,2.145l-1.266-0.855c1.052-1.461,2.51-2.617,4.997-2.617c2.745,0,4.46,1.416,4.46,3.859    c0,1.865-1.201,2.959-2.402,3.432c2.445,0.943,2.96,2.701,2.96,4.117c0,2.637-2.037,4.504-5.275,4.504    c-2.959,0-4.76-1.846-5.489-3.047L278.265,532.188z"
         id="path3951" /></g><g
       id="g3953"><path
         fill="#707173"
         d="M300.849,535.875v-1.328h2.68v-12.59l-2.979,0.301v-1.006c1.071-0.322,2.294-0.645,2.979-1.074h1.544    v14.369h2.638v1.328H300.849z"
         id="path3955" /><path
         fill="#707173"
         d="M319.896,532.231v3.645h-1.544v-3.645h-7.12v-1.33l6.39-10.508h2.274v10.508h2.658v1.33H319.896z     M312.862,530.901h5.489v-8.877h-0.065L312.862,530.901z"
         id="path3957" /></g><g
       id="g3959"><path
         fill="#707173"
         d="M334.974,535.875v-1.328h2.68v-12.59l-2.979,0.301v-1.006c1.071-0.322,2.294-0.645,2.979-1.074h1.544    v14.369h2.638v1.328H334.974z"
         id="path3961" /><path
         fill="#707173"
         d="M355.284,521.723h-6.646l-0.387,4.953c1.009-0.922,2.08-1.266,3.174-1.266    c2.573,0,4.954,1.758,4.954,5.232c0,2.359-1.416,5.447-5.361,5.447c-2.638,0-3.967-1.461-4.932-2.961l1.394-0.729    c0.75,1.395,1.951,2.357,3.581,2.357c2.036,0,3.688-1.201,3.688-4.115c0-2.275-1.329-3.902-3.474-3.902    c-1.502,0-2.638,0.898-3.26,2.336l-1.352-0.299l0.688-8.385h7.933V521.723L355.284,521.723z"
         id="path3963" /></g><g
       id="g3965"><path
         fill="#707173"
         d="M369.099,535.875v-1.328h2.68v-12.59l-2.979,0.301v-1.006c1.071-0.322,2.294-0.645,2.979-1.074h1.544    v14.369h2.638v1.328H369.099z"
         id="path3967" /><path
         fill="#707173"
         d="M388.98,522.387c-0.707-0.557-1.436-0.879-2.637-0.879c-2.445,0-4.718,2.018-4.761,6.477    c0.943-0.986,2.101-1.844,4.245-1.844c2.317,0,4.654,1.629,4.654,4.975c0,3.303-2.424,4.977-4.997,4.977    c-3.216,0-5.532-1.887-5.532-7.164c0-4.889,2.188-8.748,6.348-8.748c1.673,0,2.895,0.473,3.345,0.9L388.98,522.387z     M385.615,527.471c-1.888,0-3.861,1.543-3.989,3.301c0.085,2.188,1.501,3.988,3.731,3.988c2.188,0,3.495-1.5,3.495-3.604    C388.853,528.756,387.244,527.471,385.615,527.471z"
         id="path3969" /></g><g
       id="g3971"><path
         fill="#4B438C"
         d="M403.03,535.875v-2.143h2.402v-10.682h-2.745v-1.799c1.416-0.066,2.658-0.387,3.367-1.074h2.165v13.555    h2.38v2.143H403.03L403.03,535.875z"
         id="path3973" /><path
         fill="#4B438C"
         d="M414.036,520.395h10.614v1.607l-6.369,13.873h-3.066l6.262-13.08h-7.439L414.036,520.395L414.036,520.395z    "
         id="path3975" /></g><g
       id="g3977"><path
         fill="#4B438C"
         d="M437.155,535.875v-2.143h2.401v-10.682h-2.744v-1.799c1.415-0.066,2.657-0.387,3.366-1.074h2.165v13.555    h2.38v2.143H437.155L437.155,535.875z"
         id="path3979" /><path
         fill="#4B438C"
         d="M456.094,527.641c1.89,0.814,3.109,2.104,3.109,4.244c0,2.533-2.465,4.205-5.746,4.205    s-5.747-1.672-5.747-4.205c0-2.143,1.223-3.43,3.109-4.244c-1.522-0.814-2.53-1.779-2.53-3.604c0-2.359,2.016-3.859,5.168-3.859    s5.167,1.5,5.167,3.859C458.624,525.862,457.616,526.827,456.094,527.641z M456.417,531.694c0-1.396-2.467-2.811-3.152-2.811    c-0.688,0-2.767,1.244-2.767,2.811c0,1.35,1.008,2.252,2.959,2.252S456.417,533.043,456.417,531.694z M451.077,524.081    c0,1.418,1.587,2.359,2.38,2.359c0.794,0,2.38-1.244,2.38-2.359c0-1.027-0.643-1.756-2.401-1.756    C451.721,522.325,451.077,523.053,451.077,524.081z"
         id="path3981" /></g><g
       id="g3983"><path
         fill="#707173"
         d="M232.599,561.225v-1.326h2.68v-12.59l-2.979,0.301v-1.008c1.071-0.32,2.294-0.645,2.979-1.072h1.544    v14.369h2.638v1.326H232.599L232.599,561.225z"
         id="path3985" /><path
         fill="#707173"
         d="M244.955,559.231c0.707,0.557,1.436,0.879,2.637,0.879c2.444,0,4.567-2.188,4.761-6.475    c-0.943,0.984-2.102,1.844-4.246,1.844c-2.315,0-4.653-1.631-4.653-4.975c0-3.303,2.423-4.977,4.996-4.977    c3.218,0,5.533,1.887,5.533,7.162c0,4.891-2.188,8.75-6.348,8.75c-1.672,0-2.895-0.473-3.346-0.902L244.955,559.231z     M248.321,554.149c1.887,0,3.346-1.244,3.944-2.871c-0.042-2.703-1.457-4.418-3.688-4.418c-2.188,0-3.495,1.5-3.495,3.602    C245.083,552.864,246.691,554.149,248.321,554.149z"
         id="path3987" /></g><g
       id="g3989"><path
         fill="#707173"
         d="M274.871,561.225h-10.056v-1.631c2.68-5.422,8.448-5.746,8.448-9.902c0-1.805-1.157-2.832-3.131-2.832    c-2.23,0-3.388,1.801-3.646,3.365l-1.522-0.342c0.493-2.146,1.759-4.354,5.21-4.354c2.532,0,4.718,1.459,4.718,4.117    c0,4.719-6.775,6.004-8.448,10.252h8.427V561.225L274.871,561.225z"
         id="path3991" /><path
         fill="#707173"
         d="M282.832,545.528c3.366,0,5.468,2.359,5.468,7.955c0,5.6-2.102,7.957-5.468,7.957    s-5.468-2.357-5.468-7.957C277.364,547.887,279.466,545.528,282.832,545.528z M282.832,560.11c2.509,0,3.838-1.93,3.838-6.627    c0-4.693-1.329-6.623-3.838-6.623c-2.51,0-3.839,1.93-3.839,6.623C278.993,558.18,280.322,560.11,282.832,560.11z"
         id="path3993" /></g><g
       id="g3995"><path
         fill="#707173"
         d="M308.996,561.225H298.94v-1.631c2.68-5.422,8.448-5.746,8.448-9.902c0-1.805-1.157-2.832-3.131-2.832    c-2.23,0-3.388,1.801-3.646,3.365l-1.522-0.342c0.493-2.146,1.759-4.354,5.21-4.354c2.532,0,4.718,1.459,4.718,4.117    c0,4.719-6.775,6.004-8.448,10.252h8.427V561.225L308.996,561.225z"
         id="path3997" /><path
         fill="#707173"
         d="M313.74,561.225v-1.326h2.68v-12.59l-2.979,0.301v-1.008c1.072-0.32,2.294-0.645,2.979-1.072h1.546v14.369    h2.637v1.326H313.74L313.74,561.225z"
         id="path3999" /></g><g
       id="g4001"><path
         fill="#707173"
         d="M343.121,561.225h-10.056v-1.631c2.68-5.422,8.448-5.746,8.448-9.902c0-1.805-1.157-2.832-3.131-2.832    c-2.23,0-3.388,1.801-3.646,3.365l-1.522-0.342c0.493-2.146,1.759-4.354,5.21-4.354c2.532,0,4.718,1.459,4.718,4.117    c0,4.719-6.775,6.004-8.448,10.252h8.427V561.225L343.121,561.225z"
         id="path4003" /><path
         fill="#707173"
         d="M356.014,561.225h-10.057v-1.631c2.681-5.422,8.449-5.746,8.449-9.902c0-1.805-1.158-2.832-3.131-2.832    c-2.23,0-3.389,1.801-3.646,3.365l-1.521-0.342c0.493-2.146,1.758-4.354,5.21-4.354c2.531,0,4.718,1.459,4.718,4.117    c0,4.719-6.775,6.004-8.449,10.252h8.428L356.014,561.225L356.014,561.225z"
         id="path4005" /></g><g
       id="g4007"><path
         fill="#707173"
         d="M377.246,561.225H367.19v-1.631c2.68-5.422,8.448-5.746,8.448-9.902c0-1.805-1.157-2.832-3.131-2.832    c-2.23,0-3.388,1.801-3.646,3.365l-1.522-0.342c0.493-2.146,1.759-4.354,5.21-4.354c2.532,0,4.718,1.459,4.718,4.117    c0,4.719-6.775,6.004-8.448,10.252h8.427V561.225L377.246,561.225z"
         id="path4009" /><path
         fill="#707173"
         d="M380.64,557.538c1.18,1.588,2.637,2.572,4.245,2.572c2.273,0,3.646-1.158,3.646-3    c0-2.166-1.287-3.475-4.375-3.475h-1.522v-1.33h0.922c3.088,0,4.418-0.984,4.418-2.895c0-1.568-1.352-2.553-2.831-2.553    c-1.887,0-2.701,0.814-3.731,2.143l-1.266-0.854c1.052-1.461,2.51-2.619,4.997-2.619c2.745,0,4.46,1.418,4.46,3.859    c0,1.865-1.201,2.961-2.402,3.434c2.445,0.941,2.96,2.701,2.96,4.115c0,2.639-2.037,4.504-5.275,4.504    c-2.959,0-4.76-1.846-5.489-3.047L380.64,557.538z"
         id="path4011" /></g><g
       id="g4013"><path
         fill="#707173"
         d="M411.371,561.225h-10.056v-1.631c2.68-5.422,8.448-5.746,8.448-9.902c0-1.805-1.157-2.832-3.131-2.832    c-2.23,0-3.388,1.801-3.646,3.365l-1.522-0.342c0.493-2.146,1.759-4.354,5.21-4.354c2.532,0,4.718,1.459,4.718,4.117    c0,4.719-6.775,6.004-8.448,10.252h8.427V561.225L411.371,561.225z"
         id="path4015" /><path
         fill="#707173"
         d="M422.271,557.581v3.645h-1.544v-3.645h-7.12v-1.33l6.39-10.506h2.274v10.506h2.657v1.33H422.271z     M415.237,556.25h5.489v-8.877h-0.065L415.237,556.25z"
         id="path4017" /></g><g
       id="g4019"><path
         fill="#707173"
         d="M445.496,561.225H435.44v-1.631c2.68-5.422,8.447-5.746,8.447-9.902c0-1.805-1.156-2.832-3.131-2.832    c-2.229,0-3.388,1.801-3.646,3.365l-1.522-0.342c0.493-2.146,1.759-4.354,5.21-4.354c2.532,0,4.718,1.459,4.718,4.117    c0,4.719-6.774,6.004-8.447,10.252h8.427V561.225L445.496,561.225z"
         id="path4021" /><path
         fill="#707173"
         d="M457.659,547.073h-6.646l-0.387,4.953c1.009-0.922,2.08-1.266,3.174-1.266    c2.573,0,4.954,1.758,4.954,5.232c0,2.359-1.416,5.447-5.361,5.447c-2.638,0-3.967-1.461-4.932-2.961l1.395-0.729    c0.75,1.393,1.95,2.357,3.58,2.357c2.036,0,3.688-1.201,3.688-4.115c0-2.275-1.329-3.902-3.474-3.902    c-1.502,0-2.639,0.898-3.261,2.336l-1.352-0.301l0.688-8.383h7.934V547.073L457.659,547.073z"
         id="path4023" /></g><g
       id="g4025"><path
         fill="#707173"
         d="M240.746,586.575H230.69v-1.629c2.68-5.424,8.448-5.746,8.448-9.906c0-1.803-1.157-2.83-3.131-2.83    c-2.23,0-3.388,1.799-3.646,3.367l-1.522-0.344c0.493-2.146,1.759-4.354,5.21-4.354c2.532,0,4.718,1.459,4.718,4.117    c0,4.719-6.775,6.002-8.448,10.25h8.427V586.575L240.746,586.575z"
         id="path4027" /><path
         fill="#707173"
         d="M252.48,573.088c-0.707-0.557-1.436-0.879-2.637-0.879c-2.445,0-4.718,2.016-4.761,6.475    c0.943-0.984,2.101-1.844,4.245-1.844c2.317,0,4.654,1.631,4.654,4.975c0,3.303-2.424,4.977-4.997,4.977    c-3.216,0-5.532-1.887-5.532-7.162c0-4.891,2.188-8.75,6.348-8.75c1.673,0,2.895,0.473,3.345,0.902L252.48,573.088z     M249.115,578.17c-1.888,0-3.861,1.545-3.989,3.301c0.085,2.189,1.501,3.988,3.731,3.988c2.188,0,3.495-1.5,3.495-3.602    C252.353,579.456,250.744,578.17,249.115,578.17z"
         id="path4029" /></g><g
       id="g4031"><path
         fill="#707173"
         d="M274.871,586.575h-10.056v-1.629c2.68-5.424,8.448-5.746,8.448-9.906c0-1.803-1.157-2.83-3.131-2.83    c-2.23,0-3.388,1.799-3.646,3.367l-1.522-0.344c0.493-2.146,1.759-4.354,5.21-4.354c2.532,0,4.718,1.459,4.718,4.117    c0,4.719-6.775,6.002-8.448,10.25h8.427V586.575L274.871,586.575z"
         id="path4033" /><path
         fill="#707173"
         d="M277.879,572.422v-1.328h9.821v0.941l-6.541,14.539h-1.802l6.369-14.152H277.879L277.879,572.422z"
         id="path4035" /></g><g
       id="g4037"><path
         fill="#707173"
         d="M308.996,586.575H298.94v-1.629c2.68-5.424,8.448-5.746,8.448-9.906c0-1.803-1.157-2.83-3.131-2.83    c-2.23,0-3.388,1.799-3.646,3.367l-1.522-0.344c0.493-2.146,1.759-4.354,5.21-4.354c2.532,0,4.718,1.459,4.718,4.117    c0,4.719-6.775,6.002-8.448,10.25h8.427V586.575L308.996,586.575z"
         id="path4039" /><path
         fill="#707173"
         d="M316.957,586.792c-3.796,0-5.641-1.887-5.641-4.246c0-1.973,1.546-3.346,3.389-4.205v-0.043    c-1.715-0.643-2.744-1.949-2.744-3.559c0-2.529,2.144-3.859,4.996-3.859s4.996,1.33,4.996,3.859c0,1.607-1.029,2.916-2.745,3.559    v0.043c1.845,0.666,3.389,2.104,3.389,4.205C322.597,584.905,320.752,586.792,316.957,586.792z M316.957,585.459    c2.809,0,4.01-1.543,4.01-2.914c0-1.803-1.844-2.703-4.289-3.52c-1.886,0.814-3.73,1.717-3.73,3.52    C312.947,583.917,314.147,585.459,316.957,585.459z M316.957,572.209c-1.694,0-3.366,0.729-3.366,2.445    c0,1.67,2.101,2.613,3.366,2.979c1.716-0.428,3.366-1.479,3.366-2.979C320.323,572.938,318.651,572.209,316.957,572.209z"
         id="path4041" /></g><g
       id="g4043"><path
         fill="#707173"
         d="M343.121,586.575h-10.056v-1.629c2.68-5.424,8.448-5.746,8.448-9.906c0-1.803-1.157-2.83-3.131-2.83    c-2.23,0-3.388,1.799-3.646,3.367l-1.522-0.344c0.493-2.146,1.759-4.354,5.21-4.354c2.532,0,4.718,1.459,4.718,4.117    c0,4.719-6.775,6.002-8.448,10.25h8.427V586.575L343.121,586.575z"
         id="path4045" /><path
         fill="#707173"
         d="M347.33,584.583c0.707,0.555,1.436,0.877,2.637,0.877c2.444,0,4.567-2.186,4.761-6.475    c-0.943,0.984-2.102,1.844-4.246,1.844c-2.315,0-4.653-1.629-4.653-4.973c0-3.305,2.423-4.979,4.996-4.979    c3.218,0,5.533,1.887,5.533,7.162c0,4.891-2.188,8.75-6.348,8.75c-1.672,0-2.895-0.473-3.346-0.9L347.33,584.583z     M350.696,579.499c1.887,0,3.346-1.244,3.944-2.871c-0.042-2.701-1.457-4.418-3.688-4.418c-2.188,0-3.495,1.5-3.495,3.604    C347.458,578.213,349.066,579.499,350.696,579.499z"
         id="path4047" /></g><g
       id="g4049"><path
         fill="#707173"
         d="M367.747,582.889c1.18,1.586,2.638,2.57,4.246,2.57c2.273,0,3.646-1.156,3.646-3    c0-2.166-1.287-3.475-4.375-3.475h-1.521v-1.33h0.922c3.087,0,4.418-0.984,4.418-2.895c0-1.566-1.353-2.553-2.831-2.553    c-1.887,0-2.702,0.816-3.731,2.143l-1.266-0.854c1.051-1.461,2.51-2.617,4.997-2.617c2.744,0,4.459,1.416,4.459,3.859    c0,1.865-1.2,2.959-2.401,3.432c2.445,0.941,2.959,2.701,2.959,4.115c0,2.639-2.036,4.506-5.274,4.506    c-2.96,0-4.76-1.846-5.49-3.047L367.747,582.889z"
         id="path4051" /><path
         fill="#707173"
         d="M385.207,570.879c3.366,0,5.468,2.357,5.468,7.953c0,5.6-2.102,7.959-5.468,7.959    s-5.468-2.359-5.468-7.959C379.739,573.237,381.841,570.879,385.207,570.879z M385.207,585.459c2.509,0,3.838-1.93,3.838-6.627    c0-4.693-1.329-6.623-3.838-6.623c-2.51,0-3.839,1.93-3.839,6.623C381.368,583.53,382.697,585.459,385.207,585.459z"
         id="path4053" /></g><g
       id="g4055"><path
         fill="#707173"
         d="M401.872,582.889c1.18,1.586,2.638,2.57,4.246,2.57c2.273,0,3.646-1.156,3.646-3    c0-2.166-1.287-3.475-4.375-3.475h-1.521v-1.33h0.922c3.087,0,4.418-0.984,4.418-2.895c0-1.566-1.353-2.553-2.831-2.553    c-1.887,0-2.702,0.816-3.731,2.143l-1.266-0.854c1.051-1.461,2.51-2.617,4.997-2.617c2.744,0,4.459,1.416,4.459,3.859    c0,1.865-1.2,2.959-2.401,3.432c2.445,0.941,2.959,2.701,2.959,4.115c0,2.639-2.036,4.506-5.274,4.506    c-2.96,0-4.76-1.846-5.49-3.047L401.872,582.889z"
         id="path4057" /><path
         fill="#707173"
         d="M416.115,586.575v-1.328h2.68v-12.588l-2.979,0.299v-1.006c1.072-0.322,2.294-0.645,2.979-1.072h1.546    v14.367h2.637v1.328H416.115z"
         id="path4059" /></g><g
       id="g4061"><path
         fill="#707173"
         d="M241.289,388.284c-0.749,0.304-1.614,0.117-1.614,0.117s-2.575-0.117-3.98-1.219    c-1.965-1.545-2.082-7.489-2.082-7.489c-0.118-8.053,9.479-1.825,9.479-1.825c-4.05-1.826-6.812-2.131-6.812,2.104    c0,3.888,1.545,6.999,1.545,6.999c3.441,0.143,6.016-1.566,6.016-1.566c0.702,0.068,2.295,1.192,2.295,1.192    c-0.914,0.491-1.851,0.938-2.529,1.17c0,0.306,0,0.866,0,1.873h-2.317C241.289,388.962,241.289,388.917,241.289,388.284z     M246.416,378.195l1.381,1.429l-1.381,1.381l-1.382-1.381L246.416,378.195z"
         id="path4063" /><path
         fill="#707173"
         d="M237.287,390.128l1.381,1.428l-1.381,1.382l-1.382-1.382L237.287,390.128z M237.287,392.938l1.381,1.429    l-1.381,1.38l-1.382-1.38L237.287,392.938z M241.289,396.822c-0.022-2.106,0.492-3.838,2.178-4.144c0,0-1.171-0.538-1.709-1.077    c-0.281-0.305-0.445-0.796-0.469-2.457h2.317c0.024,2.901,0.913,3.276,0.913,3.276s1.077,0.305,1.592,0.609    c0.352,0.256,0.141,0.256,0.141,0.256c-1.614,0-2.646,1.288-2.646,3.535L241.289,396.822L241.289,396.822z"
         id="path4065" /><path
         fill="#707173"
         d="M241.289,404.17c-0.022-2.105,0.492-3.838,2.178-4.143c0,0-1.171-0.538-1.709-1.076    c-0.281-0.305-0.445-0.796-0.469-2.458h2.317c0.024,2.901,0.913,3.275,0.913,3.275s1.077,0.306,1.592,0.609    c0.352,0.257,0.141,0.257,0.141,0.257c-1.614,0-2.646,1.287-2.646,3.534L241.289,404.17L241.289,404.17z M250.559,398.74    l1.381,1.428l-1.381,1.381l-1.382-1.381L250.559,398.74z"
         id="path4067" /><path
         fill="#707173"
         d="M243.606,403.676c0,3.021,0.141,3.512,0.141,3.512c0.749,0.117,2.505-1.545,2.505-1.545    c0.233-0.07,2.294,0.937,2.294,0.937s-2.2,2.2-4.752,2.036c0,0-1.403-0.141-2.247-0.726c0,0-0.258-1.078-0.258-4.214H243.606z     M251.799,403.98l1.381,1.428l-1.381,1.381l-1.38-1.381L251.799,403.98z M251.823,406.789l1.381,1.428l-1.381,1.382l-1.382-1.382    L251.823,406.789z M253.906,405.385l1.381,1.428l-1.381,1.382l-1.382-1.382L253.906,405.385z"
         id="path4069" /><path
         fill="#707173"
         d="M238.809,412.452c0,0-0.305-2.015-0.772-0.632c-0.469,1.381-0.14,2.012-0.095,2.362    c0.047,0.328-0.256,0.117-0.256,0.117l-0.469-0.469c0,0-0.258-0.163-0.327-0.444c-0.352-1.566-1.218-2.457-1.265-2.505    c-0.047-0.116-0.094-0.163,0.047-0.232c0.233,0,1.218,0.749,1.218,0.749c0.069,0,0.116-0.469,0.116-0.469s0.023-1.171,1.03-0.586    c1.498,0.892,1.872,2.482,1.825,2.785c-0.07,0.305-0.351,0.539-0.351,0.539l-0.82-0.959L238.809,412.452z M253.742,419.871    c0,0-0.632-0.771-1.498-0.701c-2.2,0.188-3.956-0.164-5.314-0.702c-1.498,0.843-2.808,1.381-3.58,1.498    c-0.445,0.069-2.247-0.351-2.247-0.351c-0.468-1.171-0.398-5.923-0.398-5.923c0.982-0.398,2.974,0,2.974,0    c-0.235,0.164-0.211,0.516-0.211,0.516c1.193,1.404,2.13,2.247,2.902,2.762c2.153-1.311,3.301-2.575,3.581-2.927    c1.1-1.357,0.89-1.474,0.89-1.474s-0.398-0.866,0.281-1.077c0.654-0.21,1.451-0.398,2.176-0.28c1.265,0.21,1.007,1.1,1.007,1.1    c-1.568,2.153-3.932,4.051-6.109,5.432c1.498,0.328,3.44,0.022,3.44,0.022s0.843-0.142,1.358-0.422    c1.124-0.632,2.364,1.124,2.364,1.124C253.671,418.655,253.742,419.871,253.742,419.871z M243.42,415.939l0.164,2.434    c0.607-0.256,1.17-0.514,1.661-0.771C244.005,416.783,243.42,415.939,243.42,415.939z"
         id="path4071" /><path
         fill="#707173"
         d="M255.287,424.012c-2.785,0.071-4.19,0.234-5.571,0.306c-1.311,0.068-3.838,0.188-5.478,0.232    c-2.387,0.071-3.44-0.725-3.908-1.122c-0.142-0.118,0-0.118,0-0.118c1.614-0.093,4.799-0.396,4.799-0.396l6.717-0.375    C253.929,422.421,255.287,424.012,255.287,424.012z"
         id="path4073" /></g><g
       id="g4075"><path
         fill="#707173"
         d="M279.04,379.765c0,0-0.468-3.814-1.381-1.192c-0.938,2.645-0.328,3.86-0.211,4.517    c0.047,0.608-0.491,0.235-0.491,0.235l-0.913-0.892c0,0-0.491-0.352-0.632-0.89c-0.727-2.972-2.317-4.681-2.411-4.798    c-0.141-0.21-0.188-0.328,0.094-0.374c0.375,0,2.317,1.404,2.317,1.404c0.164,0,0.233-0.913,0.233-0.913s0.024-2.294,2.014-1.102    c2.785,1.662,3.534,4.683,3.465,5.29c-0.164,0.632-0.704,1.029-0.704,1.029l-1.543-1.801L279.04,379.765z"
         id="path4077" /><path
         fill="#707173"
         d="M274.99,390.107c0,0-0.211-4.167,2.996-4.262l9.27-0.256c0.491-0.023,1.686,1.334,1.686,1.334    c-0.913,0-6.555,0.141-9.573,0.141c-2.271,0-2.061,3.043-2.061,3.043H274.99L274.99,390.107z"
         id="path4079" /><path
         fill="#707173"
         d="M277.308,389.497c0,3.019,0.141,3.51,0.141,3.51c0.749,0.118,2.505-1.544,2.505-1.544    c0.233-0.07,2.294,0.937,2.294,0.937s-2.2,2.199-4.752,2.036c0,0-1.404-0.14-2.247-0.726c0,0-0.258-1.076-0.258-4.213H277.308    L277.308,389.497z M285.5,389.802l1.381,1.427l-1.381,1.382l-1.38-1.382L285.5,389.802z M285.523,392.609l1.382,1.429    l-1.382,1.381l-1.381-1.381L285.523,392.609z M287.607,391.205l1.381,1.429l-1.381,1.38l-1.382-1.38L287.607,391.205z"
         id="path4081" /><path
         fill="#707173"
         d="M274.99,409.016c0,0-0.258-3.042,2.833-3.205c3.019-0.163,4.562-0.211,4.562-0.211    s-8.356-1.03-7.841-7.325l0.211-2.575c1.615,7.841,8.895,9.269,8.895,9.269c3.019,0.47,4.214,0,4.892,0.305    c0.702,0.469,0.679,0.938-0.491,1.007c0,0-4.845,0.49-8.146,0.516c-2.832,0.022-2.599,2.223-2.599,2.223h-2.317V409.016z     M284.376,398.812c0,0-0.233-1.804,1.616-2.179c1.638-0.327,2.574-0.468,1.873,0.796c-0.68,1.545-2.342,2.975-4.145,3.862    c-2.621,1.287-5.781,0.211-5.781,0.211S282.34,401.572,284.376,398.812z"
         id="path4083" /><path
         fill="#707173"
         d="M274.99,416.339c-0.022-2.105,0.491-3.838,2.178-4.143c0,0-1.171-0.539-1.709-1.077    c-0.282-0.305-0.445-0.796-0.469-2.458h2.317c0.023,2.901,0.912,3.276,0.912,3.276s1.078,0.306,1.593,0.609    c0.352,0.256,0.141,0.256,0.141,0.256c-1.615,0-2.646,1.288-2.646,3.535L274.99,416.339L274.99,416.339z M283.838,409.505    l1.381,1.427l-1.381,1.382l-1.38-1.382L283.838,409.505z M283.838,412.312l1.381,1.429l-1.381,1.381l-1.38-1.381L283.838,412.312z     M286.296,410.908l1.381,1.429l-1.381,1.38l-1.382-1.38L286.296,410.908z"
         id="path4085" /><path
         fill="#707173"
         d="M277.471,418.045c0.749,0.188,7.188-0.375,7.188-0.375c0.491-0.021,0.749-0.069,1.427-0.352    c1.171-0.491,2.785,1.078,2.785,1.078s-1.731,0.093-2.176,1.521c0,0-0.469-0.843-1.733-0.771    c-0.865,0.046-5.219,0.209-6.295,0.163c-1.218-0.048-2.436,0-3.465-0.772c0,0-0.188-1.382-0.188-2.551h2.294    C277.308,417.412,277.471,418.045,277.471,418.045z"
         id="path4087" /><path
         fill="#707173"
         d="M288.988,424.012c-2.785,0.071-4.19,0.234-5.572,0.306c-1.31,0.068-3.838,0.188-5.477,0.232    c-2.387,0.071-3.44-0.725-3.909-1.122c-0.141-0.118,0-0.118,0-0.118c1.615-0.093,4.799-0.396,4.799-0.396l6.718-0.375    C287.63,422.421,288.988,424.012,288.988,424.012z"
         id="path4089" /></g><g
       id="g4091"><path
         fill="#707173"
         d="M312.741,376.185c0,0-0.469-3.814-1.381-1.192c-0.938,2.645-0.328,3.86-0.211,4.517    c0.047,0.608-0.491,0.235-0.491,0.235l-0.913-0.892c0,0-0.491-0.352-0.632-0.89c-0.727-2.972-2.317-4.681-2.411-4.798    c-0.141-0.21-0.188-0.328,0.094-0.374c0.375,0,2.317,1.404,2.317,1.404c0.163,0,0.233-0.913,0.233-0.913s0.024-2.294,2.014-1.102    c2.785,1.662,3.534,4.683,3.464,5.29c-0.163,0.632-0.703,1.029-0.703,1.029l-1.544-1.801L312.741,376.185z"
         id="path4093" /><path
         fill="#707173"
         d="M308.691,386.527c0,0-0.211-4.167,2.996-4.262l9.269-0.256c0.491-0.023,1.687,1.334,1.687,1.334    c-0.913,0-6.555,0.141-9.574,0.141c-2.271,0-2.06,3.043-2.06,3.043H308.691L308.691,386.527z"
         id="path4095" /><path
         fill="#707173"
         d="M308.691,394.297c0-1.265,0.352-2.763,1.381-3.559c0,0-1.381-1.498-1.381-4.847h2.317    c-0.023,3.255,0.701,3.652,0.701,3.652c0.913-0.327,0.68-2.154,0.68-2.154s2.574,0.024,2.574,2.436    c0,2.88-1.989,2.854-1.989,2.854l-1.265-0.796c-0.585,0.562-0.701,1.147-0.701,2.412L308.691,394.297L308.691,394.297z"
         id="path4097" /><path
         fill="#707173"
         d="M305.298,394.716l1.38,1.428l-1.38,1.382l-1.381-1.382L305.298,394.716z M311.009,393.803    c0,3.021,0.141,3.512,0.141,3.512c0.749,0.117,2.505-1.545,2.505-1.545c0.233-0.07,2.294,0.937,2.294,0.937s-2.2,2.2-4.752,2.036    c0,0-1.404-0.141-2.247-0.726c0,0-0.258-1.075-0.258-4.214H311.009z"
         id="path4099" /><path
         fill="#707173"
         d="M310.4,409.015c-1.942,0.048-5.665-1.521-6.203-4.282c-0.491-2.506,1.171-4.938,1.171-4.938    c-0.516,1.848,0.397,3.627,0.654,4.212c0.492,1.102,3.021,4.237,4.12,4.05c1.054-0.187,1.896-1.566,2.225-1.896    c0.233-0.234,2.668,0.725,2.668,0.725C313.513,409.015,311.196,408.991,310.4,409.015z"
         id="path4101" /><path
         fill="#707173"
         d="M321.145,419.638c0,0-0.633-0.771-1.498-0.702c-2.2,0.188-3.956-0.162-5.314-0.701    c-1.498,0.844-2.809,1.382-3.58,1.498c-0.445,0.069-2.247-0.351-2.247-0.351c-0.469-1.171-0.398-5.923-0.398-5.923    c0.982-0.398,2.973,0,2.973,0c-0.234,0.164-0.21,0.516-0.21,0.516c1.193,1.404,2.13,2.247,2.901,2.762    c2.153-1.311,3.301-2.574,3.582-2.927c1.099-1.356,0.89-1.474,0.89-1.474s-0.398-0.866,0.28-1.077    c0.655-0.211,1.451-0.397,2.176-0.28c1.265,0.209,1.007,1.101,1.007,1.101c-1.567,2.153-3.932,4.05-6.108,5.431    c1.498,0.328,3.44,0.023,3.44,0.023s0.843-0.143,1.358-0.422c1.123-0.633,2.363,1.123,2.363,1.123    C321.073,418.422,321.145,419.638,321.145,419.638z M310.821,415.706l0.164,2.434c0.608-0.256,1.171-0.514,1.662-0.771    C311.407,416.549,310.821,415.706,310.821,415.706z M325.545,411.681c0,0-0.375-2.411-0.938-0.749    c-0.561,1.662-0.187,2.411-0.116,2.832c0.047,0.397-0.304,0.141-0.304,0.141l-0.562-0.562c0,0-0.305-0.188-0.397-0.539    c-0.445-1.872-1.451-2.95-1.522-2.996c-0.047-0.141-0.094-0.188,0.071-0.28c0.28,0,1.451,0.89,1.451,0.89    c0.093,0,0.14-0.562,0.14-0.562s0.024-1.404,1.24-0.702c1.803,1.054,2.247,2.996,2.201,3.348    c-0.094,0.375-0.421,0.655-0.421,0.655l-0.984-1.146L325.545,411.681z"
         id="path4103" /><path
         fill="#707173"
         d="M322.689,424.012c-2.785,0.071-4.19,0.234-5.572,0.306c-1.31,0.068-3.838,0.188-5.477,0.232    c-2.387,0.071-3.44-0.725-3.909-1.122c-0.141-0.118,0-0.118,0-0.118c1.615-0.093,4.799-0.396,4.799-0.396l6.718-0.375    C321.331,422.421,322.689,424.012,322.689,424.012z"
         id="path4105" /></g><g
       id="g4107"><path
         fill="#707173"
         d="M344.899,375.461c-0.726,2.062,0.281,2.692,1.193,3.021c0.655,0.232-0.258,0.421-0.258,0.421    s-0.678-0.234-0.889-0.071c-0.234,0.071-0.515,0.469-0.515,1.124c0,0.516,0.28,0.679,0.28,0.679s0-0.163,0.679,0    c0.562,0.141,1.335,0.796,1.335,0.796h-0.891c-1.123,0.141-1.123,1.335-1.123,2.669h-2.317c-0.022-0.655,0-2.528,0.913-3.137    c0,0-0.913-0.491-0.913-1.451c0-1.101,0.444-1.403,0.444-1.639c0,0-1.029-0.938-0.21-1.849c-1.17,0.211-1.615,0.211-1.615,0.211    s-2.316-0.024-3.651-0.892c-2.083-1.355-2.061-5.384-2.061-5.384c-0.14-6.53,8.239-1.709,8.239-1.709s-5.851-2.785-5.71,1.92    c0.117,3.816,1.802,4.962,1.802,4.962c2.061-0.141,5.313-1.614,5.313-1.614c0.444,0.069,1.779,1.287,1.779,1.287    C346.07,375.11,345.344,375.321,344.899,375.461z"
         id="path4109" /><path
         fill="#707173"
         d="M338.393,384.631l1.381,1.428l-1.381,1.383l-1.382-1.383L338.393,384.631z M338.393,387.44l1.381,1.428    l-1.381,1.38l-1.382-1.38L338.393,387.44z M342.395,391.325c-0.022-2.106,0.492-3.838,2.178-4.144c0,0-1.171-0.538-1.709-1.076    c-0.281-0.306-0.445-0.797-0.469-2.457h2.317c0.024,2.9,0.913,3.275,0.913,3.275s1.077,0.305,1.592,0.609    c0.352,0.256,0.141,0.256,0.141,0.256c-1.614,0-2.646,1.288-2.646,3.535L342.395,391.325L342.395,391.325z"
         id="path4111" /><path
         fill="#707173"
         d="M342.395,401.762c0-1.777,0.258-2.669,0.797-3.229l-1.522-0.633c2.201-2.436,2.061-3.745,2.061-3.745    s-1.193-0.727-1.335-2.083c0,0,0-0.726,0-1.266h2.317c-0.07,2.95,1.101,3.254,1.101,3.254c2.949,1.055,2.598,4.283,2.598,4.283    c-2.271-0.653-3.721,0.633-3.698,3.418H342.395L342.395,401.762z M344.665,397.432c0.796-0.443,1.872,0,1.872,0    c0-1.076-1.193-1.778-1.193-1.778C345.344,396.659,344.665,397.432,344.665,397.432z"
         id="path4113" /><path
         fill="#707173"
         d="M347.732,405.879c-0.071-0.655-0.235-1.193-0.656-1.73c-0.842-1.102,0.515-0.562,0.515-0.562    s2.622,0.89,2.575,2.856c-0.07,2.505-1.475,4.424-1.873,6.226c-0.514,2.318-0.327,3.137-0.327,3.137l-2.622-0.749    c0,0,0-1.545-0.094-2.271c-0.631-0.046-0.538,3.699-0.538,3.699h-2.317c-0.047-5.501,2.763-4.12,2.739-4.167    c-0.211-0.82-0.679-1.451-1.124-2.505c-1.076-2.506-1.662-4.985-1.615-8.613h2.317c0.047,6.46,2.061,9.573,2.061,9.573    S347.919,407.706,347.732,405.879z M353.278,408.595l1.382,1.429l-1.382,1.381l-1.38-1.381L353.278,408.595z"
         id="path4115" /><path
         fill="#707173"
         d="M344.876,418.046c0.749,0.188,7.187-0.374,7.187-0.374c0.491-0.022,0.749-0.07,1.427-0.353    c1.171-0.491,2.785,1.078,2.785,1.078s-1.731,0.093-2.176,1.521c0,0-0.469-0.844-1.732-0.771c-0.866,0.046-5.22,0.211-6.296,0.163    c-1.218-0.047-2.435,0-3.465-0.772c0,0-0.188-1.381-0.188-2.552h2.294C344.712,417.414,344.876,418.046,344.876,418.046z"
         id="path4117" /><path
         fill="#707173"
         d="M356.393,424.013c-2.785,0.071-4.19,0.235-5.571,0.306c-1.311,0.069-3.838,0.188-5.478,0.234    c-2.387,0.069-3.44-0.727-3.908-1.125c-0.142-0.117,0-0.117,0-0.117c1.614-0.093,4.799-0.396,4.799-0.396l6.717-0.374    C355.034,422.422,356.393,424.013,356.393,424.013z"
         id="path4119" /></g><g
       id="g4121"><path
         fill="#707173"
         d="M379.235,376.419l-0.305-0.491c-0.164-4.752,0.843-4.144,0.843-4.144l2.364,0.983    c1.825,1.92,2.902,4.189,2.902,4.189h0.516c0.585,0,1.638,1.123,1.638,1.123s-1.404,0.397-4.564,0.538    c-3.721,0.142-4.236,1.732-4.214,4.939h-2.316c0-5.313,1.85-5.712,3.698-5.97c0.818-0.117,3.417-0.352,3.417-0.352    c0-0.538-1.614-2.926-1.825-3.184c0,0-0.024-0.023-0.094,0.188c-0.07,0.211-0.211,1.967-0.211,3.254    C381.084,377.496,380.195,377.238,379.235,376.419z M388.809,371.762l1.381,1.429l-1.381,1.382l-1.381-1.382L388.809,371.762z     M388.809,374.523l1.381,1.428l-1.381,1.381l-1.381-1.381L388.809,374.523z"
         id="path4123" /><path
         fill="#707173"
         d="M376.099,391.326c0-1.266,0.352-2.764,1.381-3.56c0,0-1.381-1.498-1.381-4.846h2.316    c-0.022,3.254,0.702,3.652,0.702,3.652c0.913-0.327,0.68-2.154,0.68-2.154s2.574,0.024,2.574,2.435    c0,2.881-1.989,2.855-1.989,2.855l-1.265-0.796c-0.585,0.562-0.702,1.146-0.702,2.412L376.099,391.326L376.099,391.326z"
         id="path4125" /><path
         fill="#707173"
         d="M376.099,401.762c0-1.777,0.258-2.669,0.796-3.229l-1.522-0.633c2.201-2.436,2.061-3.745,2.061-3.745    s-1.193-0.727-1.334-2.083c0,0,0-0.726,0-1.266h2.316c-0.069,2.95,1.101,3.254,1.101,3.254c2.949,1.055,2.598,4.283,2.598,4.283    c-2.27-0.653-3.721,0.633-3.698,3.418H376.099L376.099,401.762z M378.368,397.432c0.796-0.443,1.873,0,1.873,0    c0-1.076-1.193-1.778-1.193-1.778C379.048,396.659,378.368,397.432,378.368,397.432z"
         id="path4127" /><path
         fill="#707173"
         d="M373.079,408.244l1.381,1.427l-1.381,1.381l-1.381-1.381L373.079,408.244z M381.436,405.879    c-0.071-0.655-0.234-1.193-0.656-1.73c-0.842-1.102,0.516-0.562,0.516-0.562s2.621,0.89,2.574,2.856    c-0.069,2.505-1.474,4.424-1.872,6.226c-0.515,2.318-0.328,3.137-0.328,3.137l-2.621-0.749c0,0,0-1.545-0.094-2.271    c-0.632-0.046-0.539,3.699-0.539,3.699H376.1c-0.047-5.501,2.763-4.12,2.738-4.167c-0.211-0.82-0.678-1.451-1.124-2.505    c-1.076-2.506-1.661-4.985-1.614-8.613h2.316c0.047,6.46,2.061,9.573,2.061,9.573S381.622,407.706,381.436,405.879z"
         id="path4129" /><path
         fill="#707173"
         d="M378.579,418.046c0.749,0.188,7.187-0.374,7.187-0.374c0.491-0.022,0.749-0.07,1.428-0.353    c1.17-0.491,2.785,1.078,2.785,1.078s-1.731,0.093-2.176,1.521c0,0-0.469-0.844-1.733-0.771c-0.866,0.046-5.219,0.211-6.296,0.163    c-1.217-0.047-2.435,0-3.464-0.772c0,0-0.188-1.381-0.188-2.552h2.294C378.415,417.414,378.579,418.046,378.579,418.046z"
         id="path4131" /><path
         fill="#707173"
         d="M390.097,424.013c-2.786,0.071-4.191,0.235-5.572,0.306c-1.311,0.069-3.838,0.188-5.477,0.234    c-2.387,0.069-3.44-0.727-3.909-1.125c-0.141-0.117,0-0.117,0-0.117c1.615-0.093,4.799-0.396,4.799-0.396l6.717-0.374    C388.738,422.422,390.097,424.013,390.097,424.013z"
         id="path4133" /></g><g
       id="g4135"><path
         fill="#707173"
         d="M409.8,393.247c0-2.223,0.233-3.792,2.341-4.519c0,0-1.709-0.515-1.896-1.731c0,0-0.655-2.622-0.936-5.898    c-0.353-3.979,0.468-9.269,6.835-5.29v0.048c-7.257-3.581-4.097,10.158-3.534,11.587c0.327,0.818,0.467,1.006,0.467,1.006    s1.24,0.258,1.615,0.539c0.421,0.304,0.492,0.374,0.492,0.374c-2.879,0.491-3.067,1.896-3.067,3.886L409.8,393.247L409.8,393.247z     M419.256,379.273l1.382,1.428l-1.382,1.38l-1.381-1.38L419.256,379.273z M419.326,382.081l1.381,1.429l-1.381,1.381l-1.382-1.381    L419.326,382.081z"
         id="path4137" /><path
         fill="#707173"
         d="M406.546,394.902l1.381,1.429l-1.381,1.381l-1.382-1.381L406.546,394.902z M409.8,400.473    c-0.023-2.104,0.491-3.837,2.177-4.142c0,0-1.17-0.539-1.709-1.077c-0.281-0.305-0.445-0.796-0.468-2.458h2.316    c0.024,2.902,0.913,3.277,0.913,3.277s1.078,0.305,1.592,0.608c0.352,0.257,0.141,0.257,0.141,0.257    c-1.614,0-2.646,1.286-2.646,3.533L409.8,400.473L409.8,400.473z"
         id="path4139" /><path
         fill="#707173"
         d="M409.8,416.365c0-0.982,0-2.553,0.726-3.651c0,0-0.374-0.117-0.726-0.374c0,0-0.983-3.277,1.217-3.887    c0,0-1.592-0.258-1.592-2.809c0-1.709,1.476-1.825,1.476-1.825s-1.101-0.96-1.101-3.863h2.316c0,3.138,0.938,4.308,1.334,4.589    c0.328,0.234,0.353,0.632,0,0.491c-0.749-0.281-0.982-0.234-0.982-0.234s-0.607,0.117-0.607,1.218c0,1.942,1.59,3.16,1.965,3.276    c0.117,0.117,0.141,0.422,0.141,0.422s-0.607-0.141-0.726-0.141c-0.749-0.117-1.124,0.444-1.124,1.312    c0,0.491,0.117,1.334,0.117,1.334s0.234,0,0.609,0c0.374,0,1.451,0.726,1.451,0.726c-1.826,0.117-2.178,1.85-2.178,3.418    L409.8,416.365L409.8,416.365z"
         id="path4141" /><path
         fill="#707173"
         d="M412.28,418.045c0.749,0.188,7.187-0.375,7.187-0.375c0.491-0.021,0.749-0.069,1.427-0.352    c1.171-0.491,2.786,1.078,2.786,1.078s-1.731,0.093-2.177,1.521c0,0-0.468-0.843-1.732-0.771    c-0.866,0.046-5.219,0.209-6.296,0.163c-1.218-0.048-2.435,0-3.465-0.772c0,0-0.188-1.382-0.188-2.551h2.294    C412.116,417.412,412.28,418.045,412.28,418.045z"
         id="path4143" /><path
         fill="#707173"
         d="M423.797,424.012c-2.785,0.071-4.19,0.234-5.571,0.306c-1.311,0.068-3.838,0.188-5.477,0.232    c-2.387,0.071-3.44-0.725-3.909-1.122c-0.141-0.118,0-0.118,0-0.118c1.614-0.093,4.799-0.396,4.799-0.396l6.717-0.375    C422.438,422.421,423.797,424.012,423.797,424.012z"
         id="path4145" /></g><g
       id="g4147"><path
         fill="#707173"
         d="M451.881,390.903c0.538-0.047,1.686,1.265,1.686,1.265s-3.138,0.28-5.268,0.818    c-2.341,0.586-2.48,1.476-2.48,2.737H443.5c-0.094-3.393,2.833-3.907,2.833-3.907c-1.101-0.259-1.592-0.516-1.592-0.516    s-1.171-1.217-1.335-3.979c-0.163-2.925,2.294-2.738,3.534-2.225c-0.632-0.022-1.45,0.305-1.193,2.528    c0.353,3.09,1.568,3.956,1.568,3.956C448.252,391.513,451.201,390.974,451.881,390.903z"
         id="path4149" /><path
         fill="#707173"
         d="M446.777,404.008c1.381-2.06,1.661-3.722,1.661-4.494c0-0.396-0.188-1.192-0.491-1.567    c-0.702-0.891,0.188-0.47,0.188-0.47s2.574,0.609,2.55,2.811c-0.021,1.989-1.566,4.073-2.294,5.501    c-0.842,1.685-0.864,3.229-0.864,3.229l-2.81-1.101c0,0,0.305-2.247-0.258-4.728c-0.396-1.731-0.96-4.189-0.96-7.911h2.317    C445.725,399.303,446.777,404.008,446.777,404.008z"
         id="path4151" /><path
         fill="#707173"
         d="M455.953,419.64c0,0-0.632-0.771-1.498-0.701c-2.2,0.188-3.956-0.164-5.314-0.702    c-1.498,0.843-2.808,1.381-3.58,1.498c-0.444,0.068-2.246-0.352-2.246-0.352c-0.469-1.171-0.398-5.923-0.398-5.923    c0.982-0.398,2.974,0,2.974,0c-0.234,0.164-0.211,0.515-0.211,0.515c1.193,1.405,2.13,2.247,2.902,2.764    c2.153-1.312,3.301-2.575,3.581-2.928c1.1-1.355,0.89-1.474,0.89-1.474s-0.397-0.866,0.281-1.076    c0.654-0.211,1.451-0.398,2.176-0.282c1.266,0.212,1.007,1.102,1.007,1.102c-1.567,2.153-3.932,4.05-6.108,5.431    c1.498,0.328,3.439,0.023,3.439,0.023s0.844-0.142,1.358-0.422c1.124-0.632,2.364,1.124,2.364,1.124    C455.882,418.423,455.953,419.64,455.953,419.64z M445.631,415.707l0.164,2.435c0.607-0.257,1.17-0.515,1.661-0.771    C446.216,416.551,445.631,415.707,445.631,415.707z M460.354,411.682c0,0-0.375-2.41-0.937-0.749    c-0.562,1.662-0.188,2.411-0.117,2.832c0.047,0.397-0.304,0.141-0.304,0.141l-0.562-0.562c0,0-0.305-0.188-0.396-0.538    c-0.445-1.873-1.45-2.948-1.521-2.996c-0.047-0.142-0.094-0.188,0.071-0.281c0.28,0,1.45,0.89,1.45,0.89    c0.093,0,0.14-0.561,0.14-0.561s0.024-1.405,1.241-0.703c1.803,1.054,2.247,2.996,2.201,3.348    c-0.094,0.374-0.422,0.654-0.422,0.654l-0.983-1.146L460.354,411.682z"
         id="path4153" /><path
         fill="#707173"
         d="M457.498,424.013c-2.785,0.071-4.19,0.235-5.571,0.306c-1.311,0.069-3.838,0.188-5.478,0.234    c-2.388,0.069-3.44-0.727-3.908-1.125c-0.142-0.117,0-0.117,0-0.117c1.614-0.093,4.799-0.396,4.799-0.396l6.717-0.374    C456.14,422.422,457.498,424.013,457.498,424.013z"
         id="path4155" /></g><g
       id="g4157"><path
         fill="#4B438C"
         d="M287.042,338.336c-1.381,0-1.85-0.094-1.85-0.094c-0.141,1.265-1.287,3.559-1.567,4.025    c-0.516,0.866-1.733,2.552-4.214,2.831c-2.294,0.259-5.219-1.941-5.219-1.941s1.661,0.375,4.001-0.351    c4.33-1.357,5.665-4.401,5.665-4.401s0.116,0-0.117-0.21c-0.982-0.89-1.193-1.24-1.639-1.942    c-0.562-0.891,0.234-2.973,0.445-3.439c0.211-0.446,0.211,0,0.211,0s0.022,1.052,1.638,1.896c0.727,0.374,1.24,0.632,2.646,0.632    V338.336L287.042,338.336z"
         id="path4159" /><path
         fill="#4B438C"
         d="M286.382,335.34c3.021,0,3.676-0.14,3.676-0.14c-0.095-0.728-1.475-2.247-1.475-2.247    c0.187-0.728,1.475-2.365,1.475-2.365s1.825,2.576,1.803,4.681c0,0-0.211,1.569-1.007,2.787c0,0-1.335,0.28-4.472,0.28V335.34    L286.382,335.34z M287.716,341.426l1.593-1.592l1.661,1.639l-1.614,1.592L287.716,341.426z"
         id="path4161" /><path
         fill="#4B438C"
         d="M304.615,338.336c-0.258,0-0.938,0.022-1.405,0.022c0,0.211-0.117,0.749-0.164,0.96    c-1.311,5.432-4.705,5.806-4.705,5.806c-4.165,0.422-6.576-1.756-6.576-1.756s0.678,0.188,2.364,0.188    c2.55,0,6.904-3.277,7.255-5.197c-0.397,0,0.047-0.046-0.421,0c-3.885,0.398-3.324-2.738-3.324-2.738    c0.211-2.06,1.335-3.416,2.225-4.003c1.31-0.865,2.691,1.403,2.691,1.403s0.562,0.984,0.796,2.342v-0.022c0,0,1.007,0,1.265,0    L304.615,338.336L304.615,338.336z M300.377,335.434c0.142,0,0.422-0.021,0.704-0.021c0-0.049-0.024-0.259-0.164-0.493    c-0.796-1.381-1.429,0.095-1.545,0.211C299.372,335.129,299.348,335.479,300.377,335.434z"
         id="path4163" /><path
         fill="#4B438C"
         d="M311.586,338.336c-2.106,0.022-3.838-0.491-4.143-2.178c0,0-0.538,1.171-1.076,1.709    c-0.305,0.281-0.796,0.446-2.458,0.469v-2.996c2.902-0.021,3.276-0.913,3.276-0.913s0.305-1.076,0.609-1.592    c0.257-0.352,0.468-0.304,0.468-0.304c0,1.615,1.076,2.809,3.323,2.809L311.586,338.336L311.586,338.336z M304.588,328.856    l1.591-1.593l1.662,1.64l-1.615,1.592L304.588,328.856z M307.959,328.926l1.591-1.592l1.662,1.639l-1.615,1.594L307.959,328.926z"
         id="path4165" /><path
         fill="#4B438C"
         d="M316.851,334.941c-0.82-2.435-3.745-3.839-3.745-3.839c-1.663-0.655-1.288-2.083-1.288-2.083    s0.468-1.825,1.077-2.106c2.949-1.404,7.865-2.621,7.865-2.621l-1.101,2.88c0,0-2.2,0.397-5.454,1.825    c0,0,4.494,1.849,4.868,6.016l-1.123,2.785c0,0-3.418,0.585-6.835,0.538v-2.996C313.878,335.34,316.851,334.941,316.851,334.941z"
         id="path4167" /><path
         fill="#4B438C"
         d="M323.684,320.897c0,0-2.458,0.327-0.727,0.912c1.662,0.585,2.458,0.164,2.88,0.142    c0.374-0.094,0.047,0.305,0.047,0.305l-0.469,0.584c0,0-0.233,0.305-0.538,0.422c-1.92,0.421-3.021,1.498-3.113,1.521    c-0.118,0.049-0.234,0.143-0.258-0.022c0-0.351,0.889-1.498,0.889-1.498c0-0.116-0.538-0.187-0.538-0.187    s-1.474-0.024-0.749-1.266c1.078-1.802,2.996-2.34,3.395-2.199c0.422,0.07,0.68,0.422,0.68,0.422l-1.147,0.959L323.684,320.897z     M324.83,324.432c0.069,2.786,0.141,4.215,0.21,5.595c0.07,1.312,0.095,3.395,0.142,5.033c0.046,1.942-1.265,3.511-1.663,3.979    c-0.117,0.141-0.117,0-0.117,0c-0.094-1.615-0.233-4.541-0.233-4.541l-0.141-6.53C322.98,325.883,324.83,324.432,324.83,324.432z"
         id="path4169" /><path
         fill="#4B438C"
         d="M333.345,340.98l9.06-16.854h3.112l-9.152,16.854H333.345z"
         id="path4171" /><path
         fill="#4B438C"
         d="M361.731,329.23c-0.023-0.492-0.023-0.703-0.233-2.036c-0.188-1.147,1.403-2.974,1.403-2.974    s0.328,1.967,1.732,2.457c0,0-1.171,1.193-0.96,2.437l0.234,5.195c0,0,0.07,3.09-0.983,4.798    c-1.615,2.599-6.625,2.739-6.625,2.739c-6.506-0.328-2.059-8.497-2.059-8.497c-1.382,3.229-0.749,5.617,2.505,5.523    s5.501-2.036,5.501-2.036C362.714,334.896,361.731,329.23,361.731,329.23z"
         id="path4173" /><path
         fill="#4B438C"
         d="M375.584,335.972c0,0-0.561,1.312-2.152,1.312c-2.458,0-2.178-2.855-2.178-2.855s-0.141-2.271,1.803-3.908    c1.662-1.403,3.815,1.147,4.12,3.861c0,0,0.28,1.193-0.328,4.003c-0.445,2.083-2.154,5.126-4.846,5.642    c-2.621,0.491-6.437-1.686-6.437-1.686s1.474,0.28,2.34,0.116C372.705,341.565,375.326,338.148,375.584,335.972z M374.063,333.515    c-0.305,0-0.609,0.421-0.609,0.607c0,0.281,0.188,0.608,0.796,0.562c0.164,0,0.375-0.211,0.491-0.374    C374.694,333.702,374.344,333.515,374.063,333.515z"
         id="path4175" /><path
         fill="#4B438C"
         d="M380.402,321.296c0,0-2.411,0.374-0.749,0.937c1.662,0.562,2.411,0.188,2.832,0.116    c0.398-0.047,0.141,0.306,0.141,0.306l-0.562,0.562c0,0-0.188,0.304-0.539,0.397c-1.872,0.443-2.949,1.451-2.996,1.521    c-0.14,0.047-0.187,0.094-0.28-0.068c0-0.282,0.89-1.451,0.89-1.451c0-0.095-0.562-0.142-0.562-0.142s-1.403-0.022-0.701-1.24    c1.054-1.802,2.996-2.247,3.346-2.199c0.375,0.094,0.656,0.421,0.656,0.421l-1.147,0.981L380.402,321.296z M388.501,325.812    c0,0-0.959,0.233-0.772,1.92c0.188,1.709-0.069,3.207-0.491,4.378c0.68,1.054,1.264,2.176,1.685,3.322    c0.164,0.423-0.538,2.949-0.538,2.949c-1.171,0.469-6.764,0.538-6.764,0.538c-0.399-0.982,0.187-3.675,0.187-3.675    c0.163,0.232,0.515,0.211,0.515,0.211c1.686-0.749,2.575-1.709,3.091-2.598c-1.358-1.78-2.996-2.996-3.348-3.231    c-0.937-0.607-1.732-0.561-1.732-0.561s-0.865,0.396-1.076-0.281c-0.211-0.656-0.235-1.732-0.117-2.457    c0.21-1.266,1.1-1.007,1.1-1.007c1.101,0.258,3.698,2.315,5.876,5.195c0.14-1.265-0.024-2.458-0.024-2.458    s0.047-0.938-0.233-1.403c-0.562-0.938,1.193-2.856,1.193-2.856C387.237,325.204,388.501,325.812,388.501,325.812z     M385.412,335.317l1.403-0.117c-0.163-0.376-0.327-0.728-0.538-1.054C385.81,334.896,385.412,335.317,385.412,335.317z"
         id="path4177" /><path
         fill="#4B438C"
         d="M393.132,324.432c0.069,2.786,0.141,4.215,0.211,5.595c0.069,1.312,0.094,3.395,0.14,5.033    c0.047,1.942-1.264,3.511-1.662,3.979c-0.117,0.141-0.117,0-0.117,0c-0.092-1.615-0.233-4.541-0.233-4.541l-0.141-6.53    C391.282,325.883,393.132,324.432,393.132,324.432z"
         id="path4179" /><path
         fill="#4B438C"
         d="M414.476,338.43c0.21,0.796,0.187,1.593,0.187,1.593s-0.023,2.293-1.124,3.417    c-1.989,2.061-7.746,2.177-7.746,2.177c-8.053,0.117-1.897-9.599-1.897-9.599c-1.825,4.051-2.036,6.063,2.2,6.251    c3.839,0.164,7.093-1.639,7.093-1.639c0-2.785-1.686-5.196-1.686-5.196c0.071-0.702,1.381-2.552,1.381-2.552    c0.491,0.913,0.938,1.85,1.171,2.529c0.305,0,0.866,0,1.872,0v2.994C415.247,338.405,415.107,338.43,414.476,338.43z     M405.697,332.766l1.593-1.593l1.661,1.641l-1.616,1.591L405.697,332.766z"
         id="path4181" /><path
         fill="#4B438C"
         d="M415.289,335.34c3.021,0,3.581-0.14,3.581-0.14c-0.093-0.728-1.193-2.247-1.193-2.247    c0.188-0.728,1.287-2.365,1.287-2.365s1.826,2.576,1.803,4.681c0,0-0.163,1.616-1.007,2.787c0,0-1.334,0.28-4.471,0.28V335.34z     M415.663,342.059l1.593-1.593l1.661,1.638l-1.614,1.594L415.663,342.059z M418.964,342.128l1.593-1.592l1.661,1.639l-1.614,1.592    L418.964,342.128z"
         id="path4183" /><path
         fill="#4B438C"
         d="M435.137,338.336c-1.381,0-1.85-0.094-1.85-0.094c-0.141,1.265-1.287,3.559-1.568,4.025    c-0.515,0.866-1.731,2.552-4.213,2.831c-2.294,0.259-5.221-1.941-5.221-1.941s1.663,0.375,4.003-0.351    c4.33-1.357,5.665-4.401,5.665-4.401s0.116,0-0.117-0.21c-0.982-0.89-1.193-1.24-1.639-1.942    c-0.562-0.891,0.233-2.973,0.444-3.439c0.211-0.446,0.211,0,0.211,0s0.022,1.052,1.639,1.896c0.726,0.374,1.239,0.632,2.646,0.632    V338.336L435.137,338.336z"
         id="path4185" /><path
         fill="#4B438C"
         d="M450.886,338.336c-0.982,0-2.552,0-3.65-0.727c0,0-0.117,0.375-0.375,0.727c0,0-3.276,0.982-3.887-1.218    c0,0-0.258,1.592-2.809,1.592c-1.708,0-1.825-1.475-1.825-1.475s-0.96,1.101-3.863,1.101v-2.996c3.138,0,4.33-0.937,4.589-1.334    c0.28-0.443,0.749-0.443,0.608-0.093c-0.281,0.749-0.233,0.981-0.233,0.981s0.115,0.608,1.217,0.608    c1.941,0,2.927-1.545,3.16-1.873c0.188-0.258,0.49-0.164,0.49-0.164s-0.14,0.608-0.14,0.727c-0.118,0.749,0.444,1.125,1.311,1.125    c0.491,0,1.266-0.096,1.266-0.096s0-0.232,0-0.608c0-0.373,0.725-1.449,0.725-1.449c0.117,1.825,1.851,2.176,3.418,2.176    L450.886,338.336L450.886,338.336z M438.995,329.114l1.592-1.592l1.662,1.638l-1.616,1.592L438.995,329.114z M440.493,326.445    l1.592-1.593l1.662,1.639l-1.616,1.592L440.493,326.445z M442.318,329.16l1.592-1.591l1.662,1.639l-1.615,1.591L442.318,329.16z"
         id="path4187" /><path
         fill="#4B438C"
         d="M450.342,335.34c3.021,0,3.581-0.14,3.581-0.14c-0.092-0.728-1.192-2.247-1.192-2.247    c0.188-0.728,1.287-2.365,1.287-2.365s1.825,2.576,1.804,4.681c0,0-0.164,1.616-1.007,2.787c0,0-1.335,0.28-4.473,0.28V335.34    L450.342,335.34z M450.717,327.943l1.592-1.593l1.662,1.639l-1.614,1.592L450.717,327.943z M454.018,328.014l1.593-1.591    l1.662,1.638l-1.615,1.593L454.018,328.014z"
         id="path4189" /></g></g><path
     fill="#4B438C"
     d="M302.879,205.017c-0.704-1.478-2.058-1.331-3.65-2.028c-2.175-0.951-3.763-2.462-5.881-2.028  c-1.365,1.475-3.196,2.482-3.853,4.664c-2.243-2.025-5.483-4.958-9.329-4.056c-0.431,2.475-2.139,3.674-2.434,6.287  c3.25,2.58,7.271,5.415,12.776,5.07c1.029-1.405,2.024-2.843,3.245-4.056c1.757,1.015,3.345,2.198,4.664,3.65  C301.298,211.513,301.916,207.278,302.879,205.017z"
     id="path4191" /></svg>