<?xml version="1.0" encoding="UTF-8" standalone="no"?>
<!-- Generator: Adobe Illustrator 16.0.0, SVG Export Plug-In . SVG Version: 6.00 Build 0)  -->

<svg
   xmlns:dc="http://purl.org/dc/elements/1.1/"
   xmlns:cc="http://creativecommons.org/ns#"
   xmlns:rdf="http://www.w3.org/1999/02/22-rdf-syntax-ns#"
   xmlns:svg="http://www.w3.org/2000/svg"
   xmlns="http://www.w3.org/2000/svg"
   xmlns:sodipodi="http://sodipodi.sourceforge.net/DTD/sodipodi-0.dtd"
   xmlns:inkscape="http://www.inkscape.org/namespaces/inkscape"
   version="1.1"
   id="_x30_2-Badawi"
   x="0px"
   y="0px"
   width="1573.961px"
   height="907.086px"
   viewBox="222.961 0 1573.961 907.086"
   enable-background="new 222.961 0 1573.961 907.086"
   xml:space="preserve"
   inkscape:version="0.48.4 r9939"
   sodipodi:docname="Area2.svg"><metadata
     id="metadata3779"><rdf:RDF><cc:Work
         rdf:about=""><dc:format>image/svg+xml</dc:format><dc:type
           rdf:resource="http://purl.org/dc/dcmitype/StillImage" /></cc:Work></rdf:RDF></metadata><defs
     id="defs3777" /><sodipodi:namedview
     pagecolor="#ffffff"
     bordercolor="#666666"
     borderopacity="1"
     objecttolerance="10"
     gridtolerance="10"
     guidetolerance="10"
     inkscape:pageopacity="0"
     inkscape:pageshadow="2"
     inkscape:window-width="640"
     inkscape:window-height="480"
     id="namedview3775"
     showgrid="false"
     inkscape:zoom="0.28500943"
     inkscape:cx="786.98053"
     inkscape:cy="453.543"
     inkscape:window-x="0"
     inkscape:window-y="27"
     inkscape:window-maximized="0"
     inkscape:current-layer="_x30_2-Badawi" /><g
     id="g3426"><path
       fill="#FFFFFF"
       d="M469.959,177.765c29.782,0,59.562,0,89.345,0c0,30.614,0,61.229,0,91.844c-29.886,0-59.771,0-89.656,0   c0-30.302,0-60.604,0-90.907C469.62,178.258,469.595,177.817,469.959,177.765z M496.512,197.758   c-3.238,3.436-4.794,4.821-7.497,8.747c-1.177,1.71-2.689,3.834-3.124,4.998c-4.11,11.018,0.499,23.496,4.062,30.303   c4.373,8.354,12.996,14.794,24.679,14.995c7.924,0.136,12.449-1.693,17.807-5.311c5.65-3.816,10.809-7.861,13.745-14.058   c7.194-15.18,0.417-33.499-6.873-42.485c-4.553-5.613-8.472-8.323-18.118-7.498C510.65,188.352,501.574,192.39,496.512,197.758z"
       id="path3428" /><path
       fill="#BD005F"
       d="M521.191,187.449c9.646-0.826,13.565,1.885,18.118,7.498c7.289,8.987,14.066,27.306,6.873,42.485   c-2.937,6.197-8.095,10.242-13.745,14.058c-5.357,3.618-9.883,5.446-17.807,5.311c-11.683-0.2-20.306-6.64-24.679-14.995   c-3.562-6.807-8.172-19.285-4.062-30.303c0.435-1.164,1.947-3.288,3.124-4.998c2.703-3.926,4.259-5.312,7.497-8.747   C501.574,192.39,510.65,188.352,521.191,187.449z M516.505,192.447c-9.641,0.688-18.842,9.401-23.429,15.307   c-3.51,4.518-5.68,10.939-4.062,18.744c0.718,3.458,2.54,9.053,4.687,12.808c1.519,2.659,5.625,8.057,7.81,9.372   c4.792,2.884,12.489,3.938,19.057,3.124c6.49-0.804,15.237-6.371,18.431-9.996c3.609-4.099,7.167-14.265,6.248-22.18   c-1.367-11.784-8.75-23.485-17.494-27.491C523.108,194.148,520.483,192.163,516.505,192.447z"
       id="path3430" /><path
       fill="#FFFFFF"
       d="M527.752,192.135c8.744,4.006,16.126,15.707,17.494,27.491c0.919,7.915-2.639,18.081-6.248,22.18   c-3.193,3.625-11.94,9.192-18.431,9.996c-6.567,0.814-14.265-0.24-19.057-3.124c-2.186-1.315-6.291-6.713-7.81-9.372   c-2.146-3.755-3.968-9.35-4.687-12.808c-1.618-7.805,0.552-14.226,4.062-18.744c4.587-5.906,13.788-14.619,23.429-15.307   C520.483,192.163,523.108,194.148,527.752,192.135z M509.945,206.192c-0.802,1.652-2.229,7.265,1.875,7.498   c1.804-0.955,0.737-3.1,1.25-4.999c1.787-1.857,3.69-3.597,7.498-3.436c6.802,11.019-2.165,16.627-7.498,24.679   c-1.363,2.059-2.062,4.251-3.749,6.873c-1.491,2.315-4.624,5.021-4.062,6.873c0.572,1.881,3.238,1.243,6.562,1.562   c4.564,0.438,14.694,3.104,13.745-3.124c-3.854-1.208-10.139,0.474-13.745-1.562c1.667-3.813,4.005-7.887,6.873-11.559   c2.71-3.47,6.101-7.158,7.498-10.934c2.019-5.457,0.013-12.531-3.124-16.869C519.249,200.165,511.892,202.18,509.945,206.192z"
       id="path3432" /><path
       fill="#BD005F"
       d="M523.066,201.194c3.137,4.338,5.143,11.412,3.124,16.869c-1.397,3.775-4.788,7.463-7.498,10.934   c-2.867,3.671-5.206,7.745-6.873,11.559c3.606,2.036,9.892,0.354,13.745,1.562c0.949,6.228-9.181,3.562-13.745,3.124   c-3.323-0.319-5.989,0.319-6.562-1.562c-0.562-1.852,2.57-4.558,4.062-6.873c1.688-2.621,2.386-4.814,3.749-6.873   c5.333-8.052,14.3-13.66,7.498-24.679c-3.807-0.161-5.71,1.579-7.498,3.436c-0.513,1.898,0.555,4.044-1.25,4.999   c-4.104-0.233-2.677-5.845-1.875-7.498C511.892,202.18,519.249,200.165,523.066,201.194z"
       id="path3434" /></g><g
     id="g3436"><path
       fill="#FFFFFF"
       d="M314.795,178.308c56.437,0,112.874,0,169.312,0c0,32.217,0,64.434,0,96.651c-56.552,0-113.104,0-169.654,0   c0-31.875,0-63.749,0-95.623C314.423,178.85,314.396,178.365,314.795,178.308z M439.208,207.783   c-1.444,6.074,1.134,16.813-1.714,22.278c-2.481,0.244-4.783,0.521-6.512-0.686c1.685-3.4-0.08-7.549-3.084-6.854   c-2.105,0.486-1.423,3.182-2.742,4.798c-1.991,2.438-4.675,2.534-7.54,2.742c-1.255-4-2.35-8.161-3.084-12.681   c-1.402-0.883-3.23-1.34-5.141-1.714c-4.503,2.466-4.485,9.453-5.827,15.081c-3.403,1.666-7.196,4.869-11.31,6.512   c-2.946,1.177-8.953,0.15-8.568,5.141c4.792,2.638,9.813-0.549,14.052-2.399c5.303-2.314,11.159-3.929,15.766-6.512   c1.095,1.075,1.805,2.536,3.084,3.427c3.623-0.604,6.011-2.443,9.254-3.427c5.241,2.821,14.572,1.919,17.822-2.056   c1.203-8.303,4.181-17.74,1.028-25.02C442.627,205.767,441.562,207.731,439.208,207.783z M450.518,212.924   c1.651,12.053,1.782,18.458,2.399,29.475c2.023-0.353,6.123-1.921,6.854-4.456c0.194-0.675-0.282-2.449-0.344-3.427   c-0.474-7.662,2.005-17.312-0.685-22.621C455.061,211.19,452.228,209.992,450.518,212.924z M349.754,230.403   c1.035,0.679,3.064,0.363,3.77,1.371c-4.787,2.664-13.479,0.596-15.766-3.428c-0.137-4.595,7.438-2.911,5.826-7.883   c-8.328-3.391-14.94,3.213-13.367,10.625c0.852,4.011,5.986,6.15,10.625,7.197c7.109,1.604,15.248,0.833,19.878-2.399   c0.895-0.625,3.739-3.713,3.77-5.141c0.093-4.216-5.413-4.088-8.568-5.827c1.6-4.186,13.535-1.058,10.625-7.54   C356.375,213.757,343.213,220.327,349.754,230.403z M392.938,229.375c0.749-3.136,2.215-5.553,1.713-9.939   c-4.861-7.417-14.921,2.682-10.967,9.254c-4.571,3.458-21.231,3.49-17.822,11.311C377.774,240.067,386.213,235.739,392.938,229.375   z M424.812,237.601c-2.062,1.382-2.256,4.958-3.085,7.883c2.476,1.41,3.731,4.038,6.513,5.141   c2.868-2.461,7.792-5.884,6.169-10.625C431.457,238.6,427.752,235.628,424.812,237.601z M336.73,246.512   c4.333,3.603,13.275,1.123,18.85,1.028c0.617-1.201,1.135-3.977,0.343-5.484C351.707,240.526,334.8,239.346,336.73,246.512z"
       id="path3438" /><path
       fill="#BD005F"
       d="M444.691,206.412c3.151,7.279,0.175,16.716-1.028,25.02c-3.25,3.976-12.581,4.877-17.822,2.056   c-3.243,0.984-5.631,2.823-9.254,3.427c-1.279-0.891-1.989-2.352-3.084-3.427c-4.607,2.583-10.463,4.198-15.766,6.512   c-4.239,1.85-9.261,5.037-14.052,2.399c-0.384-4.991,5.623-3.964,8.568-5.141c4.114-1.643,7.907-4.846,11.31-6.512   c1.342-5.627,1.323-12.615,5.827-15.081c1.911,0.374,3.739,0.831,5.141,1.714c0.734,4.521,1.83,8.681,3.084,12.681   c2.865-0.208,5.549-0.304,7.54-2.742c1.319-1.617,0.637-4.312,2.742-4.798c3.005-0.695,4.769,3.455,3.084,6.854   c1.729,1.207,4.03,0.93,6.512,0.686c2.848-5.465,0.27-16.204,1.714-22.278C441.562,207.731,442.627,205.767,444.691,206.412z"
       id="path3440" /><path
       fill="#BD005F"
       d="M458.744,211.896c2.689,5.308,0.211,14.958,0.685,22.621c0.062,0.978,0.538,2.752,0.343,3.427   c-0.731,2.535-4.831,4.103-6.854,4.456c-0.618-11.018-0.748-17.422-2.399-29.475C452.228,209.992,455.061,211.19,458.744,211.896z"
       id="path3442" /><path
       fill="#BD005F"
       d="M366.548,217.379c2.91,6.482-9.025,3.354-10.625,7.54c3.155,1.738,8.661,1.61,8.568,5.827   c-0.031,1.428-2.875,4.516-3.77,5.141c-4.63,3.232-12.77,4.003-19.878,2.399c-4.639-1.047-9.773-3.187-10.625-7.197   c-1.573-7.412,5.039-14.016,13.367-10.625c1.611,4.972-5.963,3.288-5.826,7.883c2.286,4.023,10.979,6.092,15.766,3.428   c-0.706-1.008-2.735-0.692-3.77-1.371C343.213,220.327,356.375,213.757,366.548,217.379z"
       id="path3444" /><path
       fill="#BD005F"
       d="M365.862,240c-3.409-7.82,13.251-7.853,17.822-11.311c-3.954-6.572,6.106-16.671,10.967-9.254   c0.502,4.387-0.965,6.804-1.713,9.939C386.213,235.739,377.774,240.067,365.862,240z"
       id="path3446" /><path
       fill="#BD005F"
       d="M434.409,240c1.623,4.74-3.301,8.164-6.169,10.625c-2.781-1.104-4.038-3.731-6.513-5.141   c0.829-2.925,1.024-6.5,3.085-7.883C427.752,235.628,431.457,238.6,434.409,240z"
       id="path3448" /><path
       fill="#BD005F"
       d="M355.923,242.056c0.792,1.507,0.274,4.283-0.343,5.484c-5.575,0.095-14.518,2.574-18.85-1.028   C334.8,239.346,351.707,240.526,355.923,242.056z"
       id="path3450" /></g><g
     id="_x30_2-CALENDAR"><g
       id="g3453"><path
         fill="#737996"
         d="M419.811,287.825l1.802-4.096c0.468,0.817,2.362,1.966,4.144,1.966c3.37,0,3.463-2.014,3.559-2.014    c0,0,3.558,6.251-3.862,5.502c0,0,1.193,3.463-1.007,9.034l-0.095-0.022C423.578,290.682,419.811,287.825,419.811,287.825z"
         id="path3455" /><path
         fill="#737996"
         d="M435.816,295.549l-2.996-2.996l2.996-2.996l2.996,2.996L435.816,295.549z"
         id="path3457" /><path
         fill="#737996"
         d="M444.334,298.101c0.28-5.664-3.254-10.347-3.254-10.347l1.896-4.118c0,0,5.807,7.046,1.43,14.349    L444.334,298.101z"
         id="path3459" /><path
         fill="#737996"
         d="M452.36,285.203c1.988,0,4.423,3.066,4.353,8.147c-0.094,5.334-8.613,5.709-8.496,0.35    C448.333,288.901,450.721,285.203,452.36,285.203z M450.089,292.272c0.117,1.101,3.956,1.007,4.611-0.235    c0.515-0.982-1.03-3.674-2.435-3.674C450.979,288.363,449.925,290.774,450.089,292.272z"
         id="path3461" /></g><g
       id="g3463"><path
         fill="#707173"
         d="M235.078,459.825v-15.482h4.161l2.98,10.808h0.043l3.001-10.808h4.204v15.482h-2.573v-12.18h-0.044    l-3.473,12.18h-2.253l-3.43-12.18h-0.043v12.18H235.078z"
         id="path3465" /></g><g
       id="g3467"><path
         fill="#707173"
         d="M281.931,444.321v2.486h-4.053v13.017h-2.959v-13.017h-4.053v-2.486H281.931z"
         id="path3469" /></g><g
       id="g3471"><path
         fill="#707173"
         d="M302.021,444.343h2.767l1.951,10.443h0.043l2.208-10.443h3.046l2.036,10.443h0.043l2.123-10.443h2.767    l-3.216,15.482h-3.003l-2.252-11.022h-0.042l-2.23,11.022h-3.003L302.021,444.343z"
         id="path3473" /></g><g
       id="g3475"><path
         fill="#707173"
         d="M350.181,444.321v2.486h-4.053v13.017h-2.959v-13.017h-4.053v-2.486H350.181z"
         id="path3477" /></g><g
       id="g3479"><path
         fill="#707173"
         d="M374.484,459.825v-15.482h9.864v2.487h-6.905v3.688h5.169v2.488h-5.169v6.819H374.484L374.484,459.825z"
         id="path3481" /></g><g
       id="g3483"><path
         fill="#707173"
         d="M415.33,448.46c-0.45-1.201-1.372-2.016-2.766-2.016c-1.286,0-2.208,0.516-2.208,1.716    c0,2.659,7.977,2.102,7.977,7.12c0,3.174-1.994,4.76-5.425,4.76c-2.531,0-4.91-1.416-5.79-3.666l2.444-1.072    c0.708,1.457,1.629,2.422,3.366,2.422c1.48,0,2.616-0.557,2.616-2.059c0-3.044-7.977-2.444-7.977-7.205    c0-2.766,2.315-4.331,4.996-4.331c2.488,0,4.546,1.244,5.468,3.495L415.33,448.46z"
         id="path3485" /></g><g
       id="g3487"><path
         fill="#707173"
         d="M449.455,448.46c-0.45-1.201-1.372-2.016-2.766-2.016c-1.286,0-2.208,0.516-2.208,1.716    c0,2.659,7.977,2.102,7.977,7.12c0,3.174-1.994,4.76-5.425,4.76c-2.531,0-4.91-1.416-5.79-3.666l2.443-1.072    c0.708,1.457,1.63,2.422,3.366,2.422c1.48,0,2.616-0.557,2.616-2.059c0-3.044-7.977-2.444-7.977-7.205    c0-2.766,2.314-4.331,4.995-4.331c2.488,0,4.547,1.244,5.469,3.495L449.455,448.46z"
         id="path3489" /></g><g
       id="g3491"><path
         fill="#707173"
         d="M273.17,485.174v-1.328h2.68v-12.588l-2.979,0.299v-1.006c1.071-0.322,2.294-0.645,2.979-1.072h1.544    v14.367h2.638v1.328H273.17z"
         id="path3493" /></g><g
       id="g3495"><path
         fill="#707173"
         d="M315.442,485.174h-10.056v-1.629c2.68-5.426,8.448-5.746,8.448-9.906c0-1.803-1.157-2.832-3.131-2.832    c-2.23,0-3.388,1.803-3.646,3.367l-1.522-0.342c0.493-2.145,1.759-4.355,5.21-4.355c2.532,0,4.718,1.461,4.718,4.117    c0,4.719-6.775,6.004-8.448,10.25h8.427V485.174L315.442,485.174z"
         id="path3497" /></g><g
       id="g3499"><path
         fill="#BD005F"
         d="M342.256,475.805c2.272,0,4.16-0.322,4.16-2.166c0-1.113-0.944-1.846-2.23-1.846    c-1.308,0-2.188,0.73-2.959,1.545l-1.845-1.672c1.502-1.588,3.131-2.188,4.718-2.188c2.831,0,5.104,1.371,5.104,3.988    c0,1.543-0.857,2.701-2.337,3.346c1.845,0.578,2.853,1.992,2.853,3.924c0,3.236-2.745,4.652-5.489,4.652    c-2.188,0-4.396-1.029-5.469-3.004l2.229-1.264c0.751,1.264,1.78,1.951,3.261,1.951c1.372,0,2.68-0.836,2.68-2.338    c0-2.529-2.81-2.615-4.675-2.615L342.256,475.805L342.256,475.805z"
         id="path3501" /></g><g
       id="g3503"><path
         fill="#707173"
         d="M381.699,481.53v3.645h-1.544v-3.645h-7.119v-1.33l6.39-10.506h2.273V480.2h2.658v1.33H381.699z     M374.666,480.2h5.489v-8.877h-0.064L374.666,480.2z"
         id="path3505" /></g><g
       id="g3507"><path
         fill="#707173"
         d="M417.089,471.022h-6.647l-0.386,4.953c1.008-0.922,2.079-1.266,3.174-1.266    c2.573,0,4.953,1.758,4.953,5.232c0,2.357-1.415,5.445-5.36,5.445c-2.639,0-3.968-1.459-4.933-2.959l1.394-0.729    c0.751,1.395,1.952,2.359,3.582,2.359c2.036,0,3.688-1.201,3.688-4.117c0-2.273-1.329-3.902-3.474-3.902    c-1.501,0-2.638,0.9-3.26,2.338l-1.351-0.301l0.688-8.385h7.934L417.089,471.022L417.089,471.022z"
         id="path3509" /></g><g
       id="g3511"><path
         fill="#707173"
         d="M450.784,471.688c-0.707-0.559-1.437-0.881-2.637-0.881c-2.444,0-4.718,2.018-4.762,6.477    c0.943-0.986,2.103-1.842,4.246-1.842c2.316,0,4.653,1.629,4.653,4.973c0,3.303-2.423,4.977-4.996,4.977    c-3.216,0-5.533-1.887-5.533-7.162c0-4.891,2.188-8.748,6.349-8.748c1.674,0,2.895,0.473,3.346,0.898L450.784,471.688z     M447.419,476.77c-1.888,0-3.86,1.545-3.988,3.303c0.085,2.188,1.5,3.988,3.73,3.988c2.188,0,3.495-1.502,3.495-3.604    C450.656,478.055,449.048,476.77,447.419,476.77z"
         id="path3513" /></g><g
       id="g3515"><path
         fill="#BD005F"
         d="M236.965,495.043h10.615v1.607l-6.37,13.875h-3.065l6.262-13.08h-7.441L236.965,495.043L236.965,495.043z"
         id="path3517" /></g><g
       id="g3519"><path
         fill="#707173"
         d="M276.387,510.739c-3.796,0-5.641-1.885-5.641-4.244c0-1.973,1.545-3.346,3.389-4.203v-0.043    c-1.716-0.643-2.745-1.951-2.745-3.561c0-2.529,2.145-3.859,4.997-3.859s4.995,1.33,4.995,3.859c0,1.607-1.029,2.918-2.744,3.561    v0.043c1.845,0.664,3.388,2.1,3.388,4.203C282.025,508.854,280.182,510.739,276.387,510.739z M276.387,509.411    c2.808,0,4.009-1.545,4.009-2.916c0-1.803-1.843-2.703-4.288-3.52c-1.887,0.814-3.731,1.717-3.731,3.52    C272.376,507.866,273.577,509.411,276.387,509.411z M276.387,496.159c-1.695,0-3.367,0.729-3.367,2.443    c0,1.672,2.102,2.615,3.367,2.98c1.715-0.43,3.365-1.48,3.365-2.98C279.752,496.887,278.08,496.159,276.387,496.159z"
         id="path3521" /></g><g
       id="g3523"><path
         fill="#707173"
         d="M306.759,508.53c0.707,0.559,1.436,0.881,2.637,0.881c2.445,0,4.568-2.189,4.761-6.477    c-0.943,0.986-2.101,1.844-4.245,1.844c-2.315,0-4.654-1.629-4.654-4.975c0-3.303,2.424-4.977,4.997-4.977    c3.217,0,5.532,1.887,5.532,7.164c0,4.889-2.188,8.748-6.348,8.748c-1.672,0-2.895-0.473-3.345-0.9L306.759,508.53z     M310.126,503.448c1.886,0,3.345-1.244,3.944-2.871c-0.042-2.703-1.458-4.418-3.688-4.418c-2.188,0-3.495,1.5-3.495,3.602    C306.887,502.163,308.495,503.448,310.126,503.448z"
         id="path3525" /></g><g
       id="g3527"><path
         fill="#BD005F"
         d="M334.781,510.526v-2.146h2.402V497.7h-2.745v-1.799c1.415-0.064,2.658-0.387,3.367-1.074h2.165v13.553    h2.38v2.146H334.781L334.781,510.526z"
         id="path3529" /><path
         fill="#BD005F"
         d="M351.083,494.829c4.096,0,5.64,3.516,5.64,7.955c0,4.438-1.544,7.955-5.64,7.955s-5.641-3.518-5.641-7.955    C345.442,498.344,346.987,494.829,351.083,494.829z M351.083,508.424c1.693,0,2.852-1.416,2.852-5.641s-1.158-5.641-2.852-5.641    s-2.853,1.416-2.853,5.641S349.389,508.424,351.083,508.424z"
         id="path3531" /></g><g
       id="g3533"><path
         fill="#BD005F"
         d="M368.906,510.526v-2.146h2.402V497.7h-2.745v-1.799c1.415-0.064,2.658-0.387,3.367-1.074h2.165v13.553    h2.38v2.146H368.906L368.906,510.526z"
         id="path3535" /><path
         fill="#BD005F"
         d="M381.798,510.526v-2.146h2.402V497.7h-2.745v-1.799c1.416-0.064,2.659-0.387,3.367-1.074h2.166v13.553    h2.379v2.146H381.798L381.798,510.526z"
         id="path3537" /></g><g
       id="g3539"><path
         fill="#707173"
         d="M403.225,510.526v-1.33h2.68v-12.588l-2.979,0.301v-1.008c1.071-0.322,2.294-0.645,2.979-1.072h1.545    v14.367h2.637v1.33H403.225z"
         id="path3541" /><path
         fill="#707173"
         d="M424.264,510.526h-10.056v-1.633c2.68-5.424,8.449-5.744,8.449-9.904c0-1.803-1.158-2.83-3.131-2.83    c-2.23,0-3.389,1.801-3.646,3.365l-1.521-0.344c0.492-2.145,1.758-4.354,5.21-4.354c2.531,0,4.718,1.459,4.718,4.117    c0,4.719-6.776,6.004-8.449,10.252h8.427L424.264,510.526L424.264,510.526z"
         id="path3543" /></g><g
       id="g3545"><path
         fill="#707173"
         d="M437.35,510.526v-1.33h2.681v-12.588l-2.979,0.301v-1.008c1.071-0.322,2.294-0.645,2.979-1.072h1.545    v14.367h2.637v1.33H437.35z"
         id="path3547" /><path
         fill="#707173"
         d="M448.891,506.836c1.181,1.588,2.638,2.574,4.245,2.574c2.273,0,3.646-1.158,3.646-3.002    c0-2.166-1.288-3.475-4.375-3.475h-1.522v-1.328h0.922c3.088,0,4.418-0.986,4.418-2.896c0-1.566-1.353-2.553-2.831-2.553    c-1.887,0-2.7,0.814-3.73,2.145l-1.266-0.855c1.052-1.459,2.51-2.617,4.996-2.617c2.745,0,4.46,1.416,4.46,3.859    c0,1.865-1.2,2.959-2.401,3.432c2.445,0.943,2.96,2.701,2.96,4.117c0,2.637-2.037,4.502-5.275,4.502    c-2.959,0-4.76-1.846-5.488-3.045L448.891,506.836z"
         id="path3549" /></g><g
       id="g3551"><path
         fill="#707173"
         d="M232.6,535.875v-1.33h2.68v-12.588l-2.979,0.301v-1.008c1.071-0.322,2.294-0.643,2.979-1.072h1.545v14.367    h2.637v1.33H232.6L232.6,535.875z"
         id="path3553" /><path
         fill="#707173"
         d="M251.646,532.231v3.645h-1.543v-3.645h-7.12v-1.332l6.39-10.506h2.273v10.506h2.659v1.332H251.646z     M244.612,530.899h5.49v-8.875h-0.065L244.612,530.899z"
         id="path3555" /></g><g
       id="g3557"><path
         fill="#707173"
         d="M266.725,535.875v-1.33h2.68v-12.588l-2.979,0.301v-1.008c1.071-0.322,2.294-0.643,2.979-1.072h1.545    v14.367h2.637v1.33H266.725L266.725,535.875z"
         id="path3559" /><path
         fill="#707173"
         d="M287.035,521.723h-6.647l-0.386,4.953c1.008-0.922,2.08-1.266,3.174-1.266    c2.573,0,4.954,1.758,4.954,5.232c0,2.357-1.416,5.445-5.361,5.445c-2.638,0-3.968-1.459-4.933-2.959l1.395-0.729    c0.75,1.395,1.951,2.357,3.581,2.357c2.036,0,3.688-1.201,3.688-4.117c0-2.273-1.329-3.9-3.474-3.9    c-1.502,0-2.639,0.898-3.261,2.336l-1.351-0.301l0.688-8.385h7.933V521.723z"
         id="path3561" /></g><g
       id="g3563"><path
         fill="#707173"
         d="M300.85,535.875v-1.33h2.68v-12.588l-2.979,0.301v-1.008c1.071-0.322,2.294-0.643,2.979-1.072h1.545    v14.367h2.637v1.33H300.85L300.85,535.875z"
         id="path3565" /><path
         fill="#707173"
         d="M320.731,522.387c-0.707-0.557-1.436-0.879-2.637-0.879c-2.445,0-4.718,2.016-4.761,6.477    c0.943-0.986,2.101-1.844,4.245-1.844c2.316,0,4.654,1.629,4.654,4.975c0,3.301-2.424,4.975-4.997,4.975    c-3.216,0-5.532-1.887-5.532-7.162c0-4.889,2.187-8.748,6.348-8.748c1.673,0,2.895,0.473,3.345,0.9L320.731,522.387z     M317.366,527.469c-1.889,0-3.861,1.545-3.989,3.303c0.085,2.188,1.501,3.988,3.731,3.988c2.188,0,3.495-1.502,3.495-3.604    C320.604,528.756,318.994,527.469,317.366,527.469z"
         id="path3567" /></g><g
       id="g3569"><path
         fill="#707173"
         d="M334.975,535.875v-1.33h2.68v-12.588l-2.979,0.301v-1.008c1.071-0.322,2.294-0.643,2.979-1.072h1.545    v14.367h2.637v1.33H334.975L334.975,535.875z"
         id="path3571" /><path
         fill="#707173"
         d="M346.13,521.723v-1.328h9.82v0.941l-6.54,14.539h-1.802l6.369-14.152H346.13L346.13,521.723z"
         id="path3573" /></g><g
       id="g3575"><path
         fill="#707173"
         d="M369.1,535.875v-1.33h2.68v-12.588l-2.979,0.301v-1.008c1.071-0.322,2.294-0.643,2.979-1.072h1.545v14.367    h2.637v1.33H369.1L369.1,535.875z"
         id="path3577" /><path
         fill="#707173"
         d="M385.208,536.09c-3.796,0-5.641-1.887-5.641-4.246c0-1.973,1.545-3.346,3.389-4.203v-0.043    c-1.715-0.643-2.745-1.951-2.745-3.561c0-2.529,2.145-3.859,4.997-3.859s4.996,1.33,4.996,3.859c0,1.609-1.03,2.918-2.745,3.561    v0.043c1.845,0.664,3.389,2.102,3.389,4.203C390.848,534.204,389.003,536.09,385.208,536.09z M385.208,534.76    c2.809,0,4.01-1.543,4.01-2.916c0-1.801-1.844-2.703-4.289-3.518c-1.887,0.814-3.73,1.717-3.73,3.518    C381.198,533.217,382.398,534.76,385.208,534.76z M385.208,521.508c-1.694,0-3.366,0.729-3.366,2.445    c0,1.672,2.101,2.615,3.366,2.979c1.716-0.428,3.366-1.479,3.366-2.979C388.574,522.237,386.901,521.508,385.208,521.508z"
         id="path3579" /></g><g
       id="g3581"><path
         fill="#707173"
         d="M403.225,535.875v-1.33h2.68v-12.588l-2.979,0.301v-1.008c1.071-0.322,2.294-0.643,2.979-1.072h1.545    v14.367h2.637v1.33H403.225L403.225,535.875z"
         id="path3583" /><path
         fill="#707173"
         d="M415.58,533.881c0.708,0.557,1.437,0.879,2.638,0.879c2.444,0,4.567-2.188,4.761-6.477    c-0.942,0.986-2.102,1.844-4.246,1.844c-2.315,0-4.653-1.629-4.653-4.973c0-3.305,2.423-4.977,4.996-4.977    c3.218,0,5.533,1.887,5.533,7.162c0,4.891-2.188,8.748-6.349,8.748c-1.672,0-2.895-0.473-3.346-0.898L415.58,533.881z     M418.947,528.799c1.887,0,3.346-1.244,3.944-2.873c-0.042-2.701-1.457-4.418-3.688-4.418c-2.188,0-3.495,1.502-3.495,3.604    C415.709,527.512,417.317,528.799,418.947,528.799z"
         id="path3585" /></g><g
       id="g3587"><path
         fill="#707173"
         d="M445.497,535.875h-10.056v-1.631c2.68-5.424,8.447-5.746,8.447-9.906c0-1.801-1.156-2.83-3.131-2.83    c-2.229,0-3.388,1.801-3.646,3.367l-1.522-0.344c0.494-2.145,1.759-4.354,5.21-4.354c2.531,0,4.718,1.459,4.718,4.117    c0,4.717-6.774,6.002-8.447,10.25h8.427V535.875L445.497,535.875z"
         id="path3589" /><path
         fill="#707173"
         d="M453.458,520.178c3.366,0,5.468,2.359,5.468,7.955c0,5.598-2.102,7.957-5.468,7.957    s-5.468-2.359-5.468-7.957C447.99,522.538,450.092,520.178,453.458,520.178z M453.458,534.76c2.509,0,3.838-1.93,3.838-6.627    c0-4.695-1.329-6.625-3.838-6.625c-2.51,0-3.839,1.93-3.839,6.625C449.619,532.831,450.948,534.76,453.458,534.76z"
         id="path3591" /></g><g
       id="g3593"><path
         fill="#707173"
         d="M240.747,561.225h-10.056v-1.631c2.68-5.424,8.448-5.746,8.448-9.904c0-1.803-1.157-2.832-3.131-2.832    c-2.23,0-3.388,1.803-3.646,3.367l-1.522-0.344c0.494-2.145,1.759-4.354,5.21-4.354c2.531,0,4.718,1.459,4.718,4.117    c0,4.719-6.775,6.004-8.448,10.25h8.427V561.225L240.747,561.225z"
         id="path3595" /><path
         fill="#707173"
         d="M245.491,561.225v-1.328h2.68v-12.588l-2.979,0.301v-1.008c1.071-0.322,2.294-0.645,2.979-1.072h1.544    v14.367h2.639v1.328H245.491z"
         id="path3597" /></g><g
       id="g3599"><path
         fill="#707173"
         d="M274.872,561.225h-10.056v-1.631c2.68-5.424,8.448-5.746,8.448-9.904c0-1.803-1.157-2.832-3.131-2.832    c-2.23,0-3.388,1.803-3.646,3.367l-1.522-0.344c0.494-2.145,1.759-4.354,5.21-4.354c2.531,0,4.718,1.459,4.718,4.117    c0,4.719-6.775,6.004-8.448,10.25h8.427V561.225L274.872,561.225z"
         id="path3601" /><path
         fill="#707173"
         d="M287.764,561.225h-10.056v-1.631c2.68-5.424,8.449-5.746,8.449-9.904c0-1.803-1.158-2.832-3.131-2.832    c-2.23,0-3.389,1.803-3.646,3.367l-1.521-0.344c0.492-2.145,1.758-4.354,5.21-4.354c2.531,0,4.718,1.459,4.718,4.117    c0,4.719-6.776,6.004-8.449,10.25h8.427L287.764,561.225L287.764,561.225z"
         id="path3603" /></g><g
       id="g3605"><path
         fill="#707173"
         d="M308.997,561.225h-10.056v-1.631c2.68-5.424,8.448-5.746,8.448-9.904c0-1.803-1.157-2.832-3.131-2.832    c-2.23,0-3.388,1.803-3.646,3.367l-1.522-0.344c0.494-2.145,1.759-4.354,5.21-4.354c2.531,0,4.718,1.459,4.718,4.117    c0,4.719-6.775,6.004-8.448,10.25h8.427V561.225L308.997,561.225z"
         id="path3607" /><path
         fill="#707173"
         d="M312.391,557.538c1.18,1.586,2.637,2.572,4.245,2.572c2.273,0,3.646-1.158,3.646-3.002    c0-2.166-1.288-3.475-4.375-3.475h-1.522v-1.328h0.922c3.088,0,4.418-0.986,4.418-2.896c0-1.564-1.353-2.551-2.831-2.551    c-1.887,0-2.701,0.814-3.731,2.145l-1.266-0.855c1.052-1.459,2.51-2.617,4.997-2.617c2.745,0,4.46,1.416,4.46,3.857    c0,1.867-1.201,2.961-2.402,3.434c2.445,0.941,2.96,2.701,2.96,4.117c0,2.637-2.037,4.502-5.275,4.502    c-2.959,0-4.76-1.846-5.489-3.047L312.391,557.538z"
         id="path3609" /></g><g
       id="g3611"><path
         fill="#707173"
         d="M343.122,561.225h-10.056v-1.631c2.68-5.424,8.448-5.746,8.448-9.904c0-1.803-1.157-2.832-3.131-2.832    c-2.23,0-3.388,1.803-3.646,3.367l-1.522-0.344c0.494-2.145,1.759-4.354,5.21-4.354c2.531,0,4.718,1.459,4.718,4.117    c0,4.719-6.775,6.004-8.448,10.25h8.427V561.225L343.122,561.225z"
         id="path3613" /><path
         fill="#707173"
         d="M354.021,557.581v3.645h-1.543v-3.645h-7.12v-1.33l6.39-10.508h2.273v10.508h2.659v1.33H354.021z     M346.987,556.25h5.49v-8.877h-0.065L346.987,556.25z"
         id="path3615" /></g><g
       id="g3617"><path
         fill="#707173"
         d="M377.247,561.225h-10.056v-1.631c2.68-5.424,8.448-5.746,8.448-9.904c0-1.803-1.157-2.832-3.131-2.832    c-2.23,0-3.388,1.803-3.646,3.367l-1.522-0.344c0.494-2.145,1.759-4.354,5.21-4.354c2.531,0,4.718,1.459,4.718,4.117    c0,4.719-6.775,6.004-8.448,10.25h8.427V561.225L377.247,561.225z"
         id="path3619" /><path
         fill="#707173"
         d="M389.41,547.073h-6.647l-0.386,4.953c1.008-0.922,2.08-1.266,3.174-1.266c2.573,0,4.954,1.758,4.954,5.232    c0,2.357-1.416,5.445-5.361,5.445c-2.638,0-3.968-1.459-4.933-2.959l1.395-0.729c0.75,1.393,1.951,2.357,3.581,2.357    c2.036,0,3.688-1.201,3.688-4.117c0-2.273-1.329-3.902-3.474-3.902c-1.502,0-2.639,0.9-3.261,2.338l-1.351-0.301l0.688-8.385    h7.933V547.073z"
         id="path3621" /></g><g
       id="g3623"><path
         fill="#707173"
         d="M411.372,561.225h-10.056v-1.631c2.68-5.424,8.448-5.746,8.448-9.904c0-1.803-1.157-2.832-3.131-2.832    c-2.23,0-3.388,1.803-3.646,3.367l-1.522-0.344c0.494-2.145,1.759-4.354,5.21-4.354c2.531,0,4.718,1.459,4.718,4.117    c0,4.719-6.775,6.004-8.448,10.25h8.427V561.225L411.372,561.225z"
         id="path3625" /><path
         fill="#707173"
         d="M423.106,547.737c-0.707-0.557-1.437-0.879-2.638-0.879c-2.445,0-4.718,2.016-4.761,6.477    c0.943-0.986,2.101-1.844,4.245-1.844c2.315,0,4.654,1.629,4.654,4.973c0,3.303-2.425,4.977-4.998,4.977    c-3.216,0-5.532-1.887-5.532-7.162c0-4.891,2.187-8.748,6.348-8.748c1.673,0,2.896,0.473,3.345,0.898L423.106,547.737z     M419.741,552.819c-1.889,0-3.861,1.545-3.989,3.303c0.085,2.188,1.501,3.988,3.731,3.988c2.188,0,3.495-1.502,3.495-3.604    C422.979,554.106,421.369,552.819,419.741,552.819z"
         id="path3627" /></g><g
       id="g3629"><path
         fill="#707173"
         d="M445.497,561.225h-10.056v-1.631c2.68-5.424,8.447-5.746,8.447-9.904c0-1.803-1.156-2.832-3.131-2.832    c-2.229,0-3.388,1.803-3.646,3.367l-1.522-0.344c0.494-2.145,1.759-4.354,5.21-4.354c2.531,0,4.718,1.459,4.718,4.117    c0,4.719-6.774,6.004-8.447,10.25h8.427V561.225L445.497,561.225z"
         id="path3631" /><path
         fill="#707173"
         d="M448.505,547.073v-1.33h9.82v0.943l-6.54,14.537h-1.802l6.368-14.15H448.505L448.505,547.073z"
         id="path3633" /></g><g
       id="g3635"><path
         fill="#707173"
         d="M240.747,586.575h-10.056v-1.629c2.68-5.426,8.448-5.746,8.448-9.906c0-1.803-1.157-2.832-3.131-2.832    c-2.23,0-3.388,1.801-3.646,3.367l-1.522-0.344c0.494-2.145,1.759-4.354,5.21-4.354c2.531,0,4.718,1.459,4.718,4.117    c0,4.717-6.775,6.004-8.448,10.25h8.427V586.575L240.747,586.575z"
         id="path3637" /><path
         fill="#707173"
         d="M248.708,586.79c-3.796,0-5.641-1.887-5.641-4.246c0-1.973,1.545-3.344,3.389-4.203v-0.043    c-1.715-0.643-2.745-1.951-2.745-3.559c0-2.531,2.145-3.859,4.997-3.859s4.996,1.328,4.996,3.859c0,1.607-1.03,2.916-2.745,3.559    v0.043c1.845,0.666,3.389,2.104,3.389,4.203C254.348,584.903,252.503,586.79,248.708,586.79z M248.708,585.459    c2.809,0,4.01-1.543,4.01-2.916c0-1.801-1.844-2.701-4.289-3.518c-1.887,0.814-3.73,1.717-3.73,3.518    C244.698,583.917,245.898,585.459,248.708,585.459z M248.708,572.208c-1.694,0-3.366,0.73-3.366,2.445    c0,1.672,2.101,2.615,3.366,2.98c1.716-0.43,3.366-1.48,3.366-2.98C252.074,572.938,250.401,572.208,248.708,572.208z"
         id="path3639" /></g><g
       id="g3641"><path
         fill="#707173"
         d="M274.872,586.575h-10.056v-1.629c2.68-5.426,8.448-5.746,8.448-9.906c0-1.803-1.157-2.832-3.131-2.832    c-2.23,0-3.388,1.801-3.646,3.367l-1.522-0.344c0.494-2.145,1.759-4.354,5.21-4.354c2.531,0,4.718,1.459,4.718,4.117    c0,4.717-6.775,6.004-8.448,10.25h8.427V586.575L274.872,586.575z"
         id="path3643" /><path
         fill="#707173"
         d="M279.08,584.581c0.708,0.557,1.437,0.879,2.638,0.879c2.444,0,4.567-2.186,4.761-6.475    c-0.943,0.984-2.102,1.844-4.246,1.844c-2.315,0-4.653-1.629-4.653-4.975c0-3.303,2.423-4.977,4.996-4.977    c3.218,0,5.533,1.887,5.533,7.162c0,4.891-2.188,8.75-6.348,8.75c-1.672,0-2.895-0.473-3.346-0.9L279.08,584.581z     M282.447,579.499c1.887,0,3.346-1.244,3.944-2.873c-0.042-2.701-1.457-4.418-3.688-4.418c-2.188,0-3.495,1.502-3.495,3.604    C279.209,578.213,280.817,579.499,282.447,579.499z"
         id="path3645" /></g><g
       id="g3647"><path
         fill="#707173"
         d="M299.498,582.887c1.18,1.586,2.637,2.572,4.246,2.572c2.273,0,3.646-1.156,3.646-3.002    c0-2.166-1.287-3.473-4.375-3.473h-1.521v-1.33h0.921c3.088,0,4.418-0.986,4.418-2.896c0-1.564-1.352-2.551-2.831-2.551    c-1.886,0-2.701,0.814-3.73,2.143l-1.266-0.855c1.051-1.459,2.51-2.615,4.996-2.615c2.745,0,4.46,1.414,4.46,3.859    c0,1.865-1.2,2.959-2.401,3.432c2.445,0.941,2.959,2.701,2.959,4.115c0,2.639-2.036,4.504-5.274,4.504    c-2.96,0-4.76-1.844-5.49-3.045L299.498,582.887z"
         id="path3649" /><path
         fill="#707173"
         d="M316.958,570.879c3.366,0,5.468,2.357,5.468,7.953c0,5.598-2.102,7.957-5.468,7.957    s-5.468-2.359-5.468-7.957C311.49,573.237,313.592,570.879,316.958,570.879z M316.958,585.459c2.509,0,3.838-1.93,3.838-6.627    c0-4.695-1.329-6.625-3.838-6.625c-2.51,0-3.839,1.93-3.839,6.625C313.119,583.53,314.448,585.459,316.958,585.459z"
         id="path3651" /></g><g
       id="g3653"><path
         fill="#707173"
         d="M241.289,388.283c-0.749,0.305-1.615,0.117-1.615,0.117s-2.574-0.117-3.979-1.218    c-1.965-1.546-2.082-7.489-2.082-7.489c-0.118-8.052,9.479-1.825,9.479-1.825c-4.05-1.826-6.812-2.131-6.812,2.104    c0,3.889,1.545,7,1.545,7c3.442,0.141,6.017-1.567,6.017-1.567c0.702,0.069,2.294,1.192,2.294,1.192    c-0.914,0.492-1.85,0.938-2.528,1.17c0,0.306,0,0.866,0,1.874h-2.317C241.289,388.961,241.289,388.915,241.289,388.283z     M246.415,378.195l1.382,1.427l-1.382,1.382l-1.381-1.382L246.415,378.195z"
         id="path3655" /><path
         fill="#707173"
         d="M237.286,390.127l1.382,1.429l-1.382,1.382l-1.381-1.382L237.286,390.127z M237.286,392.938l1.382,1.428    l-1.382,1.381l-1.381-1.381L237.286,392.938z M241.289,396.822c-0.022-2.107,0.491-3.839,2.178-4.145c0,0-1.171-0.539-1.709-1.077    c-0.282-0.305-0.446-0.795-0.469-2.458h2.317c0.023,2.902,0.912,3.278,0.912,3.278s1.078,0.305,1.592,0.609    c0.353,0.257,0.142,0.257,0.142,0.257c-1.615,0-2.646,1.287-2.646,3.534L241.289,396.822L241.289,396.822z"
         id="path3657" /><path
         fill="#707173"
         d="M241.289,404.17c-0.022-2.106,0.491-3.839,2.178-4.144c0,0-1.171-0.538-1.709-1.076    c-0.282-0.306-0.446-0.795-0.469-2.458h2.317c0.023,2.901,0.912,3.276,0.912,3.276s1.078,0.306,1.592,0.609    c0.353,0.257,0.142,0.257,0.142,0.257c-1.615,0-2.646,1.287-2.646,3.534L241.289,404.17L241.289,404.17z M250.558,398.739    l1.382,1.43l-1.382,1.378l-1.381-1.378L250.558,398.739z"
         id="path3659" /><path
         fill="#707173"
         d="M243.606,403.675c0,3.021,0.141,3.512,0.141,3.512c0.749,0.117,2.505-1.544,2.505-1.544    c0.233-0.07,2.294,0.936,2.294,0.936s-2.2,2.201-4.752,2.036c0,0-1.404-0.141-2.247-0.725c0,0-0.258-1.079-0.258-4.215H243.606z     M251.798,403.979l1.382,1.428l-1.382,1.382l-1.38-1.382L251.798,403.979z M251.822,406.788l1.382,1.43l-1.382,1.381l-1.381-1.381    L251.822,406.788z M253.905,405.384l1.382,1.427l-1.382,1.383l-1.381-1.383L253.905,405.384z"
         id="path3661" /><path
         fill="#707173"
         d="M238.809,412.452c0,0-0.305-2.013-0.773-0.632c-0.468,1.381-0.14,2.011-0.094,2.363    c0.047,0.327-0.257,0.116-0.257,0.116l-0.468-0.47c0,0-0.258-0.162-0.328-0.444c-0.352-1.565-1.217-2.458-1.265-2.503    c-0.047-0.117-0.094-0.165,0.048-0.233c0.233,0,1.217,0.749,1.217,0.749c0.07,0,0.117-0.471,0.117-0.471s0.022-1.17,1.029-0.584    c1.498,0.89,1.873,2.481,1.826,2.786c-0.07,0.305-0.351,0.538-0.351,0.538l-0.82-0.96L238.809,412.452z M253.742,419.872    c0,0-0.633-0.772-1.498-0.704c-2.2,0.188-3.956-0.162-5.314-0.7c-1.498,0.843-2.809,1.381-3.58,1.498    c-0.445,0.068-2.247-0.351-2.247-0.351c-0.469-1.171-0.398-5.924-0.398-5.924c0.982-0.398,2.973,0,2.973,0    c-0.234,0.164-0.21,0.516-0.21,0.516c1.193,1.404,2.13,2.247,2.901,2.763c2.153-1.311,3.301-2.575,3.582-2.928    c1.099-1.355,0.89-1.473,0.89-1.473s-0.398-0.866,0.28-1.076c0.655-0.211,1.451-0.399,2.176-0.282    c1.265,0.211,1.007,1.1,1.007,1.1c-1.567,2.153-3.932,4.051-6.108,5.432c1.498,0.328,3.44,0.022,3.44,0.022    s0.843-0.14,1.358-0.422c1.123-0.632,2.363,1.125,2.363,1.125C253.671,418.655,253.742,419.872,253.742,419.872z M243.419,415.938    l0.164,2.437c0.608-0.257,1.171-0.516,1.662-0.772C244.005,416.781,243.419,415.938,243.419,415.938z"
         id="path3663" /><path
         fill="#707173"
         d="M255.287,424.011c-2.785,0.07-4.19,0.235-5.572,0.306c-1.31,0.069-3.838,0.188-5.477,0.232    c-2.387,0.071-3.44-0.724-3.909-1.122c-0.141-0.117,0-0.117,0-0.117c1.615-0.094,4.799-0.397,4.799-0.397l6.718-0.373    C253.929,422.421,255.287,424.011,255.287,424.011z"
         id="path3665" /></g><g
       id="g3667"><path
         fill="#707173"
         d="M279.04,379.765c0,0-0.469-3.815-1.382-1.192c-0.937,2.644-0.327,3.861-0.21,4.517    c0.047,0.607-0.491,0.234-0.491,0.234l-0.913-0.89c0,0-0.491-0.354-0.633-0.892c-0.726-2.971-2.316-4.68-2.41-4.796    c-0.142-0.211-0.188-0.33,0.094-0.376c0.374,0,2.316,1.404,2.316,1.404c0.164,0,0.234-0.912,0.234-0.912s0.023-2.295,2.013-1.103    c2.786,1.663,3.535,4.683,3.465,5.291c-0.164,0.633-0.703,1.028-0.703,1.028l-1.544-1.8L279.04,379.765z"
         id="path3669" /><path
         fill="#707173"
         d="M274.99,390.106c0,0-0.211-4.167,2.996-4.262l9.269-0.257c0.491-0.021,1.687,1.336,1.687,1.336    c-0.913,0-6.555,0.141-9.574,0.141c-2.271,0-2.061,3.042-2.061,3.042H274.99L274.99,390.106z"
         id="path3671" /><path
         fill="#707173"
         d="M277.307,389.497c0,3.019,0.142,3.509,0.142,3.509c0.749,0.119,2.505-1.544,2.505-1.544    c0.233-0.071,2.294,0.938,2.294,0.938s-2.2,2.197-4.752,2.035c0,0-1.404-0.14-2.247-0.727c0,0-0.258-1.076-0.258-4.212H277.307z     M285.499,389.802l1.382,1.427l-1.382,1.382l-1.38-1.382L285.499,389.802z M285.523,392.609l1.381,1.428l-1.381,1.381    l-1.381-1.381L285.523,392.609z M287.606,391.206l1.382,1.427l-1.382,1.381l-1.381-1.381L287.606,391.206z"
         id="path3673" /><path
         fill="#707173"
         d="M274.99,409.015c0,0-0.258-3.042,2.832-3.204c3.02-0.164,4.564-0.211,4.564-0.211s-8.356-1.03-7.841-7.327    l0.211-2.574c1.614,7.841,8.894,9.271,8.894,9.271c3.02,0.467,4.214,0,4.892,0.303c0.702,0.47,0.68,0.937-0.491,1.008    c0,0-4.845,0.489-8.146,0.516c-2.832,0.022-2.599,2.222-2.599,2.222h-2.316V409.015z M284.376,398.811    c0,0-0.233-1.803,1.616-2.177c1.638-0.327,2.574-0.47,1.872,0.795c-0.679,1.547-2.341,2.975-4.144,3.862    c-2.622,1.287-5.781,0.211-5.781,0.211S282.34,401.572,284.376,398.811z"
         id="path3675" /><path
         fill="#707173"
         d="M274.99,416.337c-0.023-2.104,0.491-3.836,2.177-4.141c0,0-1.17-0.538-1.708-1.077    c-0.282-0.305-0.446-0.797-0.469-2.457h2.316c0.024,2.901,0.913,3.275,0.913,3.275s1.078,0.305,1.592,0.608    c0.352,0.256,0.142,0.256,0.142,0.256c-1.615,0-2.646,1.287-2.646,3.534L274.99,416.337L274.99,416.337z M283.838,409.505    l1.381,1.427l-1.381,1.382l-1.381-1.382L283.838,409.505z M283.838,412.312l1.381,1.428l-1.381,1.381l-1.381-1.381    L283.838,412.312z M286.295,410.909l1.382,1.427l-1.382,1.381l-1.381-1.381L286.295,410.909z"
         id="path3677" /><path
         fill="#707173"
         d="M277.471,418.044c0.749,0.188,7.187-0.374,7.187-0.374c0.491-0.021,0.749-0.07,1.428-0.353    c1.17-0.49,2.785,1.079,2.785,1.079s-1.731,0.092-2.176,1.521c0,0-0.469-0.843-1.733-0.771c-0.866,0.046-5.219,0.208-6.296,0.161    c-1.217-0.045-2.435,0-3.464-0.771c0,0-0.188-1.381-0.188-2.552h2.294C277.307,417.411,277.471,418.044,277.471,418.044z"
         id="path3679" /><path
         fill="#707173"
         d="M288.988,424.011c-2.786,0.07-4.191,0.235-5.572,0.306c-1.311,0.069-3.838,0.188-5.477,0.232    c-2.387,0.071-3.44-0.724-3.909-1.122c-0.141-0.117,0-0.117,0-0.117c1.615-0.094,4.799-0.397,4.799-0.397l6.717-0.373    C287.63,422.421,288.988,424.011,288.988,424.011z"
         id="path3681" /></g><g
       id="g3683"><path
         fill="#707173"
         d="M312.741,376.185c0,0-0.469-3.815-1.382-1.192c-0.937,2.644-0.327,3.861-0.211,4.517    c0.048,0.607-0.491,0.234-0.491,0.234l-0.912-0.89c0,0-0.491-0.354-0.633-0.892c-0.726-2.971-2.316-4.68-2.41-4.796    c-0.142-0.211-0.188-0.33,0.094-0.376c0.374,0,2.316,1.404,2.316,1.404c0.164,0,0.233-0.912,0.233-0.912s0.024-2.295,2.014-1.103    c2.785,1.663,3.534,4.683,3.465,5.291c-0.164,0.633-0.703,1.028-0.703,1.028l-1.544-1.8L312.741,376.185z"
         id="path3685" /><path
         fill="#707173"
         d="M308.691,386.526c0,0-0.211-4.167,2.996-4.262l9.269-0.257c0.491-0.021,1.686,1.336,1.686,1.336    c-0.912,0-6.555,0.141-9.573,0.141c-2.271,0-2.061,3.042-2.061,3.042H308.691L308.691,386.526z"
         id="path3687" /><path
         fill="#707173"
         d="M308.691,394.296c0-1.265,0.352-2.763,1.381-3.558c0,0-1.381-1.498-1.381-4.848h2.316    c-0.022,3.256,0.702,3.653,0.702,3.653c0.913-0.327,0.68-2.155,0.68-2.155s2.574,0.025,2.574,2.436    c0,2.88-1.989,2.855-1.989,2.855l-1.265-0.797c-0.585,0.563-0.702,1.147-0.702,2.412L308.691,394.296L308.691,394.296z"
         id="path3689" /><path
         fill="#707173"
         d="M305.298,394.715l1.38,1.43l-1.38,1.379l-1.382-1.379L305.298,394.715z M311.008,393.803    c0,3.021,0.141,3.511,0.141,3.511c0.749,0.118,2.505-1.545,2.505-1.545c0.234-0.07,2.294,0.938,2.294,0.938    s-2.199,2.199-4.751,2.036c0,0-1.404-0.141-2.247-0.727c0,0-0.258-1.076-0.258-4.213H311.008z"
         id="path3691" /><path
         fill="#707173"
         d="M310.399,409.015c-1.942,0.046-5.664-1.521-6.202-4.282c-0.491-2.507,1.17-4.938,1.17-4.938    c-0.516,1.849,0.397,3.626,0.655,4.212c0.491,1.101,3.021,4.238,4.12,4.05c1.054-0.188,1.896-1.568,2.224-1.896    c0.233-0.233,2.669,0.727,2.669,0.727C313.513,409.015,311.196,408.992,310.399,409.015z"
         id="path3693" /><path
         fill="#707173"
         d="M321.144,419.638c0,0-0.632-0.771-1.498-0.703c-2.2,0.188-3.955-0.161-5.313-0.699    c-1.498,0.843-2.809,1.381-3.58,1.498c-0.446,0.067-2.247-0.352-2.247-0.352c-0.469-1.171-0.399-5.924-0.399-5.924    c0.983-0.398,2.974,0,2.974,0c-0.235,0.165-0.211,0.516-0.211,0.516c1.193,1.404,2.131,2.247,2.902,2.764    c2.153-1.312,3.301-2.575,3.581-2.929c1.1-1.355,0.891-1.473,0.891-1.473s-0.399-0.866,0.28-1.077    c0.655-0.21,1.451-0.397,2.176-0.281c1.265,0.211,1.007,1.101,1.007,1.101c-1.568,2.151-3.932,4.05-6.109,5.431    c1.498,0.327,3.44,0.022,3.44,0.022s0.844-0.141,1.358-0.421c1.124-0.634,2.364,1.125,2.364,1.125    C321.073,418.422,321.144,419.638,321.144,419.638z M310.821,415.705l0.164,2.435c0.607-0.256,1.17-0.515,1.661-0.771    C311.406,416.548,310.821,415.705,310.821,415.705z M325.544,411.681c0,0-0.374-2.412-0.937-0.749    c-0.562,1.66-0.187,2.409-0.117,2.831c0.047,0.398-0.304,0.141-0.304,0.141l-0.562-0.562c0,0-0.305-0.188-0.397-0.538    c-0.446-1.871-1.451-2.95-1.522-2.996c-0.047-0.14-0.094-0.188,0.071-0.28c0.28,0,1.451,0.891,1.451,0.891    c0.093,0,0.14-0.563,0.14-0.563s0.023-1.403,1.24-0.7c1.803,1.054,2.247,2.996,2.201,3.347c-0.094,0.376-0.422,0.655-0.422,0.655    l-0.983-1.146L325.544,411.681z"
         id="path3695" /><path
         fill="#707173"
         d="M322.688,424.011c-2.785,0.07-4.19,0.235-5.571,0.306c-1.311,0.069-3.838,0.188-5.477,0.232    c-2.387,0.071-3.44-0.724-3.909-1.122c-0.141-0.117,0-0.117,0-0.117c1.614-0.094,4.799-0.397,4.799-0.397l6.717-0.373    C321.33,422.421,322.688,424.011,322.688,424.011z"
         id="path3697" /></g><g
       id="g3699"><path
         fill="#707173"
         d="M344.899,375.461c-0.727,2.061,0.28,2.691,1.193,3.02c0.655,0.233-0.258,0.422-0.258,0.422    s-0.678-0.233-0.889-0.071c-0.234,0.071-0.516,0.47-0.516,1.125c0,0.516,0.281,0.678,0.281,0.678s0-0.162,0.679,0    c0.562,0.141,1.334,0.798,1.334,0.798h-0.89c-1.123,0.141-1.123,1.333-1.123,2.668h-2.317c-0.022-0.656,0-2.527,0.913-3.138    c0,0-0.913-0.49-0.913-1.45c0-1.102,0.444-1.403,0.444-1.641c0,0-1.029-0.934-0.211-1.848c-1.169,0.21-1.614,0.21-1.614,0.21    s-2.317-0.022-3.651-0.89c-2.083-1.357-2.061-5.385-2.061-5.385c-0.14-6.53,8.239-1.709,8.239-1.709s-5.852-2.785-5.71,1.92    c0.116,3.815,1.801,4.964,1.801,4.964c2.061-0.143,5.314-1.615,5.314-1.615c0.444,0.068,1.778,1.287,1.778,1.287    C346.07,375.11,345.344,375.321,344.899,375.461z"
         id="path3701" /><path
         fill="#707173"
         d="M338.392,384.63l1.382,1.429l-1.382,1.383l-1.381-1.383L338.392,384.63z M338.392,387.44l1.382,1.427    l-1.382,1.381l-1.381-1.381L338.392,387.44z M342.395,391.325c-0.022-2.107,0.491-3.839,2.178-4.145c0,0-1.171-0.539-1.709-1.077    c-0.282-0.305-0.446-0.795-0.469-2.457h2.317c0.023,2.901,0.912,3.277,0.912,3.277s1.078,0.305,1.592,0.609    c0.353,0.257,0.142,0.257,0.142,0.257c-1.615,0-2.646,1.287-2.646,3.534L342.395,391.325L342.395,391.325z"
         id="path3703" /><path
         fill="#707173"
         d="M342.395,401.761c0-1.776,0.258-2.669,0.796-3.229l-1.522-0.633c2.202-2.436,2.061-3.745,2.061-3.745    s-1.193-0.727-1.334-2.082c0,0,0-0.727,0-1.266h2.317c-0.07,2.951,1.101,3.253,1.101,3.253c2.949,1.055,2.597,4.283,2.597,4.283    c-2.27-0.655-3.721,0.633-3.697,3.418H342.395L342.395,401.761z M344.664,397.432c0.797-0.443,1.873,0,1.873,0    c0-1.076-1.193-1.779-1.193-1.779C345.344,396.659,344.664,397.432,344.664,397.432z"
         id="path3705" /><path
         fill="#707173"
         d="M347.731,405.879c-0.071-0.655-0.234-1.193-0.656-1.73c-0.842-1.104,0.516-0.563,0.516-0.563    s2.621,0.891,2.574,2.856c-0.069,2.506-1.474,4.425-1.872,6.226c-0.515,2.318-0.328,3.138-0.328,3.138l-2.621-0.749    c0,0,0-1.546-0.094-2.271c-0.631-0.045-0.538,3.7-0.538,3.7h-2.317c-0.047-5.5,2.763-4.119,2.738-4.167    c-0.211-0.82-0.678-1.45-1.123-2.504c-1.077-2.507-1.662-4.986-1.615-8.614h2.317c0.047,6.462,2.06,9.574,2.06,9.574    S347.918,407.704,347.731,405.879z M353.278,408.593l1.381,1.431l-1.381,1.382l-1.38-1.382L353.278,408.593z"
         id="path3707" /><path
         fill="#707173"
         d="M344.875,418.046c0.749,0.187,7.188-0.376,7.188-0.376c0.491-0.021,0.749-0.068,1.427-0.35    c1.17-0.493,2.785,1.075,2.785,1.075s-1.731,0.095-2.176,1.521c0,0-0.469-0.843-1.733-0.771c-0.865,0.047-5.219,0.212-6.295,0.165    c-1.218-0.048-2.436,0-3.465-0.773c0,0-0.188-1.381-0.188-2.552h2.295C344.712,417.414,344.875,418.046,344.875,418.046z"
         id="path3709" /><path
         fill="#707173"
         d="M356.393,424.013c-2.785,0.071-4.19,0.233-5.572,0.306c-1.31,0.067-3.838,0.188-5.477,0.232    c-2.387,0.071-3.44-0.726-3.909-1.124c-0.141-0.117,0-0.117,0-0.117c1.615-0.092,4.799-0.396,4.799-0.396l6.718-0.375    C355.034,422.421,356.393,424.013,356.393,424.013z"
         id="path3711" /></g><g
       id="g3713"><path
         fill="#707173"
         d="M379.235,376.418l-0.305-0.49c-0.164-4.753,0.843-4.144,0.843-4.144l2.364,0.981    c1.825,1.92,2.901,4.189,2.901,4.189h0.516c0.585,0,1.638,1.125,1.638,1.125s-1.404,0.397-4.563,0.538    c-3.722,0.14-4.236,1.731-4.214,4.938h-2.317c0-5.312,1.851-5.71,3.698-5.969c0.819-0.117,3.418-0.351,3.418-0.351    c0-0.538-1.615-2.926-1.825-3.185c0,0-0.024-0.022-0.095,0.188c-0.069,0.211-0.21,1.965-0.21,3.253    C381.084,377.495,380.195,377.238,379.235,376.418z M388.809,371.762l1.38,1.428l-1.38,1.381l-1.381-1.381L388.809,371.762z     M388.809,374.524l1.38,1.427l-1.38,1.381l-1.381-1.381L388.809,374.524z"
         id="path3715" /><path
         fill="#707173"
         d="M376.098,391.325c0-1.266,0.353-2.763,1.382-3.559c0,0-1.382-1.498-1.382-4.847h2.317    c-0.022,3.255,0.702,3.653,0.702,3.653c0.913-0.327,0.679-2.155,0.679-2.155s2.575,0.025,2.575,2.435    c0,2.881-1.989,2.856-1.989,2.856l-1.265-0.797c-0.585,0.562-0.702,1.146-0.702,2.412L376.098,391.325L376.098,391.325z"
         id="path3717" /><path
         fill="#707173"
         d="M376.098,401.761c0-1.776,0.258-2.669,0.797-3.229l-1.522-0.633c2.201-2.436,2.061-3.745,2.061-3.745    s-1.193-0.727-1.335-2.082c0,0,0-0.727,0-1.266h2.317c-0.07,2.951,1.101,3.253,1.101,3.253c2.949,1.055,2.598,4.283,2.598,4.283    c-2.271-0.655-3.721,0.633-3.698,3.418H376.098L376.098,401.761z M378.368,397.432c0.796-0.443,1.872,0,1.872,0    c0-1.076-1.193-1.779-1.193-1.779C379.047,396.659,378.368,397.432,378.368,397.432z"
         id="path3719" /><path
         fill="#707173"
         d="M373.079,408.243l1.38,1.427l-1.38,1.381l-1.381-1.381L373.079,408.243z M381.436,405.879    c-0.071-0.655-0.235-1.193-0.656-1.73c-0.842-1.104,0.515-0.563,0.515-0.563s2.622,0.891,2.575,2.856    c-0.07,2.506-1.475,4.425-1.873,6.226c-0.514,2.318-0.327,3.138-0.327,3.138l-2.622-0.749c0,0,0-1.546-0.094-2.271    c-0.631-0.045-0.538,3.7-0.538,3.7h-2.317c-0.047-5.5,2.763-4.119,2.739-4.167c-0.211-0.82-0.679-1.45-1.124-2.504    c-1.076-2.507-1.662-4.986-1.615-8.614h2.317c0.047,6.462,2.061,9.574,2.061,9.574S381.622,407.704,381.436,405.879z"
         id="path3721" /><path
         fill="#707173"
         d="M378.579,418.046c0.749,0.187,7.187-0.376,7.187-0.376c0.491-0.021,0.749-0.068,1.427-0.35    c1.171-0.493,2.785,1.075,2.785,1.075s-1.731,0.095-2.176,1.521c0,0-0.469-0.843-1.732-0.771c-0.866,0.047-5.22,0.212-6.296,0.165    c-1.218-0.048-2.435,0-3.465-0.773c0,0-0.188-1.381-0.188-2.552h2.294C378.415,417.414,378.579,418.046,378.579,418.046z"
         id="path3723" /><path
         fill="#707173"
         d="M390.096,424.013c-2.785,0.071-4.19,0.233-5.571,0.306c-1.311,0.067-3.838,0.188-5.478,0.232    c-2.387,0.071-3.44-0.726-3.908-1.124c-0.142-0.117,0-0.117,0-0.117c1.614-0.092,4.799-0.396,4.799-0.396l6.717-0.375    C388.737,422.421,390.096,424.013,390.096,424.013z"
         id="path3725" /></g><g
       id="g3727"><path
         fill="#707173"
         d="M409.799,393.247c0-2.225,0.233-3.793,2.341-4.517c0,0-1.708-0.517-1.896-1.734    c0,0-0.655-2.62-0.936-5.898c-0.352-3.979,0.469-9.268,6.835-5.289v0.047c-7.256-3.58-4.097,10.158-3.534,11.588    c0.328,0.817,0.468,1.006,0.468,1.006s1.24,0.257,1.614,0.538c0.422,0.305,0.493,0.373,0.493,0.373    c-2.88,0.492-3.067,1.896-3.067,3.888L409.799,393.247L409.799,393.247z M419.256,379.272l1.381,1.429l-1.381,1.379l-1.381-1.379    L419.256,379.272z M419.325,382.08l1.382,1.43l-1.382,1.381l-1.381-1.381L419.325,382.08z"
         id="path3729" /><path
         fill="#707173"
         d="M406.545,394.902l1.382,1.427l-1.382,1.382l-1.381-1.382L406.545,394.902z M409.799,400.474    c-0.022-2.106,0.491-3.84,2.178-4.145c0,0-1.171-0.538-1.709-1.076c-0.282-0.305-0.445-0.795-0.469-2.458h2.317    c0.023,2.902,0.912,3.278,0.912,3.278s1.078,0.305,1.593,0.608c0.352,0.257,0.141,0.257,0.141,0.257    c-1.615,0-2.646,1.287-2.646,3.534L409.799,400.474L409.799,400.474z"
         id="path3731" /><path
         fill="#707173"
         d="M409.799,416.365c0-0.982,0-2.553,0.727-3.651c0,0-0.375-0.116-0.727-0.376c0,0-0.982-3.275,1.218-3.885    c0,0-1.592-0.259-1.592-2.809c0-1.709,1.475-1.825,1.475-1.825s-1.101-0.959-1.101-3.864h2.317c0,3.139,0.937,4.309,1.334,4.588    c0.327,0.236,0.352,0.633,0,0.493c-0.749-0.282-0.982-0.233-0.982-0.233s-0.608,0.116-0.608,1.216    c0,1.942,1.591,3.161,1.966,3.278c0.116,0.116,0.141,0.421,0.141,0.421s-0.608-0.142-0.727-0.142    c-0.749-0.117-1.123,0.446-1.123,1.312c0,0.49,0.116,1.333,0.116,1.333s0.235,0,0.609,0c0.375,0,1.451,0.727,1.451,0.727    c-1.825,0.117-2.177,1.849-2.177,3.418H409.799L409.799,416.365z"
         id="path3733" /><path
         fill="#707173"
         d="M412.279,418.044c0.749,0.188,7.188-0.374,7.188-0.374c0.491-0.021,0.749-0.07,1.427-0.353    c1.171-0.49,2.785,1.079,2.785,1.079s-1.73,0.092-2.176,1.521c0,0-0.469-0.843-1.733-0.771c-0.865,0.046-5.219,0.208-6.295,0.161    c-1.218-0.045-2.436,0-3.465-0.771c0,0-0.188-1.381-0.188-2.552h2.294C412.116,417.411,412.279,418.044,412.279,418.044z"
         id="path3735" /><path
         fill="#707173"
         d="M423.797,424.011c-2.785,0.07-4.19,0.235-5.572,0.306c-1.31,0.069-3.838,0.188-5.477,0.232    c-2.387,0.071-3.44-0.724-3.909-1.122c-0.141-0.117,0-0.117,0-0.117c1.615-0.094,4.799-0.397,4.799-0.397l6.718-0.373    C422.438,422.421,423.797,424.011,423.797,424.011z"
         id="path3737" /></g><g
       id="g3739"><path
         fill="#707173"
         d="M451.88,390.903c0.539-0.048,1.686,1.265,1.686,1.265s-3.138,0.279-5.267,0.817    c-2.341,0.587-2.48,1.476-2.48,2.739H443.5c-0.094-3.396,2.832-3.909,2.832-3.909c-1.101-0.258-1.592-0.515-1.592-0.515    s-1.17-1.219-1.334-3.979c-0.164-2.927,2.294-2.737,3.534-2.223c-0.632-0.024-1.451,0.303-1.193,2.526    c0.352,3.09,1.568,3.955,1.568,3.955C448.252,391.513,451.201,390.972,451.88,390.903z"
         id="path3741" /><path
         fill="#707173"
         d="M446.776,404.008c1.382-2.06,1.661-3.723,1.661-4.494c0-0.397-0.187-1.192-0.49-1.568    c-0.702-0.89,0.188-0.468,0.188-0.468s2.575,0.609,2.551,2.809c-0.021,1.991-1.566,4.073-2.294,5.502    c-0.842,1.684-0.865,3.229-0.865,3.229l-2.809-1.103c0,0,0.303-2.247-0.258-4.728c-0.397-1.731-0.96-4.189-0.96-7.912h2.317    C445.725,399.303,446.776,404.008,446.776,404.008z"
         id="path3743" /><path
         fill="#707173"
         d="M455.953,419.638c0,0-0.633-0.771-1.498-0.7c-2.2,0.188-3.956-0.164-5.314-0.702    c-1.498,0.843-2.809,1.381-3.58,1.498c-0.444,0.069-2.246-0.352-2.246-0.352c-0.47-1.171-0.398-5.921-0.398-5.921    c0.982-0.399,2.973,0,2.973,0c-0.233,0.162-0.21,0.513-0.21,0.513c1.193,1.406,2.13,2.247,2.901,2.764    c2.153-1.312,3.301-2.575,3.582-2.927c1.099-1.357,0.89-1.475,0.89-1.475s-0.397-0.866,0.28-1.077    c0.655-0.21,1.451-0.397,2.176-0.281c1.266,0.212,1.007,1.103,1.007,1.103c-1.566,2.153-3.932,4.05-6.107,5.432    c1.498,0.327,3.439,0.022,3.439,0.022s0.844-0.144,1.358-0.422c1.123-0.632,2.363,1.123,2.363,1.123    C455.882,418.422,455.953,419.638,455.953,419.638z M445.63,415.708l0.164,2.432c0.608-0.256,1.171-0.513,1.662-0.771    C446.216,416.551,445.63,415.708,445.63,415.708z M460.354,411.681c0,0-0.375-2.408-0.938-0.749    c-0.561,1.663-0.188,2.412-0.116,2.834c0.047,0.396-0.304,0.141-0.304,0.141l-0.562-0.562c0,0-0.305-0.188-0.396-0.538    c-0.445-1.874-1.451-2.949-1.522-2.996c-0.047-0.143-0.094-0.188,0.071-0.281c0.28,0,1.451,0.889,1.451,0.889    c0.093,0,0.14-0.561,0.14-0.561s0.024-1.404,1.24-0.704c1.803,1.054,2.247,2.996,2.201,3.35c-0.094,0.373-0.421,0.655-0.421,0.655    l-0.984-1.148L460.354,411.681z"
         id="path3745" /><path
         fill="#707173"
         d="M457.498,424.013c-2.785,0.071-4.19,0.233-5.572,0.306c-1.31,0.067-3.838,0.188-5.477,0.232    c-2.387,0.071-3.44-0.726-3.909-1.124c-0.141-0.117,0-0.117,0-0.117c1.615-0.092,4.799-0.396,4.799-0.396l6.718-0.375    C456.14,422.421,457.498,424.013,457.498,424.013z"
         id="path3747" /></g><g
       id="g3749"><path
         fill="#BD005F"
         d="M341.375,338.335c-1.381,0-1.85-0.094-1.85-0.094c-0.141,1.264-1.287,3.56-1.567,4.025    c-0.516,0.866-1.733,2.553-4.214,2.831c-2.294,0.26-5.219-1.941-5.219-1.941s1.661,0.376,4.001-0.352    c4.33-1.357,5.665-4.398,5.665-4.398s0.116,0-0.117-0.211c-0.982-0.89-1.193-1.242-1.639-1.942    c-0.562-0.891,0.234-2.974,0.445-3.439c0.211-0.446,0.211,0,0.211,0s0.022,1.052,1.638,1.894c0.727,0.376,1.24,0.633,2.646,0.633    V338.335L341.375,338.335z"
         id="path3751" /><path
         fill="#BD005F"
         d="M348.58,338.335c-2.106,0.022-3.838-0.49-4.143-2.176c0,0-0.538,1.17-1.077,1.708    c-0.305,0.279-0.796,0.443-2.457,0.468v-2.996c2.901-0.022,3.276-0.912,3.276-0.912s0.305-1.076,0.609-1.592    c0.256-0.352,0.467-0.305,0.467-0.305c0,1.614,1.077,2.809,3.324,2.809L348.58,338.335L348.58,338.335z M343.127,341.425    l1.591-1.592l1.662,1.64l-1.615,1.59L343.127,341.425z"
         id="path3753" /><path
         fill="#BD005F"
         d="M359.017,338.335c-1.778,0-2.669-0.257-3.229-0.795l-0.633,1.521c-2.435-2.2-3.745-2.059-3.745-2.059    s-0.726,1.193-2.083,1.333c0,0-0.725,0-1.265,0v-2.996c2.95,0.071,3.254-1.1,3.254-1.1c1.054-2.949,4.283-2.599,4.283-2.599    c-0.654,2.271,0.633,3.722,3.418,3.697V338.335L359.017,338.335z M354.71,335.55c-0.305-0.562,0-1.311,0-1.311    c-0.749,0-1.241,0.843-1.241,0.843C354.172,335.082,354.71,335.55,354.71,335.55z"
         id="path3755" /><path
         fill="#BD005F"
         d="M366.294,338.335c-2.106,0.022-3.838-0.49-4.143-2.176c0,0-0.539,1.17-1.077,1.708    c-0.305,0.279-0.796,0.443-2.458,0.468v-2.996c2.902-0.022,3.277-0.912,3.277-0.912s0.305-1.076,0.609-1.592    c0.256-0.352,0.467-0.305,0.467-0.305c0,1.614,1.077,2.809,3.324,2.809L366.294,338.335L366.294,338.335z M359.296,328.856    l1.591-1.593l1.662,1.639l-1.615,1.592L359.296,328.856z M362.666,328.925l1.591-1.591l1.662,1.64l-1.615,1.593L362.666,328.925z"
         id="path3757" /><path
         fill="#BD005F"
         d="M373.641,338.335c-2.106,0.022-3.838-0.49-4.143-2.176c0,0-0.538,1.17-1.077,1.708    c-0.305,0.279-0.796,0.443-2.457,0.468v-2.996c2.901-0.022,3.276-0.912,3.276-0.912s0.305-1.076,0.609-1.592    c0.256-0.352,0.467-0.305,0.467-0.305c0,1.614,1.077,2.809,3.324,2.809L373.641,338.335L373.641,338.335z M368.188,341.425    l1.591-1.592l1.662,1.64l-1.615,1.59L368.188,341.425z"
         id="path3759" /><path
         fill="#BD005F"
         d="M378.063,334.1c0.608-0.727,1.638-0.702,1.007,0.022c-0.422,0.491-0.165,1.006-0.165,1.006    s0.165,0.353,1.101,0.353c1.756,0,2.247-1.193,2.411-1.451c0.609-0.938,1.006-0.585,0.937-0.327    c-0.047,0.188-0.211,0.702-0.211,0.702c-0.047,0.912,1.029,1.028,1.382,1.076c0.396,0.047,0.865-0.048,0.865-0.048    s-0.116-0.632-0.516-1.427c-0.094-0.165,1.382-2.178,1.382-2.178s0.982,2.927,0.702,3.862c-0.305,1.007-0.68,1.474-1.288,2.199    c-0.188,0.233-0.726,0.421-1.076,0.444c-0.094,0-1.756-0.023-2.13-1.544c0,0-0.983,1.638-3.183,1.544    c-1.358-0.068-1.616-1.333-1.616-1.333s-1.053,1.333-4.424,1.333v-2.996C376.519,335.339,377.314,334.988,378.063,334.1z"
         id="path3761" /><path
         fill="#BD005F"
         d="M394.885,340.98l9.06-16.854h3.112l-9.151,16.854H394.885z"
         id="path3763" /><path
         fill="#BD005F"
         d="M423.271,329.229c-0.023-0.49-0.023-0.701-0.233-2.035c-0.188-1.146,1.403-2.975,1.403-2.975    s0.327,1.968,1.731,2.458c0,0-1.171,1.194-0.96,2.437l0.234,5.196c0,0,0.069,3.088-0.983,4.797    c-1.615,2.601-6.623,2.739-6.623,2.739c-6.508-0.328-2.061-8.496-2.061-8.496c-1.382,3.229-0.749,5.616,2.505,5.522    s5.501-2.036,5.501-2.036C424.254,334.895,423.271,329.229,423.271,329.229z"
         id="path3765" /><path
         fill="#BD005F"
         d="M439.302,338.335c-0.258,0-0.937,0.022-1.404,0.022c0,0.211-0.117,0.749-0.164,0.96    c-1.311,5.431-4.705,5.807-4.705,5.807c-4.165,0.422-6.576-1.757-6.576-1.757s0.679,0.188,2.364,0.188    c2.551,0,6.904-3.276,7.255-5.196c-0.396,0,0.048-0.046-0.421,0c-3.886,0.397-3.324-2.737-3.324-2.737    c0.211-2.059,1.335-3.417,2.225-4.003c1.312-0.866,2.691,1.404,2.691,1.404s0.562,0.983,0.796,2.341v-0.023c0,0,1.007,0,1.265,0    L439.302,338.335L439.302,338.335z M435.064,335.433c0.141,0,0.421-0.021,0.702-0.021c0-0.048-0.023-0.258-0.164-0.493    c-0.796-1.38-1.428,0.094-1.545,0.211C434.059,335.128,434.034,335.479,435.064,335.433z"
         id="path3767" /><path
         fill="#BD005F"
         d="M445.781,338.335c0,0-3.534,0.259-3.885-2.831c0,0-0.47,2.059-1.147,2.598    c-0.233,0.188-0.796,0.233-2.294,0.233v-2.996h0.188c1.476,0,2.084-0.257,2.179-0.866c0.327-1.919-0.047-8.216-0.047-8.59    c0-0.515,1.685-1.779,1.685-1.779c0.141,1.241,0.094,5.479,0.538,9.013c0.305,2.389,2.785,2.224,2.785,2.224L445.781,338.335    L445.781,338.335z"
         id="path3769" /><path
         fill="#BD005F"
         d="M445.193,335.339c3.021,0,3.582-0.14,3.582-0.14c-0.094-0.728-1.193-2.247-1.193-2.247    c0.188-0.728,1.287-2.364,1.287-2.364s1.825,2.575,1.803,4.681c0,0-0.164,1.616-1.007,2.787c0,0-1.334,0.279-4.472,0.279V335.339z     M445.568,342.057l1.592-1.592l1.662,1.638l-1.615,1.593L445.568,342.057z M448.869,342.128l1.592-1.592l1.662,1.638l-1.615,1.592    L448.869,342.128z"
         id="path3771" /><path
         fill="#BD005F"
         d="M454.812,320.896c0,0-2.457,0.326-0.727,0.913c1.661,0.584,2.458,0.162,2.879,0.141    c0.375-0.094,0.047,0.305,0.047,0.305l-0.468,0.585c0,0-0.234,0.304-0.539,0.421c-1.919,0.421-3.02,1.498-3.112,1.521    c-0.117,0.047-0.234,0.142-0.258-0.023c0-0.351,0.89-1.498,0.89-1.498c0-0.117-0.538-0.186-0.538-0.186s-1.476-0.024-0.749-1.266    c1.077-1.803,2.996-2.341,3.395-2.2c0.421,0.07,0.679,0.421,0.679,0.421l-1.146,0.96L454.812,320.896z M455.959,324.431    c0.07,2.785,0.142,4.216,0.211,5.596c0.07,1.312,0.094,3.394,0.141,5.033c0.047,1.942-1.264,3.51-1.662,3.979    c-0.116,0.14-0.116,0-0.116,0c-0.094-1.615-0.233-4.542-0.233-4.542l-0.142-6.531    C454.109,325.883,455.959,324.431,455.959,324.431z"
         id="path3773" /></g></g></svg>