<?xml version="1.0" encoding="UTF-8" standalone="no"?>
<!-- Generator: Adobe Illustrator 16.0.0, SVG Export Plug-In . SVG Version: 6.00 Build 0)  -->

<svg
   xmlns:dc="http://purl.org/dc/elements/1.1/"
   xmlns:cc="http://creativecommons.org/ns#"
   xmlns:rdf="http://www.w3.org/1999/02/22-rdf-syntax-ns#"
   xmlns:svg="http://www.w3.org/2000/svg"
   xmlns="http://www.w3.org/2000/svg"
   xmlns:sodipodi="http://sodipodi.sourceforge.net/DTD/sodipodi-0.dtd"
   xmlns:inkscape="http://www.inkscape.org/namespaces/inkscape"
   version="1.1"
   id="_x30_6-Several_neighborhoods"
   x="0px"
   y="0px"
   width="1573.961px"
   height="907.086px"
   viewBox="222.961 0 1573.961 907.086"
   enable-background="new 222.961 0 1573.961 907.086"
   xml:space="preserve"
   inkscape:version="0.48.4 r9939"
   sodipodi:docname="Area6.svg"><metadata
     id="metadata5571"><rdf:RDF><cc:Work
         rdf:about=""><dc:format>image/svg+xml</dc:format><dc:type
           rdf:resource="http://purl.org/dc/dcmitype/StillImage" /><dc:title></dc:title></cc:Work></rdf:RDF></metadata><defs
     id="defs5569" /><sodipodi:namedview
     pagecolor="#ffffff"
     bordercolor="#666666"
     borderopacity="1"
     objecttolerance="10"
     gridtolerance="10"
     guidetolerance="10"
     inkscape:pageopacity="0"
     inkscape:pageshadow="2"
     inkscape:window-width="1366"
     inkscape:window-height="701"
     id="namedview5567"
     showgrid="false"
     inkscape:zoom="0.61"
     inkscape:cx="601.04796"
     inkscape:cy="431.20594"
     inkscape:window-x="0"
     inkscape:window-y="27"
     inkscape:window-maximized="1"
     inkscape:current-layer="_x30_6-Several_neighborhoods" /><g
     id="g25"
     transform="translate(-1.1760425e-5,13.998989)"><path
       d="m 387.804,212.615 c -1.141,-0.559 -0.295,-1.858 -1.42,-2.434 -0.075,-3.59 1.788,-5.243 2.434,-8.112 3.14,-1.748 8.323,-2.937 11.357,-2.434 0.064,0.011 -0.1,0.315 -0.203,0.203 2.032,0.501 1.842,7.015 -0.406,8.315 -2.451,1.417 -6.858,0.424 -9.329,2.231 -1.046,0.765 -1.042,2.052 -2.433,2.231 z"
       id="path27"
       inkscape:connector-curvature="0"
       style="fill:#179665" /><path
       d="m 249.089,216.265 c 2.776,3.474 2.06,7.527 0.203,10.952 -2.357,4.346 -7.697,6.468 -12.574,6.287 -3.923,-0.146 -7.565,-2.192 -7.098,-7.301 0.182,-1.992 1.855,-2.797 2.839,-4.665 1.33,-2.525 1.402,-6.24 3.245,-7.707 3.959,-3.15 9.923,1.316 13.385,2.434 z m -11.965,4.462 c -0.388,1.099 -1.164,1.81 -1.217,3.245 2.073,2.461 5.216,0.213 6.692,-1.419 -1.92,-0.514 -3.417,-1.45 -5.475,-1.826 z"
       id="path29"
       inkscape:connector-curvature="0"
       style="fill:#179665" /><path
       d="m 242.599,222.552 c -1.476,1.633 -4.619,3.88 -6.692,1.419 0.053,-1.435 0.829,-2.146 1.217,-3.245 2.058,0.377 3.555,1.313 5.475,1.826 z"
       id="path31"
       inkscape:connector-curvature="0"
       style="fill:#ffffff" /><path
       d="m 456.959,224.783 c -1.161,0.661 -2.999,1.276 -4.462,1.014 1.137,-0.881 3.31,-2.946 4.462,-1.014 z"
       id="path33"
       inkscape:connector-curvature="0"
       style="fill:#ffffff" /><path
       d="m 344.202,227.014 c 0.443,0.03 0.436,0.511 0.405,1.014 -0.702,0.142 -0.727,-0.711 -0.405,-1.014 z"
       id="path35"
       inkscape:connector-curvature="0"
       style="fill:#ffffff" /><path
       d="m 331.223,235.531 c -0.877,0.274 -1.287,0.095 -2.23,0 0.185,-0.749 2.098,-0.861 2.23,0 z"
       id="path37"
       inkscape:connector-curvature="0"
       style="fill:#ffffff" /><path
       d="m 286.607,239.587 c 0.773,1.992 0.676,4.773 -0.203,6.49 -5.078,0.946 -9.073,4.03 -13.79,4.664 -3.335,-2.493 -0.705,-6.016 1.014,-8.72 4.41,-0.494 8.584,-3.262 12.979,-2.434 z"
       id="path39"
       inkscape:connector-curvature="0"
       style="fill:#179665" /><path
       d="m 203.256,141.432 c 98.495,0 196.983,0 295.479,0 -0.136,51.85 0.271,104.238 -0.203,155.75 -98.425,-0.135 -197.393,0.271 -295.479,-0.203 0,-51.646 0,-103.292 0,-154.939 -0.017,-0.287 -0.033,-0.574 0.203,-0.608 z m 147.03,77.064 c 0.826,-1.381 0.499,-3.19 0.811,-5.07 0.138,-0.827 0.593,-1.166 0.608,-1.825 0.043,-1.852 -0.678,-4.136 -0.811,-6.287 -0.178,-2.857 0.503,-4.794 0,-6.895 -0.274,-1.142 -1.657,-3.305 -2.839,-3.448 -2.708,-0.327 -4.402,3.711 -4.056,7.098 0.072,0.703 1.15,2.637 1.217,3.245 0.084,0.764 -0.382,2.166 -0.405,3.448 -0.073,3.904 0.62,6.379 -0.812,8.518 -2.829,4.226 -12.149,2.727 -14.398,5.273 -2.383,2.697 0.724,5.582 4.259,5.881 1.726,0.146 4.187,-0.703 6.489,-0.203 -3.2,1.279 -8.961,2.269 -13.385,2.637 -1.519,0.126 -2.797,-0.425 -4.056,-0.812 -0.859,-1.507 -1.817,-2.915 -2.028,-5.07 -3.683,-3.363 -7.042,-16.877 -14.196,-11.56 -0.02,1.578 -0.411,2.939 -0.811,4.664 0.887,0.781 0.695,1.438 0.811,2.839 1.215,1.894 2.957,3.263 2.839,6.49 -2.445,0.17 -5.739,1.979 -7.504,0.608 -2.135,-1.658 0.961,-6.486 -2.23,-7.707 -2.854,1.99 -4.336,5.603 -4.056,9.532 0.302,4.231 4.972,8.016 9.126,8.112 4.344,0.101 5.83,-3.646 9.126,-5.07 4.363,3.378 9.817,5.273 16.224,5.678 3.652,-0.032 8.846,-2.269 12.776,-1.825 1.596,-2.595 5.964,-2.417 9.126,-3.447 1.295,-1.529 3.577,-1.973 3.853,-4.665 0.323,-3.145 -1.892,-5.147 -4.056,-6.692 -1.539,-0.083 -2.972,-0.273 -3.853,-1.014 0.456,-0.912 1.607,-1.389 2.231,-2.433 z m 14.196,12.371 c 1.582,-1.711 2.96,-8.848 2.839,-12.574 -0.097,-3.002 -0.695,-7.121 -1.014,-10.951 -0.289,-3.465 -0.563,-8.962 -3.65,-8.923 -0.963,0.012 -4.055,2.417 -4.461,3.853 -0.309,1.093 0.225,1.78 0.203,2.637 -0.025,0.981 -0.536,2.053 -0.608,3.042 -0.321,4.389 0.957,7.729 1.419,10.545 0.451,2.746 0.381,6.267 1.217,8.518 0.526,1.42 2.065,6.006 4.055,3.853 z m 25.756,-20.483 c 2.47,-1.807 6.878,-0.814 9.329,-2.231 2.248,-1.3 2.438,-7.813 0.406,-8.315 0.103,0.113 0.267,-0.192 0.203,-0.203 -3.034,-0.503 -8.217,0.686 -11.357,2.434 -0.646,2.869 -2.508,4.522 -2.434,8.112 1.125,0.575 0.279,1.875 1.42,2.434 1.39,-0.179 1.386,-1.466 2.433,-2.231 z m 66.113,6.49 c -0.963,-1.908 -1.94,-4.273 -2.637,-7.098 -0.843,-3.424 -1.247,-8.072 -4.056,-8.518 -5.788,2.65 -3.325,15.136 -1.42,20.888 -1.906,4.039 -7.621,6.368 -12.776,5.273 0.177,-1.478 0.069,-4.199 -1.217,-4.867 -2.05,-0.158 -2.724,1.062 -3.854,1.825 -1.419,4.167 -1.477,8.101 -2.839,11.965 -4.766,5.788 -14.316,7.463 -23.93,7.503 -2.516,2.312 -0.418,7.685 1.622,8.518 0.74,0.302 3.143,0.108 4.665,0 2.359,-0.167 3.847,-0.785 5.273,-1.217 3.561,-1.08 7.263,-2.118 9.734,-3.042 4.439,-3.2 7.51,-7.768 10.749,-12.168 6.057,-0.615 11.595,-1.154 18.86,-2.434 3.176,-0.56 8.075,-1.548 10.95,-3.042 1.422,-0.738 3.741,-2.742 4.26,-3.853 0.777,-1.672 0.373,-3.418 1.014,-5.273 -0.521,-0.184 -0.958,-1.817 -1.419,-0.812 0.211,0.083 0.712,0.787 0,0.608 -0.314,-4.261 -8.268,-5.45 -12.979,-4.256 z m -40.764,7.909 c 1.424,-1.996 2.063,-5.064 1.825,-8.112 -0.161,-2.066 -1.954,-6.498 -4.056,-6.692 -1.528,-0.142 -2.093,1.167 -3.245,1.825 -0.019,2.115 -0.608,3.75 -0.608,6.084 0.921,0.926 0.991,1.68 1.014,3.245 -0.592,0.895 -1.7,1.274 -2.839,1.623 -2.728,-2.043 -4.274,-5.843 -7.909,-5.273 -4.316,0.677 -8.542,10.839 -3.853,13.182 1.605,0.802 2.831,-0.277 5.07,0 -4.284,5.337 -18.899,8.573 -19.266,-1.622 -0.121,-3.362 2.431,-5.947 1.217,-10.14 -2.147,-0.72 -3.622,0.785 -5.07,1.419 -2.476,4.826 -3.685,11.919 -0.811,17.644 0.301,0.6 1.635,2.627 2.028,3.042 3.341,3.52 10.731,3.921 15.818,1.825 3.82,-1.574 6.847,-3.585 9.329,-6.084 1.957,-1.97 2.304,-3.531 2.636,-6.287 2.741,-1.954 6.467,-2.522 8.72,-5.679 z m -138.918,1.42 c -0.624,-0.973 -0.73,-2.698 -1.217,-4.462 -0.784,-2.841 -3.065,-10.919 -6.692,-10.545 -1.562,0.161 -3.382,2.68 -3.245,4.665 0.115,1.658 1.574,3.678 2.231,5.476 0.724,1.981 1.609,3.523 2.23,5.476 -3.066,2.323 -7.591,4.719 -12.168,4.259 -0.13,-2.639 0.103,-7.247 -2.028,-7.301 -2.053,-0.052 -2.846,6.292 -2.636,9.126 0.34,4.607 4.72,6.646 9.329,5.881 0.903,-0.15 2.08,-0.947 3.245,-1.42 3.101,-1.259 5.379,-2.137 6.692,-4.664 2.274,2.152 7.913,4.934 11.763,3.042 0.403,-0.198 2.492,-2.29 3.245,-3.245 2.703,-3.428 3.375,-6.611 3.042,-11.965 -0.074,-1.19 0.207,-2.479 -0.203,-3.245 -0.774,-1.447 -3.167,-1.313 -4.462,-1.217 -0.905,1.161 -2.255,1.441 -2.636,2.839 -0.143,0.523 0.48,1.654 0.406,2.636 -0.165,2.163 0.486,4.628 -0.608,6.287 -2.431,-0.02 -5.287,-0.064 -6.288,-1.623 z m -40.965,-12.371 c -1.843,1.467 -1.916,5.182 -3.245,7.707 -0.983,1.868 -2.657,2.673 -2.839,4.665 -0.468,5.109 3.175,7.155 7.098,7.301 4.877,0.182 10.217,-1.94 12.574,-6.287 1.857,-3.425 2.573,-7.478 -0.203,-10.952 -3.462,-1.119 -9.426,-5.585 -13.385,-2.434 z m 172.988,17.644 c -1.708,1.941 -2.14,5.683 0.203,7.301 3.369,-0.387 7.117,-1.323 9.734,-3.042 0.292,-1.669 1.896,-2.026 2.434,-3.448 -0.757,-0.797 -1.042,-2.067 -1.216,-3.448 -3.293,-2.001 -7.655,1.695 -11.155,2.637 z m -53.133,11.964 c -0.323,-1.175 -1.992,-2.231 -2.839,-3.042 -0.795,-0.761 -2.176,-2.437 -3.245,-2.636 -2.033,-0.379 -3.528,1.888 -4.259,3.245 -0.87,1.615 -1.545,3.603 -2.23,5.476 0.721,0.341 1.161,1.417 2.23,0.812 1.258,2.055 4.479,2.146 6.692,3.245 1.752,-1.413 4.38,-4.449 3.651,-7.1 z m -81.932,-1.419 c -1.718,2.704 -4.349,6.228 -1.014,8.72 4.717,-0.634 8.712,-3.718 13.79,-4.664 0.879,-1.717 0.977,-4.498 0.203,-6.49 -4.394,-0.828 -8.568,1.94 -12.979,2.434 z"
       id="path41"
       inkscape:connector-curvature="0"
       style="fill:#ffffff" /><path
       d="m 360.426,227.014 c -0.835,-2.251 -0.766,-5.771 -1.217,-8.518 -0.462,-2.817 -1.74,-6.157 -1.419,-10.545 0.072,-0.989 0.583,-2.061 0.608,-3.042 0.022,-0.856 -0.512,-1.544 -0.203,-2.637 0.406,-1.437 3.498,-3.841 4.461,-3.853 3.087,-0.039 3.362,5.458 3.65,8.923 0.319,3.831 0.917,7.949 1.014,10.951 0.121,3.726 -1.258,10.862 -2.839,12.574 -1.989,2.153 -3.528,-2.433 -4.055,-3.853 z"
       id="path43"
       inkscape:connector-curvature="0"
       style="fill:#179665" /><path
       d="m 348.055,220.93 c 0.881,0.741 2.314,0.931 3.853,1.014 2.165,1.545 4.379,3.547 4.056,6.692 -0.276,2.692 -2.558,3.135 -3.853,4.665 -3.162,1.03 -7.53,0.853 -9.126,3.447 -3.931,-0.444 -9.124,1.793 -12.776,1.825 -6.407,-0.405 -11.861,-2.3 -16.224,-5.678 -3.296,1.424 -4.782,5.17 -9.126,5.07 -4.154,-0.096 -8.824,-3.88 -9.126,-8.112 -0.28,-3.929 1.202,-7.542 4.056,-9.532 3.192,1.221 0.096,6.049 2.23,7.707 1.765,1.37 5.059,-0.438 7.504,-0.608 0.117,-3.227 -1.624,-4.596 -2.839,-6.49 -0.116,-1.402 0.076,-2.058 -0.811,-2.839 0.4,-1.725 0.791,-3.086 0.811,-4.664 7.154,-5.318 10.513,8.197 14.196,11.56 0.211,2.155 1.169,3.563 2.028,5.07 1.258,0.387 2.537,0.938 4.056,0.812 4.423,-0.368 10.185,-1.357 13.385,-2.637 -2.303,-0.5 -4.764,0.349 -6.489,0.203 -3.535,-0.299 -6.642,-3.184 -4.259,-5.881 2.249,-2.546 11.57,-1.047 14.398,-5.273 1.432,-2.139 0.739,-4.614 0.812,-8.518 0.023,-1.282 0.489,-2.684 0.405,-3.448 -0.067,-0.608 -1.145,-2.542 -1.217,-3.245 -0.346,-3.387 1.349,-7.425 4.056,-7.098 1.183,0.143 2.565,2.306 2.839,3.448 0.503,2.101 -0.178,4.038 0,6.895 0.133,2.151 0.854,4.435 0.811,6.287 -0.016,0.66 -0.471,0.998 -0.608,1.825 -0.312,1.88 0.015,3.689 -0.811,5.07 -0.624,1.043 -1.775,1.52 -2.231,2.433 z m -3.448,7.098 c 0.03,-0.503 0.038,-0.984 -0.405,-1.014 -0.322,0.303 -0.297,1.156 0.405,1.014 z m -15.615,7.503 c 0.944,0.095 1.353,0.274 2.23,0 -0.131,-0.861 -2.044,-0.749 -2.23,0 z"
       id="path45"
       inkscape:connector-curvature="0"
       style="fill:#179665" /><path
       d="m 406.867,230.461 c -0.332,2.756 -0.679,4.316 -2.636,6.287 -2.482,2.499 -5.509,4.51 -9.329,6.084 -5.087,2.096 -12.478,1.694 -15.818,-1.825 -0.393,-0.415 -1.727,-2.442 -2.028,-3.042 -2.874,-5.724 -1.665,-12.817 0.811,-17.644 1.449,-0.634 2.923,-2.139 5.07,-1.419 1.214,4.193 -1.338,6.778 -1.217,10.14 0.366,10.195 14.981,6.959 19.266,1.622 -2.239,-0.277 -3.465,0.802 -5.07,0 -4.689,-2.343 -0.463,-12.505 3.853,-13.182 3.635,-0.57 5.181,3.23 7.909,5.273 1.139,-0.348 2.247,-0.728 2.839,-1.623 -0.023,-1.565 -0.093,-2.319 -1.014,-3.245 0,-2.333 0.59,-3.969 0.608,-6.084 1.152,-0.659 1.717,-1.967 3.245,-1.825 2.102,0.195 3.895,4.626 4.056,6.692 0.238,3.048 -0.401,6.116 -1.825,8.112 -2.253,3.158 -5.979,3.726 -8.72,5.679 z"
       id="path47"
       inkscape:connector-curvature="0"
       style="fill:#179665" /><path
       d="m 469.33,221.132 c 0.712,0.178 0.211,-0.526 0,-0.608 0.461,-1.006 0.897,0.628 1.419,0.812 -0.641,1.855 -0.235,3.601 -1.014,5.273 -0.519,1.111 -2.839,3.115 -4.26,3.853 -2.876,1.494 -7.774,2.482 -10.95,3.042 -7.267,1.279 -12.804,1.819 -18.86,2.434 -3.238,4.4 -6.31,8.968 -10.749,12.168 -2.471,0.924 -6.173,1.962 -9.734,3.042 -1.426,0.432 -2.914,1.049 -5.273,1.217 -1.522,0.108 -3.925,0.302 -4.665,0 -2.04,-0.833 -4.138,-6.206 -1.622,-8.518 9.614,-0.041 19.165,-1.716 23.93,-7.503 1.362,-3.864 1.42,-7.798 2.839,-11.965 1.129,-0.763 1.804,-1.983 3.854,-1.825 1.286,0.668 1.394,3.389 1.217,4.867 5.155,1.095 10.871,-1.234 12.776,-5.273 -1.905,-5.752 -4.368,-18.238 1.42,-20.888 2.809,0.446 3.213,5.094 4.056,8.518 0.695,2.825 1.674,5.19 2.637,7.098 4.711,-1.196 12.665,-0.007 12.979,4.256 z m -16.833,4.665 c 1.463,0.262 3.301,-0.353 4.462,-1.014 -1.152,-1.932 -3.325,0.133 -4.462,1.014 z"
       id="path49"
       inkscape:connector-curvature="0"
       style="fill:#179665" /><path
       d="m 282.957,227.825 c 1.095,-1.659 0.444,-4.125 0.608,-6.287 0.075,-0.982 -0.548,-2.113 -0.406,-2.636 0.381,-1.398 1.731,-1.678 2.636,-2.839 1.294,-0.097 3.688,-0.23 4.462,1.217 0.41,0.766 0.129,2.055 0.203,3.245 0.333,5.354 -0.339,8.538 -3.042,11.965 -0.753,0.955 -2.842,3.047 -3.245,3.245 -3.85,1.892 -9.488,-0.89 -11.763,-3.042 -1.313,2.527 -3.591,3.405 -6.692,4.664 -1.165,0.473 -2.342,1.27 -3.245,1.42 -4.608,0.764 -8.989,-1.274 -9.329,-5.881 -0.209,-2.834 0.583,-9.178 2.636,-9.126 2.131,0.054 1.897,4.662 2.028,7.301 4.577,0.46 9.102,-1.936 12.168,-4.259 -0.622,-1.953 -1.506,-3.494 -2.23,-5.476 -0.657,-1.798 -2.116,-3.818 -2.231,-5.476 -0.138,-1.984 1.683,-4.503 3.245,-4.665 3.627,-0.374 5.909,7.705 6.692,10.545 0.487,1.764 0.593,3.489 1.217,4.462 1.001,1.56 3.857,1.604 6.288,1.623 z"
       id="path51"
       inkscape:connector-curvature="0"
       style="fill:#179665" /><path
       d="m 419.846,228.839 c 0.174,1.381 0.459,2.651 1.217,3.448 -0.539,1.422 -2.143,1.779 -2.435,3.448 -2.618,1.719 -6.365,2.655 -9.734,3.042 -2.342,-1.618 -1.911,-5.36 -0.203,-7.301 3.501,-0.942 7.863,-4.638 11.155,-2.637 z"
       id="path53"
       inkscape:connector-curvature="0"
       style="fill:#179665" /><path
       d="m 351.908,250.539 c -2.213,-1.099 -5.435,-1.19 -6.692,-3.245 -1.07,0.605 -1.509,-0.471 -2.23,-0.812 0.686,-1.873 1.361,-3.86 2.23,-5.476 0.731,-1.357 2.226,-3.624 4.259,-3.245 1.069,0.199 2.45,1.875 3.245,2.636 0.847,0.811 2.516,1.867 2.839,3.042 0.729,2.652 -1.899,5.688 -3.651,7.1 z"
       id="path55"
       inkscape:connector-curvature="0"
       style="fill:#179665" /></g><g
     id="g5010"><path
       fill="#FFFFFF"
       d="M482.99,176.928c29.209,0,58.418,0,87.627,0c0,32.646,0,65.291,0,97.936c-29.324,0-58.647,0-87.971,0   c0-32.302,0-64.603,0-96.905C482.617,177.471,482.59,176.985,482.99,176.928z M504.295,196.171   c-6.655,5.297-9.466,12.109-12.027,20.274c-1.351,4.306-2.469,7.988-1.718,12.714c1.488,9.368,4.861,19.621,10.652,24.742   c4.254,3.761,11.372,6.833,16.495,7.903c4.098,0.856,9.957,0.662,14.089,0.344c5.979-0.461,9.672-2.678,13.746-5.498   c10.258-7.102,19.305-14.86,19.244-30.24c-0.062-15.557-7.677-28.384-18.9-34.363c-3.607-1.922-9.763-4.523-13.402-4.467   C522.042,187.74,510.868,190.94,504.295,196.171z"
       id="path5012" /><path
       fill="#CFAD00"
       d="M532.474,187.581c3.64-0.056,9.795,2.545,13.402,4.467c11.224,5.979,18.837,18.807,18.9,34.363   c0.062,15.38-8.985,23.138-19.244,30.24c-4.074,2.82-7.767,5.037-13.746,5.498c-4.132,0.318-9.991,0.513-14.089-0.344   c-5.123-1.07-12.241-4.143-16.495-7.903c-5.792-5.121-9.164-15.374-10.652-24.742c-0.751-4.726,0.367-8.408,1.718-12.714   c2.562-8.165,5.373-14.978,12.027-20.274C510.868,190.94,522.042,187.74,532.474,187.581z M518.385,194.109   c-8.244,1.787-17.165,9.202-20.274,16.151c-4.108,9.181-3.486,20.649-0.344,28.866c1.078,2.819,3.22,6.683,5.154,8.935   c8.646,10.059,30.349,10.873,41.236,4.124c10.71-6.64,17.59-15.389,15.807-30.927c-1.802-15.707-12.499-23.529-25.771-28.522   c-2.528,1.545-5.389-0.512-7.904,0.344C523.178,194.559,521.528,193.428,518.385,194.109z"
       id="path5014" /><path
       fill="#FFFFFF"
       d="M526.288,193.079c2.516-0.856,5.375,1.201,7.904-0.344c13.273,4.993,23.97,12.815,25.771,28.522   c1.783,15.539-5.097,24.288-15.807,30.927c-10.889,6.75-32.59,5.936-41.236-4.124c-1.935-2.251-4.076-6.115-5.154-8.935   c-3.143-8.217-3.765-19.685,0.344-28.866c3.109-6.949,12.03-14.364,20.274-16.151C521.528,193.428,523.178,194.559,526.288,193.079   z M526.632,205.106c-3.748,4.952-8.785,15.011-9.965,20.274c-2.154,9.605,0.795,19.969,7.216,24.398   c2.546-0.399,3.546,1.046,6.529,0.688c2.633-0.316,6.618-2.678,8.591-4.811c0.667-0.722,3.796-4.902,4.124-5.842   c4.077-11.725-7.896-24.305-19.931-19.587c2.441-5.003,4.928-9.963,8.248-14.089c1.847-1.76,6.125-2.343,5.498-5.498   C534.641,198.188,528.742,202.318,526.632,205.106z"
       id="path5016" /><path
       fill="#CFAD00"
       d="M536.941,200.639c0.626,3.155-3.651,3.738-5.498,5.498c-3.319,4.126-5.806,9.086-8.248,14.089   c12.035-4.718,24.008,7.862,19.931,19.587c-0.327,0.94-3.456,5.12-4.124,5.842c-1.973,2.133-5.958,4.495-8.591,4.811   c-2.983,0.358-3.983-1.086-6.529-0.688c-6.421-4.429-9.37-14.792-7.216-24.398c1.18-5.263,6.217-15.322,9.965-20.274   C528.742,202.318,534.641,198.188,536.941,200.639z M520.446,230.878c-0.487,2.682,1.47,10.507,3.779,12.714   c4.454,4.257,13.806-0.141,14.776-5.842c0.888-5.21-2.182-10.647-5.155-12.027c-1.523-0.708-3.898-0.795-5.498-0.688   C523.149,225.387,520.951,228.101,520.446,230.878z"
       id="path5018" /><path
       fill="#FFFFFF"
       d="M528.35,225.037c1.6-0.108,3.975-0.02,5.498,0.688c2.974,1.379,6.042,6.817,5.155,12.027   c-0.972,5.701-10.322,10.099-14.776,5.842c-2.31-2.207-4.268-10.032-3.779-12.714C520.951,228.101,523.149,225.387,528.35,225.037z   "
       id="path5020" /></g><g
     id="g57"
     transform="translate(-1.1760425e-5,13.998989)"><path
       d="m 477.438,167.623 c 31.544,0 63.087,0 94.63,0 0,33.418 0,66.836 0,100.254 -31.653,0 -63.309,0 -94.96,0 0,-33.087 0,-66.175 0,-99.262 -0.029,-0.469 -0.056,-0.937 0.33,-0.992 z m 44.006,21.837 c -13.948,0.945 -23.905,5.471 -29.778,13.897 -6.962,9.987 -6.558,25.598 -2.647,36.727 2.577,7.333 5.654,10.109 12.242,14.228 6.485,4.055 11.88,6.625 20.515,5.956 6.113,-0.474 9.104,-1.726 14.228,-4.632 2.509,-1.423 5.692,-2.992 7.61,-4.632 7.467,-6.384 11.199,-14.914 11.581,-26.47 0.401,-12.21 -4.117,-23.032 -12.904,-28.786 -1.817,-1.19 -4.646,-2.108 -7.279,-3.309 -4.905,-2.236 -6.718,-3.486 -12.903,-2.978 -0.223,0.017 -0.446,-0.016 -0.665,-0.001 z"
       id="path59"
       inkscape:connector-curvature="0"
       style="fill:#ffffff" /><path
       d="m 522.105,189.46 c 6.187,-0.508 8,0.742 12.903,2.978 2.632,1.2 5.461,2.119 7.279,3.309 8.787,5.754 13.306,16.576 12.904,28.786 -0.382,11.556 -4.113,20.085 -11.581,26.47 -1.918,1.64 -5.103,3.209 -7.61,4.632 -5.123,2.906 -8.114,4.158 -14.228,4.632 -8.635,0.67 -14.028,-1.901 -20.515,-5.956 -6.588,-4.119 -9.666,-6.895 -12.242,-14.228 -3.911,-11.128 -4.314,-26.74 2.647,-36.727 5.874,-8.426 15.831,-12.952 29.778,-13.897 0.223,-0.014 0.446,0.019 0.665,0.001 z m 3.64,7.279 c -1.445,-0.034 -2.555,-1.223 -3.971,-1.654 -6.499,-1.981 -15.446,1.238 -20.184,4.301 -8.341,5.394 -13.701,18.809 -10.588,32.095 2.059,8.786 6.662,14.816 13.566,18.86 2.943,1.724 7.424,3.759 10.257,4.301 14.05,2.686 32.812,-8.75 35.073,-19.853 2.774,-13.635 -0.276,-28.491 -10.258,-35.072 -2.978,-1.964 -6.913,-2.638 -10.588,-4.301 -1.915,0.604 -1.131,1.374 -3.307,1.323 z"
       id="path61"
       inkscape:connector-curvature="0"
       style="fill:#179665" /><path
       d="m 529.054,195.416 c 3.675,1.664 7.61,2.337 10.588,4.301 9.981,6.582 13.033,21.437 10.258,35.072 -2.261,11.102 -21.023,22.539 -35.073,19.853 -2.833,-0.542 -7.312,-2.577 -10.257,-4.301 -6.904,-4.043 -11.507,-10.074 -13.566,-18.86 -3.113,-13.286 2.247,-26.701 10.588,-32.095 4.737,-3.062 13.685,-6.283 20.184,-4.301 1.416,0.432 2.525,1.621 3.971,1.654 2.174,0.051 1.39,-0.719 3.307,-1.323 z m -6.287,5.956 c -2.837,3.982 -5.507,7.956 -8.934,11.581 -2.045,2.164 -6.687,4.977 -2.978,7.941 5.469,-1.149 6.92,-8.078 10.588,-9.926 -0.946,8.653 -0.484,17.377 -0.662,25.477 -0.084,3.823 -2.203,8.829 0.662,11.912 4.154,0.521 3.021,-2.93 2.978,-5.625 -0.221,-13.766 2.11,-28.626 0.992,-40.697 -0.725,-0.379 -1.351,-0.856 -2.646,-0.663 z"
       id="path63"
       inkscape:connector-curvature="0"
       style="fill:#ffffff" /><path
       d="m 525.414,202.033 c 1.118,12.071 -1.213,26.931 -0.992,40.697 0.043,2.695 1.177,6.146 -2.978,5.625 -2.864,-3.083 -0.746,-8.089 -0.662,-11.912 0.177,-8.1 -0.284,-16.824 0.662,-25.477 -3.667,1.848 -5.119,8.777 -10.589,9.926 -3.709,-2.964 0.933,-5.777 2.979,-7.941 3.427,-3.625 6.097,-7.599 8.934,-11.581 1.294,-0.191 1.92,0.286 2.646,0.663 z"
       id="path65"
       inkscape:connector-curvature="0"
       style="fill:#179665" /></g><g
     id="_x30_1-CALENDAR"
     transform="translate(-1.1760425e-5,13.998989)"><g
       id="g68"><path
         d="m 236.755,460.276 v -15.484 h 4.16 l 2.981,10.806 h 0.041 l 3.003,-10.806 h 4.203 v 15.484 h -2.573 v -12.182 h -0.043 l -3.474,12.182 h -2.252 l -3.431,-12.182 h -0.043 v 12.182 h -2.572 z"
         id="path70"
         inkscape:connector-curvature="0"
         style="fill:#707173" /></g><g
       id="g72"><path
         d="m 283.608,444.771 v 2.486 h -4.053 v 13.018 h -2.959 v -13.018 h -4.053 v -2.486 h 11.065 z"
         id="path74"
         inkscape:connector-curvature="0"
         style="fill:#707173" /></g><g
       id="g76"><path
         d="m 303.698,444.792 h 2.767 l 1.951,10.445 h 0.043 l 2.208,-10.445 h 3.045 l 2.037,10.445 h 0.043 l 2.122,-10.445 h 2.767 l -3.216,15.484 h -3.002 l -2.252,-11.024 h -0.042 l -2.23,11.024 h -3.003 l -3.238,-15.484 z"
         id="path78"
         inkscape:connector-curvature="0"
         style="fill:#707173" /></g><g
       id="g80"><path
         d="m 351.858,444.771 v 2.486 h -4.053 v 13.018 h -2.959 v -13.018 h -4.053 v -2.486 h 11.065 z"
         id="path82"
         inkscape:connector-curvature="0"
         style="fill:#707173" /></g><g
       id="g84"><path
         d="m 376.162,460.276 v -15.484 h 9.864 v 2.487 h -6.905 v 3.688 h 5.168 v 2.488 h -5.168 v 6.821 h -2.959 z"
         id="path86"
         inkscape:connector-curvature="0"
         style="fill:#707173" /></g><g
       id="g88"><path
         d="m 417.007,448.91 c -0.451,-1.201 -1.372,-2.017 -2.767,-2.017 -1.286,0 -2.207,0.516 -2.207,1.717 0,2.657 7.976,2.102 7.976,7.119 0,3.174 -1.994,4.76 -5.424,4.76 -2.532,0 -4.911,-1.414 -5.791,-3.666 l 2.445,-1.072 c 0.707,1.459 1.629,2.424 3.365,2.424 1.48,0 2.617,-0.559 2.617,-2.059 0,-3.044 -7.977,-2.445 -7.977,-7.206 0,-2.768 2.315,-4.332 4.995,-4.332 2.488,0 4.547,1.244 5.468,3.495 l -2.7,0.837 z"
         id="path90"
         inkscape:connector-curvature="0"
         style="fill:#707173" /></g><g
       id="g92"><path
         d="m 451.132,448.91 c -0.451,-1.201 -1.372,-2.017 -2.767,-2.017 -1.286,0 -2.207,0.516 -2.207,1.717 0,2.657 7.976,2.102 7.976,7.119 0,3.174 -1.994,4.76 -5.424,4.76 -2.532,0 -4.911,-1.414 -5.791,-3.666 l 2.445,-1.072 c 0.707,1.459 1.629,2.424 3.364,2.424 1.48,0 2.617,-0.559 2.617,-2.059 0,-3.044 -7.977,-2.445 -7.977,-7.206 0,-2.768 2.314,-4.332 4.995,-4.332 2.487,0 4.547,1.244 5.468,3.495 l -2.699,0.837 z"
         id="path94"
         inkscape:connector-curvature="0"
         style="fill:#707173" /></g><g
       id="g96"><path
         d="m 411.346,485.624 v -1.328 h 2.681 v -12.588 l -2.98,0.299 V 471 c 1.072,-0.322 2.295,-0.645 2.98,-1.072 h 1.545 v 14.367 h 2.637 v 1.328 h -6.863 z"
         id="path98"
         inkscape:connector-curvature="0"
         style="fill:#707173" /></g><g
       id="g100"><path
         d="m 453.62,485.624 h -10.058 v -1.629 c 2.682,-5.426 8.449,-5.746 8.449,-9.906 0,-1.803 -1.158,-2.832 -3.131,-2.832 -2.229,0 -3.389,1.803 -3.646,3.367 l -1.521,-0.342 c 0.493,-2.145 1.758,-4.354 5.21,-4.354 2.531,0 4.718,1.459 4.718,4.117 0,4.717 -6.774,6.002 -8.448,10.25 h 8.428 l -10e-4,1.329 0,0 z"
         id="path102"
         inkscape:connector-curvature="0"
         style="fill:#707173" /></g><g
       id="g104"><path
         d="m 241.558,501.604 c 2.272,0 4.16,-0.322 4.16,-2.166 0,-1.113 -0.944,-1.846 -2.23,-1.846 -1.308,0 -2.188,0.732 -2.959,1.545 l -1.845,-1.672 c 1.502,-1.586 3.131,-2.188 4.718,-2.188 2.831,0 5.104,1.373 5.104,3.986 0,1.543 -0.857,2.701 -2.338,3.348 1.845,0.58 2.853,1.994 2.853,3.924 0,3.236 -2.744,4.654 -5.489,4.654 -2.188,0 -4.396,-1.031 -5.468,-3.004 l 2.229,-1.268 c 0.75,1.268 1.779,1.953 3.26,1.953 1.373,0 2.681,-0.838 2.681,-2.338 0,-2.529 -2.81,-2.615 -4.675,-2.615 l -0.001,-2.313 0,0 z"
         id="path106"
         inkscape:connector-curvature="0"
         style="fill:#179665" /></g><g
       id="g108"><path
         d="m 281.001,507.331 v 3.643 h -1.544 v -3.643 h -7.12 v -1.332 l 6.39,-10.506 h 2.274 v 10.506 h 2.658 v 1.332 h -2.658 z m -7.033,-1.332 h 5.489 v -8.875 h -0.064 l -5.425,8.875 z"
         id="path110"
         inkscape:connector-curvature="0"
         style="fill:#707173" /></g><g
       id="g112"><path
         d="m 316.39,496.821 h -6.646 l -0.387,4.953 c 1.009,-0.922 2.08,-1.264 3.174,-1.264 2.574,0 4.954,1.756 4.954,5.232 0,2.357 -1.415,5.447 -5.361,5.447 -2.638,0 -3.967,-1.463 -4.932,-2.963 l 1.394,-0.729 c 0.75,1.393 1.951,2.357 3.581,2.357 2.037,0 3.688,-1.199 3.688,-4.115 0,-2.275 -1.329,-3.902 -3.474,-3.902 -1.502,0 -2.638,0.898 -3.26,2.336 l -1.352,-0.299 0.688,-8.385 h 7.933 v 1.332 l 0,0 z"
         id="path114"
         inkscape:connector-curvature="0"
         style="fill:#707173" /></g><g
       id="g116"><path
         d="m 350.086,497.487 c -0.707,-0.557 -1.436,-0.879 -2.637,-0.879 -2.445,0 -4.718,2.016 -4.761,6.475 0.943,-0.986 2.101,-1.844 4.245,-1.844 2.317,0 4.654,1.631 4.654,4.975 0,3.303 -2.424,4.979 -4.997,4.979 -3.216,0 -5.532,-1.889 -5.532,-7.164 0,-4.891 2.188,-8.748 6.348,-8.748 1.673,0 2.895,0.471 3.345,0.898 l -0.665,1.308 z m -3.365,5.082 c -1.888,0 -3.861,1.545 -3.989,3.301 0.085,2.189 1.501,3.988 3.731,3.988 2.188,0 3.495,-1.5 3.495,-3.602 0,-2.402 -1.608,-3.687 -3.237,-3.687 z"
         id="path118"
         inkscape:connector-curvature="0"
         style="fill:#707173" /></g><g
       id="g120"><path
         d="m 375.142,495.493 h 10.614 v 1.607 l -6.369,13.873 h -3.065 l 6.261,-13.078 h -7.44 l -10e-4,-2.402 0,0 z"
         id="path122"
         inkscape:connector-curvature="0"
         style="fill:#179665" /></g><g
       id="g124"><path
         d="m 414.563,511.19 c -3.796,0 -5.64,-1.887 -5.64,-4.246 0,-1.973 1.545,-3.346 3.388,-4.205 v -0.043 c -1.715,-0.643 -2.744,-1.949 -2.744,-3.559 0,-2.529 2.144,-3.859 4.996,-3.859 2.852,0 4.996,1.33 4.996,3.859 0,1.609 -1.029,2.916 -2.745,3.559 v 0.043 c 1.845,0.666 3.389,2.104 3.389,4.205 0,2.359 -1.845,4.246 -5.64,4.246 z m 0,-1.332 c 2.809,0 4.01,-1.543 4.01,-2.914 0,-1.803 -1.844,-2.703 -4.289,-3.52 -1.886,0.816 -3.73,1.717 -3.73,3.52 -10e-4,1.371 1.2,2.914 4.009,2.914 z m 0,-13.25 c -1.694,0 -3.366,0.729 -3.366,2.445 0,1.67 2.101,2.615 3.366,2.98 1.716,-0.43 3.366,-1.48 3.366,-2.98 0,-1.717 -1.672,-2.445 -3.366,-2.445 z"
         id="path126"
         inkscape:connector-curvature="0"
         style="fill:#707173" /></g><g
       id="g128"><path
         d="m 444.936,508.981 c 0.707,0.555 1.437,0.877 2.638,0.877 2.444,0 4.566,-2.186 4.761,-6.475 -0.943,0.986 -2.102,1.844 -4.245,1.844 -2.315,0 -4.654,-1.629 -4.654,-4.973 0,-3.305 2.424,-4.977 4.997,-4.977 3.218,0 5.532,1.885 5.532,7.162 0,4.891 -2.188,8.75 -6.348,8.75 -1.672,0 -2.896,-0.475 -3.347,-0.902 l 0.666,-1.306 z m 3.366,-5.084 c 1.888,0 3.347,-1.244 3.944,-2.871 -0.042,-2.701 -1.457,-4.418 -3.688,-4.418 -2.188,0 -3.494,1.5 -3.494,3.602 0,2.402 1.608,3.687 3.238,3.687 z"
         id="path130"
         inkscape:connector-curvature="0"
         style="fill:#707173" /></g><g
       id="g132"><path
         d="m 234.276,536.323 v -1.328 h 2.68 v -12.588 l -2.979,0.299 v -1.004 c 1.072,-0.322 2.294,-0.646 2.979,-1.074 h 1.544 v 14.367 h 2.639 v 1.328 h -6.863 z"
         id="path134"
         inkscape:connector-curvature="0"
         style="fill:#707173" /><path
         d="m 250.385,520.627 c 3.365,0 5.468,2.357 5.468,7.955 0,5.598 -2.103,7.957 -5.468,7.957 -3.367,0 -5.468,-2.359 -5.468,-7.957 0,-5.598 2.101,-7.955 5.468,-7.955 z m 0,14.582 c 2.509,0 3.838,-1.93 3.838,-6.627 0,-4.695 -1.329,-6.625 -3.838,-6.625 -2.51,0 -3.839,1.93 -3.839,6.625 0,4.698 1.329,6.627 3.839,6.627 z"
         id="path136"
         inkscape:connector-curvature="0"
         style="fill:#707173" /></g><g
       id="g138"><path
         d="m 268.208,536.323 v -2.143 h 2.401 V 523.5 h -2.744 v -1.799 c 1.415,-0.066 2.658,-0.387 3.366,-1.074 h 2.166 v 13.553 h 2.379 v 2.143 h -7.568 z"
         id="path140"
         inkscape:connector-curvature="0"
         style="fill:#179665" /><path
         d="m 281.1,536.323 v -2.143 h 2.402 V 523.5 h -2.745 v -1.799 c 1.416,-0.066 2.658,-0.387 3.367,-1.074 h 2.165 v 13.553 h 2.38 v 2.143 H 281.1 z"
         id="path142"
         inkscape:connector-curvature="0"
         style="fill:#179665" /></g><g
       id="g144"><path
         d="m 302.333,536.323 v -2.143 h 2.401 V 523.5 h -2.744 v -1.799 c 1.415,-0.066 2.658,-0.387 3.366,-1.074 h 2.166 v 13.553 h 2.379 v 2.143 h -7.568 z"
         id="path146"
         inkscape:connector-curvature="0"
         style="fill:#179665" /><path
         d="m 313.295,536.323 v -2.551 c 0.471,-2.422 7.634,-5.854 7.634,-8.684 0,-1.352 -0.88,-2.146 -2.294,-2.146 -1.544,0 -2.445,1.031 -2.788,2.445 l -2.487,-0.535 c 0.321,-2.379 2.552,-4.225 5.317,-4.225 2.725,0 5.04,1.566 5.04,4.461 0,3.773 -3.475,5.316 -7.334,8.834 h 7.334 v 2.4 h -10.422 l 0,10e-4 z"
         id="path148"
         inkscape:connector-curvature="0"
         style="fill:#179665" /></g><g
       id="g150"><path
         d="m 336.651,536.323 v -1.328 h 2.68 v -12.588 l -2.979,0.299 v -1.004 c 1.072,-0.322 2.294,-0.646 2.979,-1.074 h 1.544 v 14.367 h 2.639 v 1.328 h -6.863 z"
         id="path152"
         inkscape:connector-curvature="0"
         style="fill:#707173" /><path
         d="m 348.192,532.637 c 1.18,1.586 2.638,2.572 4.246,2.572 2.273,0 3.646,-1.158 3.646,-3.002 0,-2.166 -1.287,-3.473 -4.375,-3.473 h -1.521 v -1.332 h 0.922 c 3.087,0 4.418,-0.984 4.418,-2.895 0,-1.566 -1.353,-2.551 -2.831,-2.551 -1.887,0 -2.702,0.814 -3.731,2.143 l -1.266,-0.855 c 1.051,-1.459 2.51,-2.617 4.997,-2.617 2.744,0 4.459,1.416 4.459,3.859 0,1.865 -1.2,2.961 -2.401,3.432 2.445,0.943 2.959,2.703 2.959,4.117 0,2.637 -2.036,4.504 -5.274,4.504 -2.96,0 -4.76,-1.846 -5.49,-3.047 l 1.242,-0.855 z"
         id="path154"
         inkscape:connector-curvature="0"
         style="fill:#707173" /></g><g
       id="g156"><path
         d="m 370.776,536.323 v -1.328 h 2.68 v -12.588 l -2.979,0.299 v -1.004 c 1.072,-0.322 2.294,-0.646 2.979,-1.074 H 375 v 14.367 h 2.639 v 1.328 h -6.863 z"
         id="path158"
         inkscape:connector-curvature="0"
         style="fill:#707173" /><path
         d="m 389.823,532.68 v 3.645 h -1.544 v -3.645 h -7.119 v -1.33 l 6.39,-10.508 h 2.273 v 10.508 h 2.658 v 1.33 h -2.658 z m -7.033,-1.33 h 5.489 v -8.877 h -0.064 l -5.425,8.877 z"
         id="path160"
         inkscape:connector-curvature="0"
         style="fill:#707173" /></g><g
       id="g162"><path
         d="m 404.901,536.323 v -1.328 h 2.68 v -12.588 l -2.979,0.299 v -1.004 c 1.072,-0.322 2.294,-0.646 2.979,-1.074 h 1.544 v 14.367 h 2.639 v 1.328 h -6.863 z"
         id="path164"
         inkscape:connector-curvature="0"
         style="fill:#707173" /><path
         d="m 425.212,522.17 h -6.647 l -0.386,4.953 c 1.008,-0.92 2.079,-1.264 3.174,-1.264 2.572,0 4.952,1.758 4.952,5.232 0,2.359 -1.415,5.447 -5.359,5.447 -2.639,0 -3.968,-1.461 -4.933,-2.961 l 1.394,-0.73 c 0.751,1.396 1.952,2.359 3.582,2.359 2.036,0 3.688,-1.201 3.688,-4.117 0,-2.271 -1.329,-3.9 -3.474,-3.9 -1.501,0 -2.638,0.896 -3.26,2.336 l -1.351,-0.299 0.687,-8.387 h 7.934 l -0.001,1.331 0,0 z"
         id="path166"
         inkscape:connector-curvature="0"
         style="fill:#707173" /></g><g
       id="g168"><path
         d="m 439.026,536.323 v -1.328 h 2.68 v -12.588 l -2.979,0.299 v -1.004 c 1.072,-0.322 2.295,-0.646 2.979,-1.074 h 1.544 v 14.367 h 2.639 v 1.328 h -6.863 z"
         id="path170"
         inkscape:connector-curvature="0"
         style="fill:#707173" /><path
         d="m 458.908,522.836 c -0.707,-0.557 -1.437,-0.879 -2.637,-0.879 -2.444,0 -4.718,2.016 -4.762,6.475 0.943,-0.982 2.103,-1.844 4.246,-1.844 2.316,0 4.653,1.631 4.653,4.975 0,3.305 -2.423,4.979 -4.996,4.979 -3.216,0 -5.533,-1.887 -5.533,-7.162 0,-4.891 2.188,-8.75 6.348,-8.75 1.675,0 2.896,0.473 3.347,0.9 l -0.666,1.306 z m -3.366,5.082 c -1.888,0 -3.86,1.545 -3.988,3.301 0.085,2.189 1.5,3.99 3.73,3.99 2.188,0 3.495,-1.502 3.495,-3.604 10e-4,-2.401 -1.608,-3.687 -3.237,-3.687 z"
         id="path172"
         inkscape:connector-curvature="0"
         style="fill:#707173" /></g><g
       id="g174"><path
         d="m 234.276,561.674 v -1.328 h 2.68 v -12.59 l -2.979,0.301 v -1.006 c 1.072,-0.32 2.294,-0.645 2.979,-1.072 h 1.544 v 14.367 h 2.639 v 1.328 h -6.863 l 0,0 z"
         id="path176"
         inkscape:connector-curvature="0"
         style="fill:#707173" /><path
         d="m 245.431,547.522 v -1.328 h 9.821 v 0.941 l -6.541,14.539 h -1.801 l 6.369,-14.152 h -7.848 z"
         id="path178"
         inkscape:connector-curvature="0"
         style="fill:#707173" /></g><g
       id="g180"><path
         d="m 268.401,561.674 v -1.328 h 2.68 v -12.59 l -2.979,0.301 v -1.006 c 1.072,-0.32 2.294,-0.645 2.979,-1.072 h 1.544 v 14.367 h 2.639 v 1.328 h -6.863 l 0,0 z"
         id="path182"
         inkscape:connector-curvature="0"
         style="fill:#707173" /><path
         d="m 284.51,561.889 c -3.796,0 -5.641,-1.887 -5.641,-4.244 0,-1.975 1.545,-3.348 3.389,-4.203 v -0.043 c -1.716,-0.645 -2.745,-1.951 -2.745,-3.562 0,-2.529 2.145,-3.857 4.997,-3.857 2.852,0 4.995,1.328 4.995,3.857 0,1.609 -1.029,2.918 -2.744,3.562 v 0.043 c 1.845,0.664 3.388,2.102 3.388,4.203 0,2.357 -1.844,4.244 -5.639,4.244 z m 0,-1.33 c 2.808,0 4.009,-1.545 4.009,-2.916 0,-1.803 -1.843,-2.701 -4.288,-3.518 -1.887,0.814 -3.731,1.715 -3.731,3.518 0,1.371 1.201,2.916 4.01,2.916 z m 0,-13.252 c -1.695,0 -3.367,0.73 -3.367,2.445 0,1.67 2.102,2.615 3.367,2.98 1.715,-0.428 3.365,-1.48 3.365,-2.98 0,-1.716 -1.671,-2.445 -3.365,-2.445 z"
         id="path184"
         inkscape:connector-curvature="0"
         style="fill:#707173" /></g><g
       id="g186"><path
         d="m 302.526,561.674 v -1.328 h 2.68 v -12.59 l -2.979,0.301 v -1.006 c 1.072,-0.32 2.294,-0.645 2.979,-1.072 h 1.544 v 14.367 h 2.639 v 1.328 h -6.863 l 0,0 z"
         id="path188"
         inkscape:connector-curvature="0"
         style="fill:#707173" /><path
         d="m 314.882,559.68 c 0.707,0.559 1.436,0.881 2.637,0.881 2.445,0 4.568,-2.188 4.761,-6.477 -0.943,0.984 -2.101,1.844 -4.245,1.844 -2.315,0 -4.654,-1.631 -4.654,-4.975 0,-3.303 2.424,-4.977 4.997,-4.977 3.217,0 5.532,1.887 5.532,7.162 0,4.891 -2.188,8.75 -6.348,8.75 -1.672,0 -2.895,-0.473 -3.345,-0.9 l 0.665,-1.308 z m 3.368,-5.084 c 1.886,0 3.345,-1.244 3.944,-2.871 -0.042,-2.699 -1.458,-4.418 -3.688,-4.418 -2.188,0 -3.495,1.5 -3.495,3.605 -0.001,2.401 1.608,3.684 3.239,3.684 z"
         id="path190"
         inkscape:connector-curvature="0"
         style="fill:#707173" /></g><g
       id="g192"><path
         d="m 344.799,561.674 h -10.057 v -1.631 c 2.681,-5.424 8.449,-5.746 8.449,-9.904 0,-1.803 -1.158,-2.832 -3.131,-2.832 -2.23,0 -3.389,1.803 -3.646,3.367 l -1.521,-0.344 c 0.492,-2.145 1.758,-4.354 5.21,-4.354 2.531,0 4.718,1.459 4.718,4.119 0,4.717 -6.775,6.002 -8.449,10.25 h 8.428 l -0.001,1.329 0,0 z"
         id="path194"
         inkscape:connector-curvature="0"
         style="fill:#707173" /><path
         d="m 352.76,545.979 c 3.365,0 5.468,2.357 5.468,7.953 0,5.6 -2.103,7.957 -5.468,7.957 -3.367,0 -5.468,-2.357 -5.468,-7.957 0,-5.596 2.101,-7.953 5.468,-7.953 z m 0,14.58 c 2.509,0 3.838,-1.93 3.838,-6.627 0,-4.693 -1.329,-6.625 -3.838,-6.625 -2.51,0 -3.839,1.932 -3.839,6.625 0,4.697 1.329,6.627 3.839,6.627 z"
         id="path196"
         inkscape:connector-curvature="0"
         style="fill:#707173" /></g><g
       id="g198"><path
         d="m 378.924,561.674 h -10.057 v -1.631 c 2.681,-5.424 8.449,-5.746 8.449,-9.904 0,-1.803 -1.158,-2.832 -3.131,-2.832 -2.23,0 -3.389,1.803 -3.646,3.367 l -1.521,-0.344 c 0.492,-2.145 1.758,-4.354 5.21,-4.354 2.531,0 4.718,1.459 4.718,4.119 0,4.717 -6.775,6.002 -8.449,10.25 h 8.428 l -0.001,1.329 0,0 z"
         id="path200"
         inkscape:connector-curvature="0"
         style="fill:#707173" /><path
         d="m 383.668,561.674 v -1.328 h 2.68 v -12.59 l -2.979,0.301 v -1.006 c 1.071,-0.32 2.294,-0.645 2.979,-1.072 h 1.545 v 14.367 h 2.637 v 1.328 h -6.862 l 0,0 z"
         id="path202"
         inkscape:connector-curvature="0"
         style="fill:#707173" /></g><g
       id="g204"><path
         d="m 413.049,561.674 h -10.057 v -1.631 c 2.681,-5.424 8.449,-5.746 8.449,-9.904 0,-1.803 -1.158,-2.832 -3.131,-2.832 -2.23,0 -3.389,1.803 -3.646,3.367 l -1.521,-0.344 c 0.492,-2.145 1.758,-4.354 5.21,-4.354 2.531,0 4.718,1.459 4.718,4.119 0,4.717 -6.775,6.002 -8.449,10.25 h 8.428 l -0.001,1.329 0,0 z"
         id="path206"
         inkscape:connector-curvature="0"
         style="fill:#707173" /><path
         d="m 425.941,561.674 h -10.057 v -1.631 c 2.68,-5.424 8.448,-5.746 8.448,-9.904 0,-1.803 -1.157,-2.832 -3.131,-2.832 -2.23,0 -3.388,1.803 -3.646,3.367 l -1.522,-0.344 c 0.494,-2.145 1.759,-4.354 5.21,-4.354 2.532,0 4.718,1.459 4.718,4.119 0,4.717 -6.775,6.002 -8.448,10.25 h 8.427 v 1.329 l 10e-4,0 z"
         id="path208"
         inkscape:connector-curvature="0"
         style="fill:#707173" /></g><g
       id="g210"><path
         d="m 447.174,561.674 h -10.057 v -1.631 c 2.681,-5.424 8.449,-5.746 8.449,-9.904 0,-1.803 -1.158,-2.832 -3.132,-2.832 -2.229,0 -3.389,1.803 -3.646,3.367 l -1.521,-0.344 c 0.492,-2.145 1.759,-4.354 5.21,-4.354 2.531,0 4.719,1.459 4.719,4.119 0,4.717 -6.775,6.002 -8.449,10.25 h 8.428 l -0.001,1.329 0,0 z"
         id="path212"
         inkscape:connector-curvature="0"
         style="fill:#707173" /><path
         d="m 450.567,557.987 c 1.18,1.586 2.638,2.572 4.245,2.572 2.273,0 3.646,-1.158 3.646,-3.002 0,-2.166 -1.287,-3.473 -4.375,-3.473 h -1.521 v -1.33 h 0.923 c 3.087,0 4.418,-0.986 4.418,-2.895 0,-1.566 -1.354,-2.555 -2.831,-2.555 -1.888,0 -2.702,0.814 -3.731,2.145 l -1.266,-0.855 c 1.051,-1.459 2.51,-2.617 4.997,-2.617 2.744,0 4.459,1.416 4.459,3.859 0,1.865 -1.2,2.961 -2.401,3.434 2.445,0.941 2.959,2.701 2.959,4.115 0,2.639 -2.036,4.504 -5.273,4.504 -2.96,0 -4.761,-1.846 -5.49,-3.047 l 1.241,-0.855 z"
         id="path214"
         inkscape:connector-curvature="0"
         style="fill:#707173" /></g><g
       id="g216"><path
         d="m 242.424,587.024 h -10.057 v -1.631 c 2.681,-5.424 8.449,-5.746 8.449,-9.904 0,-1.803 -1.158,-2.832 -3.131,-2.832 -2.23,0 -3.389,1.801 -3.646,3.367 l -1.521,-0.342 c 0.492,-2.146 1.758,-4.355 5.21,-4.355 2.531,0 4.718,1.461 4.718,4.119 0,4.717 -6.775,6.002 -8.449,10.25 h 8.428 l -0.001,1.328 0,0 z"
         id="path218"
         inkscape:connector-curvature="0"
         style="fill:#707173" /><path
         d="m 253.323,583.379 v 3.646 h -1.544 v -3.646 h -7.119 v -1.33 l 6.39,-10.506 h 2.273 v 10.506 h 2.658 v 1.33 h -2.658 z m -7.033,-1.33 h 5.489 v -8.877 h -0.064 l -5.425,8.877 z"
         id="path220"
         inkscape:connector-curvature="0"
         style="fill:#707173" /></g><g
       id="g222"><path
         d="m 276.549,587.024 h -10.057 v -1.631 c 2.681,-5.424 8.449,-5.746 8.449,-9.904 0,-1.803 -1.158,-2.832 -3.131,-2.832 -2.23,0 -3.389,1.801 -3.646,3.367 l -1.521,-0.342 c 0.492,-2.146 1.758,-4.355 5.21,-4.355 2.531,0 4.718,1.461 4.718,4.119 0,4.717 -6.775,6.002 -8.449,10.25 h 8.428 l -0.001,1.328 0,0 z"
         id="path224"
         inkscape:connector-curvature="0"
         style="fill:#707173" /><path
         d="m 288.712,572.872 h -6.647 l -0.386,4.953 c 1.008,-0.922 2.079,-1.266 3.174,-1.266 2.573,0 4.953,1.758 4.953,5.234 0,2.357 -1.415,5.445 -5.36,5.445 -2.639,0 -3.968,-1.459 -4.933,-2.961 l 1.394,-0.73 c 0.751,1.396 1.952,2.359 3.582,2.359 2.036,0 3.688,-1.201 3.688,-4.115 0,-2.275 -1.329,-3.902 -3.474,-3.902 -1.501,0 -2.638,0.898 -3.26,2.338 l -1.351,-0.303 0.687,-8.383 h 7.934 l -0.001,1.331 0,0 z"
         id="path226"
         inkscape:connector-curvature="0"
         style="fill:#707173" /></g><g
       id="g228"><path
         d="m 310.674,587.024 h -10.057 v -1.631 c 2.681,-5.424 8.449,-5.746 8.449,-9.904 0,-1.803 -1.158,-2.832 -3.131,-2.832 -2.23,0 -3.389,1.801 -3.646,3.367 l -1.521,-0.342 c 0.492,-2.146 1.758,-4.355 5.21,-4.355 2.531,0 4.718,1.461 4.718,4.119 0,4.717 -6.775,6.002 -8.449,10.25 h 8.428 l -0.001,1.328 0,0 z"
         id="path230"
         inkscape:connector-curvature="0"
         style="fill:#707173" /><path
         d="m 322.408,573.536 c -0.707,-0.557 -1.436,-0.879 -2.637,-0.879 -2.444,0 -4.717,2.018 -4.761,6.475 0.943,-0.982 2.102,-1.842 4.246,-1.842 2.316,0 4.653,1.629 4.653,4.973 0,3.307 -2.423,4.979 -4.996,4.979 -3.216,0 -5.533,-1.889 -5.533,-7.162 0,-4.891 2.188,-8.75 6.348,-8.75 1.674,0 2.895,0.473 3.346,0.902 l -0.666,1.304 z m -3.366,5.084 c -1.888,0 -3.86,1.543 -3.988,3.301 0.085,2.189 1.5,3.988 3.73,3.988 2.188,0 3.495,-1.5 3.495,-3.604 10e-4,-2.4 -1.608,-3.685 -3.237,-3.685 z"
         id="path232"
         inkscape:connector-curvature="0"
         style="fill:#707173" /></g><g
       id="g234"><path
         d="m 344.799,587.024 h -10.057 v -1.631 c 2.681,-5.424 8.449,-5.746 8.449,-9.904 0,-1.803 -1.158,-2.832 -3.131,-2.832 -2.23,0 -3.389,1.801 -3.646,3.367 l -1.521,-0.342 c 0.492,-2.146 1.758,-4.355 5.21,-4.355 2.531,0 4.718,1.461 4.718,4.119 0,4.717 -6.775,6.002 -8.449,10.25 h 8.428 l -0.001,1.328 0,0 z"
         id="path236"
         inkscape:connector-curvature="0"
         style="fill:#707173" /><path
         d="m 347.806,572.872 v -1.328 h 9.821 v 0.941 l -6.541,14.539 h -1.801 l 6.369,-14.152 h -7.848 z"
         id="path238"
         inkscape:connector-curvature="0"
         style="fill:#707173" /></g><g
       id="g240"><path
         d="m 378.924,587.024 h -10.057 v -1.631 c 2.681,-5.424 8.449,-5.746 8.449,-9.904 0,-1.803 -1.158,-2.832 -3.131,-2.832 -2.23,0 -3.389,1.801 -3.646,3.367 l -1.521,-0.342 c 0.492,-2.146 1.758,-4.355 5.21,-4.355 2.531,0 4.718,1.461 4.718,4.119 0,4.717 -6.775,6.002 -8.449,10.25 h 8.428 l -0.001,1.328 0,0 z"
         id="path242"
         inkscape:connector-curvature="0"
         style="fill:#707173" /><path
         d="m 386.885,587.239 c -3.796,0 -5.641,-1.887 -5.641,-4.244 0,-1.973 1.545,-3.348 3.389,-4.205 v -0.043 c -1.716,-0.643 -2.745,-1.951 -2.745,-3.561 0,-2.529 2.145,-3.859 4.997,-3.859 2.852,0 4.995,1.33 4.995,3.859 0,1.609 -1.029,2.918 -2.744,3.561 v 0.043 c 1.845,0.664 3.388,2.102 3.388,4.205 0,2.359 -1.844,4.244 -5.639,4.244 z m 0,-1.33 c 2.808,0 4.009,-1.543 4.009,-2.914 0,-1.803 -1.843,-2.705 -4.288,-3.52 -1.887,0.814 -3.731,1.717 -3.731,3.52 0,1.371 1.201,2.914 4.01,2.914 z m 0,-13.252 c -1.695,0 -3.367,0.729 -3.367,2.445 0,1.672 2.102,2.615 3.367,2.98 1.715,-0.428 3.365,-1.48 3.365,-2.98 0,-1.717 -1.671,-2.445 -3.365,-2.445 z"
         id="path244"
         inkscape:connector-curvature="0"
         style="fill:#707173" /></g><g
       id="g246"><path
         d="m 413.049,587.024 h -10.057 v -1.631 c 2.681,-5.424 8.449,-5.746 8.449,-9.904 0,-1.803 -1.158,-2.832 -3.131,-2.832 -2.23,0 -3.389,1.801 -3.646,3.367 l -1.521,-0.342 c 0.492,-2.146 1.758,-4.355 5.21,-4.355 2.531,0 4.718,1.461 4.718,4.119 0,4.717 -6.775,6.002 -8.449,10.25 h 8.428 l -0.001,1.328 0,0 z"
         id="path248"
         inkscape:connector-curvature="0"
         style="fill:#707173" /><path
         d="m 417.257,585.03 c 0.707,0.557 1.436,0.879 2.637,0.879 2.445,0 4.568,-2.186 4.761,-6.475 -0.943,0.984 -2.102,1.844 -4.245,1.844 -2.315,0 -4.654,-1.631 -4.654,-4.975 0,-3.303 2.424,-4.977 4.997,-4.977 3.217,0 5.532,1.887 5.532,7.162 0,4.891 -2.188,8.75 -6.348,8.75 -1.672,0 -2.895,-0.475 -3.345,-0.9 l 0.665,-1.308 z m 3.368,-5.082 c 1.886,0 3.345,-1.244 3.944,-2.873 -0.042,-2.701 -1.458,-4.418 -3.688,-4.418 -2.188,0 -3.495,1.502 -3.495,3.604 -0.001,2.402 1.608,3.687 3.239,3.687 z"
         id="path250"
         inkscape:connector-curvature="0"
         style="fill:#707173" /></g><g
       id="g252"><path
         d="m 437.675,583.336 c 1.181,1.588 2.637,2.572 4.245,2.572 2.273,0 3.646,-1.158 3.646,-3.002 0,-2.164 -1.287,-3.473 -4.375,-3.473 h -1.522 v -1.33 h 0.922 c 3.088,0 4.418,-0.986 4.418,-2.895 0,-1.566 -1.352,-2.553 -2.831,-2.553 -1.887,0 -2.701,0.814 -3.73,2.145 l -1.267,-0.857 c 1.053,-1.459 2.511,-2.617 4.997,-2.617 2.745,0 4.46,1.418 4.46,3.859 0,1.867 -1.2,2.961 -2.401,3.434 2.444,0.941 2.96,2.701 2.96,4.115 0,2.639 -2.037,4.504 -5.275,4.504 -2.959,0 -4.76,-1.846 -5.489,-3.047 l 1.242,-0.855 z"
         id="path254"
         inkscape:connector-curvature="0"
         style="fill:#707173" /><path
         d="m 455.135,571.327 c 3.365,0 5.468,2.359 5.468,7.955 0,5.6 -2.103,7.957 -5.468,7.957 -3.367,0 -5.468,-2.357 -5.468,-7.957 0,-5.594 2.101,-7.955 5.468,-7.955 z m 0,14.582 c 2.509,0 3.838,-1.93 3.838,-6.627 0,-4.695 -1.329,-6.625 -3.838,-6.625 -2.51,0 -3.839,1.93 -3.839,6.625 0,4.697 1.329,6.627 3.839,6.627 z"
         id="path256"
         inkscape:connector-curvature="0"
         style="fill:#707173" /></g><g
       id="g258"><path
         d="m 232.925,608.688 c 1.18,1.588 2.637,2.57 4.245,2.57 2.273,0 3.646,-1.158 3.646,-3 0,-2.166 -1.287,-3.475 -4.375,-3.475 h -1.522 v -1.33 h 0.922 c 3.088,0 4.418,-0.984 4.418,-2.895 0,-1.566 -1.352,-2.551 -2.831,-2.551 -1.887,0 -2.701,0.814 -3.731,2.143 l -1.266,-0.855 c 1.052,-1.461 2.51,-2.619 4.997,-2.619 2.745,0 4.46,1.418 4.46,3.859 0,1.867 -1.201,2.961 -2.402,3.434 2.445,0.941 2.96,2.701 2.96,4.115 0,2.639 -2.037,4.504 -5.275,4.504 -2.959,0 -4.76,-1.846 -5.489,-3.047 l 1.243,-0.853 z"
         id="path260"
         inkscape:connector-curvature="0"
         style="fill:#707173" /><path
         d="m 247.168,612.374 v -1.328 h 2.68 v -12.588 l -2.979,0.299 v -1.006 c 1.071,-0.322 2.294,-0.645 2.979,-1.074 h 1.545 v 14.369 h 2.637 v 1.328 h -6.862 l 0,0 z"
         id="path262"
         inkscape:connector-curvature="0"
         style="fill:#707173" /></g><g
       id="g264"><path
         d="m 242.964,388.733 c -0.749,0.304 -1.614,0.116 -1.614,0.116 0,0 -2.575,-0.116 -3.98,-1.218 -1.965,-1.545 -2.082,-7.49 -2.082,-7.49 -0.118,-8.051 9.479,-1.824 9.479,-1.824 -4.05,-1.825 -6.812,-2.13 -6.812,2.105 0,3.886 1.545,6.999 1.545,6.999 3.441,0.141 6.016,-1.568 6.016,-1.568 0.702,0.07 2.294,1.193 2.294,1.193 -0.914,0.491 -1.85,0.938 -2.528,1.171 0,0.306 0,0.865 0,1.872 h -2.317 c -0.001,-0.677 -0.001,-0.723 -0.001,-1.356 z m 5.127,-10.089 1.381,1.43 -1.381,1.381 -1.382,-1.381 1.382,-1.43 z"
         id="path266"
         inkscape:connector-curvature="0"
         style="fill:#707173" /><path
         d="m 238.961,390.577 1.382,1.429 -1.382,1.381 -1.381,-1.381 1.381,-1.429 z m 0,2.809 1.382,1.429 -1.382,1.381 -1.381,-1.381 1.381,-1.429 z m 4.003,3.885 c -0.022,-2.106 0.491,-3.839 2.178,-4.144 0,0 -1.171,-0.538 -1.709,-1.076 -0.282,-0.305 -0.445,-0.796 -0.469,-2.458 h 2.317 c 0.024,2.902 0.913,3.276 0.913,3.276 0,0 1.077,0.305 1.592,0.608 0.352,0.258 0.141,0.258 0.141,0.258 -1.615,0 -2.646,1.287 -2.646,3.533 h -2.317 v 0.003 z"
         id="path268"
         inkscape:connector-curvature="0"
         style="fill:#707173" /><path
         d="m 242.964,404.619 c -0.022,-2.105 0.491,-3.838 2.178,-4.144 0,0 -1.171,-0.538 -1.709,-1.075 -0.282,-0.306 -0.445,-0.797 -0.469,-2.458 h 2.317 c 0.024,2.901 0.913,3.276 0.913,3.276 0,0 1.077,0.306 1.592,0.609 0.352,0.256 0.141,0.256 0.141,0.256 -1.615,0 -2.646,1.287 -2.646,3.534 l -2.317,0.002 0,0 z m 9.27,-5.43 1.381,1.429 -1.381,1.38 -1.382,-1.38 1.382,-1.429 z"
         id="path270"
         inkscape:connector-curvature="0"
         style="fill:#707173" /><path
         d="m 245.282,404.125 c 0,3.019 0.141,3.511 0.141,3.511 0.749,0.117 2.505,-1.545 2.505,-1.545 0.233,-0.07 2.294,0.937 2.294,0.937 0,0 -2.2,2.199 -4.752,2.037 0,0 -1.404,-0.141 -2.247,-0.727 0,0 -0.258,-1.077 -0.258,-4.213 h 2.317 l 0,0 z m 8.192,0.305 1.381,1.428 -1.381,1.381 -1.38,-1.381 1.38,-1.428 z m 0.024,2.808 1.382,1.429 -1.382,1.381 -1.381,-1.381 1.381,-1.429 z m 2.084,-1.405 1.381,1.428 -1.381,1.381 -1.382,-1.381 1.382,-1.428 z"
         id="path272"
         inkscape:connector-curvature="0"
         style="fill:#707173" /><path
         d="m 240.484,412.902 c 0,0 -0.305,-2.015 -0.773,-0.634 -0.468,1.383 -0.14,2.014 -0.094,2.364 0.047,0.327 -0.256,0.116 -0.256,0.116 l -0.469,-0.468 c 0,0 -0.258,-0.164 -0.327,-0.444 -0.353,-1.567 -1.218,-2.458 -1.265,-2.505 -0.047,-0.117 -0.094,-0.164 0.047,-0.233 0.233,0 1.218,0.749 1.218,0.749 0.069,0 0.116,-0.469 0.116,-0.469 0,0 0.023,-1.171 1.029,-0.585 1.498,0.89 1.873,2.481 1.826,2.785 -0.07,0.305 -0.351,0.538 -0.351,0.538 l -0.82,-0.959 0.119,-0.255 z m 14.933,7.419 c 0,0 -0.632,-0.772 -1.498,-0.702 -2.2,0.188 -3.956,-0.164 -5.314,-0.702 -1.498,0.843 -2.808,1.381 -3.58,1.498 -0.445,0.069 -2.247,-0.351 -2.247,-0.351 -0.468,-1.171 -0.398,-5.923 -0.398,-5.923 0.982,-0.398 2.974,0 2.974,0 -0.235,0.163 -0.211,0.516 -0.211,0.516 1.193,1.403 2.13,2.247 2.902,2.762 2.152,-1.311 3.301,-2.574 3.581,-2.927 1.1,-1.356 0.89,-1.475 0.89,-1.475 0,0 -0.398,-0.864 0.281,-1.075 0.654,-0.211 1.45,-0.398 2.176,-0.281 1.265,0.21 1.007,1.1 1.007,1.1 -1.568,2.153 -3.932,4.05 -6.109,5.433 1.498,0.326 3.44,0.021 3.44,0.021 0,0 0.843,-0.141 1.358,-0.422 1.124,-0.632 2.364,1.124 2.364,1.124 -1.687,0.187 -1.616,1.404 -1.616,1.404 z m -10.322,-3.932 0.163,2.435 c 0.608,-0.257 1.171,-0.516 1.662,-0.772 -1.24,-0.82 -1.825,-1.663 -1.825,-1.663 z"
         id="path274"
         inkscape:connector-curvature="0"
         style="fill:#707173" /><path
         d="m 256.962,424.46 c -2.785,0.071 -4.19,0.235 -5.572,0.305 -1.31,0.07 -3.837,0.188 -5.477,0.233 -2.387,0.071 -3.44,-0.725 -3.908,-1.122 -0.142,-0.118 0,-0.118 0,-0.118 1.614,-0.093 4.799,-0.396 4.799,-0.396 l 6.717,-0.374 c 2.083,-0.118 3.441,1.472 3.441,1.472 z"
         id="path276"
         inkscape:connector-curvature="0"
         style="fill:#707173" /></g><g
       id="g278"><path
         d="m 280.715,380.213 c 0,0 -0.469,-3.813 -1.381,-1.193 -0.938,2.646 -0.328,3.862 -0.211,4.519 0.047,0.606 -0.491,0.234 -0.491,0.234 l -0.913,-0.891 c 0,0 -0.491,-0.352 -0.632,-0.891 -0.727,-2.972 -2.317,-4.682 -2.411,-4.797 -0.141,-0.211 -0.188,-0.329 0.094,-0.375 0.375,0 2.317,1.403 2.317,1.403 0.163,0 0.233,-0.913 0.233,-0.913 0,0 0.024,-2.294 2.014,-1.101 2.785,1.662 3.534,4.683 3.464,5.29 -0.163,0.633 -0.703,1.03 -0.703,1.03 l -1.544,-1.803 0.164,-0.512 z"
         id="path280"
         inkscape:connector-curvature="0"
         style="fill:#707173" /><path
         d="m 276.666,390.556 c 0,0 -0.211,-4.166 2.996,-4.261 l 9.269,-0.256 c 0.492,-0.024 1.687,1.334 1.687,1.334 -0.913,0 -6.555,0.14 -9.573,0.14 -2.271,0 -2.061,3.043 -2.061,3.043 h -2.318 l 0,0 z"
         id="path282"
         inkscape:connector-curvature="0"
         style="fill:#707173" /><path
         d="m 278.983,389.946 c 0,3.019 0.141,3.51 0.141,3.51 0.749,0.118 2.505,-1.543 2.505,-1.543 0.233,-0.071 2.294,0.936 2.294,0.936 0,0 -2.2,2.2 -4.752,2.036 0,0 -1.404,-0.14 -2.247,-0.725 0,0 -0.258,-1.077 -0.258,-4.214 h 2.317 l 0,0 z m 8.192,0.304 1.381,1.427 -1.381,1.382 -1.381,-1.382 1.381,-1.427 z m 0.024,2.809 1.382,1.429 -1.382,1.381 -1.381,-1.381 1.381,-1.429 z m 2.084,-1.404 1.381,1.428 -1.381,1.38 -1.382,-1.38 1.382,-1.428 z"
         id="path284"
         inkscape:connector-curvature="0"
         style="fill:#707173" /><path
         d="m 276.666,409.464 c 0,0 -0.258,-3.041 2.832,-3.205 3.02,-0.164 4.564,-0.211 4.564,-0.211 0,0 -8.356,-1.03 -7.841,-7.326 l 0.211,-2.574 c 1.615,7.841 8.895,9.27 8.895,9.27 3.019,0.468 4.213,0 4.892,0.303 0.702,0.47 0.679,0.938 -0.491,1.007 0,0 -4.845,0.491 -8.146,0.517 -2.833,0.022 -2.599,2.223 -2.599,2.223 h -2.317 v -0.004 z m 9.385,-10.204 c 0,0 -0.233,-1.803 1.616,-2.177 1.638,-0.328 2.574,-0.469 1.872,0.796 -0.679,1.545 -2.341,2.973 -4.144,3.861 -2.621,1.287 -5.781,0.211 -5.781,0.211 0,0 4.401,0.071 6.437,-2.691 z"
         id="path286"
         inkscape:connector-curvature="0"
         style="fill:#707173" /><path
         d="m 276.666,416.788 c -0.022,-2.106 0.491,-3.838 2.178,-4.144 0,0 -1.171,-0.537 -1.709,-1.075 -0.282,-0.306 -0.445,-0.797 -0.469,-2.458 h 2.317 c 0.023,2.901 0.912,3.275 0.912,3.275 0,0 1.078,0.306 1.593,0.609 0.352,0.257 0.141,0.257 0.141,0.257 -1.615,0 -2.646,1.287 -2.646,3.534 l -2.317,0.002 0,0 z m 8.847,-6.834 1.381,1.427 -1.381,1.382 -1.38,-1.382 1.38,-1.427 z m 0,2.808 1.381,1.429 -1.381,1.381 -1.38,-1.381 1.38,-1.429 z m 2.458,-1.404 1.381,1.428 -1.381,1.38 -1.382,-1.38 1.382,-1.428 z"
         id="path288"
         inkscape:connector-curvature="0"
         style="fill:#707173" /><path
         d="m 279.146,418.494 c 0.749,0.188 7.188,-0.374 7.188,-0.374 0.491,-0.023 0.749,-0.07 1.427,-0.354 1.17,-0.49 2.785,1.078 2.785,1.078 0,0 -1.731,0.093 -2.176,1.521 0,0 -0.469,-0.844 -1.733,-0.772 -0.865,0.046 -5.219,0.21 -6.295,0.164 -1.218,-0.047 -2.436,0 -3.465,-0.772 0,0 -0.188,-1.382 -0.188,-2.552 h 2.294 c 0,1.429 0.163,2.061 0.163,2.061 z"
         id="path290"
         inkscape:connector-curvature="0"
         style="fill:#707173" /><path
         d="m 290.664,424.46 c -2.785,0.071 -4.19,0.235 -5.572,0.305 -1.31,0.07 -3.838,0.188 -5.477,0.233 -2.387,0.071 -3.44,-0.725 -3.909,-1.122 -0.141,-0.118 0,-0.118 0,-0.118 1.615,-0.093 4.799,-0.396 4.799,-0.396 l 6.718,-0.374 c 2.082,-0.118 3.441,1.472 3.441,1.472 z"
         id="path292"
         inkscape:connector-curvature="0"
         style="fill:#707173" /></g><g
       id="g294"><path
         d="m 314.417,376.633 c 0,0 -0.469,-3.813 -1.381,-1.192 -0.938,2.645 -0.328,3.861 -0.211,4.518 0.047,0.607 -0.491,0.234 -0.491,0.234 l -0.913,-0.891 c 0,0 -0.491,-0.352 -0.632,-0.891 -0.727,-2.972 -2.317,-4.681 -2.411,-4.797 -0.141,-0.211 -0.188,-0.329 0.094,-0.375 0.375,0 2.317,1.403 2.317,1.403 0.163,0 0.233,-0.912 0.233,-0.912 0,0 0.023,-2.295 2.014,-1.102 2.785,1.662 3.534,4.684 3.464,5.29 -0.163,0.633 -0.703,1.03 -0.703,1.03 l -1.544,-1.802 0.164,-0.513 z"
         id="path296"
         inkscape:connector-curvature="0"
         style="fill:#707173" /><path
         d="m 310.367,386.976 c 0,0 -0.211,-4.166 2.996,-4.261 l 9.269,-0.256 c 0.491,-0.024 1.687,1.334 1.687,1.334 -0.913,0 -6.555,0.14 -9.574,0.14 -2.271,0 -2.061,3.043 -2.061,3.043 h -2.317 l 0,0 z"
         id="path298"
         inkscape:connector-curvature="0"
         style="fill:#707173" /><path
         d="m 310.367,394.746 c 0,-1.265 0.352,-2.763 1.381,-3.559 0,0 -1.381,-1.498 -1.381,-4.847 h 2.316 c -0.022,3.254 0.702,3.652 0.702,3.652 0.913,-0.327 0.68,-2.154 0.68,-2.154 0,0 2.574,0.024 2.574,2.437 0,2.879 -1.989,2.854 -1.989,2.854 l -1.265,-0.796 c -0.585,0.562 -0.702,1.147 -0.702,2.412 l -2.316,10e-4 0,0 z"
         id="path300"
         inkscape:connector-curvature="0"
         style="fill:#707173" /><path
         d="m 306.973,395.165 1.38,1.429 -1.38,1.38 -1.381,-1.38 1.381,-1.429 z m 5.71,-0.913 c 0,3.02 0.142,3.51 0.142,3.51 0.749,0.118 2.505,-1.544 2.505,-1.544 0.233,-0.07 2.294,0.937 2.294,0.937 0,0 -2.2,2.2 -4.752,2.037 0,0 -1.404,-0.141 -2.247,-0.727 0,0 -0.258,-1.076 -0.258,-4.213 h 2.316 l 0,0 z"
         id="path302"
         inkscape:connector-curvature="0"
         style="fill:#707173" /><path
         d="m 312.076,409.463 c -1.942,0.047 -5.665,-1.521 -6.203,-4.283 -0.491,-2.505 1.171,-4.938 1.171,-4.938 -0.516,1.849 0.396,3.627 0.654,4.212 0.491,1.101 3.021,4.238 4.12,4.05 1.054,-0.187 1.896,-1.566 2.224,-1.896 0.234,-0.234 2.669,0.726 2.669,0.726 -1.523,2.129 -3.839,2.107 -4.635,2.129 z"
         id="path304"
         inkscape:connector-curvature="0"
         style="fill:#707173" /><path
         d="m 322.82,420.087 c 0,0 -0.633,-0.771 -1.498,-0.702 -2.2,0.188 -3.956,-0.164 -5.314,-0.702 -1.498,0.844 -2.809,1.382 -3.58,1.498 -0.445,0.069 -2.247,-0.351 -2.247,-0.351 -0.469,-1.171 -0.398,-5.923 -0.398,-5.923 0.982,-0.398 2.973,0 2.973,0 -0.234,0.164 -0.211,0.516 -0.211,0.516 1.193,1.404 2.131,2.247 2.902,2.762 2.153,-1.311 3.301,-2.574 3.582,-2.927 1.099,-1.355 0.89,-1.474 0.89,-1.474 0,0 -0.398,-0.866 0.28,-1.076 0.655,-0.211 1.451,-0.399 2.176,-0.281 1.265,0.21 1.007,1.101 1.007,1.101 -1.567,2.152 -3.932,4.05 -6.108,5.431 1.498,0.328 3.44,0.023 3.44,0.023 0,0 0.843,-0.142 1.358,-0.423 1.123,-0.632 2.363,1.124 2.363,1.124 -1.686,0.188 -1.615,1.404 -1.615,1.404 z m -10.323,-3.932 0.164,2.435 c 0.608,-0.257 1.171,-0.515 1.662,-0.771 -1.24,-0.82 -1.826,-1.664 -1.826,-1.664 z m 14.722,-4.026 c 0,0 -0.374,-2.411 -0.937,-0.749 -0.562,1.662 -0.188,2.411 -0.117,2.832 0.048,0.397 -0.303,0.14 -0.303,0.14 l -0.562,-0.561 c 0,0 -0.305,-0.188 -0.397,-0.538 -0.445,-1.873 -1.451,-2.951 -1.522,-2.996 -0.047,-0.142 -0.094,-0.188 0.071,-0.282 0.28,0 1.451,0.891 1.451,0.891 0.093,0 0.14,-0.562 0.14,-0.562 0,0 0.024,-1.402 1.24,-0.701 1.803,1.055 2.247,2.996 2.201,3.349 -0.094,0.374 -0.421,0.653 -0.421,0.653 l -0.984,-1.146 0.14,-0.33 z"
         id="path306"
         inkscape:connector-curvature="0"
         style="fill:#707173" /><path
         d="m 324.365,424.46 c -2.785,0.071 -4.191,0.235 -5.572,0.305 -1.311,0.07 -3.838,0.188 -5.477,0.233 -2.387,0.071 -3.44,-0.725 -3.909,-1.122 -0.141,-0.118 0,-0.118 0,-0.118 1.615,-0.093 4.799,-0.396 4.799,-0.396 l 6.717,-0.374 c 2.083,-0.118 3.442,1.472 3.442,1.472 z"
         id="path308"
         inkscape:connector-curvature="0"
         style="fill:#707173" /></g><g
       id="g310"><path
         d="m 346.575,375.91 c -0.726,2.061 0.281,2.691 1.193,3.021 0.655,0.233 -0.258,0.421 -0.258,0.421 0,0 -0.678,-0.233 -0.889,-0.069 -0.234,0.069 -0.515,0.468 -0.515,1.123 0,0.516 0.28,0.68 0.28,0.68 0,0 0,-0.164 0.679,0 0.562,0.14 1.335,0.796 1.335,0.796 h -0.891 c -1.123,0.14 -1.123,1.334 -1.123,2.668 h -2.317 c -0.022,-0.656 0,-2.528 0.913,-3.137 0,0 -0.913,-0.491 -0.913,-1.451 0,-1.101 0.444,-1.404 0.444,-1.639 0,0 -1.029,-0.937 -0.21,-1.85 -1.17,0.211 -1.615,0.211 -1.615,0.211 0,0 -2.317,-0.023 -3.651,-0.89 -2.083,-1.357 -2.061,-5.385 -2.061,-5.385 -0.14,-6.53 8.239,-1.709 8.239,-1.709 0,0 -5.851,-2.785 -5.71,1.92 0.116,3.815 1.802,4.963 1.802,4.963 2.06,-0.142 5.313,-1.615 5.313,-1.615 0.444,0.07 1.779,1.287 1.779,1.287 -0.653,0.304 -1.38,0.515 -1.824,0.655 z"
         id="path312"
         inkscape:connector-curvature="0"
         style="fill:#707173" /><path
         d="m 340.067,385.08 1.382,1.429 -1.382,1.381 -1.381,-1.381 1.381,-1.429 z m 0,2.809 1.382,1.429 -1.382,1.381 -1.381,-1.381 1.381,-1.429 z m 4.003,3.885 c -0.022,-2.106 0.491,-3.839 2.178,-4.144 0,0 -1.171,-0.538 -1.709,-1.076 -0.282,-0.305 -0.445,-0.796 -0.469,-2.458 h 2.317 c 0.024,2.902 0.913,3.276 0.913,3.276 0,0 1.077,0.305 1.592,0.609 0.352,0.257 0.141,0.257 0.141,0.257 -1.615,0 -2.646,1.287 -2.646,3.534 l -2.317,0.002 0,0 z"
         id="path314"
         inkscape:connector-curvature="0"
         style="fill:#707173" /><path
         d="m 344.07,402.21 c 0,-1.778 0.258,-2.668 0.796,-3.229 l -1.521,-0.633 c 2.201,-2.436 2.061,-3.745 2.061,-3.745 0,0 -1.193,-0.727 -1.335,-2.084 0,0 0,-0.725 0,-1.264 h 2.317 c -0.07,2.95 1.101,3.253 1.101,3.253 2.949,1.054 2.598,4.284 2.598,4.284 -2.271,-0.655 -3.722,0.632 -3.698,3.417 h -2.319 l 0,10e-4 z m 2.27,-4.33 c 0.796,-0.444 1.872,0 1.872,0 0,-1.076 -1.193,-1.778 -1.193,-1.778 0,1.007 -0.679,1.778 -0.679,1.778 z"
         id="path316"
         inkscape:connector-curvature="0"
         style="fill:#707173" /><path
         d="m 349.408,406.328 c -0.071,-0.655 -0.235,-1.193 -0.657,-1.731 -0.841,-1.101 0.516,-0.562 0.516,-0.562 0,0 2.622,0.89 2.575,2.855 -0.07,2.506 -1.475,4.426 -1.873,6.227 -0.514,2.317 -0.327,3.138 -0.327,3.138 l -2.622,-0.749 c 0,0 0,-1.546 -0.094,-2.271 -0.631,-0.046 -0.538,3.698 -0.538,3.698 h -2.317 c -0.047,-5.501 2.763,-4.118 2.738,-4.167 -0.21,-0.818 -0.678,-1.449 -1.123,-2.504 -1.076,-2.505 -1.662,-4.985 -1.615,-8.613 h 2.317 c 0.047,6.461 2.061,9.572 2.061,9.572 0,0 1.145,-3.066 0.959,-4.893 z m 5.546,2.715 1.382,1.428 -1.382,1.382 -1.38,-1.382 1.38,-1.428 z"
         id="path318"
         inkscape:connector-curvature="0"
         style="fill:#707173" /><path
         d="m 346.551,418.495 c 0.749,0.187 7.187,-0.374 7.187,-0.374 0.491,-0.023 0.749,-0.07 1.427,-0.353 1.171,-0.49 2.785,1.077 2.785,1.077 0,0 -1.731,0.094 -2.176,1.521 0,0 -0.469,-0.843 -1.732,-0.772 -0.866,0.046 -5.22,0.211 -6.296,0.164 -1.218,-0.047 -2.436,0 -3.465,-0.772 0,0 -0.188,-1.381 -0.188,-2.553 h 2.294 c 0,1.43 0.164,2.062 0.164,2.062 z"
         id="path320"
         inkscape:connector-curvature="0"
         style="fill:#707173" /><path
         d="m 358.068,424.461 c -2.785,0.071 -4.19,0.235 -5.572,0.305 -1.31,0.07 -3.837,0.188 -5.477,0.235 -2.387,0.069 -3.44,-0.727 -3.908,-1.125 -0.142,-0.117 0,-0.117 0,-0.117 1.614,-0.092 4.799,-0.396 4.799,-0.396 l 6.717,-0.375 c 2.082,-0.117 3.441,1.473 3.441,1.473 z"
         id="path322"
         inkscape:connector-curvature="0"
         style="fill:#707173" /></g><g
       id="g324"><path
         d="m 380.911,376.869 -0.305,-0.491 c -0.164,-4.752 0.843,-4.145 0.843,-4.145 l 2.364,0.983 c 1.825,1.919 2.902,4.189 2.902,4.189 h 0.515 c 0.586,0 1.638,1.123 1.638,1.123 0,0 -1.403,0.398 -4.563,0.539 -3.721,0.141 -4.236,1.731 -4.214,4.938 h -2.316 c 0,-5.313 1.85,-5.712 3.698,-5.97 0.818,-0.116 3.417,-0.353 3.417,-0.353 0,-0.537 -1.614,-2.925 -1.825,-3.183 0,0 -0.024,-0.024 -0.094,0.188 -0.07,0.211 -0.211,1.967 -0.211,3.254 -10e-4,0.004 -0.889,-0.253 -1.849,-1.072 z m 9.573,-4.659 1.38,1.428 -1.38,1.382 -1.381,-1.382 1.381,-1.428 z m 0,2.763 1.38,1.428 -1.38,1.381 -1.381,-1.381 1.381,-1.428 z"
         id="path326"
         inkscape:connector-curvature="0"
         style="fill:#707173" /><path
         d="m 377.774,391.775 c 0,-1.266 0.352,-2.764 1.381,-3.56 0,0 -1.381,-1.498 -1.381,-4.846 h 2.316 c -0.022,3.254 0.702,3.652 0.702,3.652 0.913,-0.327 0.68,-2.154 0.68,-2.154 0,0 2.574,0.023 2.574,2.436 0,2.879 -1.989,2.854 -1.989,2.854 l -1.265,-0.796 c -0.585,0.562 -0.702,1.146 -0.702,2.412 l -2.316,0.002 0,0 z"
         id="path328"
         inkscape:connector-curvature="0"
         style="fill:#707173" /><path
         d="m 377.774,402.21 c 0,-1.778 0.258,-2.668 0.796,-3.229 l -1.522,-0.633 c 2.201,-2.436 2.061,-3.745 2.061,-3.745 0,0 -1.193,-0.727 -1.334,-2.084 0,0 0,-0.725 0,-1.264 h 2.316 c -0.069,2.95 1.101,3.253 1.101,3.253 2.949,1.054 2.598,4.284 2.598,4.284 -2.27,-0.655 -3.721,0.632 -3.698,3.417 h -2.318 l 0,10e-4 z m 2.269,-4.33 c 0.796,-0.444 1.873,0 1.873,0 0,-1.076 -1.193,-1.778 -1.193,-1.778 0,1.007 -0.68,1.778 -0.68,1.778 z"
         id="path330"
         inkscape:connector-curvature="0"
         style="fill:#707173" /><path
         d="m 374.754,408.693 1.38,1.427 -1.38,1.382 -1.381,-1.382 1.381,-1.427 z m 8.357,-2.365 c -0.071,-0.655 -0.235,-1.193 -0.656,-1.731 -0.842,-1.101 0.516,-0.562 0.516,-0.562 0,0 2.621,0.89 2.574,2.855 -0.069,2.506 -1.474,4.426 -1.872,6.227 -0.515,2.317 -0.328,3.138 -0.328,3.138 l -2.621,-0.749 c 0,0 0,-1.546 -0.095,-2.271 -0.631,-0.046 -0.538,3.698 -0.538,3.698 h -2.316 c -0.047,-5.501 2.763,-4.118 2.738,-4.167 -0.211,-0.818 -0.678,-1.449 -1.124,-2.504 -1.076,-2.505 -1.661,-4.985 -1.614,-8.613 h 2.316 c 0.047,6.461 2.061,9.572 2.061,9.572 0,0 1.145,-3.066 0.959,-4.893 z"
         id="path332"
         inkscape:connector-curvature="0"
         style="fill:#707173" /><path
         d="m 380.254,418.495 c 0.749,0.187 7.187,-0.374 7.187,-0.374 0.491,-0.023 0.749,-0.07 1.427,-0.353 1.171,-0.49 2.786,1.077 2.786,1.077 0,0 -1.732,0.094 -2.177,1.521 0,0 -0.468,-0.843 -1.732,-0.772 -0.866,0.046 -5.219,0.211 -6.296,0.164 -1.217,-0.047 -2.435,0 -3.464,-0.772 0,0 -0.188,-1.381 -0.188,-2.553 h 2.294 c -0.001,1.43 0.163,2.062 0.163,2.062 z"
         id="path334"
         inkscape:connector-curvature="0"
         style="fill:#707173" /><path
         d="m 391.772,424.461 c -2.786,0.071 -4.191,0.235 -5.572,0.305 -1.311,0.07 -3.838,0.188 -5.477,0.235 -2.387,0.069 -3.44,-0.727 -3.909,-1.125 -0.141,-0.117 0,-0.117 0,-0.117 1.615,-0.092 4.799,-0.396 4.799,-0.396 l 6.717,-0.375 c 2.084,-0.117 3.442,1.473 3.442,1.473 z"
         id="path336"
         inkscape:connector-curvature="0"
         style="fill:#707173" /></g><g
       id="g338"><path
         d="m 411.475,393.696 c 0,-2.224 0.233,-3.792 2.341,-4.518 0,0 -1.709,-0.516 -1.896,-1.732 0,0 -0.655,-2.621 -0.937,-5.898 -0.352,-3.979 0.469,-9.269 6.836,-5.29 v 0.047 c -7.257,-3.581 -4.097,10.159 -3.535,11.588 0.328,0.818 0.468,1.006 0.468,1.006 0,0 1.24,0.258 1.614,0.54 0.422,0.303 0.493,0.372 0.493,0.372 -2.88,0.492 -3.067,1.896 -3.067,3.887 l -2.317,-0.002 0,0 z m 9.456,-13.974 1.381,1.43 -1.381,1.38 -1.381,-1.38 1.381,-1.43 z m 0.07,2.809 1.381,1.428 -1.381,1.382 -1.382,-1.382 1.382,-1.428 z"
         id="path340"
         inkscape:connector-curvature="0"
         style="fill:#707173" /><path
         d="m 408.221,395.351 1.381,1.43 -1.381,1.381 -1.382,-1.381 1.382,-1.43 z m 3.254,5.571 c -0.023,-2.105 0.491,-3.838 2.177,-4.143 0,0 -1.171,-0.538 -1.709,-1.077 -0.281,-0.305 -0.445,-0.796 -0.468,-2.457 h 2.316 c 0.024,2.901 0.913,3.276 0.913,3.276 0,0 1.077,0.305 1.592,0.608 0.352,0.257 0.141,0.257 0.141,0.257 -1.614,0 -2.646,1.287 -2.646,3.534 l -2.316,0.002 0,0 z"
         id="path342"
         inkscape:connector-curvature="0"
         style="fill:#707173" /><path
         d="m 411.475,416.814 c 0,-0.982 0,-2.553 0.726,-3.651 0,0 -0.374,-0.116 -0.726,-0.374 0,0 -0.983,-3.276 1.217,-3.886 0,0 -1.592,-0.259 -1.592,-2.81 0,-1.709 1.476,-1.825 1.476,-1.825 0,0 -1.101,-0.96 -1.101,-3.862 h 2.316 c 0,3.137 0.937,4.308 1.334,4.588 0.328,0.234 0.352,0.632 0,0.491 -0.749,-0.28 -0.982,-0.233 -0.982,-0.233 0,0 -0.608,0.116 -0.608,1.217 0,1.942 1.591,3.16 1.966,3.277 0.116,0.116 0.141,0.421 0.141,0.421 0,0 -0.608,-0.141 -0.726,-0.141 -0.749,-0.117 -1.124,0.444 -1.124,1.312 0,0.491 0.117,1.334 0.117,1.334 0,0 0.234,0 0.609,0 0.374,0 1.451,0.727 1.451,0.727 -1.826,0.115 -2.178,1.85 -2.178,3.417 l -2.316,-0.002 0,0 z"
         id="path344"
         inkscape:connector-curvature="0"
         style="fill:#707173" /><path
         d="m 413.956,418.494 c 0.749,0.188 7.187,-0.374 7.187,-0.374 0.491,-0.023 0.749,-0.07 1.428,-0.354 1.171,-0.49 2.785,1.078 2.785,1.078 0,0 -1.731,0.093 -2.177,1.521 0,0 -0.468,-0.844 -1.731,-0.772 -0.866,0.046 -5.22,0.21 -6.296,0.164 -1.218,-0.047 -2.435,0 -3.465,-0.772 0,0 -0.188,-1.382 -0.188,-2.552 h 2.294 c -0.001,1.429 0.163,2.061 0.163,2.061 z"
         id="path346"
         inkscape:connector-curvature="0"
         style="fill:#707173" /><path
         d="m 425.472,424.46 c -2.785,0.071 -4.189,0.235 -5.571,0.305 -1.311,0.07 -3.838,0.188 -5.478,0.233 -2.387,0.071 -3.44,-0.725 -3.908,-1.122 -0.142,-0.118 0,-0.118 0,-0.118 1.614,-0.093 4.799,-0.396 4.799,-0.396 l 6.717,-0.374 c 2.083,-0.118 3.441,1.472 3.441,1.472 z"
         id="path348"
         inkscape:connector-curvature="0"
         style="fill:#707173" /></g><g
       id="g350"><path
         d="m 453.556,391.352 c 0.538,-0.047 1.686,1.266 1.686,1.266 0,0 -3.139,0.28 -5.268,0.818 -2.341,0.586 -2.48,1.476 -2.48,2.738 h -2.317 c -0.094,-3.394 2.833,-3.909 2.833,-3.909 -1.101,-0.258 -1.593,-0.514 -1.593,-0.514 0,0 -1.17,-1.218 -1.334,-3.979 -0.164,-2.926 2.294,-2.738 3.534,-2.224 -0.631,-0.023 -1.451,0.303 -1.193,2.527 0.353,3.09 1.568,3.956 1.568,3.956 0.935,-0.07 3.884,-0.609 4.564,-0.679 z"
         id="path352"
         inkscape:connector-curvature="0"
         style="fill:#707173" /><path
         d="m 448.453,404.457 c 1.381,-2.06 1.661,-3.721 1.661,-4.494 0,-0.396 -0.188,-1.193 -0.491,-1.568 -0.702,-0.89 0.188,-0.468 0.188,-0.468 0,0 2.574,0.609 2.551,2.811 -0.022,1.988 -1.567,4.071 -2.294,5.501 -0.843,1.685 -0.865,3.229 -0.865,3.229 l -2.81,-1.101 c 0,0 0.305,-2.247 -0.258,-4.729 -0.396,-1.73 -0.96,-4.188 -0.96,-7.911 h 2.317 c -0.092,4.024 0.961,8.73 0.961,8.73 z"
         id="path354"
         inkscape:connector-curvature="0"
         style="fill:#707173" /><path
         d="m 457.628,420.088 c 0,0 -0.632,-0.771 -1.498,-0.702 -2.2,0.188 -3.956,-0.164 -5.313,-0.702 -1.498,0.844 -2.809,1.382 -3.58,1.498 -0.445,0.07 -2.247,-0.351 -2.247,-0.351 -0.468,-1.17 -0.398,-5.922 -0.398,-5.922 0.982,-0.398 2.975,0 2.975,0 -0.235,0.163 -0.212,0.514 -0.212,0.514 1.193,1.405 2.131,2.247 2.902,2.763 2.152,-1.311 3.301,-2.573 3.581,-2.926 1.101,-1.356 0.89,-1.475 0.89,-1.475 0,0 -0.397,-0.865 0.281,-1.076 0.654,-0.211 1.45,-0.398 2.176,-0.282 1.266,0.211 1.008,1.102 1.008,1.102 -1.568,2.152 -3.933,4.05 -6.109,5.432 1.498,0.327 3.44,0.022 3.44,0.022 0,0 0.843,-0.142 1.357,-0.422 1.124,-0.633 2.364,1.123 2.364,1.123 -1.688,0.188 -1.617,1.404 -1.617,1.404 z m -10.322,-3.931 0.163,2.434 c 0.608,-0.257 1.171,-0.515 1.662,-0.771 -1.24,-0.82 -1.825,-1.663 -1.825,-1.663 z m 14.723,-4.027 c 0,0 -0.375,-2.41 -0.938,-0.749 -0.561,1.662 -0.187,2.411 -0.116,2.833 0.048,0.397 -0.304,0.141 -0.304,0.141 l -0.562,-0.562 c 0,0 -0.306,-0.188 -0.397,-0.538 -0.445,-1.873 -1.451,-2.949 -1.521,-2.996 -0.048,-0.141 -0.096,-0.188 0.069,-0.282 0.281,0 1.451,0.892 1.451,0.892 0.093,0 0.14,-0.562 0.14,-0.562 0,0 0.024,-1.404 1.24,-0.703 1.803,1.055 2.247,2.996 2.202,3.349 -0.095,0.374 -0.422,0.655 -0.422,0.655 l -0.983,-1.146 0.141,-0.332 z"
         id="path356"
         inkscape:connector-curvature="0"
         style="fill:#707173" /><path
         d="m 459.173,424.461 c -2.785,0.071 -4.189,0.235 -5.572,0.305 -1.31,0.07 -3.837,0.188 -5.477,0.235 -2.387,0.069 -3.44,-0.727 -3.908,-1.125 -0.142,-0.117 0,-0.117 0,-0.117 1.614,-0.092 4.799,-0.396 4.799,-0.396 l 6.718,-0.375 c 2.082,-0.117 3.44,1.473 3.44,1.473 z"
         id="path358"
         inkscape:connector-curvature="0"
         style="fill:#707173" /></g><g
       id="g360"><path
         d="m 358.422,335.601 c 2.059,0.727 2.691,-0.279 3.019,-1.192 0.235,-0.655 0.422,0.258 0.422,0.258 0,0 -0.233,0.679 -0.07,0.889 0.07,0.234 0.469,0.517 1.124,0.517 0.516,0 0.679,-0.281 0.679,-0.281 0,0 -0.163,0 0,-0.679 0.14,-0.562 0.796,-1.334 0.796,-1.334 v 0.89 c 0.14,1.123 1.333,1.123 2.668,1.123 v 2.996 c -0.655,0.022 -2.528,0 -3.136,-0.912 0,0 -0.491,0.912 -1.451,0.912 -1.101,0 -1.405,-0.444 -1.639,-0.444 0,0 -0.937,1.03 -1.851,0.211 0.211,1.171 0.211,1.615 0.211,1.615 0,0 -0.14,2.247 -1.076,3.51 -1.592,2.154 -5.665,2.201 -5.665,2.201 -6.53,0.14 -1.709,-8.918 -1.709,-8.918 0,0 -2.785,5.852 1.92,5.712 3.816,-0.118 4.963,-1.803 4.963,-1.803 -0.142,-2.062 -1.521,-4.565 -1.521,-4.565 0.07,-0.443 1.755,-2.151 1.755,-2.151 0.304,0.649 0.421,1.001 0.561,1.445 z"
         id="path362"
         inkscape:connector-curvature="0"
         style="fill:#179665" /><path
         d="m 368.341,335.415 c 0,-1.967 -0.187,-5.595 -0.187,-5.595 -0.024,-0.491 -0.071,-1.03 -0.539,-2.225 -0.585,-1.498 1.593,-3.229 1.593,-3.229 0,0 -0.211,1.709 1.38,2.247 0,0 -0.772,0.89 -0.726,2.153 0.023,0.843 0.14,3.065 0.023,5.243 0.726,-0.656 1.825,-1.756 2.527,-2.201 1.265,-1.053 3.254,-0.631 3.254,-0.631 0,0 3.323,0.865 2.902,2.668 -0.28,1.193 -0.749,1.942 -0.749,1.942 0.679,0 1.381,0 1.381,0 v 2.996 c 0,0 -8.637,0 -12.78,0 v -2.996 c 0.562,0 1.498,0 1.498,0 0,0 0.048,0.002 0.423,-0.372 z m 7.701,-0.071 c 0.468,-0.585 -1.124,-1.077 -1.124,-1.077 0,0 -1.171,-0.304 -1.872,-0.047 -0.889,0.188 -2.926,1.687 -2.926,1.687 4.87,0.093 5.922,-0.563 5.922,-0.563 z"
         id="path364"
         inkscape:connector-curvature="0"
         style="fill:#179665" /><path
         d="m 394.998,338.785 c -0.982,0 -2.552,0 -3.651,-0.727 0,0 -0.117,0.374 -0.374,0.727 0,0 -3.277,0.981 -3.887,-1.217 0,0 -0.258,1.592 -2.808,1.592 -1.709,0 -1.826,-1.477 -1.826,-1.477 0,0 -0.96,1.102 -3.863,1.102 v -2.996 c 3.138,0 4.331,-0.938 4.589,-1.334 0.28,-0.444 0.749,-0.444 0.609,-0.094 -0.282,0.749 -0.235,0.982 -0.235,0.982 0,0 0.117,0.608 1.218,0.608 1.942,0 2.926,-1.545 3.159,-1.873 0.188,-0.257 0.492,-0.163 0.492,-0.163 0,0 -0.14,0.608 -0.14,0.726 -0.118,0.749 0.444,1.123 1.31,1.123 0.491,0 1.265,-0.093 1.265,-0.093 0,0 0,-0.233 0,-0.608 0,-0.374 0.725,-1.451 0.725,-1.451 0.117,1.826 1.85,2.177 3.418,2.177 l -0.001,2.996 0,0 z"
         id="path366"
         inkscape:connector-curvature="0"
         style="fill:#179665" /><path
         d="m 397.405,335.742 c -1.101,-1.265 -1.171,-1.966 -1.171,-1.966 0,0 0.375,-4.003 4.541,-4.167 2.809,-0.116 4.189,2.833 4.189,2.833 0,0 -3.933,-1.779 -6.18,0.351 0,0 0.937,1.568 2.575,2.131 0.819,0.28 2.435,0.163 2.435,0.163 l 1.803,-0.094 -0.773,2.927 c 0,0 -3.09,0.327 -4.096,0.491 -0.609,0.094 -3.207,0.374 -6.156,0.374 v -2.996 c 1.217,0 2.833,-0.047 2.833,-0.047 z m 0.631,-9.363 1.592,-1.592 1.662,1.639 -1.615,1.592 -1.639,-1.639 z"
         id="path368"
         inkscape:connector-curvature="0"
         style="fill:#179665" /><path
         d="m 409.221,321.346 c 0,0 -2.458,0.328 -0.727,0.913 1.662,0.585 2.458,0.164 2.88,0.142 0.374,-0.095 0.047,0.305 0.047,0.305 l -0.469,0.585 c 0,0 -0.233,0.304 -0.538,0.421 -1.92,0.422 -3.021,1.498 -3.113,1.521 -0.117,0.047 -0.234,0.141 -0.257,-0.023 0,-0.351 0.889,-1.498 0.889,-1.498 0,-0.117 -0.539,-0.187 -0.539,-0.187 0,0 -1.474,-0.023 -0.749,-1.266 1.078,-1.802 2.996,-2.34 3.396,-2.2 0.421,0.07 0.679,0.422 0.679,0.422 l -1.147,0.961 -0.352,-0.096 z m 1.147,3.535 c 0.069,2.785 0.141,4.213 0.211,5.594 0.069,1.312 0.094,3.396 0.141,5.033 0.046,1.942 -1.265,3.51 -1.663,3.979 -0.117,0.141 -0.117,0 -0.117,0 -0.094,-1.614 -0.233,-4.541 -0.233,-4.541 l -0.141,-6.53 c -0.048,-2.083 1.802,-3.535 1.802,-3.535 z"
         id="path370"
         inkscape:connector-curvature="0"
         style="fill:#179665" /><path
         d="m 418.882,341.429 9.061,-16.853 h 3.111 l -9.15,16.853 h -3.022 z"
         id="path372"
         inkscape:connector-curvature="0"
         style="fill:#179665" /><path
         d="m 453.825,334.314 c -0.118,1.896 -1.125,3.604 -1.125,3.604 -1.005,0.258 -5.523,1.334 -9.059,1.31 -3.721,-0.047 -5.78,-1.1 -5.733,-3.158 0.047,-2.015 1.614,-4.026 1.73,-4.284 0.142,-0.304 0.492,-0.562 0.492,-0.562 -2.785,4.33 1.615,4.894 4.026,4.939 2.737,0.047 8.004,-0.843 8.004,-1.147 0,-0.396 -0.678,-2.013 -0.678,-2.013 0.211,-0.796 1.474,-2.411 1.474,-2.411 0,0 0.961,2.177 0.869,3.722 z m -9.878,8.404 1.592,-1.593 1.662,1.638 -1.615,1.594 -1.639,-1.639 z"
         id="path374"
         inkscape:connector-curvature="0"
         style="fill:#179665" /><path
         d="m 459.787,321.581 c 0,0 -0.211,2.692 -3.229,2.762 -1.476,0.023 -2.014,0.328 -2.317,0.609 0.305,-0.281 0.68,-2.949 2.855,-2.833 1.614,0.071 2.691,-0.538 2.691,-0.538 z m -1.779,3.3 c 0.069,2.785 0.142,4.213 0.211,5.594 0.069,1.312 0.094,3.396 0.142,5.033 0.046,1.942 -1.266,3.51 -1.663,3.979 -0.117,0.141 -0.117,0 -0.117,0 -0.094,-1.614 -0.233,-4.541 -0.233,-4.541 l -0.141,-6.53 c -0.048,-2.083 1.801,-3.535 1.801,-3.535 z"
         id="path376"
         inkscape:connector-curvature="0"
         style="fill:#179665" /></g><g
       id="g378"><path
         d="m 421.53,287.446 1.801,-4.097 c 0.469,0.819 2.364,1.966 4.144,1.966 3.371,0 3.465,-2.013 3.559,-2.013 0,0 3.559,6.25 -3.862,5.501 0,0 1.193,3.464 -1.006,9.035 l -0.095,-0.022 c -0.774,-7.515 -4.541,-10.37 -4.541,-10.37 z"
         id="path380"
         inkscape:connector-curvature="0"
         style="fill:#737996" /><path
         d="m 437.536,295.17 -2.996,-2.996 2.996,-2.996 2.996,2.996 -2.996,2.996 z"
         id="path382"
         inkscape:connector-curvature="0"
         style="fill:#737996" /><path
         d="m 446.053,297.721 c 0.28,-5.665 -3.254,-10.346 -3.254,-10.346 l 1.896,-4.12 c 0,0 5.806,7.046 1.428,14.349 l -0.07,0.117 z"
         id="path384"
         inkscape:connector-curvature="0"
         style="fill:#737996" /><path
         d="m 454.079,284.824 c 1.989,0 4.423,3.067 4.354,8.146 -0.094,5.335 -8.613,5.71 -8.497,0.351 0.116,-4.799 2.504,-8.497 4.143,-8.497 z m -2.271,7.069 c 0.116,1.1 3.955,1.007 4.61,-0.234 0.516,-0.982 -1.029,-3.675 -2.434,-3.675 -1.286,0 -2.34,2.411 -2.176,3.909 z"
         id="path386"
         inkscape:connector-curvature="0"
         style="fill:#737996" /></g></g></svg>