<?xml version="1.0" encoding="UTF-8" standalone="no"?>
<!-- Generator: Adobe Illustrator 16.0.0, SVG Export Plug-In . SVG Version: 6.00 Build 0)  -->

<svg
   xmlns:dc="http://purl.org/dc/elements/1.1/"
   xmlns:cc="http://creativecommons.org/ns#"
   xmlns:rdf="http://www.w3.org/1999/02/22-rdf-syntax-ns#"
   xmlns:svg="http://www.w3.org/2000/svg"
   xmlns="http://www.w3.org/2000/svg"
   xmlns:sodipodi="http://sodipodi.sourceforge.net/DTD/sodipodi-0.dtd"
   xmlns:inkscape="http://www.inkscape.org/namespaces/inkscape"
   version="1.1"
   id="_x30_5-CHIAH"
   x="0px"
   y="0px"
   width="1573.961px"
   height="907.086px"
   viewBox="222.961 0 1573.961 907.086"
   enable-background="new 222.961 0 1573.961 907.086"
   xml:space="preserve"
   inkscape:version="0.48.4 r9939"
   sodipodi:docname="Area5.svg"><metadata
     id="metadata4977"><rdf:RDF><cc:Work
         rdf:about=""><dc:format>image/svg+xml</dc:format><dc:type
           rdf:resource="http://purl.org/dc/dcmitype/StillImage" /></cc:Work></rdf:RDF></metadata><defs
     id="defs4975" /><sodipodi:namedview
     pagecolor="#ffffff"
     bordercolor="#666666"
     borderopacity="1"
     objecttolerance="10"
     gridtolerance="10"
     guidetolerance="10"
     inkscape:pageopacity="0"
     inkscape:pageshadow="2"
     inkscape:window-width="640"
     inkscape:window-height="480"
     id="namedview4973"
     showgrid="false"
     inkscape:zoom="0.28500943"
     inkscape:cx="786.98053"
     inkscape:cy="447.9824"
     inkscape:window-x="0"
     inkscape:window-y="27"
     inkscape:window-maximized="0"
     inkscape:current-layer="_x30_5-CHIAH" /><g
     id="_x35__type_numbers.tif_1_"><g
       id="g4632"><path
         fill="#FFFFFF"
         d="M471.587,171.625c32.76,0,65.521,0,98.281,0c0,31.615,0,63.229,0,94.844c-32.875,0-65.75,0-98.625,0    c0-31.271,0-62.542,0-93.812C471.214,172.168,471.188,171.682,471.587,171.625z M499.422,195.679    c-8.103,5.196-10.013,7.099-14.089,15.808c-4.092,8.742-5.838,24.122-2.062,32.302c2.534,5.49,9.19,11.566,15.464,14.777    c4.549,2.329,9.573,2.2,15.12,2.749c1.146,0.113,3.418,1.042,5.497,1.031c3.48-0.018,6.787-1.381,10.653-2.749    c3.453-1.222,7.717-2.47,10.31-4.124c4.485-2.86,9.812-10.312,11.684-16.151c6.249-19.505,1.087-35.778-10.653-46.047    c-4.9-4.287-13.021-6.228-21.992-5.499C509.785,188.554,505.632,191.697,499.422,195.679z"
         id="path4634" /><path
         fill="#A36D30"
         d="M519.354,187.775c8.973-0.729,17.092,1.211,21.992,5.499c11.74,10.269,16.902,26.542,10.653,46.047    c-1.871,5.839-7.198,13.291-11.684,16.151c-2.593,1.653-6.856,2.902-10.31,4.124c-3.866,1.368-7.172,2.731-10.653,2.749    c-2.079,0.011-4.352-0.917-5.497-1.031c-5.547-0.549-10.571-0.42-15.12-2.749c-6.273-3.211-12.93-9.287-15.464-14.777    c-3.776-8.18-2.03-23.56,2.062-32.302c4.076-8.708,5.986-10.611,14.089-15.808C505.632,191.697,509.785,188.554,519.354,187.775z     M493.236,204.271c1.207,0.643-0.499,1.701-0.688,2.062c-5.052,9.696-10.184,23.863-4.811,35.395    c7.271,11.818,27.688,20.247,43.299,13.402c2.946-1.292,6.744-2.978,8.591-4.467c6.939-5.598,10.566-18.184,10.653-28.522    c0.076-9.097-4.306-18.207-9.966-23.368c-0.794-0.724-1.807-1.986-2.749-2.405c-0.688-0.306-1.924,0.108-2.749-0.344    c-1.487-0.813-2.058-2.293-3.438-2.749c-3.188-1.054-6.24-0.45-9.622,0C510.539,190.126,501.341,200.429,493.236,204.271z"
         id="path4636" /><path
         fill="#FFFFFF"
         d="M521.759,193.274c3.382-0.45,6.434-1.054,9.622,0c1.379,0.456,1.95,1.936,3.438,2.749    c0.825,0.452,2.062,0.038,2.749,0.344c0.942,0.419,1.955,1.681,2.749,2.405c5.66,5.161,10.042,14.271,9.966,23.368    c-0.086,10.338-3.714,22.924-10.653,28.522c-1.847,1.49-5.645,3.175-8.591,4.467c-15.611,6.845-36.027-1.583-43.299-13.402    c-5.373-11.532-0.241-25.699,4.811-35.395c0.188-0.361,1.895-1.419,0.688-2.062C501.341,200.429,510.539,190.126,521.759,193.274z     M514.886,204.271c-3.44,0.391-7.043,1.818-9.622,3.093c-1.138,6.459,0.351,14.562,0.344,19.931    c4.906,2.201,6.962-3.246,10.996-3.093c4.125,0.157,6.918,7.049,7.217,11.684c0.268,4.156-4.486,10.835-8.247,11.34    c-1.826,0.245-6.532-2.317-6.529,1.718c0.001,1.957,4.485,3.712,6.873,3.437c4.834-0.559,11.461-8.947,12.371-13.059    c1.368-6.187-1.643-15.173-5.498-17.869c-4.449-3.11-9.146-0.928-13.059,0.688c-0.839-4.813-0.353-7.752-0.344-12.715    c3.61-3.21,12.898,0.537,14.776-3.78C522.237,203.498,517.448,203.979,514.886,204.271z"
         id="path4638" /><path
         fill="#A36D30"
         d="M524.164,205.645c-1.878,4.316-11.166,0.569-14.776,3.78c-0.009,4.962-0.496,7.902,0.345,12.715    c3.911-1.616,8.608-3.797,13.058-0.688c3.856,2.696,6.866,11.683,5.498,17.869c-0.909,4.112-7.537,12.5-12.371,13.059    c-2.388,0.276-6.872-1.48-6.873-3.437c-0.002-4.036,4.704-1.473,6.529-1.718c3.761-0.505,8.515-7.184,8.247-11.34    c-0.298-4.635-3.092-11.527-7.217-11.684c-4.033-0.153-6.089,5.293-10.996,3.093c0.006-5.367-1.481-13.471-0.344-19.931    c2.578-1.275,6.182-2.702,9.622-3.093C517.448,203.979,522.237,203.498,524.164,205.645z"
         id="path4640" /></g></g><g
     id="g4642"><path
       fill="#FFFFFF"
       d="M313.487,184.942c56.312,0,112.622,0,168.933,0c0,30.826,0,61.652,0,92.477c-56.38,0-112.754,0-169.135,0   c0-30.624,0-61.245,0-91.869C313.267,185.263,313.251,184.976,313.487,184.942z M362.565,210.495   c0.798,7.566-1.37,15.41-0.608,24.539c0.238,2.85,1.503,6.05,3.65,6.692c3.563,1.066,5.888-0.906,8.721-2.028   c1.811,2.929,5.167,4.075,8.923,5.273c3.833,1.223,8.635,1.281,11.965,1.623c2.474,0.253,5.394-0.145,7.707,0.203   c0.732,0.11,1.329,0.521,2.028,0.608c6.314,0.785,12.579-0.792,17.644-2.434c1.612-0.522,3.104-1.637,5.07-1.623   c1.374,0.01,2.767,1.135,4.056,1.014c0.771-0.073,1.486-1.105,2.231-1.217c0.441-0.066,0.969,0.588,1.419,0.608   c1.221,0.055,2.208-0.846,3.245-1.014c1.235,1.491,4.06,3.156,6.489,3.042c4.159-0.195,3.626-6.185,4.259-11.762   c0.184-1.614,0.659-3.455,0.607-4.665c-0.319-7.753-2.996-13.688-4.461-18.658c-1.128-0.44-1.761-1.47-3.245-1.014   c-2.199,4.406,0.692,6.624,1.218,10.343c0.322,2.292-0.151,4.102,0,6.489c0.133,0.61,1.168,0.319,1.217,1.014   c0.408,4.503,1.043,9.225-0.203,13.385c-0.563-0.166-1.181-0.948-1.622-0.608c-2.354-1.125-1.692-8.646-4.665-7.301   c-1.068,1.568,0.19,5.463-2.434,5.476c-1.553-0.326-0.297-2.244-1.218-3.245c-3.025-1.147-1.547,3.822-4.056,3.853   c-0.893-0.955,0.117-2.787-0.405-3.853c-2.836-1.537-2.671,3.035-4.462,3.853c-2.305-0.093-4.245,1.174-6.287,1.623   c-2.087,0.458-4.507-0.178-6.287,1.419c0.057-0.823-0.074-0.458-0.608-0.405c-4.01-0.462-8.062,1.266-12.168,1.217   c-1.812-0.022-2.88-0.75-4.259-1.014c-4.977-0.953-9.232-0.035-11.965-2.839c-4.765-0.71-7.154-3.797-9.329-7.098   c-0.868,0.146-1.404,0.624-1.825,1.217c-0.127,1.277,0.7,1.599,0.812,2.636c-1.952,0.752-3.789,1.619-6.084,2.028   c-2.224-7.648-1.017-14.668-2.028-23.525c0.003-0.808,1.038-0.584,0.812-1.622c-0.614-1.009-1.098-2.147-1.623-3.245   C363.496,209.262,362.92,209.768,362.565,210.495z M357.495,220.635c-2.844-2.543-7.989-2.887-12.574-4.665   c-0.886-0.343-1.538-1.117-2.434-1.419c-0.853-0.289-2.75-0.214-4.259-0.608c-0.9-0.235-1.344-0.756-2.028-0.812   c-1.677-0.135-4.478,0.72-5.476,1.217c-2.683,1.337-6.914,7.265-4.867,8.315c2.97-0.331,5.263-2.926,8.314-2.434   c1.835,0.296,3.175,1.665,4.462,3.042c-4.503,3.353-10.349,4.993-12.979,9.938c-2.522,4.741-2.965,11.208,0.406,15.21   c2.005,2.38,2.73,3.022,5.07,4.664c3.211,2.254,6.554,2.656,11.154,2.839c3.556,0.142,5.845-0.301,7.301-2.434   c1.499-0.525,3.659-1.354,5.273-2.434c0.548-0.366,0.861-1.165,1.419-1.623c0.865-0.71,2.705-0.812,2.028-2.434   c-1.996-0.935-4.271,1.054-5.881,1.825c-4.695,0.597-7.595,3.914-13.791,2.231c-1.76-1.794-4.451-2.896-5.881-5.678   c-2.419-4.705-2.315-11.054,1.014-15.21c5.06-3.481,16.101-5.61,23.525-4.462C359.338,224.606,357.952,222.474,357.495,220.635z    M452.203,215.159c-0.225,7.888,2.732,14.318,4.259,20.888c0.465,2.003,1.177,5.381,3.245,5.881   c0.869-1.484,1.314-4.101,1.42-5.881c0.324-5.49-3.194-10.742-3.854-16.427c-0.249-2.15,0.443-4.012-1.015-5.881   C454.343,214.093,453.8,214.694,452.203,215.159z M426.244,220.635c1.016-3.2-3.072-5.327-5.476-3.854   c-0.087,2.347-2.133,2.735-2.23,5.07c1.403,0.348,1.552,1.122,2.636,2.028C422.954,222.887,424.221,221.383,426.244,220.635z    M427.664,224.285c-1.89-0.285-2.89,2.748-4.056,2.636c-0.942-0.089-1.312-2.992-2.839-2.434c-1.274,2.243-4.583,4.434-2.028,7.098   c1.083,0.236,4.24-1.188,5.678-1.623c0.522,3.771,5.212,0.417,5.679-1.419C428.979,226.71,429.586,224.574,427.664,224.285z    M377.167,247.404c-3.431-3.422-7.192,1.708-6.287,5.678c1.574-0.23,2.11,2.366,3.65,2.231c1.364-0.119,1.383-2.934,3.042-3.042   c1.969-0.129,2.095,2.364,4.665,2.434c1.305-1.398,2.392-3.017,2.839-5.273c-1.258-1.243-2.637-2.365-3.65-3.853   C379.364,245.546,378.903,247.113,377.167,247.404z"
       id="path4644" /><path
       fill="#A36D30"
       d="M357.292,225.705c-7.424-1.148-18.465,0.98-23.525,4.462c-3.329,4.156-3.433,10.505-1.014,15.21   c1.431,2.783,4.122,3.884,5.881,5.678c6.195,1.683,9.095-1.634,13.791-2.231c1.61-0.771,3.885-2.76,5.881-1.825   c0.677,1.622-1.163,1.724-2.028,2.434c-0.558,0.458-0.872,1.256-1.419,1.623c-1.614,1.079-3.774,1.909-5.273,2.434   c-1.456,2.133-3.745,2.576-7.301,2.434c-4.6-0.184-7.943-0.585-11.154-2.839c-2.339-1.642-3.065-2.284-5.07-4.664   c-3.371-4.001-2.928-10.469-0.406-15.21c2.631-4.945,8.476-6.585,12.979-9.938c-1.287-1.377-2.627-2.746-4.462-3.042   c-3.051-0.492-5.344,2.103-8.314,2.434c-2.047-1.05,2.185-6.978,4.867-8.315c0.998-0.497,3.798-1.352,5.476-1.217   c0.684,0.055,1.127,0.576,2.028,0.812c1.509,0.394,3.406,0.32,4.259,0.608c0.896,0.303,1.548,1.076,2.434,1.419   c4.584,1.778,9.73,2.122,12.574,4.665C357.952,222.474,359.338,224.606,357.292,225.705z"
       id="path4646" /><path
       fill="#A36D30"
       d="M456.259,213.739c1.458,1.869,0.766,3.731,1.015,5.881c0.659,5.685,4.178,10.937,3.854,16.427   c-0.104,1.78-0.551,4.397-1.42,5.881c-2.067-0.5-2.779-3.878-3.245-5.881c-1.526-6.57-4.483-13-4.259-20.888   C453.8,214.694,454.343,214.093,456.259,213.739z"
       id="path4648" /><path
       fill="#A36D30"
       d="M421.174,223.879c-1.084-0.906-1.233-1.68-2.636-2.028c0.098-2.335,2.144-2.724,2.23-5.07   c2.404-1.474,6.491,0.653,5.476,3.854C424.221,221.383,422.954,222.887,421.174,223.879z"
       id="path4650" /><path
       fill="#A36D30"
       d="M430.098,228.544c-0.466,1.836-5.156,5.19-5.679,1.419c-1.438,0.435-4.595,1.859-5.678,1.623   c-2.556-2.665,0.754-4.855,2.028-7.098c1.529-0.559,1.897,2.344,2.839,2.434c1.167,0.111,2.167-2.921,4.056-2.636   C429.586,224.574,428.979,226.71,430.098,228.544z"
       id="path4652" /><path
       fill="#A36D30"
       d="M381.425,245.579c1.014,1.488,2.392,2.61,3.65,3.853c-0.447,2.256-1.534,3.875-2.839,5.273   c-2.569-0.069-2.695-2.562-4.665-2.434c-1.659,0.108-1.678,2.923-3.042,3.042c-1.54,0.135-2.076-2.461-3.65-2.231   c-0.906-3.97,2.856-9.101,6.287-5.678C378.903,247.113,379.364,245.546,381.425,245.579z"
       id="path4654" /><path
       fill="#A36D30"
       d="M364.796,209.48c0.525,1.098,1.009,2.236,1.623,3.245c0.227,1.038-0.808,0.814-0.812,1.622   c1.012,8.857-0.196,15.876,2.028,23.525c2.295-0.409,4.132-1.276,6.084-2.028c-0.112-1.038-0.939-1.359-0.812-2.636   c0.421-0.593,0.957-1.071,1.825-1.217c2.175,3.3,4.564,6.387,9.329,7.098c2.732,2.804,6.988,1.886,11.965,2.839   c1.379,0.264,2.446,0.992,4.259,1.014c4.106,0.049,8.159-1.679,12.168-1.217c0.534-0.052,0.666-0.418,0.608,0.405   c1.779-1.597,4.2-0.961,6.287-1.419c2.042-0.448,3.982-1.715,6.287-1.623c1.791-0.818,1.625-5.39,4.462-3.853   c0.522,1.066-0.486,2.898,0.405,3.853c2.509-0.031,1.03-5,4.056-3.853c0.919,1.001-0.335,2.919,1.218,3.245   c2.624-0.012,1.364-3.907,2.434-5.476c2.973-1.345,2.309,6.175,4.665,7.301c0.441-0.339,1.059,0.442,1.622,0.608   c1.246-4.16,0.611-8.882,0.203-13.385c-0.048-0.695-1.083-0.404-1.217-1.014c-0.151-2.387,0.322-4.197,0-6.489   c-0.525-3.719-3.417-5.937-1.218-10.343c1.483-0.457,2.116,0.574,3.245,1.014c1.466,4.969,4.143,10.905,4.461,18.658   c0.05,1.209-0.425,3.05-0.607,4.665c-0.633,5.578-0.1,11.567-4.26,11.762c-2.43,0.114-5.253-1.551-6.488-3.042   c-1.037,0.168-2.024,1.069-3.245,1.014c-0.45-0.021-0.978-0.674-1.419-0.608c-0.745,0.111-1.459,1.144-2.231,1.217   c-1.289,0.121-2.682-1.004-4.056-1.014c-1.966-0.014-3.458,1.1-5.07,1.623c-5.065,1.641-11.329,3.219-17.644,2.434   c-0.699-0.087-1.295-0.499-2.028-0.608c-2.312-0.347-5.233,0.051-7.707-0.203c-3.331-0.341-8.133-0.4-11.965-1.623   c-3.755-1.198-7.112-2.344-8.923-5.273c-2.833,1.122-5.158,3.094-8.721,2.028c-2.147-0.643-3.413-3.842-3.65-6.692   c-0.762-9.129,1.406-16.973,0.608-24.539C362.92,209.768,363.496,209.262,364.796,209.48z"
       id="path4656" /></g><g
     id="_x30_5-CALENDAR"><g
       id="g4659"><path
         fill="#737996"
         d="M416.921,287.185l1.802-4.097c0.469,0.819,2.364,1.966,4.144,1.966c3.371,0,3.464-2.013,3.558-2.013    c0,0,3.56,6.25-3.861,5.501c0,0,1.192,3.464-1.008,9.035l-0.094-0.023C420.69,290.041,416.921,287.185,416.921,287.185z"
         id="path4661" /><path
         fill="#737996"
         d="M432.928,294.91l-2.996-2.996l2.996-2.996l2.996,2.996L432.928,294.91z"
         id="path4663" /><path
         fill="#737996"
         d="M441.445,297.46c0.28-5.665-3.254-10.346-3.254-10.346l1.896-4.12c0,0,5.806,7.046,1.429,14.349    L441.445,297.46z"
         id="path4665" /><path
         fill="#737996"
         d="M456.516,294.042l-2.34,3.512c0,0-3.301-2.06-2.436-9.761c0,0-3.229,1.475-5.875-0.89l0.047-3.886    c3.956,2.505,8.403,0.164,8.403,0.164S452.514,289.736,456.516,294.042z"
         id="path4667" /></g><g
       id="g4669"><path
         fill="#707173"
         d="M236.755,460.274v-15.482h4.16l2.98,10.808h0.042l3.002-10.808h4.204v15.482h-2.573v-12.179h-0.044    l-3.473,12.179H242.8l-3.43-12.179h-0.043v12.179H236.755z"
         id="path4671" /></g><g
       id="g4673"><path
         fill="#707173"
         d="M283.607,444.772v2.484h-4.053v13.017h-2.959v-13.017h-4.052v-2.484H283.607z"
         id="path4675" /></g><g
       id="g4677"><path
         fill="#707173"
         d="M303.698,444.792h2.766l1.951,10.443h0.044l2.207-10.443h3.046l2.036,10.443h0.043l2.123-10.443h2.767    l-3.216,15.482h-3.003l-2.252-11.021h-0.042l-2.23,11.021h-3.002L303.698,444.792z"
         id="path4679" /></g><g
       id="g4681"><path
         fill="#707173"
         d="M351.857,444.772v2.484h-4.053v13.017h-2.959v-13.017h-4.052v-2.484H351.857z"
         id="path4683" /></g><g
       id="g4685"><path
         fill="#707173"
         d="M376.161,460.274v-15.482h9.864v2.488h-6.905v3.687h5.169v2.488h-5.169v6.819H376.161L376.161,460.274z"
         id="path4687" /></g><g
       id="g4689"><path
         fill="#707173"
         d="M417.006,448.911c-0.45-1.201-1.372-2.018-2.766-2.018c-1.286,0-2.208,0.517-2.208,1.718    c0,2.657,7.977,2.099,7.977,7.118c0,3.174-1.994,4.762-5.425,4.762c-2.531,0-4.91-1.414-5.79-3.668l2.444-1.07    c0.708,1.457,1.629,2.422,3.366,2.422c1.48,0,2.616-0.557,2.616-2.059c0-3.045-7.977-2.444-7.977-7.205    c0-2.769,2.315-4.332,4.996-4.332c2.488,0,4.546,1.244,5.468,3.494L417.006,448.911z"
         id="path4691" /></g><g
       id="g4693"><path
         fill="#707173"
         d="M451.131,448.911c-0.45-1.201-1.372-2.018-2.766-2.018c-1.286,0-2.208,0.517-2.208,1.718    c0,2.657,7.977,2.099,7.977,7.118c0,3.174-1.994,4.762-5.425,4.762c-2.531,0-4.91-1.414-5.79-3.668l2.444-1.07    c0.708,1.457,1.629,2.422,3.365,2.422c1.48,0,2.616-0.557,2.616-2.059c0-3.045-7.977-2.444-7.977-7.205    c0-2.769,2.314-4.332,4.996-4.332c2.487,0,4.546,1.244,5.468,3.494L451.131,448.911z"
         id="path4695" /></g><g
       id="g4697"><path
         fill="#707173"
         d="M240.721,485.625v-1.332h2.68v-12.586l-2.979,0.301V471c1.071-0.322,2.294-0.643,2.979-1.072h1.545v14.365    h2.637v1.332H240.721z"
         id="path4699" /></g><g
       id="g4701"><path
         fill="#707173"
         d="M282.994,485.625h-10.056v-1.631c2.68-5.426,8.448-5.746,8.448-9.908c0-1.799-1.157-2.83-3.13-2.83    c-2.231,0-3.389,1.803-3.646,3.367l-1.522-0.344c0.494-2.143,1.759-4.352,5.21-4.352c2.532,0,4.718,1.457,4.718,4.115    c0,4.719-6.775,6.006-8.448,10.25h8.427L282.994,485.625L282.994,485.625z"
         id="path4703" /></g><g
       id="g4705"><path
         fill="#707173"
         d="M307.621,481.938c1.179,1.586,2.637,2.572,4.245,2.572c2.273,0,3.646-1.156,3.646-3.004    c0-2.166-1.287-3.473-4.374-3.473h-1.522v-1.328h0.922c3.087,0,4.418-0.988,4.418-2.898c0-1.561-1.353-2.551-2.831-2.551    c-1.887,0-2.702,0.814-3.731,2.146l-1.266-0.857c1.051-1.457,2.51-2.615,4.997-2.615c2.744,0,4.46,1.414,4.46,3.859    c0,1.867-1.201,2.959-2.402,3.43c2.445,0.945,2.959,2.703,2.959,4.119c0,2.635-2.036,4.502-5.274,4.502    c-2.96,0-4.76-1.844-5.489-3.045L307.621,481.938z"
         id="path4707" /></g><g
       id="g4709"><path
         fill="#707173"
         d="M349.25,481.979v3.646h-1.544v-3.646h-7.119v-1.33l6.39-10.508h2.273v10.508h2.658v1.33H349.25z     M342.217,480.649h5.489v-8.877h-0.064L342.217,480.649z"
         id="path4711" /></g><g
       id="g4713"><path
         fill="#707173"
         d="M384.64,471.471h-6.647l-0.386,4.955c1.008-0.922,2.079-1.268,3.174-1.268c2.573,0,4.953,1.76,4.953,5.232    c0,2.359-1.415,5.447-5.36,5.447c-2.639,0-3.968-1.457-4.933-2.959l1.394-0.729c0.751,1.395,1.952,2.357,3.582,2.357    c2.036,0,3.688-1.201,3.688-4.119c0-2.27-1.329-3.9-3.474-3.9c-1.501,0-2.638,0.9-3.26,2.34l-1.351-0.303l0.687-8.387h7.934    L384.64,471.471L384.64,471.471z"
         id="path4715" /></g><g
       id="g4717"><path
         fill="#A36D30"
         d="M418.335,473.315c-0.642-0.555-1.5-1.07-2.615-1.07c-2.102,0-3.817,2.102-3.86,4.717    c1.008-0.879,2.06-1.244,3.475-1.244c2.724,0,4.739,2.061,4.76,5.02c-0.021,3.234-2.358,5.104-5.468,5.104    c-3.237,0-5.553-2.316-5.553-7.033c0-5.404,2.443-8.877,6.646-8.877c1.501,0,2.659,0.43,3.838,1.158L418.335,473.315z     M414.648,478.034c-1.243,0-2.188,0.602-2.788,1.76c0,2.615,1.48,3.73,2.981,3.73c1.479,0,2.488-1.07,2.466-2.684    C417.33,479.127,416.384,478.034,414.648,478.034z"
         id="path4719" /></g><g
       id="g4721"><path
         fill="#707173"
         d="M443.734,471.471v-1.33h9.82v0.945l-6.541,14.539h-1.801l6.369-14.154H443.734L443.734,471.471z"
         id="path4723" /></g><g
       id="g4725"><path
         fill="#707173"
         d="M243.938,511.188c-3.796,0-5.641-1.887-5.641-4.246c0-1.973,1.545-3.344,3.389-4.201v-0.043    c-1.716-0.643-2.745-1.953-2.745-3.561c0-2.531,2.145-3.859,4.997-3.859s4.995,1.328,4.995,3.859c0,1.607-1.029,2.918-2.744,3.561    v0.043c1.845,0.666,3.389,2.1,3.389,4.201C249.578,509.301,247.733,511.188,243.938,511.188z M243.938,509.86    c2.809,0,4.009-1.543,4.009-2.918c0-1.799-1.843-2.701-4.288-3.516c-1.887,0.814-3.731,1.717-3.731,3.516    C239.927,508.317,241.128,509.86,243.938,509.86z M243.938,496.606c-1.695,0-3.367,0.732-3.367,2.445    c0,1.674,2.102,2.615,3.367,2.98c1.715-0.43,3.365-1.48,3.365-2.98C247.303,497.338,245.631,496.606,243.938,496.606z"
         id="path4727" /></g><g
       id="g4729"><path
         fill="#707173"
         d="M274.31,508.979c0.707,0.559,1.436,0.881,2.637,0.881c2.445,0,4.568-2.188,4.761-6.477    c-0.943,0.988-2.101,1.844-4.245,1.844c-2.315,0-4.654-1.629-4.654-4.975c0-3.301,2.424-4.975,4.997-4.975    c3.217,0,5.532,1.887,5.532,7.164c0,4.887-2.187,8.746-6.348,8.746c-1.672,0-2.895-0.475-3.345-0.898L274.31,508.979z     M277.677,503.899c1.887,0,3.345-1.244,3.944-2.875c-0.042-2.701-1.458-4.418-3.688-4.418c-2.188,0-3.495,1.504-3.495,3.604    C274.438,502.612,276.047,503.899,277.677,503.899z"
         id="path4731" /></g><g
       id="g4733"><path
         fill="#707173"
         d="M302.526,510.975v-1.328h2.68v-12.588l-2.979,0.301v-1.01c1.071-0.32,2.294-0.643,2.979-1.07h1.544v14.367    h2.638v1.328H302.526z"
         id="path4735" /><path
         fill="#707173"
         d="M318.634,495.278c3.366,0,5.468,2.359,5.468,7.955s-2.102,7.955-5.468,7.955    c-3.366,0-5.468-2.359-5.468-7.955S315.268,495.278,318.634,495.278z M318.634,509.86c2.509,0,3.838-1.93,3.838-6.627    s-1.329-6.627-3.838-6.627c-2.51,0-3.839,1.93-3.839,6.627S316.125,509.86,318.634,509.86z"
         id="path4737" /></g><g
       id="g4739"><path
         fill="#707173"
         d="M336.651,510.975v-1.328h2.68v-12.588l-2.979,0.301v-1.01c1.071-0.32,2.294-0.643,2.979-1.07h1.544v14.367    h2.638v1.328H336.651z"
         id="path4741" /><path
         fill="#707173"
         d="M349.542,510.975v-1.328h2.68v-12.588l-2.979,0.301v-1.01c1.071-0.32,2.294-0.643,2.979-1.07h1.545v14.367    h2.638v1.328H349.542z"
         id="path4743" /></g><g
       id="g4745"><path
         fill="#707173"
         d="M370.776,510.975v-1.328h2.68v-12.588l-2.979,0.301v-1.01c1.071-0.32,2.294-0.643,2.979-1.07H375v14.367    h2.638v1.328H370.776z"
         id="path4747" /><path
         fill="#707173"
         d="M391.815,510.975h-10.056v-1.631c2.68-5.426,8.449-5.746,8.449-9.904c0-1.803-1.158-2.832-3.131-2.832    c-2.23,0-3.389,1.803-3.646,3.365l-1.521-0.344c0.493-2.143,1.758-4.352,5.21-4.352c2.531,0,4.718,1.457,4.718,4.117    c0,4.717-6.776,6.004-8.449,10.25h8.427L391.815,510.975L391.815,510.975z"
         id="path4749" /></g><g
       id="g4751"><path
         fill="#A36D30"
         d="M404.708,510.975v-2.145h2.402v-10.678h-2.745v-1.803c1.415-0.062,2.658-0.387,3.367-1.07h2.165v13.551    h2.38v2.145H404.708z"
         id="path4753" /><path
         fill="#A36D30"
         d="M418.629,501.604c2.272,0,4.16-0.324,4.16-2.166c0-1.115-0.944-1.844-2.23-1.844    c-1.308,0-2.188,0.729-2.96,1.543l-1.844-1.672c1.501-1.588,3.13-2.188,4.717-2.188c2.831,0,5.104,1.371,5.104,3.988    c0,1.543-0.856,2.701-2.337,3.346c1.845,0.578,2.853,1.992,2.853,3.924c0,3.238-2.744,4.652-5.489,4.652    c-2.188,0-4.396-1.027-5.468-3.004l2.229-1.264c0.75,1.264,1.779,1.949,3.26,1.949c1.372,0,2.68-0.834,2.68-2.336    c0-2.531-2.81-2.617-4.674-2.617L418.629,501.604L418.629,501.604z"
         id="path4755" /></g><g
       id="g4757"><path
         fill="#707173"
         d="M439.026,510.975v-1.328h2.68v-12.588l-2.979,0.301v-1.01c1.071-0.32,2.295-0.643,2.979-1.07h1.544v14.367    h2.638v1.328H439.026z"
         id="path4759" /><path
         fill="#707173"
         d="M458.072,507.329v3.646h-1.543v-3.646h-7.12v-1.33l6.39-10.508h2.273v10.508h2.659v1.33H458.072z     M451.039,505.999h5.49v-8.877h-0.065L451.039,505.999z"
         id="path4761" /></g><g
       id="g4763"><path
         fill="#707173"
         d="M234.276,536.325v-1.33h2.68v-12.586l-2.979,0.299V521.7c1.071-0.322,2.294-0.643,2.979-1.072h1.544    v14.367h2.638v1.33H234.276z"
         id="path4765" /><path
         fill="#707173"
         d="M254.586,522.172h-6.646l-0.387,4.953c1.009-0.922,2.08-1.268,3.174-1.268c2.573,0,4.954,1.76,4.954,5.234    c0,2.357-1.416,5.445-5.361,5.445c-2.638,0-3.967-1.457-4.932-2.957l1.394-0.73c0.75,1.395,1.951,2.357,3.581,2.357    c2.036,0,3.688-1.201,3.688-4.117c0-2.271-1.329-3.9-3.474-3.9c-1.502,0-2.638,0.898-3.26,2.338l-1.352-0.305l0.688-8.383h7.933    V522.172z"
         id="path4767" /></g><g
       id="g4769"><path
         fill="#707173"
         d="M268.401,536.325v-1.33h2.68v-12.586l-2.979,0.299V521.7c1.071-0.322,2.294-0.643,2.979-1.072h1.544    v14.367h2.638v1.33H268.401z"
         id="path4771" /><path
         fill="#707173"
         d="M288.283,522.836c-0.707-0.559-1.436-0.881-2.637-0.881c-2.445,0-4.718,2.018-4.761,6.479    c0.943-0.986,2.101-1.844,4.245-1.844c2.317,0,4.654,1.627,4.654,4.977c0,3.301-2.424,4.973-4.997,4.973    c-3.216,0-5.532-1.887-5.532-7.162c0-4.889,2.188-8.748,6.348-8.748c1.673,0,2.895,0.473,3.345,0.9L288.283,522.836z     M284.917,527.918c-1.888,0-3.861,1.543-3.989,3.303c0.085,2.188,1.501,3.988,3.731,3.988c2.188,0,3.495-1.502,3.495-3.602    C288.155,529.206,286.546,527.918,284.917,527.918z"
         id="path4773" /></g><g
       id="g4775"><path
         fill="#707173"
         d="M302.526,536.325v-1.33h2.68v-12.586l-2.979,0.299V521.7c1.071-0.322,2.294-0.643,2.979-1.072h1.544    v14.367h2.638v1.33H302.526z"
         id="path4777" /><path
         fill="#707173"
         d="M313.681,522.172v-1.33h9.821v0.943l-6.541,14.539h-1.802l6.369-14.152H313.681z"
         id="path4779" /></g><g
       id="g4781"><path
         fill="#707173"
         d="M336.651,536.325v-1.33h2.68v-12.586l-2.979,0.299V521.7c1.071-0.322,2.294-0.643,2.979-1.072h1.544    v14.367h2.638v1.33H336.651z"
         id="path4783" /><path
         fill="#707173"
         d="M352.759,536.538c-3.796,0-5.641-1.887-5.641-4.244c0-1.973,1.545-3.344,3.389-4.203v-0.043    c-1.715-0.643-2.745-1.953-2.745-3.561c0-2.531,2.145-3.859,4.997-3.859c2.852,0,4.996,1.328,4.996,3.859    c0,1.607-1.03,2.918-2.745,3.561v0.043c1.845,0.666,3.389,2.102,3.389,4.203C358.399,534.651,356.554,536.538,352.759,536.538z     M352.759,535.209c2.809,0,4.01-1.543,4.01-2.916c0-1.801-1.844-2.703-4.289-3.518c-1.887,0.814-3.73,1.717-3.73,3.518    C348.75,533.667,349.95,535.209,352.759,535.209z M352.759,521.956c-1.694,0-3.366,0.732-3.366,2.445    c0,1.674,2.101,2.615,3.366,2.98c1.716-0.428,3.366-1.479,3.366-2.98C356.125,522.688,354.453,521.956,352.759,521.956z"
         id="path4785" /></g><g
       id="g4787"><path
         fill="#707173"
         d="M370.776,536.325v-1.33h2.68v-12.586l-2.979,0.299V521.7c1.071-0.322,2.294-0.643,2.979-1.072H375v14.367    h2.638v1.33H370.776z"
         id="path4789" /><path
         fill="#707173"
         d="M383.131,534.329c0.708,0.559,1.437,0.881,2.638,0.881c2.444,0,4.567-2.188,4.761-6.477    c-0.943,0.988-2.102,1.844-4.246,1.844c-2.315,0-4.653-1.627-4.653-4.975c0-3.301,2.423-4.975,4.996-4.975    c3.218,0,5.533,1.887,5.533,7.164c0,4.887-2.188,8.746-6.348,8.746c-1.672,0-2.895-0.473-3.346-0.898L383.131,534.329z     M386.499,529.249c1.887,0,3.346-1.244,3.944-2.875c-0.042-2.701-1.457-4.418-3.688-4.418c-2.188,0-3.495,1.504-3.495,3.604    C383.26,527.961,384.869,529.249,386.499,529.249z"
         id="path4791" /></g><g
       id="g4793"><path
         fill="#A36D30"
         d="M402.778,536.325v-2.551c0.471-2.426,7.634-5.855,7.634-8.688c0-1.35-0.88-2.143-2.294-2.143    c-1.544,0-2.445,1.027-2.788,2.443l-2.487-0.533c0.321-2.385,2.552-4.229,5.317-4.229c2.724,0,5.04,1.564,5.04,4.459    c0,3.775-3.475,5.32-7.334,8.836h7.334v2.402h-10.422V536.325z"
         id="path4795" /><path
         fill="#A36D30"
         d="M421.009,520.627c4.097,0,5.641,3.52,5.641,7.955c0,4.439-1.544,7.955-5.641,7.955    c-4.096,0-5.641-3.516-5.641-7.955C415.369,524.147,416.914,520.627,421.009,520.627z M421.009,534.223    c1.693,0,2.853-1.414,2.853-5.641c0-4.225-1.158-5.639-2.853-5.639c-1.694,0-2.853,1.414-2.853,5.639    C418.157,532.809,419.315,534.223,421.009,534.223z"
         id="path4797" /></g><g
       id="g4799"><path
         fill="#A36D30"
         d="M436.903,536.325v-2.551c0.471-2.426,7.634-5.855,7.634-8.688c0-1.35-0.88-2.143-2.294-2.143    c-1.544,0-2.445,1.027-2.788,2.443l-2.487-0.533c0.321-2.385,2.552-4.229,5.317-4.229c2.724,0,5.04,1.564,5.04,4.459    c0,3.775-3.476,5.32-7.334,8.836h7.334v2.402h-10.422V536.325z"
         id="path4801" /><path
         fill="#A36D30"
         d="M451.724,536.325v-2.145h2.402V523.5h-2.745V521.7c1.416-0.062,2.659-0.387,3.367-1.072h2.166v13.553    h2.379v2.146h-7.569V536.325z"
         id="path4803" /></g><g
       id="g4805"><path
         fill="#707173"
         d="M242.423,561.674h-10.056v-1.629c2.68-5.426,8.448-5.746,8.448-9.908c0-1.801-1.157-2.83-3.131-2.83    c-2.23,0-3.388,1.805-3.646,3.365l-1.522-0.342c0.493-2.143,1.759-4.352,5.21-4.352c2.532,0,4.718,1.457,4.718,4.115    c0,4.717-6.775,6.004-8.448,10.25h8.427V561.674L242.423,561.674z"
         id="path4807" /><path
         fill="#707173"
         d="M255.316,561.674h-10.057v-1.629c2.681-5.426,8.449-5.746,8.449-9.908c0-1.801-1.158-2.83-3.131-2.83    c-2.23,0-3.389,1.805-3.646,3.365l-1.521-0.342c0.493-2.143,1.758-4.352,5.21-4.352c2.531,0,4.718,1.457,4.718,4.115    c0,4.717-6.775,6.004-8.449,10.25h8.428L255.316,561.674L255.316,561.674z"
         id="path4809" /></g><g
       id="g4811"><path
         fill="#707173"
         d="M276.548,561.674h-10.056v-1.629c2.68-5.426,8.448-5.746,8.448-9.908c0-1.801-1.157-2.83-3.131-2.83    c-2.23,0-3.388,1.805-3.646,3.365l-1.522-0.342c0.493-2.143,1.759-4.352,5.21-4.352c2.532,0,4.718,1.457,4.718,4.115    c0,4.717-6.775,6.004-8.448,10.25h8.427V561.674L276.548,561.674z"
         id="path4813" /><path
         fill="#707173"
         d="M279.942,557.985c1.18,1.588,2.637,2.576,4.245,2.576c2.273,0,3.646-1.158,3.646-3.004    c0-2.166-1.287-3.475-4.375-3.475h-1.522v-1.328h0.922c3.088,0,4.418-0.986,4.418-2.896c0-1.564-1.352-2.551-2.831-2.551    c-1.887,0-2.701,0.814-3.731,2.145l-1.266-0.857c1.052-1.459,2.51-2.613,4.997-2.613c2.745,0,4.46,1.412,4.46,3.857    c0,1.865-1.201,2.957-2.402,3.43c2.445,0.945,2.96,2.701,2.96,4.119c0,2.637-2.037,4.5-5.275,4.5c-2.959,0-4.76-1.842-5.489-3.043    L279.942,557.985z"
         id="path4815" /></g><g
       id="g4817"><path
         fill="#707173"
         d="M310.673,561.674h-10.056v-1.629c2.68-5.426,8.448-5.746,8.448-9.908c0-1.801-1.157-2.83-3.131-2.83    c-2.23,0-3.388,1.805-3.646,3.365l-1.522-0.342c0.493-2.143,1.759-4.352,5.21-4.352c2.532,0,4.718,1.457,4.718,4.115    c0,4.717-6.775,6.004-8.448,10.25h8.427V561.674L310.673,561.674z"
         id="path4819" /><path
         fill="#707173"
         d="M321.573,558.028v3.646h-1.544v-3.646h-7.12v-1.33l6.39-10.506h2.274v10.506h2.658v1.33H321.573z     M314.54,556.698h5.489v-8.877h-0.065L314.54,556.698z"
         id="path4821" /></g><g
       id="g4823"><path
         fill="#707173"
         d="M344.798,561.674h-10.056v-1.629c2.68-5.426,8.448-5.746,8.448-9.908c0-1.801-1.157-2.83-3.131-2.83    c-2.23,0-3.388,1.805-3.646,3.365l-1.522-0.342c0.493-2.143,1.759-4.352,5.21-4.352c2.532,0,4.718,1.457,4.718,4.115    c0,4.717-6.775,6.004-8.448,10.25h8.427V561.674L344.798,561.674z"
         id="path4825" /><path
         fill="#707173"
         d="M356.961,547.522h-6.647l-0.386,4.953c1.008-0.922,2.08-1.266,3.174-1.266c2.573,0,4.954,1.76,4.954,5.232    c0,2.357-1.416,5.443-5.361,5.443c-2.638,0-3.968-1.457-4.933-2.957l1.395-0.729c0.75,1.395,1.951,2.359,3.581,2.359    c2.036,0,3.688-1.201,3.688-4.119c0-2.273-1.329-3.902-3.474-3.902c-1.502,0-2.639,0.9-3.261,2.338l-1.351-0.303l0.688-8.383    h7.933V547.522z"
         id="path4827" /></g><g
       id="g4829"><path
         fill="#707173"
         d="M378.923,561.674h-10.056v-1.629c2.68-5.426,8.448-5.746,8.448-9.908c0-1.801-1.157-2.83-3.131-2.83    c-2.23,0-3.388,1.805-3.646,3.365l-1.522-0.342c0.492-2.143,1.759-4.352,5.21-4.352c2.531,0,4.718,1.457,4.718,4.115    c0,4.717-6.775,6.004-8.448,10.25h8.427V561.674L378.923,561.674z"
         id="path4831" /><path
         fill="#707173"
         d="M390.658,548.188c-0.707-0.559-1.436-0.881-2.637-0.881c-2.445,0-4.718,2.016-4.761,6.477    c0.943-0.988,2.101-1.844,4.245-1.844c2.316,0,4.654,1.627,4.654,4.975c0,3.301-2.424,4.973-4.997,4.973    c-3.216,0-5.532-1.885-5.532-7.162c0-4.887,2.187-8.744,6.348-8.744c1.673,0,2.895,0.471,3.345,0.896L390.658,548.188z     M387.292,553.268c-1.889,0-3.861,1.545-3.989,3.305c0.085,2.188,1.501,3.988,3.731,3.988c2.188,0,3.495-1.504,3.495-3.604    C390.53,554.555,388.92,553.268,387.292,553.268z"
         id="path4833" /></g><g
       id="g4835"><path
         fill="#707173"
         d="M413.048,561.674h-10.056v-1.629c2.68-5.426,8.448-5.746,8.448-9.908c0-1.801-1.157-2.83-3.131-2.83    c-2.23,0-3.388,1.805-3.646,3.365l-1.522-0.342c0.492-2.143,1.759-4.352,5.21-4.352c2.531,0,4.718,1.457,4.718,4.115    c0,4.717-6.775,6.004-8.448,10.25h8.427V561.674L413.048,561.674z"
         id="path4837" /><path
         fill="#707173"
         d="M416.056,547.522v-1.33h9.82v0.943l-6.54,14.539h-1.802l6.369-14.152H416.056z"
         id="path4839" /></g><g
       id="g4841"><path
         fill="#707173"
         d="M447.173,561.674h-10.056v-1.629c2.68-5.426,8.448-5.746,8.448-9.908c0-1.801-1.157-2.83-3.132-2.83    c-2.229,0-3.388,1.805-3.646,3.365l-1.522-0.342c0.492-2.143,1.76-4.352,5.21-4.352c2.531,0,4.719,1.457,4.719,4.115    c0,4.717-6.775,6.004-8.448,10.25h8.427V561.674L447.173,561.674z"
         id="path4843" /><path
         fill="#707173"
         d="M455.134,561.887c-3.796,0-5.641-1.885-5.641-4.244c0-1.973,1.545-3.344,3.389-4.201v-0.043    c-1.715-0.645-2.745-1.951-2.745-3.561c0-2.531,2.146-3.859,4.997-3.859c2.853,0,4.996,1.328,4.996,3.859    c0,1.607-1.03,2.916-2.745,3.561v0.043c1.846,0.666,3.39,2.1,3.39,4.201C460.774,560.002,458.929,561.887,455.134,561.887z     M455.134,560.563c2.81,0,4.01-1.547,4.01-2.92c0-1.801-1.844-2.699-4.288-3.518c-1.888,0.816-3.73,1.717-3.73,3.518    C451.125,559.016,452.325,560.563,455.134,560.563z M455.134,547.307c-1.693,0-3.366,0.73-3.366,2.443    c0,1.674,2.102,2.615,3.366,2.982c1.716-0.43,3.366-1.48,3.366-2.982C458.5,548.038,456.828,547.307,455.134,547.307z"
         id="path4845" /></g><g
       id="g4847"><path
         fill="#707173"
         d="M242.423,587.024h-10.056v-1.629c2.68-5.426,8.448-5.746,8.448-9.908c0-1.799-1.157-2.83-3.131-2.83    c-2.23,0-3.388,1.803-3.646,3.367l-1.522-0.344c0.493-2.143,1.759-4.352,5.21-4.352c2.532,0,4.718,1.457,4.718,4.115    c0,4.719-6.775,6.006-8.448,10.25h8.427V587.024L242.423,587.024z"
         id="path4849" /><path
         fill="#707173"
         d="M246.632,585.03c0.707,0.559,1.436,0.881,2.637,0.881c2.444,0,4.567-2.189,4.761-6.479    c-0.943,0.988-2.102,1.844-4.246,1.844c-2.315,0-4.653-1.627-4.653-4.973c0-3.301,2.423-4.975,4.996-4.975    c3.218,0,5.533,1.887,5.533,7.162c0,4.889-2.188,8.748-6.348,8.748c-1.672,0-2.895-0.475-3.346-0.9L246.632,585.03z     M249.999,579.948c1.887,0,3.346-1.244,3.944-2.873c-0.042-2.701-1.457-4.418-3.688-4.418c-2.188,0-3.495,1.502-3.495,3.602    C246.76,578.661,248.369,579.948,249.999,579.948z"
         id="path4851" /></g><g
       id="g4853"><path
         fill="#707173"
         d="M242.964,388.733c-0.749,0.304-1.615,0.116-1.615,0.116s-2.574-0.116-3.979-1.218    c-1.966-1.545-2.082-7.49-2.082-7.49c-0.118-8.051,9.479-1.824,9.479-1.824c-4.05-1.825-6.812-2.13-6.812,2.105    c0,3.886,1.545,6.999,1.545,6.999c3.441,0.141,6.017-1.568,6.017-1.568c0.702,0.07,2.294,1.193,2.294,1.193    c-0.914,0.491-1.85,0.938-2.529,1.171c0,0.306,0,0.865,0,1.872h-2.316C242.964,389.412,242.964,389.366,242.964,388.733z     M248.09,378.644l1.382,1.43l-1.382,1.381l-1.381-1.381L248.09,378.644z"
         id="path4855" /><path
         fill="#707173"
         d="M238.961,390.577l1.381,1.429l-1.381,1.381l-1.381-1.381L238.961,390.577z M238.961,393.386l1.381,1.429    l-1.381,1.381l-1.381-1.381L238.961,393.386z M242.964,397.271c-0.023-2.106,0.491-3.839,2.177-4.144c0,0-1.17-0.538-1.708-1.076    c-0.282-0.305-0.446-0.796-0.469-2.458h2.316c0.024,2.902,0.913,3.276,0.913,3.276s1.078,0.305,1.592,0.608    c0.352,0.258,0.142,0.258,0.142,0.258c-1.615,0-2.646,1.287-2.646,3.533h-2.317V397.271z"
         id="path4857" /><path
         fill="#707173"
         d="M242.964,404.619c-0.023-2.105,0.491-3.838,2.177-4.144c0,0-1.17-0.538-1.708-1.075    c-0.282-0.306-0.446-0.797-0.469-2.458h2.316c0.024,2.901,0.913,3.276,0.913,3.276s1.078,0.306,1.592,0.609    c0.352,0.256,0.142,0.256,0.142,0.256c-1.615,0-2.646,1.287-2.646,3.534L242.964,404.619L242.964,404.619z M252.233,399.189    l1.382,1.429l-1.382,1.38l-1.381-1.38L252.233,399.189z"
         id="path4859" /><path
         fill="#707173"
         d="M245.281,404.125c0,3.019,0.142,3.511,0.142,3.511c0.749,0.117,2.505-1.545,2.505-1.545    c0.233-0.07,2.294,0.937,2.294,0.937s-2.2,2.199-4.752,2.037c0,0-1.404-0.141-2.247-0.727c0,0-0.258-1.077-0.258-4.213H245.281    L245.281,404.125z M253.473,404.43l1.382,1.428l-1.382,1.381l-1.38-1.381L253.473,404.43z M253.498,407.238l1.381,1.429    l-1.381,1.381l-1.381-1.381L253.498,407.238z M255.581,405.833l1.382,1.428l-1.382,1.381l-1.381-1.381L255.581,405.833z"
         id="path4861" /><path
         fill="#707173"
         d="M240.484,412.902c0,0-0.305-2.015-0.773-0.634c-0.469,1.383-0.14,2.014-0.094,2.364    c0.047,0.327-0.257,0.116-0.257,0.116l-0.469-0.468c0,0-0.257-0.164-0.327-0.444c-0.352-1.567-1.218-2.458-1.265-2.505    c-0.047-0.117-0.094-0.164,0.047-0.233c0.234,0,1.218,0.749,1.218,0.749c0.07,0,0.117-0.469,0.117-0.469s0.022-1.171,1.029-0.585    c1.498,0.89,1.872,2.481,1.825,2.785c-0.069,0.305-0.35,0.538-0.35,0.538l-0.82-0.959L240.484,412.902z M255.417,420.321    c0,0-0.633-0.772-1.498-0.702c-2.2,0.188-3.956-0.164-5.314-0.702c-1.498,0.843-2.809,1.381-3.58,1.498    c-0.446,0.069-2.247-0.351-2.247-0.351c-0.469-1.171-0.398-5.923-0.398-5.923c0.982-0.398,2.973,0,2.973,0    c-0.234,0.163-0.211,0.516-0.211,0.516c1.193,1.403,2.131,2.247,2.902,2.762c2.153-1.311,3.301-2.574,3.581-2.927    c1.1-1.356,0.891-1.475,0.891-1.475s-0.398-0.864,0.28-1.075c0.655-0.211,1.451-0.398,2.176-0.281c1.265,0.21,1.007,1.1,1.007,1.1    c-1.567,2.153-3.932,4.05-6.108,5.433c1.498,0.326,3.44,0.021,3.44,0.021s0.843-0.141,1.358-0.422    c1.123-0.632,2.363,1.124,2.363,1.124C255.346,419.104,255.417,420.321,255.417,420.321z M245.094,416.389l0.164,2.435    c0.608-0.257,1.171-0.516,1.662-0.772C245.68,417.232,245.094,416.389,245.094,416.389z"
         id="path4863" /><path
         fill="#707173"
         d="M256.962,424.46c-2.786,0.071-4.191,0.235-5.572,0.305c-1.311,0.07-3.838,0.188-5.477,0.233    c-2.387,0.071-3.44-0.725-3.909-1.122c-0.141-0.118,0-0.118,0-0.118c1.615-0.093,4.799-0.396,4.799-0.396l6.717-0.374    C255.604,422.87,256.962,424.46,256.962,424.46z"
         id="path4865" /></g><g
       id="g4867"><path
         fill="#707173"
         d="M280.715,380.213c0,0-0.469-3.813-1.382-1.193c-0.937,2.646-0.327,3.862-0.211,4.519    c0.048,0.606-0.491,0.234-0.491,0.234l-0.912-0.891c0,0-0.491-0.352-0.633-0.891c-0.726-2.972-2.316-4.682-2.41-4.797    c-0.142-0.211-0.188-0.329,0.094-0.375c0.374,0,2.316,1.403,2.316,1.403c0.164,0,0.233-0.913,0.233-0.913s0.024-2.294,2.014-1.101    c2.785,1.662,3.534,4.683,3.465,5.29c-0.164,0.633-0.703,1.03-0.703,1.03l-1.544-1.803L280.715,380.213z"
         id="path4869" /><path
         fill="#707173"
         d="M276.666,390.556c0,0-0.211-4.166,2.996-4.261l9.269-0.256c0.491-0.024,1.686,1.334,1.686,1.334    c-0.912,0-6.555,0.14-9.573,0.14c-2.271,0-2.061,3.043-2.061,3.043H276.666L276.666,390.556z"
         id="path4871" /><path
         fill="#707173"
         d="M278.982,389.946c0,3.019,0.141,3.51,0.141,3.51c0.749,0.118,2.505-1.543,2.505-1.543    c0.234-0.071,2.294,0.936,2.294,0.936s-2.199,2.2-4.751,2.036c0,0-1.404-0.14-2.247-0.725c0,0-0.258-1.077-0.258-4.214H278.982    L278.982,389.946z M287.174,390.25l1.381,1.427l-1.381,1.382l-1.38-1.382L287.174,390.25z M287.199,393.059l1.381,1.429    l-1.381,1.381l-1.382-1.381L287.199,393.059z M289.282,391.655l1.381,1.428l-1.381,1.38l-1.381-1.38L289.282,391.655z"
         id="path4873" /><path
         fill="#707173"
         d="M276.666,409.464c0,0-0.258-3.041,2.832-3.205c3.019-0.164,4.563-0.211,4.563-0.211    s-8.355-1.03-7.84-7.326l0.21-2.574c1.615,7.841,8.895,9.27,8.895,9.27c3.02,0.468,4.214,0,4.892,0.303    c0.702,0.47,0.68,0.938-0.491,1.007c0,0-4.845,0.491-8.146,0.517c-2.832,0.022-2.599,2.223-2.599,2.223h-2.316V409.464z     M286.051,399.26c0,0-0.234-1.803,1.615-2.177c1.638-0.328,2.575-0.469,1.873,0.796c-0.68,1.545-2.341,2.973-4.144,3.861    c-2.622,1.287-5.781,0.211-5.781,0.211S284.014,402.022,286.051,399.26z"
         id="path4875" /><path
         fill="#707173"
         d="M276.666,416.788c-0.023-2.106,0.491-3.838,2.177-4.144c0,0-1.17-0.537-1.709-1.075    c-0.281-0.306-0.445-0.797-0.468-2.458h2.316c0.024,2.901,0.913,3.275,0.913,3.275s1.078,0.306,1.592,0.609    c0.352,0.257,0.141,0.257,0.141,0.257c-1.614,0-2.646,1.287-2.646,3.534L276.666,416.788L276.666,416.788z M285.512,409.954    l1.382,1.427l-1.382,1.382l-1.38-1.382L285.512,409.954z M285.512,412.762l1.382,1.429l-1.382,1.381l-1.38-1.381L285.512,412.762z     M287.97,411.358l1.382,1.428l-1.382,1.38l-1.381-1.38L287.97,411.358z"
         id="path4877" /><path
         fill="#707173"
         d="M279.146,418.494c0.749,0.188,7.187-0.374,7.187-0.374c0.491-0.023,0.749-0.07,1.427-0.354    c1.171-0.49,2.786,1.078,2.786,1.078s-1.732,0.093-2.177,1.521c0,0-0.468-0.844-1.732-0.772c-0.866,0.046-5.219,0.21-6.296,0.164    c-1.218-0.047-2.435,0-3.465-0.772c0,0-0.188-1.382-0.188-2.552h2.294C278.982,417.862,279.146,418.494,279.146,418.494z"
         id="path4879" /><path
         fill="#707173"
         d="M290.663,424.46c-2.785,0.071-4.19,0.235-5.571,0.305c-1.311,0.07-3.838,0.188-5.477,0.233    c-2.387,0.071-3.44-0.725-3.909-1.122c-0.141-0.118,0-0.118,0-0.118c1.614-0.093,4.799-0.396,4.799-0.396l6.717-0.374    C289.304,422.87,290.663,424.46,290.663,424.46z"
         id="path4881" /></g><g
       id="g4883"><path
         fill="#707173"
         d="M314.416,376.633c0,0-0.468-3.813-1.381-1.192c-0.937,2.645-0.327,3.861-0.211,4.518    c0.047,0.607-0.491,0.234-0.491,0.234l-0.913-0.891c0,0-0.491-0.352-0.632-0.891c-0.727-2.972-2.316-4.681-2.411-4.797    c-0.141-0.211-0.188-0.329,0.095-0.375c0.374,0,2.316,1.403,2.316,1.403c0.164,0,0.233-0.912,0.233-0.912s0.024-2.295,2.014-1.102    c2.785,1.662,3.534,4.684,3.465,5.29c-0.164,0.633-0.703,1.03-0.703,1.03l-1.544-1.802L314.416,376.633z"
         id="path4885" /><path
         fill="#707173"
         d="M310.366,386.976c0,0-0.21-4.166,2.996-4.261l9.27-0.256c0.491-0.024,1.686,1.334,1.686,1.334    c-0.913,0-6.555,0.14-9.573,0.14c-2.271,0-2.061,3.043-2.061,3.043H310.366L310.366,386.976z"
         id="path4887" /><path
         fill="#707173"
         d="M310.366,394.746c0-1.265,0.353-2.763,1.382-3.559c0,0-1.382-1.498-1.382-4.847h2.317    c-0.022,3.254,0.702,3.652,0.702,3.652c0.913-0.327,0.679-2.154,0.679-2.154s2.575,0.024,2.575,2.437    c0,2.879-1.989,2.854-1.989,2.854l-1.265-0.796c-0.585,0.562-0.702,1.147-0.702,2.412L310.366,394.746L310.366,394.746z"
         id="path4889" /><path
         fill="#707173"
         d="M306.973,395.165l1.38,1.429l-1.38,1.38l-1.382-1.38L306.973,395.165z M312.683,394.252    c0,3.02,0.141,3.51,0.141,3.51c0.749,0.118,2.505-1.544,2.505-1.544c0.233-0.07,2.294,0.937,2.294,0.937s-2.2,2.2-4.752,2.037    c0,0-1.403-0.141-2.247-0.727c0,0-0.258-1.076-0.258-4.213H312.683L312.683,394.252z"
         id="path4891" /><path
         fill="#707173"
         d="M312.075,409.463c-1.942,0.047-5.664-1.521-6.203-4.283c-0.491-2.505,1.171-4.938,1.171-4.938    c-0.516,1.849,0.397,3.627,0.655,4.212c0.491,1.101,3.021,4.238,4.119,4.05c1.054-0.187,1.897-1.566,2.225-1.896    c0.233-0.234,2.669,0.726,2.669,0.726C315.188,409.463,312.871,409.441,312.075,409.463z"
         id="path4893" /><path
         fill="#707173"
         d="M322.819,420.087c0,0-0.632-0.771-1.498-0.702c-2.2,0.188-3.956-0.164-5.314-0.702    c-1.498,0.844-2.808,1.382-3.58,1.498c-0.445,0.069-2.247-0.351-2.247-0.351c-0.468-1.171-0.398-5.923-0.398-5.923    c0.982-0.398,2.974,0,2.974,0c-0.235,0.164-0.211,0.516-0.211,0.516c1.193,1.404,2.13,2.247,2.902,2.762    c2.153-1.311,3.301-2.574,3.581-2.927c1.1-1.355,0.89-1.474,0.89-1.474s-0.398-0.866,0.281-1.076    c0.654-0.211,1.451-0.399,2.176-0.281c1.265,0.21,1.007,1.101,1.007,1.101c-1.568,2.152-3.932,4.05-6.109,5.431    c1.498,0.328,3.44,0.023,3.44,0.023s0.843-0.142,1.358-0.423c1.124-0.632,2.364,1.124,2.364,1.124    C322.748,418.871,322.819,420.087,322.819,420.087z M312.497,416.155l0.164,2.435c0.607-0.257,1.17-0.515,1.661-0.771    C313.082,416.999,312.497,416.155,312.497,416.155z M327.219,412.129c0,0-0.375-2.411-0.937-0.749    c-0.562,1.662-0.188,2.411-0.117,2.832c0.047,0.397-0.304,0.14-0.304,0.14l-0.562-0.561c0,0-0.305-0.188-0.397-0.538    c-0.445-1.873-1.45-2.951-1.521-2.996c-0.047-0.142-0.094-0.188,0.071-0.282c0.28,0,1.45,0.891,1.45,0.891    c0.093,0,0.14-0.562,0.14-0.562s0.024-1.402,1.241-0.701c1.803,1.055,2.247,2.996,2.201,3.349    c-0.094,0.374-0.422,0.653-0.422,0.653l-0.983-1.146L327.219,412.129z"
         id="path4895" /><path
         fill="#707173"
         d="M324.364,424.46c-2.785,0.071-4.19,0.235-5.571,0.305c-1.311,0.07-3.838,0.188-5.478,0.233    c-2.387,0.071-3.44-0.725-3.908-1.122c-0.142-0.118,0-0.118,0-0.118c1.614-0.093,4.799-0.396,4.799-0.396l6.717-0.374    C323.005,422.87,324.364,424.46,324.364,424.46z"
         id="path4897" /></g><g
       id="g4899"><path
         fill="#707173"
         d="M346.575,375.91c-0.727,2.061,0.28,2.691,1.193,3.021c0.654,0.233-0.258,0.421-0.258,0.421    s-0.678-0.233-0.889-0.069c-0.235,0.069-0.516,0.468-0.516,1.123c0,0.516,0.28,0.68,0.28,0.68s0-0.164,0.68,0    c0.562,0.14,1.334,0.796,1.334,0.796h-0.89c-1.124,0.14-1.124,1.334-1.124,2.668h-2.316c-0.023-0.656,0-2.528,0.913-3.137    c0,0-0.913-0.491-0.913-1.451c0-1.101,0.444-1.404,0.444-1.639c0,0-1.029-0.937-0.211-1.85c-1.169,0.211-1.615,0.211-1.615,0.211    s-2.316-0.023-3.65-0.89c-2.084-1.357-2.061-5.385-2.061-5.385c-0.14-6.53,8.239-1.709,8.239-1.709s-5.852-2.785-5.711,1.92    c0.117,3.815,1.802,4.963,1.802,4.963c2.061-0.142,5.314-1.615,5.314-1.615c0.444,0.07,1.778,1.287,1.778,1.287    C347.745,375.559,347.019,375.77,346.575,375.91z"
         id="path4901" /><path
         fill="#707173"
         d="M340.067,385.08l1.381,1.429l-1.381,1.381l-1.381-1.381L340.067,385.08z M340.067,387.889l1.381,1.429    l-1.381,1.381l-1.381-1.381L340.067,387.889z M344.07,391.774c-0.023-2.106,0.491-3.839,2.177-4.144c0,0-1.17-0.538-1.708-1.076    c-0.282-0.305-0.446-0.796-0.469-2.458h2.316c0.024,2.902,0.913,3.276,0.913,3.276s1.078,0.305,1.592,0.609    c0.352,0.257,0.141,0.257,0.141,0.257c-1.614,0-2.646,1.287-2.646,3.534L344.07,391.774L344.07,391.774z"
         id="path4903" /><path
         fill="#707173"
         d="M344.07,402.21c0-1.778,0.258-2.668,0.796-3.229l-1.522-0.633c2.201-2.436,2.061-3.745,2.061-3.745    s-1.193-0.727-1.334-2.084c0,0,0-0.725,0-1.264h2.316c-0.069,2.95,1.101,3.253,1.101,3.253c2.949,1.054,2.598,4.284,2.598,4.284    c-2.27-0.655-3.721,0.632-3.698,3.417H344.07L344.07,402.21z M346.339,397.88c0.796-0.444,1.873,0,1.873,0    c0-1.076-1.193-1.778-1.193-1.778C347.019,397.109,346.339,397.88,346.339,397.88z"
         id="path4905" /><path
         fill="#707173"
         d="M349.407,406.328c-0.071-0.655-0.235-1.193-0.656-1.731c-0.842-1.101,0.516-0.562,0.516-0.562    s2.621,0.89,2.574,2.855c-0.069,2.506-1.474,4.426-1.872,6.227c-0.515,2.317-0.328,3.138-0.328,3.138l-2.621-0.749    c0,0,0-1.546-0.095-2.271c-0.631-0.046-0.538,3.698-0.538,3.698h-2.316c-0.047-5.501,2.763-4.118,2.738-4.167    c-0.211-0.818-0.678-1.449-1.124-2.504c-1.076-2.505-1.661-4.985-1.614-8.613h2.316c0.047,6.461,2.061,9.572,2.061,9.572    S349.593,408.155,349.407,406.328z M354.954,409.043l1.381,1.428l-1.381,1.382l-1.38-1.382L354.954,409.043z"
         id="path4907" /><path
         fill="#707173"
         d="M346.55,418.495c0.749,0.187,7.187-0.374,7.187-0.374c0.491-0.023,0.749-0.07,1.427-0.353    c1.171-0.49,2.786,1.077,2.786,1.077s-1.732,0.094-2.177,1.521c0,0-0.468-0.843-1.732-0.772c-0.866,0.046-5.219,0.211-6.296,0.164    c-1.217-0.047-2.435,0-3.464-0.772c0,0-0.188-1.381-0.188-2.553h2.294C346.386,417.863,346.55,418.495,346.55,418.495z"
         id="path4909" /><path
         fill="#707173"
         d="M358.068,424.461c-2.786,0.071-4.191,0.235-5.572,0.305c-1.311,0.07-3.838,0.188-5.477,0.235    c-2.387,0.069-3.44-0.727-3.909-1.125c-0.141-0.117,0-0.117,0-0.117c1.615-0.092,4.799-0.396,4.799-0.396l6.717-0.375    C356.709,422.871,358.068,424.461,358.068,424.461z"
         id="path4911" /></g><g
       id="g4913"><path
         fill="#707173"
         d="M380.91,376.869l-0.305-0.491c-0.163-4.752,0.844-4.145,0.844-4.145l2.363,0.983    c1.826,1.919,2.902,4.189,2.902,4.189h0.516c0.585,0,1.638,1.123,1.638,1.123s-1.404,0.398-4.564,0.539    c-3.721,0.141-4.236,1.731-4.213,4.938h-2.317c0-5.313,1.85-5.712,3.698-5.97c0.819-0.116,3.418-0.353,3.418-0.353    c0-0.537-1.615-2.925-1.826-3.183c0,0-0.023-0.024-0.094,0.188c-0.069,0.211-0.211,1.967-0.211,3.254    C382.758,377.945,381.87,377.688,380.91,376.869z M390.484,372.21l1.38,1.428l-1.38,1.382l-1.382-1.382L390.484,372.21z     M390.484,374.973l1.38,1.428l-1.38,1.381l-1.382-1.381L390.484,374.973z"
         id="path4915" /><path
         fill="#707173"
         d="M377.773,391.775c0-1.266,0.352-2.764,1.382-3.56c0,0-1.382-1.498-1.382-4.846h2.317    c-0.023,3.254,0.702,3.652,0.702,3.652c0.912-0.327,0.679-2.154,0.679-2.154s2.574,0.023,2.574,2.436    c0,2.879-1.989,2.854-1.989,2.854l-1.264-0.796c-0.586,0.562-0.702,1.146-0.702,2.412L377.773,391.775L377.773,391.775z"
         id="path4917" /><path
         fill="#707173"
         d="M377.773,402.21c0-1.778,0.258-2.668,0.796-3.229l-1.521-0.633c2.201-2.436,2.06-3.745,2.06-3.745    s-1.193-0.727-1.334-2.084c0,0,0-0.725,0-1.264h2.317c-0.07,2.95,1.101,3.253,1.101,3.253c2.949,1.054,2.598,4.284,2.598,4.284    c-2.271-0.655-3.722,0.632-3.698,3.417H377.773L377.773,402.21z M380.043,397.88c0.796-0.444,1.872,0,1.872,0    c0-1.076-1.193-1.778-1.193-1.778C380.722,397.109,380.043,397.88,380.043,397.88z"
         id="path4919" /><path
         fill="#707173"
         d="M374.754,408.693l1.38,1.427l-1.38,1.382l-1.382-1.382L374.754,408.693z M383.11,406.328    c-0.07-0.655-0.234-1.193-0.656-1.731c-0.842-1.101,0.516-0.562,0.516-0.562s2.622,0.89,2.574,2.855    c-0.069,2.506-1.474,4.426-1.872,6.227c-0.515,2.317-0.327,3.138-0.327,3.138l-2.622-0.749c0,0,0-1.546-0.094-2.271    c-0.631-0.046-0.538,3.698-0.538,3.698h-2.317c-0.047-5.501,2.763-4.118,2.738-4.167c-0.211-0.818-0.678-1.449-1.123-2.504    c-1.077-2.505-1.662-4.985-1.615-8.613h2.317c0.047,6.461,2.061,9.572,2.061,9.572S383.296,408.155,383.11,406.328z"
         id="path4921" /><path
         fill="#707173"
         d="M380.253,418.495c0.749,0.187,7.188-0.374,7.188-0.374c0.491-0.023,0.749-0.07,1.427-0.353    c1.17-0.49,2.785,1.077,2.785,1.077s-1.731,0.094-2.176,1.521c0,0-0.469-0.843-1.733-0.772c-0.865,0.046-5.219,0.211-6.295,0.164    c-1.218-0.047-2.436,0-3.465-0.772c0,0-0.188-1.381-0.188-2.553h2.294C380.09,417.863,380.253,418.495,380.253,418.495z"
         id="path4923" /><path
         fill="#707173"
         d="M391.771,424.461c-2.785,0.071-4.19,0.235-5.572,0.305c-1.31,0.07-3.838,0.188-5.477,0.235    c-2.387,0.069-3.44-0.727-3.909-1.125c-0.141-0.117,0-0.117,0-0.117c1.615-0.092,4.799-0.396,4.799-0.396l6.718-0.375    C390.413,422.871,391.771,424.461,391.771,424.461z"
         id="path4925" /></g><g
       id="g4927"><path
         fill="#707173"
         d="M411.474,393.696c0-2.224,0.233-3.792,2.341-4.518c0,0-1.709-0.516-1.896-1.732    c0,0-0.655-2.621-0.936-5.898c-0.352-3.979,0.469-9.269,6.835-5.29v0.047c-7.257-3.581-4.097,10.159-3.534,11.588    c0.327,0.818,0.467,1.006,0.467,1.006s1.24,0.258,1.615,0.54c0.421,0.303,0.492,0.372,0.492,0.372    c-2.879,0.492-3.067,1.896-3.067,3.887L411.474,393.696L411.474,393.696z M420.931,379.722l1.381,1.43l-1.381,1.38l-1.382-1.38    L420.931,379.722z M421,382.531l1.382,1.428L421,385.34l-1.381-1.382L421,382.531z"
         id="path4929" /><path
         fill="#707173"
         d="M408.22,395.351l1.381,1.43l-1.381,1.381l-1.381-1.381L408.22,395.351z M411.474,400.922    c-0.022-2.105,0.491-3.838,2.177-4.143c0,0-1.17-0.538-1.708-1.077c-0.282-0.305-0.446-0.796-0.469-2.457h2.316    c0.024,2.901,0.913,3.276,0.913,3.276s1.078,0.305,1.592,0.608c0.352,0.257,0.142,0.257,0.142,0.257    c-1.615,0-2.646,1.287-2.646,3.534L411.474,400.922L411.474,400.922z"
         id="path4931" /><path
         fill="#707173"
         d="M411.474,416.814c0-0.982,0-2.553,0.727-3.651c0,0-0.375-0.116-0.727-0.374c0,0-0.982-3.276,1.218-3.886    c0,0-1.593-0.259-1.593-2.81c0-1.709,1.476-1.825,1.476-1.825s-1.101-0.96-1.101-3.862h2.316c0,3.137,0.938,4.308,1.335,4.588    c0.327,0.234,0.352,0.632,0,0.491c-0.749-0.28-0.982-0.233-0.982-0.233s-0.608,0.116-0.608,1.217c0,1.942,1.591,3.16,1.965,3.277    c0.117,0.116,0.142,0.421,0.142,0.421s-0.608-0.141-0.727-0.141c-0.749-0.117-1.124,0.444-1.124,1.312    c0,0.491,0.117,1.334,0.117,1.334s0.235,0,0.609,0c0.375,0,1.451,0.727,1.451,0.727c-1.825,0.115-2.178,1.85-2.178,3.417    L411.474,416.814L411.474,416.814z"
         id="path4933" /><path
         fill="#707173"
         d="M413.955,418.494c0.749,0.188,7.187-0.374,7.187-0.374c0.492-0.023,0.749-0.07,1.429-0.354    c1.17-0.49,2.785,1.078,2.785,1.078s-1.731,0.093-2.177,1.521c0,0-0.469-0.844-1.732-0.772c-0.865,0.046-5.219,0.21-6.296,0.164    c-1.217-0.047-2.435,0-3.464-0.772c0,0-0.188-1.382-0.188-2.552h2.294C413.791,417.862,413.955,418.494,413.955,418.494z"
         id="path4935" /><path
         fill="#707173"
         d="M425.472,424.46c-2.785,0.071-4.19,0.235-5.572,0.305c-1.311,0.07-3.838,0.188-5.477,0.233    c-2.387,0.071-3.44-0.725-3.909-1.122c-0.141-0.118,0-0.118,0-0.118c1.615-0.093,4.799-0.396,4.799-0.396l6.717-0.374    C424.114,422.87,425.472,424.46,425.472,424.46z"
         id="path4937" /></g><g
       id="g4939"><path
         fill="#707173"
         d="M453.555,391.352c0.538-0.047,1.686,1.266,1.686,1.266s-3.138,0.28-5.267,0.818    c-2.341,0.586-2.481,1.476-2.481,2.738h-2.316c-0.094-3.394,2.832-3.909,2.832-3.909c-1.101-0.258-1.592-0.514-1.592-0.514    s-1.171-1.218-1.334-3.979c-0.164-2.926,2.294-2.738,3.534-2.224c-0.631-0.023-1.451,0.303-1.193,2.527    c0.353,3.09,1.567,3.956,1.567,3.956C449.927,391.961,452.876,391.422,453.555,391.352z"
         id="path4941" /><path
         fill="#707173"
         d="M448.452,404.457c1.381-2.06,1.662-3.721,1.662-4.494c0-0.396-0.188-1.193-0.491-1.568    c-0.702-0.89,0.188-0.468,0.188-0.468s2.574,0.609,2.552,2.811c-0.023,1.988-1.568,4.071-2.294,5.501    c-0.843,1.685-0.866,3.229-0.866,3.229l-2.81-1.101c0,0,0.305-2.247-0.257-4.729c-0.396-1.73-0.96-4.188-0.96-7.911h2.316    C447.399,399.751,448.452,404.457,448.452,404.457z"
         id="path4943" /><path
         fill="#707173"
         d="M457.627,420.088c0,0-0.632-0.771-1.498-0.702c-2.199,0.188-3.955-0.164-5.312-0.702    c-1.498,0.844-2.81,1.382-3.58,1.498c-0.446,0.07-2.247-0.351-2.247-0.351c-0.469-1.17-0.399-5.922-0.399-5.922    c0.983-0.398,2.975,0,2.975,0c-0.234,0.163-0.211,0.514-0.211,0.514c1.192,1.405,2.131,2.247,2.901,2.763    c2.153-1.311,3.301-2.573,3.581-2.926c1.101-1.356,0.891-1.475,0.891-1.475s-0.398-0.865,0.28-1.076    c0.655-0.211,1.451-0.398,2.176-0.282c1.266,0.211,1.008,1.102,1.008,1.102c-1.567,2.152-3.933,4.05-6.109,5.432    c1.498,0.327,3.44,0.022,3.44,0.022s0.844-0.142,1.357-0.422c1.124-0.633,2.364,1.123,2.364,1.123    C457.557,418.872,457.627,420.088,457.627,420.088z M447.305,416.157l0.164,2.434c0.608-0.257,1.17-0.515,1.662-0.771    C447.89,417,447.305,416.157,447.305,416.157z M462.028,412.13c0,0-0.374-2.41-0.938-0.749c-0.562,1.662-0.187,2.411-0.117,2.833    c0.048,0.397-0.303,0.141-0.303,0.141l-0.562-0.562c0,0-0.306-0.188-0.397-0.538c-0.446-1.873-1.451-2.949-1.521-2.996    c-0.048-0.141-0.095-0.188,0.07-0.282c0.28,0,1.451,0.892,1.451,0.892c0.093,0,0.14-0.562,0.14-0.562s0.023-1.404,1.24-0.703    c1.803,1.055,2.247,2.996,2.201,3.349c-0.094,0.374-0.422,0.655-0.422,0.655l-0.983-1.146L462.028,412.13z"
         id="path4945" /><path
         fill="#707173"
         d="M459.173,424.461c-2.786,0.071-4.19,0.235-5.572,0.305c-1.311,0.07-3.838,0.188-5.477,0.235    c-2.387,0.069-3.44-0.727-3.909-1.125c-0.141-0.117,0-0.117,0-0.117c1.615-0.092,4.799-0.396,4.799-0.396l6.718-0.375    C457.815,422.871,459.173,424.461,459.173,424.461z"
         id="path4947" /></g><g
       id="g4949"><path
         fill="#A36D30"
         d="M352.128,338.784c-1.381,0-1.85-0.094-1.85-0.094c-0.14,1.265-1.287,3.559-1.567,4.024    c-0.516,0.867-1.733,2.552-4.214,2.832c-2.294,0.258-5.221-1.941-5.221-1.941s1.663,0.375,4.003-0.351    c4.33-1.357,5.665-4.401,5.665-4.401s0.116,0-0.117-0.211c-0.982-0.889-1.193-1.239-1.639-1.941    c-0.562-0.892,0.234-2.975,0.445-3.44c0.211-0.445,0.211,0,0.211,0s0.022,1.053,1.638,1.896c0.727,0.374,1.24,0.632,2.646,0.632    V338.784z"
         id="path4951" /><path
         fill="#A36D30"
         d="M351.468,335.788c3.021,0,3.581-0.141,3.581-0.141c-0.092-0.727-1.193-2.247-1.193-2.247    c0.188-0.727,1.288-2.364,1.288-2.364s1.825,2.575,1.803,4.683c0,0-0.164,1.614-1.007,2.785c0,0-1.335,0.28-4.472,0.28V335.788    L351.468,335.788z M351.843,342.506l1.592-1.593l1.662,1.638l-1.615,1.593L351.843,342.506z M355.144,342.576l1.592-1.592    l1.662,1.639l-1.615,1.591L355.144,342.576z"
         id="path4953" /><path
         fill="#A36D30"
         d="M362.234,324.879c0.07,2.786,0.141,4.214,0.211,5.596c0.069,1.311,0.094,3.394,0.141,5.032    c0.046,1.942-1.265,3.51-1.663,3.979c-0.116,0.141-0.116,0-0.116,0c-0.095-1.615-0.234-4.541-0.234-4.541l-0.141-6.53    C360.384,326.331,362.234,324.879,362.234,324.879z"
         id="path4955" /><path
         fill="#A36D30"
         d="M376.371,338.784c-1.382,0-1.85-0.094-1.85-0.094c-0.142,1.265-1.288,3.559-1.568,4.024    c-0.516,0.867-1.732,2.552-4.214,2.832c-2.294,0.258-5.219-1.941-5.219-1.941s1.662,0.375,4.002-0.351    c4.33-1.357,5.664-4.401,5.664-4.401s0.117,0-0.116-0.211c-0.983-0.889-1.193-1.239-1.64-1.941    c-0.561-0.892,0.235-2.975,0.446-3.44c0.21-0.445,0.21,0,0.21,0s0.023,1.053,1.638,1.896c0.727,0.374,1.241,0.632,2.646,0.632    L376.371,338.784L376.371,338.784z"
         id="path4957" /><path
         fill="#A36D30"
         d="M383.575,338.784c-2.106,0.021-3.838-0.491-4.143-2.177c0,0-0.538,1.17-1.076,1.708    c-0.305,0.281-0.796,0.445-2.458,0.469v-2.996c2.902-0.022,3.276-0.913,3.276-0.913s0.305-1.076,0.609-1.592    c0.257-0.352,0.468-0.306,0.468-0.306c0,1.616,1.076,2.811,3.323,2.811L383.575,338.784L383.575,338.784z M378.123,341.874    l1.591-1.592l1.661,1.639l-1.614,1.591L378.123,341.874z"
         id="path4959" /><path
         fill="#A36D30"
         d="M388.441,335.436c0-0.654-0.094-1.1-0.327-1.755l-0.188,0.375c-0.327,0.374-0.678,0.96-1.801,1.005    c-2.856,0.118-2.225-3.158-1.406-4.82c1.593-3.276,3.723-0.913,3.723-0.913s1.803,1.896,1.778,4.916    c-0.022,2.574-0.678,4.05-0.678,4.05c-0.516,0.258-4.308,0.491-6.461,0.491v-2.996    C385.632,335.788,388.441,335.436,388.441,335.436z M384.134,326.284l1.568-1.591l1.685,1.638l-1.615,1.593L384.134,326.284z     M386.874,331.107c-0.516-0.165-1.171,0.514-1.218,0.817c0,0.211,0.258,0.562,1.029,0.655c0.538,0.07,1.101-0.327,1.147-0.444    C387.481,331.316,387.083,331.176,386.874,331.107z"
         id="path4961" /><path
         fill="#A36D30"
         d="M398.126,341.428l9.06-16.854h3.112l-9.152,16.854H398.126z"
         id="path4963" /><path
         fill="#A36D30"
         d="M420.1,339.042c-4.05-0.047-2.926-3.395-2.926-3.395c0.258,0.726,3.043,0.444,3.043,0.444    s0.188-0.141,0.352-0.422c0.28-3.675-0.679-7.467-0.679-7.467c-0.281-1.404,1.498-3.418,1.498-3.418s-0.116,1.687,1.312,2.131    c0,0-0.938,0.515-0.728,1.966c0.117,0.749,0.306,3.254,0.069,5.479c0.704-0.702,1.382-1.312,2.084-1.826    c1.592-1.17,3.207-1.054,3.207-1.054s3.652,0.397,3.206,2.294c-0.654,2.763-1.896,4.519-1.896,4.519    S424.947,339.088,420.1,339.042z M428.528,335.272c0.068-1.029-1.522-1.101-1.522-1.101s-1.24-0.069-2.13,0.234    c-1.1,0.233-2.833,1.708-2.833,1.708C428.27,335.858,428.528,335.272,428.528,335.272z"
         id="path4965" /><path
         fill="#A36D30"
         d="M437.745,338.784c0,0-4.846,0.211-4.869-2.996l-0.047-9.433c0-0.491,1.826-1.921,1.826-1.921    c0,0.913,0.047,6.273,0.047,9.292c0,2.271,3.043,2.062,3.043,2.062V338.784z"
         id="path4967" /><path
         fill="#A36D30"
         d="M444.905,338.784c-2.106,0.021-3.838-0.491-4.144-2.177c0,0-0.538,1.17-1.076,1.708    c-0.305,0.281-0.797,0.445-2.458,0.469v-2.996c2.902-0.022,3.276-0.913,3.276-0.913s0.305-1.076,0.609-1.592    c0.257-0.352,0.467-0.306,0.467-0.306c0,1.616,1.077,2.811,3.324,2.811L444.905,338.784L444.905,338.784z M439.451,341.874    l1.592-1.592l1.662,1.639l-1.615,1.591L439.451,341.874z"
         id="path4969" /><path
         fill="#A36D30"
         d="M449.327,334.547c0.606-0.727,1.638-0.702,1.007,0.022c-0.422,0.49-0.165,1.007-0.165,1.007    s0.165,0.352,1.101,0.352c1.757,0,2.247-1.193,2.41-1.452c0.609-0.936,1.007-0.584,0.938-0.326    c-0.047,0.188-0.211,0.702-0.211,0.702c-0.047,0.913,1.028,1.029,1.381,1.076c0.396,0.046,0.866-0.047,0.866-0.047    s-0.117-0.632-0.517-1.428c-0.094-0.164,1.382-2.178,1.382-2.178s0.982,2.927,0.702,3.862c-0.305,1.006-0.68,1.475-1.288,2.2    c-0.188,0.233-0.726,0.422-1.075,0.444c-0.095,0-1.757-0.022-2.131-1.545c0,0-0.982,1.639-3.184,1.545    c-1.358-0.069-1.615-1.334-1.615-1.334s-1.053,1.334-4.424,1.334v-2.996C447.782,335.788,448.578,335.436,449.327,334.547z     M449.865,330.193l1.592-1.592l1.662,1.639l-1.616,1.592L449.865,330.193z M451.457,327.759l1.591-1.592l1.662,1.639l-1.615,1.593    L451.457,327.759z M453.188,330.24l1.594-1.591l1.661,1.638l-1.614,1.592L453.188,330.24z"
         id="path4971" /></g></g></svg>