<?xml version="1.0" encoding="utf-8"?>
<!-- Generator: Adobe Illustrator 14.0.0, SVG Export Plug-In . SVG Version: 6.00 Build 43363)  -->
<!DOCTYPE svg PUBLIC "-//W3C//DTD SVG 1.1//EN" "http://www.w3.org/Graphics/SVG/1.1/DTD/svg11.dtd">
<svg version="1.1" id="_x30_1-Tareed_Jdeide" xmlns="http://www.w3.org/2000/svg" xmlns:xlink="http://www.w3.org/1999/xlink"
	 x="0px" y="0px" width="1796.922px" height="907.087px" viewBox="0 0 1796.922 907.087"
	 enable-background="new 0 0 1796.922 907.087" xml:space="preserve">
<path opacity="0.9" fill="#179665" d="M1155.821,720.415c0.043-0.066,0.037-0.152-0.012-0.201c-0.055-0.049-0.135-0.068-0.195-0.031
	l-5.432,2.475c-0.123,0.049-0.227,0.166-0.27,0.312c-0.043,0.141-0.025,0.293,0.049,0.41l0.576,0.924
	c0.086,0.135,0.221,0.221,0.367,0.246c-0.025-0.006-0.049-0.006-0.068-0.014l1.955,0.527c0.232,0.066,0.465-0.031,0.58-0.232
	L1155.821,720.415z"/>
<path opacity="0.9" fill="#179665" d="M1152.356,726.649c0.074-0.135,0.086-0.293,0.023-0.441c-0.061-0.152-0.184-0.25-0.336-0.293
	l-1.861-0.502c-0.123-0.037-0.227-0.111-0.295-0.232l-0.924-1.482c-0.092-0.166-0.27-0.252-0.465-0.238
	c-0.055,0.006-0.117,0.023-0.178,0.035l-10.227,4.668c-0.361,0.17-0.6,0.531-0.6,0.924c0,0.404,0.238,0.76,0.6,0.932l9.014,4.121
	c0.49,0.219,1.053,0.035,1.316-0.418L1152.356,726.649z"/>
<path opacity="0.9" fill="#179665" d="M1162.712,729.913c0.084-0.27,0.061-0.557-0.074-0.795c-0.129-0.246-0.355-0.436-0.625-0.502
	l-7.232-1.961c-0.084-0.023-0.17-0.031-0.262-0.031c-0.367,0-0.705,0.191-0.889,0.521l-3.906,7.012
	c-0.135,0.252-0.166,0.539-0.08,0.809s0.281,0.49,0.533,0.605l8.236,3.943c0.27,0.135,0.568,0.135,0.838,0.014
	c0.27-0.105,0.479-0.338,0.564-0.613L1162.712,729.913z"/>
<path opacity="0.9" fill="#179665" d="M1166.899,716.896c0.123-0.387,0.006-0.809-0.301-1.066c-0.293-0.27-0.723-0.33-1.09-0.158
	l-7.047,3.207c-0.197,0.092-0.361,0.24-0.467,0.43l-2.834,5.094c-0.154,0.275-0.172,0.596-0.049,0.889
	c0.121,0.287,0.367,0.496,0.674,0.582l6.631,1.801c0.521,0.146,1.059-0.146,1.23-0.674L1166.899,716.896z"/>
<path opacity="0.9" fill="#179665" d="M1179.526,710.937c0.072-0.307,0.006-0.625-0.184-0.869c-0.197-0.246-0.49-0.393-0.803-0.393
	l0,0c-0.141,0-0.293,0.031-0.422,0.098l-8.83,4.066c-0.252,0.123-0.453,0.35-0.539,0.619l-8.09,25.154
	c-0.152,0.49,0.068,1.012,0.527,1.232l8.42,4.035c0.27,0.121,0.594,0.135,0.869,0.006c0.27-0.135,0.471-0.373,0.557-0.668
	l3.602-13.637L1179.526,710.937z"/>
<path opacity="0.9" fill="#179665" d="M1212.853,716.374l-0.857-4.244c-0.086-0.445-0.453-0.771-0.906-0.807l-16.229-1.379
	c-0.275-0.023-0.49-0.27-0.467-0.557c0.025-0.275,0.27-0.49,0.553-0.453l15.342,1.291c0.318,0.037,0.629-0.098,0.85-0.336
	c0.209-0.232,0.295-0.551,0.232-0.875l-1.359-6.748l-0.85-5.383c-0.043-0.312-0.24-0.588-0.527-0.742
	c-0.275-0.141-0.613-0.158-0.9-0.023l-25.672,11.836c-0.289,0.129-0.49,0.381-0.564,0.674l-2.846,11.42
	c-0.068,0.27-0.02,0.551,0.127,0.791c0.148,0.232,0.387,0.396,0.656,0.453l34.086,7.184c0.336,0.072,0.674-0.025,0.918-0.264
	c0.246-0.232,0.355-0.57,0.295-0.906L1212.853,716.374z"/>
<path opacity="0.9" fill="#179665" d="M1208.298,691.421c-0.037-0.27-0.277-0.459-0.545-0.428l-5.543,0.525
	c-0.275,0.025-0.527-0.178-0.551-0.453c-0.031-0.287,0.17-0.531,0.459-0.557l5.414-0.52c0.146-0.008,0.27-0.086,0.355-0.184
	c0.084-0.123,0.115-0.258,0.104-0.398l-0.502-3.123c-0.031-0.252-0.258-0.441-0.521-0.424l-10.086,0.49
	c-0.275,0.02-0.516-0.201-0.533-0.49c-0.006-0.275,0.201-0.514,0.484-0.525l9.865-0.484c0.148-0.006,0.283-0.072,0.375-0.184
	c0.092-0.115,0.121-0.25,0.109-0.404l-0.674-4.285c-0.086-0.539-0.582-0.92-1.133-0.852l-16.15,1.922
	c-0.27,0.031-0.514,0.166-0.68,0.387c-0.172,0.201-0.244,0.477-0.215,0.74l2.383,18.842c0.043,0.318,0.232,0.605,0.514,0.76
	c0.283,0.158,0.625,0.164,0.92,0.031l15.893-7.324c0.41-0.184,0.648-0.625,0.582-1.078L1208.298,691.421z"/>
<path opacity="0.9" fill="#179665" d="M1187.321,682.284c-0.068-0.551-0.57-0.955-1.127-0.887l-9.596,1.145
	c-0.355,0.043-0.66,0.264-0.803,0.576l-4.598,9.834c-0.117,0.27-0.123,0.57-0.006,0.832c0.109,0.27,0.336,0.473,0.611,0.564
	l16.252,5.303c0.338,0.109,0.699,0.037,0.961-0.184c0.27-0.221,0.41-0.557,0.361-0.906L1187.321,682.284z"/>
<path opacity="0.9" fill="#179665" d="M1188.692,703.399c0.516-0.227,0.826-0.748,0.797-1.305c-0.037-0.557-0.404-1.041-0.938-1.213
	l-17.408-5.682c-0.49-0.16-1.023,0.066-1.244,0.531l-6.361,13.619l-2.719,4.887c-0.215,0.385-0.154,0.857,0.141,1.176
	c0.307,0.33,0.777,0.422,1.17,0.238L1188.692,703.399z"/>
<path opacity="0.9" fill="#179665" d="M1168.185,696.204c0.154-0.324,0.129-0.686-0.061-0.98c-0.184-0.293-0.514-0.471-0.857-0.471
	h-0.006l-12.211,0.152l-7.947-1.01c-0.508-0.068-0.986,0.264-1.115,0.76l-2.461,9.539c-0.08,0.281-0.031,0.588,0.141,0.834
	c0.166,0.232,0.428,0.404,0.723,0.428l17.807,1.941c0.037,0,0.08,0,0.111,0c0.396,0,0.752-0.227,0.918-0.588L1168.185,696.204z"/>
<path opacity="0.9" fill="#179665" d="M1161.565,710.11c0.172-0.301,0.172-0.656,0.02-0.961c-0.16-0.301-0.453-0.51-0.791-0.545
	l-17.035-1.863c-0.502-0.049-0.967,0.27-1.096,0.76l-2.682,10.373c-0.043,0.178,0,0.355,0.121,0.49
	c0.123,0.117,0.307,0.178,0.473,0.135l18.363-4.029c0.148-0.031,0.264-0.115,0.338-0.25L1161.565,710.11z"/>
<g>
	<path fill-rule="evenodd" clip-rule="evenodd" fill="#179665" d="M387.804,212.615c-1.141-0.559-0.295-1.858-1.42-2.434
		c-0.075-3.59,1.788-5.243,2.434-8.112c3.14-1.748,8.323-2.937,11.357-2.434c0.064,0.011-0.1,0.315-0.203,0.203
		c2.032,0.501,1.842,7.015-0.406,8.315c-2.451,1.417-6.858,0.424-9.329,2.231C389.191,211.149,389.195,212.436,387.804,212.615z"/>
	<path fill-rule="evenodd" clip-rule="evenodd" fill="#179665" d="M249.089,216.265c2.776,3.474,2.06,7.527,0.203,10.952
		c-2.357,4.346-7.697,6.468-12.574,6.287c-3.923-0.146-7.565-2.192-7.098-7.301c0.182-1.992,1.855-2.797,2.839-4.665
		c1.33-2.525,1.402-6.24,3.245-7.707C239.663,210.681,245.627,215.147,249.089,216.265z M237.124,220.727
		c-0.388,1.099-1.164,1.81-1.217,3.245c2.073,2.461,5.216,0.213,6.692-1.419C240.679,222.039,239.182,221.103,237.124,220.727z"/>
	<path fill-rule="evenodd" clip-rule="evenodd" fill="#FFFFFF" d="M242.599,222.552c-1.476,1.633-4.619,3.88-6.692,1.419
		c0.053-1.435,0.829-2.146,1.217-3.245C239.182,221.103,240.679,222.039,242.599,222.552z"/>
	<path fill-rule="evenodd" clip-rule="evenodd" fill="#FFFFFF" d="M456.959,224.783c-1.161,0.661-2.999,1.276-4.462,1.014
		C453.634,224.916,455.807,222.851,456.959,224.783z"/>
	<path fill-rule="evenodd" clip-rule="evenodd" fill="#FFFFFF" d="M344.202,227.014c0.443,0.03,0.436,0.511,0.405,1.014
		C343.905,228.17,343.88,227.317,344.202,227.014z"/>
	<path fill-rule="evenodd" clip-rule="evenodd" fill="#FFFFFF" d="M331.223,235.531c-0.877,0.274-1.287,0.095-2.23,0
		C329.178,234.782,331.091,234.67,331.223,235.531z"/>
	<path fill-rule="evenodd" clip-rule="evenodd" fill="#179665" d="M286.607,239.587c0.773,1.992,0.676,4.773-0.203,6.49
		c-5.078,0.946-9.073,4.03-13.79,4.664c-3.335-2.493-0.705-6.016,1.014-8.72C278.038,241.527,282.212,238.759,286.607,239.587z"/>
	<path fill-rule="evenodd" clip-rule="evenodd" fill="#FFFFFF" d="M203.256,141.432c98.495,0,196.983,0,295.479,0
		c-0.135,51.85,0.271,104.238-0.203,155.75c-98.425-0.135-197.393,0.271-295.479-0.203c0-51.646,0-103.292,0-154.939
		C203.036,141.753,203.02,141.466,203.256,141.432z M350.286,218.496c0.826-1.381,0.499-3.19,0.811-5.07
		c0.138-0.827,0.593-1.166,0.608-1.825c0.043-1.852-0.678-4.136-0.811-6.287c-0.178-2.857,0.503-4.794,0-6.895
		c-0.274-1.142-1.657-3.305-2.839-3.448c-2.708-0.327-4.402,3.711-4.056,7.098c0.072,0.703,1.15,2.637,1.217,3.245
		c0.084,0.764-0.382,2.166-0.405,3.448c-0.073,3.904,0.62,6.379-0.812,8.518c-2.829,4.226-12.149,2.727-14.398,5.273
		c-2.383,2.697,0.724,5.582,4.259,5.881c1.726,0.146,4.187-0.703,6.489-0.203c-3.2,1.279-8.961,2.269-13.385,2.637
		c-1.519,0.126-2.797-0.425-4.056-0.812c-0.859-1.507-1.817-2.915-2.028-5.07c-3.683-3.363-7.042-16.877-14.196-11.56
		c-0.02,1.578-0.411,2.939-0.811,4.664c0.887,0.781,0.695,1.438,0.811,2.839c1.215,1.894,2.957,3.263,2.839,6.49
		c-2.445,0.17-5.739,1.979-7.504,0.608c-2.135-1.658,0.961-6.486-2.23-7.707c-2.854,1.99-4.336,5.603-4.056,9.532
		c0.302,4.231,4.972,8.016,9.126,8.112c4.344,0.101,5.83-3.646,9.126-5.07c4.363,3.378,9.817,5.273,16.224,5.678
		c3.652-0.032,8.846-2.269,12.776-1.825c1.596-2.595,5.964-2.417,9.126-3.447c1.295-1.529,3.577-1.973,3.853-4.665
		c0.323-3.145-1.892-5.147-4.056-6.692c-1.539-0.083-2.972-0.273-3.853-1.014C348.511,220.017,349.662,219.54,350.286,218.496z
		 M364.482,230.867c1.582-1.711,2.96-8.848,2.839-12.574c-0.097-3.002-0.695-7.121-1.014-10.951
		c-0.289-3.465-0.563-8.962-3.65-8.923c-0.963,0.012-4.055,2.417-4.461,3.853c-0.309,1.093,0.225,1.78,0.203,2.637
		c-0.025,0.981-0.536,2.053-0.608,3.042c-0.321,4.389,0.957,7.729,1.419,10.545c0.451,2.746,0.381,6.267,1.217,8.518
		C360.953,228.434,362.492,233.02,364.482,230.867z M390.238,210.384c2.47-1.807,6.878-0.814,9.329-2.231
		c2.248-1.3,2.438-7.813,0.406-8.315c0.103,0.113,0.267-0.192,0.203-0.203c-3.034-0.503-8.217,0.686-11.357,2.434
		c-0.646,2.869-2.508,4.522-2.434,8.112c1.125,0.575,0.279,1.875,1.42,2.434C389.195,212.436,389.191,211.149,390.238,210.384z
		 M456.351,216.874c-0.963-1.908-1.941-4.273-2.637-7.098c-0.843-3.424-1.247-8.072-4.056-8.518
		c-5.788,2.65-3.325,15.136-1.42,20.888c-1.906,4.039-7.621,6.368-12.776,5.273c0.177-1.478,0.069-4.199-1.217-4.867
		c-2.05-0.158-2.724,1.062-3.853,1.825c-1.419,4.167-1.477,8.101-2.839,11.965c-4.766,5.788-14.316,7.463-23.93,7.503
		c-2.516,2.312-0.418,7.685,1.622,8.518c0.74,0.302,3.143,0.108,4.665,0c2.359-0.167,3.847-0.785,5.273-1.217
		c3.561-1.08,7.263-2.118,9.734-3.042c4.439-3.2,7.51-7.768,10.749-12.168c6.057-0.615,11.595-1.154,18.86-2.434
		c3.176-0.56,8.075-1.548,10.951-3.042c1.421-0.738,3.741-2.742,4.259-3.853c0.778-1.672,0.373-3.418,1.014-5.273
		c-0.521-0.184-0.958-1.817-1.419-0.812c0.211,0.083,0.712,0.787,0,0.608C469.016,216.869,461.062,215.68,456.351,216.874z
		 M415.587,224.783c1.424-1.996,2.063-5.064,1.825-8.112c-0.161-2.066-1.954-6.498-4.056-6.692
		c-1.528-0.142-2.093,1.167-3.245,1.825c-0.019,2.115-0.608,3.75-0.608,6.084c0.921,0.926,0.991,1.68,1.014,3.245
		c-0.592,0.895-1.7,1.274-2.839,1.623c-2.728-2.043-4.274-5.843-7.909-5.273c-4.316,0.677-8.542,10.839-3.853,13.182
		c1.605,0.802,2.831-0.277,5.07,0c-4.284,5.337-18.899,8.573-19.266-1.622c-0.121-3.362,2.431-5.947,1.217-10.14
		c-2.147-0.72-3.622,0.785-5.07,1.419c-2.476,4.826-3.685,11.919-0.811,17.644c0.301,0.6,1.635,2.627,2.028,3.042
		c3.341,3.52,10.731,3.921,15.818,1.825c3.82-1.574,6.847-3.585,9.329-6.084c1.957-1.97,2.304-3.531,2.636-6.287
		C409.608,228.508,413.334,227.94,415.587,224.783z M276.669,226.203c-0.624-0.973-0.73-2.698-1.217-4.462
		c-0.784-2.841-3.065-10.919-6.692-10.545c-1.562,0.161-3.382,2.68-3.245,4.665c0.115,1.658,1.574,3.678,2.231,5.476
		c0.724,1.981,1.609,3.523,2.23,5.476c-3.066,2.323-7.591,4.719-12.168,4.259c-0.13-2.639,0.103-7.247-2.028-7.301
		c-2.053-0.052-2.846,6.292-2.636,9.126c0.34,4.607,4.72,6.646,9.329,5.881c0.903-0.15,2.08-0.947,3.245-1.42
		c3.101-1.259,5.379-2.137,6.692-4.664c2.274,2.152,7.913,4.934,11.763,3.042c0.403-0.198,2.492-2.29,3.245-3.245
		c2.703-3.428,3.375-6.611,3.042-11.965c-0.074-1.19,0.207-2.479-0.203-3.245c-0.774-1.447-3.167-1.313-4.462-1.217
		c-0.905,1.161-2.255,1.441-2.636,2.839c-0.143,0.523,0.48,1.654,0.406,2.636c-0.165,2.163,0.486,4.628-0.608,6.287
		C280.526,227.806,277.67,227.762,276.669,226.203z M235.704,213.832c-1.843,1.467-1.916,5.182-3.245,7.707
		c-0.983,1.868-2.657,2.673-2.839,4.665c-0.468,5.109,3.175,7.155,7.098,7.301c4.877,0.182,10.217-1.94,12.574-6.287
		c1.857-3.425,2.573-7.478-0.203-10.952C245.627,215.147,239.663,210.681,235.704,213.832z M408.692,231.476
		c-1.708,1.941-2.14,5.683,0.203,7.301c3.369-0.387,7.117-1.323,9.734-3.042c0.292-1.669,1.896-2.026,2.434-3.448
		c-0.758-0.797-1.043-2.067-1.217-3.448C416.554,226.838,412.192,230.534,408.692,231.476z M355.559,243.44
		c-0.323-1.175-1.992-2.231-2.839-3.042c-0.795-0.761-2.176-2.437-3.245-2.636c-2.033-0.379-3.528,1.888-4.259,3.245
		c-0.87,1.615-1.545,3.603-2.23,5.476c0.721,0.341,1.161,1.417,2.23,0.812c1.258,2.055,4.479,2.146,6.692,3.245
		C353.66,249.127,356.288,246.091,355.559,243.44z M273.627,242.021c-1.718,2.704-4.349,6.228-1.014,8.72
		c4.717-0.634,8.712-3.718,13.79-4.664c0.879-1.717,0.977-4.498,0.203-6.49C282.212,238.759,278.038,241.527,273.627,242.021z"/>
	<path fill-rule="evenodd" clip-rule="evenodd" fill="#179665" d="M360.426,227.014c-0.835-2.251-0.766-5.771-1.217-8.518
		c-0.462-2.817-1.74-6.157-1.419-10.545c0.072-0.989,0.583-2.061,0.608-3.042c0.022-0.856-0.512-1.544-0.203-2.637
		c0.406-1.437,3.498-3.841,4.461-3.853c3.087-0.039,3.362,5.458,3.65,8.923c0.319,3.831,0.917,7.949,1.014,10.951
		c0.121,3.726-1.258,10.862-2.839,12.574C362.492,233.02,360.953,228.434,360.426,227.014z"/>
	<path fill-rule="evenodd" clip-rule="evenodd" fill="#179665" d="M348.055,220.93c0.881,0.741,2.314,0.931,3.853,1.014
		c2.165,1.545,4.379,3.547,4.056,6.692c-0.276,2.692-2.558,3.135-3.853,4.665c-3.162,1.03-7.53,0.853-9.126,3.447
		c-3.931-0.444-9.124,1.793-12.776,1.825c-6.407-0.405-11.861-2.3-16.224-5.678c-3.296,1.424-4.782,5.17-9.126,5.07
		c-4.154-0.096-8.824-3.88-9.126-8.112c-0.28-3.929,1.202-7.542,4.056-9.532c3.192,1.221,0.096,6.049,2.23,7.707
		c1.765,1.37,5.059-0.438,7.504-0.608c0.117-3.227-1.624-4.596-2.839-6.49c-0.116-1.402,0.076-2.058-0.811-2.839
		c0.4-1.725,0.791-3.086,0.811-4.664c7.154-5.318,10.513,8.197,14.196,11.56c0.211,2.155,1.169,3.563,2.028,5.07
		c1.258,0.387,2.537,0.938,4.056,0.812c4.423-0.368,10.185-1.357,13.385-2.637c-2.303-0.5-4.764,0.349-6.489,0.203
		c-3.535-0.299-6.642-3.184-4.259-5.881c2.249-2.546,11.57-1.047,14.398-5.273c1.432-2.139,0.739-4.614,0.812-8.518
		c0.023-1.282,0.489-2.684,0.405-3.448c-0.067-0.608-1.145-2.542-1.217-3.245c-0.346-3.387,1.349-7.425,4.056-7.098
		c1.183,0.143,2.565,2.306,2.839,3.448c0.503,2.101-0.178,4.038,0,6.895c0.133,2.151,0.854,4.435,0.811,6.287
		c-0.016,0.66-0.471,0.998-0.608,1.825c-0.312,1.88,0.015,3.689-0.811,5.07C349.662,219.54,348.511,220.017,348.055,220.93z
		 M344.607,228.028c0.03-0.503,0.038-0.984-0.405-1.014C343.88,227.317,343.905,228.17,344.607,228.028z M328.992,235.531
		c0.944,0.095,1.353,0.274,2.23,0C331.091,234.67,329.178,234.782,328.992,235.531z"/>
	<path fill-rule="evenodd" clip-rule="evenodd" fill="#179665" d="M406.867,230.461c-0.332,2.756-0.679,4.316-2.636,6.287
		c-2.482,2.499-5.509,4.51-9.329,6.084c-5.087,2.096-12.478,1.694-15.818-1.825c-0.393-0.415-1.727-2.442-2.028-3.042
		c-2.874-5.724-1.665-12.817,0.811-17.644c1.449-0.634,2.923-2.139,5.07-1.419c1.214,4.193-1.338,6.778-1.217,10.14
		c0.366,10.195,14.981,6.959,19.266,1.622c-2.239-0.277-3.465,0.802-5.07,0c-4.689-2.343-0.463-12.505,3.853-13.182
		c3.635-0.57,5.181,3.23,7.909,5.273c1.139-0.348,2.247-0.728,2.839-1.623c-0.023-1.565-0.093-2.319-1.014-3.245
		c0-2.333,0.59-3.969,0.608-6.084c1.152-0.659,1.717-1.967,3.245-1.825c2.102,0.195,3.895,4.626,4.056,6.692
		c0.238,3.048-0.401,6.116-1.825,8.112C413.334,227.94,409.608,228.508,406.867,230.461z"/>
	<path fill-rule="evenodd" clip-rule="evenodd" fill="#179665" d="M469.33,221.132c0.712,0.178,0.211-0.526,0-0.608
		c0.461-1.006,0.898,0.628,1.419,0.812c-0.641,1.855-0.235,3.601-1.014,5.273c-0.518,1.111-2.838,3.115-4.259,3.853
		c-2.876,1.494-7.775,2.482-10.951,3.042c-7.266,1.279-12.803,1.819-18.86,2.434c-3.238,4.4-6.31,8.968-10.749,12.168
		c-2.471,0.924-6.173,1.962-9.734,3.042c-1.426,0.432-2.914,1.049-5.273,1.217c-1.522,0.108-3.925,0.302-4.665,0
		c-2.04-0.833-4.138-6.206-1.622-8.518c9.614-0.041,19.165-1.716,23.93-7.503c1.362-3.864,1.42-7.798,2.839-11.965
		c1.129-0.763,1.803-1.983,3.853-1.825c1.286,0.668,1.394,3.389,1.217,4.867c5.155,1.095,10.871-1.234,12.776-5.273
		c-1.905-5.752-4.368-18.238,1.42-20.888c2.809,0.446,3.213,5.094,4.056,8.518c0.695,2.825,1.674,5.19,2.637,7.098
		C461.062,215.68,469.016,216.869,469.33,221.132z M452.497,225.797c1.463,0.262,3.301-0.353,4.462-1.014
		C455.807,222.851,453.634,224.916,452.497,225.797z"/>
	<path fill-rule="evenodd" clip-rule="evenodd" fill="#179665" d="M282.957,227.825c1.095-1.659,0.444-4.125,0.608-6.287
		c0.075-0.982-0.548-2.113-0.406-2.636c0.381-1.398,1.731-1.678,2.636-2.839c1.294-0.097,3.688-0.23,4.462,1.217
		c0.41,0.766,0.129,2.055,0.203,3.245c0.333,5.354-0.339,8.538-3.042,11.965c-0.753,0.955-2.842,3.047-3.245,3.245
		c-3.85,1.892-9.488-0.89-11.763-3.042c-1.313,2.527-3.591,3.405-6.692,4.664c-1.165,0.473-2.342,1.27-3.245,1.42
		c-4.608,0.764-8.989-1.274-9.329-5.881c-0.209-2.834,0.583-9.178,2.636-9.126c2.131,0.054,1.897,4.662,2.028,7.301
		c4.577,0.46,9.102-1.936,12.168-4.259c-0.622-1.953-1.506-3.494-2.23-5.476c-0.657-1.798-2.116-3.818-2.231-5.476
		c-0.138-1.984,1.683-4.503,3.245-4.665c3.627-0.374,5.909,7.705,6.692,10.545c0.487,1.764,0.593,3.489,1.217,4.462
		C277.67,227.762,280.526,227.806,282.957,227.825z"/>
	<path fill-rule="evenodd" clip-rule="evenodd" fill="#179665" d="M419.846,228.839c0.174,1.381,0.459,2.651,1.217,3.448
		c-0.538,1.422-2.142,1.779-2.434,3.448c-2.618,1.719-6.365,2.655-9.734,3.042c-2.342-1.618-1.911-5.36-0.203-7.301
		C412.192,230.534,416.554,226.838,419.846,228.839z"/>
	<path fill-rule="evenodd" clip-rule="evenodd" fill="#179665" d="M351.908,250.539c-2.213-1.099-5.435-1.19-6.692-3.245
		c-1.07,0.605-1.509-0.471-2.23-0.812c0.686-1.873,1.361-3.86,2.23-5.476c0.731-1.357,2.226-3.624,4.259-3.245
		c1.069,0.199,2.45,1.875,3.245,2.636c0.847,0.811,2.516,1.867,2.839,3.042C356.288,246.091,353.66,249.127,351.908,250.539z"/>
</g>
<g>
	<path fill-rule="evenodd" clip-rule="evenodd" fill="#FFFFFF" d="M477.438,167.623c31.543,0,63.086,0,94.629,0
		c0,33.418,0,66.836,0,100.254c-31.653,0-63.308,0-94.96,0c0-33.087,0-66.175,0-99.262
		C477.079,168.146,477.052,167.678,477.438,167.623z M521.444,189.46c-13.948,0.945-23.905,5.471-29.778,13.897
		c-6.962,9.987-6.558,25.598-2.647,36.727c2.577,7.333,5.654,10.109,12.242,14.228c6.485,4.055,11.88,6.625,20.514,5.956
		c6.114-0.474,9.104-1.726,14.228-4.632c2.509-1.423,5.692-2.992,7.61-4.632c7.467-6.384,11.2-14.914,11.581-26.47
		c0.402-12.21-4.117-23.032-12.904-28.786c-1.817-1.19-4.646-2.108-7.279-3.309c-4.905-2.236-6.718-3.486-12.904-2.978
		C521.886,189.478,521.663,189.445,521.444,189.46z"/>
	<path fill-rule="evenodd" clip-rule="evenodd" fill="#179665" d="M522.105,189.46c6.187-0.508,8,0.742,12.904,2.978
		c2.632,1.2,5.461,2.119,7.279,3.309c8.787,5.754,13.306,16.576,12.904,28.786c-0.381,11.556-4.113,20.085-11.581,26.47
		c-1.918,1.64-5.102,3.209-7.61,4.632c-5.123,2.906-8.114,4.158-14.228,4.632c-8.634,0.67-14.028-1.901-20.514-5.956
		c-6.588-4.119-9.666-6.895-12.242-14.228c-3.911-11.128-4.315-26.74,2.647-36.727c5.874-8.426,15.831-12.952,29.778-13.897
		C521.663,189.445,521.886,189.478,522.105,189.46z M525.745,196.739c-1.445-0.034-2.555-1.223-3.971-1.654
		c-6.499-1.981-15.446,1.238-20.183,4.301c-8.341,5.394-13.701,18.809-10.588,32.095c2.059,8.786,6.662,14.816,13.566,18.86
		c2.944,1.724,7.424,3.759,10.257,4.301c14.05,2.686,32.813-8.75,35.073-19.853c2.775-13.635-0.276-28.491-10.257-35.072
		c-2.978-1.964-6.913-2.638-10.588-4.301C527.137,196.02,527.921,196.79,525.745,196.739z"/>
	<path fill-rule="evenodd" clip-rule="evenodd" fill="#FFFFFF" d="M529.054,195.416c3.675,1.664,7.61,2.337,10.588,4.301
		c9.981,6.582,13.033,21.437,10.257,35.072c-2.26,11.102-21.023,22.539-35.073,19.853c-2.833-0.542-7.312-2.577-10.257-4.301
		c-6.904-4.043-11.507-10.074-13.566-18.86c-3.113-13.286,2.247-26.701,10.588-32.095c4.737-3.063,13.684-6.283,20.183-4.301
		c1.416,0.432,2.526,1.621,3.971,1.654C527.921,196.79,527.137,196.02,529.054,195.416z M522.767,201.372
		c-2.837,3.982-5.507,7.956-8.934,11.581c-2.045,2.164-6.687,4.977-2.978,7.941c5.469-1.149,6.92-8.078,10.588-9.926
		c-0.946,8.653-0.484,17.377-0.662,25.477c-0.084,3.823-2.203,8.829,0.662,11.912c4.155,0.521,3.021-2.93,2.978-5.625
		c-0.221-13.766,2.11-28.626,0.992-40.697C524.688,201.656,524.062,201.179,522.767,201.372z"/>
	<path fill-rule="evenodd" clip-rule="evenodd" fill="#179665" d="M525.414,202.033c1.118,12.071-1.213,26.931-0.992,40.697
		c0.043,2.695,1.177,6.146-2.978,5.625c-2.864-3.083-0.746-8.089-0.662-11.912c0.177-8.1-0.284-16.824,0.662-25.477
		c-3.667,1.848-5.119,8.777-10.588,9.926c-3.709-2.964,0.932-5.777,2.978-7.941c3.427-3.625,6.097-7.599,8.934-11.581
		C524.062,201.179,524.688,201.656,525.414,202.033z"/>
</g>
<g id="_x30_1-CALENDAR">
	<g>
		<path fill="#707173" d="M236.755,460.275v-15.483h4.16l2.981,10.807h0.041l3.003-10.807h4.203v15.483h-2.573v-12.181h-0.043
			l-3.474,12.181h-2.252l-3.431-12.181h-0.043v12.181H236.755z"/>
	</g>
	<g>
		<path fill="#707173" d="M283.608,444.771v2.487h-4.053v13.017h-2.959v-13.017h-4.053v-2.487H283.608z"/>
	</g>
	<g>
		<path fill="#707173" d="M303.698,444.792h2.767l1.951,10.444h0.043l2.208-10.444h3.045l2.037,10.444h0.043l2.122-10.444h2.767
			l-3.216,15.483h-3.002l-2.252-11.023h-0.042l-2.23,11.023h-3.003L303.698,444.792z"/>
	</g>
	<g>
		<path fill="#707173" d="M351.858,444.771v2.487h-4.053v13.017h-2.959v-13.017h-4.053v-2.487H351.858z"/>
	</g>
	<g>
		<path fill="#707173" d="M376.162,460.275v-15.483h9.864v2.487h-6.905v3.688h5.168v2.488h-5.168v6.82H376.162z"/>
	</g>
	<g>
		<path fill="#707173" d="M417.007,448.91c-0.451-1.201-1.372-2.016-2.767-2.016c-1.286,0-2.207,0.515-2.207,1.716
			c0,2.658,7.976,2.102,7.976,7.119c0,3.174-1.994,4.76-5.424,4.76c-2.532,0-4.911-1.414-5.791-3.666l2.445-1.072
			c0.707,1.459,1.629,2.424,3.365,2.424c1.48,0,2.617-0.559,2.617-2.059c0-3.045-7.977-2.445-7.977-7.206
			c0-2.767,2.315-4.332,4.995-4.332c2.488,0,4.547,1.244,5.468,3.495L417.007,448.91z"/>
	</g>
	<g>
		<path fill="#707173" d="M451.132,448.91c-0.451-1.201-1.372-2.016-2.767-2.016c-1.286,0-2.207,0.515-2.207,1.716
			c0,2.658,7.976,2.102,7.976,7.119c0,3.174-1.994,4.76-5.424,4.76c-2.532,0-4.911-1.414-5.791-3.666l2.445-1.072
			c0.707,1.459,1.629,2.424,3.365,2.424c1.48,0,2.617-0.559,2.617-2.059c0-3.045-7.977-2.445-7.977-7.206
			c0-2.767,2.315-4.332,4.995-4.332c2.488,0,4.547,1.244,5.468,3.495L451.132,448.91z"/>
	</g>
	<g>
		<path fill="#707173" d="M411.346,485.624v-1.328h2.681v-12.588l-2.98,0.299v-1.006c1.072-0.322,2.295-0.645,2.98-1.072h1.545
			v14.367h2.637v1.328H411.346z"/>
	</g>
	<g>
		<path fill="#707173" d="M453.62,485.624h-10.057v-1.629c2.681-5.426,8.449-5.746,8.449-9.906c0-1.803-1.158-2.832-3.131-2.832
			c-2.23,0-3.389,1.803-3.646,3.367l-1.521-0.342c0.493-2.145,1.758-4.354,5.21-4.354c2.531,0,4.718,1.459,4.718,4.117
			c0,4.717-6.775,6.002-8.449,10.25h8.428V485.624z"/>
	</g>
	<g>
		<path fill="#179665" d="M241.558,501.604c2.272,0,4.16-0.322,4.16-2.166c0-1.113-0.944-1.846-2.23-1.846
			c-1.308,0-2.188,0.732-2.959,1.545l-1.845-1.672c1.502-1.586,3.131-2.188,4.718-2.188c2.831,0,5.104,1.373,5.104,3.988
			c0,1.543-0.857,2.701-2.338,3.346c1.845,0.58,2.853,1.994,2.853,3.924c0,3.236-2.744,4.654-5.489,4.654
			c-2.188,0-4.396-1.031-5.468-3.004l2.229-1.266c0.75,1.266,1.779,1.953,3.26,1.953c1.373,0,2.681-0.838,2.681-2.338
			c0-2.529-2.81-2.615-4.675-2.615V501.604z"/>
	</g>
	<g>
		<path fill="#707173" d="M281.001,507.331v3.643h-1.544v-3.643h-7.12v-1.332l6.39-10.506h2.274v10.506h2.658v1.332H281.001z
			 M273.968,505.999h5.489v-8.875h-0.064L273.968,505.999z"/>
	</g>
	<g>
		<path fill="#707173" d="M316.39,496.821h-6.646l-0.387,4.953c1.009-0.922,2.08-1.264,3.174-1.264c2.574,0,4.954,1.756,4.954,5.232
			c0,2.359-1.415,5.447-5.361,5.447c-2.638,0-3.967-1.461-4.932-2.961l1.394-0.729c0.75,1.393,1.951,2.357,3.581,2.357
			c2.037,0,3.688-1.199,3.688-4.115c0-2.275-1.329-3.902-3.474-3.902c-1.502,0-2.638,0.898-3.26,2.336l-1.352-0.299l0.688-8.385
			h7.933V496.821z"/>
	</g>
	<g>
		<path fill="#707173" d="M350.086,497.487c-0.707-0.557-1.436-0.879-2.637-0.879c-2.445,0-4.718,2.016-4.761,6.475
			c0.943-0.986,2.101-1.844,4.245-1.844c2.317,0,4.654,1.631,4.654,4.975c0,3.303-2.424,4.977-4.997,4.977
			c-3.216,0-5.532-1.887-5.532-7.164c0-4.889,2.188-8.748,6.348-8.748c1.673,0,2.895,0.471,3.345,0.9L350.086,497.487z
			 M346.721,502.569c-1.888,0-3.861,1.545-3.989,3.301c0.085,2.189,1.501,3.988,3.731,3.988c2.188,0,3.495-1.5,3.495-3.602
			C349.958,503.854,348.35,502.569,346.721,502.569z"/>
	</g>
	<g>
		<path fill="#179665" d="M375.142,495.493h10.614v1.607l-6.369,13.873h-3.065l6.261-13.078h-7.44V495.493z"/>
	</g>
	<g>
		<path fill="#707173" d="M414.563,511.19c-3.796,0-5.64-1.887-5.64-4.246c0-1.973,1.545-3.346,3.388-4.205v-0.043
			c-1.715-0.643-2.744-1.949-2.744-3.559c0-2.529,2.144-3.859,4.996-3.859c2.852,0,4.996,1.33,4.996,3.859
			c0,1.609-1.029,2.916-2.745,3.559v0.043c1.845,0.666,3.389,2.104,3.389,4.205C420.203,509.304,418.358,511.19,414.563,511.19z
			 M414.563,509.858c2.809,0,4.01-1.543,4.01-2.914c0-1.803-1.844-2.703-4.289-3.52c-1.886,0.816-3.73,1.717-3.73,3.52
			C410.553,508.315,411.754,509.858,414.563,509.858z M414.563,496.608c-1.694,0-3.366,0.729-3.366,2.445
			c0,1.67,2.101,2.615,3.366,2.98c1.716-0.43,3.366-1.48,3.366-2.98C417.929,497.337,416.257,496.608,414.563,496.608z"/>
	</g>
	<g>
		<path fill="#707173" d="M444.936,508.981c0.707,0.555,1.436,0.877,2.637,0.877c2.445,0,4.567-2.186,4.761-6.475
			c-0.943,0.986-2.102,1.844-4.245,1.844c-2.316,0-4.654-1.629-4.654-4.973c0-3.305,2.423-4.977,4.997-4.977
			c3.217,0,5.532,1.885,5.532,7.162c0,4.891-2.188,8.75-6.348,8.75c-1.672,0-2.895-0.473-3.346-0.902L444.936,508.981z
			 M448.302,503.897c1.887,0,3.346-1.244,3.944-2.871c-0.042-2.701-1.457-4.418-3.688-4.418c-2.188,0-3.495,1.5-3.495,3.602
			C445.064,502.612,446.672,503.897,448.302,503.897z"/>
	</g>
	<g>
		<path fill="#707173" d="M234.276,536.323v-1.328h2.68v-12.588l-2.979,0.299v-1.004c1.072-0.322,2.294-0.646,2.979-1.074h1.544
			v14.367h2.639v1.328H234.276z"/>
		<path fill="#707173" d="M250.385,520.628c3.365,0,5.468,2.357,5.468,7.955s-2.103,7.957-5.468,7.957
			c-3.367,0-5.468-2.359-5.468-7.957S247.018,520.628,250.385,520.628z M250.385,535.21c2.509,0,3.838-1.93,3.838-6.627
			c0-4.695-1.329-6.625-3.838-6.625c-2.51,0-3.839,1.93-3.839,6.625C246.546,533.28,247.875,535.21,250.385,535.21z"/>
	</g>
	<g>
		<path fill="#179665" d="M268.208,536.323v-2.143h2.401v-10.68h-2.744v-1.799c1.415-0.066,2.658-0.387,3.366-1.074h2.166v13.553
			h2.379v2.143H268.208z"/>
		<path fill="#179665" d="M281.1,536.323v-2.143h2.402v-10.68h-2.745v-1.799c1.416-0.066,2.658-0.387,3.367-1.074h2.165v13.553h2.38
			v2.143H281.1z"/>
	</g>
	<g>
		<path fill="#179665" d="M302.333,536.323v-2.143h2.401v-10.68h-2.744v-1.799c1.415-0.066,2.658-0.387,3.366-1.074h2.166v13.553
			h2.379v2.143H302.333z"/>
		<path fill="#179665" d="M313.295,536.323v-2.551c0.471-2.422,7.634-5.854,7.634-8.684c0-1.352-0.88-2.146-2.294-2.146
			c-1.544,0-2.445,1.031-2.788,2.445l-2.487-0.535c0.321-2.379,2.552-4.225,5.317-4.225c2.725,0,5.04,1.566,5.04,4.461
			c0,3.773-3.475,5.316-7.334,8.834h7.334v2.4H313.295z"/>
	</g>
	<g>
		<path fill="#707173" d="M336.651,536.323v-1.328h2.68v-12.588l-2.979,0.299v-1.004c1.072-0.322,2.294-0.646,2.979-1.074h1.544
			v14.367h2.639v1.328H336.651z"/>
		<path fill="#707173" d="M348.192,532.638c1.18,1.586,2.638,2.572,4.246,2.572c2.273,0,3.646-1.158,3.646-3.002
			c0-2.166-1.287-3.473-4.375-3.473h-1.521v-1.332h0.922c3.087,0,4.418-0.984,4.418-2.895c0-1.566-1.353-2.551-2.831-2.551
			c-1.887,0-2.702,0.814-3.731,2.143l-1.266-0.855c1.051-1.459,2.51-2.617,4.997-2.617c2.744,0,4.459,1.416,4.459,3.859
			c0,1.865-1.2,2.961-2.401,3.432c2.445,0.943,2.959,2.703,2.959,4.117c0,2.637-2.036,4.504-5.274,4.504
			c-2.96,0-4.76-1.846-5.49-3.047L348.192,532.638z"/>
	</g>
	<g>
		<path fill="#707173" d="M370.776,536.323v-1.328h2.68v-12.588l-2.979,0.299v-1.004c1.072-0.322,2.294-0.646,2.979-1.074H375
			v14.367h2.639v1.328H370.776z"/>
		<path fill="#707173" d="M389.823,532.681v3.643h-1.544v-3.643h-7.119v-1.33l6.39-10.508h2.273v10.508h2.658v1.33H389.823z
			 M382.79,531.351h5.489v-8.877h-0.064L382.79,531.351z"/>
	</g>
	<g>
		<path fill="#707173" d="M404.901,536.323v-1.328h2.68v-12.588l-2.979,0.299v-1.004c1.072-0.322,2.294-0.646,2.979-1.074h1.544
			v14.367h2.639v1.328H404.901z"/>
		<path fill="#707173" d="M425.212,522.171h-6.647l-0.386,4.953c1.008-0.92,2.079-1.264,3.174-1.264
			c2.573,0,4.953,1.758,4.953,5.232c0,2.359-1.415,5.447-5.36,5.447c-2.639,0-3.968-1.461-4.933-2.961l1.394-0.729
			c0.751,1.395,1.952,2.359,3.582,2.359c2.036,0,3.688-1.201,3.688-4.117c0-2.273-1.329-3.902-3.474-3.902
			c-1.501,0-2.638,0.898-3.26,2.336l-1.351-0.299l0.687-8.385h7.934V522.171z"/>
	</g>
	<g>
		<path fill="#707173" d="M439.026,536.323v-1.328h2.68v-12.588l-2.979,0.299v-1.004c1.072-0.322,2.294-0.646,2.979-1.074h1.544
			v14.367h2.639v1.328H439.026z"/>
		<path fill="#707173" d="M458.908,522.837c-0.707-0.557-1.436-0.879-2.637-0.879c-2.444,0-4.717,2.016-4.761,6.475
			c0.943-0.984,2.102-1.844,4.246-1.844c2.316,0,4.653,1.631,4.653,4.975c0,3.303-2.423,4.977-4.996,4.977
			c-3.216,0-5.533-1.887-5.533-7.162c0-4.891,2.188-8.75,6.348-8.75c1.674,0,2.895,0.473,3.346,0.9L458.908,522.837z
			 M455.542,527.919c-1.888,0-3.86,1.545-3.988,3.301c0.085,2.189,1.5,3.99,3.73,3.99c2.188,0,3.495-1.502,3.495-3.604
			C458.78,529.204,457.171,527.919,455.542,527.919z"/>
	</g>
	<g>
		<path fill="#707173" d="M234.276,561.675v-1.328h2.68v-12.59l-2.979,0.301v-1.006c1.072-0.322,2.294-0.645,2.979-1.074h1.544
			v14.369h2.639v1.328H234.276z"/>
		<path fill="#707173" d="M245.431,547.521v-1.328h9.821v0.943l-6.541,14.539h-1.801l6.369-14.154H245.431z"/>
	</g>
	<g>
		<path fill="#707173" d="M268.401,561.675v-1.328h2.68v-12.59l-2.979,0.301v-1.006c1.072-0.322,2.294-0.645,2.979-1.074h1.544
			v14.369h2.639v1.328H268.401z"/>
		<path fill="#707173" d="M284.51,561.89c-3.796,0-5.641-1.887-5.641-4.246c0-1.973,1.545-3.346,3.389-4.203v-0.043
			c-1.716-0.643-2.745-1.951-2.745-3.561c0-2.529,2.145-3.859,4.997-3.859c2.852,0,4.995,1.33,4.995,3.859
			c0,1.609-1.029,2.918-2.744,3.561v0.043c1.845,0.664,3.388,2.102,3.388,4.203C290.149,560.003,288.305,561.89,284.51,561.89z
			 M284.51,560.56c2.808,0,4.009-1.545,4.009-2.916c0-1.803-1.843-2.703-4.288-3.518c-1.887,0.814-3.731,1.715-3.731,3.518
			C280.5,559.015,281.701,560.56,284.51,560.56z M284.51,547.308c-1.695,0-3.367,0.729-3.367,2.445c0,1.67,2.102,2.615,3.367,2.98
			c1.715-0.428,3.365-1.48,3.365-2.98C287.875,548.036,286.204,547.308,284.51,547.308z"/>
	</g>
	<g>
		<path fill="#707173" d="M302.526,561.675v-1.328h2.68v-12.59l-2.979,0.301v-1.006c1.072-0.322,2.294-0.645,2.979-1.074h1.544
			v14.369h2.639v1.328H302.526z"/>
		<path fill="#707173" d="M314.882,559.681c0.707,0.557,1.436,0.879,2.637,0.879c2.445,0,4.568-2.186,4.761-6.475
			c-0.943,0.984-2.101,1.844-4.245,1.844c-2.315,0-4.654-1.631-4.654-4.975c0-3.303,2.424-4.977,4.997-4.977
			c3.217,0,5.532,1.887,5.532,7.162c0,4.891-2.188,8.75-6.348,8.75c-1.672,0-2.895-0.473-3.345-0.9L314.882,559.681z
			 M318.25,554.597c1.886,0,3.345-1.244,3.944-2.871c-0.042-2.701-1.458-4.418-3.688-4.418c-2.188,0-3.495,1.5-3.495,3.604
			C315.01,553.313,316.619,554.597,318.25,554.597z"/>
	</g>
	<g>
		<path fill="#707173" d="M344.799,561.675h-10.057v-1.631c2.681-5.424,8.449-5.746,8.449-9.904c0-1.803-1.158-2.832-3.131-2.832
			c-2.23,0-3.389,1.801-3.646,3.367l-1.521-0.344c0.492-2.145,1.758-4.354,5.21-4.354c2.531,0,4.718,1.459,4.718,4.119
			c0,4.717-6.775,6.002-8.449,10.25h8.428V561.675z"/>
		<path fill="#707173" d="M352.76,545.978c3.365,0,5.468,2.359,5.468,7.955c0,5.598-2.103,7.957-5.468,7.957
			c-3.367,0-5.468-2.359-5.468-7.957C347.292,548.337,349.393,545.978,352.76,545.978z M352.76,560.56
			c2.509,0,3.838-1.93,3.838-6.627c0-4.695-1.329-6.625-3.838-6.625c-2.51,0-3.839,1.93-3.839,6.625
			C348.921,558.63,350.25,560.56,352.76,560.56z"/>
	</g>
	<g>
		<path fill="#707173" d="M378.924,561.675h-10.057v-1.631c2.681-5.424,8.449-5.746,8.449-9.904c0-1.803-1.158-2.832-3.131-2.832
			c-2.23,0-3.389,1.801-3.646,3.367l-1.521-0.344c0.492-2.145,1.758-4.354,5.21-4.354c2.531,0,4.718,1.459,4.718,4.119
			c0,4.717-6.775,6.002-8.449,10.25h8.428V561.675z"/>
		<path fill="#707173" d="M383.668,561.675v-1.328h2.68v-12.59l-2.979,0.301v-1.006c1.071-0.322,2.294-0.645,2.979-1.074h1.545
			v14.369h2.637v1.328H383.668z"/>
	</g>
	<g>
		<path fill="#707173" d="M413.049,561.675h-10.057v-1.631c2.681-5.424,8.449-5.746,8.449-9.904c0-1.803-1.158-2.832-3.131-2.832
			c-2.23,0-3.389,1.801-3.646,3.367l-1.521-0.344c0.492-2.145,1.758-4.354,5.21-4.354c2.531,0,4.718,1.459,4.718,4.119
			c0,4.717-6.775,6.002-8.449,10.25h8.428V561.675z"/>
		<path fill="#707173" d="M425.941,561.675h-10.056v-1.631c2.68-5.424,8.448-5.746,8.448-9.904c0-1.803-1.157-2.832-3.131-2.832
			c-2.23,0-3.388,1.801-3.646,3.367l-1.522-0.344c0.494-2.145,1.759-4.354,5.21-4.354c2.532,0,4.718,1.459,4.718,4.119
			c0,4.717-6.775,6.002-8.448,10.25h8.427V561.675z"/>
	</g>
	<g>
		<path fill="#707173" d="M447.174,561.675h-10.057v-1.631c2.681-5.424,8.449-5.746,8.449-9.904c0-1.803-1.158-2.832-3.131-2.832
			c-2.23,0-3.389,1.801-3.646,3.367l-1.521-0.344c0.492-2.145,1.758-4.354,5.21-4.354c2.531,0,4.718,1.459,4.718,4.119
			c0,4.717-6.775,6.002-8.449,10.25h8.428V561.675z"/>
		<path fill="#707173" d="M450.567,557.987c1.18,1.586,2.638,2.572,4.246,2.572c2.273,0,3.646-1.158,3.646-3.002
			c0-2.166-1.287-3.473-4.375-3.473h-1.521v-1.33h0.922c3.087,0,4.418-0.986,4.418-2.895c0-1.566-1.353-2.553-2.831-2.553
			c-1.887,0-2.702,0.814-3.731,2.143l-1.266-0.855c1.051-1.459,2.51-2.617,4.997-2.617c2.744,0,4.459,1.416,4.459,3.859
			c0,1.865-1.2,2.961-2.401,3.434c2.445,0.941,2.959,2.701,2.959,4.115c0,2.639-2.036,4.504-5.274,4.504
			c-2.96,0-4.76-1.846-5.49-3.047L450.567,557.987z"/>
	</g>
	<g>
		<path fill="#707173" d="M242.424,587.024h-10.057v-1.631c2.681-5.424,8.449-5.746,8.449-9.904c0-1.803-1.158-2.832-3.131-2.832
			c-2.23,0-3.389,1.801-3.646,3.367l-1.521-0.342c0.492-2.146,1.758-4.355,5.21-4.355c2.531,0,4.718,1.461,4.718,4.119
			c0,4.717-6.775,6.002-8.449,10.25h8.428V587.024z"/>
		<path fill="#707173" d="M253.323,583.38v3.645h-1.544v-3.645h-7.119v-1.33l6.39-10.506h2.273v10.506h2.658v1.33H253.323z
			 M246.29,582.05h5.489v-8.877h-0.064L246.29,582.05z"/>
	</g>
	<g>
		<path fill="#707173" d="M276.549,587.024h-10.057v-1.631c2.681-5.424,8.449-5.746,8.449-9.904c0-1.803-1.158-2.832-3.131-2.832
			c-2.23,0-3.389,1.801-3.646,3.367l-1.521-0.342c0.492-2.146,1.758-4.355,5.21-4.355c2.531,0,4.718,1.461,4.718,4.119
			c0,4.717-6.775,6.002-8.449,10.25h8.428V587.024z"/>
		<path fill="#707173" d="M288.712,572.872h-6.647l-0.386,4.953c1.008-0.922,2.079-1.266,3.174-1.266
			c2.573,0,4.953,1.758,4.953,5.234c0,2.357-1.415,5.445-5.36,5.445c-2.639,0-3.968-1.459-4.933-2.961l1.394-0.729
			c0.751,1.395,1.952,2.359,3.582,2.359c2.036,0,3.688-1.201,3.688-4.115c0-2.275-1.329-3.902-3.474-3.902
			c-1.501,0-2.638,0.898-3.26,2.336l-1.351-0.301l0.687-8.383h7.934V572.872z"/>
	</g>
	<g>
		<path fill="#707173" d="M310.674,587.024h-10.057v-1.631c2.681-5.424,8.449-5.746,8.449-9.904c0-1.803-1.158-2.832-3.131-2.832
			c-2.23,0-3.389,1.801-3.646,3.367l-1.521-0.342c0.492-2.146,1.758-4.355,5.21-4.355c2.531,0,4.718,1.461,4.718,4.119
			c0,4.717-6.775,6.002-8.449,10.25h8.428V587.024z"/>
		<path fill="#707173" d="M322.408,573.536c-0.707-0.557-1.436-0.879-2.637-0.879c-2.444,0-4.717,2.018-4.761,6.475
			c0.943-0.984,2.102-1.842,4.246-1.842c2.316,0,4.653,1.629,4.653,4.973c0,3.305-2.423,4.977-4.996,4.977
			c-3.216,0-5.533-1.887-5.533-7.162c0-4.891,2.188-8.75,6.348-8.75c1.674,0,2.895,0.473,3.346,0.902L322.408,573.536z
			 M319.042,578.62c-1.888,0-3.86,1.543-3.988,3.301c0.085,2.188,1.5,3.988,3.73,3.988c2.188,0,3.495-1.5,3.495-3.604
			C322.28,579.905,320.671,578.62,319.042,578.62z"/>
	</g>
	<g>
		<path fill="#707173" d="M344.799,587.024h-10.057v-1.631c2.681-5.424,8.449-5.746,8.449-9.904c0-1.803-1.158-2.832-3.131-2.832
			c-2.23,0-3.389,1.801-3.646,3.367l-1.521-0.342c0.492-2.146,1.758-4.355,5.21-4.355c2.531,0,4.718,1.461,4.718,4.119
			c0,4.717-6.775,6.002-8.449,10.25h8.428V587.024z"/>
		<path fill="#707173" d="M347.806,572.872v-1.328h9.821v0.941l-6.541,14.539h-1.801l6.369-14.152H347.806z"/>
	</g>
	<g>
		<path fill="#707173" d="M378.924,587.024h-10.057v-1.631c2.681-5.424,8.449-5.746,8.449-9.904c0-1.803-1.158-2.832-3.131-2.832
			c-2.23,0-3.389,1.801-3.646,3.367l-1.521-0.342c0.492-2.146,1.758-4.355,5.21-4.355c2.531,0,4.718,1.461,4.718,4.119
			c0,4.717-6.775,6.002-8.449,10.25h8.428V587.024z"/>
		<path fill="#707173" d="M386.885,587.239c-3.796,0-5.641-1.887-5.641-4.244c0-1.973,1.545-3.348,3.389-4.205v-0.043
			c-1.716-0.643-2.745-1.951-2.745-3.561c0-2.529,2.145-3.859,4.997-3.859c2.852,0,4.995,1.33,4.995,3.859
			c0,1.609-1.029,2.918-2.744,3.561v0.043c1.845,0.664,3.388,2.102,3.388,4.205C392.524,585.353,390.68,587.239,386.885,587.239z
			 M386.885,585.909c2.808,0,4.009-1.543,4.009-2.914c0-1.803-1.843-2.705-4.288-3.52c-1.887,0.814-3.731,1.717-3.731,3.52
			C382.875,584.366,384.076,585.909,386.885,585.909z M386.885,572.657c-1.695,0-3.367,0.729-3.367,2.445
			c0,1.672,2.102,2.615,3.367,2.98c1.715-0.428,3.365-1.479,3.365-2.98C390.25,573.386,388.579,572.657,386.885,572.657z"/>
	</g>
	<g>
		<path fill="#707173" d="M413.049,587.024h-10.057v-1.631c2.681-5.424,8.449-5.746,8.449-9.904c0-1.803-1.158-2.832-3.131-2.832
			c-2.23,0-3.389,1.801-3.646,3.367l-1.521-0.342c0.492-2.146,1.758-4.355,5.21-4.355c2.531,0,4.718,1.461,4.718,4.119
			c0,4.717-6.775,6.002-8.449,10.25h8.428V587.024z"/>
		<path fill="#707173" d="M417.257,585.03c0.707,0.557,1.436,0.879,2.637,0.879c2.445,0,4.568-2.186,4.761-6.475
			c-0.943,0.984-2.101,1.844-4.245,1.844c-2.315,0-4.654-1.631-4.654-4.975c0-3.303,2.424-4.977,4.997-4.977
			c3.217,0,5.532,1.887,5.532,7.162c0,4.891-2.188,8.75-6.348,8.75c-1.672,0-2.895-0.473-3.345-0.9L417.257,585.03z
			 M420.625,579.948c1.886,0,3.345-1.244,3.944-2.873c-0.042-2.701-1.458-4.418-3.688-4.418c-2.188,0-3.495,1.502-3.495,3.604
			C417.385,578.663,418.994,579.948,420.625,579.948z"/>
	</g>
	<g>
		<path fill="#707173" d="M437.675,583.337c1.18,1.588,2.637,2.572,4.245,2.572c2.273,0,3.646-1.158,3.646-3.002
			c0-2.164-1.287-3.473-4.375-3.473h-1.522v-1.33h0.922c3.088,0,4.418-0.986,4.418-2.895c0-1.566-1.352-2.553-2.831-2.553
			c-1.887,0-2.701,0.816-3.731,2.145l-1.266-0.857c1.052-1.459,2.51-2.617,4.997-2.617c2.745,0,4.46,1.418,4.46,3.859
			c0,1.867-1.201,2.961-2.402,3.434c2.445,0.941,2.96,2.701,2.96,4.115c0,2.639-2.037,4.504-5.275,4.504
			c-2.959,0-4.76-1.846-5.489-3.047L437.675,583.337z"/>
		<path fill="#707173" d="M455.135,571.327c3.365,0,5.468,2.359,5.468,7.955c0,5.6-2.103,7.957-5.468,7.957
			c-3.367,0-5.468-2.357-5.468-7.957C449.667,573.687,451.768,571.327,455.135,571.327z M455.135,585.909
			c2.509,0,3.838-1.93,3.838-6.627c0-4.695-1.329-6.625-3.838-6.625c-2.51,0-3.839,1.93-3.839,6.625
			C451.296,583.979,452.625,585.909,455.135,585.909z"/>
	</g>
	<g>
		<path fill="#707173" d="M232.925,608.687c1.18,1.588,2.637,2.572,4.245,2.572c2.273,0,3.646-1.158,3.646-3
			c0-2.166-1.287-3.475-4.375-3.475h-1.522v-1.33h0.922c3.088,0,4.418-0.984,4.418-2.895c0-1.566-1.352-2.551-2.831-2.551
			c-1.887,0-2.701,0.814-3.731,2.143l-1.266-0.855c1.052-1.461,2.51-2.619,4.997-2.619c2.745,0,4.46,1.418,4.46,3.859
			c0,1.867-1.201,2.961-2.402,3.434c2.445,0.941,2.96,2.701,2.96,4.115c0,2.639-2.037,4.504-5.275,4.504
			c-2.959,0-4.76-1.846-5.489-3.047L232.925,608.687z"/>
		<path fill="#707173" d="M247.168,612.374v-1.328h2.68v-12.588l-2.979,0.299v-1.006c1.071-0.322,2.294-0.645,2.979-1.074h1.545
			v14.369h2.637v1.328H247.168z"/>
	</g>
	<g>
		<path fill="#707173" d="M242.964,388.733c-0.749,0.304-1.614,0.117-1.614,0.117s-2.575-0.117-3.98-1.218
			c-1.965-1.545-2.082-7.49-2.082-7.49c-0.118-8.051,9.479-1.825,9.479-1.825c-4.05-1.825-6.812-2.13-6.812,2.106
			c0,3.886,1.545,6.999,1.545,6.999c3.441,0.141,6.016-1.568,6.016-1.568c0.702,0.07,2.294,1.193,2.294,1.193
			c-0.914,0.491-1.85,0.937-2.528,1.171c0,0.305,0,0.865,0,1.872h-2.317C242.964,389.412,242.964,389.366,242.964,388.733z
			 M248.091,378.644l1.381,1.429l-1.381,1.381l-1.382-1.381L248.091,378.644z"/>
		<path fill="#707173" d="M238.961,390.577l1.382,1.429l-1.382,1.381l-1.381-1.381L238.961,390.577z M238.961,393.386l1.382,1.428
			l-1.382,1.381l-1.381-1.381L238.961,393.386z M242.964,397.271c-0.022-2.106,0.491-3.838,2.178-4.143c0,0-1.171-0.538-1.709-1.076
			c-0.282-0.305-0.445-0.796-0.469-2.458h2.317c0.024,2.902,0.913,3.276,0.913,3.276s1.077,0.305,1.592,0.609
			c0.352,0.257,0.141,0.257,0.141,0.257c-1.615,0-2.646,1.287-2.646,3.534H242.964z"/>
		<path fill="#707173" d="M242.964,404.619c-0.022-2.105,0.491-3.838,2.178-4.143c0,0-1.171-0.538-1.709-1.076
			c-0.282-0.305-0.445-0.796-0.469-2.458h2.317c0.024,2.902,0.913,3.277,0.913,3.277s1.077,0.305,1.592,0.609
			c0.352,0.256,0.141,0.256,0.141,0.256c-1.615,0-2.646,1.287-2.646,3.534H242.964z M252.234,399.189l1.381,1.429l-1.381,1.38
			l-1.382-1.38L252.234,399.189z"/>
		<path fill="#707173" d="M245.282,404.125c0,3.019,0.141,3.511,0.141,3.511c0.749,0.117,2.505-1.545,2.505-1.545
			c0.233-0.07,2.294,0.936,2.294,0.936s-2.2,2.2-4.752,2.037c0,0-1.404-0.14-2.247-0.726c0,0-0.258-1.077-0.258-4.213H245.282z
			 M253.474,404.43l1.381,1.427l-1.381,1.381l-1.38-1.381L253.474,404.43z M253.498,407.238l1.382,1.429l-1.382,1.381l-1.381-1.381
			L253.498,407.238z M255.582,405.833l1.381,1.428l-1.381,1.381l-1.382-1.381L255.582,405.833z"/>
		<path fill="#707173" d="M240.484,412.902c0,0-0.305-2.014-0.773-0.633c-0.468,1.382-0.14,2.013-0.094,2.364
			c0.047,0.327-0.256,0.116-0.256,0.116l-0.469-0.468c0,0-0.258-0.164-0.327-0.444c-0.353-1.568-1.218-2.458-1.265-2.505
			c-0.047-0.117-0.094-0.164,0.047-0.233c0.233,0,1.218,0.749,1.218,0.749c0.069,0,0.116-0.469,0.116-0.469s0.023-1.171,1.029-0.585
			c1.498,0.89,1.873,2.481,1.826,2.785c-0.07,0.305-0.351,0.538-0.351,0.538l-0.82-0.959L240.484,412.902z M255.417,420.321
			c0,0-0.632-0.772-1.498-0.702c-2.2,0.188-3.956-0.164-5.314-0.702c-1.498,0.843-2.808,1.381-3.58,1.498
			c-0.445,0.069-2.247-0.351-2.247-0.351c-0.468-1.17-0.398-5.922-0.398-5.922c0.982-0.399,2.974,0,2.974,0
			c-0.235,0.163-0.211,0.515-0.211,0.515c1.193,1.404,2.13,2.247,2.902,2.762c2.152-1.311,3.301-2.574,3.581-2.927
			c1.1-1.356,0.89-1.474,0.89-1.474s-0.398-0.865,0.281-1.076c0.654-0.211,1.45-0.398,2.176-0.281c1.265,0.21,1.007,1.1,1.007,1.1
			c-1.568,2.153-3.932,4.05-6.109,5.432c1.498,0.327,3.44,0.022,3.44,0.022s0.843-0.141,1.358-0.422
			c1.124-0.632,2.364,1.124,2.364,1.124C255.346,419.104,255.417,420.321,255.417,420.321z M245.095,416.389l0.163,2.434
			c0.608-0.257,1.171-0.515,1.662-0.772C245.68,417.232,245.095,416.389,245.095,416.389z"/>
		<path fill="#707173" d="M256.962,424.46c-2.785,0.071-4.19,0.235-5.572,0.305c-1.31,0.07-3.837,0.188-5.477,0.233
			c-2.387,0.071-3.44-0.725-3.908-1.122c-0.142-0.118,0-0.118,0-0.118c1.614-0.093,4.799-0.397,4.799-0.397l6.717-0.374
			C255.604,422.87,256.962,424.46,256.962,424.46z"/>
	</g>
	<g>
		<path fill="#707173" d="M280.715,380.213c0,0-0.469-3.814-1.381-1.193c-0.938,2.645-0.328,3.862-0.211,4.518
			c0.047,0.607-0.491,0.234-0.491,0.234l-0.913-0.89c0,0-0.491-0.352-0.632-0.891c-0.727-2.972-2.317-4.681-2.411-4.797
			c-0.141-0.211-0.188-0.329,0.094-0.375c0.375,0,2.317,1.404,2.317,1.404c0.163,0,0.233-0.913,0.233-0.913s0.024-2.294,2.014-1.101
			c2.785,1.662,3.534,4.683,3.464,5.29c-0.163,0.633-0.703,1.03-0.703,1.03l-1.544-1.802L280.715,380.213z"/>
		<path fill="#707173" d="M276.666,390.556c0,0-0.211-4.166,2.996-4.261l9.269-0.256c0.492-0.024,1.687,1.334,1.687,1.334
			c-0.913,0-6.555,0.14-9.573,0.14c-2.271,0-2.061,3.043-2.061,3.043H276.666z"/>
		<path fill="#707173" d="M278.983,389.946c0,3.019,0.141,3.51,0.141,3.51c0.749,0.118,2.505-1.543,2.505-1.543
			c0.233-0.071,2.294,0.936,2.294,0.936s-2.2,2.2-4.752,2.036c0,0-1.404-0.14-2.247-0.725c0,0-0.258-1.077-0.258-4.214H278.983z
			 M287.175,390.25l1.381,1.427l-1.381,1.382l-1.381-1.382L287.175,390.25z M287.199,393.059l1.382,1.428l-1.382,1.381l-1.381-1.381
			L287.199,393.059z M289.283,391.655l1.381,1.428l-1.381,1.38l-1.382-1.38L289.283,391.655z"/>
		<path fill="#707173" d="M276.666,409.464c0,0-0.258-3.041,2.832-3.205c3.02-0.164,4.564-0.211,4.564-0.211
			s-8.356-1.03-7.841-7.326l0.211-2.575c1.615,7.841,8.895,9.27,8.895,9.27c3.019,0.468,4.213,0,4.892,0.303
			c0.702,0.469,0.679,0.938-0.491,1.007c0,0-4.845,0.491-8.146,0.516c-2.833,0.023-2.599,2.223-2.599,2.223H276.666z
			 M286.051,399.26c0,0-0.233-1.803,1.616-2.177c1.638-0.328,2.574-0.469,1.872,0.796c-0.679,1.545-2.341,2.973-4.144,3.861
			c-2.621,1.287-5.781,0.211-5.781,0.211S284.015,402.022,286.051,399.26z"/>
		<path fill="#707173" d="M276.666,416.788c-0.022-2.106,0.491-3.838,2.178-4.143c0,0-1.171-0.538-1.709-1.076
			c-0.282-0.305-0.445-0.797-0.469-2.458h2.317c0.023,2.902,0.912,3.276,0.912,3.276s1.078,0.305,1.593,0.609
			c0.352,0.257,0.141,0.257,0.141,0.257c-1.615,0-2.646,1.287-2.646,3.534H276.666z M285.513,409.954l1.381,1.427l-1.381,1.382
			l-1.38-1.382L285.513,409.954z M285.513,412.762l1.381,1.428l-1.381,1.381l-1.38-1.381L285.513,412.762z M287.971,411.358
			l1.381,1.428l-1.381,1.38l-1.382-1.38L287.971,411.358z"/>
		<path fill="#707173" d="M279.146,418.494c0.749,0.188,7.188-0.374,7.188-0.374c0.491-0.023,0.749-0.07,1.427-0.353
			c1.17-0.491,2.785,1.078,2.785,1.078s-1.731,0.093-2.176,1.521c0,0-0.469-0.844-1.733-0.772c-0.865,0.046-5.219,0.21-6.295,0.164
			c-1.218-0.047-2.436,0-3.465-0.773c0,0-0.188-1.381-0.188-2.551h2.294C278.983,417.862,279.146,418.494,279.146,418.494z"/>
		<path fill="#707173" d="M290.664,424.46c-2.785,0.071-4.19,0.235-5.572,0.305c-1.31,0.07-3.838,0.188-5.477,0.233
			c-2.387,0.071-3.44-0.725-3.909-1.122c-0.141-0.118,0-0.118,0-0.118c1.615-0.093,4.799-0.397,4.799-0.397l6.718-0.374
			C289.305,422.87,290.664,424.46,290.664,424.46z"/>
	</g>
	<g>
		<path fill="#707173" d="M314.417,376.633c0,0-0.469-3.814-1.381-1.193c-0.938,2.645-0.328,3.862-0.211,4.518
			c0.047,0.607-0.491,0.234-0.491,0.234l-0.913-0.89c0,0-0.491-0.352-0.632-0.891c-0.727-2.972-2.317-4.681-2.411-4.797
			c-0.141-0.211-0.188-0.329,0.094-0.375c0.375,0,2.317,1.404,2.317,1.404c0.163,0,0.233-0.913,0.233-0.913s0.023-2.294,2.014-1.101
			c2.785,1.662,3.534,4.683,3.464,5.29c-0.163,0.633-0.703,1.03-0.703,1.03l-1.544-1.802L314.417,376.633z"/>
		<path fill="#707173" d="M310.367,386.976c0,0-0.211-4.166,2.996-4.261l9.269-0.256c0.491-0.024,1.687,1.334,1.687,1.334
			c-0.913,0-6.555,0.14-9.574,0.14c-2.271,0-2.061,3.043-2.061,3.043H310.367z"/>
		<path fill="#707173" d="M310.367,394.746c0-1.265,0.352-2.763,1.381-3.559c0,0-1.381-1.498-1.381-4.846h2.316
			c-0.022,3.254,0.702,3.652,0.702,3.652c0.913-0.327,0.68-2.154,0.68-2.154s2.574,0.024,2.574,2.436
			c0,2.879-1.989,2.854-1.989,2.854l-1.265-0.796c-0.585,0.562-0.702,1.147-0.702,2.412H310.367z"/>
		<path fill="#707173" d="M306.973,395.165l1.38,1.429l-1.38,1.38l-1.381-1.38L306.973,395.165z M312.683,394.252
			c0,3.019,0.142,3.51,0.142,3.51c0.749,0.118,2.505-1.544,2.505-1.544c0.233-0.071,2.294,0.936,2.294,0.936s-2.2,2.2-4.752,2.037
			c0,0-1.404-0.14-2.247-0.726c0,0-0.258-1.076-0.258-4.213H312.683z"/>
		<path fill="#707173" d="M312.076,409.463c-1.942,0.047-5.665-1.521-6.203-4.283c-0.491-2.505,1.171-4.938,1.171-4.938
			c-0.516,1.849,0.396,3.627,0.654,4.212c0.491,1.101,3.021,4.238,4.12,4.05c1.054-0.187,1.896-1.567,2.224-1.896
			c0.234-0.234,2.669,0.726,2.669,0.726C315.188,409.463,312.872,409.441,312.076,409.463z"/>
		<path fill="#707173" d="M322.82,420.087c0,0-0.633-0.772-1.498-0.702c-2.2,0.188-3.956-0.164-5.314-0.702
			c-1.498,0.843-2.809,1.381-3.58,1.498c-0.445,0.069-2.247-0.351-2.247-0.351c-0.469-1.171-0.398-5.923-0.398-5.923
			c0.982-0.398,2.973,0,2.973,0c-0.234,0.164-0.211,0.516-0.211,0.516c1.193,1.404,2.131,2.247,2.902,2.762
			c2.153-1.311,3.301-2.575,3.582-2.927c1.099-1.356,0.89-1.474,0.89-1.474s-0.398-0.866,0.28-1.076
			c0.655-0.211,1.451-0.399,2.176-0.281c1.265,0.21,1.007,1.1,1.007,1.1c-1.567,2.153-3.932,4.05-6.108,5.431
			c1.498,0.328,3.44,0.023,3.44,0.023s0.843-0.141,1.358-0.422c1.123-0.632,2.363,1.124,2.363,1.124
			C322.749,418.871,322.82,420.087,322.82,420.087z M312.497,416.155l0.164,2.435c0.608-0.257,1.171-0.515,1.662-0.772
			C313.083,416.999,312.497,416.155,312.497,416.155z M327.219,412.129c0,0-0.374-2.411-0.937-0.749
			c-0.562,1.662-0.187,2.411-0.117,2.832c0.048,0.397-0.303,0.14-0.303,0.14l-0.562-0.561c0,0-0.305-0.188-0.397-0.538
			c-0.445-1.873-1.451-2.951-1.522-2.996c-0.047-0.142-0.094-0.188,0.071-0.282c0.28,0,1.451,0.89,1.451,0.89
			c0.093,0,0.14-0.562,0.14-0.562s0.024-1.403,1.24-0.701c1.803,1.054,2.247,2.996,2.201,3.348
			c-0.094,0.374-0.421,0.654-0.421,0.654l-0.984-1.146L327.219,412.129z"/>
		<path fill="#707173" d="M324.365,424.46c-2.785,0.071-4.191,0.235-5.572,0.305c-1.311,0.07-3.838,0.188-5.477,0.233
			c-2.387,0.071-3.44-0.725-3.909-1.122c-0.141-0.118,0-0.118,0-0.118c1.615-0.093,4.799-0.397,4.799-0.397l6.717-0.374
			C323.006,422.87,324.365,424.46,324.365,424.46z"/>
	</g>
	<g>
		<path fill="#707173" d="M346.575,375.91c-0.726,2.061,0.281,2.692,1.193,3.021c0.655,0.233-0.258,0.421-0.258,0.421
			s-0.678-0.234-0.889-0.07c-0.234,0.07-0.515,0.468-0.515,1.123c0,0.516,0.28,0.68,0.28,0.68s0-0.164,0.679,0
			c0.562,0.14,1.335,0.796,1.335,0.796h-0.891c-1.123,0.14-1.123,1.334-1.123,2.668h-2.317c-0.022-0.656,0-2.528,0.913-3.137
			c0,0-0.913-0.491-0.913-1.451c0-1.101,0.444-1.404,0.444-1.639c0,0-1.029-0.936-0.21-1.849c-1.17,0.211-1.615,0.211-1.615,0.211
			s-2.317-0.024-3.651-0.89c-2.083-1.357-2.061-5.385-2.061-5.385c-0.14-6.53,8.239-1.709,8.239-1.709s-5.851-2.785-5.71,1.92
			c0.116,3.816,1.802,4.963,1.802,4.963c2.06-0.142,5.313-1.615,5.313-1.615c0.444,0.07,1.779,1.287,1.779,1.287
			C347.746,375.559,347.019,375.77,346.575,375.91z"/>
		<path fill="#707173" d="M340.067,385.08l1.382,1.429l-1.382,1.381l-1.381-1.381L340.067,385.08z M340.067,387.889l1.382,1.428
			l-1.382,1.381l-1.381-1.381L340.067,387.889z M344.07,391.774c-0.022-2.106,0.491-3.838,2.178-4.143c0,0-1.171-0.538-1.709-1.076
			c-0.282-0.305-0.445-0.796-0.469-2.458h2.317c0.024,2.902,0.913,3.276,0.913,3.276s1.077,0.305,1.592,0.609
			c0.352,0.257,0.141,0.257,0.141,0.257c-1.615,0-2.646,1.287-2.646,3.534H344.07z"/>
		<path fill="#707173" d="M344.07,402.21c0-1.778,0.258-2.668,0.796-3.229l-1.521-0.632c2.201-2.436,2.061-3.745,2.061-3.745
			s-1.193-0.727-1.335-2.084c0,0,0-0.725,0-1.264h2.317c-0.07,2.95,1.101,3.253,1.101,3.253c2.949,1.054,2.598,4.284,2.598,4.284
			c-2.271-0.655-3.722,0.632-3.698,3.417H344.07z M346.34,397.88c0.796-0.444,1.872,0,1.872,0c0-1.076-1.193-1.778-1.193-1.778
			C347.019,397.109,346.34,397.88,346.34,397.88z"/>
		<path fill="#707173" d="M349.408,406.328c-0.071-0.655-0.235-1.193-0.657-1.731c-0.841-1.101,0.516-0.562,0.516-0.562
			s2.622,0.89,2.575,2.856c-0.07,2.505-1.475,4.425-1.873,6.226c-0.514,2.318-0.327,3.138-0.327,3.138l-2.622-0.749
			c0,0,0-1.546-0.094-2.271c-0.631-0.046-0.538,3.699-0.538,3.699h-2.317c-0.047-5.501,2.763-4.119,2.738-4.167
			c-0.21-0.819-0.678-1.45-1.123-2.504c-1.076-2.505-1.662-4.986-1.615-8.614h2.317c0.047,6.461,2.061,9.573,2.061,9.573
			S349.594,408.155,349.408,406.328z M354.954,409.043l1.382,1.428l-1.382,1.382l-1.38-1.382L354.954,409.043z"/>
		<path fill="#707173" d="M346.551,418.495c0.749,0.187,7.187-0.374,7.187-0.374c0.491-0.023,0.749-0.07,1.427-0.352
			c1.171-0.491,2.785,1.077,2.785,1.077s-1.731,0.093-2.176,1.521c0,0-0.469-0.843-1.732-0.772c-0.866,0.046-5.22,0.211-6.296,0.164
			c-1.218-0.047-2.436,0-3.465-0.773c0,0-0.188-1.381-0.188-2.552h2.294C346.387,417.863,346.551,418.495,346.551,418.495z"/>
		<path fill="#707173" d="M358.068,424.461c-2.785,0.071-4.19,0.235-5.572,0.305c-1.31,0.07-3.837,0.188-5.477,0.235
			c-2.387,0.069-3.44-0.727-3.908-1.125c-0.142-0.117,0-0.117,0-0.117c1.614-0.092,4.799-0.396,4.799-0.396l6.717-0.375
			C356.709,422.871,358.068,424.461,358.068,424.461z"/>
	</g>
	<g>
		<path fill="#707173" d="M380.911,376.869l-0.305-0.491c-0.164-4.752,0.843-4.145,0.843-4.145l2.364,0.984
			c1.825,1.919,2.902,4.189,2.902,4.189h0.515c0.586,0,1.638,1.123,1.638,1.123s-1.403,0.399-4.563,0.539
			c-3.721,0.141-4.236,1.732-4.214,4.939h-2.316c0-5.314,1.85-5.712,3.698-5.97c0.818-0.116,3.417-0.352,3.417-0.352
			c0-0.538-1.614-2.925-1.825-3.183c0,0-0.024-0.024-0.094,0.187c-0.07,0.211-0.211,1.967-0.211,3.254
			C382.759,377.945,381.871,377.687,380.911,376.869z M390.484,372.21l1.38,1.428l-1.38,1.382l-1.381-1.382L390.484,372.21z
			 M390.484,374.973l1.38,1.427l-1.38,1.381l-1.381-1.381L390.484,374.973z"/>
		<path fill="#707173" d="M377.774,391.775c0-1.265,0.352-2.763,1.381-3.559c0,0-1.381-1.498-1.381-4.846h2.316
			c-0.022,3.254,0.702,3.652,0.702,3.652c0.913-0.327,0.68-2.154,0.68-2.154s2.574,0.024,2.574,2.436
			c0,2.879-1.989,2.854-1.989,2.854l-1.265-0.796c-0.585,0.562-0.702,1.147-0.702,2.412H377.774z"/>
		<path fill="#707173" d="M377.774,402.21c0-1.778,0.258-2.668,0.796-3.229l-1.522-0.632c2.201-2.436,2.061-3.745,2.061-3.745
			s-1.193-0.727-1.334-2.084c0,0,0-0.725,0-1.264h2.316c-0.069,2.95,1.101,3.253,1.101,3.253c2.949,1.054,2.598,4.284,2.598,4.284
			c-2.27-0.655-3.721,0.632-3.698,3.417H377.774z M380.043,397.88c0.796-0.444,1.873,0,1.873,0c0-1.076-1.193-1.778-1.193-1.778
			C380.723,397.109,380.043,397.88,380.043,397.88z"/>
		<path fill="#707173" d="M374.754,408.693l1.38,1.427l-1.38,1.382l-1.381-1.382L374.754,408.693z M383.111,406.328
			c-0.071-0.655-0.235-1.193-0.656-1.731c-0.842-1.101,0.516-0.562,0.516-0.562s2.621,0.89,2.574,2.856
			c-0.069,2.505-1.474,4.425-1.872,6.226c-0.515,2.318-0.328,3.138-0.328,3.138l-2.621-0.749c0,0,0-1.546-0.095-2.271
			c-0.631-0.046-0.538,3.699-0.538,3.699h-2.316c-0.047-5.501,2.763-4.119,2.738-4.167c-0.211-0.819-0.678-1.45-1.124-2.504
			c-1.076-2.505-1.661-4.986-1.614-8.614h2.316c0.047,6.461,2.061,9.573,2.061,9.573S383.297,408.155,383.111,406.328z"/>
		<path fill="#707173" d="M380.254,418.495c0.749,0.187,7.187-0.374,7.187-0.374c0.491-0.023,0.749-0.07,1.427-0.352
			c1.171-0.491,2.786,1.077,2.786,1.077s-1.732,0.093-2.177,1.521c0,0-0.468-0.843-1.732-0.772
			c-0.866,0.046-5.219,0.211-6.296,0.164c-1.217-0.047-2.435,0-3.464-0.773c0,0-0.188-1.381-0.188-2.552h2.294
			C380.09,417.863,380.254,418.495,380.254,418.495z"/>
		<path fill="#707173" d="M391.772,424.461c-2.786,0.071-4.191,0.235-5.572,0.305c-1.311,0.07-3.838,0.188-5.477,0.235
			c-2.387,0.069-3.44-0.727-3.909-1.125c-0.141-0.117,0-0.117,0-0.117c1.615-0.092,4.799-0.396,4.799-0.396l6.717-0.375
			C390.414,422.871,391.772,424.461,391.772,424.461z"/>
	</g>
	<g>
		<path fill="#707173" d="M411.475,393.696c0-2.223,0.233-3.792,2.341-4.517c0,0-1.709-0.516-1.896-1.733
			c0,0-0.655-2.621-0.937-5.898c-0.352-3.979,0.469-9.269,6.836-5.29v0.047c-7.257-3.581-4.097,10.159-3.535,11.588
			c0.328,0.818,0.468,1.005,0.468,1.005s1.24,0.258,1.614,0.54c0.422,0.303,0.493,0.373,0.493,0.373
			c-2.88,0.492-3.067,1.896-3.067,3.886H411.475z M420.931,379.722l1.382,1.429l-1.382,1.38l-1.381-1.38L420.931,379.722z
			 M421.001,382.531l1.381,1.428l-1.381,1.382l-1.382-1.382L421.001,382.531z"/>
		<path fill="#707173" d="M408.221,395.351l1.381,1.429l-1.381,1.381l-1.382-1.381L408.221,395.351z M411.475,400.922
			c-0.023-2.106,0.491-3.838,2.177-4.143c0,0-1.171-0.538-1.709-1.077c-0.281-0.305-0.445-0.796-0.468-2.457h2.316
			c0.024,2.901,0.913,3.276,0.913,3.276s1.077,0.305,1.592,0.609c0.352,0.257,0.141,0.257,0.141,0.257
			c-1.614,0-2.646,1.287-2.646,3.534H411.475z"/>
		<path fill="#707173" d="M411.475,416.814c0-0.982,0-2.552,0.726-3.651c0,0-0.374-0.116-0.726-0.374c0,0-0.983-3.276,1.217-3.886
			c0,0-1.592-0.258-1.592-2.809c0-1.709,1.476-1.825,1.476-1.825s-1.101-0.96-1.101-3.863h2.316c0,3.137,0.937,4.308,1.334,4.588
			c0.328,0.234,0.352,0.632,0,0.491c-0.749-0.28-0.982-0.233-0.982-0.233s-0.608,0.116-0.608,1.217c0,1.942,1.591,3.16,1.966,3.277
			c0.116,0.116,0.141,0.421,0.141,0.421s-0.608-0.141-0.726-0.141c-0.749-0.117-1.124,0.445-1.124,1.312
			c0,0.491,0.117,1.334,0.117,1.334s0.234,0,0.609,0c0.374,0,1.451,0.726,1.451,0.726c-1.826,0.116-2.178,1.85-2.178,3.417H411.475z
			"/>
		<path fill="#707173" d="M413.956,418.494c0.749,0.188,7.187-0.374,7.187-0.374c0.491-0.023,0.749-0.07,1.427-0.353
			c1.171-0.491,2.785,1.078,2.785,1.078s-1.731,0.093-2.176,1.521c0,0-0.468-0.844-1.732-0.772c-0.866,0.046-5.22,0.21-6.296,0.164
			c-1.218-0.047-2.435,0-3.465-0.773c0,0-0.188-1.381-0.188-2.551h2.294C413.792,417.862,413.956,418.494,413.956,418.494z"/>
		<path fill="#707173" d="M425.472,424.46c-2.785,0.071-4.19,0.235-5.571,0.305c-1.311,0.07-3.838,0.188-5.478,0.233
			c-2.387,0.071-3.44-0.725-3.908-1.122c-0.142-0.118,0-0.118,0-0.118c1.614-0.093,4.799-0.397,4.799-0.397l6.717-0.374
			C424.114,422.87,425.472,424.46,425.472,424.46z"/>
	</g>
	<g>
		<path fill="#707173" d="M453.556,391.352c0.538-0.047,1.685,1.265,1.685,1.265s-3.138,0.28-5.267,0.819
			c-2.341,0.585-2.481,1.475-2.481,2.738h-2.317c-0.094-3.394,2.833-3.909,2.833-3.909c-1.101-0.258-1.593-0.514-1.593-0.514
			s-1.17-1.218-1.334-3.98c-0.164-2.925,2.294-2.738,3.534-2.223c-0.631-0.024-1.451,0.303-1.193,2.527
			c0.352,3.09,1.568,3.956,1.568,3.956C449.927,391.961,452.876,391.422,453.556,391.352z"/>
		<path fill="#707173" d="M448.453,404.457c1.381-2.06,1.661-3.721,1.661-4.494c0-0.397-0.187-1.193-0.491-1.568
			c-0.702-0.89,0.188-0.468,0.188-0.468s2.574,0.609,2.55,2.81c-0.022,1.989-1.567,4.072-2.294,5.501
			c-0.842,1.685-0.865,3.229-0.865,3.229l-2.809-1.101c0,0,0.304-2.247-0.258-4.729c-0.397-1.731-0.96-4.189-0.96-7.911h2.317
			C447.4,399.751,448.453,404.457,448.453,404.457z"/>
		<path fill="#707173" d="M457.628,420.088c0,0-0.632-0.772-1.498-0.702c-2.2,0.188-3.956-0.164-5.314-0.702
			c-1.498,0.843-2.808,1.381-3.58,1.498c-0.445,0.07-2.247-0.351-2.247-0.351c-0.468-1.17-0.398-5.922-0.398-5.922
			c0.982-0.398,2.974,0,2.974,0c-0.235,0.163-0.211,0.514-0.211,0.514c1.193,1.405,2.13,2.247,2.902,2.763
			c2.152-1.311,3.301-2.574,3.581-2.926c1.1-1.357,0.89-1.475,0.89-1.475s-0.398-0.865,0.281-1.076
			c0.654-0.211,1.45-0.398,2.176-0.282c1.265,0.211,1.007,1.101,1.007,1.101c-1.568,2.153-3.932,4.05-6.109,5.432
			c1.498,0.327,3.44,0.022,3.44,0.022s0.843-0.141,1.358-0.421c1.124-0.633,2.364,1.123,2.364,1.123
			C457.557,418.872,457.628,420.088,457.628,420.088z M447.306,416.157l0.163,2.434c0.608-0.257,1.171-0.515,1.662-0.772
			C447.891,417,447.306,416.157,447.306,416.157z M462.029,412.13c0,0-0.375-2.41-0.938-0.749c-0.561,1.662-0.187,2.411-0.116,2.833
			c0.047,0.397-0.304,0.14-0.304,0.14l-0.562-0.562c0,0-0.305-0.188-0.397-0.538c-0.445-1.873-1.451-2.949-1.521-2.996
			c-0.047-0.141-0.095-0.188,0.07-0.282c0.281,0,1.451,0.891,1.451,0.891c0.093,0,0.14-0.562,0.14-0.562s0.024-1.405,1.24-0.703
			c1.803,1.054,2.247,2.996,2.202,3.348c-0.095,0.374-0.422,0.655-0.422,0.655l-0.983-1.146L462.029,412.13z"/>
		<path fill="#707173" d="M459.173,424.461c-2.785,0.071-4.19,0.235-5.572,0.305c-1.31,0.07-3.837,0.188-5.477,0.235
			c-2.387,0.069-3.44-0.727-3.908-1.125c-0.142-0.117,0-0.117,0-0.117c1.614-0.092,4.799-0.396,4.799-0.396l6.717-0.375
			C457.815,422.871,459.173,424.461,459.173,424.461z"/>
	</g>
	<g>
		<path fill="#179665" d="M358.422,335.601c2.059,0.726,2.691-0.28,3.019-1.193c0.235-0.655,0.422,0.258,0.422,0.258
			s-0.233,0.679-0.07,0.889c0.07,0.234,0.469,0.516,1.124,0.516c0.516,0,0.679-0.281,0.679-0.281s-0.163,0,0-0.679
			c0.14-0.562,0.796-1.334,0.796-1.334v0.89c0.14,1.123,1.333,1.123,2.668,1.123v2.996c-0.655,0.023-2.528,0-3.136-0.912
			c0,0-0.491,0.912-1.451,0.912c-1.101,0-1.405-0.444-1.639-0.444c0,0-0.937,1.03-1.851,0.211c0.211,1.171,0.211,1.615,0.211,1.615
			s-0.14,2.247-1.076,3.51c-1.592,2.154-5.665,2.201-5.665,2.201c-6.53,0.14-1.709-8.918-1.709-8.918s-2.785,5.852,1.92,5.712
			c3.816-0.118,4.963-1.803,4.963-1.803c-0.142-2.061-1.521-4.565-1.521-4.565c0.07-0.444,1.755-2.152,1.755-2.152
			C358.165,334.805,358.282,335.157,358.422,335.601z"/>
		<path fill="#179665" d="M368.341,335.415c0-1.967-0.187-5.595-0.187-5.595c-0.024-0.491-0.071-1.03-0.539-2.224
			c-0.585-1.498,1.593-3.23,1.593-3.23s-0.211,1.709,1.38,2.247c0,0-0.772,0.89-0.726,2.154c0.023,0.842,0.14,3.065,0.023,5.243
			c0.726-0.656,1.825-1.756,2.527-2.201c1.265-1.053,3.254-0.631,3.254-0.631s3.323,0.865,2.902,2.668
			c-0.28,1.193-0.749,1.942-0.749,1.942c0.679,0,1.381,0,1.381,0v2.996c0,0-8.637,0-12.78,0v-2.996c0.562,0,1.498,0,1.498,0
			S367.966,335.789,368.341,335.415z M376.042,335.344c0.468-0.585-1.124-1.077-1.124-1.077s-1.171-0.304-1.872-0.047
			c-0.889,0.188-2.926,1.686-2.926,1.686C374.99,336,376.042,335.344,376.042,335.344z"/>
		<path fill="#179665" d="M394.998,338.785c-0.982,0-2.552,0-3.651-0.726c0,0-0.117,0.374-0.374,0.726c0,0-3.277,0.982-3.887-1.217
			c0,0-0.258,1.592-2.808,1.592c-1.709,0-1.826-1.476-1.826-1.476s-0.96,1.101-3.863,1.101v-2.996c3.138,0,4.331-0.937,4.589-1.334
			c0.28-0.444,0.749-0.444,0.609-0.094c-0.282,0.749-0.235,0.983-0.235,0.983s0.117,0.608,1.218,0.608
			c1.942,0,2.926-1.545,3.159-1.873c0.188-0.257,0.492-0.163,0.492-0.163s-0.14,0.608-0.14,0.726
			c-0.118,0.749,0.444,1.123,1.31,1.123c0.491,0,1.265-0.093,1.265-0.093s0-0.234,0-0.609c0-0.374,0.725-1.451,0.725-1.451
			c0.117,1.826,1.85,2.177,3.418,2.177V338.785z"/>
		<path fill="#179665" d="M397.405,335.742c-1.101-1.264-1.171-1.966-1.171-1.966s0.375-4.003,4.541-4.167
			c2.809-0.116,4.189,2.833,4.189,2.833s-3.933-1.779-6.18,0.351c0,0,0.937,1.568,2.575,2.131c0.819,0.28,2.435,0.163,2.435,0.163
			l1.803-0.094l-0.773,2.927c0,0-3.09,0.327-4.096,0.491c-0.609,0.094-3.207,0.374-6.156,0.374v-2.996
			C395.789,335.789,397.405,335.742,397.405,335.742z M398.036,326.379l1.592-1.592l1.662,1.639l-1.615,1.592L398.036,326.379z"/>
		<path fill="#179665" d="M409.221,321.346c0,0-2.458,0.328-0.727,0.913c1.662,0.585,2.458,0.164,2.88,0.141
			c0.374-0.094,0.047,0.305,0.047,0.305l-0.469,0.585c0,0-0.233,0.304-0.538,0.421c-1.92,0.422-3.021,1.498-3.113,1.521
			c-0.117,0.047-0.234,0.141-0.257-0.023c0-0.351,0.889-1.498,0.889-1.498c0-0.117-0.539-0.187-0.539-0.187
			s-1.474-0.023-0.749-1.265c1.078-1.802,2.996-2.34,3.396-2.2c0.421,0.07,0.679,0.422,0.679,0.422l-1.147,0.96L409.221,321.346z
			 M410.368,324.881c0.069,2.785,0.141,4.213,0.211,5.594c0.069,1.311,0.094,3.395,0.141,5.033c0.046,1.942-1.265,3.51-1.663,3.979
			c-0.117,0.141-0.117,0-0.117,0c-0.094-1.614-0.233-4.541-0.233-4.541l-0.141-6.53
			C408.518,326.333,410.368,324.881,410.368,324.881z"/>
		<path fill="#179665" d="M418.882,341.429l9.06-16.853h3.112l-9.151,16.853H418.882z"/>
		<path fill="#179665" d="M453.825,334.314c-0.118,1.896-1.125,3.605-1.125,3.605c-1.005,0.258-5.523,1.334-9.058,1.31
			c-3.721-0.047-5.781-1.1-5.734-3.159c0.047-2.014,1.614-4.026,1.731-4.284c0.141-0.304,0.492-0.562,0.492-0.562
			c-2.785,4.33,1.615,4.893,4.026,4.939c2.738,0.047,8.004-0.843,8.004-1.147c0-0.397-0.678-2.013-0.678-2.013
			c0.211-0.796,1.474-2.411,1.474-2.411S453.917,332.769,453.825,334.314z M443.947,342.718l1.592-1.593l1.662,1.638l-1.615,1.593
			L443.947,342.718z"/>
		<path fill="#179665" d="M459.787,321.581c0,0-0.211,2.692-3.229,2.762c-1.476,0.023-2.014,0.328-2.318,0.609
			c0.305-0.281,0.68-2.949,2.856-2.833C458.71,322.19,459.787,321.581,459.787,321.581z M458.008,324.881
			c0.069,2.785,0.141,4.213,0.211,5.594c0.069,1.311,0.094,3.395,0.141,5.033c0.046,1.942-1.265,3.51-1.663,3.979
			c-0.117,0.141-0.117,0-0.117,0c-0.094-1.614-0.233-4.541-0.233-4.541l-0.141-6.53
			C456.159,326.333,458.008,324.881,458.008,324.881z"/>
	</g>
	<g>
		<path fill="#737996" d="M421.53,287.446l1.801-4.097c0.469,0.819,2.364,1.966,4.144,1.966c3.371,0,3.464-2.013,3.558-2.013
			c0,0,3.559,6.25-3.862,5.501c0,0,1.193,3.464-1.006,9.035l-0.095-0.023C425.297,290.301,421.53,287.446,421.53,287.446z"/>
		<path fill="#737996" d="M437.536,295.17l-2.996-2.996l2.996-2.996l2.996,2.996L437.536,295.17z"/>
		<path fill="#737996" d="M446.053,297.721c0.28-5.665-3.254-10.346-3.254-10.346l1.896-4.12c0,0,5.806,7.046,1.428,14.349
			L446.053,297.721z"/>
		<path fill="#737996" d="M454.079,284.824c1.989,0,4.423,3.067,4.354,8.146c-0.094,5.336-8.614,5.711-8.497,0.351
			C450.052,288.522,452.44,284.824,454.079,284.824z M451.808,291.893c0.116,1.1,3.955,1.007,4.61-0.234
			c0.516-0.982-1.029-3.675-2.434-3.675C452.698,287.984,451.644,290.395,451.808,291.893z"/>
	</g>
</g>
</svg>
