<?xml version="1.0" encoding="utf-8"?>
<!-- Generator: Adobe Illustrator 14.0.0, SVG Export Plug-In . SVG Version: 6.00 Build 43363)  -->
<!DOCTYPE svg PUBLIC "-//W3C//DTD SVG 1.1//EN" "http://www.w3.org/Graphics/SVG/1.1/DTD/svg11.dtd">
<svg version="1.1" id="_x30_3-MSAITBEH" xmlns="http://www.w3.org/2000/svg" xmlns:xlink="http://www.w3.org/1999/xlink" x="0px"
	 y="0px" width="1796.922px" height="907.087px" viewBox="0 0 1796.922 907.087" enable-background="new 0 0 1796.922 907.087"
	 xml:space="preserve">
<path opacity="0.9" fill="#4B438C" d="M1141.106,478.175l-1.678-0.453l-8.217-2.584l-1.145-0.355
	c-0.27-0.086-0.484-0.275-0.613-0.533c-0.115-0.25-0.135-0.545-0.037-0.795l2.053-5.34l1.26-3.295
	c0.203-0.527,0.785-0.783,1.305-0.588l6.768,2.584l2.645,0.777l11.812,1.984h3.135l1.557,0.711c0.488,0.227,0.723,0.789,0.531,1.285
	l-3.955,10.436c-0.195,0.502-0.74,0.764-1.256,0.605L1141.106,478.175z"/>
<path opacity="0.9" fill="#4B438C" d="M1137.567,488.462c-0.348-0.244-0.508-0.697-0.391-1.102l2.154-7.588
	c0.074-0.258,0.252-0.477,0.496-0.611c0.232-0.135,0.521-0.154,0.783-0.074l14.178,4.434c0.27,0.086,0.488,0.281,0.617,0.533
	c0.117,0.25,0.135,0.545,0.031,0.795l-2.535,6.688c-0.166,0.441-0.605,0.697-1.066,0.643l-6.777-0.783l-5.787-1.732
	L1137.567,488.462z"/>
<path opacity="0.9" fill="#4B438C" d="M1131.181,476.196l-2.449-0.777c-0.27-0.08-0.49-0.27-0.617-0.52
	c-0.117-0.252-0.123-0.539-0.031-0.809l3.49-9.111l0.178-0.473c0.129-0.318,0.08-0.68-0.123-0.955
	c-0.123-0.152-0.27-0.281-0.459-0.355l-8.021-2.865c-0.43-0.141-0.9,0.061-1.102,0.471c-0.143,0.502-0.295,0.998-0.473,1.482
	l-4.483,10.373l-2.438,5.781c-0.109,0.25-0.109,0.545,0.006,0.809c0.111,0.25,0.332,0.453,0.602,0.537l12.124,4.178l3.484,0.752
	l4.715,1.041c0.533,0.105,1.055-0.195,1.195-0.717l1.574-5.559c0.152-0.521-0.143-1.078-0.662-1.244L1131.181,476.196z"/>
<path opacity="0.9" fill="#4B438C" d="M1096.858,476.987l-6.338-1.66c-0.289-0.074-0.521-0.27-0.656-0.527
	c-0.129-0.27-0.135-0.574-0.023-0.844l6.424-15.225c0.201-0.459,0.703-0.715,1.193-0.588l4.311,1.127
	c0.533,0.148,0.852,0.674,0.734,1.207l-2.424,11.029l-2.033,4.887C1097.856,476.853,1097.348,477.103,1096.858,476.987z"/>
<path opacity="0.9" fill="#4B438C" d="M1111.622,480.771l-10.055-2.553l-1.734-0.453c-0.287-0.08-0.525-0.27-0.66-0.539
	c-0.123-0.258-0.135-0.564-0.025-0.832l1.904-4.574l2.42-11.004c0.055-0.27,0.227-0.498,0.459-0.65
	c0.238-0.141,0.514-0.184,0.783-0.117l13.877,3.639c0.289,0.074,0.521,0.27,0.656,0.539c0.129,0.27,0.135,0.568,0.018,0.852
	l-3.104,7.176l-3.35,7.924C1112.614,480.642,1112.106,480.894,1111.622,480.771z"/>
<path opacity="0.9" fill="#4B438C" d="M1091.083,465.419l-8.115,19.191c-0.037,0.08-0.135,0.123-0.221,0.092
	c-0.084-0.043-0.127-0.135-0.092-0.227l8.115-19.191c0.037-0.086,0.135-0.129,0.221-0.086
	C1091.083,465.235,1091.12,465.333,1091.083,465.419z"/>
<path opacity="0.9" fill="#4B438C" d="M1084.002,457.03l0.748-2.186l6.418,1.665c0.287,0.068,0.521,0.27,0.656,0.533
	c0.127,0.258,0.135,0.57,0.018,0.84l-3.189,7.568c-0.123,0.27-0.35,0.49-0.631,0.576c-0.289,0.086-0.602,0.049-0.852-0.117
	l-0.459-0.287c-0.387-0.252-0.564-0.717-0.43-1.152l0.912-2.994c0.295-0.955-0.152-1.984-1.053-2.426l-1.619-0.789
	C1084.057,458.04,1083.831,457.515,1084.002,457.03z"/>
<path opacity="0.9" fill="#4B438C" d="M1078.149,450.696l3.393-5.266c0.227-0.348,0.631-0.525,1.035-0.459l12.449,2.193
	c0.301,0.061,0.564,0.244,0.711,0.52c0.146,0.27,0.166,0.588,0.043,0.875l-2.738,6.487c-0.201,0.471-0.703,0.717-1.193,0.588
	l-13.1-3.399c-0.324-0.086-0.576-0.307-0.691-0.605C1077.928,451.323,1077.971,450.967,1078.149,450.696z"/>
<path opacity="0.9" fill="#4B438C" d="M1067.573,447.047l3.999-5.627c0.251-0.367,0.723-0.521,1.158-0.381l7.33,2.48
	c0.307,0.098,0.533,0.324,0.643,0.631c0.098,0.281,0.057,0.619-0.109,0.875l-3.932,6.107c-0.264,0.41-0.777,0.574-1.23,0.391
	l-7.404-2.945c-0.282-0.117-0.502-0.355-0.594-0.656C1067.347,447.618,1067.396,447.297,1067.573,447.047z"/>
<path opacity="0.9" fill="#4B438C" d="M1069.196,485.308l0.49-6.324c0.043-0.496,0.447-0.9,0.943-0.938l11.42-0.74
	c0.35-0.031,0.686,0.135,0.9,0.422c0.201,0.287,0.244,0.654,0.098,0.98l-3.98,9.441c-0.201,0.473-0.723,0.729-1.219,0.576
	l-7.923-2.377C1069.459,486.214,1069.166,485.78,1069.196,485.308z"/>
<path opacity="0.9" fill="#4B438C" d="M1060.256,458.144l5.138-8.604c0.263-0.422,0.784-0.605,1.243-0.422l7.648,3.049
	c0.294,0.117,0.514,0.35,0.601,0.656c0.092,0.301,0.03,0.637-0.166,0.895l-6.117,8.266c-0.282,0.381-0.778,0.521-1.207,0.338
	l-6.65-2.719c-0.275-0.111-0.49-0.338-0.582-0.619S1060.103,458.396,1060.256,458.144z"/>
<path opacity="0.9" fill="#4B438C" d="M1062.16,472.388l5.793-7.826c0.294-0.391,0.814-0.525,1.255-0.305l2.97,1.414
	c0.214,0.104,0.465,0.018,0.563-0.203c0.104-0.201,0.012-0.453-0.19-0.557l-2.468-1.176c-0.282-0.135-0.484-0.373-0.557-0.674
	c-0.074-0.293-0.006-0.605,0.171-0.852l6.405-8.647c0.228-0.318,0.626-0.471,1.011-0.385l5.541,1.107
	c0.283,0.049,0.527,0.24,0.674,0.49c0.148,0.252,0.178,0.557,0.08,0.833l-0.367,1.084c-0.344,1.029,0.158,2.145,1.15,2.549
	c-0.029-0.02-0.072-0.037-0.115-0.062l1.617,0.791c0.453,0.221,0.674,0.734,0.533,1.207l-0.912,2.994
	c-0.27,0.875,0.086,1.812,0.852,2.309l0.893,0.574c0.424,0.27,0.582,0.791,0.387,1.244l-3.064,7.273
	c-0.152,0.355-0.488,0.588-0.869,0.619l-13.41,0.883l-7.52-3.137c-0.288-0.115-0.508-0.367-0.594-0.674
	C1061.915,472.97,1061.977,472.646,1062.16,472.388z"/>
<path opacity="0.9" fill="#4B438C" d="M1055.026,468.2l3.68-7.33c0.239-0.473,0.802-0.674,1.298-0.479l5.97,2.449
	c0.288,0.117,0.502,0.361,0.588,0.668c0.086,0.295,0.024,0.625-0.159,0.875l-4.917,6.645c-0.27,0.367-0.747,0.502-1.17,0.35
	l-4.739-1.775c-0.27-0.1-0.484-0.312-0.594-0.582C1054.886,468.751,1054.892,468.45,1055.026,468.2z"/>
<path opacity="0.9" fill="#4B438C" d="M1060.77,474.788c0.276-0.189,0.649-0.232,0.968-0.109l6.356,2.656
	c0.404,0.166,0.662,0.576,0.625,1.018l-0.478,6.215c-0.024,0.301-0.19,0.588-0.441,0.754c-0.251,0.17-0.569,0.221-0.863,0.135
	l-9.62-2.879c-0.483-0.152-0.79-0.625-0.716-1.127C1057.022,478.757,1058.523,476.351,1060.77,474.788z"/>
<path opacity="0.9" fill="#4B438C" d="M1052.424,468.903c0.502,0.238,1.096,0.037,1.341-0.459l3.999-7.961
	c0.147-0.27,0.153-0.588,0.024-0.857c-0.116-0.287-0.361-0.49-0.655-0.576l-6.197-1.738c-0.539-0.154-1.084,0.152-1.243,0.68
	l-1.207,3.943l0,0l0,0c-0.085,0.27-0.373,0.418-0.643,0.338c-0.257-0.086-0.411-0.361-0.337-0.631l1.188-3.883
	c0.08-0.264,0.055-0.539-0.08-0.785c-0.129-0.244-0.355-0.416-0.619-0.488l-13.931-3.915c-0.502-0.146-1.022,0.117-1.212,0.588
	l-2.29,5.616c-0.104,0.264-0.104,0.545,0.012,0.791c0.11,0.256,0.312,0.445,0.575,0.551l11.812,4.379L1052.424,468.903
	c0.502,0.238,1.096,0.037,1.341-0.459"/>
<path opacity="0.9" fill="#4B438C" d="M1056.637,456.437l1.354-5.12c0.08-0.289,0.27-0.521,0.539-0.65
	c0.264-0.135,0.576-0.143,0.845-0.037l2.266,0.963c0.27,0.115,0.478,0.336,0.569,0.625c0.086,0.275,0.049,0.588-0.098,0.838
	l-2.713,4.543c-0.429,0.545-1.182,0.748-1.825,0.479S1056.545,457.134,1056.637,456.437z"/>
<path opacity="0.9" fill="#4B438C" d="M1038.566,433.79l1.384-5.32c0.067-0.27,0.245-0.484,0.478-0.619
	c0.245-0.135,0.521-0.172,0.784-0.104l19.76,5.707c0.27,0.086,0.496,0.27,0.625,0.525c0.123,0.252,0.141,0.545,0.049,0.809
	c-0.631,1.697-1.219,3.398-1.751,5.133c-0.166,0.525-0.723,0.826-1.255,0.672l-19.375-5.572
	C1038.738,434.868,1038.426,434.329,1038.566,433.79z"/>
<path opacity="0.9" fill="#4B438C" d="M1037.066,442.479l1.01-5.572c0.055-0.287,0.221-0.539,0.465-0.691
	c0.245-0.146,0.539-0.184,0.814-0.105l18.983,5.445c0.539,0.158,0.851,0.717,0.698,1.254c-0.447,1.623-0.857,3.258-1.23,4.893
	c-0.062,0.27-0.227,0.504-0.466,0.637c-0.227,0.154-0.508,0.197-0.771,0.123l-18.75-4.807
	C1037.305,443.52,1036.975,443.012,1037.066,442.479z"/>
<path opacity="0.9" fill="#4B438C" d="M1034.133,450.428l1.739-5.254c0.16-0.504,0.698-0.797,1.213-0.662l19.289,4.959
	c0.263,0.068,0.49,0.234,0.625,0.461c0.135,0.238,0.178,0.514,0.11,0.777l-1.531,5.782c-0.067,0.258-0.245,0.484-0.484,0.619
	c-0.233,0.135-0.514,0.178-0.771,0.092l-6.044-1.691l-13.459-3.784c-0.269-0.086-0.496-0.258-0.618-0.502
	C1034.066,450.979,1034.035,450.69,1034.133,450.428z"/>
<path opacity="0.9" fill="#4B438C" d="M1062.454,435.53c0.11-0.289,0.343-0.527,0.643-0.619c0.294-0.092,0.612-0.049,0.875,0.129
	l6.516,4.342c0.227,0.152,0.379,0.396,0.428,0.666c0.049,0.27-0.006,0.545-0.171,0.766l-6.907,9.742
	c-0.27,0.4-0.784,0.535-1.225,0.344l-3.307-1.396c-0.453-0.184-0.71-0.674-0.6-1.15
	C1059.662,443.999,1060.911,439.711,1062.454,435.53z"/>
<path opacity="0.9" fill="#4B438C" d="M1073.819,438.86c1.47-1.658,2.718-3.484,3.748-5.438c0.215-0.385,0.648-0.605,1.096-0.52
	l5.193,1.016c0.324,0.061,0.582,0.27,0.73,0.564c0.133,0.287,0.133,0.623-0.02,0.912c-1.09,2.068-1.869,4.285-2.34,6.576
	c-0.061,0.281-0.238,0.527-0.49,0.68c-0.25,0.141-0.557,0.166-0.832,0.086l-6.645-2.242c-0.318-0.115-0.563-0.373-0.655-0.709
	C1073.519,439.467,1073.605,439.112,1073.819,438.86z"/>
<g>
	<path fill-rule="evenodd" clip-rule="evenodd" d="M298.417,212.521c-1.319-1.453-2.907-2.636-4.664-3.65
		c-1.221,1.212-2.216,2.651-3.245,4.056c-5.505,0.345-9.526-2.49-12.776-5.07c0.294-2.613,2.002-3.812,2.434-6.287
		c3.846-0.902,7.086,2.031,9.329,4.056c0.657-2.182,2.488-3.189,3.853-4.664c2.118-0.435,3.707,1.077,5.881,2.028
		c1.593,0.697,2.946,0.55,3.65,2.028C301.916,207.278,301.298,211.513,298.417,212.521z"/>
	<path fill-rule="evenodd" clip-rule="evenodd" fill="#FFFFFF" d="M311.802,216.982c0.319,1.292,0.274,2.636,0.203,3.853
		c-1.859-0.168-3.773-0.282-5.07-1.014C308.047,218.364,309.712,217.461,311.802,216.982z"/>
	<path fill-rule="evenodd" clip-rule="evenodd" fill="#FFFFFF" d="M373.859,231.381c-2.502,0.859-6.446,0.727-9.126,0.811
		C365.686,228.49,371.801,229.032,373.859,231.381z"/>
	<path fill-rule="evenodd" clip-rule="evenodd" fill="#FFFFFF" d="M408.132,234.828c0.432-0.84,3.896-3.422,5.679-3.245
		c0.411,0.041,2.052,1.094,2.028,1.623c-0.027,0.595-1.751,1.49-2.231,1.622C411.562,235.395,409.772,235.136,408.132,234.828z"/>
	<path fill-rule="evenodd" clip-rule="evenodd" fill="#FFFFFF" d="M254.815,161.82c79.836,0,159.669,0,239.507,0
		c-0.135,41.709,0.271,83.959-0.203,125.331c-79.836,0-159.669,0-239.507,0c0-41.574,0-83.148,0-124.722
		C254.595,162.141,254.579,161.854,254.815,161.82z M311.396,229.556c1.074,2.527,0.39,6.404,1.825,8.923
		c1.735,0.767,3.132,1.871,4.867,2.637c5.238,0.913,9.447-0.658,14.398-0.812c4.628-0.144,8.623,0.753,11.965-1.419
		c6.912,3.48,15.858,2.234,23.728,2.231c0.796,0.083,0.579,1.179,1.623,1.014c3.771-3.397,10.959,0.377,15.616-1.419
		c0.847,0.883,2.594,0.57,4.056,1.217c0.253,1.39-1.1,2.068-0.405,3.245c3.356,0.891,5.348-3.209,8.72-3.853
		c2.29-0.438,5.245-0.324,7.909-0.406c2.68-0.082,5.316,0.858,8.112,1.014c2.88,0.161,6.146-0.849,8.923-1.217
		c0.741-0.098,1.6,0.145,2.231,0c2.536-0.581,3.996-2.347,6.287-2.231c0.636,0.032,1.149,0.573,1.825,0.608
		c1.211,0.064,1.811-0.729,2.839-0.811c3.389,1.843,8.897,1.512,7.707-4.665c-1.523-3.291-4.367-5.116-6.896-8.314
		c-3.182-4.024-2.268-11.079-3.042-16.833c-0.436-3.244-1.735-10.825-3.853-12.371c-1.931-1.409-3.934,0.994-4.867,2.23
		c-0.884,1.171-2.275,2.92-2.434,3.854c-0.237,1.398,1.433,4.94,2.231,7.503c0.838,2.694,1.41,5.819,2.23,8.112
		c1.501,4.191,4.577,10.798,0,13.588c-0.685-4.52-2.611-7.799-6.084-9.532c-2.805-0.214-4.122,1.594-6.084,2.636
		c-4.583,2.435-10.574,4.212-14.602,7.504c-0.626,0.05-1.146,0.206-1.623,0.405c-1.018,0.875-2.034,1.752-3.447,2.231
		c-3.264-0.522-1.439-6.132-5.07-6.287c-2.066,0.717-2.755,3.853-5.07,3.65c0.434-7.502-4.785-8.57-8.315-11.763
		c-2.982-0.436-5.585,1.101-7.706,1.623c-2.833-8.536-2.354-19.138-6.287-26.567c-1.254,0.064-2.172-0.551-3.65-0.203
		c-0.756,1.25-0.543,1.368-1.419,2.231c-1.337,11.36,4.687,18.327,4.461,29.406c-0.555,0.928-1.714,1.525-2.839,2.636
		c-1.324,1.309-3.022,4.042-4.665,4.462c-0.892,0.228-3.954-0.24-4.867-0.608c-3.578-1.445-1.893-5.376-1.623-8.518
		c-4.534-1.821-6.069,3.872-7.098,7.503c-3.635,1.208-7.196,0.547-10.748,0.406c-2.05-0.082-3.498-0.117-6.084-0.608
		c-2.925-0.556-4.702-3.366-5.07-6.49c-0.083-0.704,0.261-2.2,0.203-2.839c-0.042-0.452-0.536-1.128-0.608-1.622
		c-0.348-2.353,0.438-5.026,0.405-7.707c-0.036-2.948-2.024-9.492-3.853-10.14c-2.287-0.81-4.82,3.968-4.461,6.692
		c-3.052,0.193-3.854,2.636-6.692,3.042c-3.177,2.569-8.493,3-11.763,5.476c-0.352,1.271-0.696,2.549-0.811,4.056
		C294.488,227.371,303.008,229.986,311.396,229.556z M444.027,208.059c1.263,3.68,2.545,6.87,4.056,10.343
		c1.311,3.013,2.427,5.64,2.839,9.329c0.144,1.29,0.735,3.258,0.608,4.867c-0.18,2.276-2.8,3.874-4.867,4.056
		c-1.6,0.141-2.12-0.796-2.839,0.203c-1.324,1.839,2.839,4.424,5.07,4.259c1.765-0.131,4.359-2.016,5.273-3.245
		c3.516-4.729,3.837-16.251,1.825-23.119c-0.618-2.11-1.342-3.927-2.028-6.084c-0.595-1.87-3.14-8.361-5.07-8.518
		c-1.53-0.124-3.728,2.645-4.259,3.448c-0.773,1.169-2.141,2.02-2.028,3.65C442.694,207.905,443.691,207.651,444.027,208.059z
		 M345.264,252.877c0.147-1.308,1.729-2.04,1.623-3.448c-0.115-1.516-5.104-5.694-7.301-4.259c0.061,3.008-3.876,3.189-4.056,5.476
		c-0.099,1.264,0.826,1.165,1.825,2.231c0.337,0.36,0.356,0.997,0.608,1.217c2.082,1.821,4.935,2.762,7.707,0.811
		C345.805,253.76,345.18,253.625,345.264,252.877z M376.698,249.633c0,0.271,0,0.541,0,0.811c-1.412,0.244-2.824,2.448-2.839,4.056
		c-0.024,2.524,5.216,5.99,7.301,5.881c1.971-0.103,2.34-2.215,4.259-2.839c2.01,1.235,3.846,2.643,6.895,2.839
		c1.377-1.597,3.421-2.527,3.65-5.272c-0.873-0.8-1.987-0.725-3.448-1.42c-2.66-1.267-5.536-4.661-7.706-4.461
		c-1.496,0.137-1.758,1.876-3.448,2.231C380.322,250.984,378.803,248.518,376.698,249.633z"/>
	<path fill-rule="evenodd" clip-rule="evenodd" fill="#4B438C" d="M291.522,222.458c0.115-1.507,0.459-2.785,0.811-4.056
		c3.27-2.476,8.586-2.906,11.763-5.476c2.838-0.406,3.641-2.849,6.692-3.042c-0.358-2.724,2.175-7.502,4.461-6.692
		c1.829,0.648,3.817,7.192,3.853,10.14c0.033,2.68-0.753,5.354-0.405,7.707c0.073,0.494,0.567,1.17,0.608,1.622
		c0.058,0.64-0.286,2.135-0.203,2.839c0.368,3.124,2.145,5.934,5.07,6.49c2.586,0.492,4.034,0.527,6.084,0.608
		c3.552,0.141,7.113,0.803,10.748-0.406c1.029-3.631,2.564-9.325,7.098-7.503c-0.271,3.141-1.956,7.072,1.623,8.518
		c0.913,0.369,3.976,0.836,4.867,0.608c1.643-0.42,3.34-3.153,4.665-4.462c1.125-1.111,2.284-1.708,2.839-2.636
		c0.225-11.079-5.799-18.045-4.461-29.406c0.876-0.863,0.663-0.981,1.419-2.231c1.478-0.349,2.396,0.267,3.65,0.203
		c3.934,7.429,3.454,18.031,6.287,26.567c2.121-0.522,4.724-2.059,7.706-1.623c3.53,3.193,8.749,4.261,8.315,11.763
		c2.314,0.202,3.003-2.934,5.07-3.65c3.631,0.154,1.807,5.765,5.07,6.287c1.414-0.479,2.43-1.355,3.447-2.231
		c0.476-0.2,0.997-0.355,1.623-0.405c4.027-3.292,10.019-5.069,14.602-7.504c1.962-1.042,3.279-2.85,6.084-2.636
		c3.473,1.732,5.399,5.012,6.084,9.532c4.577-2.79,1.501-9.396,0-13.588c-0.821-2.292-1.393-5.417-2.23-8.112
		c-0.798-2.563-2.468-6.105-2.231-7.503c0.158-0.933,1.55-2.683,2.434-3.854c0.933-1.236,2.937-3.639,4.867-2.23
		c2.118,1.545,3.417,9.127,3.853,12.371c0.774,5.754-0.14,12.808,3.042,16.833c2.529,3.199,5.373,5.024,6.896,8.314
		c1.19,6.177-4.318,6.508-7.707,4.665c-1.029,0.083-1.628,0.875-2.839,0.811c-0.676-0.035-1.189-0.576-1.825-0.608
		c-2.291-0.116-3.75,1.65-6.287,2.231c-0.631,0.145-1.49-0.098-2.231,0c-2.777,0.368-6.043,1.377-8.923,1.217
		c-2.796-0.156-5.432-1.096-8.112-1.014c-2.664,0.082-5.62-0.032-7.909,0.406c-3.372,0.644-5.364,4.744-8.72,3.853
		c-0.694-1.177,0.658-1.854,0.405-3.245c-1.462-0.646-3.208-0.333-4.056-1.217c-4.657,1.796-11.845-1.978-15.616,1.419
		c-1.043,0.165-0.826-0.931-1.623-1.014c-7.869,0.003-16.816,1.25-23.728-2.231c-3.343,2.172-7.337,1.276-11.965,1.419
		c-4.952,0.154-9.16,1.724-14.398,0.812c-1.735-0.766-3.132-1.87-4.867-2.637c-1.435-2.519-0.751-6.396-1.825-8.923
		C303.008,229.986,294.488,227.371,291.522,222.458z M306.935,219.821c1.297,0.731,3.211,0.845,5.07,1.014
		c0.071-1.217,0.116-2.561-0.203-3.853C309.712,217.461,308.047,218.364,306.935,219.821z M364.733,232.192
		c2.68-0.084,6.624,0.048,9.126-0.811C371.801,229.032,365.686,228.49,364.733,232.192z M413.607,234.828
		c0.479-0.132,2.204-1.027,2.231-1.622c0.024-0.528-1.617-1.582-2.028-1.623c-1.783-0.177-5.247,2.404-5.679,3.245
		C409.772,235.136,411.562,235.395,413.607,234.828z"/>
	<path fill-rule="evenodd" clip-rule="evenodd" fill="#4B438C" d="M442.608,207.248c-0.113-1.631,1.254-2.481,2.028-3.65
		c0.531-0.803,2.729-3.571,4.259-3.448c1.931,0.156,4.476,6.648,5.07,8.518c0.686,2.157,1.41,3.974,2.028,6.084
		c2.012,6.868,1.691,18.391-1.825,23.119c-0.914,1.229-3.508,3.114-5.273,3.245c-2.23,0.166-6.394-2.419-5.07-4.259
		c0.719-1,1.24-0.062,2.839-0.203c2.067-0.182,4.687-1.779,4.867-4.056c0.127-1.609-0.464-3.578-0.608-4.867
		c-0.412-3.689-1.528-6.316-2.839-9.329c-1.511-3.473-2.793-6.663-4.056-10.343C443.691,207.651,442.694,207.905,442.608,207.248z"
		/>
	<path fill-rule="evenodd" clip-rule="evenodd" fill="#4B438C" d="M345.669,254.905c-2.772,1.951-5.625,1.01-7.707-0.811
		c-0.252-0.22-0.271-0.857-0.608-1.217c-1-1.066-1.924-0.967-1.825-2.231c0.18-2.287,4.117-2.467,4.056-5.476
		c2.197-1.435,7.186,2.743,7.301,4.259c0.107,1.408-1.476,2.14-1.623,3.448C345.18,253.625,345.805,253.76,345.669,254.905z"/>
	<path fill-rule="evenodd" clip-rule="evenodd" fill="#4B438C" d="M381.362,251.458c1.689-0.354,1.952-2.094,3.448-2.231
		c2.17-0.199,5.046,3.195,7.706,4.461c1.46,0.695,2.575,0.62,3.448,1.42c-0.229,2.745-2.273,3.676-3.65,5.272
		c-3.049-0.196-4.885-1.604-6.895-2.839c-1.918,0.624-2.288,2.736-4.259,2.839c-2.085,0.109-7.325-3.356-7.301-5.881
		c0.015-1.608,1.427-3.812,2.839-4.056c0-0.271,0-0.541,0-0.811C378.803,248.518,380.322,250.984,381.362,251.458z"/>
</g>
<g>
	<path fill-rule="evenodd" clip-rule="evenodd" fill="#FFFFFF" d="M467.358,180.546c32.76,0,65.52,0,98.28,0
		c0,28.522,0,57.044,0,85.566c-32.875,0-65.75,0-98.624,0c0-28.178,0-56.357,0-84.535
		C466.985,181.089,466.958,180.604,467.358,180.546z M503.44,191.886c-11.644,9.407-19.5,12.94-21.306,29.209
		c-1.652,14.883,3.038,31.393,14.433,35.738c1.862,0.71,4.024,0.738,6.186,1.375c2.234,0.658,4.405,2.191,6.529,2.749
		c13.886,3.65,28.968-2.954,35.395-10.996c1.147-1.436,1.934-3.621,3.093-5.499c1.157-1.874,2.965-3.565,3.78-5.154
		c4.603-8.978,3.695-22.021-0.688-30.584c-4.578-8.943-11.355-14.492-19.587-18.556c-4.923-2.431-11.084-5.857-18.556-4.468
		C507.614,186.649,506.688,189.262,503.44,191.886z"/>
	<path fill-rule="evenodd" clip-rule="evenodd" fill="#4B438C" d="M512.719,185.7c7.472-1.389,13.633,2.037,18.556,4.468
		c8.232,4.064,15.009,9.613,19.587,18.556c4.383,8.562,5.29,21.606,0.688,30.584c-0.815,1.589-2.623,3.28-3.78,5.154
		c-1.159,1.878-1.945,4.062-3.093,5.499c-6.427,8.042-21.509,14.646-35.395,10.996c-2.124-0.558-4.295-2.091-6.529-2.749
		c-2.162-0.637-4.323-0.665-6.186-1.375c-11.395-4.345-16.085-20.855-14.433-35.738c1.806-16.269,9.662-19.803,21.306-29.209
		C506.688,189.262,507.614,186.649,512.719,185.7z M490.039,209.068c-6.007,11.683-3.733,34.069,5.154,40.893
		c2.439,1.873,5.469,1.743,8.591,2.749c6.243,2.011,11.584,4.185,17.526,3.78c7.355-0.5,16.922-5.096,20.618-9.965
		c3.592-4.732,7.475-11.434,8.248-16.838c1.826-12.785-5.522-21.489-10.653-27.491c-3.581-4.188-3.912-3.773-9.278-6.186
		c-2.255-1.014-4.344-2.962-6.186-3.437c-1.777-0.458-6.854-0.418-7.56-0.344C506.822,193.247,492.639,204.011,490.039,209.068z"/>
	<path fill-rule="evenodd" clip-rule="evenodd" fill="#FFFFFF" d="M516.499,192.229c0.706-0.074,5.783-0.114,7.56,0.344
		c1.842,0.474,3.93,2.422,6.186,3.437c5.367,2.413,5.698,1.997,9.278,6.186c5.131,6.001,12.479,14.706,10.653,27.491
		c-0.772,5.404-4.656,12.106-8.248,16.838c-3.696,4.869-13.263,9.465-20.618,9.965c-5.941,0.405-11.283-1.769-17.526-3.78
		c-3.122-1.006-6.151-0.876-8.591-2.749c-8.888-6.824-11.162-29.21-5.154-40.893C492.639,204.011,506.822,193.247,516.499,192.229z
		 M528.182,205.975c-5.175-2.225-19.062-1.678-18.556,4.811c4.02,0.984,10.115-2.551,15.463-0.344
		c2.4,2.64,4.357,5.723,4.467,10.653c-2.083,6.032-16.547,2.759-15.12,10.997c4.743,2.017,7.597-2.425,10.653-1.375
		c5.171,1.777,1.045,13.107-3.78,14.777c-2.229,0.771-4.496,0.227-7.216,0.687c-0.623-4.006-6.39-4.311-6.186,0
		c0.294,6.215,9.787,4.146,14.433,4.467c6.711-3.361,13.039-15.628,7.56-23.711C537.523,222.537,533.254,210.092,528.182,205.975z"
		/>
	<path fill-rule="evenodd" clip-rule="evenodd" fill="#4B438C" d="M529.9,226.937c5.479,8.083-0.849,20.35-7.56,23.711
		c-4.646-0.322-14.138,1.748-14.433-4.467c-0.205-4.311,5.562-4.006,6.186,0c2.721-0.46,4.987,0.084,7.216-0.687
		c4.825-1.669,8.951-13,3.78-14.777c-3.056-1.05-5.91,3.392-10.653,1.375c-1.427-8.237,13.037-4.965,15.12-10.997
		c-0.11-4.93-2.067-8.013-4.467-10.653c-5.349-2.208-11.443,1.328-15.463,0.344c-0.505-6.489,13.381-7.036,18.556-4.811
		C533.254,210.092,537.523,222.537,529.9,226.937z"/>
</g>
<g id="_x30_3-CALENDAR">
	<g>
		<path fill="#737996" d="M419.453,287.466l1.802-4.096c0.468,0.817,2.363,1.966,4.144,1.966c3.37,0,3.463-2.014,3.557-2.014
			c0,0,3.559,6.251-3.861,5.502c0,0,1.193,3.463-1.007,9.034l-0.094-0.023C423.221,290.322,419.453,287.466,419.453,287.466z"/>
		<path fill="#737996" d="M435.459,295.189l-2.996-2.996l2.996-2.996l2.996,2.996L435.459,295.189z"/>
		<path fill="#737996" d="M443.977,297.741c0.28-5.664-3.254-10.347-3.254-10.347l1.896-4.118c0,0,5.806,7.046,1.428,14.349
			L443.977,297.741z"/>
		<path fill="#737996" d="M452.003,284.844c1.989,0,4.423,3.066,4.353,8.147c-0.094,5.335-8.613,5.71-8.497,0.35
			C447.976,288.542,450.363,284.844,452.003,284.844z M449.731,291.913c0.116,1.101,3.956,1.007,4.61-0.235
			c0.516-0.982-1.029-3.674-2.434-3.674C450.621,288.004,449.567,290.415,449.731,291.913z"/>
	</g>
	<g>
		<path fill="#707173" d="M235.078,459.825v-15.48h4.16l2.98,10.806h0.042l3.002-10.806h4.204v15.48h-2.573v-12.18h-0.044
			l-3.473,12.18h-2.253l-3.43-12.18h-0.043v12.18H235.078z"/>
	</g>
	<g>
		<path fill="#707173" d="M281.93,444.321v2.488h-4.053v13.016h-2.959V446.81h-4.052v-2.488H281.93z"/>
	</g>
	<g>
		<path fill="#707173" d="M302.021,444.345h2.766l1.951,10.442h0.044l2.207-10.442h3.046l2.036,10.442h0.043l2.123-10.442h2.767
			l-3.216,15.48h-3.003l-2.252-11.022h-0.042l-2.23,11.022h-3.002L302.021,444.345z"/>
	</g>
	<g>
		<path fill="#707173" d="M350.18,444.321v2.488h-4.053v13.016h-2.959V446.81h-4.052v-2.488H350.18z"/>
	</g>
	<g>
		<path fill="#707173" d="M374.483,459.825v-15.48h9.864v2.485h-6.904v3.689h5.168v2.488h-5.168v6.817H374.483z"/>
	</g>
	<g>
		<path fill="#707173" d="M415.329,448.46c-0.45-1.201-1.372-2.016-2.766-2.016c-1.286,0-2.208,0.516-2.208,1.716
			c0,2.659,7.977,2.103,7.977,7.12c0,3.174-1.994,4.761-5.425,4.761c-2.531,0-4.91-1.417-5.79-3.667l2.445-1.073
			c0.707,1.46,1.628,2.425,3.365,2.425c1.48,0,2.616-0.559,2.616-2.06c0-3.044-7.977-2.445-7.977-7.206
			c0-2.765,2.315-4.331,4.996-4.331c2.488,0,4.546,1.244,5.468,3.496L415.329,448.46z"/>
	</g>
	<g>
		<path fill="#707173" d="M449.454,448.46c-0.45-1.201-1.372-2.016-2.766-2.016c-1.286,0-2.208,0.516-2.208,1.716
			c0,2.659,7.977,2.103,7.977,7.12c0,3.174-1.994,4.761-5.425,4.761c-2.531,0-4.91-1.417-5.79-3.667l2.445-1.073
			c0.707,1.46,1.628,2.425,3.365,2.425c1.48,0,2.616-0.559,2.616-2.06c0-3.044-7.977-2.445-7.977-7.206
			c0-2.765,2.315-4.331,4.996-4.331c2.488,0,4.546,1.244,5.468,3.496L449.454,448.46z"/>
	</g>
	<g>
		<path fill="#707173" d="M341.419,485.175v-1.328h2.68v-12.588l-2.979,0.299v-1.005c1.071-0.322,2.294-0.646,2.979-1.074h1.545
			v14.368h2.637v1.328H341.419z"/>
	</g>
	<g>
		<path fill="#707173" d="M383.691,485.175h-10.056v-1.63c2.68-5.424,8.448-5.746,8.448-9.905c0-1.803-1.157-2.831-3.13-2.831
			c-2.231,0-3.389,1.801-3.646,3.367l-1.522-0.343c0.494-2.146,1.759-4.354,5.21-4.354c2.532,0,4.718,1.46,4.718,4.118
			c0,4.718-6.775,6.003-8.448,10.25h8.427V485.175z"/>
	</g>
	<g>
		<path fill="#4B438C" d="M410.505,475.806c2.272,0,4.161-0.322,4.161-2.166c0-1.114-0.945-1.846-2.231-1.846
			c-1.308,0-2.187,0.731-2.959,1.544l-1.845-1.671c1.502-1.587,3.131-2.188,4.718-2.188c2.831,0,5.104,1.374,5.104,3.989
			c0,1.543-0.856,2.701-2.337,3.346c1.845,0.579,2.853,1.993,2.853,3.923c0,3.237-2.745,4.654-5.489,4.654
			c-2.188,0-4.396-1.03-5.468-3.004l2.229-1.264c0.751,1.264,1.78,1.952,3.261,1.952c1.372,0,2.68-0.838,2.68-2.339
			c0-2.528-2.81-2.615-4.675-2.615V475.806z"/>
	</g>
	<g>
		<path fill="#707173" d="M449.948,481.531v3.644h-1.544v-3.644h-7.119v-1.33l6.39-10.507h2.273v10.507h2.658v1.33H449.948z
			 M442.915,480.201h5.489v-8.877h-0.064L442.915,480.201z"/>
	</g>
	<g>
		<path fill="#707173" d="M246.463,496.372h-6.647l-0.386,4.954c1.008-0.922,2.079-1.265,3.174-1.265
			c2.573,0,4.954,1.757,4.954,5.233c0,2.358-1.416,5.446-5.361,5.446c-2.639,0-3.968-1.46-4.933-2.961l1.395-0.729
			c0.75,1.394,1.951,2.358,3.581,2.358c2.036,0,3.688-1.201,3.688-4.115c0-2.275-1.329-3.903-3.473-3.903
			c-1.502,0-2.639,0.899-3.261,2.336l-1.351-0.299l0.687-8.385h7.934V496.372z"/>
	</g>
	<g>
		<path fill="#707173" d="M280.159,497.037c-0.708-0.556-1.437-0.878-2.638-0.878c-2.444,0-4.717,2.016-4.761,6.475
			c0.943-0.985,2.102-1.844,4.246-1.844c2.316,0,4.653,1.63,4.653,4.975c0,3.303-2.423,4.977-4.996,4.977
			c-3.216,0-5.533-1.887-5.533-7.163c0-4.891,2.188-8.75,6.348-8.75c1.674,0,2.895,0.473,3.346,0.901L280.159,497.037z
			 M276.793,502.121c-1.888,0-3.86,1.543-3.988,3.301c0.085,2.188,1.5,3.988,3.73,3.988c2.188,0,3.495-1.5,3.495-3.603
			C280.03,503.405,278.422,502.121,276.793,502.121z"/>
	</g>
	<g>
		<path fill="#707173" d="M305.557,496.372v-1.328h9.821v0.942l-6.54,14.539h-1.802l6.369-14.153H305.557z"/>
	</g>
	<g>
		<path fill="#707173" d="M344.636,510.741c-3.796,0-5.641-1.887-5.641-4.246c0-1.973,1.545-3.346,3.389-4.204v-0.043
			c-1.716-0.643-2.745-1.95-2.745-3.561c0-2.528,2.145-3.859,4.997-3.859c2.852,0,4.995,1.331,4.995,3.859
			c0,1.61-1.029,2.918-2.744,3.561v0.043c1.845,0.665,3.389,2.103,3.389,4.204C350.275,508.854,348.431,510.741,344.636,510.741z
			 M344.636,509.41c2.809,0,4.009-1.544,4.009-2.915c0-1.803-1.843-2.704-4.288-3.519c-1.887,0.814-3.731,1.716-3.731,3.519
			C340.625,507.866,341.826,509.41,344.636,509.41z M344.636,496.159c-1.695,0-3.367,0.729-3.367,2.445
			c0,1.67,2.102,2.615,3.367,2.98c1.715-0.429,3.365-1.48,3.365-2.98C348.001,496.888,346.329,496.159,344.636,496.159z"/>
	</g>
	<g>
		<path fill="#707173" d="M375.008,508.532c0.707,0.556,1.436,0.878,2.637,0.878c2.445,0,4.568-2.186,4.761-6.475
			c-0.943,0.985-2.101,1.844-4.245,1.844c-2.315,0-4.654-1.63-4.654-4.975c0-3.303,2.424-4.977,4.997-4.977
			c3.217,0,5.532,1.887,5.532,7.163c0,4.891-2.187,8.75-6.348,8.75c-1.672,0-2.895-0.473-3.345-0.901L375.008,508.532z
			 M378.375,503.448c1.887,0,3.345-1.244,3.944-2.871c-0.042-2.702-1.458-4.418-3.688-4.418c-2.188,0-3.495,1.5-3.495,3.603
			C375.136,502.164,376.745,503.448,378.375,503.448z"/>
	</g>
	<g>
		<path fill="#4B438C" d="M403.03,510.525v-2.144h2.402v-10.679h-2.745v-1.801c1.416-0.065,2.658-0.386,3.367-1.074h2.165v13.554
			h2.38v2.144H403.03z"/>
		<path fill="#4B438C" d="M419.332,494.828c4.096,0,5.64,3.517,5.64,7.955c0,4.441-1.544,7.958-5.64,7.958
			c-4.095,0-5.641-3.517-5.641-7.958C413.691,498.345,415.237,494.828,419.332,494.828z M419.332,508.425
			c1.694,0,2.852-1.416,2.852-5.642c0-4.223-1.157-5.639-2.852-5.639s-2.853,1.416-2.853,5.639
			C416.479,507.009,417.638,508.425,419.332,508.425z"/>
	</g>
	<g>
		<path fill="#707173" d="M437.349,510.525v-1.328h2.68v-12.589l-2.979,0.3v-1.006c1.071-0.322,2.294-0.645,2.979-1.074h1.544
			v14.369h2.638v1.328H437.349z"/>
		<path fill="#707173" d="M450.24,510.525v-1.328h2.68v-12.589l-2.979,0.3v-1.006c1.072-0.322,2.294-0.645,2.979-1.074h1.546v14.369
			h2.637v1.328H450.24z"/>
	</g>
	<g>
		<path fill="#707173" d="M232.599,535.875v-1.328h2.68v-12.589l-2.979,0.3v-1.005c1.071-0.323,2.294-0.646,2.979-1.074h1.544
			v14.368h2.638v1.328H232.599z"/>
		<path fill="#707173" d="M253.639,535.875h-10.057v-1.63c2.681-5.424,8.449-5.746,8.449-9.905c0-1.803-1.158-2.831-3.131-2.831
			c-2.23,0-3.389,1.801-3.646,3.367l-1.521-0.343c0.493-2.146,1.758-4.354,5.21-4.354c2.531,0,4.718,1.46,4.718,4.118
			c0,4.718-6.775,6.002-8.449,10.25h8.428V535.875z"/>
	</g>
	<g>
		<path fill="#707173" d="M266.724,535.875v-1.328h2.68v-12.589l-2.979,0.3v-1.005c1.071-0.323,2.294-0.646,2.979-1.074h1.544
			v14.368h2.638v1.328H266.724z"/>
		<path fill="#707173" d="M278.265,532.188c1.18,1.587,2.637,2.572,4.245,2.572c2.273,0,3.646-1.158,3.646-3.002
			c0-2.165-1.287-3.473-4.375-3.473h-1.522v-1.331h0.922c3.088,0,4.418-0.985,4.418-2.895c0-1.566-1.352-2.552-2.831-2.552
			c-1.887,0-2.701,0.815-3.731,2.144l-1.266-0.856c1.052-1.46,2.51-2.617,4.997-2.617c2.745,0,4.46,1.417,4.46,3.859
			c0,1.866-1.201,2.96-2.402,3.433c2.445,0.942,2.96,2.701,2.96,4.116c0,2.638-2.037,4.504-5.275,4.504
			c-2.959,0-4.76-1.846-5.489-3.047L278.265,532.188z"/>
	</g>
	<g>
		<path fill="#707173" d="M300.849,535.875v-1.328h2.68v-12.589l-2.979,0.3v-1.005c1.071-0.323,2.294-0.646,2.979-1.074h1.544
			v14.368h2.638v1.328H300.849z"/>
		<path fill="#707173" d="M319.896,532.231v3.644h-1.544v-3.644h-7.12v-1.33l6.39-10.507h2.274v10.507h2.658v1.33H319.896z
			 M312.862,530.901h5.489v-8.877h-0.065L312.862,530.901z"/>
	</g>
	<g>
		<path fill="#707173" d="M334.974,535.875v-1.328h2.68v-12.589l-2.979,0.3v-1.005c1.071-0.323,2.294-0.646,2.979-1.074h1.544
			v14.368h2.638v1.328H334.974z"/>
		<path fill="#707173" d="M355.284,521.723h-6.646l-0.387,4.953c1.009-0.922,2.08-1.265,3.174-1.265
			c2.573,0,4.954,1.758,4.954,5.233c0,2.358-1.416,5.446-5.361,5.446c-2.638,0-3.967-1.46-4.932-2.961l1.394-0.729
			c0.75,1.395,1.951,2.359,3.581,2.359c2.036,0,3.688-1.201,3.688-4.116c0-2.275-1.329-3.902-3.474-3.902
			c-1.502,0-2.638,0.898-3.26,2.336l-1.352-0.3l0.688-8.384h7.933V521.723z"/>
	</g>
	<g>
		<path fill="#707173" d="M369.099,535.875v-1.328h2.68v-12.589l-2.979,0.3v-1.005c1.071-0.323,2.294-0.646,2.979-1.074h1.544
			v14.368h2.638v1.328H369.099z"/>
		<path fill="#707173" d="M388.98,522.388c-0.707-0.557-1.436-0.879-2.637-0.879c-2.445,0-4.718,2.017-4.761,6.475
			c0.943-0.985,2.101-1.843,4.245-1.843c2.317,0,4.654,1.63,4.654,4.974c0,3.304-2.424,4.977-4.997,4.977
			c-3.216,0-5.532-1.887-5.532-7.163c0-4.89,2.188-8.749,6.348-8.749c1.673,0,2.895,0.472,3.345,0.901L388.98,522.388z
			 M385.615,527.471c-1.888,0-3.861,1.544-3.989,3.301c0.085,2.188,1.501,3.989,3.731,3.989c2.188,0,3.495-1.501,3.495-3.604
			C388.853,528.756,387.244,527.471,385.615,527.471z"/>
	</g>
	<g>
		<path fill="#4B438C" d="M403.03,535.875v-2.143h2.402v-10.68h-2.745v-1.8c1.416-0.066,2.658-0.387,3.367-1.074h2.165v13.554h2.38
			v2.143H403.03z"/>
		<path fill="#4B438C" d="M414.036,520.395h10.614v1.607l-6.369,13.873h-3.066l6.262-13.079h-7.44V520.395z"/>
	</g>
	<g>
		<path fill="#4B438C" d="M437.155,535.875v-2.143h2.402v-10.68h-2.745v-1.8c1.416-0.066,2.658-0.387,3.367-1.074h2.165v13.554h2.38
			v2.143H437.155z"/>
		<path fill="#4B438C" d="M456.094,527.641c1.889,0.815,3.109,2.103,3.109,4.245c0,2.532-2.465,4.205-5.746,4.205
			s-5.747-1.673-5.747-4.205c0-2.143,1.223-3.43,3.109-4.245c-1.522-0.814-2.53-1.779-2.53-3.603c0-2.359,2.016-3.859,5.168-3.859
			s5.167,1.5,5.167,3.859C458.624,525.861,457.616,526.826,456.094,527.641z M456.417,531.693c0-1.395-2.467-2.809-3.152-2.809
			c-0.688,0-2.767,1.244-2.767,2.809c0,1.351,1.008,2.252,2.959,2.252S456.417,533.044,456.417,531.693z M451.077,524.081
			c0,1.417,1.587,2.358,2.38,2.358c0.794,0,2.38-1.244,2.38-2.358c0-1.028-0.643-1.757-2.401-1.757
			C451.721,522.324,451.077,523.053,451.077,524.081z"/>
	</g>
	<g>
		<path fill="#707173" d="M232.599,561.225v-1.327h2.68v-12.589l-2.979,0.3v-1.006c1.071-0.322,2.294-0.645,2.979-1.074h1.544
			v14.369h2.638v1.327H232.599z"/>
		<path fill="#707173" d="M244.955,559.231c0.707,0.557,1.436,0.879,2.637,0.879c2.444,0,4.567-2.187,4.761-6.475
			c-0.943,0.985-2.102,1.844-4.246,1.844c-2.315,0-4.653-1.631-4.653-4.975c0-3.303,2.423-4.977,4.996-4.977
			c3.218,0,5.533,1.887,5.533,7.163c0,4.89-2.188,8.749-6.348,8.749c-1.672,0-2.895-0.472-3.346-0.901L244.955,559.231z
			 M248.321,554.148c1.887,0,3.346-1.244,3.944-2.871c-0.042-2.702-1.457-4.418-3.688-4.418c-2.188,0-3.495,1.5-3.495,3.603
			C245.083,552.864,246.691,554.148,248.321,554.148z"/>
	</g>
	<g>
		<path fill="#707173" d="M274.871,561.225h-10.056v-1.63c2.68-5.423,8.448-5.746,8.448-9.904c0-1.803-1.157-2.831-3.131-2.831
			c-2.23,0-3.388,1.8-3.646,3.366l-1.522-0.343c0.493-2.146,1.759-4.354,5.21-4.354c2.532,0,4.718,1.46,4.718,4.118
			c0,4.718-6.775,6.003-8.448,10.251h8.427V561.225z"/>
		<path fill="#707173" d="M282.832,545.528c3.366,0,5.468,2.359,5.468,7.955c0,5.599-2.102,7.957-5.468,7.957
			s-5.468-2.358-5.468-7.957C277.364,547.888,279.466,545.528,282.832,545.528z M282.832,560.11c2.509,0,3.838-1.93,3.838-6.627
			c0-4.694-1.329-6.624-3.838-6.624c-2.51,0-3.839,1.93-3.839,6.624C278.993,558.181,280.322,560.11,282.832,560.11z"/>
	</g>
	<g>
		<path fill="#707173" d="M308.996,561.225H298.94v-1.63c2.68-5.423,8.448-5.746,8.448-9.904c0-1.803-1.157-2.831-3.131-2.831
			c-2.23,0-3.388,1.8-3.646,3.366l-1.522-0.343c0.493-2.146,1.759-4.354,5.21-4.354c2.532,0,4.718,1.46,4.718,4.118
			c0,4.718-6.775,6.003-8.448,10.251h8.427V561.225z"/>
		<path fill="#707173" d="M313.74,561.225v-1.327h2.68v-12.589l-2.979,0.3v-1.006c1.072-0.322,2.294-0.645,2.979-1.074h1.546v14.369
			h2.637v1.327H313.74z"/>
	</g>
	<g>
		<path fill="#707173" d="M343.121,561.225h-10.056v-1.63c2.68-5.423,8.448-5.746,8.448-9.904c0-1.803-1.157-2.831-3.131-2.831
			c-2.23,0-3.388,1.8-3.646,3.366l-1.522-0.343c0.493-2.146,1.759-4.354,5.21-4.354c2.532,0,4.718,1.46,4.718,4.118
			c0,4.718-6.775,6.003-8.448,10.251h8.427V561.225z"/>
		<path fill="#707173" d="M356.014,561.225h-10.057v-1.63c2.681-5.423,8.449-5.746,8.449-9.904c0-1.803-1.158-2.831-3.131-2.831
			c-2.23,0-3.389,1.8-3.646,3.366l-1.521-0.343c0.493-2.146,1.758-4.354,5.21-4.354c2.531,0,4.718,1.46,4.718,4.118
			c0,4.718-6.775,6.003-8.449,10.251h8.428V561.225z"/>
	</g>
	<g>
		<path fill="#707173" d="M377.246,561.225H367.19v-1.63c2.68-5.423,8.448-5.746,8.448-9.904c0-1.803-1.157-2.831-3.131-2.831
			c-2.23,0-3.388,1.8-3.646,3.366l-1.522-0.343c0.493-2.146,1.759-4.354,5.21-4.354c2.532,0,4.718,1.46,4.718,4.118
			c0,4.718-6.775,6.003-8.448,10.251h8.427V561.225z"/>
		<path fill="#707173" d="M380.64,557.538c1.18,1.587,2.637,2.572,4.245,2.572c2.273,0,3.646-1.158,3.646-3.001
			c0-2.166-1.287-3.474-4.375-3.474h-1.522v-1.33h0.922c3.088,0,4.418-0.985,4.418-2.895c0-1.567-1.352-2.552-2.831-2.552
			c-1.887,0-2.701,0.814-3.731,2.143l-1.266-0.855c1.052-1.46,2.51-2.618,4.997-2.618c2.745,0,4.46,1.417,4.46,3.859
			c0,1.866-1.201,2.961-2.402,3.433c2.445,0.942,2.96,2.702,2.96,4.116c0,2.638-2.037,4.504-5.275,4.504
			c-2.959,0-4.76-1.846-5.489-3.047L380.64,557.538z"/>
	</g>
	<g>
		<path fill="#707173" d="M411.371,561.225h-10.056v-1.63c2.68-5.423,8.448-5.746,8.448-9.904c0-1.803-1.157-2.831-3.131-2.831
			c-2.23,0-3.388,1.8-3.646,3.366l-1.522-0.343c0.493-2.146,1.759-4.354,5.21-4.354c2.532,0,4.718,1.46,4.718,4.118
			c0,4.718-6.775,6.003-8.448,10.251h8.427V561.225z"/>
		<path fill="#707173" d="M422.271,557.581v3.644h-1.544v-3.644h-7.12v-1.33l6.39-10.507h2.274v10.507h2.658v1.33H422.271z
			 M415.237,556.251h5.489v-8.877h-0.065L415.237,556.251z"/>
	</g>
	<g>
		<path fill="#707173" d="M445.496,561.225H435.44v-1.63c2.68-5.423,8.448-5.746,8.448-9.904c0-1.803-1.157-2.831-3.131-2.831
			c-2.23,0-3.388,1.8-3.646,3.366l-1.522-0.343c0.493-2.146,1.759-4.354,5.21-4.354c2.532,0,4.718,1.46,4.718,4.118
			c0,4.718-6.775,6.003-8.448,10.251h8.427V561.225z"/>
		<path fill="#707173" d="M457.659,547.072h-6.646l-0.387,4.954c1.009-0.922,2.08-1.265,3.174-1.265
			c2.573,0,4.954,1.757,4.954,5.232c0,2.359-1.416,5.446-5.361,5.446c-2.638,0-3.967-1.46-4.932-2.96l1.394-0.729
			c0.75,1.394,1.951,2.358,3.581,2.358c2.036,0,3.688-1.201,3.688-4.116c0-2.274-1.329-3.902-3.474-3.902
			c-1.502,0-2.638,0.899-3.26,2.336l-1.352-0.3l0.688-8.384h7.933V547.072z"/>
	</g>
	<g>
		<path fill="#707173" d="M240.746,586.575H230.69v-1.63c2.68-5.424,8.448-5.746,8.448-9.905c0-1.803-1.157-2.831-3.131-2.831
			c-2.23,0-3.388,1.8-3.646,3.367l-1.522-0.343c0.493-2.146,1.759-4.354,5.21-4.354c2.532,0,4.718,1.46,4.718,4.118
			c0,4.718-6.775,6.002-8.448,10.25h8.427V586.575z"/>
		<path fill="#707173" d="M252.48,573.088c-0.707-0.557-1.436-0.879-2.637-0.879c-2.445,0-4.718,2.016-4.761,6.475
			c0.943-0.985,2.101-1.844,4.245-1.844c2.317,0,4.654,1.631,4.654,4.975c0,3.303-2.424,4.977-4.997,4.977
			c-3.216,0-5.532-1.887-5.532-7.163c0-4.89,2.188-8.749,6.348-8.749c1.673,0,2.895,0.472,3.345,0.901L252.48,573.088z
			 M249.115,578.171c-1.888,0-3.861,1.544-3.989,3.301c0.085,2.188,1.501,3.988,3.731,3.988c2.188,0,3.495-1.5,3.495-3.603
			C252.353,579.455,250.744,578.171,249.115,578.171z"/>
	</g>
	<g>
		<path fill="#707173" d="M274.871,586.575h-10.056v-1.63c2.68-5.424,8.448-5.746,8.448-9.905c0-1.803-1.157-2.831-3.131-2.831
			c-2.23,0-3.388,1.8-3.646,3.367l-1.522-0.343c0.493-2.146,1.759-4.354,5.21-4.354c2.532,0,4.718,1.46,4.718,4.118
			c0,4.718-6.775,6.002-8.448,10.25h8.427V586.575z"/>
		<path fill="#707173" d="M277.879,572.422v-1.327h9.821v0.941l-6.541,14.539h-1.802l6.369-14.153H277.879z"/>
	</g>
	<g>
		<path fill="#707173" d="M308.996,586.575H298.94v-1.63c2.68-5.424,8.448-5.746,8.448-9.905c0-1.803-1.157-2.831-3.131-2.831
			c-2.23,0-3.388,1.8-3.646,3.367l-1.522-0.343c0.493-2.146,1.759-4.354,5.21-4.354c2.532,0,4.718,1.46,4.718,4.118
			c0,4.718-6.775,6.002-8.448,10.25h8.427V586.575z"/>
		<path fill="#707173" d="M316.957,586.791c-3.796,0-5.641-1.887-5.641-4.245c0-1.974,1.546-3.347,3.389-4.205v-0.043
			c-1.715-0.643-2.744-1.95-2.744-3.56c0-2.529,2.144-3.859,4.996-3.859c2.852,0,4.996,1.33,4.996,3.859
			c0,1.609-1.029,2.917-2.745,3.56v0.043c1.845,0.665,3.389,2.103,3.389,4.205C322.597,584.904,320.752,586.791,316.957,586.791z
			 M316.957,585.46c2.809,0,4.01-1.543,4.01-2.914c0-1.803-1.844-2.704-4.289-3.52c-1.886,0.815-3.73,1.717-3.73,3.52
			C312.947,583.917,314.147,585.46,316.957,585.46z M316.957,572.209c-1.694,0-3.366,0.729-3.366,2.445
			c0,1.671,2.101,2.615,3.366,2.98c1.716-0.429,3.366-1.48,3.366-2.98C320.323,572.938,318.651,572.209,316.957,572.209z"/>
	</g>
	<g>
		<path fill="#707173" d="M343.121,586.575h-10.056v-1.63c2.68-5.424,8.448-5.746,8.448-9.905c0-1.803-1.157-2.831-3.131-2.831
			c-2.23,0-3.388,1.8-3.646,3.367l-1.522-0.343c0.493-2.146,1.759-4.354,5.21-4.354c2.532,0,4.718,1.46,4.718,4.118
			c0,4.718-6.775,6.002-8.448,10.25h8.427V586.575z"/>
		<path fill="#707173" d="M347.33,584.582c0.707,0.556,1.436,0.878,2.637,0.878c2.444,0,4.567-2.186,4.761-6.475
			c-0.943,0.985-2.102,1.844-4.246,1.844c-2.315,0-4.653-1.63-4.653-4.974c0-3.304,2.423-4.977,4.996-4.977
			c3.218,0,5.533,1.886,5.533,7.162c0,4.891-2.188,8.75-6.348,8.75c-1.672,0-2.895-0.473-3.346-0.901L347.33,584.582z
			 M350.696,579.499c1.887,0,3.346-1.244,3.944-2.872c-0.042-2.701-1.457-4.418-3.688-4.418c-2.188,0-3.495,1.501-3.495,3.603
			C347.458,578.214,349.066,579.499,350.696,579.499z"/>
	</g>
	<g>
		<path fill="#707173" d="M367.747,582.889c1.18,1.587,2.638,2.571,4.246,2.571c2.273,0,3.646-1.157,3.646-3.001
			c0-2.166-1.287-3.474-4.375-3.474h-1.521v-1.33h0.922c3.087,0,4.418-0.985,4.418-2.895c0-1.566-1.353-2.552-2.831-2.552
			c-1.887,0-2.702,0.815-3.731,2.143l-1.266-0.855c1.051-1.46,2.51-2.617,4.997-2.617c2.744,0,4.459,1.416,4.459,3.859
			c0,1.866-1.2,2.96-2.401,3.433c2.445,0.941,2.959,2.701,2.959,4.115c0,2.639-2.036,4.505-5.274,4.505
			c-2.96,0-4.76-1.846-5.49-3.047L367.747,582.889z"/>
		<path fill="#707173" d="M385.207,570.879c3.366,0,5.468,2.358,5.468,7.954c0,5.599-2.102,7.958-5.468,7.958
			s-5.468-2.359-5.468-7.958C379.739,573.237,381.841,570.879,385.207,570.879z M385.207,585.46c2.509,0,3.838-1.93,3.838-6.627
			c0-4.694-1.329-6.624-3.838-6.624c-2.51,0-3.839,1.93-3.839,6.624C381.368,583.53,382.697,585.46,385.207,585.46z"/>
	</g>
	<g>
		<path fill="#707173" d="M401.872,582.889c1.18,1.587,2.638,2.571,4.246,2.571c2.273,0,3.646-1.157,3.646-3.001
			c0-2.166-1.287-3.474-4.375-3.474h-1.521v-1.33h0.922c3.087,0,4.418-0.985,4.418-2.895c0-1.566-1.353-2.552-2.831-2.552
			c-1.887,0-2.702,0.815-3.731,2.143l-1.266-0.855c1.051-1.46,2.51-2.617,4.997-2.617c2.744,0,4.459,1.416,4.459,3.859
			c0,1.866-1.2,2.96-2.401,3.433c2.445,0.941,2.959,2.701,2.959,4.115c0,2.639-2.036,4.505-5.274,4.505
			c-2.96,0-4.76-1.846-5.49-3.047L401.872,582.889z"/>
		<path fill="#707173" d="M416.115,586.575v-1.328h2.68v-12.589l-2.979,0.3v-1.006c1.072-0.322,2.294-0.645,2.979-1.073h1.546
			v14.368h2.637v1.328H416.115z"/>
	</g>
	<g>
		<path fill="#707173" d="M241.289,388.284c-0.749,0.304-1.614,0.117-1.614,0.117s-2.575-0.117-3.98-1.218
			c-1.965-1.545-2.082-7.49-2.082-7.49c-0.118-8.052,9.479-1.825,9.479-1.825c-4.05-1.826-6.812-2.131-6.812,2.105
			c0,3.887,1.545,6.999,1.545,6.999c3.441,0.142,6.016-1.567,6.016-1.567c0.702,0.069,2.295,1.193,2.295,1.193
			c-0.914,0.491-1.851,0.937-2.529,1.17c0,0.305,0,0.866,0,1.873h-2.317C241.289,388.962,241.289,388.917,241.289,388.284z
			 M246.416,378.195l1.381,1.429l-1.381,1.381l-1.382-1.381L246.416,378.195z"/>
		<path fill="#707173" d="M237.287,390.128l1.381,1.428l-1.381,1.382l-1.382-1.382L237.287,390.128z M237.287,392.938l1.381,1.428
			l-1.381,1.38l-1.382-1.38L237.287,392.938z M241.289,396.822c-0.022-2.106,0.492-3.838,2.178-4.143c0,0-1.171-0.538-1.709-1.077
			c-0.281-0.305-0.445-0.796-0.469-2.457h2.317c0.024,2.901,0.913,3.276,0.913,3.276s1.077,0.305,1.592,0.609
			c0.352,0.256,0.141,0.256,0.141,0.256c-1.614,0-2.646,1.288-2.646,3.535H241.289z"/>
		<path fill="#707173" d="M241.289,404.17c-0.022-2.106,0.492-3.838,2.178-4.143c0,0-1.171-0.538-1.709-1.076
			c-0.281-0.305-0.445-0.796-0.469-2.458h2.317c0.024,2.902,0.913,3.276,0.913,3.276s1.077,0.305,1.592,0.609
			c0.352,0.257,0.141,0.257,0.141,0.257c-1.614,0-2.646,1.287-2.646,3.534H241.289z M250.559,398.74l1.381,1.428l-1.381,1.381
			l-1.382-1.381L250.559,398.74z"/>
		<path fill="#707173" d="M243.606,403.676c0,3.02,0.141,3.512,0.141,3.512c0.749,0.117,2.505-1.545,2.505-1.545
			c0.233-0.071,2.294,0.936,2.294,0.936s-2.2,2.2-4.752,2.036c0,0-1.403-0.14-2.247-0.725c0,0-0.258-1.078-0.258-4.214H243.606z
			 M251.799,403.98l1.381,1.428l-1.381,1.381l-1.38-1.381L251.799,403.98z M251.823,406.789l1.381,1.428l-1.381,1.382l-1.382-1.382
			L251.823,406.789z M253.906,405.385l1.381,1.427l-1.381,1.382l-1.382-1.382L253.906,405.385z"/>
		<path fill="#707173" d="M238.809,412.452c0,0-0.305-2.014-0.772-0.632c-0.469,1.381-0.14,2.012-0.095,2.363
			c0.047,0.328-0.256,0.117-0.256,0.117l-0.469-0.469c0,0-0.258-0.163-0.327-0.444c-0.352-1.567-1.218-2.457-1.265-2.505
			c-0.047-0.116-0.094-0.163,0.047-0.233c0.233,0,1.218,0.749,1.218,0.749c0.069,0,0.116-0.468,0.116-0.468s0.023-1.171,1.03-0.586
			c1.498,0.891,1.872,2.482,1.825,2.785c-0.07,0.305-0.351,0.539-0.351,0.539l-0.82-0.959L238.809,412.452z M253.742,419.871
			c0,0-0.632-0.771-1.498-0.701c-2.2,0.188-3.956-0.164-5.314-0.702c-1.498,0.843-2.808,1.381-3.58,1.498
			c-0.445,0.069-2.247-0.351-2.247-0.351c-0.468-1.171-0.398-5.923-0.398-5.923c0.982-0.398,2.974,0,2.974,0
			c-0.235,0.164-0.211,0.516-0.211,0.516c1.193,1.404,2.13,2.247,2.902,2.762c2.153-1.311,3.301-2.575,3.581-2.927
			c1.1-1.357,0.89-1.474,0.89-1.474s-0.398-0.866,0.281-1.077c0.654-0.21,1.451-0.398,2.176-0.28c1.265,0.21,1.007,1.1,1.007,1.1
			c-1.568,2.153-3.932,4.05-6.109,5.431c1.498,0.328,3.44,0.023,3.44,0.023s0.843-0.142,1.358-0.422
			c1.124-0.632,2.364,1.124,2.364,1.124C253.671,418.655,253.742,419.871,253.742,419.871z M243.42,415.939l0.164,2.434
			c0.607-0.256,1.17-0.514,1.661-0.771C244.005,416.783,243.42,415.939,243.42,415.939z"/>
		<path fill="#707173" d="M255.287,424.012c-2.785,0.071-4.19,0.234-5.571,0.305c-1.311,0.069-3.838,0.188-5.478,0.233
			c-2.387,0.071-3.44-0.725-3.908-1.122c-0.142-0.118,0-0.118,0-0.118c1.614-0.093,4.799-0.397,4.799-0.397l6.717-0.375
			C253.929,422.421,255.287,424.012,255.287,424.012z"/>
	</g>
	<g>
		<path fill="#707173" d="M279.04,379.765c0,0-0.468-3.815-1.381-1.193c-0.938,2.645-0.328,3.861-0.211,4.517
			c0.047,0.608-0.491,0.235-0.491,0.235l-0.913-0.891c0,0-0.491-0.352-0.632-0.89c-0.727-2.972-2.317-4.681-2.411-4.798
			c-0.141-0.21-0.188-0.328,0.094-0.374c0.375,0,2.317,1.404,2.317,1.404c0.164,0,0.233-0.913,0.233-0.913s0.024-2.294,2.014-1.101
			c2.785,1.662,3.534,4.682,3.465,5.29c-0.164,0.632-0.704,1.029-0.704,1.029l-1.543-1.801L279.04,379.765z"/>
		<path fill="#707173" d="M274.99,390.107c0,0-0.211-4.167,2.996-4.261l9.27-0.256c0.491-0.024,1.686,1.334,1.686,1.334
			c-0.913,0-6.555,0.14-9.573,0.14c-2.271,0-2.061,3.043-2.061,3.043H274.99z"/>
		<path fill="#707173" d="M277.308,389.497c0,3.019,0.141,3.51,0.141,3.51c0.749,0.118,2.505-1.544,2.505-1.544
			c0.233-0.07,2.294,0.936,2.294,0.936s-2.2,2.2-4.752,2.037c0,0-1.404-0.14-2.247-0.726c0,0-0.258-1.076-0.258-4.213H277.308z
			 M285.5,389.802l1.381,1.427l-1.381,1.381l-1.38-1.381L285.5,389.802z M285.523,392.609l1.382,1.429l-1.382,1.381l-1.381-1.381
			L285.523,392.609z M287.607,391.205l1.381,1.429l-1.381,1.38l-1.382-1.38L287.607,391.205z"/>
		<path fill="#707173" d="M274.99,409.016c0,0-0.258-3.042,2.833-3.205c3.019-0.164,4.563-0.211,4.563-0.211
			s-8.356-1.031-7.841-7.326l0.211-2.575c1.615,7.841,8.895,9.269,8.895,9.269c3.019,0.469,4.214,0,4.892,0.304
			c0.702,0.469,0.679,0.938-0.491,1.007c0,0-4.845,0.491-8.146,0.516c-2.832,0.022-2.599,2.223-2.599,2.223H274.99z
			 M284.376,398.812c0,0-0.233-1.803,1.616-2.178c1.638-0.327,2.574-0.468,1.873,0.796c-0.68,1.545-2.342,2.974-4.145,3.862
			c-2.621,1.287-5.781,0.211-5.781,0.211S282.34,401.572,284.376,398.812z"/>
		<path fill="#707173" d="M274.99,416.339c-0.022-2.106,0.491-3.838,2.178-4.143c0,0-1.171-0.539-1.709-1.077
			c-0.282-0.305-0.445-0.796-0.469-2.458h2.317c0.023,2.902,0.912,3.277,0.912,3.277s1.078,0.305,1.593,0.609
			c0.352,0.256,0.141,0.256,0.141,0.256c-1.615,0-2.646,1.288-2.646,3.535H274.99z M283.838,409.505l1.381,1.427l-1.381,1.381
			l-1.38-1.381L283.838,409.505z M283.838,412.312l1.381,1.429l-1.381,1.381l-1.38-1.381L283.838,412.312z M286.296,410.908
			l1.381,1.429l-1.381,1.38l-1.382-1.38L286.296,410.908z"/>
		<path fill="#707173" d="M277.471,418.045c0.749,0.188,7.188-0.375,7.188-0.375c0.491-0.022,0.749-0.069,1.427-0.352
			c1.171-0.491,2.785,1.078,2.785,1.078s-1.731,0.093-2.176,1.521c0,0-0.469-0.843-1.733-0.771
			c-0.865,0.046-5.219,0.209-6.295,0.164c-1.218-0.048-2.436,0-3.465-0.773c0,0-0.188-1.382-0.188-2.551h2.294
			C277.308,417.412,277.471,418.045,277.471,418.045z"/>
		<path fill="#707173" d="M288.988,424.012c-2.785,0.071-4.19,0.234-5.572,0.305c-1.31,0.069-3.838,0.188-5.477,0.233
			c-2.387,0.071-3.44-0.725-3.909-1.122c-0.141-0.118,0-0.118,0-0.118c1.615-0.093,4.799-0.397,4.799-0.397l6.718-0.375
			C287.63,422.421,288.988,424.012,288.988,424.012z"/>
	</g>
	<g>
		<path fill="#707173" d="M312.741,376.185c0,0-0.469-3.815-1.381-1.193c-0.938,2.645-0.328,3.861-0.211,4.517
			c0.047,0.608-0.491,0.235-0.491,0.235l-0.913-0.891c0,0-0.491-0.352-0.632-0.89c-0.727-2.972-2.317-4.681-2.411-4.798
			c-0.141-0.21-0.188-0.328,0.094-0.374c0.375,0,2.317,1.404,2.317,1.404c0.163,0,0.233-0.913,0.233-0.913s0.024-2.294,2.014-1.101
			c2.785,1.662,3.534,4.682,3.464,5.29c-0.163,0.632-0.703,1.029-0.703,1.029l-1.544-1.801L312.741,376.185z"/>
		<path fill="#707173" d="M308.691,386.527c0,0-0.211-4.167,2.996-4.261l9.269-0.256c0.491-0.024,1.687,1.334,1.687,1.334
			c-0.913,0-6.555,0.14-9.574,0.14c-2.271,0-2.06,3.043-2.06,3.043H308.691z"/>
		<path fill="#707173" d="M308.691,394.297c0-1.265,0.352-2.763,1.381-3.559c0,0-1.381-1.498-1.381-4.846h2.317
			c-0.023,3.254,0.701,3.652,0.701,3.652c0.913-0.327,0.68-2.154,0.68-2.154s2.574,0.024,2.574,2.435
			c0,2.88-1.989,2.855-1.989,2.855l-1.265-0.796c-0.585,0.562-0.701,1.147-0.701,2.412H308.691z"/>
		<path fill="#707173" d="M305.298,394.716l1.38,1.428l-1.38,1.381l-1.381-1.381L305.298,394.716z M311.009,393.803
			c0,3.02,0.141,3.511,0.141,3.511c0.749,0.118,2.505-1.544,2.505-1.544c0.233-0.071,2.294,0.936,2.294,0.936s-2.2,2.2-4.752,2.036
			c0,0-1.404-0.14-2.247-0.725c0,0-0.258-1.076-0.258-4.214H311.009z"/>
		<path fill="#707173" d="M310.4,409.015c-1.942,0.047-5.665-1.521-6.203-4.283c-0.491-2.505,1.171-4.938,1.171-4.938
			c-0.516,1.848,0.397,3.627,0.654,4.212c0.492,1.101,3.021,4.237,4.12,4.05c1.054-0.187,1.896-1.567,2.225-1.896
			c0.233-0.234,2.668,0.725,2.668,0.725C313.513,409.015,311.196,408.991,310.4,409.015z"/>
		<path fill="#707173" d="M321.145,419.638c0,0-0.633-0.771-1.498-0.702c-2.2,0.188-3.956-0.163-5.314-0.702
			c-1.498,0.844-2.809,1.382-3.58,1.498c-0.445,0.07-2.247-0.35-2.247-0.35c-0.469-1.171-0.398-5.923-0.398-5.923
			c0.982-0.398,2.973,0,2.973,0c-0.234,0.164-0.21,0.516-0.21,0.516c1.193,1.404,2.13,2.247,2.901,2.761
			c2.153-1.31,3.301-2.574,3.582-2.926c1.099-1.357,0.89-1.474,0.89-1.474s-0.398-0.866,0.28-1.077
			c0.655-0.211,1.451-0.398,2.176-0.28c1.265,0.209,1.007,1.1,1.007,1.1c-1.567,2.153-3.932,4.05-6.108,5.431
			c1.498,0.328,3.44,0.023,3.44,0.023s0.843-0.142,1.358-0.422c1.123-0.632,2.363,1.123,2.363,1.123
			C321.073,418.422,321.145,419.638,321.145,419.638z M310.821,415.706l0.164,2.434c0.608-0.256,1.171-0.514,1.662-0.771
			C311.407,416.549,310.821,415.706,310.821,415.706z M325.545,411.681c0,0-0.375-2.411-0.938-0.749
			c-0.561,1.662-0.187,2.411-0.116,2.832c0.047,0.397-0.304,0.14-0.304,0.14l-0.562-0.561c0,0-0.305-0.188-0.397-0.539
			c-0.445-1.872-1.451-2.95-1.522-2.996c-0.047-0.141-0.094-0.188,0.071-0.281c0.28,0,1.451,0.89,1.451,0.89
			c0.093,0,0.14-0.562,0.14-0.562s0.024-1.404,1.24-0.702c1.803,1.054,2.247,2.996,2.201,3.348
			c-0.094,0.375-0.421,0.655-0.421,0.655l-0.984-1.146L325.545,411.681z"/>
		<path fill="#707173" d="M322.689,424.012c-2.785,0.071-4.19,0.234-5.572,0.305c-1.31,0.069-3.838,0.188-5.477,0.233
			c-2.387,0.071-3.44-0.725-3.909-1.122c-0.141-0.118,0-0.118,0-0.118c1.615-0.093,4.799-0.397,4.799-0.397l6.718-0.375
			C321.331,422.421,322.689,424.012,322.689,424.012z"/>
	</g>
	<g>
		<path fill="#707173" d="M344.899,375.461c-0.726,2.061,0.281,2.692,1.193,3.021c0.655,0.233-0.258,0.421-0.258,0.421
			s-0.678-0.234-0.889-0.071c-0.234,0.071-0.515,0.469-0.515,1.124c0,0.516,0.28,0.679,0.28,0.679s0-0.163,0.679,0
			c0.562,0.14,1.335,0.796,1.335,0.796h-0.891c-1.123,0.14-1.123,1.335-1.123,2.669h-2.317c-0.022-0.656,0-2.529,0.913-3.137
			c0,0-0.913-0.491-0.913-1.451c0-1.101,0.444-1.404,0.444-1.639c0,0-1.029-0.937-0.21-1.849c-1.17,0.211-1.615,0.211-1.615,0.211
			s-2.316-0.024-3.651-0.891c-2.083-1.356-2.061-5.384-2.061-5.384c-0.14-6.53,8.239-1.709,8.239-1.709s-5.851-2.785-5.71,1.92
			c0.117,3.816,1.802,4.962,1.802,4.962c2.061-0.141,5.313-1.614,5.313-1.614c0.444,0.069,1.779,1.287,1.779,1.287
			C346.07,375.11,345.344,375.321,344.899,375.461z"/>
		<path fill="#707173" d="M338.393,384.631l1.381,1.428l-1.381,1.382l-1.382-1.382L338.393,384.631z M338.393,387.44l1.381,1.428
			l-1.381,1.38l-1.382-1.38L338.393,387.44z M342.395,391.325c-0.022-2.106,0.492-3.838,2.178-4.143c0,0-1.171-0.538-1.709-1.077
			c-0.281-0.305-0.445-0.796-0.469-2.457h2.317c0.024,2.901,0.913,3.276,0.913,3.276s1.077,0.305,1.592,0.609
			c0.352,0.256,0.141,0.256,0.141,0.256c-1.614,0-2.646,1.288-2.646,3.535H342.395z"/>
		<path fill="#707173" d="M342.395,401.762c0-1.778,0.258-2.669,0.797-3.229l-1.522-0.633c2.201-2.435,2.061-3.745,2.061-3.745
			s-1.193-0.726-1.335-2.083c0,0,0-0.725,0-1.265h2.317c-0.07,2.95,1.101,3.254,1.101,3.254c2.949,1.054,2.598,4.283,2.598,4.283
			c-2.271-0.654-3.721,0.633-3.698,3.418H342.395z M344.665,397.432c0.796-0.444,1.872,0,1.872,0c0-1.077-1.193-1.779-1.193-1.779
			C345.344,396.659,344.665,397.432,344.665,397.432z"/>
		<path fill="#707173" d="M347.732,405.879c-0.071-0.655-0.235-1.193-0.656-1.731c-0.842-1.101,0.515-0.562,0.515-0.562
			s2.622,0.89,2.575,2.856c-0.07,2.505-1.475,4.424-1.873,6.226c-0.514,2.318-0.327,3.137-0.327,3.137l-2.622-0.749
			c0,0,0-1.545-0.094-2.271c-0.631-0.046-0.538,3.699-0.538,3.699h-2.317c-0.047-5.501,2.763-4.12,2.739-4.167
			c-0.211-0.82-0.679-1.451-1.124-2.505c-1.076-2.505-1.662-4.985-1.615-8.613h2.317c0.047,6.46,2.061,9.573,2.061,9.573
			S347.919,407.706,347.732,405.879z M353.278,408.595l1.382,1.428l-1.382,1.381l-1.38-1.381L353.278,408.595z"/>
		<path fill="#707173" d="M344.876,418.046c0.749,0.187,7.187-0.374,7.187-0.374c0.491-0.023,0.749-0.07,1.427-0.353
			c1.171-0.491,2.785,1.078,2.785,1.078s-1.731,0.093-2.176,1.521c0,0-0.469-0.844-1.732-0.772c-0.866,0.046-5.22,0.211-6.296,0.164
			c-1.218-0.047-2.435,0-3.465-0.773c0,0-0.188-1.381-0.188-2.552h2.294C344.712,417.414,344.876,418.046,344.876,418.046z"/>
		<path fill="#707173" d="M356.393,424.013c-2.785,0.071-4.19,0.235-5.571,0.305c-1.311,0.07-3.838,0.188-5.478,0.235
			c-2.387,0.069-3.44-0.727-3.908-1.125c-0.142-0.117,0-0.117,0-0.117c1.614-0.093,4.799-0.397,4.799-0.397l6.717-0.374
			C355.034,422.422,356.393,424.013,356.393,424.013z"/>
	</g>
	<g>
		<path fill="#707173" d="M379.235,376.419l-0.305-0.491c-0.164-4.752,0.843-4.144,0.843-4.144l2.364,0.984
			c1.825,1.919,2.902,4.189,2.902,4.189h0.516c0.585,0,1.638,1.123,1.638,1.123s-1.404,0.398-4.564,0.538
			c-3.721,0.142-4.236,1.733-4.214,4.94h-2.316c0-5.314,1.85-5.712,3.698-5.97c0.818-0.117,3.417-0.352,3.417-0.352
			c0-0.538-1.614-2.925-1.825-3.183c0,0-0.024-0.024-0.094,0.187c-0.07,0.211-0.211,1.967-0.211,3.254
			C381.084,377.496,380.195,377.238,379.235,376.419z M388.809,371.762l1.381,1.428l-1.381,1.382l-1.381-1.382L388.809,371.762z
			 M388.809,374.523l1.381,1.428l-1.381,1.381l-1.381-1.381L388.809,374.523z"/>
		<path fill="#707173" d="M376.099,391.326c0-1.265,0.352-2.763,1.381-3.559c0,0-1.381-1.498-1.381-4.846h2.316
			c-0.022,3.254,0.702,3.652,0.702,3.652c0.913-0.327,0.68-2.154,0.68-2.154s2.574,0.024,2.574,2.435
			c0,2.88-1.989,2.855-1.989,2.855l-1.265-0.796c-0.585,0.562-0.702,1.147-0.702,2.412H376.099z"/>
		<path fill="#707173" d="M376.099,401.762c0-1.778,0.258-2.669,0.796-3.229l-1.522-0.633c2.201-2.435,2.061-3.745,2.061-3.745
			s-1.193-0.726-1.334-2.083c0,0,0-0.725,0-1.265h2.316c-0.069,2.95,1.101,3.254,1.101,3.254c2.949,1.054,2.598,4.283,2.598,4.283
			c-2.27-0.654-3.721,0.633-3.698,3.418H376.099z M378.368,397.432c0.796-0.444,1.873,0,1.873,0c0-1.077-1.193-1.779-1.193-1.779
			C379.048,396.659,378.368,397.432,378.368,397.432z"/>
		<path fill="#707173" d="M373.079,408.244l1.381,1.427l-1.381,1.381l-1.381-1.381L373.079,408.244z M381.436,405.879
			c-0.071-0.655-0.234-1.193-0.656-1.731c-0.842-1.101,0.516-0.562,0.516-0.562s2.621,0.89,2.574,2.856
			c-0.069,2.505-1.474,4.424-1.872,6.226c-0.515,2.318-0.328,3.137-0.328,3.137l-2.621-0.749c0,0,0-1.545-0.094-2.271
			c-0.632-0.046-0.539,3.699-0.539,3.699h-2.316c-0.047-5.501,2.763-4.12,2.738-4.167c-0.211-0.82-0.678-1.451-1.124-2.505
			c-1.076-2.505-1.661-4.985-1.614-8.613h2.316c0.047,6.46,2.061,9.573,2.061,9.573S381.622,407.706,381.436,405.879z"/>
		<path fill="#707173" d="M378.579,418.046c0.749,0.187,7.187-0.374,7.187-0.374c0.491-0.023,0.749-0.07,1.428-0.353
			c1.17-0.491,2.785,1.078,2.785,1.078s-1.731,0.093-2.176,1.521c0,0-0.469-0.844-1.733-0.772c-0.866,0.046-5.219,0.211-6.296,0.164
			c-1.217-0.047-2.435,0-3.464-0.773c0,0-0.188-1.381-0.188-2.552h2.294C378.415,417.414,378.579,418.046,378.579,418.046z"/>
		<path fill="#707173" d="M390.097,424.013c-2.786,0.071-4.191,0.235-5.572,0.305c-1.311,0.07-3.838,0.188-5.477,0.235
			c-2.387,0.069-3.44-0.727-3.909-1.125c-0.141-0.117,0-0.117,0-0.117c1.615-0.093,4.799-0.397,4.799-0.397l6.717-0.374
			C388.738,422.422,390.097,424.013,390.097,424.013z"/>
	</g>
	<g>
		<path fill="#707173" d="M409.8,393.247c0-2.223,0.233-3.792,2.341-4.518c0,0-1.709-0.515-1.896-1.732c0,0-0.655-2.622-0.936-5.898
			c-0.353-3.979,0.468-9.269,6.835-5.29v0.047c-7.257-3.581-4.097,10.159-3.534,11.587c0.327,0.819,0.467,1.006,0.467,1.006
			s1.24,0.258,1.615,0.539c0.421,0.304,0.492,0.374,0.492,0.374c-2.879,0.492-3.067,1.896-3.067,3.886H409.8z M419.256,379.273
			l1.382,1.428l-1.382,1.38l-1.381-1.38L419.256,379.273z M419.326,382.081l1.381,1.429l-1.381,1.381l-1.382-1.381L419.326,382.081z
			"/>
		<path fill="#707173" d="M406.546,394.902l1.381,1.429l-1.381,1.381l-1.382-1.381L406.546,394.902z M409.8,400.473
			c-0.023-2.105,0.491-3.837,2.177-4.142c0,0-1.17-0.539-1.709-1.077c-0.281-0.305-0.445-0.796-0.468-2.458h2.316
			c0.024,2.902,0.913,3.277,0.913,3.277s1.078,0.305,1.592,0.609c0.352,0.256,0.141,0.256,0.141,0.256
			c-1.614,0-2.646,1.287-2.646,3.534H409.8z"/>
		<path fill="#707173" d="M409.8,416.365c0-0.982,0-2.552,0.726-3.651c0,0-0.374-0.117-0.726-0.374c0,0-0.983-3.277,1.217-3.887
			c0,0-1.592-0.258-1.592-2.808c0-1.709,1.476-1.826,1.476-1.826s-1.101-0.96-1.101-3.863h2.316c0,3.138,0.938,4.308,1.334,4.589
			c0.328,0.234,0.353,0.632,0,0.491c-0.749-0.281-0.982-0.234-0.982-0.234s-0.607,0.117-0.607,1.218c0,1.942,1.59,3.16,1.965,3.276
			c0.117,0.117,0.141,0.422,0.141,0.422s-0.607-0.141-0.726-0.141c-0.749-0.117-1.124,0.445-1.124,1.312
			c0,0.491,0.117,1.334,0.117,1.334s0.234,0,0.609,0c0.374,0,1.451,0.725,1.451,0.725c-1.826,0.117-2.178,1.85-2.178,3.418H409.8z"
			/>
		<path fill="#707173" d="M412.28,418.045c0.749,0.188,7.187-0.375,7.187-0.375c0.491-0.022,0.749-0.069,1.427-0.352
			c1.171-0.491,2.786,1.078,2.786,1.078s-1.732,0.093-2.177,1.521c0,0-0.468-0.843-1.732-0.771
			c-0.866,0.046-5.219,0.209-6.296,0.164c-1.218-0.048-2.435,0-3.465-0.773c0,0-0.188-1.382-0.188-2.551h2.294
			C412.116,417.412,412.28,418.045,412.28,418.045z"/>
		<path fill="#707173" d="M423.797,424.012c-2.785,0.071-4.19,0.234-5.571,0.305c-1.311,0.069-3.838,0.188-5.477,0.233
			c-2.387,0.071-3.44-0.725-3.909-1.122c-0.141-0.118,0-0.118,0-0.118c1.614-0.093,4.799-0.397,4.799-0.397l6.717-0.375
			C422.438,422.421,423.797,424.012,423.797,424.012z"/>
	</g>
	<g>
		<path fill="#707173" d="M451.881,390.903c0.538-0.047,1.685,1.265,1.685,1.265s-3.137,0.28-5.267,0.818
			c-2.341,0.586-2.481,1.476-2.481,2.738H443.5c-0.094-3.393,2.833-3.908,2.833-3.908c-1.101-0.258-1.592-0.515-1.592-0.515
			s-1.171-1.217-1.335-3.979c-0.163-2.925,2.294-2.738,3.534-2.224c-0.631-0.023-1.45,0.304-1.193,2.528
			c0.353,3.09,1.568,3.956,1.568,3.956C448.252,391.513,451.201,390.974,451.881,390.903z"/>
		<path fill="#707173" d="M446.777,404.008c1.381-2.06,1.661-3.722,1.661-4.494c0-0.397-0.187-1.193-0.491-1.568
			c-0.702-0.89,0.188-0.469,0.188-0.469s2.574,0.609,2.55,2.81c-0.022,1.989-1.567,4.073-2.294,5.501
			c-0.842,1.685-0.865,3.229-0.865,3.229l-2.809-1.101c0,0,0.304-2.247-0.258-4.728c-0.397-1.731-0.96-4.189-0.96-7.911h2.317
			C445.725,399.303,446.777,404.008,446.777,404.008z"/>
		<path fill="#707173" d="M455.953,419.64c0,0-0.632-0.772-1.498-0.702c-2.2,0.188-3.956-0.164-5.314-0.702
			c-1.498,0.843-2.808,1.381-3.58,1.498c-0.445,0.069-2.247-0.351-2.247-0.351c-0.468-1.171-0.398-5.923-0.398-5.923
			c0.982-0.398,2.974,0,2.974,0c-0.235,0.164-0.211,0.515-0.211,0.515c1.193,1.405,2.13,2.247,2.902,2.763
			c2.153-1.311,3.301-2.575,3.581-2.927c1.1-1.356,0.89-1.474,0.89-1.474s-0.398-0.866,0.281-1.076
			c0.654-0.211,1.451-0.399,2.176-0.282c1.265,0.211,1.007,1.101,1.007,1.101c-1.568,2.153-3.932,4.05-6.109,5.431
			c1.498,0.328,3.44,0.023,3.44,0.023s0.843-0.141,1.358-0.422c1.124-0.632,2.364,1.124,2.364,1.124
			C455.882,418.423,455.953,419.64,455.953,419.64z M445.631,415.707l0.164,2.435c0.607-0.257,1.17-0.515,1.661-0.772
			C446.216,416.551,445.631,415.707,445.631,415.707z M460.354,411.682c0,0-0.375-2.411-0.937-0.749s-0.188,2.411-0.117,2.832
			c0.047,0.397-0.304,0.14-0.304,0.14l-0.562-0.561c0,0-0.305-0.188-0.397-0.538c-0.445-1.873-1.45-2.949-1.521-2.996
			c-0.047-0.142-0.094-0.188,0.071-0.282c0.28,0,1.45,0.89,1.45,0.89c0.093,0,0.14-0.561,0.14-0.561s0.024-1.405,1.241-0.703
			c1.803,1.054,2.247,2.996,2.201,3.348c-0.094,0.374-0.422,0.654-0.422,0.654l-0.983-1.146L460.354,411.682z"/>
		<path fill="#707173" d="M457.498,424.013c-2.785,0.071-4.19,0.235-5.571,0.305c-1.311,0.07-3.838,0.188-5.478,0.235
			c-2.387,0.069-3.44-0.727-3.908-1.125c-0.142-0.117,0-0.117,0-0.117c1.614-0.093,4.799-0.397,4.799-0.397l6.717-0.374
			C456.14,422.422,457.498,424.013,457.498,424.013z"/>
	</g>
	<g>
		<path fill="#4B438C" d="M287.042,338.336c-1.381,0-1.85-0.094-1.85-0.094c-0.141,1.265-1.287,3.559-1.567,4.026
			c-0.516,0.866-1.733,2.551-4.214,2.831c-2.294,0.258-5.219-1.942-5.219-1.942s1.661,0.375,4.001-0.35
			c4.33-1.358,5.665-4.402,5.665-4.402s0.116,0-0.117-0.21c-0.982-0.889-1.193-1.24-1.639-1.942
			c-0.562-0.891,0.234-2.973,0.445-3.44c0.211-0.446,0.211,0,0.211,0s0.022,1.052,1.638,1.896c0.727,0.374,1.24,0.632,2.646,0.632
			V338.336z"/>
		<path fill="#4B438C" d="M286.382,335.34c3.021,0,3.676-0.14,3.676-0.14c-0.095-0.727-1.475-2.247-1.475-2.247
			c0.187-0.727,1.475-2.365,1.475-2.365s1.825,2.576,1.803,4.681c0,0-0.211,1.569-1.007,2.787c0,0-1.335,0.28-4.472,0.28V335.34z
			 M287.716,341.426l1.593-1.592l1.661,1.639l-1.614,1.591L287.716,341.426z"/>
		<path fill="#4B438C" d="M304.615,338.336c-0.258,0-0.938,0.022-1.405,0.022c0,0.211-0.117,0.749-0.164,0.96
			c-1.311,5.432-4.705,5.806-4.705,5.806c-4.165,0.422-6.576-1.756-6.576-1.756s0.678,0.188,2.364,0.188
			c2.55,0,6.904-3.278,7.255-5.198c-0.397,0,0.047-0.045-0.421,0c-3.885,0.399-3.324-2.738-3.324-2.738
			c0.211-2.059,1.335-3.416,2.225-4.003c1.31-0.865,2.691,1.404,2.691,1.404s0.562,0.984,0.796,2.341v-0.022c0,0,1.007,0,1.265,0
			V338.336z M300.377,335.434c0.142,0,0.422-0.022,0.704-0.022c0-0.049-0.024-0.259-0.164-0.493
			c-0.796-1.381-1.429,0.095-1.545,0.211C299.372,335.129,299.348,335.479,300.377,335.434z"/>
		<path fill="#4B438C" d="M311.586,338.336c-2.106,0.022-3.838-0.491-4.143-2.178c0,0-0.538,1.171-1.076,1.709
			c-0.305,0.281-0.796,0.446-2.458,0.469v-2.996c2.902-0.022,3.276-0.913,3.276-0.913s0.305-1.076,0.609-1.592
			c0.257-0.352,0.468-0.304,0.468-0.304c0,1.615,1.076,2.809,3.323,2.809V338.336z M304.588,328.856l1.591-1.592l1.662,1.639
			l-1.615,1.592L304.588,328.856z M307.959,328.926l1.591-1.592l1.662,1.639l-1.615,1.593L307.959,328.926z"/>
		<path fill="#4B438C" d="M316.851,334.941c-0.82-2.434-3.745-3.838-3.745-3.838c-1.663-0.656-1.288-2.083-1.288-2.083
			s0.468-1.826,1.077-2.107c2.949-1.404,7.865-2.621,7.865-2.621l-1.101,2.88c0,0-2.2,0.397-5.454,1.825
			c0,0,4.494,1.849,4.868,6.016l-1.123,2.785c0,0-3.418,0.585-6.835,0.538v-2.996C313.878,335.34,316.851,334.941,316.851,334.941z"
			/>
		<path fill="#4B438C" d="M323.684,320.897c0,0-2.458,0.328-0.727,0.913c1.662,0.585,2.458,0.164,2.88,0.141
			c0.374-0.094,0.047,0.305,0.047,0.305l-0.469,0.584c0,0-0.233,0.305-0.538,0.422c-1.92,0.421-3.021,1.498-3.113,1.521
			c-0.118,0.049-0.234,0.143-0.258-0.022c0-0.351,0.889-1.498,0.889-1.498c0-0.117-0.538-0.187-0.538-0.187
			s-1.474-0.024-0.749-1.265c1.078-1.802,2.996-2.34,3.395-2.2c0.422,0.071,0.68,0.422,0.68,0.422l-1.147,0.959L323.684,320.897z
			 M324.83,324.432c0.069,2.786,0.141,4.214,0.21,5.594c0.07,1.312,0.095,3.395,0.142,5.034c0.046,1.942-1.265,3.51-1.663,3.979
			c-0.117,0.141-0.117,0-0.117,0c-0.094-1.615-0.233-4.541-0.233-4.541l-0.141-6.53C322.98,325.883,324.83,324.432,324.83,324.432z"
			/>
		<path fill="#4B438C" d="M333.345,340.98l9.06-16.854h3.112l-9.152,16.854H333.345z"/>
		<path fill="#4B438C" d="M361.731,329.23c-0.023-0.492-0.023-0.703-0.233-2.036c-0.188-1.147,1.403-2.973,1.403-2.973
			s0.328,1.966,1.732,2.457c0,0-1.171,1.193-0.96,2.436l0.234,5.196c0,0,0.07,3.089-0.983,4.797c-1.615,2.599-6.625,2.74-6.625,2.74
			c-6.506-0.328-2.059-8.497-2.059-8.497c-1.382,3.229-0.749,5.617,2.505,5.523s5.501-2.036,5.501-2.036
			C362.714,334.896,361.731,329.23,361.731,329.23z"/>
		<path fill="#4B438C" d="M375.584,335.972c0,0-0.561,1.311-2.152,1.311c-2.458,0-2.178-2.855-2.178-2.855s-0.141-2.271,1.803-3.908
			c1.662-1.404,3.815,1.147,4.12,3.861c0,0,0.28,1.193-0.328,4.003c-0.445,2.083-2.154,5.126-4.846,5.641
			c-2.621,0.492-6.437-1.685-6.437-1.685s1.474,0.28,2.34,0.116C372.705,341.565,375.326,338.148,375.584,335.972z M374.063,333.515
			c-0.305,0-0.609,0.421-0.609,0.607c0,0.281,0.188,0.608,0.796,0.562c0.164,0,0.375-0.211,0.491-0.374
			C374.694,333.702,374.344,333.515,374.063,333.515z"/>
		<path fill="#4B438C" d="M380.402,321.296c0,0-2.411,0.374-0.749,0.936c1.662,0.562,2.411,0.188,2.832,0.117
			c0.398-0.047,0.141,0.305,0.141,0.305l-0.562,0.562c0,0-0.188,0.304-0.539,0.397c-1.872,0.444-2.949,1.451-2.996,1.521
			c-0.14,0.047-0.187,0.094-0.28-0.069c0-0.282,0.89-1.451,0.89-1.451c0-0.094-0.562-0.141-0.562-0.141s-1.403-0.023-0.701-1.241
			c1.054-1.801,2.996-2.247,3.346-2.199c0.375,0.094,0.656,0.421,0.656,0.421l-1.147,0.982L380.402,321.296z M388.501,325.813
			c0,0-0.959,0.233-0.772,1.919c0.188,1.709-0.069,3.207-0.491,4.378c0.68,1.054,1.264,2.176,1.685,3.323
			c0.164,0.422-0.538,2.949-0.538,2.949c-1.171,0.469-6.764,0.538-6.764,0.538c-0.399-0.982,0.187-3.675,0.187-3.675
			c0.163,0.233,0.515,0.211,0.515,0.211c1.686-0.749,2.575-1.709,3.091-2.598c-1.358-1.78-2.996-2.996-3.348-3.231
			c-0.937-0.607-1.732-0.561-1.732-0.561s-0.865,0.397-1.076-0.281c-0.211-0.656-0.235-1.732-0.117-2.457
			c0.21-1.265,1.1-1.007,1.1-1.007c1.101,0.258,3.698,2.316,5.876,5.196c0.14-1.265-0.024-2.458-0.024-2.458
			s0.047-0.938-0.233-1.404c-0.562-0.937,1.193-2.856,1.193-2.856C387.237,325.204,388.501,325.813,388.501,325.813z
			 M385.412,335.317l1.403-0.117c-0.163-0.376-0.327-0.727-0.538-1.054C385.81,334.896,385.412,335.317,385.412,335.317z"/>
		<path fill="#4B438C" d="M393.132,324.432c0.069,2.786,0.141,4.214,0.211,5.594c0.069,1.312,0.094,3.395,0.14,5.034
			c0.047,1.942-1.264,3.51-1.662,3.979c-0.117,0.141-0.117,0-0.117,0c-0.092-1.615-0.233-4.541-0.233-4.541l-0.141-6.53
			C391.282,325.883,393.132,324.432,393.132,324.432z"/>
		<path fill="#4B438C" d="M414.476,338.43c0.21,0.796,0.187,1.592,0.187,1.592s-0.023,2.293-1.124,3.417
			c-1.989,2.061-7.746,2.177-7.746,2.177c-8.053,0.117-1.897-9.598-1.897-9.598c-1.825,4.05-2.036,6.063,2.2,6.251
			c3.839,0.164,7.093-1.639,7.093-1.639c0-2.785-1.686-5.196-1.686-5.196c0.071-0.703,1.381-2.552,1.381-2.552
			c0.491,0.913,0.938,1.849,1.171,2.529c0.305,0,0.866,0,1.872,0v2.994C415.247,338.405,415.107,338.43,414.476,338.43z
			 M405.697,332.766l1.593-1.593l1.661,1.64l-1.616,1.591L405.697,332.766z"/>
		<path fill="#4B438C" d="M415.289,335.34c3.021,0,3.581-0.14,3.581-0.14c-0.093-0.727-1.193-2.247-1.193-2.247
			c0.188-0.727,1.287-2.365,1.287-2.365s1.826,2.576,1.803,4.681c0,0-0.163,1.616-1.007,2.787c0,0-1.334,0.28-4.471,0.28V335.34z
			 M415.663,342.059l1.593-1.593l1.661,1.638l-1.614,1.593L415.663,342.059z M418.964,342.128l1.593-1.592l1.661,1.639l-1.614,1.592
			L418.964,342.128z"/>
		<path fill="#4B438C" d="M435.137,338.336c-1.381,0-1.85-0.094-1.85-0.094c-0.14,1.265-1.287,3.559-1.568,4.026
			c-0.515,0.866-1.732,2.551-4.213,2.831c-2.294,0.258-5.221-1.942-5.221-1.942s1.663,0.375,4.003-0.35
			c4.33-1.358,5.665-4.402,5.665-4.402s0.116,0-0.117-0.21c-0.982-0.889-1.193-1.24-1.639-1.942
			c-0.562-0.891,0.234-2.973,0.445-3.44c0.211-0.446,0.211,0,0.211,0s0.022,1.052,1.638,1.896c0.726,0.374,1.24,0.632,2.646,0.632
			V338.336z"/>
		<path fill="#4B438C" d="M450.886,338.336c-0.983,0-2.552,0-3.651-0.727c0,0-0.117,0.375-0.375,0.727c0,0-3.276,0.982-3.886-1.218
			c0,0-0.258,1.592-2.809,1.592c-1.708,0-1.825-1.475-1.825-1.475s-0.96,1.101-3.863,1.101v-2.996c3.137,0,4.33-0.937,4.588-1.334
			c0.281-0.444,0.749-0.444,0.609-0.093c-0.281,0.749-0.234,0.982-0.234,0.982s0.116,0.608,1.217,0.608
			c1.942,0,2.927-1.545,3.16-1.873c0.188-0.258,0.491-0.164,0.491-0.164s-0.14,0.608-0.14,0.726
			c-0.118,0.749,0.444,1.125,1.311,1.125c0.491,0,1.265-0.095,1.265-0.095s0-0.233,0-0.609c0-0.373,0.725-1.449,0.725-1.449
			c0.117,1.825,1.85,2.176,3.418,2.176V338.336z M438.995,329.114l1.592-1.592l1.662,1.638l-1.616,1.592L438.995,329.114z
			 M440.493,326.445l1.592-1.592l1.662,1.638l-1.616,1.592L440.493,326.445z M442.318,329.16l1.592-1.591l1.662,1.639l-1.615,1.591
			L442.318,329.16z"/>
		<path fill="#4B438C" d="M450.342,335.34c3.021,0,3.581-0.14,3.581-0.14c-0.092-0.727-1.193-2.247-1.193-2.247
			c0.188-0.727,1.288-2.365,1.288-2.365s1.825,2.576,1.803,4.681c0,0-0.164,1.616-1.007,2.787c0,0-1.335,0.28-4.472,0.28V335.34z
			 M450.717,327.943l1.592-1.592l1.662,1.638l-1.615,1.592L450.717,327.943z M454.018,328.014l1.592-1.591l1.662,1.638l-1.615,1.592
			L454.018,328.014z"/>
	</g>
</g>
<path fill-rule="evenodd" clip-rule="evenodd" fill="#4B438C" d="M302.879,205.017c-0.704-1.478-2.058-1.331-3.65-2.028
	c-2.175-0.951-3.763-2.462-5.881-2.028c-1.365,1.475-3.196,2.482-3.853,4.664c-2.243-2.025-5.483-4.958-9.329-4.056
	c-0.431,2.475-2.139,3.674-2.434,6.287c3.25,2.58,7.271,5.415,12.776,5.07c1.029-1.405,2.024-2.843,3.245-4.056
	c1.757,1.015,3.345,2.198,4.664,3.65C301.298,211.513,301.916,207.278,302.879,205.017z"/>
</svg>
