<?xml version="1.0" encoding="utf-8"?>
<!-- Generator: Adobe Illustrator 16.0.0, SVG Export Plug-In . SVG Version: 6.00 Build 0)  -->
<!DOCTYPE svg PUBLIC "-//W3C//DTD SVG 1.1//EN" "http://www.w3.org/Graphics/SVG/1.1/DTD/svg11.dtd">
<svg version="1.1" id="Layer_1" xmlns="http://www.w3.org/2000/svg" xmlns:xlink="http://www.w3.org/1999/xlink" x="0px" y="0px"
	 width="600px" height="270px" viewBox="0 0 600 270" enable-background="new 0 0 600 270" xml:space="preserve">
<g>
	<g>
		<path fill="#FFFFFF" d="M15.536,295.201c0-102.167,0-204.334,0-306.564c210.961,0,421.96,0,632.946,0
			c0,102.198,0,204.381,0,306.564C437.503,295.201,226.539,295.201,15.536,295.201z M575.009,241.586
			c3.078,7.332,3.073,7.353,8.775,8.448c1.603,0.309,3.319,0.864,4.838,0.564c1.849-0.363,4.15-1.04,5.202-2.398
			c5.818-7.519,5.845-15.341,0.517-23.407c-4.925-7.455-11.813-7.574-16.646-0.091c-2.033,3.149-3.581,6.624-5.211,10.017
			c-1.069,2.229-2.493,3.673-5.131,3.67c-15.629-0.023-31.258-0.025-46.887-0.002c-2.462,0.003-3.498-1.046-3.432-3.56
			c0.119-4.497,0.033-8.998,0.033-13.512c-5.907,0.384-10.298,5.753-9.402,11.037c0.303,1.787,0.255,3.634,0.379,5.637
			c-3.606,0-7.051,0-10.576,0c0.412-4.105,0.814-7.752,1.131-11.406c0.162-1.878-0.871-3.082-2.536-1.976
			c-2.049,1.361-4.031,3.128-5.376,5.159c-1.316,1.99-1.721,4.567-2.689,6.816c-0.309,0.715-1.104,1.659-1.743,1.713
			c-2.414,0.202-4.855,0.081-7.719,0.081c0.334-2.766,0.717-4.972,0.815-7.191c0.045-1.007-0.198-2.316-0.84-2.957
			c-0.384-0.384-1.854,0.116-2.733,0.474c-3.034,1.233-4.375,3.896-5.255,6.79c-0.666,2.191-1.871,3-4.226,2.986
			c-16.244-0.092-32.49-0.023-48.735-0.074c-1.554-0.006-3.104-0.48-4.546-0.719c0.372-4.236,0.82-7.995,0.994-11.766
			c0.126-2.713-0.65-2.938-3.103-1.958c-4.815,1.923-6.505,5.945-7.274,10.494c-0.533,3.151-2.126,4.064-5.177,4.042
			c-16.039-0.119-32.08-0.054-48.12-0.084c-4.146-0.008-4.148-0.06-4.148-4.122c-0.001-9.858,0-19.718,0-30.209
			c-1.659,0.575-3.057,0.794-4.142,1.497c-1.71,1.11-3.349,2.413-4.745,3.893c-0.81,0.856-1.532,2.22-1.525,3.351
			c0.031,5.336,0.15,10.684,0.592,15.997c0.3,3.621,0.768,7.33,1.899,10.756c1.861,5.628,5.705,10.125,12.991,10.106
			c13.258-0.034,26.524,0.089,39.772,0.574c5.911,0.216,10.988-0.512,14.438-5.86c0.147-0.229,0.503-0.327,0.982-0.62
			c0.861,0.789,1.64,1.8,2.663,2.381c2.184,1.239,4.477,3.181,6.753,3.219c16.639,0.275,33.285,0.229,49.926,0.029
			c1.636-0.02,3.348-1.627,4.838-2.745c0.897-0.674,1.434-1.828,2.371-3.089c1.95,4.329,4.894,6.549,9.278,6.542
			c4.406-0.008,7.559-2.042,9.303-6.248c6.739,8.466,12.904,8.317,19.419-0.312c0.604,0.859,1.01,1.926,1.783,2.444
			c1.96,1.316,4.055,3.338,6.148,3.404c14.174,0.449,28.36,0.519,42.543,0.596C567.537,250.031,573.459,249.551,575.009,241.586z
			 M58.178,196.853c-0.287-0.303-0.574-0.605-0.862-0.908c-2.28,1.571-4.547,3.165-6.846,4.71c-1.773,1.19-2.417,2.731-2.319,4.923
			c0.335,7.482,0.154,15,0.794,22.45c0.414,4.821,1.528,9.676,3.042,14.28c1.478,4.496,4.992,7.11,9.969,7.312
			c3.591,0.146,7.179,0.478,10.77,0.496c12.539,0.069,25.078,0.122,37.615-0.023c2.542-0.03,3.394,0.747,4.093,3.151
			c2.898,9.979,8.139,13.8,17.532,13.685c2.943-0.035,4.659-1.207,5.57-3.814c1.474-4.222,2.89-8.465,4.383-12.852
			c0.729-0.035,1.536-0.098,2.344-0.107c17.673-0.204,35.347-0.362,53.018-0.668c1.72-0.03,4.205-0.422,4.997-1.57
			c2.989-4.327,5.519-8.986,7.997-13.641c0.556-1.044-0.312-3.13,0.375-3.771c2.83-2.637,1.384-5.194,0.458-7.901
			c-3.013-8.806-3.18-8.796-9.75-2.135c-1.616,1.64-1.836,3.01-1.164,5.064c1.286,3.926,2.317,7.936,3.615,12.475
			c-23.374,0-46.21,0-69.22,0c0.187-0.459,0.302-1.07,0.638-1.518c3.537-4.707,2.693-9.536,0.481-14.428
			c-2.875-6.363-7.411-7.201-12.431-2.201c-4.46,4.441-7.081,9.973-8.759,15.926c-0.573,2.03-1.284,2.733-3.484,2.717
			c-15.827-0.116-31.655-0.062-47.482-0.069c-5.373-0.003-5.374-0.014-5.374-5.233C58.178,221.086,58.178,208.969,58.178,196.853z
			 M307.997,144.904c-2.263,0.127-3.975,0.306-5.687,0.308c-61.052,0.034-122.104,0.054-183.155,0.067
			c-3.777,0-4.075-0.304-4.08-4.017c-0.013-11.512-0.001-23.023-0.014-34.534c-0.001-1.078-0.103-2.156-0.159-3.259
			c-6.478,0.872-10.613,6.274-9.875,12.458c0.158,1.319,0.278,2.646,0.363,3.972c0.484,7.558,0.604,15.158,1.516,22.665
			c1.042,8.573,5.417,14.675,15.928,14.513c19.936-0.306,39.878-0.154,59.817-0.223c39.673-0.137,79.345-0.318,119.019-0.394
			c2.858-0.005,4.737-1.116,6.626-3.113c5.073-5.366,5.944-12.495,8.314-18.993c0.256-0.698,0.072-1.67-0.182-2.423
			c-0.848-2.509-1.874-4.957-2.732-7.463c-0.848-2.479-2.365-2.322-3.973-0.971c-1.725,1.45-3.402,3.01-4.819,4.75
			c-0.61,0.749-0.906,2.168-0.673,3.118C305.301,135.711,306.606,139.997,307.997,144.904z M575.687,148.664
			c0.336,4.979,2.824,7.762,7.728,8.188c2.235,0.194,4.456,0.578,6.693,0.72c0.748,0.047,1.842-0.145,2.242-0.65
			c3.251-4.099,6.543-8.4,6.061-13.932c-0.428-4.904-2.357-9.484-5.495-13.396c-3.638-4.534-9.644-4.893-13.251-0.37
			c-2.577,3.23-4.772,6.924-6.369,10.733c-1.692,4.039-4.093,5.411-8.427,5.394c-35.05-0.148-70.1-0.079-105.149-0.079
			c-5.397,0-6.553-1.185-6.806-6.653c-0.104-2.271-0.425-4.532-0.729-7.631c-2.5,1.627-4.203,2.873-6.031,3.897
			c-3.578,2.007-4.354,4.71-3.315,8.694c1.123,4.312,1.499,8.83,1.988,13.282c0.085,0.775-0.806,2.331-1.383,2.401
			c-5.131,0.623-10.321,1.546-15.438,1.285c-5.253-0.268-7.958-3.952-7.726-9.228c0.106-2.413,0.93-4.786,1.247-7.201
			c0.118-0.9-0.282-1.867-0.446-2.805c-0.901,0.521-2.31,0.833-2.621,1.595c-1.799,4.401-4.246,8.806-4.768,13.402
			c-0.907,8.005,1.842,14.336,10.667,15.894c4.086,0.721,8.475,0.099,12.684-0.331c5.997-0.613,9.758-4.1,11.669-9.828
			c1.05-3.148,2.526-6.153,3.484-8.445c2.609,0.993,4.942,2.646,7.285,2.66c34.322,0.207,68.646,0.115,102.967,0.312
			c6.039,0.035,10.677-1.247,12.519-7.631C574.983,148.885,575.145,148.869,575.687,148.664z M234.637,247.325
			c3.367,3.168,7.728,2.652,11.823,2.67c12.95,0.054,25.922-0.673,38.844-0.115c10.838,0.468,20.453-1.803,29.057-8.368
			c0.406-0.31,0.85-0.57,1.274-0.857c3.382-2.284,6.938-3.866,11.202-3.542c0.887,0.068,2.163-0.828,2.731-1.647
			c0.973-1.405,1.676-3.05,2.223-4.684c0.686-2.046,0.453-3.715-2.388-3.557c-0.918,0.051-1.846-0.124-2.769-0.123
			c-6.62,0.009-12.727-1.703-18.337-5.262c-2.414-1.531-4.883-3.021-7.478-4.198c-1.028-0.466-2.997-0.552-3.628,0.087
			c-3.149,3.188-6.035,6.642-8.893,10.103c-0.307,0.371-0.068,1.672,0.353,2.032c0.435,0.372,1.521,0.373,2.111,0.092
			c1.188-0.565,2.167-1.583,3.364-2.121c0.802-0.361,2.039-0.61,2.725-0.243c5.072,2.712,10.055,5.591,15.065,8.418
			c-4.503,1.259-9.106,2.271-13.72,2.319c-18.603,0.196-37.209,0.038-55.813,0.156c-3.434,0.021-5.463-1.406-6.478-4.483
			c-0.926-2.808-1.771-5.645-2.53-8.502c-0.676-2.547-1.902-2.359-3.416-0.805c-1.288,1.323-2.404,2.819-3.724,4.106
			c-1.236,1.205-1.25,2.321-0.513,3.825c1.395,2.843,2.719,5.737,3.787,8.713c0.382,1.065,0.346,2.657-0.194,3.617
			c-3.827,6.808-9.241,10.84-17.568,9.579c-0.866-0.131-2.539,0.507-2.663,1.056c-0.208,0.918,0.216,2.41,0.925,3.028
			c2.312,2.012,4.849,3.771,7.342,5.566c4.219,3.039,7.326,1.977,10.533-1.32c1.459-1.5,2.712-3.384,3.491-5.321
			C232.684,254.297,233.535,250.867,234.637,247.325z M172.768,56.083c0.255,2.097,0.533,3.801,0.66,5.517
			c0.548,7.442,4.17,10.91,11.474,10.91c35.974-0.002,71.947-0.006,107.921-0.013c6.577-0.001,13.157,0.06,19.731-0.084
			c1.892-0.042,4.362-0.077,5.543-1.196c3.856-3.656,6.754-7.975,5.659-13.829c-0.277-1.486-0.772-3.441-0.1-4.506
			c2.939-4.648-1.033-7.604-1.84-11.452c-5.316,2.72-6.352,4.756-5.256,9.604c0.785,3.478,1.508,6.971,2.338,10.438
			c0.557,2.324-0.184,3.54-2.652,3.536c-0.719,0-1.438,0.058-2.156,0.059c-43.374,0.002-86.748,0.004-130.122-0.004
			c-4.586-0.001-4.893-0.362-4.975-4.907c-0.085-4.76-0.231-9.519-0.35-14.278c-0.401-0.19-0.802-0.381-1.204-0.571
			c-0.483,0.767-0.938,1.552-1.453,2.296c-3.378,4.893-8.279,6.349-13.931,6.295c-2.534-0.024-4.008-1.044-4.665-3.508
			c-0.372-1.393-1.07-2.699-1.681-4.191c-4.89,4.299-5.482,6.898-3.002,11.785c0.882,1.738,1.571,3.609,2.671,5.195
			c1.662,2.396,1.136,4.577-0.097,6.837c-3.35,6.146-9.061,12.565-18.958,9.931c-0.688-0.183-1.504,0.12-2.868,0.259
			c0.719,1.075,0.989,1.948,1.563,2.259c3.127,1.69,6.201,3.667,9.555,4.671c1.824,0.547,4.721,0.033,6.177-1.165
			c5.359-4.408,9.083-9.954,9.194-17.273c0.035-2.342,0.005-4.685,0.005-6.939C167.605,60.533,167.605,60.533,172.768,56.083z
			 M429.012,54.413c-4.081,0.593-5.508,3.402-6.12,6.413c-0.714,3.518-2.776,4.306-5.894,4.281
			c-9.25-0.073-18.502-0.127-27.751,0.007c-3.507,0.051-5.494-1.403-6.735-4.597c-1.475-3.796-3.103-7.553-4.961-11.174
			c-2.562-4.993-5.175-6.018-10.532-4.22c-3.271,1.099-6.385,2.656-9.627,3.849c-5.178,1.903-8.251,5.748-10.386,10.619
			c-1.415,3.23-1.316,6.487-0.9,9.894c0.975,8,1.72,16.029,2.628,24.038c0.104,0.918,0.653,1.787,0.997,2.678
			c0.367,0.179,0.734,0.356,1.103,0.535c0.294-0.642,0.697-1.257,0.864-1.93c0.877-3.545,2.468-7.126,2.37-10.655
			c-0.188-6.803-1.179-13.603-2.148-20.359c-0.77-5.357,1.374-8.47,6.931-8.839c-3.137,5.97-3.263,12.159,2.423,15.857
			c3.413,2.221,8.612,2.174,13.008,2.166c1.667-0.003,3.329-2.754,4.998-4.256c3.604,3.727,3.604,3.783,9.265,3.823
			c7.913,0.057,15.829-0.071,23.74,0.063c4.315,0.073,8.438-0.042,11.209-4.022c5.325,5.623,14.836,5.825,19.655-0.342
			c3.427,1.515,6.692,3.242,10.153,4.375c1.902,0.622,4.795,1.118,6.084,0.143c3.125-2.365,6.005-5.396,5.855-9.907
			c-0.174-5.226-0.354-10.454-0.643-15.674c-0.055-0.98-0.634-1.932-0.994-2.962c-4.15,2.265-6.762,4.544-5.355,9.647
			c1.114,4.046,1.036,8.421,1.559,13.308c-3.96-1.288-7.34-2.366-10.704-3.492c-1.384-0.463-2.083-1.178-1.813-2.951
			c0.513-3.374,0.623-6.808,0.944-10.753c-3.062,1.078-4.961,2.376-5.682,4.992c-0.677,2.454-1.115,4.998-2.057,7.342
			c-0.439,1.094-1.775,2.501-2.785,2.568c-3.095,0.204-6.229-0.172-9.637-0.336C428.421,60.789,428.708,57.696,429.012,54.413z
			 M91.136,145.092c-9.938,0-19.192,0.516-28.358-0.166c-7.061-0.524-10.529-4.417-10.533-10.199
			c-0.001-2.693,1.099-5.374,1.527-8.087c0.123-0.783-0.354-1.66-0.556-2.495c-0.812,0.335-2.094,0.455-2.361,1.039
			c-1.773,3.875-4.073,7.718-4.801,11.819c-1.572,8.86-0.001,17.075,11.401,18.814c9.471,1.444,19.355,0.215,29.055,0.062
			c0.902-0.014,1.921-0.647,2.668-1.259c6.458-5.286,7.862-13.146,10.291-20.477c0.119-0.359,0.04-0.841-0.088-1.217
			c-1.017-2.989-2.017-5.985-3.125-8.94c-0.75-2.002-2.171-2.058-3.606-0.781c-1.532,1.363-2.812,3.011-4.372,4.335
			c-1.466,1.244-1.608,2.52-1.054,4.261C88.54,135.943,89.69,140.138,91.136,145.092z M359.347,150.145
			c1.704,5.105,1.567,5.556-2.535,8.207c-1.023,0.661-2.129,1.224-3.255,1.688c-4.609,1.904-9.346,1.562-14.151,0.902
			c-1.104-0.151-2.352,0.738-3.533,1.147c0.511,1.167,0.706,2.736,1.589,3.427c2.809,2.197,5.858,4.088,8.843,6.058
			c2.409,1.592,5.056,1.82,7.47,0.334c2.39-1.472,4.872-3.086,6.654-5.194c5.542-6.561,5.634-14.6,4.527-22.431
			c-0.651-4.604-2.41-9.328-4.778-13.345c-3.8-6.442-11.07-6.438-15.814-0.609c-4.799,5.897-6.329,12.382-3.885,19.757
			c1.522,4.597,3.362,6.456,8.187,6.831c3.904,0.304,7.638-0.109,9.31-4.576C358.211,151.705,358.699,151.164,359.347,150.145z
			 M487.481,48.4c-1.305,1.438-2.1,2.443-3.025,3.309c-2.106,1.97-2.674,4.031-1.139,6.709c1.211,2.115,2.103,4.431,2.957,6.724
			c0.321,0.862,0.436,2.018,0.14,2.862c-3.3,9.389-8.938,12.93-18.628,11.955c-0.772-0.078-1.612,0.529-2.421,0.818
			c0.403,0.657,0.654,1.56,1.239,1.925c2.078,1.298,4.216,2.526,6.429,3.572c4.919,2.326,7.511,2.086,10.63-2.282
			c2.945-4.127,4.995-8.894,7.295-13.116c2.156,0.505,4.864,1.587,7.609,1.692c6.045,0.229,12.111,0.018,18.165-0.146
			c1.046-0.028,2.38-0.415,3.059-1.131c3.354-3.543,6.229-7.342,5.477-12.734c-0.254-1.814-0.762-4.092,0.037-5.462
			c2.738-4.688-0.973-7.749-1.996-12.203c-1.77,1.621-2.949,2.856-4.286,3.887c-1.688,1.299-1.852,2.745-1.326,4.741
			c1.011,3.839,1.737,7.754,2.51,11.652c0.674,3.402,0.43,3.776-3.169,3.839c-6.364,0.111-12.731,0.096-19.097,0.067
			c-4.463-0.02-6.02-1.168-7.337-5.48C489.544,56.132,488.649,52.615,487.481,48.4z M96.513,41.275
			c-5.702,3.507-6.286,4.754-5.132,10.195c0.296,1.398,0.69,2.776,0.959,4.179c0.543,2.837,1.033,5.684,1.696,9.365
			c-9.963,0-19.283,0.121-28.595-0.081c-2.489-0.054-5.069-0.806-7.41-1.735c-4.509-1.79-6.614-5.876-5.645-10.671
			c0.64-3.165,1.614-6.263,2.439-9.39c-0.148-0.208-0.296-0.416-0.443-0.624c-0.814,0.546-1.924,0.909-2.395,1.668
			c-3.004,4.85-4.715,10.001-4.583,15.894c0.102,4.585,1.968,7.817,5.776,9.668c2.856,1.389,6.128,2.459,9.269,2.617
			c7.476,0.377,15.005-0.216,22.472,0.239c6.273,0.383,10.167-2.23,12.393-7.722c0.696-1.717,0.775-3.699,1.038-5.574
			c0.385-2.75,0.692-5.511,1.008-8.27c0.069-0.604,0.207-1.278,0.024-1.822C98.516,46.642,97.549,44.107,96.513,41.275z
			 M107.599,79.851c-0.17,0.245-0.341,0.489-0.512,0.733c0.696,0.837,1.25,1.89,2.119,2.464c1.788,1.182,3.7,2.201,5.64,3.123
			c5.39,2.561,9.773,1.362,13.584-3.172c6.112-7.271,5.503-15.772,4.468-24.233c-0.372-3.043-1.659-6.152-3.208-8.839
			c-4.336-7.521-11.589-7.824-16.232-0.485c-2.172,3.433-3.969,7.574-4.359,11.548c-0.52,5.304,1.73,11.61,9.827,11.672
			c4.456,0.034,8.403-0.518,10.791-5.33c0.187,2.268,0.17,4.345-0.742,5.896c-3.204,5.443-10.916,8.357-17.517,7.015
			C110.196,79.987,108.886,79.976,107.599,79.851z M393.361,142.325c-0.887-3.115-2.416-9.127-4.364-15
			c-0.705-2.127-2.635-1.607-3.889-0.183c-1.691,1.921-3.314,3.934-4.691,6.084c-0.458,0.716-0.419,2.159-0.005,2.957
			c2.166,4.175,4.595,8.215,6.765,12.388c0.495,0.952,0.862,2.595,0.383,3.33c-3.347,5.137-7.603,9.219-14.105,9.793
			c-2.012,0.178-4.079-0.381-6.114-0.322c-0.818,0.023-2.167,0.681-2.29,1.258c-0.177,0.832,0.267,2.212,0.934,2.732
			c2.334,1.819,4.905,3.328,7.333,5.031c5.993,4.202,9.891,2.254,14.383-3.058C393.158,160.88,393.335,153.125,393.361,142.325z
			 M549.219,58.298c-0.279-0.129-0.56-0.259-0.839-0.388c-0.514,0.431-1.176,0.768-1.516,1.308
			c-2.936,4.651-4.82,9.726-5.021,15.223c-0.248,6.821,3.982,11.964,10.633,12.78c3.597,0.44,7.332,0.407,10.937-0.01
			c10.1-1.168,15.656-6.985,15.455-16.728c-0.137-6.603-1.229-13.189-2.026-19.766c-0.076-0.624-1.108-1.63-1.666-1.61
			c-2.271,0.083-5.444,5.189-4.916,7.465c1.36,5.861,2.727,11.723,3.896,17.624c0.183,0.917-0.386,2.681-1.059,2.959
			c-5.559,2.295-11.408,3.441-17.401,2.553c-6.654-0.987-9.864-5.824-8.576-12.411c0.391-1.996,0.996-3.95,1.473-5.931
			C548.837,60.352,549.012,59.321,549.219,58.298z M324.41,157.46c1.592-0.591,3.735-0.796,3.964-1.568
			c1.666-5.633,3.808-11.326,4.163-17.102c0.654-10.647,0.188-21.363,0.188-32.05c0-1.085,0-2.17,0-3.255
			c-0.288-0.223-0.575-0.445-0.862-0.667c-2.437,1.716-5.013,3.271-7.243,5.223c-0.987,0.864-1.775,2.525-1.785,3.833
			c-0.038,4.606,0.354,9.214,0.482,13.825c0.26,9.335,0.446,18.673,0.688,28.009C324.029,154.714,324.216,155.718,324.41,157.46z
			 M594.72,25.708c-0.333-0.181-0.666-0.362-0.999-0.542c-1.688,2.344-4.738,4.639-4.824,7.04
			c-0.349,9.837,0.168,19.707,0.449,29.562c0.103,3.563,0.439,7.12,0.712,11.344c1.017-0.758,2.033-1.114,2.215-1.721
			c0.96-3.213,2.318-6.47,2.423-9.747c0.342-10.684,0.207-21.382,0.232-32.075C594.931,28.282,594.793,26.995,594.72,25.708z
			 M336.563,194.458c-1.118,0.099-2.219-0.032-3.094,0.351c-0.61,0.267-1.332,1.787-1.291,1.818
			c2.433,1.866,4.812,4.896,7.465,5.163c6.555,0.662,9.161-2.023,10.646-8.994c-3.929,0.308-8.1,2.938-11.881-1.091
			c3.06-2.421,6.105-2.298,9.678-0.743c-0.107-1.583,0.18-2.887-0.327-3.691c-1.122-1.785-2.333-3.999-4.074-4.793
			c-2.434-1.111-4.42,0.868-5.863,2.867C335.842,188.086,335.152,191.068,336.563,194.458z M409.599,209.341
			c-5.561-4.802-5.547-4.789-8.678-1.604c-1.706,1.736-3.383,3.136-0.667,5.695c3.57,3.361,3.379,3.564,9.179-1.095
			c5.85,4.691,5.736,4.581,9.515,0.716c2.273-2.327,0.961-3.718-0.69-5.342C415.022,204.529,415.04,204.512,409.599,209.341z
			 M67.156,129.596c1.715-1.522,3.449-3.061,5.159-4.579c5.823,5.244,5.824,5.246,10.864-0.846c0.118-0.144,0.128-0.376,0.188-0.567
			c0.271-0.274,0.541-0.547,0.812-0.821c-2.014-1.948-4.027-3.895-6.091-5.892c-2.366,2.234-4.034,3.809-5.659,5.343
			c-1.954-1.765-3.613-3.264-5.26-4.752C59.915,124.214,59.609,123.206,67.156,129.596z M302.596,161.251
			c-1.877,1.989-3.536,3.747-5.456,5.782c1.955,1.952,3.668,3.663,5.442,5.436c1.725-1.518,3.246-2.858,4.379-3.855
			c2.174,1.071,4.266,2.987,5.986,2.697c1.635-0.275,4.322-3.303,4.004-4.331c-0.687-2.214-3.008-3.921-5.105-6.35
			c-1.738,2.069-2.979,3.546-4.268,5.082C305.885,164.197,304.372,162.841,302.596,161.251z M198.075,258.679
			c-5.111-4.245-5.285-4.39-7.062-2.257c-1.2,1.44-4.527,2.514-1.819,5.336c1.119,1.166,2.668,3.238,3.575,3.021
			c1.972-0.471,3.658-2.146,5.421-3.304c1.492,1.323,2.979,2.643,4.401,3.904c6.357-4.956,6.329-6.058-0.062-10.736
			C201.118,255.922,199.683,257.222,198.075,258.679z M583.137,17.729c2.171,2.489,3.993,4.896,7.27,4.077
			c3.782-0.946,8.573-0.837,9.103-6.711c-3.897,0.727-8.07,2.77-10.839-2.089c2.701-2.911,5.563-2.253,8.888-1.037
			c-0.688-2.222-1.414-4.438-2.93-5.714c-0.826-0.695-3.332-0.299-4.494,0.479c-3.714,2.487-4.096,6.243-2.748,10.332
			C585.992,17.283,584.819,17.466,583.137,17.729z M68.681,34.896c-1.816,1.672-3.35,3.084-5.132,4.725
			c1.749,1.811,3.207,3.322,4.815,4.987c1.751-1.593,3.155-2.871,4.537-4.129c4.598,4.081,5.25,4.167,7.723,1.129
			c1.832-2.25,1.24-3.426-3.803-6.959c-1.033,1.404-2.126,2.89-3.284,4.463C71.637,37.462,70.193,36.208,68.681,34.896z
			 M166.028,83.15c3.7,4.786,3.7,4.786,8.813,1.086c1.248,1.144,2.502,2.293,4.093,3.751c1.64-1.609,3.128-3.069,4.82-4.729
			c-1.919-1.836-3.427-3.279-4.962-4.748c-1.486,1.414-2.729,2.597-3.951,3.759C169.75,78.477,169.75,78.477,166.028,83.15z
			 M441.2,126.435c-3.123-2.379-5.236-5.083-7.692-5.444c-1.456-0.214-5.048,3.479-4.842,5.043c0.318,2.426,3.058,4.534,5.152,7.274
			C436.499,130.813,438.548,128.905,441.2,126.435z M316.098,246.295c-1.556,1.673-3.094,3.183-4.436,4.851
			c-0.471,0.584-0.867,1.743-0.604,2.324c2.318,5.096,5.607,5.601,9.456,1.797c1.884-1.861,2.04-3.281-0.067-4.975
			C319.017,249.142,317.732,247.81,316.098,246.295z M559.961,48.405c5.812-3.984,5.82-5.264-0.216-9.492
			c-1.456,1.491-2.981,3.053-4.812,4.926C556.834,45.565,558.344,46.937,559.961,48.405z M322.711,83.144
			c-2.135-2.027-3.648-3.465-5.119-4.863c-1.798,1.793-3.286,3.278-4.842,4.831c1.485,1.67,2.898,3.259,4.531,5.096
			C319.271,86.351,320.818,84.908,322.711,83.144z M521.833,33.279c1.535-1.665,2.979-3.229,4.469-4.845
			c-0.843-0.954-1.548-1.835-2.342-2.628c-0.778-0.777-1.647-1.462-2.444-2.16C515.947,27.952,515.935,28.759,521.833,33.279z"/>
		<path fill-rule="evenodd" clip-rule="evenodd" d="M575.009,241.586c-1.55,7.965-7.472,8.445-13.532,8.412
			c-14.183-0.077-28.369-0.146-42.543-0.596c-2.094-0.066-4.188-2.088-6.148-3.404c-0.773-0.519-1.18-1.585-1.783-2.444
			c-6.515,8.629-12.68,8.777-19.419,0.312c-1.744,4.206-4.896,6.24-9.303,6.248c-4.385,0.007-7.328-2.213-9.278-6.542
			c-0.938,1.261-1.474,2.415-2.371,3.089c-1.49,1.118-3.202,2.726-4.838,2.745c-16.641,0.2-33.287,0.246-49.926-0.029
			c-2.276-0.038-4.569-1.979-6.753-3.219c-1.023-0.581-1.802-1.592-2.663-2.381c-0.479,0.293-0.835,0.391-0.982,0.62
			c-3.449,5.349-8.526,6.076-14.438,5.86c-13.248-0.485-26.515-0.608-39.772-0.574c-7.286,0.019-11.13-4.479-12.991-10.106
			c-1.132-3.426-1.6-7.135-1.899-10.756c-0.441-5.313-0.561-10.661-0.592-15.997c-0.007-1.131,0.716-2.494,1.525-3.351
			c1.396-1.479,3.035-2.782,4.745-3.893c1.085-0.703,2.482-0.922,4.142-1.497c0,10.491-0.001,20.351,0,30.209
			c0,4.062,0.002,4.114,4.148,4.122c16.04,0.03,32.081-0.035,48.12,0.084c3.051,0.022,4.644-0.891,5.177-4.042
			c0.77-4.549,2.459-8.571,7.274-10.494c2.452-0.979,3.229-0.755,3.103,1.958c-0.174,3.771-0.622,7.529-0.994,11.766
			c1.441,0.238,2.992,0.713,4.546,0.719c16.245,0.051,32.491-0.018,48.735,0.074c2.354,0.014,3.56-0.795,4.226-2.986
			c0.88-2.894,2.221-5.557,5.255-6.79c0.879-0.357,2.35-0.857,2.733-0.474c0.642,0.641,0.885,1.95,0.84,2.957
			c-0.099,2.22-0.481,4.426-0.815,7.191c2.863,0,5.305,0.121,7.719-0.081c0.639-0.054,1.435-0.998,1.743-1.713
			c0.969-2.249,1.373-4.826,2.689-6.816c1.345-2.031,3.327-3.798,5.376-5.159c1.665-1.106,2.698,0.098,2.536,1.976
			c-0.316,3.654-0.719,7.301-1.131,11.406c3.525,0,6.97,0,10.576,0c-0.124-2.003-0.076-3.85-0.379-5.637
			c-0.896-5.284,3.495-10.653,9.402-11.037c0,4.514,0.086,9.015-0.033,13.512c-0.066,2.514,0.97,3.562,3.432,3.56
			c15.629-0.023,31.258-0.021,46.887,0.002c2.638,0.003,4.062-1.441,5.131-3.67c1.63-3.393,3.178-6.867,5.211-10.017
			c4.832-7.483,11.721-7.364,16.646,0.091c5.328,8.066,5.302,15.889-0.517,23.407c-1.052,1.358-3.354,2.035-5.202,2.398
			c-1.519,0.3-3.235-0.256-4.838-0.564C578.082,248.938,578.087,248.918,575.009,241.586z M576.949,237.789
			c5.192,0.667,10.129,1.301,15.168,1.947c-0.613-4.568-4.608-9.43-7.755-9.771C581.582,229.664,578.365,232.875,576.949,237.789z"
			/>
		<path fill-rule="evenodd" clip-rule="evenodd" d="M58.178,196.853c0,12.116,0,24.233,0,36.35c0,5.22,0.001,5.23,5.374,5.233
			c15.828,0.008,31.656-0.047,47.482,0.069c2.201,0.017,2.912-0.687,3.484-2.717c1.678-5.953,4.299-11.484,8.759-15.926
			c5.021-5,9.556-4.162,12.431,2.201c2.211,4.892,3.056,9.721-0.481,14.428c-0.335,0.447-0.451,1.059-0.638,1.518
			c23.01,0,45.847,0,69.22,0c-1.298-4.539-2.329-8.549-3.615-12.475c-0.673-2.055-0.453-3.425,1.164-5.064
			c6.57-6.661,6.737-6.671,9.75,2.135c0.926,2.707,2.372,5.265-0.458,7.901c-0.688,0.641,0.181,2.727-0.375,3.771
			c-2.479,4.654-5.008,9.313-7.997,13.641c-0.792,1.148-3.276,1.54-4.997,1.57c-17.671,0.306-35.345,0.464-53.018,0.668
			c-0.808,0.01-1.616,0.072-2.344,0.107c-1.493,4.387-2.909,8.63-4.383,12.852c-0.911,2.607-2.627,3.779-5.57,3.814
			c-9.394,0.115-14.634-3.706-17.532-13.685c-0.699-2.404-1.551-3.182-4.093-3.151c-12.537,0.146-25.077,0.093-37.615,0.023
			c-3.591-0.019-7.179-0.35-10.77-0.496c-4.977-0.202-8.492-2.816-9.969-7.312c-1.514-4.604-2.628-9.459-3.042-14.28
			c-0.64-7.45-0.459-14.968-0.794-22.45c-0.098-2.191,0.545-3.732,2.319-4.923c2.299-1.545,4.565-3.139,6.846-4.71
			C57.604,196.247,57.891,196.55,58.178,196.853z M135.861,255.281c-1.084-5.746-12.005-7.721-17.942-5.396
			C121.368,255.433,127.464,257.294,135.861,255.281z M131.487,236.45c0.107-0.431,0.215-0.861,0.322-1.293
			c-1.149-1.503-2.063-3.326-3.527-4.401c-1.061-0.779-3.192-1.223-4.252-0.672c-3.154,1.64-5.033,4.539-6.33,8.82
			C122.7,238.015,127.093,237.232,131.487,236.45z"/>
		<path fill-rule="evenodd" clip-rule="evenodd" d="M307.997,144.904c-1.391-4.907-2.696-9.193-3.765-13.539
			c-0.233-0.95,0.062-2.369,0.673-3.118c1.417-1.74,3.095-3.3,4.819-4.75c1.607-1.351,3.125-1.508,3.973,0.971
			c0.858,2.506,1.885,4.954,2.732,7.463c0.254,0.752,0.438,1.725,0.182,2.423c-2.37,6.498-3.241,13.627-8.314,18.993
			c-1.889,1.997-3.768,3.108-6.626,3.113c-39.673,0.075-79.346,0.257-119.019,0.394c-19.939,0.068-39.881-0.083-59.817,0.223
			c-10.511,0.162-14.886-5.939-15.928-14.513c-0.911-7.507-1.032-15.107-1.516-22.665c-0.085-1.326-0.206-2.652-0.363-3.972
			c-0.739-6.183,3.397-11.585,9.875-12.458c0.056,1.104,0.158,2.181,0.159,3.259c0.012,11.511,0,23.022,0.014,34.534
			c0.004,3.713,0.302,4.017,4.08,4.017c61.052-0.014,122.104-0.033,183.155-0.067C304.022,145.21,305.734,145.031,307.997,144.904z"
			/>
		<path fill-rule="evenodd" clip-rule="evenodd" d="M575.687,148.664c-0.542,0.205-0.703,0.221-0.721,0.278
			c-1.842,6.384-6.479,7.666-12.519,7.631c-34.321-0.197-68.645-0.105-102.967-0.312c-2.343-0.015-4.676-1.667-7.285-2.66
			c-0.958,2.292-2.435,5.297-3.484,8.445c-1.911,5.729-5.672,9.215-11.669,9.828c-4.209,0.43-8.598,1.052-12.684,0.331
			c-8.825-1.558-11.574-7.889-10.667-15.894c0.521-4.597,2.969-9.001,4.768-13.402c0.312-0.762,1.72-1.074,2.621-1.595
			c0.164,0.938,0.564,1.904,0.446,2.805c-0.317,2.415-1.141,4.788-1.247,7.201c-0.232,5.275,2.473,8.96,7.726,9.228
			c5.117,0.261,10.308-0.662,15.438-1.285c0.577-0.07,1.468-1.626,1.383-2.401c-0.489-4.452-0.865-8.971-1.988-13.282
			c-1.039-3.984-0.263-6.688,3.315-8.694c1.828-1.024,3.531-2.27,6.031-3.897c0.304,3.099,0.624,5.36,0.729,7.631
			c0.253,5.469,1.408,6.653,6.806,6.653c35.05,0,70.1-0.069,105.149,0.079c4.334,0.018,6.734-1.354,8.427-5.394
			c1.597-3.81,3.792-7.503,6.369-10.733c3.607-4.522,9.613-4.164,13.251,0.37c3.138,3.913,5.067,8.492,5.495,13.396
			c0.482,5.531-2.81,9.833-6.061,13.932c-0.4,0.506-1.494,0.697-2.242,0.65c-2.237-0.142-4.458-0.525-6.693-0.72
			C578.511,156.426,576.022,153.643,575.687,148.664z M592.133,146.628c-0.637-4.76-4.924-9.772-8.093-9.831
			c-2.865-0.055-6.365,3.841-6.812,7.898C582.154,145.334,587.087,145.974,592.133,146.628z"/>
		<path fill-rule="evenodd" clip-rule="evenodd" d="M234.637,247.325c-1.102,3.542-1.953,6.972-3.26,10.219
			c-0.779,1.938-2.032,3.821-3.491,5.321c-3.207,3.297-6.313,4.359-10.533,1.32c-2.493-1.796-5.03-3.555-7.342-5.566
			c-0.709-0.618-1.133-2.11-0.925-3.028c0.124-0.549,1.797-1.187,2.663-1.056c8.327,1.261,13.742-2.771,17.568-9.579
			c0.54-0.96,0.576-2.552,0.194-3.617c-1.067-2.976-2.392-5.87-3.787-8.713c-0.737-1.504-0.723-2.62,0.513-3.825
			c1.32-1.287,2.436-2.783,3.724-4.106c1.514-1.555,2.74-1.742,3.416,0.805c0.758,2.857,1.604,5.694,2.53,8.502
			c1.015,3.077,3.044,4.505,6.478,4.483c18.604-0.118,37.21,0.04,55.813-0.156c4.614-0.049,9.217-1.061,13.72-2.319
			c-5.011-2.827-9.993-5.706-15.065-8.418c-0.687-0.367-1.923-0.118-2.725,0.243c-1.197,0.538-2.175,1.556-3.364,2.121
			c-0.591,0.281-1.676,0.28-2.111-0.092c-0.421-0.36-0.659-1.661-0.353-2.032c2.858-3.461,5.744-6.915,8.893-10.103
			c0.631-0.639,2.6-0.553,3.628-0.087c2.595,1.177,5.063,2.667,7.478,4.198c5.61,3.559,11.717,5.271,18.337,5.262
			c0.923-0.001,1.851,0.174,2.769,0.123c2.841-0.158,3.073,1.511,2.388,3.557c-0.547,1.634-1.25,3.278-2.223,4.684
			c-0.568,0.819-1.845,1.716-2.731,1.647c-4.265-0.324-7.82,1.258-11.202,3.542c-0.425,0.287-0.868,0.548-1.274,0.857
			c-8.604,6.565-18.218,8.836-29.057,8.368c-12.922-0.558-25.895,0.169-38.844,0.115
			C242.365,249.978,238.004,250.493,234.637,247.325z"/>
		<path fill-rule="evenodd" clip-rule="evenodd" d="M172.768,56.083c-5.162,4.45-5.162,4.45-12.817,5.676
			c0,2.254,0.03,4.597-0.005,6.939c-0.111,7.319-3.835,12.865-9.194,17.273c-1.457,1.198-4.354,1.711-6.177,1.165
			c-3.354-1.004-6.428-2.981-9.555-4.671c-0.575-0.311-0.845-1.185-1.563-2.259c1.364-0.139,2.18-0.441,2.868-0.259
			c9.897,2.634,15.608-3.785,18.958-9.931c1.233-2.261,1.758-4.441,0.097-6.837c-1.1-1.586-1.789-3.457-2.671-5.195
			c-2.48-4.887-1.888-7.486,3.002-11.785c0.611,1.492,1.309,2.798,1.681,4.191c0.657,2.464,2.131,3.483,4.665,3.508
			c5.652,0.054,10.552-1.402,13.931-6.295c0.515-0.744,0.97-1.529,1.453-2.296c0.401,0.19,0.802,0.381,1.204,0.571
			c0.119,4.759,0.265,9.518,0.35,14.278c0.082,4.545,0.389,4.906,4.975,4.907c43.374,0.008,86.748,0.006,130.122,0.004
			c0.719,0,1.438-0.059,2.156-0.059c2.469,0.003,3.209-1.212,2.652-3.536c-0.83-3.467-1.553-6.96-2.338-10.438
			c-1.096-4.849-0.061-6.885,5.256-9.604c0.807,3.847,4.779,6.803,1.84,11.452c-0.673,1.065-0.178,3.021,0.1,4.506
			c1.095,5.854-1.803,10.173-5.659,13.829c-1.181,1.119-3.651,1.154-5.543,1.196c-6.574,0.145-13.154,0.083-19.731,0.084
			c-35.974,0.007-71.947,0.01-107.921,0.013c-7.304,0-10.926-3.468-11.474-10.91C173.301,59.885,173.023,58.181,172.768,56.083z"/>
		<path fill-rule="evenodd" clip-rule="evenodd" d="M429.012,54.413c-0.304,3.283-0.591,6.376-0.938,10.126
			c3.407,0.164,6.542,0.54,9.637,0.336c1.01-0.067,2.346-1.474,2.785-2.568c0.941-2.344,1.38-4.888,2.057-7.342
			c0.721-2.616,2.619-3.914,5.682-4.992c-0.321,3.945-0.432,7.379-0.944,10.753c-0.27,1.772,0.43,2.487,1.813,2.951
			c3.364,1.126,6.744,2.204,10.704,3.492c-0.522-4.886-0.444-9.261-1.559-13.308c-1.406-5.104,1.205-7.383,5.355-9.647
			c0.36,1.03,0.939,1.981,0.994,2.962c0.289,5.221,0.469,10.448,0.643,15.674c0.149,4.511-2.73,7.542-5.855,9.907
			c-1.289,0.976-4.182,0.479-6.084-0.143c-3.461-1.133-6.727-2.86-10.153-4.375c-4.819,6.167-14.33,5.965-19.655,0.342
			c-2.771,3.98-6.894,4.095-11.209,4.022c-7.911-0.134-15.827-0.006-23.74-0.063c-5.66-0.04-5.66-0.096-9.265-3.823
			c-1.669,1.502-3.331,4.253-4.998,4.256c-4.396,0.008-9.595,0.055-13.008-2.166c-5.686-3.698-5.56-9.887-2.423-15.857
			c-5.557,0.369-7.7,3.482-6.931,8.839c0.97,6.756,1.96,13.556,2.148,20.359c0.098,3.529-1.493,7.109-2.37,10.655
			c-0.167,0.673-0.57,1.288-0.864,1.93c-0.368-0.178-0.735-0.356-1.103-0.535c-0.344-0.892-0.894-1.76-0.997-2.678
			c-0.908-8.009-1.653-16.038-2.628-24.038c-0.416-3.407-0.515-6.663,0.9-9.894c2.135-4.872,5.208-8.716,10.386-10.619
			c3.242-1.192,6.356-2.75,9.627-3.849c5.357-1.798,7.97-0.773,10.532,4.22c1.858,3.622,3.486,7.378,4.961,11.174
			c1.241,3.194,3.229,4.648,6.735,4.597c9.249-0.135,18.501-0.081,27.751-0.007c3.117,0.025,5.18-0.763,5.894-4.281
			C423.504,57.814,424.931,55.006,429.012,54.413z M377.193,66.084c0.188-0.347,0.378-0.693,0.566-1.04
			c-1.729-3.649-3.272-7.403-5.247-10.915c-1.705-3.029-4.076-3.502-6.56-1.104c-2.146,2.072-3.667,4.81-5.364,7.32
			c-1.491,2.205-0.788,3.68,1.806,4.019C367.317,65.008,372.259,65.519,377.193,66.084z"/>
		<path fill-rule="evenodd" clip-rule="evenodd" d="M91.136,145.092c-1.446-4.954-2.596-9.148-3.913-13.29
			c-0.554-1.741-0.412-3.017,1.054-4.261c1.56-1.324,2.84-2.973,4.372-4.335c1.435-1.277,2.855-1.221,3.606,0.781
			c1.108,2.955,2.108,5.951,3.125,8.94c0.128,0.376,0.208,0.858,0.088,1.217c-2.429,7.33-3.833,15.19-10.291,20.477
			c-0.747,0.611-1.766,1.245-2.668,1.259c-9.7,0.153-19.584,1.383-29.055-0.062c-11.402-1.739-12.973-9.954-11.401-18.814
			c0.728-4.102,3.028-7.944,4.801-11.819c0.267-0.584,1.548-0.704,2.361-1.039c0.202,0.834,0.679,1.712,0.556,2.495
			c-0.428,2.713-1.528,5.395-1.527,8.087c0.004,5.782,3.473,9.675,10.533,10.199C71.943,145.607,81.198,145.092,91.136,145.092z"/>
		<path fill-rule="evenodd" clip-rule="evenodd" d="M359.347,150.145c-0.647,1.02-1.136,1.561-1.373,2.196
			c-1.672,4.467-5.405,4.88-9.31,4.576c-4.824-0.375-6.664-2.234-8.187-6.831c-2.444-7.375-0.914-13.859,3.885-19.757
			c4.744-5.829,12.015-5.833,15.814,0.609c2.368,4.017,4.127,8.741,4.778,13.345c1.106,7.831,1.015,15.87-4.527,22.431
			c-1.782,2.108-4.265,3.723-6.654,5.194c-2.414,1.486-5.061,1.258-7.47-0.334c-2.984-1.97-6.034-3.86-8.843-6.058
			c-0.883-0.69-1.078-2.26-1.589-3.427c1.182-0.409,2.429-1.299,3.533-1.147c4.806,0.66,9.542,1.002,14.151-0.902
			c1.126-0.465,2.231-1.027,3.255-1.688C360.914,155.7,361.051,155.25,359.347,150.145z M357.612,144.541
			c-1.725-3.692-3.16-7.643-7.512-7.603c-3.961,0.036-5.998,3.366-7.809,7.603C347.549,144.541,352.331,144.541,357.612,144.541z"/>
		<path fill-rule="evenodd" clip-rule="evenodd" d="M487.481,48.4c1.168,4.215,2.062,7.732,3.122,11.198
			c1.317,4.312,2.874,5.46,7.337,5.48c6.365,0.028,12.732,0.043,19.097-0.067c3.599-0.063,3.843-0.437,3.169-3.839
			c-0.772-3.898-1.499-7.813-2.51-11.652c-0.525-1.997-0.361-3.442,1.326-4.741c1.337-1.031,2.517-2.267,4.286-3.887
			c1.023,4.455,4.734,7.515,1.996,12.203c-0.799,1.37-0.291,3.648-0.037,5.462c0.753,5.393-2.123,9.191-5.477,12.734
			c-0.679,0.716-2.013,1.103-3.059,1.131c-6.054,0.164-12.12,0.376-18.165,0.146c-2.745-0.105-5.453-1.187-7.609-1.692
			c-2.3,4.222-4.35,8.989-7.295,13.116c-3.119,4.368-5.711,4.608-10.63,2.282c-2.213-1.046-4.351-2.274-6.429-3.572
			c-0.585-0.366-0.836-1.269-1.239-1.925c0.809-0.289,1.648-0.896,2.421-0.818c9.69,0.975,15.328-2.565,18.628-11.955
			c0.296-0.844,0.182-2-0.14-2.862c-0.854-2.293-1.746-4.609-2.957-6.724c-1.535-2.678-0.968-4.74,1.139-6.709
			C485.382,50.843,486.177,49.838,487.481,48.4z"/>
		<path fill-rule="evenodd" clip-rule="evenodd" d="M96.513,41.275c1.036,2.832,2.002,5.367,2.869,7.936
			c0.183,0.544,0.045,1.217-0.024,1.822c-0.316,2.759-0.623,5.52-1.008,8.27c-0.263,1.875-0.341,3.856-1.038,5.574
			c-2.226,5.492-6.12,8.105-12.393,7.722c-7.467-0.456-14.996,0.138-22.472-0.239c-3.14-0.158-6.413-1.229-9.269-2.617
			c-3.808-1.851-5.674-5.083-5.776-9.668c-0.132-5.892,1.579-11.044,4.583-15.894c0.47-0.759,1.581-1.123,2.395-1.668
			c0.147,0.208,0.295,0.416,0.443,0.624c-0.825,3.127-1.799,6.225-2.439,9.39c-0.969,4.795,1.136,8.882,5.645,10.671
			c2.341,0.929,4.921,1.682,7.41,1.735c9.312,0.201,18.632,0.081,28.595,0.081c-0.663-3.681-1.152-6.528-1.696-9.365
			c-0.269-1.402-0.663-2.781-0.959-4.179C90.228,46.029,90.812,44.782,96.513,41.275z"/>
		<path fill-rule="evenodd" clip-rule="evenodd" d="M107.599,79.851c1.287,0.125,2.597,0.136,3.857,0.392
			c6.602,1.342,14.313-1.571,17.517-7.015c0.913-1.551,0.929-3.628,0.742-5.896c-2.388,4.812-6.334,5.364-10.791,5.33
			c-8.096-0.062-10.346-6.368-9.827-11.672c0.39-3.975,2.187-8.115,4.359-11.548c4.643-7.339,11.896-7.036,16.232,0.485
			c1.549,2.688,2.836,5.796,3.208,8.839c1.035,8.461,1.644,16.962-4.468,24.233c-3.811,4.534-8.195,5.732-13.584,3.172
			c-1.939-0.922-3.852-1.941-5.64-3.123c-0.869-0.575-1.423-1.627-2.119-2.464C107.258,80.34,107.429,80.096,107.599,79.851z
			 M129.507,63.951c-1.882-3.635-3.274-7.146-5.381-10.157c-2.085-2.981-5.123-3.051-7.598-0.356
			c-1.683,1.832-2.854,4.178-4.045,6.405c-1.301,2.433-0.542,3.999,2.274,4.604C119.436,65.452,124.04,65.208,129.507,63.951z"/>
		<path fill-rule="evenodd" clip-rule="evenodd" d="M393.361,142.325c-0.026,10.8-0.203,18.555-5.662,25.01
			c-4.492,5.312-8.39,7.26-14.383,3.058c-2.428-1.703-4.999-3.212-7.333-5.031c-0.667-0.521-1.11-1.9-0.934-2.732
			c0.123-0.577,1.472-1.234,2.29-1.258c2.035-0.059,4.103,0.5,6.114,0.322c6.503-0.574,10.759-4.656,14.105-9.793
			c0.479-0.735,0.112-2.378-0.383-3.33c-2.17-4.173-4.599-8.213-6.765-12.388c-0.414-0.798-0.453-2.241,0.005-2.957
			c1.377-2.15,3-4.163,4.691-6.084c1.254-1.424,3.184-1.945,3.889,0.183C390.945,133.198,392.475,139.21,393.361,142.325z"/>
		<path fill-rule="evenodd" clip-rule="evenodd" d="M549.219,58.298c-0.207,1.023-0.382,2.054-0.626,3.068
			c-0.477,1.981-1.082,3.935-1.473,5.931c-1.288,6.587,1.922,11.424,8.576,12.411c5.993,0.888,11.843-0.258,17.401-2.553
			c0.673-0.278,1.241-2.042,1.059-2.959c-1.17-5.9-2.536-11.763-3.896-17.624c-0.528-2.275,2.645-7.382,4.916-7.465
			c0.558-0.02,1.59,0.986,1.666,1.61c0.797,6.577,1.89,13.164,2.026,19.766c0.201,9.742-5.355,15.559-15.455,16.728
			c-3.604,0.417-7.34,0.45-10.937,0.01c-6.65-0.815-10.881-5.959-10.633-12.78c0.2-5.498,2.085-10.572,5.021-15.223
			c0.34-0.54,1.002-0.876,1.516-1.308C548.659,58.039,548.939,58.168,549.219,58.298z"/>
		<path fill-rule="evenodd" clip-rule="evenodd" d="M324.41,157.46c-0.194-1.742-0.381-2.746-0.406-3.754
			c-0.241-9.336-0.428-18.674-0.688-28.009c-0.129-4.61-0.521-9.218-0.482-13.825c0.01-1.307,0.798-2.969,1.785-3.833
			c2.23-1.952,4.807-3.507,7.243-5.223c0.287,0.222,0.574,0.445,0.862,0.667c0,1.085,0,2.17,0,3.255
			c0,10.687,0.467,21.403-0.188,32.05c-0.355,5.775-2.497,11.469-4.163,17.102C328.146,156.664,326.002,156.869,324.41,157.46z"/>
		<path fill-rule="evenodd" clip-rule="evenodd" d="M594.72,25.708c0.073,1.287,0.211,2.575,0.208,3.861
			c-0.025,10.693,0.109,21.392-0.232,32.075c-0.104,3.277-1.463,6.534-2.423,9.747c-0.182,0.606-1.198,0.962-2.215,1.721
			c-0.272-4.224-0.609-7.781-0.712-11.344c-0.281-9.855-0.798-19.726-0.449-29.562c0.086-2.4,3.137-4.696,4.824-7.04
			C594.054,25.346,594.387,25.526,594.72,25.708z"/>
		<path fill-rule="evenodd" clip-rule="evenodd" d="M336.563,194.458c-1.411-3.39-0.722-6.372,1.259-9.113
			c1.443-1.999,3.43-3.979,5.863-2.867c1.741,0.794,2.952,3.008,4.074,4.793c0.507,0.805,0.22,2.108,0.327,3.691
			c-3.572-1.555-6.618-1.678-9.678,0.743c3.781,4.029,7.952,1.398,11.881,1.091c-1.485,6.971-4.092,9.656-10.646,8.994
			c-2.652-0.268-5.032-3.297-7.465-5.163c-0.041-0.031,0.681-1.552,1.291-1.818C334.345,194.426,335.445,194.557,336.563,194.458z"
			/>
		<path fill-rule="evenodd" clip-rule="evenodd" d="M409.599,209.341c5.441-4.829,5.424-4.812,8.658-1.629
			c1.651,1.624,2.964,3.015,0.69,5.342c-3.778,3.865-3.665,3.976-9.515-0.716c-5.8,4.659-5.608,4.456-9.179,1.095
			c-2.716-2.56-1.039-3.959,0.667-5.695C404.052,204.552,404.038,204.539,409.599,209.341z"/>
		<path fill-rule="evenodd" clip-rule="evenodd" d="M67.156,129.596c-7.546-6.39-7.241-5.382,0.013-12.113
			c1.647,1.488,3.307,2.987,5.26,4.752c1.625-1.534,3.292-3.108,5.659-5.343c2.064,1.997,4.078,3.944,6.091,5.892
			c-0.271,0.273-0.541,0.547-0.812,0.821c-0.06,0.191-0.07,0.423-0.188,0.567c-5.04,6.091-5.041,6.09-10.864,0.846
			C70.604,126.535,68.871,128.074,67.156,129.596z"/>
		<path fill-rule="evenodd" clip-rule="evenodd" d="M302.596,161.251c1.776,1.59,3.289,2.946,4.982,4.461
			c1.289-1.536,2.529-3.013,4.268-5.082c2.098,2.429,4.419,4.136,5.105,6.35c0.318,1.028-2.369,4.056-4.004,4.331
			c-1.721,0.29-3.812-1.626-5.986-2.697c-1.133,0.997-2.654,2.338-4.379,3.855c-1.774-1.772-3.488-3.483-5.442-5.436
			C299.06,164.998,300.719,163.24,302.596,161.251z"/>
		<path fill-rule="evenodd" clip-rule="evenodd" d="M198.075,258.679c1.608-1.457,3.042-2.757,4.453-4.035
			c6.391,4.679,6.419,5.78,0.062,10.736c-1.422-1.262-2.909-2.581-4.401-3.904c-1.764,1.157-3.449,2.833-5.421,3.304
			c-0.906,0.217-2.456-1.855-3.575-3.021c-2.708-2.822,0.62-3.896,1.819-5.336C192.79,254.289,192.964,254.434,198.075,258.679z"/>
		<path fill-rule="evenodd" clip-rule="evenodd" d="M583.137,17.729c1.683-0.263,2.855-0.446,4.249-0.664
			c-1.348-4.089-0.966-7.845,2.748-10.332c1.162-0.779,3.668-1.174,4.494-0.479c1.516,1.276,2.241,3.492,2.93,5.714
			c-3.324-1.216-6.187-1.874-8.888,1.037c2.769,4.859,6.941,2.816,10.839,2.089c-0.529,5.874-5.32,5.765-9.103,6.711
			C587.13,22.625,585.308,20.218,583.137,17.729z"/>
		<path fill-rule="evenodd" clip-rule="evenodd" d="M68.681,34.896c1.512,1.312,2.956,2.566,4.856,4.216
			c1.158-1.573,2.251-3.059,3.284-4.463c5.042,3.533,5.634,4.708,3.803,6.959c-2.472,3.038-3.125,2.952-7.723-1.129
			c-1.382,1.258-2.786,2.536-4.537,4.129c-1.608-1.666-3.066-3.176-4.815-4.987C65.331,37.98,66.865,36.568,68.681,34.896z"/>
		<path fill-rule="evenodd" clip-rule="evenodd" d="M166.028,83.15c3.721-4.673,3.721-4.673,8.813-0.88
			c1.222-1.163,2.465-2.345,3.951-3.759c1.535,1.469,3.043,2.912,4.962,4.748c-1.692,1.66-3.18,3.12-4.82,4.729
			c-1.591-1.458-2.845-2.608-4.093-3.751C169.728,87.936,169.728,87.936,166.028,83.15z"/>
		<path fill-rule="evenodd" clip-rule="evenodd" d="M441.2,126.435c-2.652,2.47-4.701,4.378-7.382,6.874
			c-2.095-2.741-4.834-4.849-5.152-7.274c-0.206-1.564,3.386-5.257,4.842-5.043C435.964,121.351,438.077,124.056,441.2,126.435z"/>
		<path fill-rule="evenodd" clip-rule="evenodd" d="M316.098,246.295c1.635,1.515,2.919,2.847,4.35,3.997
			c2.107,1.693,1.951,3.113,0.067,4.975c-3.849,3.804-7.138,3.299-9.456-1.797c-0.264-0.581,0.133-1.74,0.604-2.324
			C313.004,249.478,314.542,247.968,316.098,246.295z"/>
		<path fill-rule="evenodd" clip-rule="evenodd" d="M559.961,48.405c-1.617-1.469-3.127-2.84-5.027-4.565
			c1.83-1.874,3.355-3.435,4.812-4.926C565.781,43.142,565.773,44.421,559.961,48.405z"/>
		<path fill-rule="evenodd" clip-rule="evenodd" d="M322.711,83.144c-1.893,1.765-3.439,3.207-5.43,5.063
			c-1.633-1.836-3.046-3.425-4.531-5.096c1.556-1.553,3.044-3.038,4.842-4.831C319.062,79.678,320.576,81.117,322.711,83.144z"/>
		<path fill-rule="evenodd" clip-rule="evenodd" d="M521.833,33.279c-5.898-4.52-5.886-5.327-0.317-9.633
			c0.797,0.697,1.666,1.383,2.444,2.16c0.794,0.792,1.499,1.674,2.342,2.628C524.812,30.05,523.368,31.615,521.833,33.279z"/>
		<path fill-rule="evenodd" clip-rule="evenodd" fill="#FFFFFF" d="M576.949,237.789c1.416-4.914,4.633-8.125,7.413-7.823
			c3.146,0.341,7.142,5.202,7.755,9.771C587.078,239.09,582.142,238.456,576.949,237.789z"/>
		<path fill-rule="evenodd" clip-rule="evenodd" fill="#FFFFFF" d="M135.861,255.281c-8.396,2.013-14.493,0.151-17.942-5.396
			C123.855,247.561,134.777,249.535,135.861,255.281z"/>
		<path fill-rule="evenodd" clip-rule="evenodd" fill="#FFFFFF" d="M131.487,236.45c-4.394,0.782-8.787,1.564-13.787,2.454
			c1.297-4.281,3.176-7.181,6.33-8.82c1.06-0.551,3.191-0.107,4.252,0.672c1.464,1.075,2.377,2.898,3.527,4.401
			C131.702,235.589,131.595,236.02,131.487,236.45z"/>
		<path fill-rule="evenodd" clip-rule="evenodd" fill="#FFFFFF" d="M592.133,146.628c-5.046-0.654-9.979-1.294-14.905-1.933
			c0.447-4.058,3.947-7.953,6.812-7.898C587.209,136.855,591.496,141.868,592.133,146.628z"/>
		<path fill-rule="evenodd" clip-rule="evenodd" fill="#FFFFFF" d="M377.193,66.084c-4.935-0.566-9.876-1.076-14.799-1.72
			c-2.594-0.339-3.297-1.813-1.806-4.019c1.697-2.511,3.218-5.249,5.364-7.32c2.483-2.398,4.854-1.925,6.56,1.104
			c1.975,3.511,3.518,7.266,5.247,10.915C377.571,65.391,377.382,65.738,377.193,66.084z"/>
		<path fill-rule="evenodd" clip-rule="evenodd" fill="#FFFFFF" d="M357.612,144.541c-5.281,0-10.063,0-15.32,0
			c1.811-4.236,3.848-7.566,7.809-7.603C354.452,136.898,355.888,140.849,357.612,144.541z"/>
		<path fill-rule="evenodd" clip-rule="evenodd" fill="#FFFFFF" d="M129.507,63.951c-5.467,1.257-10.071,1.501-14.75,0.496
			c-2.816-0.605-3.576-2.171-2.274-4.604c1.191-2.228,2.362-4.574,4.045-6.405c2.476-2.694,5.513-2.625,7.598,0.356
			C126.232,56.805,127.625,60.316,129.507,63.951z"/>
	</g>
</g>
</svg>
