<?xml version="1.0" encoding="utf-8"?>
<!-- Generator: Adobe Illustrator 14.0.0, SVG Export Plug-In . SVG Version: 6.00 Build 43363)  -->
<!DOCTYPE svg PUBLIC "-//W3C//DTD SVG 1.1//EN" "http://www.w3.org/Graphics/SVG/1.1/DTD/svg11.dtd">
<svg version="1.1" xmlns="http://www.w3.org/2000/svg" xmlns:xlink="http://www.w3.org/1999/xlink" x="0px" y="0px" width="300px"
	 height="280px" viewBox="0 0 300 280" enable-background="new 0 0 300 280" xml:space="preserve">
<g id="Layer_1">
	<g id="Layer_1_1_">
	</g>
	<g id="_x30_1-Tareeq_jdeede">
		<g>
			<path d="M134.363,188.006c-0.634,0.875-1.731,1.441-2.65,1.988c0.919-0.547,2.281-0.582,2.915-1.457
				C134.489,188.553,134.489,187.986,134.363,188.006z"/>
			<path d="M142.844,179.848c-0.214-1.244-0.336-2.635-0.663-3.766c0.316,1.096,0.198,2.627,0.385,3.852
				C142.659,179.908,142.748,179.865,142.844,179.848z"/>
			<path d="M131.713,189.994c-2.742,1.635-5.877,3.1-9.01,4.506C125.836,193.094,128.971,191.629,131.713,189.994z"/>
			<path d="M221.288,147.99c0.198,0.197,0.039,0.756,0.528,0.662c1.738-0.072,2.72-0.904,3.578-1.855
				c-0.215-2.92-0.992-5.279-1.854-7.552c-1.032,0.006-3.183,0.219-3.976,0.529c0.011,1.404,0.334,2.492,0.397,3.843
				c-0.435,0.539-1.678,0.266-2.386,0.529c-0.118,1.496-0.2,3.03,0.132,5.168C219.377,149.346,220.004,148.34,221.288,147.99z
				 M218.24,144.811c0.836-0.225,1.898-0.221,2.252-0.928c0.117-0.85-0.1-2.447-0.266-3.445c0.709-0.354,1.815-0.307,2.783-0.398
				c0.579,2.106,3.506,7.548-0.531,7.951c-0.58-0.037-0.442-0.793-0.927-0.929c-1.093,0.453-1.87,1.222-3.181,1.457
				C218.076,147.535,218.318,146.012,218.24,144.811z"/>
			<path d="M211.748,153.025c1.206-0.25,1.939-0.976,2.914-1.459c-0.008-0.435-0.377-0.506-0.266-1.06
				c0.66-0.797,1.645-1.271,2.649-1.723c0.099-1.525-1.12-2.341-0.528-3.578c-1.492-0.517-1.482,1.367-2.916,1.326
				c-0.52-0.101-0.356-0.882-1.062-0.798c-0.985,1.136-2.616,1.623-3.444,2.916c0.293,0.326,0.295,0.941,0.53,1.326
				c-0.25,0.189-0.587,0.295-0.53,0.795c0.194,0.424,0.454,0.781,0.397,1.457c0.385,0.172,0.94,0.172,1.325,0
				C211.299,152.324,211.198,153,211.748,153.025z M210.289,151.566c-0.27-0.664,0.05-0.842,0.398-1.191
				c-0.162-0.545-0.369-1.045-0.531-1.59c0.482-0.977,1.542-1.373,2.254-2.121c0.788,1.156,2.299,0.422,2.914-0.396
				c0.414,0.603,0.861,1.17,0.796,2.252c-1.116,0.676-2.929,1.129-2.519,2.916c-0.634,0.117-0.979,0.523-1.457,0.795
				C211.538,152,211.275,151.008,210.289,151.566z"/>
			<path d="M200.352,154.086c0.729,0.551,2.597-0.037,3.182,0.662c0.632-0.152,1.105-0.557,1.986-0.662
				c1.276-0.156,3.076,0.654,3.312-0.664c0.062-0.459-0.719-0.076-0.794-0.396c-0.41-1.711,0.288-4.528-0.795-5.565
				c-1.63,0.36-5.015,0.108-7.023,0.531C200.143,150.236,200.499,152.121,200.352,154.086z M201.014,148.652
				c1.807-0.418,3.567-0.074,5.83-0.396c0.461,1.35,0.178,3.443,0.398,5.033c-1.448,0.104-2.239-0.113-3.312,0.664
				c-0.757-0.6-1.477-0.428-2.781-0.398C201.288,151.797,200.657,150.193,201.014,148.652z"/>
			<path d="M159.407,170.648c0.304-1.51-0.06-3.465-0.663-4.506c-0.973,0.043-1.791,0.239-2.385,0.662c0,0.311,0,0.618,0,0.93
				c-0.584-0.006-1.24,0.606-1.457,0.529c-0.424-1.212-0.555-2.658,0.396-3.312c0.49-0.096,0.568,0.227,1.061,0.131
				c1.143-1.426-1.436-2.158-0.267-3.311c1.345,0.555,2.636,1.162,4.373,1.323c-0.062-1.432,1.269-1.471,1.457-2.649
				c-0.103-0.029-0.153-0.111-0.131-0.266c-0.572-0.269-1.549-0.132-1.987-0.529c-0.113-0.863,0.547-0.953,0.396-1.855
				c-0.779-0.146-1.355-0.498-2.252-0.529c-0.494,1.492-1.329,2.646-1.855,4.107c-0.509-0.771-1.832-0.73-2.517-1.324
				c0.552-1.215,1.15-2.383,1.191-4.107c-0.104-0.03-0.153-0.112-0.133-0.266c-1.232-0.768-2.684-0.777-4.24-1.193
				c-1.24-0.332-2.466-1.162-3.843-1.323c-0.655-0.078-1.347,0.11-1.987,0c-1.477-0.259-3.217-2.117-4.903-0.795
				c-0.515,1.338-1.199,2.51-1.722,3.842c0.126,0.228,0.439,0.267,0.529,0.528c-0.692,1.031-0.627,2.818-1.458,3.711
				c-0.419,0.021-0.442-0.352-0.927-0.266c-0.932,2.56-2.089,4.891-2.915,7.555c0.487,0.482,1.461,0.48,2.12,0.793
				c-0.342,0.438-1.553,0.229-2.386,0.134c-0.659,1.284-0.481,3.405-1.192,4.639c0.325,0.97,2.998,0.834,3.313-0.133
				c0.033-0.606-0.601-0.549-0.53-1.192c0.25-0.234,0.875-0.097,1.324-0.132c0.633-0.78,0.988-1.84,1.591-2.649
				c-0.486,1.305,0.097,3.354,1.854,2.385c-0.222,0.885,0.467,0.859,0.928,1.061c-0.555,0.504-1.446,0.672-2.518,0.662
				c-0.16,0.457-0.288,0.947-0.265,1.59c1.656,0.611,3.294-0.227,4.902,0c0.264-0.311,0.306-0.844,0.265-1.459
				c0.338-0.233,0.646,0.148,0.929-0.264c0-0.529,0-1.061,0-1.59c-0.284-0.291-0.644-0.506-1.326-0.396
				c-0.24-1.131-0.745-3.104-0.132-4.242c0.528,0.043,0.979,0.009,1.192-0.264c-0.006-0.922-0.312-1.543-0.265-2.518
				c-0.064-0.422-0.758-0.215-0.663-0.797c0.285-0.9,1.758-0.148,2.386-0.131c0.405-0.258,0.124-1.201,0.794-1.193
				c0.432,0.188,0.3,0.938,0.663,1.193c0.771,0.065,1.482,0.194,2.386,0.131c0.393,0.313,0.486,0.926,1.192,0.93
				c0.738-0.367,1.242-0.969,1.723-1.592c0.735,0.016,0.192,0.711,0.265,1.193c0.393,0.271,0.863,0.463,0.662,1.323
				c-1.75,0.109-3.135-0.157-4.771,0.134c0.008,0.229-0.102,0.34-0.265,0.397c0.354,1.016,0.268,2.471,0.928,3.18
				c0.926-0.311,1.933-0.541,2.917-0.795c0.112,0.502,0.599,0.64,0.528,1.326c-0.229,0.256-0.594,0.377-0.795,0.662
				c0.244,0.946,0.386,2,0.929,2.647c0.854-0.383,2.188-0.283,3.047-0.662c0.403-1.047-0.08-1.627,0.397-2.647
				c0.087,0.662,0.4,1.101,0.662,1.588c0.749-0.549,1.244-0.051,1.987,0c-0.621,0.129-1.008,0.496-1.324,0.929
				c0.258,0.315,0.334,0.813,0.527,1.192c-0.022,0.373-0.629,0.166-0.527,0.662c0.086,0.442,0.412,0.647,0.527,1.062
				c0.533,0.092,0.758-0.128,1.194-0.134c1.034,2.097,2.983-0.918,4.238-1.457c-0.368-1.133-0.935-2.067-1.589-2.916
				C160.492,170.496,160.119,170.742,159.407,170.648z M158.348,158.061c0.25,0.146,0.625,0.168,0.928,0.267
				c0.01,0.494-0.215,0.758-0.53,0.926c-0.319,0.056-0.288-0.242-0.662-0.131C158.038,158.635,158.229,158.385,158.348,158.061z
				 M160.201,160.711c-0.149,0.424-0.27,0.879-0.266,1.457c-1.061-0.176-1.815-0.656-2.783-0.928
				C157.084,158.979,159.045,160.52,160.201,160.711z M140.062,152.893c2.258-0.666,3.104,1.103,5.167,1.062
				c-0.098,1.313-0.55,2.274-0.928,3.312c-1.579-0.719-3.471-1.123-5.433-1.459C139.051,154.621,139.701,153.902,140.062,152.893z
				 M142.844,157.928c-0.271,0.861-1.509-0.059-2.12,0.398c-0.391,1.773-0.924,3.404-1.061,5.432
				c-1.03,0.094-2.486,0.293-2.252-0.662c0.326-0.018,0.638-0.021,0.795,0.133c1.299-1.528,1.355-4.299,2.385-6.096
				C141.469,157.27,142.549,157.207,142.844,157.928z M136.219,161.107c0.604-0.162,0.521,0.362,1.06,0.266
				c0.876-1.199,1.038-3.113,1.723-4.506c0.405-0.096,0.482,0.135,0.795,0.133c-0.56,1.781-1.05,3.631-1.723,5.301
				c-1.015-0.264-1.049,0.453-1.457,0.795c-0.311-0.045-0.548-0.158-0.796-0.266C135.777,162.08,136.21,161.807,136.219,161.107z
				 M133.833,167.336c0.646-1.121,0.988-2.547,1.59-3.711c0.75,0.223,1.453,0.49,1.988,0.928c-0.418,1.217-1.208,2.062-1.591,3.312
				C135.255,167.592,134.578,167.43,133.833,167.336z M135.423,171.18c-0.426,0.027-0.561-0.236-1.06-0.135
				c-0.457,0.299-0.767,1.439-0.53,1.988c-0.325,0.15-1.036,0.355-1.325,0.133c0.741-1.053,0.104-2.229,0.663-3.709
				c0.744,0.006,1.575-0.074,1.987,0.264c0.494-0.213,0.604-0.809,0.928-1.193c0.416-0.062,0.35,0.357,0.663,0.398
				C136.476,169.846,135.672,170.234,135.423,171.18z M136.483,167.734c0.248-0.592,0.621-1.06,0.795-1.724
				c0.353,0.046,0.447,0.349,0.53,0.662c0.947-0.021,1.876-0.021,2.518,0.265c-0.596,0.465-2.091,0.028-1.591,1.59
				C137.267,168.898,137.45,168.291,136.483,167.734z M141.784,172.105c0.485,0.1,0.735-0.326,1.06,0
				c-0.587,0.346-1.369,0.733-0.928,1.723c-1.293,0.121-2.412,0.414-3.843,0.398c0.919-0.539,2.681-0.234,3.181-1.193
				c-0.423-0.506-0.239-1.615-1.325-1.457c-0.016-0.383,0.072-0.867-0.133-1.061c-0.759-0.052-0.867,0.547-1.723,0.397
				c-0.343-0.41,0.039-0.943,0-1.457c0.354,0,0.707,0,1.061,0c0.368-0.162,0.246-0.813,0.265-1.326
				c0.604,0.074,0.825-0.235,1.458-0.133c0.152-0.156,0.149-0.47,0.132-0.795C141.225,168.338,141.114,170.963,141.784,172.105z
				 M142.313,164.289c0.198,0.463,0.151,1.174,0.265,1.723c-1.125,0.207-2.182-0.188-3.975-0.266
				c-0.043-0.312-0.209-0.498-0.133-0.928C139.727,164.398,140.93,164.654,142.313,164.289z M145.361,161.24
				c-0.933-0.225-0.695,0.719-0.928,1.193c-0.566-0.229-1.266-0.326-2.12-0.267c-0.489,0.174-0.519,0.806-0.662,1.324
				c-0.476,0.063-0.766,0.217-1.193,0c-0.099-1.777,0.512-2.847,0.663-4.371c1.728,0.78,1.758-1.468,3.048-0.664
				c0.107,0.459-0.248,0.562,0,0.795c0.241,0.289,1.083-0.022,1.324,0.267C145.595,160.236,145.33,160.59,145.361,161.24z
				 M144.964,158.59c-0.323-1.693,0.782-3.104,1.06-4.637c1.476,0.025,2.428,0.576,3.711,0.795c0.028,1.133-0.364,1.844-0.796,2.518
				c-0.331-0.108-0.52-0.363-0.927-0.397c-0.586,0.166-0.386,1.116-0.796,1.459C146.594,158.291,145.05,157.559,144.964,158.59z
				 M149.866,163.359c-0.604-0.103-0.697-0.715-1.192-0.926c-0.564,0.01-0.927,0.221-1.59,0.133
				c-0.27-0.306-0.562-0.588-0.795-0.931c0.178-1.166-0.081-1.674-0.133-2.516c0.302-0.379,0.776,0.187,1.325,0
				c0.491-0.218,0.562-0.853,0.795-1.326c0.196,0.067,0.334,0.197,0.53,0.267c-0.011,0.606-0.383,0.854-0.265,1.59
				c0.404,0.565,1.701,0.242,2.252,0.662C150.689,161.363,150.616,162.637,149.866,163.359z M149.469,159.121
				c0.135-1.502,0.698-2.57,0.928-3.977c1.375,0.172,2.33,0.764,3.578,1.061c0.027,1.529-0.598,2.406-1.06,3.445
				C151.812,159.428,150.614,159.299,149.469,159.121z M154.239,171.443c-0.741,0.01-1.468,0.033-1.855,0.397
				c-0.351-0.225-0.337-0.812-0.528-1.192c0.023-0.506,0.737-0.32,0.795-0.795c-0.148-1-0.517-1.781-0.928-2.519
				c-1.261-0.067-2.01,0.377-3.049,0.529c-0.204-0.548-0.478-1.023-0.397-1.854c1.988,0.088,3.655-0.029,5.301,0
				C153.967,167.705,154.445,169.932,154.239,171.443z M154.372,164.951c-0.533,0.09-0.757-0.127-1.192-0.133
				c-0.019-0.785,0.43-1.568-0.529-1.59c-0.098-0.406,0.229-0.392,0.132-0.795c-0.235-0.474-1.015-0.398-1.324-0.798
				c0-0.438,0-0.883,0-1.323c1.118,0.559,2.545,0.812,3.71,1.323c0.012,0.72-0.312,1.104-0.266,1.855
				c0.134,0.309,0.455,0.428,0.928,0.397C155.557,164.242,154.161,163.777,154.372,164.951z M157.686,169.986
				c-0.479-0.377-0.809-0.676-1.459-0.267c-0.021-0.375-0.242-0.551-0.265-0.928c0.729-0.151,1.241-0.524,1.19-1.457
				c0.272-0.215,0.871-0.104,1.062-0.397c0.468,0.637,0.468,1.742,0.53,2.782C158.335,169.754,157.994,169.855,157.686,169.986z
				 M159.143,174.623c-0.431-0.232-0.351-0.975-1.192-0.795c0.307-0.582-0.401-1.148-0.397-1.855
				c1.223-0.104,2.18-0.469,3.312-0.662c0.158,0.726,0.637,1.131,0.795,1.855C160.747,173.578,160.076,174.232,159.143,174.623z"/>
			<path d="M225.264,153.555c-3.218,1.271-5.918,3.676-9.277,4.373c0.188,0.918,0.521,1.689,1.193,2.121
				c3.584-0.18,6.938-0.877,10.336-1.193C226.788,157.064,226.197,155.139,225.264,153.555z M217.047,158.855
				c0.196-0.865,1.398-0.724,1.855-1.326c0.486,0.264,0.468,1.033,0.662,1.592C218.753,158.895,217.65,159.457,217.047,158.855z
				 M219.83,157.133c1.27-1.293,3.546-1.578,4.902-2.783c0.717,1.185,1.48,2.316,1.724,3.978c-2.229-0.063-3.829,0.498-5.831,0.662
				C220.259,158.471,220.171,157.674,219.83,157.133z"/>
			<path d="M188.293,161.771c0.171-1.023,0.912-1.474,1.458-2.121c0.226,1.467-0.034,2.432,0.132,3.444
				c0.908,0.117,2.776,0.16,3.401-0.465l0.839-0.729c0.182-1.682-0.184-3.967-0.529-5.563c-1.234,0.277-2.691,1.004-3.843,0.929
				c0.076-1.048-0.209-1.734-0.662-2.255c-2.294-0.262-2.929,1.138-4.638,1.459c0.076,1.38,0.474,2.439,0.529,3.843
				C185.975,160.91,186.838,161.635,188.293,161.771z M190.547,158.061c0.99-0.158,1.557-0.74,2.648-0.795
				c0.312,1.229,0.078,3,0.544,4.076l-0.278,0.561c-0.792,0.4-1.811,0.576-2.914,0.664
				C190.504,161.506,190.575,159.535,190.547,158.061z M187.764,160.844c-1.136-0.322-2.218-0.697-2.254-2.121
				c0.738-0.367,1.573-0.637,2.783-0.529c0.164,0.543,0.49,0.923,0.531,1.591C188.521,160.189,187.455,159.828,187.764,160.844z
				 M189.751,157.529c0.229,0.324-0.146,1.176,0,1.854c-0.288-0.284-0.375-0.772-0.53-1.19
				C189.121,157.695,189.727,157.904,189.751,157.529z M187.102,155.941c0.563-0.012,0.926-0.224,1.59-0.135
				c0.194,0.426,0.5,0.735,0.397,1.459c-0.788,0.069-2.759,0.055-3.71,0.397C184.798,156.395,187.043,156.994,187.102,155.941z"/>
			<path d="M200.087,158.723c0.851-0.242,2.769-0.764,2.914-1.854c0.065-0.494-0.407-1.603-0.927-1.724
				c-0.613-0.141-2.098,1.172-2.915,1.062c-0.142,0.496,0.329,0.377,0.266,0.795c-2.042-0.108-2.771,1.445-2.254,3.181
				C198.395,159.945,199.582,159.678,200.087,158.723z M201.939,156.205c-0.019,0.328,0.07,0.549,0.267,0.662
				c-0.306,0.445-0.963,0.539-1.324,0.928c-0.405-0.123-0.325-0.734-0.663-0.928C200.619,156.473,201.204,156.262,201.939,156.205z
				 M197.833,158.193c0.209-0.234,0.711-0.174,0.928-0.398c0.341,0.146,0.261,0.713,0.267,1.193
				c-0.371,0.07-0.688,0.195-1.061,0.264C197.995,158.826,197.732,158.691,197.833,158.193z"/>
			<path d="M211.084,158.855c-0.316,1.737,0.021,4.938,0,7.287c0.501,0.104,1.537-0.287,2.121-0.529
				c0.24-1.305,0.242-2.848,0.529-4.107c0.402,0.189,0.791,0.023,1.192-0.133c0.216-0.992,0.591-2.479,0.265-3.578
				C213.671,157.996,212.127,158.176,211.084,158.855z M214.396,160.844c-0.431,0.076-0.616-0.092-0.927-0.133
				c-1.347,0.73,0.331,4.484-1.723,4.504c-0.222-2.484-0.297-3.781-0.134-5.83c0.875-0.318,1.628-0.756,2.914-0.662
				C214.502,159.445,214.621,160.316,214.396,160.844z"/>
			<path d="M164.973,163.229c1.099,0.447,1.645,1.449,2.916,1.724c0.619-0.22,0.649-1.027,1.061-1.459
				c0.648-0.031,1.002,0.233,1.723,0.133c0.391-0.746-0.251-1.731,0.131-2.519c-2.174-1.121-4.822-1.762-8.216-1.323
				C162.033,161.307,162.748,165.379,164.973,163.229z M163.25,160.844c2.406-0.773,4.927-0.086,6.625,0.928
				c-0.102,0.498,0.162,0.633,0.133,1.06c-0.502-0.072-0.828-0.32-1.458-0.265c-0.409,0.341-0.493,1.007-0.796,1.457
				c-1.029-0.473-1.693-1.311-2.781-1.723c-0.81-0.102-0.709,0.705-1.457,0.662C163.232,162.451,163.212,161.676,163.25,160.844z"/>
			<path d="M208.169,162.168c-3.166,1.338-5.728,3.283-9.274,4.24c-0.262,0.092,0.031,0.738-0.266,0.795
				c-0.708-0.281-1.525,0.156-2.253,0.266c0.537,1.91-0.312,3.611-0.396,5.564c0.521,0.758,1.571,0.988,2.385,1.457
				c0.671-1.139,1.656-1.965,3.71-1.723c0.481-0.836,0.849-2.367,0.53-3.576c1.389,0.994,1.527,3.24,2.914,4.238
				c0.971,0.038,1.66,0.991,3.047,0.397c0.259-0.972,1.153-1.539,1.062-2.386c-0.129-1.184-2.526-1.817-2.385-3.444
				c0.901-1.021,3.116-1.162,3.312-2.649C210.727,164.049,209.327,162.791,208.169,162.168z M201.544,171.973
				c-0.897-0.104-1.41,0.183-2.253,0.133c-0.523,0.271-0.609,0.982-0.927,1.459c-0.773-0.065-1.072-0.606-1.724-0.797
				c0.016-1.69,1.055-2.815,0.529-4.637c0.62-0.291,1.098-0.205,1.855-0.133c0.479,1.244,1.303,2.143,2.914,2.252
				C201.928,170.943,201.805,171.527,201.544,171.973z M206.314,167.734c0.312,1.762,1.371,2.779,2.385,3.842
				c-0.45,0.434-0.426,1.342-0.928,1.723c-1.19,0.219-0.793-1.15-2.121-0.795c-0.995-1.301-1.452-3.141-2.649-4.24
				c-1.542,0.719-3.325,0.812-3.18-1.061c0.708-0.922,2.444-1.344,3.976-2.121c2.294-1.164,5.118-3.543,5.963,0.133
				C209.127,166.57,207.244,166.676,206.314,167.734z"/>
			<path d="M172.922,162.566c-0.52,0.541-1.105,1.014-1.191,1.985c0.117,0.681,1.315,0.273,1.326,1.062
				c-0.367,0.297-1.229,0.098-1.692,0.297l-0.826,0.232c-0.956,0.104-1.733,0.387-2.386,0.795c-0.131,0.52,0.293,0.77,0,1.061
				c-0.49,0.094-0.567-0.227-1.061-0.133c-0.385,0.287,0.305,0.824-0.265,0.928c-0.552-0.154-0.552-0.863-1.192-0.928
				c-0.422,0.199-0.793,0.445-1.326,0.531c-0.478-0.67-0.402-1.894-0.793-2.65c-0.981,0.098-1.74,0.689-2.65,0.133
				c-0.105,1.305,0.662,2.514,1.06,3.975c0.898,0.146,1.128-0.375,1.724-0.53c0.515,1.475,0.987,2.987,1.457,4.506
				c2.043-0.166,3.006-1.412,5.434-1.19c0.355-0.132,0.138-0.834,0.396-1.062c1.996-0.33,3.106-1.009,5.168-1.724
				c1.682-0.584,4.136-1.143,4.24-2.518c0.045-0.572-1.242-2.789-1.59-3.18C177.383,162.607,174.934,163.426,172.922,162.566z
				 M162.455,168.926c-0.146-0.736-0.693-1.074-0.662-1.988c0.463,0.023,0.848-0.035,1.059-0.264
				c0.328,0.467,0.496,1.094,0.53,1.854C163.05,168.639,162.861,168.891,162.455,168.926z M170.008,171.842
				c-1.886-0.076-2.883,0.738-4.373,1.061c-0.434-1.157-0.927-2.254-1.061-3.711c0.512-0.02,0.611-0.446,1.191-0.397
				c0.114,0.418,0.242,0.817,0.53,1.062c0.705-0.181,1.618-0.148,1.591-1.062c0.568,0.039,0.877-0.185,1.192-0.396
				c0.094-0.332,0.13-0.545-0.132-0.797c1.656-1.709,2.156,1.987,2.648,2.649C171.341,171.053,169.732,170.508,170.008,171.842z
				 M172.523,170.25c-0.631-1.082-1.063-2.363-1.646-3.494l0.519-0.285c0.707,0.271,1.694-0.09,2.321-0.062
				c0.275-0.966-0.228-2.107-1.192-2.252c0.135-0.267,0.229-0.566,0.531-0.664c3.201,0.153,5.909,0.555,6.491,3.844
				C177.854,168.953,175.051,169.465,172.523,170.25z"/>
			<path d="M144.566,171.045c-0.128,0.979,0.06,2.639,0.397,3.578c1.519-0.125,4.825-0.195,5.168-1.59
				c0.213-0.867-0.736-2.102-0.796-3.18C147.853,170.357,145.832,170.324,144.566,171.045z M145.493,173.828
				c-0.069-0.725-0.316-1.271-0.265-2.121c0.982-0.475,2.179-0.736,3.578-0.793c-0.43,0.822,0.456,1.131,0.397,1.988
				C148.152,173.395,147.034,173.824,145.493,173.828z"/>
			<path d="M193.195,175.418c-0.2-0.383,0.193-0.604-0.396-0.662c-0.544-0.25-1.346-0.244-1.855-0.529
				c-0.451,0.291-1.224,0.847-1.987,0.396c-0.203-1.238,0.388-2.461-0.396-3.047c-1.674,0.67-3.701,0.982-5.302,1.723
				c-0.335,2.293-0.362,5.398,0,8.215c0.984-0.176,3.173,0.549,3.976-0.264c0.365-1.594-0.475-3.035-0.266-4.904
				c0.291-0.15,0.542-0.342,1.062-0.264c0.12,1.033,0.096,2.404,0.661,3.312c1.283,0.059,2.441,1.309,4.108,0.926
				c0.376-0.33,0.259-1.154,0.529-1.59c0.493,0.008,0.838-0.133,1.192-0.265c0.013-1.114,0.058-2.269-0.265-3.049
				C193.67,175.355,193.598,175.602,193.195,175.418z M188.293,175.152c-0.882-0.041-1.288,0.391-1.986,0.531
				c-0.22,1.616,0.195,3.071,0.264,5.034c-0.781,0.39-1.726-0.098-2.648,0c-0.339-2.424-0.132-4.182-0.133-6.758
				c1.373-0.524,2.812-0.983,4.372-1.324C188.443,173.236,188.223,174.34,188.293,175.152z M193.727,177.936
				c-0.596,0.023-0.961,0.277-1.326,0.531c-0.025,0.414,0.092,0.973-0.131,1.191c-0.506-0.113-0.879-0.357-1.592-0.264
				c-0.103-0.295-0.277-0.519-0.265-0.929c-0.589-0.104-0.796,0.177-1.324,0.132c-0.185-0.736-0.552-2.273,0-2.914
				c1.378,0.396,1.8-1.025,3.312-0.267c0.18,0.31,0.221,0.754,0.398,1.062c0.459,0.104,0.51-0.197,0.928-0.134
				C193.727,176.875,193.727,177.406,193.727,177.936z"/>
			<path d="M151.984,176.479c-0.032-0.893-0.596-1.258-1.19-1.59c-0.521,0.672-1.498,0.887-1.855,1.723
				c0.216,0.445,0.76,0.564,0.796,1.193c-0.427,0.191-0.743,0.494-1.192,0.662c-0.181-0.307-0.232-0.74-0.796-0.662
				c-1.078,0.422-2.032,0.971-3.18,1.324c0.604,1.781,0.627,4.143,1.987,5.168c1.265-0.547,2.938-0.684,3.578-1.855
				c-0.042-0.311-0.21-0.495-0.133-0.928c0.32-0.166,0.644-0.328,1.06-0.397c2.438,1.905,3.948-1.775,6.096-2.252
				c-0.481-0.843-1.311-5.125-2.518-5.3c-0.642-0.094-1.598,0.767-1.986,1.457c0.109,0.287,0.344,0.451,0.266,0.929
				C152.72,176.24,152.562,176.568,151.984,176.479z M146.554,183.369c-0.545-1.088-0.673-2.598-1.192-3.711
				c0.569-0.578,1.636-0.66,2.252-1.191c0.696,1.113,1.127,2.494,1.723,3.709C148.842,183.006,147.636,183.125,146.554,183.369z
				 M153.842,176.213c0.082-0.611-0.298-0.762-0.265-1.324c0.3-0.141,0.582-0.301,0.795-0.529c0.864,1.164,1.354,2.707,1.987,4.107
				c-1.555,0.609-2.332,1.998-3.977,2.518c-0.386-0.102-0.316-0.653-0.662-0.795c-0.841,0.043-1.574,0.191-2.12,0.529
				c-0.442-0.264-0.378-1.035-0.795-1.324c0.495-0.653,1.452-0.846,1.854-1.59c-0.021-0.641-0.639-0.688-0.662-1.326
				c0.392-0.139,0.39-0.672,1.061-0.528c0.271,0.436,0.393,1.02,0.529,1.59C152.74,177.498,153.198,176.762,153.842,176.213z"/>
			<path d="M172.395,177.805c-0.082,1.008,0.525,1.326,0.527,2.252c-0.255,0.191-0.727,0.854-0.927,0.662
				c0,0-0.377-0.238-0.53-1.098c-1.691,0.959-3.04,0.707-4.238,2.158c0.064,0.479,0.629,0.961,0.396,1.324
				c-0.809,0.414-1.423-0.164-2.12-0.267c-1.849,3.979-1.721,8.746-2.783,13.781c0.544,0.516,1.96,0.159,2.915,0.266
				c-0.044,0.486,0.146,0.736,0.266,1.062c1.521-0.021,3.056-0.053,4.24,0.266c0.601-1.078,1.116-2.24,1.06-3.977
				c-0.683-0.51-1.724-0.662-2.517-1.062c-0.021-1.489,0.996-4.151,0.252-4.106l-0.732-0.285c0.807-2.043,0.965-4.73,4.058-4.484
				c0.21-0.629,0.531-1.148,1.325-1.193c0.557,0.566,0.65,1.332,1.324,1.457c0.934,0.176,2.142-1.188,3.445-0.795
				c0.185-1.053,0.28-2.192,1.192-2.516c-0.155-2.23-0.573-4.197-1.06-6.098C176.645,175.652,174.879,177.934,172.395,177.805z
				 M168.507,189.998c-0.323,1.252-0.375,3.242-0.487,4.104c0.85,0.256,2.174,0.035,2.519,0.795c-0.231,0.871-0.32,1.89-0.927,2.386
				c-1.174-0.31-2.188-0.043-3.313-0.267c0.015-0.41-0.162-0.631-0.266-0.926c-0.927-0.143-1.773,0.389-2.517,0
				c0.545-2.502,0.396-5.699,1.457-7.686c1.166,0.158,1.805,0.846,2.916,1.061L168.507,189.998z M167.623,188.537
				c-0.807-0.475-1.764-0.801-2.65-1.193c-0.311-1.211,0.604-2.297,0.795-3.445c0.848,0.55,2.347,0.142,2.782-0.528
				c0.144-0.806-0.422-0.902-0.397-1.59c0.873-0.408,1.972-0.593,2.783-1.062c0.631,0.744,0.092,1.846,0.529,2.783
				C168.917,183.914,168.048,186.002,167.623,188.537z M175.839,181.115c0.453,0.121,0.316,0.832,0.396,1.326
				C176.014,182.117,175.516,181.568,175.839,181.115z M177.825,181.381c-0.045,0.574,0.151,1.389-0.265,1.592
				c-0.891-0.438-0.498-2.154-0.93-3.049c-0.9,0.203-1.611,0.596-2.119,1.191c0.241,0.908,0.868,1.43,1.062,2.387
				c-0.941,0.479-1.095-0.684-1.326-1.326c-0.503-0.281-0.733,0.145-1.325,0.133c-0.482-1.094,0.699-1.449,1.061-2.119
				c-0.188-0.518-0.314-1.098-0.662-1.459c1.551-0.834,3.25-1.52,4.506-2.647c0.602,1.297,0.925,2.873,0.928,4.771
				C178.416,181,178.105,181.176,177.825,181.381z"/>
			<path d="M155.829,187.211c-0.397,0-0.795,0-1.192,0c-0.195,0.158-0.205,0.502-0.396,0.664c-0.79-0.039-1.447,0.053-1.988,0.264
				c0.045,1.209,0.018,1.726,0.133,2.916c0.201,0.33,0.879,0.185,1.061,0.529c-0.194,0.293,0.017,0.988-0.397,1.061
				c-0.476,0.109-0.64-0.299-0.927,0c-0.407,0.496-0.186,1.027-0.266,1.986c0.242,0.201,0.742,0.143,0.928,0.398
				c-0.012,0.959-0.233,1.709-0.397,2.518c0.951,0.639,2.146,1.035,3.578,1.191c0.515-2.197,1.42-5.262,1.854-7.949
				c0.23-1.428,0.816-3.438,0.396-4.24C157.307,186.234,155.889,186.053,155.829,187.211z M155.432,197.812
				c-0.793-0.045-1.312-0.367-1.986-0.531c-0.105-1.074,0.311-1.631,0.396-2.516c0.027-0.691-0.865-0.462-1.061-0.931
				c-0.106-0.502,0.627-0.168,0.927-0.265c0.806-0.258,0.317-1.803,0.796-2.385c-0.236-0.516-0.949-0.553-1.324-0.928
				c0-0.531,0-1.061,0-1.592c0.654-0.252,0.936,0.066,1.59,0.135c0.326-0.117,0.574-0.311,0.53-0.797
				c0.541-0.127,0.849,0.328,1.191,0c0.334-0.107,0.185-0.697,0.397-0.926c0.319-0.055,0.288,0.242,0.662,0.131
				C156.92,190.82,156.326,194.467,155.432,197.812z"/>
			<path d="M147.879,192.113c-0.224-0.307-0.044-1.016-0.397-1.191c-0.449,0.037-0.761,0.211-1.325,0.133
				c-0.68,1.215-1.466,4.008-0.663,5.435c0.657-0.017,0.651,0.129,1.193,0c0.214,1.022,1.354,1.116,2.385,1.323
				c0.373-0.155,0.407-0.653,0.663-0.928c0.177,0.189,0.75,0.189,0.927,0c-0.124-2.022,0.18-3.619,0.531-5.168
				C149.903,190.729,149.303,192.389,147.879,192.113z M149.866,196.09c-0.854-0.191-0.86,0.465-1.192,0.795
				c-0.422-0.02-0.583-0.301-1.061-0.266c0.077-0.43-0.09-0.615-0.132-0.928c-0.525-0.047-1.271,0.123-1.59-0.133
				c0.217-1.24,0.244-2.67,0.662-3.709c0.73-0.156,0.188,0.961,0.662,1.061c1.396,0.158,2.396-0.078,3.049-0.664
				C149.864,193.26,149.817,194.627,149.866,196.09z"/>
			<path d="M142.977,192.113c-1.682,0.426-3.057,1.611-4.771,1.592c-0.285,2.648-2.141,5.633-1.325,8.082
				c0.543,0.014,1.086,0.025,1.458-0.133c0.192,0.293,0.089,0.883,0.396,1.061c0.868-0.318,1.285,0.436,2.386,0.266
				c0.854-1.397,0.644-3.862,1.457-5.301c0.215,0.199,0.978,0.199,1.192,0C143.979,195.855,144.811,192.678,142.977,192.113z
				 M143.108,196.885c-2.7-0.184-1.509,3.525-2.385,5.168c-0.566-0.008-0.971-0.178-1.458-0.266
				c0.023-0.598,0.163-0.662-0.132-1.061c-0.628-0.043-1.306,0.387-1.723,0.133c0.093-2.424,1.064-3.971,1.324-6.229
				c1.454-0.444,2.357-1.438,4.108-1.588C143.56,193.752,143.183,195.76,143.108,196.885z"/>
			<path d="M144.566,197.68c-0.253,1.133-0.272,1.826,0,2.916c0.98-0.098,1.618,0.146,2.518,0.131
				c0.37-0.776,0.526-1.77,0.529-2.914C146.633,197.799,145.539,197.268,144.566,197.68z M146.819,198.475
				c0.087,0.619-0.209,0.853-0.266,1.324c-0.441,0-0.883,0-1.325,0C144.586,198.568,145.704,197.996,146.819,198.475z"/>
			<path d="M130.653,199.535c-2.976,1.354-6.16,2.498-9.144,3.842c0,0.885,0,1.768,0,2.65c0.993,0.065,1.198,0.922,2.386,0.795
				c0.822-0.592,0.56-2.973,2.252-2.252c-0.112,0.682-0.458,1.131-1.192,1.19c-0.156,1.037-0.82,1.564-0.928,2.65
				c0.564,0.717,0.192,2.371,0.795,3.049c0.012,0.717-0.77,0.644-1.325,0.795c-0.154,0.685-0.361,1.315-0.662,1.854
				c0.338,0.367,0.963,0.449,1.061,1.06c-0.573,0.797-0.491,2.248-1.988,2.121c-0.191,0.514-0.304,1.108-0.265,1.854
				c0.271,0.213,0.868,0.104,1.061,0.396c-0.546,0.471-0.729,1.303-1.061,1.988c-0.379-0.021-0.242-0.553-0.266-0.928
				c-0.79-0.271-1.737-0.384-2.385-0.795c0.047-0.396,0.076-0.81,0.397-0.929c0.532,0.092,1.089,0.699,1.591,0.396
				c-0.007-1.473,1.212-3.619,0.795-4.901c-0.368-1.129-1.945-0.781-2.915-1.457c-1.003,1.131-1.423,4.062-1.061,5.696
				c-1.225,0.32-0.223,2.869-1.458,3.183c-0.078-0.424,0.249-0.41,0-0.664c-1.205-0.383-2.486-0.69-3.577-1.192
				c0.348-0.711,0.675-1.443,1.458-1.722c0.042-0.309-0.021-0.51-0.133-0.664c1.17-1.174,2.062-3.317,2.385-4.901
				c-0.79-0.4-1.956-0.836-2.915-0.662c-0.132-0.355-0.273-0.697-0.265-1.193c-0.574,0-1.148,0-1.723,0
				c-1.106,1.369-1.729,3.219-2.518,4.904c1.661,0.414,3.193,0.957,4.505,1.723c-1.279-0.002-2.22-0.342-3.445-0.398
				c-0.899,1.179-1.131,3.021-2.253,3.976c0.145,0.476,0.208,1.031,0.398,1.459c2.408,0.595,4.61,1.396,7.155,1.854
				c0.711-0.305,0.435-1.598,0.927-2.121c-0.056,1.138-0.497,1.888-0.662,2.914c1.211,0.47,2.513,0.845,4.107,0.931
				c0.311-0.133,0.161-0.726,0.397-0.931c1.617-0.024,2.333,0.851,4.108,0.664c0.794-1.473,1.341-3.852,1.325-5.696
				c0.23,0.008,0.411-0.031,0.529-0.136c0.998-3.909,2.792-7.711,2.783-12.188c0.792-2.521,2.226-4.397,2.782-7.153
				C131.338,200.264,131.188,199.707,130.653,199.535z M110.247,215.17c0.571-1.416,0.603-3.373,2.253-3.709
				c0.155,0.418-0.083,0.58,0.133,1.059c1.232-0.084,1.607,0.689,2.914,0.531c-0.04,1.078-1.048,2.297-1.457,3.445
				C112.734,216.129,111.336,215.805,110.247,215.17z M115.018,223.385c-2.008-0.213-4.63-0.506-6.096-1.457
				c0.239-1.916,1.109-5.295,3.975-3.842c-0.154,0.904-0.729,1.391-1.192,1.988c0.65,1.072,2.694,0.75,3.711,1.457
				C115.281,222.148,115.189,222.807,115.018,223.385z M119.125,213.979c0.795,0,1.236,0.354,1.723,0.662
				c-0.009,1.361-0.451,2.287-0.53,3.578c-0.73-0.109-1.235-0.443-1.855-0.664C118.544,216.225,118.846,215.111,119.125,213.979z
				 M119.125,225.242c-0.925-0.049-1.69-0.256-2.386-0.531c0.337-2.182,1.325-3.711,1.325-6.229c0.856,0.168-0.22,1.086,0,1.854
				c0.541,0.388,1.493,0.361,2.12,0.662C120.248,222.83,119.298,223.646,119.125,225.242z M123.763,225.107
				c-1.528,0.117-2.039-0.787-3.578-0.662c0.167-0.803,0.551-1.394,0.663-2.252c0.566-0.037,0.655,0.404,1.325,0.266
				c0.467-0.992,0.858-2.057,1.457-2.916c0.46,0.291,1.263,0.24,1.723,0.531C124.338,221.516,124.734,223.586,123.763,225.107z
				 M125.485,219.146c-0.885-0.354-2.24-0.234-2.915-0.795c0.019-0.382,0.553-0.242,0.927-0.267c0.602-0.987,0.89-2.291,1.458-3.312
				c-0.022-0.681-1.313-0.662-0.795-1.459c-0.125-0.479,0.522-0.185,0.795-0.265c0.441-0.573,0.539-1.491,1.061-1.987
				c-0.098-0.39-0.402-0.568-0.663-0.795c0.4-1.048-0.251-1.406-0.265-2.386c0.733-0.088,2.006,0.359,3.048,0.397
				C127.736,212.387,126.339,215.494,125.485,219.146z M128.268,207.352c-1.145,0.086-1.883-0.235-2.649-0.528
				c1.123-0.468,1.287-1.894,1.854-2.916c-1.828-0.875-4.001,0.133-3.976,1.987c-0.354-0.174-0.703-0.354-1.06-0.528
				c0-0.529,0-1.062,0-1.591c2.792-0.969,5.43-2.776,8.348-3.18C130.632,203.008,129.013,205.09,128.268,207.352z"/>
			<path d="M108.657,202.318c-4.384-0.695-7.109,0.776-10.866,1.588c-0.006,0.832,1.199,1.711,0.266,2.254
				c-0.497-1.254-1.753-0.945-2.253-2.121c-3.19,0.428-0.806,4.025-0.132,5.566c5.153-1.035,9.068-3.617,13.383-5.83
				C109.037,203.174,108.73,202.863,108.657,202.318z M96.466,208.811c-0.742-0.979-1.309-2.137-1.457-3.711
				c1.621,0.367,2.256,1.719,2.915,3.047C97.371,208.301,96.936,208.572,96.466,208.811z M98.852,207.75
				c-0.219-0.223-0.288-0.596-0.53-0.795c0.227-0.523,1.17-0.332,1.325-0.928c-0.033-0.762-0.558-1.031-0.662-1.723
				c1.098-0.316,2.151-0.677,3.577-0.662c0.302,0.891,0.958,1.428,1.325,2.252C102.057,206.361,101.039,207.641,98.852,207.75z
				 M104.946,205.232c-0.65-0.453-1.155-1.053-1.324-1.988c0.695-0.531,3.345-0.613,4.505-0.131
				C107.529,204.281,105.914,204.434,104.946,205.232z"/>
			<path d="M113.162,209.34c3.075,1.145,6.215,1.719,9.143,2.783c0.087-0.178,0.284-0.246,0.53-0.266
				c0.27-1.408,0.699-2.656,1.061-3.976c-0.389-0.539-1.039-0.815-1.723-1.062c-0.423,0.021-0.394,0.49-0.796,0.529
				c-0.54-0.033-0.653-0.494-1.324-0.396c-0.682,0.246-0.453,1.401-1.325,1.457c-0.64-1.099,0.58-2.543,0.265-3.843
				c-0.23,0.011-0.412-0.028-0.53-0.133c-1.225,1.47-3.319,2.068-5.035,3.047C113.301,208.064,113.197,208.668,113.162,209.34z
				 M120.053,208.016c0.797,0.453,1.942-0.227,2.782,0.131c-0.18,1.06-0.603,1.871-0.662,3.049
				c-0.977-0.084-1.505-0.614-2.253-0.928C120.211,209.43,120.379,208.941,120.053,208.016z M119.125,209.34
				c0.018,0.326,0.021,0.639-0.133,0.795c-0.441-0.133-0.91-0.236-1.324-0.396c0.103-0.119,0.142-0.302,0.132-0.531
				C118.379,209.115,118.546,209.434,119.125,209.34z M117.933,205.762c0.536,1.598-0.988,2.281-1.061,3.711
				c-1.138-0.055-1.935-0.451-2.915-0.662C114.071,206.584,116.993,207.164,117.933,205.762z"/>
			<path d="M77.12,209.869c0.394,0.535,0.754,1.104,0.928,1.857c1.756-0.322,2.696-1.457,4.373-1.857
				c0.029-0.646-0.404-0.832-0.398-1.457c0.49-0.084,0.789-0.359,1.458-0.266c0.303-0.695,0.062-1.648-0.265-2.119
				c-0.708-0.281-1.751-0.066-2.386,0.133c-0.37,0.322,0.322,0.787,0,1.061c-0.829,0.553-1.605-0.385-2.915-0.133
				c-1.048,1.027-2.687,1.465-3.843,2.385c-0.124,0.742,0.269,0.969,0.397,1.457C75.587,210.811,76.214,210.199,77.12,209.869z
				 M82.818,207.352c-0.312,0.043-0.497,0.211-0.928,0.133c-0.076-0.276-0.328-0.379-0.265-0.795
				C82.1,206.381,83.044,206.543,82.818,207.352z M80.036,208.281c0.231-0.121,0.66-0.047,0.794-0.266
				c0.358,0.305,0.314,1.01,0.663,1.323c-0.985,0.519-1.829,1.177-3.048,1.457c-0.229-0.653-0.485-1.28-0.928-1.723
				c-1.062,0.104-1.828,1.151-2.782,0.93C76.211,209.086,77.989,207.049,80.036,208.281z"/>
			<path d="M84.144,212.52c0.578,0.095,0.746-0.225,1.324-0.131c0.188,0.519,0.204,1.209,0.663,1.457
				c2.503-0.811,4.629-1.996,6.625-3.312c0.02,0.289,0.677-0.738,0.397-1.062c-0.502-1.438-1.236-2.649-2.252-3.578
				c-0.799,0.131-1.09,0.767-1.988,0.795c-0.387-0.098-0.256-0.715-0.795-0.662c-0.491,0.306-1.133,0.457-1.723,0.662
				c-0.008,0.494,0.134,0.838,0.266,1.193c-0.982,0.652-2.088,1.18-3.181,1.723C83.54,210.738,83.781,211.689,84.144,212.52z
				 M84.408,210.004c0.936-0.656,1.95-1.23,3.048-1.723c0.161-0.482-0.266-1.047,0-1.193c0.577-0.48,0.658,0.42,1.06,0.529
				c0.771-0.156,1.359-0.496,1.988-0.795c0.729,0.861,1.376,1.805,1.854,2.916c-1.419,1.672-3.69,2.492-5.963,3.312
				c0.004-0.577,0.079-1.229-0.265-1.459c-0.633-0.102-0.853,0.207-1.458,0.136C84.562,211.176,84.332,210.742,84.408,210.004z"/>
			<path d="M77.253,219.676c-0.361-1.053-1.179-1.648-1.458-2.783c0.616,0.078,0.8-0.18,1.192,0
				c0.207,0.369,0.326,0.822,0.663,1.062c1.249-0.449,2.619-1.92,4.107-0.929c0.648-0.366,1.544-0.487,2.12-0.928
				c-0.064-0.951-0.401-1.631-0.662-2.385c-0.879-0.172-0.669,0.744-1.458,0.662c-0.362-0.256-0.609-0.627-0.795-1.061
				c-0.352,0.002-0.757-0.049-0.927,0.133c-0.29-0.24-0.242-0.818-0.53-1.059c-1.659,0.327-2.86,1.112-4.241,1.723
				c-0.046,0.709,0.059,1.266,0.266,1.723c-0.5-0.826-1.115-1.535-1.458-2.52c-0.455-0.058-0.742,0.053-1.06,0.133
				c-0.646,1.873-1.021,4.014-1.59,5.963c0.587,0.562,1.098,1.199,1.59,1.855C74.595,220.793,76.312,220.445,77.253,219.676z
				 M79.107,213.314c0.035,0.408,0.288,0.596,0.398,0.928c0.499,0.102,0.633-0.16,1.06-0.131c0.092,0.524,0.583,0.652,0.795,1.059
				c0.671,0.096,0.785-0.363,1.325-0.396c0.07,0.371,0.194,0.689,0.265,1.062c-0.419-0.022-0.442,0.353-0.928,0.265
				c-0.546,0.104-0.248-0.636-0.794-0.529c-0.955,0.502-2.118,0.797-3.048,1.324c-0.72-0.119-0.448-1.23-1.59-0.929
				c-0.114-0.547-0.356-0.969-0.397-1.59C77.091,213.949,77.762,213.295,79.107,213.314z M72.482,219.277
				c0.259-1.596,0.713-2.996,1.06-4.504c1.134,1.34,1.575,3.373,2.651,4.77c-0.812,0.336-1.678,0.621-2.519,0.928
				C73.091,220.26,73.018,219.539,72.482,219.277z"/>
			<path d="M102.031,212.785c-2.475,1.221-9.294,3.004-5.83,6.229c3.81,0.945,7.043-1.551,7.951-4.771
				C103.568,213.635,102.897,213.111,102.031,212.785z M96.731,218.352c-1.317-1.278-0.274-2.408,1.192-3.182
				c1.749-0.92,3.993-1.918,5.168-0.795C102.201,216.916,99.981,218.988,96.731,218.352z"/>
			<path d="M86.131,221.133c-0.306-0.041-0.147,0.383-0.397,0.398c-1.481-0.016-2.901,1.154-4.107,1.854
				c0.064,1.65,0.424,2.111,0.396,3.445c1.081,0.555,3.022,0.248,3.976,0.93c0.319-0.545-0.254-0.869,0-1.193
				c1.289,0.08,2.458,0.279,3.312,0.795c-0.197,0.423-0.638,0.599-0.662,1.191c0.374,0.732,1.778,0.43,1.458,1.855
				c-1.1,0.117-1.091,0.736-2.253,0.266c-0.521,0.406-1.035,0.82-1.192,1.59c0.24,0.334,0.87,0.279,1.06,0.664
				c-0.37,0.91-0.596,1.965-1.192,2.648c-0.491-0.127-1.011-0.225-1.192-0.662c0.683-1.02,0.254-3.004,0.132-4.373
				c-1.832-0.199-3.219-0.844-5.167-0.928c-0.326,1.49-0.767,2.055-0.663,3.977c0.58,0.346,0.998,0.857,1.855,0.926
				c0.548-0.199,0.538-0.901,1.325-0.529c-0.099,0.39-0.32,0.652-0.53,0.929c-1.585,0.067-3.428-1.226-4.505-0.397
				c0.431,1.026,0.673,2.241,1.987,2.385c0.001,0.354-0.05,0.758,0.133,0.93c0.988-0.018,1.278,0.664,2.252,0.662
				c0.843-0.572,0.751-2.076,1.723-2.518c0.335,1.147-0.681,2.041-1.06,2.914c2.476,0.926,4.694,2.106,7.553,2.649
				c1.161-1.324,2.395-3.242,2.385-5.302c1.575-1.911,2.693-4.284,3.843-6.625c-0.02-2.821,2.403-4.295,2.65-7.286
				C95.685,220.504,90.168,221.164,86.131,221.133z M85.203,226.83c-0.731-0.285-1.887-0.145-2.518-0.529
				c0.164-1.135-0.286-1.656-0.265-2.65c1.071-0.604,2.054-1.303,3.444-1.59c0-0.133,0-0.264,0-0.397
				C86.103,223.125,85.703,225.436,85.203,226.83z M81.891,237.697c-0.539-0.035-0.899-0.25-1.325-0.398
				c-0.003-0.311,0.229-0.389,0.133-0.795c-0.187-0.389-0.741-0.408-1.325-0.396c-0.151-0.293-0.342-0.543-0.266-1.061
				c0.977-0.117,2.341,0.473,3.445,0.662C82.485,236.523,82.226,237.148,81.891,237.697z M86.396,225.904
				c0.251-1.088,0.09-2.262,0.398-3.182c0.131-0.392,0.85-0.611,0.396-1.062c2.941,0.135,5.07-0.354,7.288,0.266
				c0.043,0.617-0.411,0.738-0.529,1.193c-0.564,0.078-0.877-0.097-1.326-0.134c-0.826,1.072-1.149,2.648-1.987,3.712
				C89.062,226.594,87.918,226.061,86.396,225.904z M93.419,227.229c0.085,0.527-0.351,0.533-0.266,1.062
				c-0.867-0.062-1.368-0.485-2.12-0.662c0.934-1.146,1.106-3.045,2.386-3.844C93.157,224.576,91.702,226.91,93.419,227.229z
				 M83.745,235.047c-0.59-0.332,0.556-1.088,0.53-1.723c-0.853-1.428-2.472-0.111-3.445,0.266
				c-0.782-0.916,0.054-2.248,0.266-3.314c1.386,0.117,2.392,0.611,3.71,0.795C84.817,232.674,85.03,235.182,83.745,235.047z
				 M90.106,240.877c-2.198-0.586-4.19-1.375-6.229-2.121c0.217-0.623,0.675-1.004,0.795-1.721c2.515,0.268,4.077,1.486,6.229,2.119
				C90.691,239.783,90.413,240.344,90.106,240.877z M91.431,238.492c-1.858-0.658-3.725-1.311-5.433-2.121
				c0.146-0.264,0.712,0.162,1.192,0c0.426-0.148,0.376-0.771,0.53-1.193c1.08-0.293,1.957,0.195,3.048,0.266
				c0.021,0.33-0.208,0.41-0.265,0.664c0.166,0.496,0.883,0.441,1.457,0.529C92.028,237.498,91.543,237.809,91.431,238.492z
				 M92.623,235.178c-1.357-0.453-2.936-0.686-4.372-1.059c-0.042-0.617,0.265-0.885,0.265-1.457
				c0.103-0.676-0.846-0.303-0.795-0.928c0.438-0.568,0.794,0.057,1.325,0.133c0.486,0,0.508-0.465,0.795-0.662
				c0.748,0.385,1.281-0.211,1.59-0.664c-0.064-1.365-1.135-1.555-1.987-2.385c1.62,0.373,3.911,1.207,5.963,1.59
				C94.857,231.936,93.646,233.463,92.623,235.178z M95.804,228.553c-0.799,0.049-1.087-0.414-1.723-0.529
				c-0.107-0.637,0.581-0.479,0.397-1.192c-0.019-0.377-0.553-0.242-0.927-0.265c-0.138-1.639,0.55-2.452,1.59-2.916
				c-0.335-0.637,0.114-1.178,0.397-1.59c0.977,0.129,2.075,0.133,2.782,0.531C97.986,225.082,96.465,226.389,95.804,228.553z"/>
			<path d="M104.549,225.904c-0.468,0.312,0.133,0.984-0.265,1.457c-0.584-0.035-1.024-0.211-1.723-0.133
				c-0.234,1.002-0.576,1.897-0.53,3.18c2.204,1.008,4.116-0.324,6.891,0.398c0.709-0.927,1.197-2.072,1.458-3.445
				c0.248-0.146,1.101,0.209,1.06-0.531C109.861,225.492,107.128,225.299,104.549,225.904z M103.754,229.746
				c-0.381-0.016-0.867,0.072-1.06-0.133c0.127-0.535,0.271-1.055,0.397-1.59c0.388-0.033,0.407,0.299,0.795,0.266
				C103.728,228.66,103.74,229.203,103.754,229.746z M109.981,226.83c-0.155,1.348-0.562,2.441-1.192,3.314
				c-1.182-0.146-2.591-0.06-3.444-0.531c-0.256-1.006,0.036-1.826-0.133-2.783C106.33,225.947,108.896,226.035,109.981,226.83z"/>
			<path d="M77.65,230.145c0.703-0.182,1.061-0.707,1.325-1.326c-0.811-0.646-0.787-2.129-1.458-2.913
				c-1.923,0.415-3.525,1.153-5.035,1.985c-0.32,1.094-0.439,3.094-1.192,3.314c-0.025-0.73,0.38-1.598,0.266-1.988
				c-1.741-0.318-3.321,0.646-4.108,1.723c0.202,0.683,0.352,1.414,0.795,1.854c0.879,0.021,1.508,0.49,2.253,0.267
				c0.176-0.531,0.343-1.07,0.795-1.324c0.255,0.363,0.462,0.772,0.795,1.059c1.755-0.674,4.081-0.777,5.698-1.588
				C77.877,230.713,77.557,230.635,77.65,230.145z M69.833,232.396c-2.254-0.066-1.147-2.818,0.662-2.519
				C70.475,230.918,70.256,231.76,69.833,232.396z M76.855,231.07c-1.504,0.264-2.993,0.541-4.373,0.928
				c-0.064-1.08,0.69-2.369,0.796-3.709c0.952-0.814,2.388-1.145,3.709-1.59c0.3,0.938,0.781,1.693,1.061,2.65
				c-0.428,0.188-0.983,0.252-1.457,0.396C76.263,230.17,77.082,230.334,76.855,231.07z"/>
			<path d="M119.258,226.963c-1.291-0.09-2.978-0.859-4.108-0.264c0.065,1.143-0.217,2.463-0.132,3.576
				c0.314,0.197,1.313,0.18,0.928,0.664c-0.651,0.313-1.754-0.537-2.386-0.267c-0.065,0.666-0.172,1.322-0.133,2.386
				c1.116,0.739,2.899,0.812,4.506,1.061c0.297-0.234,0.265-0.795,0.529-1.061c0.288,0.86,1.82,0.477,2.519,0.928
				c1.211-1.308,1.526-3.51,1.987-5.564c-0.988-0.514-2.385-0.619-3.71-0.795C119.428,227.453,119.428,227.137,119.258,226.963z
				 M119.787,228.422c0.749,0.223,1.804,0.141,2.386,0.529c-0.274,1.537-0.607,3.016-1.192,4.24
				c-0.459-0.16-0.879-0.359-1.591-0.265C119.722,230.885,119.06,230.158,119.787,228.422z M117.535,233.324
				c-1.191-0.311-2.759-0.246-3.578-0.928c-0.106-0.461,0.197-0.511,0.133-0.929c0.764,0.119,1.401,0.365,2.12,0.529
				c0.445-0.373,0.265-0.551,0.397-1.19c0.835,0.225,1.995,0.125,2.12,1.061C117.714,231.402,117.833,232.691,117.535,233.324z
				 M118.197,230.275c-0.845-0.17-1.587-0.443-2.385-0.662c-0.21-0.81-0.014-1.164,0-2.252c1.403-0.168,2.703,0.33,3.312,0.529
				C119.03,228.9,118.183,229.158,118.197,230.275z"/>
			<path d="M112.633,246.045c-1.651-0.689-3.323-1.359-4.639-2.385c-0.581-0.141-0.435,0.447-0.927,0.396
				c-1.214-0.951-1.533-2.798-3.048-3.445c0.352-0.707,0.825-1.295,0.662-2.519c0.814-0.346,1.65,0.043,2.253-0.133
				c0.472-0.137,1.813-1.383,1.987-1.724c0.338-0.653,0.048-1.686,0.397-2.385c0.245-0.49,0.826-0.219,0.795-0.926
				c-2.382-0.158-4.859-2.119-7.022-1.193c-0.296-0.366-0.739-0.586-1.325-0.664c-0.514,0.548-0.851,1.271-1.59,1.593
				c0.029,1.662-1.128,2.141-1.855,3.047c0.245,0.685,1.479,0.377,1.723,1.062c-0.991,1.836-2.214,3.438-2.649,5.83
				c1.595,1.541,4.317,1.952,6.492,2.914c0.886,1.985,3.123,2.618,5.433,3.18c1.371,1.723,3.872,2.312,6.626,2.651
				c1.192-1.987,1.183-5.178,1.987-7.555c-1.447-0.187-2.473-0.795-3.976-0.929C113.217,243.625,113.163,245.074,112.633,246.045z
				 M104.152,232.662c2.073-0.219,3.162,0.547,4.77,0.795c-0.095,0.832-0.322,1.533-0.397,2.385c-1.108-0.092-0.941,1.09-1.59,1.457
				c-1.034,0.102-2.3-0.58-3.181-1.061C103.424,235.266,103.746,233.66,104.152,232.662z M102.959,237.035
				c-0.156,0.23-0.657-0.307-1.06-0.266c-0.087-0.66,0.367-0.781,0.53-1.193C102.775,235.893,102.468,236.861,102.959,237.035z
				 M102.694,232.793c-0.463,0.143-0.725,0.631-1.325,0.266C101.321,232.146,102.592,231.795,102.694,232.793z M99.646,235.576
				c0.187-0.564,0.587-0.914,0.795-1.457c0.656,0.006,0.801,0.523,1.325,0.662c-0.165,0.541-0.501,0.912-0.795,1.326
				C100.558,235.902,100.017,235.824,99.646,235.576z M104.682,244.852c-2.249-0.754-4.372-1.635-6.493-2.518
				c0.372-2.279,1.607-3.693,2.65-5.299c0.655,0.934,2.22,0.959,3.048,1.721c-0.079,0.973-0.992,1.211-0.928,1.988
				c0.09,1.078,1.564,1.154,2.253,1.988C105.239,243.643,104.873,244.16,104.682,244.852z M108.922,247.9
				c-1.604-0.295-2.923-0.877-3.71-1.988c0.263-0.576,0.399-1.279,0.662-1.855c0.701-0.039,0.701,0.625,1.193,0.795
				c0.5,0.06,0.622-0.262,0.927-0.396c0.76,0.299,1.401,0.719,1.723,1.457C109.401,246.523,109.198,247.248,108.922,247.9z
				 M114.223,250.285c-2.042-0.166-3.221-1.197-4.639-1.988c0.349-0.711,0.585-1.535,0.928-2.252
				c1.572,0.461,2.141,1.924,4.107,1.986C114.274,248.57,114.469,249.648,114.223,250.285z M116.475,244.322
				c0.238-0.018,0.28,0.162,0.53,0.133c-0.386,0.895-0.333,2.227-0.928,2.914C115.557,246.736,116.446,245.283,116.475,244.322z
				 M116.21,248.43c0.031,0.959-0.364,1.49-0.663,2.121c-0.646-0.471-0.264-1.619,0-2.254
				C115.922,248.188,115.891,248.484,116.21,248.43z M115.68,244.057c-0.076,1.205-0.427,2.135-0.795,3.049
				c-0.261-0.182-0.757-0.127-1.06-0.266C113.302,245.299,113.795,242.824,115.68,244.057z"/>
			<path d="M110.645,233.191c-0.821,1.74-1.062,4.062-1.723,5.963c0.647,0.457,1.79,0.418,2.782,0.529
				c0.284-0.246,0.239-0.82,0.663-0.929c-0.131,0.795,0.729,0.599,0.795,1.193c-0.084,0.446-0.381,0.68-0.266,1.325
				c0.554,0.507,1.067,1.054,2.253,0.927c1.012-1.285,1.354-3.24,1.723-5.166c-0.81-0.738-2.628-0.466-3.047-1.593
				c-0.332-0.174-0.416,0.525-0.53,0.134c-0.004-0.709,0.283-1.13,0.397-1.724C112.953,233.771,111.764,233.303,110.645,233.191z
				 M111.439,239.021c-0.642,0.022-1.062-0.174-1.59-0.267c0.189-1.709,0.648-3.147,1.061-4.637c0.835,0.004,1.46,0.217,1.986,0.53
				C112.575,236.271,111.947,237.586,111.439,239.021z M113.692,236.9c1.023,0.037,1.809,0.312,2.518,0.664
				c-0.171,1.418-0.73,2.449-1.061,3.711c-0.696,0.363-1.366-0.027-1.59-0.531c0.249-0.324,0.198-0.949,0.397-1.324
				c0.064-0.508-0.469-0.416-0.662-0.664C113.257,237.967,113.57,237.531,113.692,236.9z"/>
			<path d="M76.987,202.053c-0.161,0.5-0.576,0.748-0.529,1.457c0.382,0.061,0.414,0.469,0.928,0.396
				c0.533,0.094,0.325-0.557,0.795-0.529c1.442,0.789,1.907-0.525,2.12-1.59c1.887-0.164,3.161,0.285,4.902,0.266
				c0.431-0.012,0.094-0.789,0.662-0.662c1.143,0.051,1.19,1.195,1.591,1.986c2.354-0.494,4.844-0.162,6.36-1.59
				c-0.109-1.127-0.837-1.637-0.795-2.914c0.331-0.111,0.521-0.363,0.928-0.398c0.603,0.844-0.219,1.91,0.265,2.519
				c3.322-1.007,6.943-1.713,10.732-2.254c0.81,1.579,2.247,0.563,4.241,0.93c0.743-0.758,0.869-2.135,2.782-1.724
				c0.598-1.069,1.114-2.666,0.927-4.108c0.353-1.502,1.777-1.933,1.988-3.576c-0.619-0.309-1.275-0.579-1.723-1.061
				c0.938-0.054,1.531,0.235,2.518,0.133c0.713-1.363,1.235-2.916,2.253-3.976c-1.099-2.842-4.486-1.305-7.951-1.987
				c-0.373,0.155-0.443,0.614-0.662,0.928c-2.415-0.603-4.836-0.682-7.42-0.662c-0.407,0.785-0.749,1.636-0.928,2.648
				c0.325,0.471,1.068,0.522,1.458,0.928c-0.417,0.601-0.605,1.429-1.458,1.592c-0.454-0.254-0.619-0.797-1.061-1.061
				c0.559-1.568,0.898-4.041,0.796-5.83c-2.486-0.404-5.172,0.123-6.891,0.926c-0.02,0.858-0.03,1.709,0.265,2.254
				c0.615,0.181,1.311,0.279,2.12,0.267c0.092,0.312,0.307,1.186,0,1.457c-1.325,0.088-2.429-0.045-3.048-0.662
				c-0.573-1.371,0.584-3.217-0.265-4.109c-0.246-0.148-0.984,0.096-1.59,0c-0.363,0.256-0.185,1.053-0.663,1.193
				c-0.401,0.182-0.474-0.062-1.06,0c-0.104-0.736-0.239-1.439-0.397-2.121c-1.3-0.238-1.308,0.813-1.854,1.326
				c-0.221,0-0.441,0-0.662,0c-0.418-0.201-0.441-0.795-0.663-1.191c-1.49-0.211-1.11,1.449-2.782,1.059
				c-0.769,2.633-1.662,5.142-2.386,7.818c0.775,0.24,1.226,0.807,2.12,0.928c1.014-0.887,1.274-2.525,2.121-3.578
				c2.112,0.715,4.896,0.758,7.42,1.062c-0.113,0.59-0.455,1.521-0.265,1.985c0.684,0.199,1.204,0.562,1.854,0.797
				c0.624-0.612,0.391-2.084,1.192-2.518c0.855,0.35-0.164,0.902-0.132,1.588c0.671,0.389,0.977,1.146,2.12,1.062
				c0.462-0.154,0.336-0.9,0.927-0.929c0.761-0.096,1.082,0.244,1.591,0.398c0.449-0.346,0.467-1.123,0.795-1.59
				c0.629,1.34-1.315,1.326-1.457,2.65c1.076,0.145,1.029,1.49,1.722,1.985c0.572,0.412,1.314,0.244,2.253,0.398
				c2.005-1.22,1.138-5.312,2.253-7.423c0.708,0.162,1.266-0.323,1.723,0c-0.118,0.324-0.31,0.576-0.266,1.062
				c0.711,0.604,1.912-0.198,2.915,0.133c-0.944,0.603-0.803,2.289-2.518,2.121c-0.382,0.767-0.923,1.373-1.062,2.386
				c1.306,0.327,2.729,0.539,3.313,1.59c-1.949,0.246-4.53,1.146-5.83,0.133c-0.316,0.215-0.584,0.475-0.928,0.662
				c0.037,0.449,0.211,0.762,0.132,1.324c-1.524,0.914-2.777-0.521-3.842-0.927c-0.314,0.304,0.049,1.285-0.266,1.589
				c-1.641,0.309-2.066-0.234-2.782-1.06c-0.767,0.071-1.298,0.381-1.855,0.662c-0.013-0.207,0.018-0.459-0.265-0.396
				c-1.241,0.216-2.493,0.423-3.843,0.529c0-0.265,0-0.529,0-0.795c-3.148,0.228-6.493,0.557-9.806,0.396
				c-0.161,0.238-0.024,0.771-0.265,0.928c-0.918-0.053-1.099-0.844-1.59-1.323c-1.47,1.209-1.348,3.485-1.988,5.301
				C76.491,201.578,76.993,201.561,76.987,202.053z M82.95,190.127c-0.641,0.023-1.013-0.225-1.324-0.529
				c0.062-0.91,0.585-1.358,0.662-2.254c0.727-0.02,1.428-0.014,1.987,0.133C83.861,188.389,83.492,189.342,82.95,190.127z
				 M92.491,187.344c-3.532,0.484-6.463-0.779-9.806-0.928c-0.22-1.121,0.914-1.986,0.928-3.312
				c1.051,0.168,1.581-0.186,1.723-0.928c0.683,0.025,0.465,0.949,1.06,1.061c0.784,0.003,0.684-0.094,1.325-0.133
				c0.505-0.112,0.354-0.883,0.663-1.19c0.659,0.135,0.462,1.127,0.529,1.854c0.59,0.409,1.619,0.401,2.253,0.133
				c0.393-0.226,0.326-0.91,0.53-1.324c0.309,0,0.618,0,0.927,0C92.405,184.447,92.355,185.74,92.491,187.344z M93.816,190.26
				c-0.375,0.109-0.344-0.188-0.663-0.133c-0.237-1.012-0.318-2.953,1.325-2.518C94.104,188.338,94.059,189.398,93.816,190.26z
				 M99.381,189.729c-0.695,0.078-1.002-0.231-1.722-0.131c-0.437,0.433-0.766,1.361-1.591,0.662
				c0.257-0.627,0.787-0.979,0.928-1.723c1.086-0.115,1.783,0.16,2.65,0.266C99.725,189.277,99.492,189.443,99.381,189.729z
				 M99.381,186.945c-0.568,0.315-1.263,0.506-2.119,0.531c-0.282-0.822-0.185-2.023-0.396-2.916
				c-0.537-0.347-1.887,0.121-2.253-0.396c0-0.178,0-0.354,0-0.529c1.561-0.943,3.033-0.984,5.433-0.928
				C99.935,184.23,99.85,185.781,99.381,186.945z M102.694,193.572c-0.405-0.215-1.077-0.16-1.458-0.398
				c-0.384-0.322-0.248-1.164-0.662-1.457c0.528-0.488,0.904-1.127,1.192-1.855c0.724-0.151,1.396-0.151,2.12,0
				C104.023,191.633,103.409,192.652,102.694,193.572z M107.994,187.211c-0.197-0.213,0.114-0.664,0-1.191
				c-0.956-0.396-2.07,0.115-3.18,0c-0.752,0.484-0.471,2.002-0.795,2.914c-0.516-0.057-1.049-0.1-1.458-0.266
				c1.196-0.893,1.106-2.611-0.662-2.781c0.026-0.635,0.328-0.996,0.53-1.457c2.362,0.021,4.445,0.322,6.758,0.396
				c0.258,0.537,0.352,1.238,0.396,1.988C108.856,186.936,108.862,187.52,107.994,187.211z M110.38,184.164
				c1.759-0.09,5.483-0.527,6.625,1.059c-0.589,1.135-1.276,2.17-1.723,3.445c-0.643,0.025-1.062-0.174-1.59-0.264
				c0.057-0.543-0.123-0.85-0.266-1.193c-1.058-0.283-1.793-0.07-2.782-0.396C110.382,186.105,110.353,185.162,110.38,184.164z
				 M112.765,188.271c-0.87-0.424-1.654,0.733-2.518,0C110.329,187.221,112.608,187.152,112.765,188.271z M107.465,191.982
				c0.038-0.58,0.231-1.006,0.927-0.928c0.927-0.914,1.402-2.425,3.312-1.988c0.581,0.744,1.611,1.039,2.253,1.723
				c0.04,0.615-0.507,0.641-0.928,0.795c0.015,0.943-0.427,1.428-0.795,1.988C110.52,193.092,108.6,193.234,107.465,191.982z
				 M111.175,194.234c-0.514-0.09-0.472,0-0.795-0.133C110.385,193.703,111.32,193.717,111.175,194.234z M112.103,194.896
				c-0.043,0.975-0.174,1.858-0.53,2.518c-1.573-0.16-2.428,0.398-2.65,1.59c-0.829-0.098-1.675-0.18-2.65-0.131
				c-0.514-0.635-0.622-1.676-0.662-2.783C106.987,194.906,109.61,194.967,112.103,194.896z M95.804,196.752
				c0.366,1.377,1.67,1.107,3.313,1.061c0.478-0.008,0.273-0.696,0.529-0.928c0.911,0.633,3.124,0.783,3.976,0
				c0.043-0.488-0.113-1.174,0.132-1.457c0.779,0.412,1.001,1.383,1.061,2.519c-3.5,0.342-6.545,1.141-9.806,1.723
				c-0.49-0.987,0.146-1.973-0.265-2.651C95.115,196.947,95.433,196.822,95.804,196.752z M93.816,197.016
				c0.038,1.232-1.455,0.933-1.723,1.857c0.272,0.918,0.743,1.641,0.928,2.648c-0.657,0.227-1.194,0.571-1.988,0.662
				c-0.543-1.224-0.585-2.947-0.795-4.504C91.391,197.418,92.649,197.264,93.816,197.016z M87.854,202.582
				c-0.195-0.688-0.499-1.268-0.795-1.855c-0.513,0.072-0.647-0.235-1.193-0.131c0-0.443,0-0.885,0-1.326
				c1.234,0.539,1.917-0.371,3.313-0.266c0.154,1.082,0.437,2.037,0.397,3.314C89.162,202.463,88.527,202.406,87.854,202.582z
				 M87.854,198.211c0.177-0.586,1.328-0.123,1.457-0.135C89.003,198.217,88.048,198.395,87.854,198.211z M85.733,197.016
				c0.99-0.07,2.991-0.479,3.445,0.135c-0.723,0.06-1.089-0.237-1.854-0.135c-0.693,0.265-0.074,1.035-0.397,1.592
				C85.894,198.729,85.514,197.736,85.733,197.016z M80.83,197.016c1.202-0.223,2.853,0.326,4.108,0c0.03,1.312,0.34,3,0,4.242
				c-1.748-0.107-3.409-0.15-4.506-0.266C80.652,199.754,80.953,198.598,80.83,197.016z M78.048,197.281
				c0.65,0.322,1.396,0.547,2.12,0.795c-0.382,1.811-0.48,3.143-0.928,4.771c-0.858-0.744-1.666,0.297-2.12,0.266
				c0.062-0.646,0.581-0.834,0.663-1.459c-0.041-0.443-0.443-0.527-0.796-0.662C77.365,199.779,77.21,198.035,78.048,197.281z"/>
			<path d="M143.91,180.719c-0.354-0.645-0.924-4.668-1.332-5.229c-0.243-0.337-1.912,0.073-2.915,0.062
				c-0.271,0.215,0.006,0.979-0.265,1.193c-0.382,0.016-0.867-0.074-1.06,0.131c-0.828,1.461,0.868,4.436-0.397,5.434
				c-0.631-1.623-0.573-3.932-0.796-5.963c-0.476-0.275-1.433-0.068-2.119-0.133c-0.346,0.377-0.167,1.154-0.266,1.459
				c-0.602,0.061-1.087,0.238-1.723,0.264c0.105-0.457-0.147-0.559-0.265-0.795c-0.838,0.072-1.741,0.697-2.386,0.531
				c0.312-0.971,1.229-1.336,0.928-2.916c-0.83,0.33-1.609-0.359-2.253-0.133c-0.296,0.322-0.026,1.211-0.529,1.326
				c-0.354,0-0.707,0-1.062,0c-0.286,0.857-0.807,2.152-0.265,3.047c-1.454,2.988-3.992,7.607-5.565,10.998
				c-1.08,2.33-1.365,4.23,0.928,5.301c4.127-1.791,7.698-4.139,11.926-5.83c0.549-0.152,7.585-3.484,9.673-4.572
				C144.14,183.369,144.264,181.363,143.91,180.719z M135.688,178.068c0.217-0.355-0.181-0.68,0.132-1.06c0.177,0,0.354,0,0.53,0
				c0.293,1.226-0.221,2.437,0.266,3.443c-0.616,0.577-1.88,0.508-2.65,0.928c-0.323-0.735-0.405-1.715-0.662-2.519
				C133.917,178.418,135.007,178.447,135.688,178.068z M131.846,178.201c0.729,0.418,0.622,1.43,0.795,2.119
				c0.509,2.039,1.426,4.332,1.855,6.625c-0.651,0.631-1.782,0.781-2.65,1.193c-0.465-0.64-0.596-1.613-1.061-2.253
				c0.404-0.877,0.896-1.666,0.928-2.913c-0.538-0.662-0.442-1.144-0.397-2.388c-0.366-0.957-2.305-0.346-2.65-1.324
				C129.862,179.045,130.638,178.406,131.846,178.201z M129.328,175.287c0.566,0.006,0.97,0.178,1.457,0.264
				c-0.13,0.783-0.709,0.357-1.457,0.398C129.328,175.727,129.328,175.508,129.328,175.287z M127.87,176.611
				c0.533,0.307,1.733-0.055,2.253,0.264c-0.353,1.266-1.032,1.59-2.518,1.193C127.393,177.727,127.846,177.135,127.87,176.611z
				 M131.713,189.994c-2.742,1.635-5.877,3.1-9.01,4.506c-0.783-0.234-0.894-1.139-1.326-1.723
				c1.729-4.633,4.058-8.664,6.229-12.854c0.452,0.828,1.909,0.652,2.782,1.062c0.089,0.75-0.121,1.203-0.265,1.723
				c-0.158,0.555,0.559,0.236,0.662,0.529c-1.023,2.188-0.651,4.037,0.398,5.963c1.044-0.258,2.118-1.018,3.18-1.193
				c0.126-0.02,0.126,0.547,0.265,0.531C133.994,189.412,132.632,189.447,131.713,189.994z M135.423,188.271
				c0.292-1.73-0.856-4.127-1.192-6.097c0.694-0.364,1.465-0.655,2.519-0.661c0.37,1.983,0.637,3.606,0.662,5.696
				C136.856,187.674,136.106,187.939,135.423,188.271z M139.134,177.539c0.545,0.104,0.68-0.203,1.192-0.133
				c0.416-0.365-0.002-0.779,0.265-1.193c0.484-0.09,0.964-0.184,1.59-0.131c0.327,1.131,0.449,2.521,0.663,3.766
				c-0.096,0.019-0.185,0.062-0.278,0.086c-1.105,0.301-2.104,1.033-3.167,1.316C139.28,180.09,138.88,178.641,139.134,177.539z
				 M142.982,184.041c-1.246,0.83-3.138,1.938-4.776,2.375c-0.025-0.99,0.086-2.117-0.133-2.914
				c1.029-1.002,3.337-2.031,4.771-2.631C143.371,181.67,143.027,182.787,142.982,184.041z"/>
		</g>
		<g>
			<path fill="#179665" d="M143.939,74.999c-1.032-0.506-0.267-1.682-1.284-2.201c-0.067-3.247,1.617-4.742,2.201-7.336
				c2.84-1.58,7.522-2.655,10.267-2.2c0.059,0.009-0.09,0.285-0.184,0.182c1.838,0.454,1.668,6.345-0.365,7.521
				c-2.217,1.281-6.2,0.383-8.434,2.018C145.194,73.672,145.198,74.835,143.939,74.999z"/>
			<path fill="#179665" d="M52.422,99.391c0.7,1.802,0.612,4.316-0.184,5.869c-4.592,0.856-8.204,3.646-12.47,4.218
				c-3.017-2.254-0.638-5.441,0.917-7.885C44.674,101.145,48.449,98.642,52.422,99.391z"/>
			<path fill="#179665" d="M110.011,80.316c0.748-1.249,0.451-2.884,0.733-4.585c0.126-0.747,0.538-1.054,0.551-1.65
				c0.039-1.675-0.613-3.741-0.733-5.686c-0.161-2.584,0.454-4.336,0-6.235c-0.249-1.033-1.499-2.989-2.568-3.119
				c-2.449-0.295-3.981,3.357-3.668,6.419c0.065,0.636,1.04,2.385,1.101,2.935c0.076,0.691-0.346,1.959-0.367,3.118
				c-0.066,3.531,0.561,5.769-0.734,7.703c-2.558,3.821-10.987,2.466-13.021,4.77c-2.155,2.439,0.655,5.048,3.851,5.318
				c1.561,0.132,3.786-0.635,5.869-0.183c-2.893,1.157-8.104,2.051-12.104,2.384c-1.373,0.114-2.529-0.384-3.667-0.734
				c-0.777-1.363-1.644-2.636-1.834-4.585c-3.33-3.041-6.367-15.263-12.837-10.454c-0.019,1.427-0.372,2.658-0.733,4.218
				c0.801,0.706,0.628,1.3,0.733,2.568c1.099,1.713,2.673,2.95,2.567,5.869c-2.211,0.154-5.19,1.789-6.786,0.549
				c-1.931-1.499,0.87-5.865-2.017-6.969c-2.582,1.799-3.922,5.066-3.667,8.62c0.271,3.826,4.496,7.25,8.252,7.336
				c3.928,0.091,5.272-3.297,8.254-4.586c3.946,3.056,8.877,4.769,14.671,5.136c3.303-0.029,8-2.052,11.555-1.65
				c1.443-2.347,5.394-2.188,8.252-3.118c1.171-1.383,3.235-1.784,3.484-4.218c0.292-2.845-1.71-4.655-3.667-6.053
				c-1.391-0.075-2.688-0.247-3.484-0.917C108.405,81.691,109.446,81.26,110.011,80.316z M122.848,91.504
				c1.431-1.547,2.678-8.001,2.568-11.372c-0.088-2.714-0.629-6.438-0.917-9.903c-0.261-3.133-0.509-8.105-3.301-8.069
				c-0.872,0.011-3.668,2.186-4.035,3.484c-0.28,0.989,0.203,1.611,0.183,2.384c-0.022,0.888-0.484,1.856-0.549,2.752
				c-0.291,3.969,0.866,6.989,1.283,9.536c0.408,2.483,0.345,5.667,1.101,7.703C119.658,89.303,121.049,93.451,122.848,91.504z
				 M146.141,72.981c2.234-1.635,6.216-0.737,8.434-2.018c2.032-1.176,2.202-7.066,0.364-7.521c0.095,0.103,0.242-0.173,0.185-0.182
				c-2.744-0.455-7.427,0.621-10.267,2.2c-0.584,2.595-2.268,4.09-2.201,7.336c1.018,0.52,0.252,1.695,1.284,2.201
				C145.198,74.835,145.194,73.672,146.141,72.981z M205.928,78.849c-0.871-1.725-1.756-3.864-2.385-6.418
				c-0.762-3.096-1.127-7.299-3.668-7.703c-5.234,2.397-3.006,13.689-1.283,18.891c-1.723,3.653-6.893,5.759-11.555,4.769
				c0.16-1.337,0.061-3.798-1.1-4.401c-1.855-0.143-2.465,0.959-3.486,1.649c-1.283,3.771-1.336,7.327-2.566,10.821
				c-4.311,5.234-12.947,6.749-21.645,6.785c-2.273,2.091-0.377,6.951,1.469,7.703c0.668,0.273,2.844,0.098,4.219,0
				c2.135-0.151,3.48-0.709,4.771-1.101c3.221-0.977,6.567-1.915,8.803-2.75c4.015-2.894,6.793-7.024,9.722-11.004
				c5.477-0.556,10.485-1.044,17.055-2.201c2.873-0.507,7.305-1.4,9.904-2.752c1.284-0.667,3.385-2.479,3.852-3.484
				c0.703-1.512,0.338-3.091,0.918-4.768c-0.473-0.166-0.867-1.645-1.285-0.734c0.191,0.075,0.645,0.711,0,0.551
				C217.381,78.845,210.188,77.77,205.928,78.849z M169.062,86.002c1.289-1.805,1.867-4.58,1.651-7.336
				c-0.146-1.868-1.769-5.875-3.668-6.052c-1.383-0.128-1.896,1.055-2.937,1.651c-0.018,1.912-0.549,3.392-0.551,5.502
				c0.834,0.837,0.896,1.519,0.918,2.935c-0.535,0.809-1.537,1.151-2.567,1.467c-2.47-1.848-3.867-5.284-7.154-4.768
				c-3.901,0.611-7.72,9.802-3.481,11.92c1.449,0.727,2.559-0.25,4.582,0c-3.873,4.827-17.085,7.753-17.418-1.466
				c-0.109-3.041,2.199-5.377,1.1-9.17c-1.94-0.652-3.274,0.71-4.585,1.283c-2.239,4.364-3.331,10.779-0.733,15.956
				c0.272,0.542,1.479,2.375,1.833,2.751c3.022,3.182,9.706,3.545,14.304,1.65c3.451-1.424,6.189-3.242,8.434-5.502
				c1.771-1.782,2.084-3.194,2.385-5.686C163.656,89.371,167.027,88.858,169.062,86.002z M43.436,87.286
				c-0.563-0.879-0.659-2.44-1.101-4.036c-0.708-2.568-2.771-9.874-6.051-9.536c-1.413,0.146-3.059,2.423-2.935,4.218
				c0.104,1.5,1.423,3.326,2.018,4.953c0.655,1.791,1.455,3.186,2.017,4.951c-2.773,2.102-6.866,4.267-11.004,3.852
				c-0.119-2.387,0.093-6.554-1.834-6.602c-1.856-0.048-2.573,5.688-2.383,8.251c0.308,4.167,4.268,6.011,8.436,5.32
				c0.816-0.135,1.881-0.856,2.934-1.285c2.805-1.138,4.865-1.932,6.053-4.218c2.056,1.946,7.155,4.462,10.636,2.751
				c0.365-0.18,2.254-2.072,2.935-2.935c2.444-3.1,3.053-5.979,2.751-10.821c-0.067-1.076,0.187-2.242-0.184-2.935
				c-0.7-1.309-2.864-1.188-4.034-1.1c-0.819,1.05-2.04,1.304-2.385,2.568c-0.129,0.472,0.434,1.496,0.367,2.383
				c-0.149,1.956,0.44,4.186-0.551,5.686C46.924,88.735,44.341,88.696,43.436,87.286z M162.828,92.055
				c-1.545,1.755-1.938,5.139,0.184,6.603c3.047-0.35,6.437-1.197,8.803-2.751c0.265-1.51,1.713-1.832,2.201-3.118
				c-0.686-0.721-0.942-1.87-1.1-3.119C169.938,87.861,165.992,91.202,162.828,92.055z M114.779,102.875
				c-0.292-1.062-1.801-2.018-2.567-2.751c-0.719-0.688-1.968-2.204-2.935-2.384c-1.839-0.343-3.191,1.708-3.851,2.935
				c-0.786,1.46-1.397,3.258-2.017,4.952c0.651,0.308,1.049,1.281,2.017,0.734c1.137,1.858,4.05,1.94,6.052,2.935
				C113.062,108.018,115.439,105.272,114.779,102.875z M40.686,101.592c-1.554,2.444-3.934,5.631-0.917,7.885
				c4.266-0.573,7.877-3.362,12.47-4.218c0.796-1.553,0.883-4.067,0.184-5.869C48.449,98.642,44.674,101.145,40.686,101.592z"/>
			<path fill="#179665" d="M119.181,88.02c-0.755-2.036-0.693-5.22-1.101-7.703c-0.417-2.547-1.574-5.567-1.283-9.536
				c0.065-0.896,0.527-1.864,0.549-2.752c0.021-0.773-0.463-1.396-0.183-2.384c0.367-1.298,3.164-3.473,4.035-3.484
				c2.792-0.036,3.04,4.936,3.301,8.069c0.288,3.465,0.829,7.189,0.917,9.903c0.109,3.37-1.138,9.824-2.568,11.372
				C121.049,93.451,119.658,89.303,119.181,88.02z"/>
			<path fill="#179665" d="M107.994,82.518c0.796,0.67,2.093,0.842,3.484,0.917c1.958,1.398,3.96,3.208,3.667,6.053
				c-0.249,2.434-2.313,2.835-3.484,4.218c-2.858,0.931-6.81,0.771-8.252,3.118c-3.555-0.401-8.251,1.622-11.555,1.65
				c-5.794-0.367-10.726-2.08-14.671-5.136c-2.981,1.289-4.326,4.677-8.254,4.586c-3.756-0.086-7.98-3.51-8.252-7.336
				c-0.254-3.554,1.086-6.821,3.667-8.62c2.887,1.104,0.086,5.47,2.017,6.969c1.596,1.24,4.575-0.396,6.786-0.549
				c0.106-2.919-1.469-4.156-2.567-5.869c-0.105-1.269,0.068-1.862-0.733-2.568c0.362-1.56,0.715-2.791,0.733-4.218
				c6.47-4.809,9.507,7.413,12.837,10.454c0.191,1.949,1.057,3.222,1.834,4.585c1.138,0.35,2.294,0.848,3.667,0.734
				c4.001-0.333,9.211-1.228,12.104-2.384c-2.083-0.452-4.308,0.315-5.869,0.183c-3.196-0.27-6.006-2.879-3.851-5.318
				c2.034-2.303,10.463-0.948,13.021-4.77c1.294-1.934,0.667-4.171,0.734-7.703c0.021-1.158,0.442-2.427,0.367-3.118
				c-0.061-0.55-1.035-2.298-1.101-2.935c-0.313-3.062,1.22-6.714,3.668-6.419c1.069,0.129,2.319,2.086,2.568,3.119
				c0.454,1.899-0.161,3.651,0,6.235c0.121,1.945,0.772,4.011,0.733,5.686c-0.014,0.596-0.425,0.903-0.551,1.65
				c-0.282,1.701,0.015,3.336-0.733,4.585C109.446,81.26,108.405,81.691,107.994,82.518z M104.875,88.936
				c0.028-0.455,0.035-0.89-0.366-0.917C104.217,88.293,104.241,89.065,104.875,88.936z M90.754,95.722
				c0.854,0.086,1.223,0.248,2.017,0C92.652,94.943,90.922,95.045,90.754,95.722z"/>
			<path fill="#179665" d="M161.176,91.137c-0.301,2.492-0.613,3.904-2.385,5.686c-2.244,2.26-4.982,4.078-8.434,5.502
				c-4.599,1.895-11.282,1.532-14.304-1.65c-0.354-0.376-1.562-2.209-1.833-2.751c-2.598-5.177-1.506-11.592,0.733-15.956
				c1.311-0.573,2.645-1.935,4.585-1.283c1.099,3.792-1.209,6.129-1.1,9.17c0.333,9.22,13.544,6.293,17.417,1.466
				c-2.022-0.25-3.133,0.727-4.582,0c-4.236-2.119-0.418-11.309,3.482-11.92c3.287-0.516,4.686,2.92,7.154,4.768
				c1.031-0.315,2.033-0.658,2.568-1.467c-0.021-1.416-0.084-2.098-0.918-2.935c0.002-2.11,0.532-3.59,0.551-5.502
				c1.041-0.596,1.553-1.779,2.936-1.651c1.9,0.177,3.521,4.184,3.668,6.052c0.215,2.756-0.363,5.531-1.652,7.336
				C167.027,88.858,163.656,89.371,161.176,91.137z"/>
			<path fill="#179665" d="M217.664,82.701c0.645,0.161,0.191-0.476,0-0.551c0.418-0.91,0.812,0.568,1.285,0.734
				c-0.58,1.677-0.215,3.256-0.918,4.768c-0.467,1.005-2.566,2.816-3.852,3.484c-2.601,1.352-7.031,2.245-9.904,2.752
				c-6.568,1.157-11.578,1.645-17.056,2.201c-2.928,3.979-5.706,8.11-9.721,11.004c-2.233,0.836-5.582,1.773-8.803,2.75
				c-1.289,0.391-2.636,0.949-4.771,1.101c-1.375,0.098-3.551,0.273-4.219,0c-1.846-0.752-3.742-5.612-1.469-7.703
				c8.697-0.036,17.334-1.551,21.645-6.785c1.23-3.495,1.283-7.052,2.566-10.821c1.021-0.69,1.631-1.792,3.486-1.649
				c1.16,0.604,1.26,3.064,1.1,4.401c4.662,0.99,9.832-1.116,11.555-4.769c-1.723-5.201-3.951-16.494,1.283-18.891
				c2.541,0.404,2.906,4.607,3.668,7.703c0.629,2.555,1.514,4.694,2.385,6.418C210.188,77.77,217.381,78.845,217.664,82.701z
				 M202.441,86.919c1.324,0.237,2.985-0.319,4.035-0.917C205.436,84.255,203.471,86.122,202.441,86.919z"/>
			<path fill="#179665" d="M49.122,88.753c0.991-1.5,0.402-3.73,0.551-5.686c0.067-0.887-0.496-1.911-0.367-2.383
				c0.345-1.265,1.565-1.518,2.385-2.568c1.17-0.087,3.334-0.208,4.034,1.1c0.371,0.693,0.116,1.858,0.184,2.935
				c0.301,4.842-0.307,7.721-2.751,10.821c-0.68,0.863-2.57,2.755-2.935,2.935c-3.481,1.711-8.581-0.805-10.636-2.751
				c-1.188,2.286-3.248,3.08-6.053,4.218c-1.053,0.429-2.118,1.149-2.934,1.285c-4.167,0.691-8.128-1.153-8.436-5.32
				c-0.19-2.563,0.527-8.299,2.383-8.251c1.927,0.048,1.716,4.215,1.834,6.602c4.138,0.415,8.231-1.75,11.004-3.852
				c-0.562-1.766-1.362-3.16-2.017-4.951c-0.595-1.627-1.914-3.453-2.018-4.953c-0.125-1.794,1.522-4.072,2.935-4.218
				c3.28-0.338,5.343,6.968,6.051,9.536c0.441,1.596,0.538,3.157,1.101,4.036C44.341,88.696,46.924,88.735,49.122,88.753z"/>
			<path fill="#179665" d="M172.916,89.67c0.156,1.249,0.414,2.398,1.1,3.119c-0.488,1.286-1.938,1.608-2.201,3.118
				c-2.366,1.554-5.756,2.401-8.803,2.751c-2.121-1.463-1.729-4.848-0.184-6.603C165.992,91.202,169.938,87.861,172.916,89.67z"/>
			<path fill="#179665" d="M111.478,109.294c-2.002-0.994-4.915-1.077-6.052-2.935c-0.968,0.547-1.366-0.426-2.017-0.734
				c0.62-1.694,1.231-3.491,2.017-4.952c0.66-1.227,2.012-3.278,3.851-2.935c0.967,0.18,2.216,1.696,2.935,2.384
				c0.766,0.733,2.274,1.689,2.567,2.751C115.439,105.272,113.062,108.018,111.478,109.294z"/>
		</g>
		<g>
			<path fill="#179665" d="M268.208,51.482c5.938-0.488,7.681,0.711,12.39,2.859c2.527,1.153,5.244,2.035,6.988,3.177
				c8.438,5.525,12.777,15.916,12.391,27.641c-0.364,11.095-3.949,19.285-11.119,25.414c-1.84,1.575-4.897,3.081-7.307,4.448
				c-4.919,2.791-7.791,3.993-13.66,4.447c-8.291,0.644-13.471-1.826-19.697-5.719c-6.324-3.954-9.28-6.62-11.754-13.66
				c-3.754-10.686-4.145-25.675,2.541-35.264c5.641-8.091,15.201-12.436,28.594-13.344C267.783,51.468,267.997,51.5,268.208,51.482z
				 M271.702,58.471c-1.388-0.033-2.453-1.174-3.812-1.588c-6.24-1.902-14.832,1.189-19.381,4.13
				c-8.008,5.179-13.154,18.059-10.166,30.815c1.979,8.437,6.397,14.226,13.026,18.109c2.827,1.655,7.128,3.609,9.849,4.13
				c13.489,2.579,31.506-8.402,33.676-19.062c2.666-13.092-0.267-27.355-9.85-33.675c-2.857-1.885-6.638-2.532-10.166-4.129
				C273.038,57.78,273.791,58.52,271.702,58.471z"/>
			<path fill="#179665" d="M271.385,63.554c1.073,11.59-1.165,25.859-0.953,39.076c0.041,2.588,1.131,5.901-2.857,5.401
				c-2.751-2.959-0.717-7.767-0.637-11.438c0.17-7.777-0.272-16.154,0.637-24.462c-3.522,1.774-4.916,8.428-10.166,9.53
				c-3.562-2.845,0.895-5.547,2.857-7.624c3.291-3.479,5.854-7.296,8.577-11.12C270.087,62.735,270.688,63.192,271.385,63.554z"/>
		</g>
		<path fill="#179665" d="M18.494,78.299c2.51,3.142,1.863,6.807,0.184,9.903c-2.132,3.93-6.961,5.851-11.371,5.686
			c-3.548-0.132-6.842-1.983-6.419-6.603c0.164-1.801,1.678-2.529,2.567-4.219c1.202-2.283,1.268-5.642,2.935-6.969
			C9.97,73.25,15.363,77.288,18.494,78.299z M7.673,82.333c-0.351,0.995-1.053,1.637-1.1,2.935c1.874,2.226,4.717,0.194,6.051-1.283
			C10.888,83.521,9.534,82.673,7.673,82.333z"/>
		<path fill="#179665" d="M6.39,76.099c-1.667,1.327-1.732,4.686-2.935,6.969c-0.89,1.689-2.403,2.417-2.567,4.219
			c-0.423,4.62,2.871,6.47,6.419,6.603c4.41,0.165,9.239-1.756,11.371-5.686c1.679-3.097,2.326-6.762-0.184-9.903
			C15.363,77.288,9.97,73.25,6.39,76.099z"/>
		<path fill="#FFFFFF" d="M12.625,83.985c-1.334,1.477-4.177,3.508-6.051,1.283c0.047-1.297,0.749-1.94,1.1-2.935
			C9.534,82.673,10.888,83.521,12.625,83.985z"/>
	</g>
</g>
<g id="_x30_1-Tareeq_jdeede_1_">
	<g>
		<path fill="#179665" d="M99.033,33.051c1.584,0.558,2.07-0.216,2.322-0.918c0.181-0.504,0.324,0.198,0.324,0.198
			s-0.18,0.522-0.054,0.684c0.054,0.18,0.36,0.396,0.864,0.396c0.396,0,0.522-0.216,0.522-0.216s-0.126,0,0-0.522
			c0.107-0.432,0.612-1.026,0.612-1.026v0.684c0.107,0.864,1.025,0.864,2.052,0.864V35.5c-0.504,0.018-1.944,0-2.412-0.702
			c0,0-0.378,0.702-1.116,0.702c-0.847,0-1.081-0.342-1.261-0.342c0,0-0.72,0.792-1.423,0.162c0.162,0.9,0.162,1.242,0.162,1.242
			s-0.107,1.729-0.828,2.7c-1.225,1.657-4.357,1.693-4.357,1.693c-5.023,0.107-1.314-6.86-1.314-6.86s-2.143,4.501,1.477,4.394
			c2.936-0.091,3.817-1.387,3.817-1.387c-0.108-1.585-1.17-3.511-1.17-3.511c0.054-0.342,1.35-1.656,1.35-1.656
			C98.835,32.439,98.925,32.709,99.033,33.051z"/>
		<path fill="#179665" d="M106.663,32.907c0-1.513-0.144-4.303-0.144-4.303c-0.019-0.378-0.055-0.792-0.414-1.71
			c-0.45-1.152,1.225-2.485,1.225-2.485s-0.162,1.314,1.062,1.729c0,0-0.594,0.684-0.558,1.657c0.018,0.648,0.107,2.358,0.018,4.033
			c0.559-0.504,1.404-1.351,1.944-1.693c0.973-0.81,2.503-0.486,2.503-0.486s2.557,0.666,2.232,2.052
			c-0.216,0.918-0.576,1.495-0.576,1.495c0.522,0,1.062,0,1.062,0V35.5c0,0-6.644,0-9.831,0v-2.305c0.433,0,1.152,0,1.152,0
			S106.375,33.195,106.663,32.907z M112.587,32.853c0.36-0.45-0.864-0.828-0.864-0.828s-0.9-0.234-1.44-0.036
			c-0.684,0.144-2.25,1.296-2.25,1.296C111.777,33.357,112.587,32.853,112.587,32.853z"/>
		<path fill="#179665" d="M127.168,35.5c-0.756,0-1.963,0-2.809-0.559c0,0-0.09,0.288-0.288,0.559c0,0-2.521,0.756-2.989-0.937
			c0,0-0.198,1.225-2.16,1.225c-1.314,0-1.404-1.135-1.404-1.135s-0.738,0.847-2.972,0.847v-2.305c2.413,0,3.331-0.72,3.529-1.026
			c0.216-0.342,0.576-0.342,0.469-0.072c-0.217,0.576-0.181,0.756-0.181,0.756s0.09,0.468,0.937,0.468
			c1.494,0,2.251-1.188,2.431-1.44c0.145-0.198,0.378-0.126,0.378-0.126s-0.107,0.468-0.107,0.558
			c-0.091,0.576,0.342,0.864,1.008,0.864c0.378,0,0.973-0.072,0.973-0.072s0-0.18,0-0.468s0.558-1.116,0.558-1.116
			c0.09,1.404,1.423,1.674,2.629,1.674V35.5z"/>
		<path fill="#179665" d="M129.02,33.159c-0.847-0.972-0.9-1.512-0.9-1.512s0.288-3.079,3.493-3.205
			c2.16-0.09,3.223,2.179,3.223,2.179s-3.025-1.369-4.754,0.27c0,0,0.721,1.207,1.981,1.639c0.63,0.216,1.872,0.126,1.872,0.126
			l1.387-0.072l-0.595,2.251c0,0-2.377,0.252-3.15,0.378c-0.469,0.072-2.467,0.288-4.735,0.288v-2.305
			C127.776,33.195,129.02,33.159,129.02,33.159z M129.505,25.957l1.225-1.224l1.278,1.26l-1.242,1.225L129.505,25.957z"/>
		<path fill="#179665" d="M138.109,22.086c0,0-1.891,0.252-0.559,0.702c1.278,0.45,1.891,0.126,2.215,0.108
			c0.288-0.072,0.036,0.234,0.036,0.234l-0.36,0.45c0,0-0.18,0.234-0.414,0.324c-1.477,0.324-2.323,1.152-2.395,1.17
			c-0.091,0.036-0.181,0.108-0.198-0.018c0-0.27,0.684-1.152,0.684-1.152c0-0.09-0.414-0.144-0.414-0.144s-1.134-0.018-0.576-0.973
			c0.829-1.386,2.305-1.8,2.611-1.692c0.324,0.054,0.522,0.324,0.522,0.324l-0.883,0.738L138.109,22.086z M138.991,24.805
			c0.054,2.143,0.108,3.241,0.162,4.303c0.054,1.008,0.072,2.611,0.108,3.872c0.035,1.494-0.973,2.7-1.279,3.061
			c-0.09,0.108-0.09,0-0.09,0c-0.072-1.242-0.18-3.493-0.18-3.493l-0.108-5.023C137.568,25.921,138.991,24.805,138.991,24.805z"/>
		<path fill="#179665" d="M145.541,37.534l6.969-12.963h2.395l-7.04,12.963H145.541z"/>
		<path fill="#179665" d="M172.42,32.061c-0.091,1.458-0.865,2.773-0.865,2.773c-0.773,0.198-4.249,1.026-6.968,1.008
			c-2.862-0.036-4.447-0.846-4.411-2.431c0.036-1.548,1.242-3.097,1.332-3.295c0.108-0.234,0.379-0.432,0.379-0.432
			c-2.143,3.331,1.242,3.763,3.097,3.799c2.106,0.036,6.157-0.648,6.157-0.882c0-0.306-0.521-1.548-0.521-1.548
			c0.162-0.612,1.134-1.854,1.134-1.854S172.491,30.873,172.42,32.061z M164.821,38.525l1.225-1.225l1.278,1.26l-1.242,1.225
			L164.821,38.525z"/>
		<path fill="#179665" d="M177.006,22.266c0,0-0.162,2.071-2.484,2.125c-1.135,0.018-1.549,0.252-1.783,0.468
			c0.234-0.216,0.522-2.269,2.197-2.179C176.178,22.734,177.006,22.266,177.006,22.266z M175.638,24.805
			c0.054,2.143,0.108,3.241,0.162,4.303c0.054,1.008,0.072,2.611,0.108,3.872c0.035,1.494-0.973,2.7-1.279,3.061
			c-0.09,0.108-0.09,0-0.09,0c-0.072-1.242-0.18-3.493-0.18-3.493l-0.108-5.023C174.215,25.921,175.638,24.805,175.638,24.805z"/>
	</g>
	<g>
		<g>
			<path fill="#737996" d="M47.527,35.5v-1.963c0.362-1.864,5.872-4.503,5.872-6.68c0-1.04-0.677-1.649-1.765-1.649
				c-1.188,0-1.881,0.792-2.145,1.88l-1.913-0.413c0.247-1.831,1.963-3.25,4.09-3.25c2.096,0,3.877,1.204,3.877,3.431
				c0,2.903-2.673,4.09-5.642,6.796h5.642V35.5H47.527z"/>
			<path fill="#737996" d="M61.552,23.425c3.15,0,4.338,2.705,4.338,6.12s-1.188,6.12-4.338,6.12s-4.339-2.705-4.339-6.12
				S58.401,23.425,61.552,23.425z M61.552,33.883c1.303,0,2.193-1.088,2.193-4.338s-0.891-4.338-2.193-4.338
				c-1.304,0-2.194,1.088-2.194,4.338S60.248,33.883,61.552,33.883z"/>
			<path fill="#737996" d="M68.845,35.5V33.85h1.848v-8.214h-2.111V24.25c1.089-0.049,2.045-0.297,2.59-0.825h1.666V33.85h1.83V35.5
				H68.845z"/>
			<path fill="#737996" d="M78.249,23.59h6.434v1.847h-4.816l-0.165,2.706c0.379-0.396,0.94-0.693,2.227-0.693
				c2.145,0,3.562,2.012,3.562,3.958c0,2.606-1.518,4.256-4.387,4.256c-1.881,0-3.2-0.891-3.86-2.227l1.781-0.923
				c0.363,0.841,1.304,1.336,2.111,1.353c1.518,0.049,2.211-0.973,2.211-2.458c0-1.221-0.775-2.177-2.029-2.177
				c-0.841,0-1.468,0.429-1.798,1.023l-1.716-0.33L78.249,23.59z"/>
		</g>
	</g>
	<g>
		<path fill="#179665" d="M187.504,35.539V33.89h1.848v-8.215h-2.111V24.29c1.089-0.05,2.045-0.297,2.59-0.825h1.666V33.89h1.83
			v1.649H187.504z"/>
		<path fill="#179665" d="M195.937,35.539v-1.963c0.362-1.864,5.872-4.503,5.872-6.681c0-1.039-0.677-1.649-1.765-1.649
			c-1.188,0-1.881,0.792-2.145,1.881l-1.913-0.412c0.247-1.831,1.963-3.25,4.09-3.25c2.096,0,3.877,1.204,3.877,3.431
			c0,2.903-2.673,4.091-5.642,6.796h5.642v1.848H195.937z"/>
		<path fill="#179665" d="M210.356,32.142v-1.782h4.041v1.782H210.356z"/>
		<path fill="#179665" d="M222.401,35.539V33.89h1.848v-8.215h-2.111V24.29c1.089-0.05,2.045-0.297,2.59-0.825h1.666V33.89h1.83
			v1.649H222.401z"/>
		<path fill="#179665" d="M232.317,35.539V33.89h1.848v-8.215h-2.111V24.29c1.089-0.05,2.045-0.297,2.59-0.825h1.666V33.89h1.83
			v1.649H232.317z"/>
		<path fill="#179665" d="M245.254,32.142v-1.782h4.041v1.782H245.254z"/>
		<path fill="#179665" d="M255.847,23.63h8.165v1.237l-4.899,10.672h-2.358l4.816-10.062h-5.724V23.63z"/>
		<path fill="#179665" d="M270.234,32.142v-1.782h4.041v1.782H270.234z"/>
		<path fill="#179665" d="M283.07,28.331c1.748,0,3.2-0.248,3.2-1.666c0-0.857-0.727-1.419-1.716-1.419
			c-1.006,0-1.683,0.562-2.276,1.188l-1.419-1.286c1.155-1.221,2.408-1.683,3.629-1.683c2.178,0,3.926,1.056,3.926,3.068
			c0,1.188-0.659,2.078-1.798,2.573c1.419,0.445,2.194,1.533,2.194,3.019c0,2.49-2.111,3.579-4.223,3.579
			c-1.683,0-3.382-0.792-4.206-2.31l1.715-0.973c0.577,0.973,1.369,1.501,2.508,1.501c1.056,0,2.062-0.644,2.062-1.798
			c0-1.946-2.161-2.013-3.596-2.013V28.331z"/>
	</g>
</g>
</svg>
