<?xml version="1.0" encoding="utf-8"?>
<!-- Generator: Adobe Illustrator 14.0.0, SVG Export Plug-In . SVG Version: 6.00 Build 43363)  -->
<!DOCTYPE svg PUBLIC "-//W3C//DTD SVG 1.1//EN" "http://www.w3.org/Graphics/SVG/1.1/DTD/svg11.dtd">
<svg version="1.1" xmlns="http://www.w3.org/2000/svg" xmlns:xlink="http://www.w3.org/1999/xlink" x="0px" y="0px" width="300px"
	 height="280px" viewBox="0 0 300 280" enable-background="new 0 0 300 280" xml:space="preserve">
<g id="Layer_1">
	<g id="Layer_1_1_">
	</g>
	<g id="_x30_1-Tareeq_jdeede">
	</g>
	<g id="_x30_4-Roum">
		<g>
			<g>
				<path d="M188.928,154.096c0,0.17,0,0.338,0,0.508c-0.994,0.133-2.554-0.218-3.541-0.508
					C185.834,152.986,188.23,153.818,188.928,154.096z"/>
				<path d="M184.121,162.57c1.243,0.15,2.592,0.191,3.542,0.634c-0.299,1.161-2.724,0.166-3.542-0.126
					C183.91,162.827,184.132,162.917,184.121,162.57z"/>
				<path d="M148.824,168.771c0.899,1.004,0.854,2.537,1.264,3.795c0.421,1.289,1.157,2.444,1.266,3.795
					c-2.152,0.807-3.64,2.93-6.705,2.404c-0.948-1.877-1.54-4.111-2.403-6.072c-0.213-0.312-0.702,0.516-0.886-0.127
					C142.962,170.5,146.56,169.754,148.824,168.771z M142.498,172.439c1.134,1.733,1.674,4.062,2.783,5.819
					c2.436-0.096,3.636-1.424,5.312-2.276c-0.618-2.164-1.427-4.14-1.896-6.453C146.573,170.441,144.164,171.068,142.498,172.439z"
					/>
				<path d="M130.605,177.373c-0.562,0.83-1.334,1.451-2.023,2.15c0.002,1.518,0.536,2.5,0.633,3.922
					c-1.783,0.752-3.409,2.324-5.441,2.404c-1.557,1.438-2.77,3.221-4.428,4.555c0.347,0.658,1.279,1.305,1.898,0.633
					c1.482,0.457,0.663,1.742,1.392,2.783c-0.917,2.008-3.366,1.549-4.302-0.127c-0.106-0.57,0.296-0.631,0.38-1.012
					c-1.035,0.184-2.238-0.425-2.15-1.771c-1.057,0.549-2.176,2.125-3.417,2.91c-0.67-0.131-0.824-0.777-1.265-1.139
					c-0.686,0.756,1.012,1.131,1.013,2.024c-0.825,0.506-1.98,2.192-3.036,1.267c-0.311,0.149-0.339,0.588-0.76,0.631
					c-0.397-0.066-0.706-0.222-1.013-0.379c-0.731,0.809-1.16,2.088-2.277,2.022c-1.197-0.067-1.611-1.877-2.656-2.404
					c3.179-3.948,8.033-6.219,11.387-9.993c0.166,0.129,0.466,0.125,0.633,0.254c1.146-1.724,3.072-2.664,4.048-4.556
					c0.251-0.264,0.443,0.093,0.632,0.252c0.624-0.346,1.03-0.907,1.14-1.771c1.808-0.317,3.756-0.959,5.566-1.897
					C127.824,177.475,129.358,175.613,130.605,177.373z M129.215,177.373c-2.588,1.883-6.513,2.43-8.604,4.809
					c0.959,1.318,2.175,2.379,3.922,2.91c1.257-0.768,2.63-1.42,4.049-2.025c-0.104-1.498-0.812-2.395-0.759-4.049
					c0.737-0.399,1.399-0.875,1.771-1.645C129.468,177.373,129.341,177.373,129.215,177.373z M116.31,185.977
					c0.582,0.513,0.844,1.09,1.518,1.771c0.205,0.205,1.636,1.646,1.772,1.645c0.406-0.01,1.436-1.682,1.771-2.022
					c0.753-0.771,1.449-1.188,1.771-2.024c-1.367-0.867-2.621-1.849-3.541-3.162C118.673,183.615,117.276,184.582,116.31,185.977z
					 M114.665,186.736c-1.226,1.346-2.907,2.238-3.922,3.795c0.941,0.703,1.684,1.604,2.53,2.404c0.994-1.031,2.082-1.97,3.162-2.91
					c-0.087-0.672-0.958-0.56-1.012-1.267c0.071-0.309,0.49-0.27,0.38-0.76C115.418,187.586,115.291,186.912,114.665,186.736z
					 M116.436,188.887c0.511,0.418,1.665,0.863,2.278,0.76c-0.736-0.782-1.827-1.885-2.531-2.276
					C116.706,187.617,116.816,188.402,116.436,188.887z M117.196,191.164c0.072,0.629,1.466,1.246,1.771,0.127
					C118.743,190.086,117.062,190.008,117.196,191.164z M107.96,192.936c1.439,0.256,2.388,2.564,3.795,1.646
					c-0.063-0.822-0.911-0.858-1.012-1.646c0.161-0.305,0.462-0.467,0.379-1.012C110.224,190.215,108.538,191.592,107.96,192.936z
					 M120.104,192.176c-0.271,0.445-0.727,0.707-0.885,1.266c0.433,1.125,2.222,1.562,2.657,0.127
					c-0.276-0.231-0.638-0.375-0.76-0.762c-0.08-0.451,0.694-0.692,0.127-0.883C121.083,192.418,120.498,192.553,120.104,192.176z
					 M109.352,194.707c-0.572-0.693-1.507-1.023-2.403-1.393c-0.914,0.858-2.256,1.287-2.784,2.528
					c0.571,0.525,1.001,1.193,1.645,1.646c1.049-0.345,1.286-1.498,2.024-2.152c0.465,0.043,0.512,0.502,1.14,0.379
					C109.13,195.412,109.285,195.104,109.352,194.707z"/>
				<path d="M155.402,178.639c0.533,0.433,0.369,1.064,0.632,1.646c0.603,1.323,1.946,2.356,2.276,3.922
					c-0.912,1.365-3.181,1.373-4.807,2.024c-1.529-1.172-1.529-3.869-2.529-5.565C152.426,179.965,154.209,179.598,155.402,178.639z
					 M155.021,179.904c-1.142,0.334-2.219,0.731-3.035,1.391c0.793,1.105,0.658,3.137,1.645,4.049
					c1.367-0.361,2.932-0.527,3.922-1.266C156.936,182.461,155.824,181.338,155.021,179.904z"/>
				<path d="M132.63,188.633c0.362,0.496,0.283,1.391-0.126,1.771c-0.599-0.051-1.057,0.041-1.519,0.127
					c-0.18-0.242-0.481-0.363-0.507-0.76c-1.466,0.321-0.824,2.854-2.403,2.783c0.106,0.272,0.328,0.432,0.253,0.887
					c-0.417,0.551-0.974,0.965-1.391,1.518c-0.034,0.414,0.49,0.268,0.505,0.633c-0.194,0.732-0.455,1.398-1.012,1.77
					c-0.614,0.068-0.558-0.536-1.139-0.504c-0.26,0.035-0.252,0.336-0.379,0.504c-0.051,0.517,0.538,0.392,0.633,0.761
					c0.052,1.262-0.875,2.364-2.024,1.646c-0.47,0.037-0.344,0.67-0.886,0.635c-0.401-0.402-1.161-0.443-1.392-1.014
					c0.169-0.72,0.937-0.992,0.379-1.771c0.979-1.048,2.075-1.976,2.531-3.545c-0.317-0.527-1.203-0.484-1.519-1.011
					c-0.055-1.147,1.488-2.012,2.277-1.139c0.304-0.246,0.386-0.711,0.885-0.76c0.806,0.332,1.506,0.771,2.025,1.391
					c-0.673-1.225-2.313-2.578-3.543-3.668c0.062-0.74,0.487-1.117,0.885-1.518c0.498-0.076,0.657,0.186,0.886,0.379
					c0.831-0.35,1.048-1.314,2.404-1.139c0.519,1,2.032,1.004,2.53,2.022c0.989-0.176,0.322-1.276,1.012-1.646
					c-0.954-0.311-1.789-0.739-1.771-2.022c1.329-0.567,2.717-1.078,3.921-1.771c0.586,0.006,0.197,0.983,0.76,1.012
					c1.644,0.037,2.515-1.713,3.795-1.645c1.268,0.069,1.571,2.028,2.657,2.782c0.997-0.562,2.337-0.782,2.656-2.022
					c1.101,0.521,2.009-1.406,2.91-0.254c0.109,0.531-0.565,0.276-0.759,0.508c0.616,1.152,0.906,2.635,1.771,3.541
					c1.075-0.316,2.108-0.674,3.163-1.012c-0.057-1.675-0.5-2.959-0.76-4.429c-1.73-0.159-3.029,0.754-4.175,0.759
					c0.544-1.521,2.919-1.214,4.554-1.646c0.633,1.604,0.914,3.557,1.014,5.692c-1.959,1.105-4.286,1.338-6.072,2.404
					c-0.619-1.125,1.494-1.164,1.012-2.15c-0.487-0.272-0.832,0.683-1.518,0.634c-0.55-1.045,0.957-1.045,1.012-1.898
					c-0.371-0.321-0.815,0.361-0.886,0.761c-1.926,0.571-3.182,1.094-5.439,1.391c-0.698-0.049-0.941-1.678-1.519-1.771
					c-0.443-0.07-1.347,0.652-1.139,1.771c-0.681,0.451-2.362,1.373-3.037,0.633C133.83,188.602,133.173,189.266,132.63,188.633z
					 M138.576,183.32c-1.605,0.152,0.688,3.207,1.518,3.416c0.714,0.178,1.601-0.305,2.404-0.506
					c0.791-0.199,2.231-0.148,1.771-1.267c-1.438-0.004-1.742,1.125-3.036,1.267C140.497,185.947,139.453,183.236,138.576,183.32z
					 M133.389,184.711c1.207,1.152,0.135,2.148-0.633,2.91c0.183,0.07,0.309,0.197,0.381,0.379c0.486-0.146,0.499-0.766,1.138-0.758
					c0.364,0.014,0.22,0.539,0.633,0.506c0.409-0.35,1.357-0.16,1.518-0.76c-0.278-0.016-0.053-0.535-0.126-0.758
					c0.478-0.199,0.787-0.562,1.266-0.76c0.012-0.604-0.488-0.693-0.507-1.267c-0.938,0.076-1.185,0.84-2.277,0.76
					C134.356,184.633,133.733,183.74,133.389,184.711z M145.155,184.838c0.053-0.242,0.36-0.229,0.252-0.633
					C145.002,184.154,144.686,184.744,145.155,184.838z M131.111,185.471c0.062,0.879,1.297,0.41,1.645,0.127
					C132.711,184.51,131.589,185.219,131.111,185.471z M125.292,188.254c-0.334,0.693,0.531,0.922,0.887,1.264
					c0.706,0.687,1.371,1.611,2.149,2.152c0.214-0.336,0.293-0.805,0.506-1.139c-0.328-0.346-1.002-0.348-1.138-0.885
					c0.344-0.459,0.821-0.781,1.138-1.267c-0.059-0.446-0.319-0.692-0.506-1.012C127.024,187.463,126.785,189.066,125.292,188.254z
					 M128.961,189.646c0.755,0.155,1.342-0.896,0.759-1.267C129.585,188.92,129.006,189.016,128.961,189.646z M131.364,189.518
					c0.15,0.148,0.447,0.146,0.759,0.129c-0.042-0.297-0.129-0.547-0.379-0.633C131.707,189.271,131.401,189.262,131.364,189.518z
					 M125.165,192.682c-0.531-0.016-0.605-0.49-1.138-0.506c-0.114,0.223-0.306,0.369-0.38,0.631
					c0.926,0.51,1.635,1.236,2.783,1.521c0.406-0.354,0.896-0.623,1.012-1.265c-0.555-0.373-1.031-0.823-1.645-1.139
					C125.577,192.164,125.649,192.701,125.165,192.682z M122.382,199.514c0.51,0.045,0.196-0.731,0.759-0.631
					c0.466,0.041,0.701,0.311,1.14,0.379c0.111-0.27,0.385-0.375,0.379-0.762c-0.075-0.428-0.729-0.281-0.759-0.758
					c0.208-0.637,0.437-1.25,0.886-1.645c0.748-0.189,1.206,0.407,1.645,0.127c-0.202-0.896-0.651-1.543-1.645-1.646
					C124.136,196.295,122.244,197.43,122.382,199.514z"/>
				<path d="M155.655,188c0.657,0.375-0.103,1.381,0.126,2.15c0.216,0.42,0.938,0.328,1.266,0.633
					c-0.125,1.562-0.613,2.762-1.139,3.924c-1.695-0.244-3.057-0.824-4.934-0.887c-0.521-0.746-0.598-2.607-0.508-3.543
					c0.723-0.838,2.647-0.474,2.53-2.15C153.648,187.932,155.204,187.975,155.655,188z M152.998,190.15
					c-0.65,0.149-1.516,0.09-1.896,0.508c-0.049,0.975,0.09,1.764,0.379,2.404c1.369,0.272,2.812,0.475,4.05,0.885
					c0.429-0.752,0.561-1.801,0.885-2.656c-0.442-0.318-1.339-0.18-1.392-0.887c0.172-0.418,0.168-1.012,0.252-1.519
					C154.086,188.395,152.854,188.895,152.998,190.15z"/>
				<path d="M231.059,187.875c0.7,0.521,1.308,1.137,1.896,1.771C232.188,190.561,230.73,188.836,231.059,187.875z"/>
				<path d="M147.938,188.887c0,0.211,0,0.422,0,0.631c-0.791,0.023-1.396,1.109-2.024,0.508
					C146.224,189.346,147.038,188.562,147.938,188.887z"/>
				<path d="M231.438,191.037c-0.687,0.096-0.744-0.438-1.139-0.633c-0.217,0.375-0.303,0.879-0.507,1.266c-0.127,0-0.253,0-0.38,0
					c-0.573-0.412-1.114-1.34-1.012-2.023c0.649-0.307,0.789,0.631,1.012,1.138c0.286-0.093,0.277-0.479,0.633-0.507
					c0.032-0.579-0.572-0.522-0.506-1.139C230.45,188.955,231.609,190.129,231.438,191.037z"/>
				<path d="M148.697,190.783c-0.074,0.855-0.983,0.873-1.518,1.266c0.064,0.572-0.011,1.002-0.381,1.141
					c-0.681-0.116-0.578-1.418-0.506-1.897C147.344,191.451,148.137,189.92,148.697,190.783z"/>
				<path d="M226.882,190.404c0.127,0,0.253,0,0.38,0c0.246,0.848,0.418,1.717,1.139,1.771c-0.203,0.345-0.303,0.795-0.885,0.761
					C227.223,192.236,226.613,191.248,226.882,190.404z"/>
				<path d="M225.236,190.783c0.891-0.002,0.232,1.541,1.267,1.393c0.052,0.684-0.114,1.15-0.887,1.014
					C225.578,192.357,224.818,191.658,225.236,190.783z"/>
				<path d="M224.1,191.037c0.125,0,0.254,0,0.379,0c0.092,0.666,0.238,1.277,0.633,1.645c-0.248,0.215-0.289,0.64-0.887,0.508
					C224.062,192.6,223.716,191.395,224.1,191.037z"/>
				<path d="M149.709,191.924c-0.256,0.881-1.073,1.201-2.15,1.266c-0.04-0.299-0.2-0.477-0.127-0.887
					C148.348,192.598,149.127,191.082,149.709,191.924z"/>
				<path d="M217.646,192.049c0.756,0.299,0.488,1.619,1.012,2.15c-0.379,3.797-0.766,7.928-0.76,12.02
					c-1.414,1.238-4.693,0.021-5.818-1.012c0.238-0.438,0.236-1.111,0.38-1.645c0.146,0.02,0.226-0.029,0.253-0.127
					c0.58,0.053,0.987,0.274,1.393,0.506c0.223-0.115,0.392-0.283,0.506-0.506c-0.102-0.996-1.865-0.326-2.024-1.265
					c-0.356,0.021-0.157,0.601-0.633,0.504c-0.39-0.69,0.317-1.25,0.381-1.896c0.461-0.262,0.567,0.057,0.885,0.252
					c1.173-2.326,0.413-5.096,0.759-8.096c0.637,0.166,0.311,1.293,0.887,1.518c0.545-0.4-0.178-1.414,0.253-2.025
					c0.618,0.059,0.584,0.769,0.633,1.394c0.38-0.451-0.192-1.095,0.254-1.394c0.445,0.062,0.463,0.551,0.631,0.887
					c0.308-0.198-0.052-1.063,0.38-1.139c0.393-0.012,0.377,0.381,0.381,0.76C217.693,192.857,217.374,192.156,217.646,192.049z
					 M214.609,195.338c-0.025,0.996,0.091,1.85,0.507,2.404c0.733,0.15,1.563,0.209,2.403,0.254c0.262-0.803,0.494-1.992,0.254-2.91
					C216.786,195.238,215.521,195.111,214.609,195.338z M214.482,198.627c-0.144,0.779-0.401,1.701-0.252,2.404
					c0.722,0.543,1.814,0.715,3.035,0.758c0.026-1.068,0.428-1.766,0.381-2.906C216.646,198.66,215.165,198.455,214.482,198.627z
					 M215.496,203.309c-0.374,0.385-0.361,1.158-1.014,1.267c-0.562,0.014-0.741-0.354-1.391-0.254
					c0.111,1.786,2.234,1.561,3.795,1.897c0.666-0.701,0.256-2.312,0.379-3.795c-1.505-0.096-2.49-0.715-4.048-0.76
					C213.572,202.619,215.287,202.211,215.496,203.309z"/>
				<path d="M118.967,196.857c-0.4,1.008-1.087,2.319-1.898,3.287c-0.981,1.172-3.006,3.178-3.669,3.164
					c-0.607-0.013-0.821-0.771-1.265-1.013c-0.489,0.017-0.499,0.513-0.885,0.634c-1.723-0.433-0.574-2.261-1.646-3.164
					c0.93-1.228,1.956-3.013,3.669-3.035c0.704-0.65,0.792-1.496,1.771-1.519c0.494-0.01,0.831,0.556,1.391,0.761
					C117.371,196.312,118.666,196.1,118.967,196.857z M114.286,196.604c0.587,1.058,2.011,1.277,3.162,1.771
					c0.06-0.617,0.555-0.795,0.633-1.393C116.772,197.029,115.032,195.133,114.286,196.604z M113.527,197.617
					c-1.576-0.297-2.229,1.271-3.037,2.148c0.547,0.807,0.404,1.481,0.632,2.151c0.609,0.103,0.458-0.558,1.14-0.381
					c0.484,0.274,0.69,0.828,1.266,1.014c0.889-1.227,2.86-2.022,3.036-3.543c-0.592-0.129-0.421,0.509-1.013,0.379
					C114.869,198.805,113.901,198.506,113.527,197.617z"/>
				<path d="M153.885,195.592c1.529,0.619,3.274,1.025,5.186,1.266c-0.119,1.298,0.441,3.599-0.125,4.933
					c-0.355,0.094-1.336-0.144-1.897-0.252c-0.226-0.406-0.073-1.19-0.253-1.646c-0.271-0.233-0.927-0.086-1.393-0.127
					c0.086,0.803-0.088,1.349-0.379,1.771c-1.037,0.271-1.983,0.633-3.289,0.635c0.18,0.801,0.625,0.287,1.265,0.252
					c0.668,0.512,1.126,1.234,1.772,1.771c-0.586,1.182,0.442,1.793,0.758,2.783c1.728-0.252,2.021,0.93,2.656,1.77
					c0.015,0.562-0.656,0.441-0.76,0.887c0.051,0.457,0.164,0.848,0.254,1.266c-0.27,0.488-0.936,0.582-1.518,0.759
					c-0.367-0.353-0.743-0.691-1.141-1.013c-0.487,0.308-0.965,0.736-0.633,1.519c-0.763,0.461-1.51,0.937-2.529,1.14
					c0.02,0.782,0.66,0.942,0.506,1.897c-0.836,0.684-2.622,0.657-2.908-0.506c-0.947,0.657-1.496-0.275-1.898-0.888
					c1.121-2.397-2.823-3.367-2.53-5.438c0.125-0.888,1.299-1.086,1.645-2.024c0.154-0.576-0.347-0.496-0.253-1.011
					c0.101-0.53,0.74-0.524,0.76-1.139c-0.049-0.587-0.461-0.808-0.76-1.142c-0.065-0.527,0.07-0.856,0.253-1.137
					c-0.979-1.469-1.869-3.697-2.277-5.314c0.503-0.592,1.862-0.332,2.151-1.139c1.808,0.543,4.466,0.16,6.831,0.633
					C153.703,196.084,153.561,195.605,153.885,195.592z M145.028,197.236c0.546,0.887,1.009,1.858,1.265,3.035
					c0.688,0.03,0.895,0.541,1.013,1.139c0.463,0.043,0.703-0.139,1.012-0.252c0.01-0.875-0.107-1.879,0.38-2.275
					c1.155-0.145,1.634,0.389,2.53,0.504c0.33,0.596,0.596,1.262,0.885,1.898c0.891-0.123,1.896-0.129,2.531-0.506
					c0-0.252,0-0.508,0-0.76c-0.094-0.498-0.834-0.347-1.014-0.759c0-0.424,0-0.846,0-1.266c-0.398,0.021-0.764,0.004-0.886-0.254
					c-0.025-0.396,0.086-0.931-0.126-1.14C149.655,196.523,146.962,195.787,145.028,197.236z M153.378,196.982
					c0.274,0.465,0.812-0.076,1.013,0.508c0,0.463,0,0.926,0,1.393c0.69,0.225,0.252-0.678,0.885-0.508
					c0.174,0.891,1.548,0.482,2.15,0.633c0.065,0.906-0.148,2.09,1.014,1.898c0.319-1.211-0.187-2.248-0.127-3.289
					C156.754,197.467,154.521,195.941,153.378,196.982z M149.329,202.803c0.649-0.406,1.118-0.99,2.024-1.139
					c-0.146-1.246-0.84-1.943-2.15-2.023C149.191,200.824,148.523,202.223,149.329,202.803z M147.559,202.676
					c-0.121,0.883,0.507,1.012,0.506,1.771c-0.081,0.553-0.657,0.606-0.759,1.139c0.272,0.107,0.447,0.312,0.379,0.758
					c-0.573,0.814-1.882,1.393-1.896,2.404c-0.027,1.713,3.541,2.623,2.655,5.061c0.44,0.361,0.845-0.297,1.266,0
					c0.399,0.431,0.804,1.437,1.771,0.887c0.051-1.104-1.111-0.995-1.013-2.149c0.269-0.153,0.368-0.478,0.761-0.508
					c0.733,0.565,1.455,0.28,2.149-0.125c0.103-0.438-0.188-0.486-0.126-0.886c0.787-0.354,1.064-1.213,2.023-1.393
					c0.521,0.312,0.61,1.479,1.519,1.012c-0.199-0.897-0.144-1.569,0.38-2.022c-0.186-0.742-0.844-1.015-1.898-0.888
					c-1.24-1.077-1.09-3.549-2.529-4.428c-0.373,0.133-0.371,0.642-1.012,0.506c-0.198-0.477-0.323-1.024-0.76-1.264
					c-0.834,0.219-1.025,1.08-1.897,1.264C148.623,203.334,148.501,201.92,147.559,202.676z"/>
				<path d="M99.61,203.562c0.968,0.93,1.871,1.924,2.657,3.037c-0.457,1.02-1.289,1.661-1.772,2.653
					c0.045,0.422,0.38,0.552,0.633,0.761c1.707-0.037,1.484-2.943,2.91-2.783c0.943,0.106,1.362,1.813,1.519,3.162
					c-1.888,0.686-3.263,1.883-5.062,2.657c-0.514,0.05-0.389-0.539-0.759-0.633c-0.898,0.453-1.507,1.192-2.403,1.646
					c-1.153-0.83-1.47-2.494-2.657-3.291c-0.729-1.84-2.403-2.738-3.036-4.681c0.924-1.014,2.332-1.547,2.909-2.909
					c1.41-0.615,2.341-1.707,3.037-3.037c0.811,0.668,1.31,1.643,2.276,2.151c-0.173-0.946-1.15-1.098-1.138-1.896
					c0.022-1.369,3.06-2.902,3.669-4.049c0.829,0.266,1.324,0.866,1.645,1.645c-0.123,0.635-0.852,0.666-1.012,1.266
					c0.017,0.488,0.513,0.498,0.632,0.883c0.499,0.035,0.387-0.539,0.887-0.504c0.972,0.291,1.396,1.135,2.023,1.771
					c-0.048,0.543-0.691,0.489-0.886,0.887c0.988,1.754,2.525,2.957,3.669,4.556c-0.562,0.83-1.075,1.707-2.151,2.022
					c-0.211-0.209-0.512-0.33-0.506-0.758c-1.892-0.052-2.422-1.459-3.542-2.277c0.008-0.709,0.81-0.625,0.76-1.393
					c-0.474-0.382-0.319,0.713-1.013,0.508c-1.367-0.404-1.841-1.703-2.909-2.404C100.325,202.949,99.756,203.252,99.61,203.562z
					 M102.394,197.361c-0.857,1.127-2.137,1.828-2.783,3.166c0.991,1.326,1.841,2.797,3.289,3.668
					c0.277-0.23,0.099-0.914,0.632-0.887c0.497,0.053,0.542,0.557,1.014,0.633c0.118-0.387,0.615-0.396,0.631-0.887
					c-0.118-0.386-0.615-0.396-0.631-0.884c0.177-0.455,0.727-0.539,0.885-1.014c-0.172-0.377-0.571-0.525-0.885-0.759
					c-0.2,0.265-0.294,0.634-0.76,0.632c-0.52-0.619-1.412-0.865-1.646-1.771c0.122-0.682,0.891-0.715,1.013-1.393
					C102.81,197.791,102.837,197.34,102.394,197.361z M95.688,203.689c0.991,2.129,2.388,3.854,3.669,5.692
					c0.722-0.924,1.477-1.813,2.023-2.909c-0.849-1.093-1.989-1.894-2.782-3.037c0.079-0.345,0.527-0.314,0.505-0.761
					c-0.473-0.411-0.731-1.036-1.518-1.139C97.136,202.438,96.238,202.889,95.688,203.689z M104.164,205.84
					c0.887,1.191,2.324,1.201,3.289,2.15c0.203-0.473,0.788-0.562,0.887-1.139c-0.828-1.07-1.544-2.252-2.657-3.037
					C105.126,204.439,104.61,205.104,104.164,205.84z M92.525,206.219c1.589,2.375,3.071,4.857,5.061,6.832
					c0.541-0.516,1.351-0.76,1.771-1.393c-1.174-2.832-2.805-5.207-4.428-7.59C94.397,205.055,93.312,205.488,92.525,206.219z
					 M103.405,208.496c0.077,0.303,0.182,0.576,0.126,1.014c-1.03,0.232-1.333,1.195-2.276,1.518
					c-0.546-0.002-0.467-0.633-1.012-0.635c-0.558,0.531,0.062,1.467,0.506,1.771c1.173-0.934,2.559-1.658,4.048-2.275
					c-0.085-0.844-0.469-1.389-0.885-1.897C103.932,208.346,103.554,208.307,103.405,208.496z"/>
				<path d="M168.307,197.869c0.194,0.439,0.111,1.152,0.127,1.771c0.517,0.536,1.659,0.448,2.403,0.76
					c0.036,1.174-0.534,1.742-0.886,2.529c0.709,0.346,1.705,0.401,2.783,0.379c0.216-0.265-0.758-0.418-0.633-1.013
					c0.33-0.174,0.19-0.819,0.506-1.012c0.464,0,0.929,0,1.392,0c0.286-0.517,0.222-1.384,0.38-2.023
					c0.622-0.604,1.885-0.562,2.784-0.887c0.765,0.457,1.392,1.056,1.896,1.771c-0.371,0.852-0.396,2.051-0.632,3.037
					c-0.448,0.312-1.3,0.221-1.896,0.381c0.243,0.473,1.278,0.153,1.645,0.506c0.122,1.5-0.34,3.438-1.14,4.428
					c-0.312,1.543-0.546,3.164-1.518,4.049c-1.924-0.818-3.723-1.76-5.946-2.277c0.095-1.213,0.937-1.68,1.013-2.91
					c-0.459-0.469-1.656-0.198-1.898-0.885c0.09-1.051,0.726-1.555,0.887-2.531c-0.391-0.049-1.732,0.037-2.53,0
					c-0.332-0.342-0.251-1.098-0.252-1.77c-1.124-0.732-3.243-0.471-4.681-0.887c-0.663-0.223-0.773-0.998-1.646-1.014
					c-0.224-0.986-0.713-2.812-0.127-3.795C162.675,197.26,165.917,197.137,168.307,197.869z M160.969,199.641
					c1.184,0.207,1.312,1.474,3.036,1.14c0.226-0.787,0.072-1.953,0.253-2.783c-1.318,0.01-2.15-0.463-3.542-0.379
					C160.674,198.416,160.951,198.898,160.969,199.641z M165.018,200.906c0.952,0.297,1.474,0.141,2.276,0.252
					c0.242,0.477,0.287,1.146,0.254,1.896c0.238,0.227,0.836,0.094,1.265,0.127c0.494-0.646,0.828-1.449,1.14-2.275
					c-0.733-0.033-1.171-0.428-1.897-0.127c-0.451-0.437-0.152-1.621-0.38-2.279c-0.845-0.166-1.612-0.41-2.657-0.379
					C164.854,198.867,164.795,200.172,165.018,200.906z M175.012,199.641c-0.244,1.031-0.197,1.688,0.127,2.531
					c-0.181,0.027-0.213,0.207-0.38,0.252c-0.639-0.033-1.173-0.639-1.645-0.127c1.319,0.922,2.5,0.49,4.554,0.379
					c0.354-0.742,0.492-1.699,0.507-2.783C177.48,198.906,176.154,199.201,175.012,199.641z M170.584,203.941
					c-0.307,0.748-0.861,1.246-0.886,2.276c2.29,0.252,4.669,0.693,7.085,1.14c0.255-0.842,0.626-1.566,0.632-2.658
					C175.098,204.488,172.911,204.145,170.584,203.941z M171.596,207.357c-0.345,0.795-0.768,1.51-1.012,2.403
					c1.788,0.445,3.196,1.273,4.682,2.023c0.461-1.06,0.89-2.146,1.012-3.541C175.016,207.648,173.484,207.322,171.596,207.357z"/>
				<path d="M120.991,198.883c-0.145,0.951-0.788,1.404-1.14,2.148c-0.63-0.129-1.108-0.408-1.518-0.76
					C118.418,198.59,120.143,197.008,120.991,198.883z M119.346,200.145c0.559-0.112,0.606-0.742,0.887-1.137
					c-0.239-0.016-0.089-0.42-0.381-0.381C119.411,198.877,118.746,199.617,119.346,200.145z"/>
				<path d="M142.371,202.551c-1.335,0.576-2.366,2.928-3.921,2.656c-0.692-0.121-1.37-1.639-1.771-2.277
					c-0.597-0.949-1.249-1.68-1.392-2.658c0.495-0.266,1.214-0.686,1.897-0.379c0.88-0.326,0.905-1.717,1.771-1.771
					C140.281,198.037,141.514,201.602,142.371,202.551z M138.829,199.008c-0.53,0.523-0.85,1.258-1.519,1.645
					c-0.463,0.095-0.702-0.312-1.012,0c0.689,1.418,1.292,2.927,2.53,3.796c0.885-0.677,1.904-1.216,2.53-2.15
					C140.655,201.061,139.98,199.797,138.829,199.008z"/>
				<path d="M192.092,202.93c0.473,3.383,2.279,6.814,1.518,10.248c-0.858-0.062-1.854-0.25-2.529-0.127
					c-0.471,0.205-0.395,0.955-0.633,1.391c-1.01,0.041-1.357-0.582-2.023-0.885c0.272-2.346,0.602-4.248,0.126-6.453
					c-0.595-0.5-1.456-0.735-2.403-0.885c-0.037,1.438-0.688,2.264-1.14,3.291c0.916,0.896,2.442,1.182,3.289,2.148
					c0.134,0.549-0.577,1.252-1.012,1.645c-1.162-0.018-1.948-0.412-2.91-0.631c-0.376,0.34-0.427,1.006-0.759,1.391
					c-1.564-0.162-2.889-0.569-4.049-1.139c0.525-1.561,0.565-3.678,1.393-5.566c0.17-0.389,0.626-0.588,0.76-1.014
					c0.396-1.266-0.08-2.568,0.379-3.668c0.303-0.725,1.351-1.148,1.646-1.77c1.756-0.049,3.243,1.098,4.934,1.518
					C189.828,201.832,191.204,202.492,192.092,202.93z M182.855,203.182c-0.399,0.963-0.269,2.146-0.379,3.67
					c0.744,0.267,1.754,0.271,2.655,0.379c0.286-0.6-0.045-1.815,0.634-2.022c0.844,0.293,1.494,0.781,2.528,0.885
					c0.185-0.911,0.217-1.977,0.254-3.036C186.33,202.311,183.896,200.678,182.855,203.182z M189.309,202.93
					c0.029,1.508-0.137,3.469,0.127,5.062c0.799,0.434,2.187,0.235,3.035,0c-0.193-1.705-0.621-3.175-1.012-4.683
					C190.619,203.121,189.909,202.969,189.309,202.93z M181.844,207.482c-0.681,1.514-1.096,3.291-1.519,5.062
					c0.751,0.472,1.715,0.729,2.909,0.758c0.354-0.446,0.302-1.301,1.013-1.391c0.841,0.338,1.748,0.612,2.783,0.76
					c0.13-0.291,0.436-0.408,0.38-0.887c-0.789-0.941-2.45-1.009-3.163-2.023c0.187-0.573,0.534-0.983,0.507-1.771
					C183.83,207.773,182.775,207.689,181.844,207.482z M189.688,208.875c-0.029,1.518-0.899,3.686-0.127,4.807
					c0.681-0.121,0.559-1.043,1.141-1.264c0.898-0.098,1.41,0.191,2.275,0.127c0.433-1.08,0.281-3.162-0.379-3.922
					C191.852,208.986,190.652,209.092,189.688,208.875z"/>
				<path d="M121.75,223.045c-0.315,0.02-0.393-0.199-0.633-0.254c-0.114-1.082,1.163-0.775,1.139-1.771
					c-0.64-0.237-0.958,1.543-2.023,0.888c-0.083-0.699,1.066-1.191,1.771-1.519c-0.56-1.346-1.359,1.279-2.53,0.506
					c0.12-1.02,1.469-0.807,1.645-1.771c-0.941-0.029-1.175,1.617-2.15,0.76c0.383-0.672,0.934-1.176,1.897-1.266
					c1.546-1.66,3.196-3.216,4.175-5.439c2.382-1.329,3.082-4.342,4.302-6.834c0.675-0.125,0.881,0.22,1.265,0.382
					c0.292,0.039,0.141-0.365,0.38-0.382c0.018-0.438-0.641-0.198-0.633-0.631c0.048-2.276,2.412-4.369,3.922-2.276
					c-0.423,1.01-0.578,2.289-1.771,2.528c0.002,0.548,0.63,0.47,0.633,1.015c-1.119,2.76-2.846,4.914-4.429,7.211
					c0.112,0.225,0.354,0.322,0.253,0.758c-2.197,2.273-3.425,5.518-6.325,7.086C122.173,222.203,122.122,222.783,121.75,223.045z
					 M131.111,204.955c0.235,0.354,0.94,0.238,1.519,0.252c0.289-0.514,0.815-0.787,0.759-1.645
					C132.324,202.602,131.41,204.01,131.111,204.955z M129.847,207.357c-0.843,2.151-2.007,3.979-3.163,5.819
					c0.168,0.421,0.716,0.464,1.013,0.761c1.553-1.24,2.693-3.767,3.796-5.568c0.311-0.51,1.336-1.432,0.126-1.77
					C131.525,207.514,130.34,207.525,129.847,207.357z M125.798,213.809c-0.405,1.414-3.674,3.824-3.669,4.937
					c0.004,0.707,0.866,1.104,1.14,1.896c1.831-1.627,3.192-3.723,4.555-5.817C127.128,214.504,126.66,213.959,125.798,213.809z"/>
				<path d="M195.76,202.424c0.357,0.15,0.385,0.627,0.506,1.012c0.709,0.094,1.348,0.258,1.898,0.506
					c0.146,0.523,0.045,1.562-0.507,1.771c-0.685-0.287-1.453-0.486-2.15-0.758C195.439,204.037,195.15,203.244,195.76,202.424z
					 M196.141,204.574c0.562-0.016,0.783,0.312,1.266,0.381c-0.012-0.223,0.027-0.395,0.126-0.508
					c-0.405-0.184-0.703-0.478-1.392-0.379C196.141,204.236,196.141,204.404,196.141,204.574z"/>
				<path d="M203.855,204.447c0.181,0.617-0.135,1.514,0.381,2.025c0.75-1.074,2.418-0.009,3.162,0
					c-0.062,0.397,0.229,0.444,0.127,0.885c-0.791,0.18-1.109,0.83-1.52,1.391c-0.97-0.336-1.709-0.904-3.035-0.883
					c-0.223,0.281-0.302,0.709-0.507,1.01c0.794-0.035,1.493,0.025,1.897,0.379c-0.409,1.385-1.197,3.609-3.036,2.404
					c0.11-1.07,0.131-2.229,0.633-2.91c-2.14-0.305-1.937-2.955-2.91-4.428C200.109,203.609,202.396,204.359,203.855,204.447z
					 M200.188,205.08c0.795,0.68,0.371,2.582,1.646,2.785c0.415-0.094,0.139-0.875,0.632-0.887c0.472,0.119,0.703,0.479,1.392,0.379
					c-0.711-0.385-0.662-1.529-0.885-2.402C202.07,205.076,200.775,204.449,200.188,205.08z M205.755,207.865
					c0.312-0.152,0.494-0.436,0.634-0.762C205.441,206.002,204.096,207.648,205.755,207.865z M202.338,209.635
					c-0.212,0.346-0.411,1.203-0.126,1.646c0.92-0.093,1.08-0.943,1.267-1.771C202.988,209.441,202.859,209.734,202.338,209.635z"/>
				<path d="M213.598,207.865c0.008,0.385-0.113,0.643-0.379,0.758c0.197,0.393,0.698,0.482,0.887,0.887
					c-0.597,1.088-0.992,2.381-1.898,3.162c-0.609-0.234-1.434-0.252-1.896-0.635c0.086-0.336,0.199-0.643,0.379-0.885
					c-0.406-0.769-1.572-0.48-1.896,0.127c-0.866-0.314-1.302-1.062-1.898-1.646c0.295-0.676,0.506-1.436,1.14-1.77
					c0.989,0.231,1.61,0.834,2.784,0.883C211.299,207.484,212.286,206.877,213.598,207.865z M211.32,209.51
					c-0.229,0.307-0.912-0.344-0.885,0.379c0.735,0.111,1.308,0.619,0.758,1.646c0.279,0.143,0.518,0.325,1.013,0.252
					c0.261-0.836,0.979-1.213,1.013-2.275c-0.891-0.059-1.229-0.686-1.139-1.393C211.663,208.416,211.869,209.338,211.32,209.51z
					 M207.779,209.383c0.199,0.43,0.574,0.689,0.886,1.01c0.592-0.082,0.665-0.682,0.885-1.139
					C209.052,208.961,207.877,208.316,207.779,209.383z"/>
				<path d="M198.038,208.496c1.807-0.811,2.721,1.68,1.011,2.023c0.146,0.407,0.299,0.883,0.127,1.266
					c-2.346,0.596-3.762,0.32-4.681-1.518c0.375-0.935,1.278-1.334,1.519-2.402C197.001,207.932,197.975,207.393,198.038,208.496z
					 M195.38,210.52c0.297,0.336,0.536,0.73,1.013,0.888c0.189-0.148,0.149-0.525,0.506-0.507c0.531,0.334,0.636,0.31,1.52,0.252
					c0-0.422,0-0.844,0-1.264c0.173-0.25,0.764-0.082,0.759-0.506c0-0.086,0-0.17,0-0.256c-0.458-0.393-0.655,0.283-1.138,0.256
					c-0.314-0.193-0.536-0.479-0.633-0.887C196.16,208.6,195.807,209.598,195.38,210.52z"/>
				<path d="M88.983,208.244c0.568-0.021,0.528,0.568,0.505,1.139c0.688-0.199,0.899-0.873,1.52-1.139
					c2.353,2.199,3.901,5.207,5.692,7.969c-0.809,1.428-2.808,1.664-4.175,2.531c-1.574-1.211-2.142-3.426-3.29-5.062
					c-0.591,0.041-0.547,0.719-1.138,0.76c0.354,0.771,0.926,1.861,1.391,3.037c0.427,1.076,1.152,2.511,1.013,3.289
					c-0.235,1.312-2.101,1.474-3.416,2.023c-0.77-1.295-1.515-2.617-1.897-4.299c-0.672,0.084-1.053,0.936-1.645,0.379
					c0.07-0.816,1.267-0.504,1.392-1.266c-0.486-0.326-1.253,0.725-1.897,0.252c0.046-0.838,1.142-0.629,1.645-1.01
					c-0.496-0.72-1.411,0.68-2.151,0.125c0.104-0.806,1.271-1,1.898-0.888c0.869-0.815,2.144-1.229,3.289-1.771
					c-0.15-0.313-0.433-0.494-0.759-0.635c-0.724,0.248-0.952,0.988-1.771,1.142c-0.376-0.679-0.994-1.115-1.013-2.15
					C85.562,210.977,87.456,209.795,88.983,208.244z M90.88,209.127c-0.464,0.297-0.605,0.914-1.392,0.887
					c-0.521,0.101-0.236-0.604-0.759-0.504c-0.935,1.246-4.39,2.365-3.415,4.299c0.786-0.098,0.815-0.955,1.518-1.137
					c0.543,0.131,0.613,0.736,1.266,0.758c0.438-0.195,0.627-0.637,1.265-0.633c1.345,1.439,1.746,3.82,3.29,5.061
					c1.174-0.428,2.296-0.907,3.162-1.645C94.435,213.588,92.881,211.135,90.88,209.127z M87.718,215.201
					c-0.86,0.15-1.426,0.598-2.151,0.885c-0.142,2.631,0.994,3.984,1.645,5.82C91.736,221.752,88.538,217.314,87.718,215.201z"/>
				<path d="M136.679,213.682c-0.455,0.076-0.612-0.145-0.887-0.252c-0.52,0.365-0.749,1.021-1.264,1.394
					c-0.282-0.099-0.687-0.074-0.76-0.382c-0.35,0.283-0.471,0.795-0.886,1.015c-0.75-0.097-1.12-0.565-1.519-1.015
					c-0.085-0.717,0.411-0.854,0.507-1.391c-0.041-0.719-0.763-0.754-1.012-1.266c0.865-0.621,1.227-3.035,2.782-2.91
					c0.551,0.045,0.939,0.861,1.266,1.139C136.317,211.213,138.87,211.59,136.679,213.682z M133.389,209.635
					c-0.522,0.615-0.933,1.344-1.392,2.023c0.102,0.574,0.765,0.586,0.886,1.139c-0.108,0.611-0.999,1.201-0.379,1.771
					c0.629-0.088,0.618-0.814,1.012-1.14c0.63-0.165,0.538,0.392,1.013,0.38c0.331-0.427,0.421-1.097,1.012-1.265
					c0.473-0.137,0.36,0.312,0.759,0.252c0.179-0.242,0.334-0.51,0.38-0.885C135.553,211.182,134.424,210.455,133.389,209.635z"/>
				<path d="M213.473,214.189c-1.197,0.166-2.293-0.383-3.164-0.127c-0.291,0.26-0.086,1.092,0,1.393
					c0.319-0.254,2.574-0.811,3.036,0.127c-0.21,0.715-0.241,1.611-0.632,2.148c-0.973,0.045-1.18-0.674-2.277-0.504
					c-0.254,0.709,0.174,1.991-1.012,2.022c-0.221,1.256-1.474,1.479-1.771,2.656c-1.262-0.238-2.157-0.132-3.289-0.38
					c-0.377-0.914,0.109-1.979,0-3.034c-0.312-0.363-0.889-0.464-1.266-0.763c-0.011-0.643-0.055-1.319,0.254-1.645
					c0.205-0.215,0.528-0.314,1.012-0.252c0.106-0.996-0.364-1.643-0.127-2.404c0.337-0.127,0.645-0.131,0.887,0.127
					c0.295-0.211,0.325-0.686,0.506-1.012c2.607,0.43,5.691,1.051,8.604,0.758c-0.191-0.904-0.461-2.172,0.252-3.289
					c1.388-0.037,2.133,0.568,3.164,0.887c-0.438,1.244-0.354,2.246-0.885,3.416c0.104,0.357,0.775,0.148,1.012,0.379
					c-0.439,2.472-1.015,4.806-1.52,7.211c-0.854,0.011-1.734,0.048-2.277-0.252c-0.104-1.498,0.103-2.684,0.761-3.418
					c-0.636,0.002-1.169-0.096-1.646-0.252C213.115,216.908,213.509,215.486,213.473,214.189z M214.863,211.785
					c0.512,0.164,1.004,0.348,1.645,0.379c0.1-0.279,0.266-0.494,0.254-0.885c-0.531-0.229-0.99-0.527-1.771-0.508
					C215.02,211.18,214.766,211.307,214.863,211.785z M214.863,213.051c-0.077,0.605,1.326,0.713,1.519,0.252
					C216.089,213.039,215.336,212.734,214.863,213.051z M205.122,214.441c0.024,0.396-0.085,0.93,0.126,1.141
					c0.618,0.014,1.333-0.07,1.771,0.125c0.154-0.73,0.338-1.432,0.379-2.277C205.818,212.701,206.243,214.371,205.122,214.441z
					 M207.779,215.834c0.322,0.309,1.32-0.057,1.645,0.252c0-0.674,0-1.35,0-2.023C208.141,213.436,207.568,214.553,207.779,215.834
					z M214.23,215.582c0.432,0.029,0.607,0.318,1.14,0.252c0.139-0.492,0.68-1.117,0.505-1.518
					c-0.665,0.033-1.178-0.086-1.645-0.254C213.884,214.543,214.04,215.047,214.23,215.582z M215.496,216.719
					c-0.395-0.152-0.803-0.295-1.393-0.254c-0.211,0.17-0.041,0.719-0.252,0.887c0.697,0.271,1.603,0.338,2.529,0.379
					c0.204-0.766,0.508-1.432,0.506-2.403c-0.169,0-0.338,0-0.506,0C216.189,215.893,216.165,216.629,215.496,216.719z
					 M211.193,216.34c0.447,0.061,0.692,0.32,1.013,0.508c0.099-0.283,0.267-0.496,0.254-0.887
					C212.059,215.682,211.17,215.793,211.193,216.34z M205.248,218.109c-0.247,0.768-0.275,1.748-0.253,2.785
					c0.646,0.237,1.771,0,2.403,0.252c0.254-0.47-0.127-0.795,0.127-1.265c0.296,0,0.591,0,0.886,0
					c0.272-0.358,0.163-1.103,0.506-1.391c0.397-0.064,0.494,0.272,0.759,0c0-0.509,0-1.015,0-1.521
					c-1.553-0.531-4.257-0.09-5.818-0.254C203.73,217.771,204.943,217.486,205.248,218.109z M214.989,218.996
					c-0.257,0.586-0.442,1.242-0.38,2.15c0.416,0.008,0.63,0.215,1.14,0.127c0.082-0.621,0.372-2.144,0-2.402
					C215.732,219.15,215.212,218.924,214.989,218.996z"/>
				<path d="M228.652,214.822c0.131,0.51-0.196,0.562-0.379,0.76c0.302,0.203,0.681,0.33,0.886,0.631
					c-0.252,1.352-0.874,2.332-1.519,3.289c-1.201-0.488-1.613-1.994-2.91-2.023c0.021-1.709,0.717-2.742,1.14-4.049
					C227.048,213.643,227.95,214.131,228.652,214.822z M225.49,216.973c1.223,0.002,1.388,1.058,2.023,1.646
					c0.114-0.897,0.771-1.254,0.887-2.152c-0.426-0.164-0.965-0.215-1.14-0.631c-0.049-0.471,0.513-0.33,0.38-0.887
					C226.318,213.592,225.465,215.484,225.49,216.973z"/>
				<path d="M83.796,214.316c-0.359,0.44-0.906,0.694-1.392,1.01c-0.112-0.223-0.353-0.32-0.253-0.758
					C82.591,214.455,83.294,213.947,83.796,214.316z"/>
				<path d="M84.303,215.326c-0.219,0.652-1.357,0.973-2.024,0.76C82.307,215.27,83.664,215.115,84.303,215.326z"/>
				<path d="M128.075,216.719c0.962-0.117,1.279,0.408,1.771,0.76c0.369-0.403,0.532-1.067,1.139-1.139
					c0.592-0.07,0.814,0.531,1.392,0.76c0.301,0.119,0.697-0.086,1.012,0c1.02,0.275,1.576,1.328,2.024,1.519
					c-0.262,0.709-0.554,1.385-0.885,2.022c-0.522,0.058-0.475-0.453-0.887-0.506c-0.629-0.123-0.5,0.512-0.886,0.633
					c-0.087,0.51,0.533,0.312,0.507,0.76c-0.077,0.978-0.855,1.252-1.14,2.023c-0.453,0.074-0.61-0.148-0.885-0.252
					c-0.551,0.293-0.633,1.055-1.265,1.266c-2.214-0.78-3.346-2.646-4.935-4.049C125.897,219.094,126.927,217.848,128.075,216.719z
					 M129.847,218.492c-0.583-0.221-0.714-0.891-1.392-1.014c-0.921,0.893-1.709,1.918-2.404,3.037
					c0.49,0.27,0.753,0.766,1.392,0.885c0.935-0.527,1.209-2.683,2.784-1.771c0.601-0.748,1.471-1.229,2.024-2.023
					C130.914,216.457,130.922,218.086,129.847,218.492z M129.468,220.262c-0.648,0.576-1.132,1.314-1.519,2.15
					c0.518,0.621,1.257,1.02,2.024,1.393c0.404-0.524,0.509-1.348,1.138-1.645c0.577-0.156,0.4,0.443,0.76,0.504
					c0.107-0.396,0.478-0.533,0.506-1.01c-0.189-0.275-0.633-0.295-0.633-0.76c0.7-0.564,1.165-2.14,2.403-1.394
					c0.021-0.356,0.232-0.526,0.253-0.885C132.311,216.674,131.811,220.922,129.468,220.262z"/>
				<path d="M222.075,218.492c0.024,0.951-0.392,1.463-0.38,2.402c1.086,0.264,2.688,0.008,3.289,0.76
					c-0.035,0.977-0.356,1.666-0.76,2.274c-0.63,0.291-1.303-0.352-2.023-0.379c-0.508,0-0.42,0.593-0.76,0.759
					c-1.027-0.025-1.56-0.55-2.402-0.759c0-0.295,0-0.59,0-0.887c-0.507-0.084-1.102-0.08-1.52-0.252
					c-0.705-1.478,0.648-2.824,0.633-4.429C219.49,218.123,220.939,218.148,222.075,218.492z M218.911,218.617
					c-0.249,1.049-0.95,2.209-0.759,3.289c0.604,0.07,1.271,0.078,1.771,0.254c-0.075,0.301-0.182,0.576-0.126,1.012
					c0.619-0.029,0.794,0.385,1.391,0.379c0.278-0.229,0.1-0.912,0.633-0.887c0.611,0.275,1.313,0.461,2.024,0.635
					c0.187-0.406,0.435-0.748,0.38-1.393c-0.806-0.545-2.662-0.035-3.289-0.76c0.26-0.802,0.463-1.549,0.252-2.275
					C220.621,218.914,219.736,218.68,218.911,218.617z"/>
				<path d="M123.647,222.412c-0.246,0.826-0.858,1.902-1.897,1.518C122.065,223.107,122.571,222.475,123.647,222.412z"/>
				<path d="M124.406,223.424c-0.51,0.629-0.796,1.482-1.771,1.645C122.236,224.086,123.599,223.199,124.406,223.424z"/>
				<path d="M89.616,230.002c-0.222,0.609-1.238,1.004-1.898,0.76C87.875,230.09,88.962,229.768,89.616,230.002z"/>
				<path d="M88.983,233.166c-0.119-0.822,1.222-1.293,1.645-0.76C90.326,232.902,89.545,233.32,88.983,233.166z"/>
				<path d="M90.88,233.039c-0.234,0.516-0.963,1.102-1.645,0.76C89.438,233.254,90.244,232.742,90.88,233.039z"/>
				<path d="M95.941,239.619c-0.96,0.178-1.785,0.492-2.656,0.758c-0.672-0.094-0.787-0.811-1.646-0.379
					c-0.64-0.295-2.272-2.465-2.151-3.416c0.094-0.721,3.956-3.041,5.441-2.656C95.228,235.498,96.977,237.4,95.941,239.619z
					 M93.664,234.557c-0.943,0.873-2.608,1.021-3.289,2.152c0.412,0.938,0.745,1.953,1.392,2.656c0.465-0.041,0.7-0.312,1.139-0.381
					c0.323,0.1,0.215,0.631,0.633,0.635c0.683-0.119,1.291-0.312,1.771-0.635C95.704,237.223,94.946,235.369,93.664,234.557z"/>
				<path d="M172.229,160.801c0.321-0.369-0.396-0.777-0.252-1.392c4.224-2.013,8.129-3.927,12.271-6.199
					c0.51,0.208,0.386,1.049,0.633,1.519c0.503,0.129,1.007,0.258,1.267,0.633c0.937,0.328,2.711-0.182,3.035,0.76
					c-0.51,0.959-2.221-0.348-3.164,0.253c0.5,0.64,1.906,0.371,2.657,0.759c0.104,0.358-0.178,0.328-0.126,0.633
					c-1.104,0.537-4.081-1.599-4.049,0.508c0.982,0.188,3.564-0.217,3.795,1.138c-0.77,0.222-2.702-0.243-3.795-0.506
					c0.041,0.59-0.098,0.997-0.253,1.392c1.317,0.2,2.848,0.189,3.543,1.014c-0.492,0.973-2.554-0.233-3.543-0.381
					c-0.296,0.252-0.183,0.914-0.506,1.139c-1.233,0.011-2.675,0.229-2.657-1.012c-0.604,0.364-1.598,0.342-2.275,0.633
					c0.215,1.006,0.729,1.716,0.758,2.91c-0.855,0.873-2.375,1.082-3.162,2.023c1.599-0.258,2.311-1.4,3.67-1.898
					c0.433-0.053,0.379,0.381,0.631,0.508c1.749-0.035,2.979-0.034,3.796,0.125c-0.071,1.363-0.788,2.08-0.759,3.543
					c0.801,0.828,2.433,0.318,3.542,0.632c-0.3,1.479-2.308,0.391-3.923,0.506c0.074,1.317,2.754,0.03,3.164,1.014
					c-1.123,1.316-3.746-0.127-4.808-0.127c-0.067-0.397-0.223-0.707-0.381-1.012c-2.647,1.271-5.519,2.326-8.603,3.162
					c1.101,1.346,1.306,3.586,3.289,4.049c0.291-0.426,0.134-1.301,0.381-1.771c0.435-0.056,0.707,0.051,1.011,0.127
					c0.354-0.615,0.428-1.515,0.76-2.15c0.431,0.033,1.025-0.1,1.267,0.125c0.125-0.717,0.158-1.527,0.633-1.898
					c1.191-0.123,2.599,0.607,3.795,0.76c0.804,0.104,2.349-0.396,2.277,0.888c-1.002,0.242-2.012-0.345-3.164,0
					c-0.094,1.778,3.084,0.289,3.543,1.519c-0.644,0.811-2.229-0.15-3.543,0.127c-0.221,0.116-0.278,0.395-0.254,0.76
					c0.644,0.705,2.666,0.031,3.037,1.012c-0.652,1.02-2.539-0.6-3.416,0.252c0.683,0.668,2.444,0.256,3.416,0.633
					c0,0.211,0,0.422,0,0.633c-0.955,0.33-2.443-0.473-3.543,0c-0.209,0.127-0.137,0.537-0.253,0.76
					c0.884,0.466,2.835-0.137,3.417,0.632c-0.068,0.104-0.133,0.206-0.128,0.381c-1.08,0.229-2.471-0.347-3.415,0.127
					c0.803,0.883,3.461-0.088,3.669,1.392c-1.112,0.325-2.596-0.669-3.922-0.128c-0.011,0.201,0.06,0.482-0.127,0.507
					c0.632,0.719,2.481,0.217,3.163,0.887c-0.251,0.654-0.458,0.682-0.506,1.391c-0.891,0.035-1.411-0.496-2.151-0.252
					c0.648,0.576,2.492-0.045,2.53,1.139c-0.814,0.478-2.094-0.315-3.289-0.254c-0.283,0.055-0.051,0.623-0.127,0.887
					c0.911,0.48,2.368,0.414,3.289,0.886c0,0.17,0,0.338,0,0.506c-1.088,0.344-2.439-0.736-3.669-0.252c0,0.211,0,0.42,0,0.633
					c0.71,0.957,3.013-0.16,3.037,1.265c-0.962,0.352-2.445-0.351-3.289-0.127c0.034,1.44,2.075,0.877,3.161,1.266
					c0.238,0.242,0.016,0.318,0,0.633c-0.771,0.277-1.737-0.262-2.781-0.127c-0.293,0.131-0.264,0.582-0.254,1.014
					c1.085,0.666,3.079-0.268,3.543,0.885c-0.248,1.558-0.934,2.941-0.127,4.049c0.721,0.99,2.312,1.041,3.416,1.646
					c0.838-0.481,0.456-1.731-0.381-1.896c0.149-0.611,0.39-1.131,0.381-1.9c-0.397-0.445-1.231-0.455-1.645-0.883
					c-0.344-0.369,0.487-1.148,0-1.646c-0.738-0.104-0.154,1.111-1.013,0.885c-0.183-0.479,0.255-1.311,0.633-1.645
					c0.581,0.01,0.82,0.361,1.265,0.508c0.102,0.648-0.267,0.828-0.254,1.391c0.393,0.41,0.969,0.636,1.646,0.761
					c0.338,0.713-0.173,1.342-0.252,2.022c0.035,0.515,0.549,0.549,0.759,0.888c0.044,0.676-0.056,1.209-0.254,1.645
					c0.915,1.109,2.486,1.562,4.176,1.896c0.521-1.25,0.969-2.572,1.266-4.05c-0.454-0.893-1.668-1.03-2.403-1.645
					c-0.62,0.098-0.595,0.84-1.14,1.014c-0.606-0.297-0.965-0.477-1.645-0.127c-0.188-0.393,0.037-0.697,0.253-1.014
					c0.63-0.123,0.755,0.26,1.14,0.381c0.479-0.152,0.523-0.738,0.886-1.012c1.577,0.318,2.643,1.152,3.669,2.023
					c0.064,0.737-0.299,1.053-0.38,1.645c0.22,0.793,1.36,0.666,1.897,1.139c0.758-0.588,1.614-0.701,2.909-0.506
					c1.002-0.432,0.419-2.447,0.886-3.416c1.596-0.053,2.447,0.639,3.543,0.76c0.521,1.199,0.611,3.205,0.127,4.428
					c0.127,0.209,0.537,0.138,0.758,0.252c0.354-1.309,1.011-2.896,1.266-4.428c0.198-1.184-0.131-2.512,0.506-3.289
					c0.619,0.295,0.061,0.998,0.381,1.521c0.281-0.437,0.137-1.297,0.633-1.521c0.711,0.32-0.302,1.578,0.379,1.898
					c0.322-0.523-0.061-1.748,0.76-1.771c0.429,0.479-0.274,1.412,0.253,1.646c0.334-0.256-0.099-1.278,0.38-1.394
					c0.87,0.228,1.239,0.953,1.266,2.025c-0.379,0.15-0.431,0.033-0.76-0.127c0.094,0.936-0.142,1.545-0.127,2.404
					c0.18,0.369,0.695,0.402,1.014,0.631c0.25-0.537,0.155-1.084,0.125-1.645c0.602-1.24,2.133-0.584,3.164-1.011
					c-0.006,0.884,0.11,2.857-0.127,3.921c-1.189-0.388-1.619,0.293-2.529,0.508c-0.754,1.76,0.619,3.94-0.381,5.69
					c-1.84-0.185-3.52-0.526-4.808-1.264c-0.101-0.759,0.655-1.691,0.761-2.656c-0.221-0.498-0.932-0.504-1.52-0.635
					c-0.654,0.526-0.562,1.801-0.887,2.657c-0.998,0.072-1.592-0.264-2.276-0.506c0.015-1.211,0.653-1.793,0.632-3.037
					c-1.206,0.354-0.718,2.402-1.392,3.289c-0.655-0.104-1.273-0.244-1.771-0.504c0.074-0.807,0.677-0.268,1.14-0.127
					c0.441-0.865,0.691-1.922,0.886-3.037c-0.545-0.385-1.152-0.705-2.024-0.76c-0.177,0.895,0.651,0.783,0.508,1.645
					c-0.707,0.562-1.229,1.304-1.772,2.025c-1.745-0.363-3.142-1.078-4.429-1.897c-1.471,1.497-3.9-0.474-5.818-1.394
					c-1.689-0.807-3.468-1.049-4.428-2.022c-0.512-1.371-0.208-2.556,0-4.05c-0.575-0.438-1.799-0.225-2.657-0.379
					c-0.871,0.847-0.388,2.67-0.886,3.797c-0.213,0.48-1.115,1.449-1.519,1.519c-0.771,0.131-3.206-1.06-3.796-1.519
					c0.421-1.647,0.684-3.452,1.266-4.936c0.898,0.127,1.897,0.562,2.656,0.127c-0.433-0.285-1.175-0.26-1.012-1.139
					c-0.666,0.033-1.179-0.086-1.645-0.254c-0.101-0.324-0.336-0.893-0.127-1.139c0.455-0.283,0.861,0.127,1.392-0.127
					c-0.365-1.617,0.327-3.193,0.759-4.429c1.123-0.248,2.465,1.011,2.91-0.125c-3.98-0.698-7.773-1.588-12.271-1.771
					c-0.881-0.594-0.976-1.978-2.276-2.15c-0.324,0.48,0.373,0.84,0.379,1.391c0.09,0.555-0.657,0.271-0.759,0.633
					c-0.014,0.562,0.354,0.742,0.254,1.392c-1.842,0.674-3.902,2.246-6.073,1.772c-0.782-1.291-0.675-2-1.14-3.67
					c1.128-0.604,2.14-1.319,2.785-2.403c1.342-0.386,2.477-0.98,3.668-1.519c-0.176-0.457-0.558-0.709-0.633-1.266
					c-0.47,0.164-0.47,0.797-1.14,0.76c-1.233-1.158-2.324-2.682-2.276-4.428c1.284-0.598,2.896-1.346,4.428-1.645
					c0.354-0.07,0.678,0.104,1.013,0c1.42-0.453,2.33-1.726,3.542-2.15c-0.121-0.26-0.258-0.502-0.379-0.76
					c-0.912,0.334-3.084,1.553-3.416-0.127c-0.398-0.062-0.447,0.229-0.887,0.127c-0.432-0.328-0.234-1.283-0.758-1.519
					c-0.629,0.358,0.338,0.903,0.125,1.646c-0.726,0.412-1.757,0.52-2.528,0.885c-0.089,0.508,0.12,0.723,0.126,1.139
					c-0.381,0.34-1.438,0.668-1.771,0.633c-1.152-1.73-2.285-3.812-2.402-6.199c1.402-0.409,2.361-1.264,3.795-1.645
					c1.294-1.193,4.322-0.654,5.312-2.15c0.358-0.104,0.328,0.179,0.633,0.127c1.012-0.846,1.832-1.881,3.416-2.15
					C171.619,159.555,171.881,160.223,172.229,160.801z M183.741,154.35c-2.368,1.344-5.035,2.387-7.085,4.049
					c0.772,0.744,1.383,1.651,2.15,2.402c1.127,0.016,2.069-0.775,2.783-0.759c0.422,0.125,0.105,0.989,0.379,1.267
					c0.465,0,0.928,0,1.393,0c0.356-1.209,0.748-2.896,0.38-4.43c0.463-0.338,1.545-0.059,1.518-0.885
					C184.628,155.57,184.339,154.807,183.741,154.35z M172.986,159.789c-0.032,1.003,0.49,1.45,0.76,2.15
					c1.604-0.084,2.494-0.881,3.669-1.393c-0.479-0.87-1.279-1.418-1.771-2.275C174.841,158.857,174.145,159.555,172.986,159.789z
					 M170.71,159.916c-1.205,0.775-2.437,1.525-3.036,2.909c0.248,0.638,0.842,0.93,1.393,1.265
					c0.346-0.201,0.541-0.554,1.139-0.505c0.488,0.479,0.91,1.029,0.887,2.024c-0.395,0.281-0.982,0.365-1.52,0.505
					c0.388,3.136,2.857,1.562,4.556,0.633c0.056-1.108-0.519-1.591-0.76-2.403c-0.627,0.09-0.604,0.828-1.392,0.76
					c-0.474-0.539-0.709-1.316-1.014-2.024c0.171-0.547,1.084-0.351,1.141-1.013C171.87,161.118,171.402,160.404,170.71,159.916z
					 M175.771,162.699c0.688-0.133,2.018-0.904,1.771-1.141c-1.322,0.407-2.242,1.217-3.796,1.394
					c-0.407-0.099-0.692-0.32-0.885-0.634c0.062,0.779-0.68,0.756-1.012,1.14c0.188,0.106,0.182,0.406,0.252,0.632
					c0.603-0.113,0.679-0.754,1.266-0.886c0.308,0.157,0.589,0.34,0.76,0.633C174.449,163.232,175.328,163.184,175.771,162.699z
					 M163.246,163.711c0.173,0.839,0.605,1.418,1.012,2.023c0.383-0.039,0.452-0.392,1.014-0.254
					c0.196,0.562,0.275,1.242,0.633,1.646c0.106-0.188,0.318-0.271,0.632-0.254c0.214,0.336,0.293,0.804,0.506,1.141
					c0.897,0.137,1.203-0.316,1.897-0.381c-0.578-1.742-1.246-3.394-2.276-4.681c-0.028-0.24,0.144-0.28,0.127-0.507
					C165.661,162.92,163.918,162.78,163.246,163.711z M175.266,164.217c-0.018,0.733,0.336,1.098,0.506,1.645
					c1.014-0.631,2.176-1.112,3.037-1.896c-0.332-0.385-0.195-1.238-0.76-1.393C177.124,163.124,175.871,163.348,175.266,164.217z
					 M158.943,165.355c0.281,1.955,1.055,3.416,2.024,4.68c0.171-0.039,0.242-0.18,0.507-0.125c0.219-0.432-0.16-0.895,0.127-1.393
					c0.668-0.427,1.806-0.387,2.402-0.886c-1.055-0.938-1.105-2.446-1.518-3.796C161.052,164.089,160.171,164.896,158.943,165.355z
					 M168.686,165.104c0.147,0.021,0.139,0.199,0.127,0.379c0.451-0.14,0.767-0.416,1.393-0.379
					C170.148,164.001,169.021,165.294,168.686,165.104z M173.494,171.807c1.706-0.408,6.972-1.451,7.338-3.035
					c0.17-0.738-0.62-2.299-1.141-2.91c-1.396,0.967-3.461,2.468-5.692,1.771c-0.875,0.77-2.388,0.9-3.162,1.771
					c0.254,1.137,0.815,1.967,1.267,2.908C172.466,172.264,172.941,171.939,173.494,171.807z M180.958,166.114
					c0.217,1.512,0.758,2.7,1.265,3.921c1.045-0.727,1.166-3.051,1.393-4.174C182.962,166.18,181.637,165.823,180.958,166.114z
					 M175.266,167C175.186,165.627,174.562,166.249,175.266,167L175.266,167z M170.204,169.91c-1.302,0.205-2.198,1.477-3.542,1.896
					c-0.322,0.102-0.68-0.062-1.014,0c-1.383,0.264-2.679,1.079-3.922,1.52c0.502,1.016,0.883,2.154,1.771,2.783
					c0.395-0.24,0.488-0.777,1.013-0.887c0.847,0.61,0.683,2.024,1.646,2.276c1.792,0.469,5.343-2.799,6.451-3.037
					C171.711,173.043,170.836,171.598,170.204,169.91z M180.073,173.326c0.559,0.109,1.62,0.266,2.149,0
					c0.066-1.037-1.091-0.852-2.023-0.887C180.271,172.852,180.111,173.027,180.073,173.326z M177.922,176.361
					c-0.312,0.1-0.876-0.459-0.887,0.127c0.65,0.74,2.676,1.205,4.302,1.393c0.356-1.037,0.558-2.229,0.761-3.418
					c-1.479-0.342-2.474,0.314-3.416-0.379C178.215,174.631,178.4,175.83,177.922,176.361z M172.861,175.223
					c-1.828,1.334-4.127,2.199-6.199,3.289c0.411,0.771,0.809,1.553,1.265,2.277c0.935-0.75,2.325-0.275,3.923-0.379
					c-0.054,1.107,1.383,1.184,2.149,0.758c0.198-1.277,0.033-2.918,0.507-3.92C174.023,176.508,173.623,175.684,172.861,175.223z
					 M175.012,177.881c-0.279,0.791-0.433,2.414,0,3.162c1.771,0.463,4.053,0.416,5.692,1.012c0.28-0.984,0.471-2.061,0.38-3.416
					C179.008,178.271,176.725,177.787,175.012,177.881z M160.336,181.549c-0.406,0.033-1.178,0.553-0.633,0.76
					c1.545-1.492,4.727-1.35,5.945-3.164c-0.188-0.106-0.271-0.317-0.252-0.633C163.336,179.152,161.333,179.846,160.336,181.549z
					 M159.83,183.32c0.178,0.539,0.229,1.203,0.759,1.391c1.714-0.311,2.881-1.168,4.556-1.518
					c-0.416-0.996-0.178-1.521-0.127-2.277C163.098,181.525,160.953,181.912,159.83,183.32z M171.343,181.295
					c-0.351-0.059-1.384-0.178-1.392,0C170.299,181.389,171.307,181.674,171.343,181.295z M179.188,182.561
					c-0.842-0.172-2.08-0.617-3.037-0.252C176.959,182.514,178.234,182.922,179.188,182.561z M178.049,184.965
					c-0.193,0.904-0.58,1.613-0.507,2.783c0.553,0.375,1.153,0.701,2.024,0.758c0.313-0.992,0.594-2.02,0.759-3.162
					C179.66,185.123,179.002,184.895,178.049,184.965z M178.049,189.139c-0.277,0.293,0.324,0.42,0.126,1.012
					c0.327,0.222,1.078,0.021,1.013,0.634c0.059,1.563-1.812,1.553-3.037,1.141c-0.369,1.232-0.688,2.515-1.012,3.793
					c0.855,0.41,1.922,0.609,2.91,0.888c1.606-1.381,1.659-4.871,1.771-7.338C179.16,189.33,178.57,188.809,178.049,189.139z
					 M205.501,197.869c0.593,0.082,0.993,0.357,1.646,0.379c0.373-0.596,0.278-1.66,1.393-1.518c0.133-0.562,0.225-1.482,0-2.023
					c-1.008,0.24-1.557-0.135-2.404-0.127C206.148,195.902,205.486,196.547,205.501,197.869z M200.188,195.086
					c0.266,1.107-0.151,1.518-0.125,2.656c0.754,0.551,1.826,0.787,2.782,1.141c0.433-0.52,0.298-2.203,0.126-2.91
					c-0.255-0.285-0.42,0.666-0.885,0.252c-0.2-0.266-0.088-0.842-0.253-1.139C201.198,195.197,200.665,194.73,200.188,195.086z
					 M211.447,198.121c0.343-0.248,0.839-0.34,1.392-0.379c0-0.676,0-1.35,0-2.025C210.873,194.891,210.545,197.096,211.447,198.121
					z M208.284,197.49c-0.493,0.475-0.55,1.389-1.265,1.645c-0.367-0.35-1.078-0.357-1.646-0.508c0.021,0.4-0.336,0.424-0.253,0.887
					c1.494,0.531,3.561,1.162,5.188,1.139c-0.34-0.639-0.012-1.694,0-2.403C209.719,197.912,209.122,197.58,208.284,197.49z
					 M196.266,198.883c-1.017-0.307-2.99-1.662-2.783,0.631c1.498,0.4,2.436,1.359,4.05,1.646c0.688-0.24,0.479-1.373,1.266-1.519
					c-0.163-0.428-0.665-0.518-0.507-1.266C197.216,198.146,196.938,198.707,196.266,198.883z M202.592,202.172
					c0.299-0.004,0.372,0.217,0.76,0.125c0.234-0.566,0.281-1.318,0.506-1.896C202.73,199.811,202.561,201.189,202.592,202.172z
					 M207.021,201.031c-0.266,0.664-0.463,1.395-0.508,2.277c0.893,0.543,2.182,0.686,3.415,0.887
					c0.24-0.816,0.198-2.371-0.126-3.037C208.822,201.168,208.08,200.941,207.021,201.031z"/>
				<path d="M142.751,180.41c-1.724,1.098-2.417-0.793-3.163-1.771c-0.556,0.191,0.046,0.787-0.253,1.139
					c-0.699,0.267-1.954,1.291-2.656,0.38c-0.367,0.098-0.328,0.6-0.887,0.508c-0.665-0.771-1.213-1.654-1.771-2.531
					c-0.37-0.032-0.389,0.285-0.759,0.255c-0.444-0.529-1.338-0.939-1.266-1.646c0.064-0.623,1.834-1.504,2.531-1.896
					c1.729-0.977,4.107-1.953,5.439-2.404c0.178,0.685-0.342,0.67-0.38,1.14c-2.511,0.317-4.549,2.194-6.832,3.162
					c0.143,0.772,0.857,0.853,1.519,0.508c0.538,0.812,0.97,1.729,1.646,2.401c0.521,0.101,0.237-0.604,0.759-0.506
					c0.426,0.037,0.366,0.562,0.759,0.634c0.465-0.041,0.7-0.312,1.139-0.38c0.089-0.469-0.216-0.543-0.126-1.012
					c0.413-0.262,0.877-0.473,1.392-0.633c0.702,0.604,0.892,1.721,1.644,2.277c0.169,0,0.338,0,0.507,0
					c0.292,0.039,0.14-0.365,0.379-0.381c-0.784-1.965-2.18-3.963-2.783-5.691c-0.122-0.438,0.636,0.334,0.759,0.504
					c0.238,0.33,0.794,1.408,1.266,2.277C142.45,178.289,143.045,178.799,142.751,180.41z"/>
				<path d="M171.217,191.67c0.708,0.766,2.569,0.381,3.415,1.012c-0.007,1.426-0.274,2.592-0.633,3.67
					c-1.219-0.215-2.923,0.056-3.922-0.379c-0.248-0.453,0.06-0.678,0-1.266c-1.046-0.432-1.37,0.887-1.646,1.645
					c-0.934-0.121-1.787-0.322-2.529-0.635c-0.142-0.365-0.229-0.783-0.254-1.264c-0.283,0.348-0.325,0.938-0.633,1.264
					c-1.608-0.16-2.912-0.627-4.048-1.264c0.244-2.539,0.869-4.697,1.267-7.084c1.484,0.635,3.938-0.379,4.681,0.506
					c0.201-0.945,0.293-2.932,0.633-4.43c0.379,0,0.759,0,1.138,0c0.349-0.271-0.125-0.58,0.127-0.885
					c1.613,0.178,4.283,0.342,5.819,1.014c-0.098,0.365-0.312,0.613-0.886,0.504c0.779,0.385,0.302,1.152,0.253,1.898
					c-0.604,0.098-0.813-0.197-1.392-0.127c-0.063,0.737,1.281,0.067,1.266,0.76c-0.094,0.647-0.578,0.414-1.139,0.379
					c-0.42,0.002-0.129,0.715-0.381,0.887c-1.015,0.188-2.131,0.125-3.162,0c0.058,0.611,0.838,0.303,1.267,0.252
					c0.203,0.467,0.203,1.684,0,2.15c0.583-0.258,0.258-1.428,0.633-1.896c1.545,0.205,3.259-0.449,4.175,0.252
					c0.006,1.23-0.227,2.221-0.38,3.291C173.699,192.615,172.51,191.654,171.217,191.67z M169.445,184.205c-0.465,0-0.928,0-1.394,0
					c0.089,1.016-0.288,1.566-0.252,2.531c1.028,0.44,2.638,0.561,3.921,0.379c0.139-1.129,0.361-2.17,0.381-3.416
					C171.253,183.658,169.438,182.9,169.445,184.205z M161.602,193.947c0.735,0.613,1.924,0.775,3.037,1.012
					c0.193-0.48,0.365-0.982,0.506-1.518c-0.283-0.31-1.104-0.078-1.266-0.506c-0.053-0.896,0.141-1.547,0.506-2.025
					c0.26-0.289,1.133,0.037,1.393-0.252c0.141-0.744,0.275-1.496,0.253-2.404c-1.136,0.129-1.962-0.049-3.29,0
					C162.369,190.16,161.822,191.891,161.602,193.947z M166.535,195.213c0.554,0.078,0.938,0.328,1.518,0.379
					c0.25-0.467,0.254-1.18,0.633-1.52c2.146,0.029,2.407-2.443,1.014-3.414c0.183-0.408,0.119-1.062,0.127-1.645
					c-0.896-0.033-1.44-0.416-2.151-0.634C166.982,190.334,165.907,192.713,166.535,195.213z M171.343,190.783
					c1.015,0.125,1.714,0.564,2.784,0.633c0.154-0.73,0.338-1.432,0.379-2.277C173.175,189.055,170.996,188.414,171.343,190.783z
					 M164.512,192.428c0.209,0.213,0.742,0.103,1.139,0.127c0.141-0.24,0.162-0.598,0.254-0.885
					C165.208,191.32,164.402,191.594,164.512,192.428z M171.217,192.807c-0.177,0.838-0.516,1.51-0.38,2.658
					c0.74,0.146,1.629,0.145,2.53,0.127c0.229-0.701,0.398-1.455,0.506-2.277C173.212,192.92,172.26,192.82,171.217,192.807z"/>
				<path d="M142.624,190.91c0.42,0.045,0.199,0.73,0.254,1.139c0.23-0.189,0.297-0.545,0.505-0.758
					c1.049-0.021,1.66-0.404,2.657,0.125c-0.494,0.896-0.399,2.385-1.518,2.656c0.127-1.217-0.802-1.105-1.519-0.883
					c-0.105-0.148-0.167-0.342-0.126-0.635c-0.197,0.184-0.25,0.51-0.759,0.381C141.914,192.289,142.166,191.285,142.624,190.91z"/>
				<path d="M129.341,192.682c0.609,0.107,0.82,0.613,1.265,0.887c0.918-1.082,1.566-4.135,3.542-2.276
					c0.451-0.267,1.038-0.397,1.393-0.76c-0.106-0.316-0.166-0.679-0.127-1.14c0.735-0.317,1.302-0.807,2.277-0.887
					c1.072,1.291,1.828,2.896,2.277,4.809c-1.273-0.028-2.144,0.65-3.162,1.013c-0.635,0.225-1.405,0.135-2.025,0.506
					c-1.539,0.924-1.723,3.354-3.669,3.795c-1.291,0.94-1.836,3.07-2.783,4.556c-1.705,2.68-4.113,4.797-5.439,7.719
					c-0.003,0.297,0.218,0.373,0.126,0.758c-0.983,1.422-1.79,3.018-3.163,4.049c-1.197-0.066-1.65-0.879-2.529-1.266
					c-0.974,0.629-1.725,1.479-2.657,2.149c0.208,0.806,1.219,0.808,1.518,1.519c-0.654,1.512-1.865,3.094-3.415,3.291
					c-1.442,1.367-4.799,6.104-6.578,2.022c1.116-1.284,2.641-2.166,3.669-3.541c-0.122-0.639-0.877-0.643-0.886-1.391
					c-0.142-0.691,0.658-0.439,0.759-0.888c0.094-0.518-0.408-0.438-0.254-1.014c1.121-0.521,1.644-1.645,2.784-2.15
					c-0.198-0.393-0.352-0.828-0.759-1.012c-0.523,0.025-0.396,0.701-1.013,0.633c-1.268-1.221-2.903-2.074-3.796-3.67
					c1.537-1.289,2.652-1.658,3.923,0.254c0.253-0.719-0.801-1.221-1.013-1.897c0.232-0.779,0.812-1.211,1.265-1.771
					c0.393,0.676,3.207,2.146,3.289,3.162c0.101,1.24-1.855,1.289-2.023,2.656c1.068,0.166,2.036-2.496,3.416-0.885
					c0.848-0.629,1.021-1.932,1.771-2.658c0.425-0.004,0.669,0.176,0.886,0.381c0.401-0.23,0.504-0.762,1.012-0.887
					c0.692,0.121,1.364,1.141,2.024,0.506c-0.844-1.137-1.572-2.391-2.784-3.162c-0.635,0.334-0.688,1.252-1.264,1.645
					c-0.926-0.34-1.702-0.827-2.278-1.518c0.484-2.469,2.674-3.229,3.923-4.934c1.702,0.281,3.29,2.281,4.807,1.012
					c0.709-0.594,1.398-2.156,2.15-3.289c0.814-1.227,1.363-2.559,2.025-3.291C127.562,194.375,128.614,193.441,129.341,192.682z
					 M136.173,189.898c0,0.422,0,0.844,0,1.266c-0.954,0.713-2.257,0.93-3.543,0.379c-0.429,1.174-1.082,2.123-1.897,2.91
					c-0.619-0.141-0.75-0.768-1.265-1.012c-0.529,0.567-0.924,1.27-1.266,2.022c1.31,0.418,1.991,1.468,3.162,2.025
					c1.43-0.56,1.571-2.289,2.783-3.164c1.278-0.92,3.279-0.701,4.809-1.646C138.562,191.15,137.84,188.285,136.173,189.898z
					 M128.202,196.477c-1.197,2.515-3.116,4.308-4.175,6.959c0.503,0.635,1.335,0.943,2.151,1.265c1.654-2.056,2.848-4.57,4.3-6.83
					C129.667,197.459,129.349,196.555,128.202,196.477z M118.967,202.045c-0.845,1.559-2.712,2.096-3.29,3.92
					c0.322,0.396,0.815,0.619,1.266,0.887c0.506-0.69,0.995-2.115,2.277-1.266c0.233-1.115,0.965-1.732,1.266-2.783
					C120.264,202.266,119.479,202.291,118.967,202.045z M121.877,203.436c-0.656,0.988-1.058,2.232-1.519,3.416
					c0.429,0.963,1.474,1.312,1.897,2.275c0.051,0.539-0.604,0.822-0.253,1.266c0.769-0.156,0.804-1.088,1.266-1.77
					c0.728-1.076,1.967-1.842,2.277-3.164C124.445,204.738,123.248,203.465,121.877,203.436z M110.49,208.623
					c0.232,0.906,1.13,1.148,1.139,2.277c-0.309,0.322-0.604,0.66-1.266,0.633c-0.621-0.477-0.966-1.229-1.645-1.645
					c-0.266,0.282-0.561,0.534-0.886,0.758c0.448,0.432,2.078,2.621,2.784,2.53c0.481-0.062,0.996-1.37,1.392-1.771
					c0.536-0.545,1.137-0.584,1.265-1.266c-0.807-0.668-1.463-1.488-2.277-2.15C110.849,208.221,110.665,208.418,110.49,208.623z
					 M118.334,210.52c-0.289-0.133-0.448-0.395-0.886-0.379c0.509,1.728,2.436,2.035,3.669,3.037
					c0.367-0.562,0.865-0.99,1.012-1.771C121.124,210.537,119.361,208.85,118.334,210.52z M116.815,211.406
					c-0.057,0.365-0.447,0.396-0.38,0.885c1.36,0.582,1.511,2.369,3.164,2.656c0.373-0.301,0.796-0.553,0.886-1.139
					C119.471,212.799,118.208,212.037,116.815,211.406z M114.412,212.164c-0.821,0.115-0.774,1.27-1.771,1.393
					c0.346,1.004,1.223,1.478,1.898,2.15c0.858-0.658,1.861-1.176,2.276-2.277C115.885,213.109,115.327,212.037,114.412,212.164z
					 M110.363,216.973c0.473,0.969-0.504,1.043-0.505,1.898c0.182,0.07,0.309,0.197,0.379,0.379
					c1.278-0.619,2.237-1.559,3.036-2.658C112.27,214.678,111.238,215.713,110.363,216.973z M110.996,220.262
					c0.57,0.314,1.131,0.639,1.645,1.012c0.833-1.106,2.264-1.616,2.657-3.164C113.581,216.396,111.772,218.787,110.996,220.262z
					 M107.327,223.551c0.302,0.373,0.554,0.795,1.139,0.887c1.062-0.922,2.295-1.67,3.037-2.91
					C109.941,219.744,108.352,222.508,107.327,223.551z"/>
				<path d="M222.201,191.291c0.572,0.018,0.509,0.672,0.506,1.264c0.115,0.348,0.443-0.223,0.633,0.127
					c-0.133,0.918,0.926,1.443,1.014,2.531c0.578-0.197,0.988-0.035,1.012,0.631c1.021-0.051,1.85,0.09,2.402,0.508
					c0.494,1.494-0.449,2.666-1.896,2.148c-0.432,0.748-1.168,1.438-2.404,1.014c0.579,0.473,1.654,0.547,1.646,1.896
					c0.649,0.102,2.152-0.711,3.162-0.252c0.48-1.268,2.127-1.916,2.656-0.252c0.389-0.033,0.568-0.275,0.887-0.379
					c3.562,1.154-0.07,3.649-0.887,5.312c-0.396,0.062-0.518-0.157-0.632-0.381c-0.34,0.59-1.247,0.61-2.024,0.76
					c0.227,0.531,0.64,0.88,0.633,1.646c-0.174,0.288-0.613,0.312-0.885,0.504c-0.069,0.448,0.446,0.312,0.379,0.758
					c-0.879,0.896-1.273,2.271-2.024,3.291c-0.336,0-0.724,0.049-0.886-0.127c-0.067,0.438,0.188,1.201-0.253,1.267
					c-0.659,0.151-0.49-0.521-0.507-1.013c-1.397,0.668-1.334,2.799-2.276,3.92c-1.687-0.041-2.676-0.78-3.922-1.264
					c0.823-1.892,1.276-3.5,1.771-5.566c0.762,0.152-0.119,1.652,0.381,2.277c0.611-0.402,0.045-1.979,0.76-2.277
					c0.688,0.589-0.172,2.455,0.633,2.656c0.556-0.33,0.008-1.765,0.379-2.276c1.337,0.184,0.182,2.555,0.886,2.782
					c0.749-0.864-0.116-2.793,1.013-3.414c0.041-0.506-0.586-0.344-0.633-0.76c0.108-1.029,0.822-1.453,0.885-2.531
					c1.519-0.254,1.398-2.145,2.404-2.909c-0.185-0.533-1.378-0.058-1.771-0.38c0-0.211,0-0.422,0-0.631
					c-0.453,0.228-0.983,0.041-1.392-0.127c-0.401,0.229-0.109,1.154-0.381,1.519c0.024,0.522,0.668,0.428,0.76,0.885
					c0.063,1.033-0.111,1.828-1.013,1.896c0.554,2.134-1.96,1.546-2.782,1.015c-0.098-1.277,0.328-2.031,0.252-3.289
					c0.513-0.058,1.582-0.406,1.771,0c0.145-0.57-0.859-1.078-1.393-1.394c0.098-1.504,0.818-2.252,1.014-3.541
					c-1.2-1.821-2.442-4.477-1.52-7.086c0.592,0.125,0.243,1.191,0.887,1.267c-1.268,1.867,0.272,3.379,0.885,4.807
					c1.15-0.166,1.535,0.92,2.404,0.633c0.338-0.211,0.224-0.873,0.506-1.137c0.783,0.084,1.232,0.574,1.896,0.125
					c0-0.295,0-0.592,0-0.885c-0.371-0.551-1.184-0.295-1.896-0.254c-0.211-0.209-0.512-0.33-0.506-0.761
					c-0.389-0.092-0.373,0.22-0.76,0.13c-0.442-0.654-0.485-1.709-0.886-2.404c-0.272,0.147-0.304,0.539-0.886,0.379
					C222.342,192.979,221.828,192.08,222.201,191.291z M222.96,202.93c0.149-1.053-0.511-1.738,0.38-2.149
					c0.399,0.147,0.703,0.393,1.014,0.631c-0.021-1.074-1.52-0.675-1.772-1.519C222.088,200.924,221.518,202.932,222.96,202.93z
					 M229.285,201.158c1.337,0.564,0.763,2.15,0,2.91c0.271,0.361,0.789,0.479,0.886,1.012c0.86-0.914,3.622-2.52,1.771-3.795
					c-0.51,0.08-0.637,0.541-1.265,0.504c-0.514-0.287-0.438-1.162-1.139-1.262C229.409,200.693,229.415,200.992,229.285,201.158z
					 M225.87,202.297c0.38,0.168,0.968,0.129,1.519,0.127c0.184-0.281,0.317-0.611,0.252-1.139
					C226.771,201.344,225.93,201.428,225.87,202.297z M228.021,203.182c0.141,0.027,0.195,0.142,0.252,0.254
					c0.563,0.22,0.97-0.455,1.139-1.012c-0.182-0.367-0.575-0.521-1.012-0.635C228.383,202.363,228.091,202.662,228.021,203.182z
					 M227.389,203.814c-0.638,0.881-1.263,1.774-1.645,2.91c0.742,0.373,1.322,1.309,2.277,0.758
					c0.041-0.547-0.703-0.31-0.633-0.883c0.065-0.65,0.389-1.048,0.758-1.394c0.521-0.101,0.648,0.192,1.139,0.127
					C228.966,204.516,228.146,204.193,227.389,203.814z M221.316,204.699c-0.063,0.734-0.439,1.559-0.129,2.279
					c0.43,0.035,0.729,0.201,1.267,0.125c0.101-0.646-0.179-0.918-0.127-1.519c0.205-0.258,0.934,0.006,1.139-0.252
					c0-0.211,0-0.422,0-0.635C222.85,204.35,222.038,204.754,221.316,204.699z M224.604,208.369
					c0.189,0.275,0.635,0.295,0.633,0.758c-0.122,0.553-0.438,0.914-0.633,1.393c0.953-0.192,0.732,0.787,1.267,1.015
					c0.827-0.65,1.478-1.478,1.646-2.785c-0.92-0.388-1.52-1.097-2.404-1.519C224.92,207.59,224.6,207.814,224.604,208.369z
					 M219.544,214.822c0.771,0.408,1.55,0.812,2.657,0.885c0.191-0.777,0.638-1.301,0.633-2.277c-0.9,0.213-1.477-0.377-2.531-0.633
					C220.07,213.492,219.511,213.859,219.544,214.822z"/>
				<path d="M108.593,214.568c-0.088,0.545-0.745,0.521-0.886,1.014c0.668,1.047-0.271,1.887-1.139,2.148
					c-0.392-0.029-0.492-0.351-0.76-0.504c-0.461,0.422-1.056,0.713-1.518,1.139c-0.389-0.033-0.568-0.275-0.886-0.381
					c0.222,0.664,0.493,1.276,0.633,2.024c-1.522,0.796-2.83,1.81-4.935,2.023c-0.348-1.154-1.972-2.084-1.771-3.289
					c0.263-1.576,3.33-1.318,4.554-2.404c0.703,0.185,0.886,0.888,1.266,1.392c0.225-0.24,0.117-0.812,0.379-1.013
					c-0.564-0.616-1.381-1.118-1.264-1.896c0.072-0.488,3.55-3.478,4.174-3.67C107.357,212.357,107.724,213.332,108.593,214.568z
					 M105.557,213.303c0.22-0.412,0.876-0.387,0.885-1.012c-0.763,0.188-1.658,0.975-2.403,1.646
					c-0.407,0.362-0.784,0.83-1.012,1.264c0.307,0.754,1.837,0.795,1.265,2.025c0.745-0.06,0.744-0.859,1.392-1.015
					c0.472,0.076,0.515,0.582,1.012,0.636c0.217-0.164,0.498-0.265,0.506-0.636c-0.104-0.315-0.347-0.496-0.379-0.887
					c0.085-0.589,0.839-0.511,0.886-1.138C106.856,215.453,105.797,214.617,105.557,213.303z M102.014,217.352
					c-1.092,0.584-3.299,0.394-3.669,1.646c-0.164,0.551,0.479,1.983,1.266,2.149c1.399,0.297,1.961-1.51,3.542-1.393
					C103.103,218.625,102.516,218.031,102.014,217.352z"/>
				<path d="M201.833,213.43c0.192,1.156,0.635,2.738,0.253,4.049c-0.609,0.304-0.873,0.66-1.141,1.519
					c-0.738,0.125-1.519,0.178-2.402,0c-0.094-1.308-1.63-4.274,0.759-4.049C198.807,213.314,200.344,212.971,201.833,213.43z
					 M199.809,215.582c-0.477-0.1-0.604,0.152-1.012,0.125c-0.078,1.09,0.137,1.887,0.379,2.658c0.422,0,0.844,0,1.266,0
					c0.271-0.49,0.091-1.43,1.013-1.266c0.026-1.209,0.024-2.39-0.379-3.162C199.859,213.693,200.41,215.213,199.809,215.582z"/>
				<path d="M90.121,231.773c-0.558,0.151-1.101,0.877-1.771,0.508c-0.021-0.318,0.193-0.396,0.379-0.508
					c-0.083-0.17-0.271-0.234-0.505-0.252c0.043-0.799,1.038-0.646,1.518-1.013C90.411,230.877,89.714,231.145,90.121,231.773z"/>
				<path d="M100.622,235.064c0.24-0.166-0.117-0.804-0.127-1.14c1.424-1.612,3.244-2.83,5.062-4.049
					c0.576-0.156,0.398,0.442,0.759,0.506c0.928-0.129,1.331-0.771,1.898-1.391c0.639-0.701,2.044-1.634,2.908-2.658
					c0.939-1.113,1.729-2.86,3.543-1.392c-0.03,0.729-0.618,0.9-0.886,1.392c0.48-0.024,0.479-0.531,1.012-0.504
					c0.652,0.063,0.869,0.562,1.266,0.883c-0.185,0.574-0.737,0.781-1.012,1.267c0.832,1.022,1.729,1.979,2.403,3.164
					c-1.216,1.901-3.472,2.77-4.935,4.428c-0.69-0.195-1.191-0.58-1.518-1.142c0.065-0.481,0.147-0.946,0.507-1.139
					c-0.47-0.5-1.238-0.701-1.771-1.138c-0.756,0.3-1.492,0.617-1.898,1.267c0.672,0.162,1.15-0.959,2.151-0.887
					c0.268,0.813-0.846,1.237-1.392,1.645c-0.623,0.466-1.359,1-2.024,1.267c-0.032,0.371,0.286,0.389,0.253,0.758
					c-0.271,0.615-0.814,0.959-1.265,1.393c-0.794,0.16-0.824-0.438-1.266-0.633c-1.076,1.227-2.544,0.533-2.91-0.887
					c-0.285,0.096-0.049,0.711-0.126,1.014c-0.37,0.219-0.765,0.416-1.265,0.506c-0.516,0.051-0.39-0.539-0.759-0.633
					c-0.881,0.338-1.372,0.514-2.405,0.506c-0.384-1.131-0.495-2.541-0.885-3.668c1.123-0.404,3.003-0.695,4.428-0.379
					C100.101,234.096,100.328,234.619,100.622,235.064z M108.845,229.75c0.766,1.598,2.501,2.223,3.669,3.416
					c-0.242,0.391-0.629,0.635-0.632,1.264c0.823,0.604,1.246-0.555,1.771-1.01c0.862-0.75,2.447-1.123,2.782-2.277
					c-0.552-1.346-1.835-1.961-2.403-3.289c0.193-0.44,1.157-0.643,0.886-1.141c-0.591,0.043-0.609,0.656-1.265,0.635
					c-0.341-0.379-0.948-0.486-1.013-1.139c0.219-0.375,1.26-0.592,0.887-1.141C111.63,226.295,110.403,228.188,108.845,229.75z
					 M106.694,231.395c0.661-0.098,0.979-0.539,1.52-0.758c0.006-0.219-0.098-0.324-0.254-0.381
					C107.547,230.645,106.905,230.805,106.694,231.395z M105.176,230.762c-0.53,1.303-3.388,1.832-3.668,3.289
					c-0.211,1.096,0.937,1.988,1.519,2.91c0.423-0.377,0.947-0.654,1.519-0.887c0.554,1.006,1.854,0.445,1.138-0.758
					c0.469-0.332,0.963-0.642,1.518-0.887C106.687,233.049,106.123,231.715,105.176,230.762z M107.327,232.406
					c0.386,0.004,1.405-0.447,1.646-1.012C108.311,231.084,107.301,232.031,107.327,232.406z M96.953,234.43
					c0.199,0.73,0.406,1.451,0.506,2.279c1.082-0.096,2.191-0.975,2.91,0c-0.112-1.236-0.839-1.861-1.266-2.783
					C98.673,233.971,97.358,233.967,96.953,234.43z"/>
			</g>
		</g>
		<g>
			<path fill="#FFFFFF" d="M271.199,126.851c6.65-0.975,16.107-8.18,19.587-12.371c2.146-2.584,5.127-6.985,6.187-9.623
				c4.297-10.703,3.979-29.043-0.688-37.799c-2.334-4.383-10.365-11.688-14.776-13.746c-14.497-6.766-34.372-2.211-42.609,6.873
				c-5.513,6.076-10.146,17.621-9.621,27.146c1.152,20.93,12.082,35.584,32.646,37.456c1.754-0.036,1.481,1.955,3.095,2.062
				C266.604,126.614,269.132,127.151,271.199,126.851z"/>
			<path fill="#078DB8" d="M265.014,126.851c-1.611-0.107-1.339-2.099-3.093-2.062c-20.562-1.872-31.491-16.527-32.646-37.456
				c-0.525-9.526,4.108-21.069,9.621-27.147c8.237-9.082,28.113-13.637,42.609-6.873c4.411,2.059,12.442,9.363,14.776,13.746
				c4.665,8.756,4.983,27.097,0.688,37.801c-1.059,2.637-4.04,7.037-6.186,9.621c-3.479,4.192-12.938,11.397-19.587,12.371
				C269.132,127.151,266.604,126.614,265.014,126.851z M295.253,95.235c2.033-17.28-3.209-30.034-14.089-36.082
				c-5.946-3.307-14.448-4.732-22.336-3.78c-16.887,2.039-27.891,19.347-24.398,37.456c1.646,8.531,7.157,18.046,13.745,22.336
				c9.192,5.986,20.562,4.049,33.333,1.375C288.052,110.793,294.104,105.002,295.253,95.235z"/>
			<path fill="#FFFFFF" d="M281.508,116.54c-12.771,2.676-24.14,4.611-33.333-1.375c-6.588-4.291-12.101-13.807-13.745-22.336
				c-3.49-18.109,7.512-35.417,24.398-37.456c7.889-0.953,16.39,0.474,22.336,3.78c10.879,6.048,16.122,18.801,14.089,36.082
				C294.104,105.002,288.052,110.793,281.508,116.54z M263.639,61.216c0.028,0.676-1.009,1.256-1.029,1.373
				c-1.31,6.952-6.745,18.672-9.623,26.117c-0.717,1.854-2.252,3.527-2.062,4.811c0.263,1.767,4.302,4.694,6.529,5.5
				c3.392,1.225,7.264,0.399,10.996,1.375c0.138,2.381-0.554,5.594,1.03,6.528c4.509,0.091,3.185-3.743,4.125-6.872
				c7.713,1.625,6.775-7.16,0.344-6.188c-1.161-4.094,3.211-14.389-1.375-14.088c-4.12,0.271-1.42,10.582-3.438,14.433
				c-4.788,0.799-10.636,0.249-13.058-2.405c1.798-8.033,7.39-15.326,9.277-23.367c0.526-2.246,1.166-5.197,0-7.217
				C264.785,61.216,264.212,61.216,263.639,61.216z"/>
			<path fill="#078DB8" d="M265.357,61.216c1.166,2.02,0.525,4.971,0,7.215c-1.89,8.041-7.48,15.334-9.278,23.369
				c2.422,2.653,8.271,3.203,13.058,2.404c2.018-3.85-0.684-14.162,3.438-14.434c4.586-0.301,0.214,9.994,1.375,14.09
				c6.434-0.975,7.37,7.811-0.345,6.186c-0.939,3.129,0.386,6.965-4.123,6.873c-1.586-0.936-0.896-4.146-1.031-6.529
				c-3.732-0.974-7.604-0.149-10.996-1.375c-2.229-0.805-6.268-3.731-6.529-5.498c-0.189-1.283,1.346-2.957,2.062-4.812
				c2.877-7.444,8.312-19.165,9.621-26.116c0.021-0.117,1.06-0.699,1.031-1.375C264.212,61.216,264.785,61.216,265.357,61.216z"/>
		</g>
		<g>
			<path fill="#FFFFFF" d="M210.145,72.036c0.748,6.438-0.613,15.883,1.217,20.93c5.435,1.713,2.646-7.521,2.922-12.168
				c0.361-6.172,0.654-15.002-2.678-17.521C207.578,64.478,209.725,68.413,210.145,72.036z M205.034,82.989
				c0.388-1.023,1.291-1.397,1.46-2.435c0.212-1.294-0.645-6.28-0.73-7.788c-0.014-0.24-1.119-2.842-1.703-4.38
				c-1.748-4.605-3.977-3.12-6.084-0.244c-0.631,3.728,1.347,7.089,1.703,10.466c1.158,10.951-6.443,11.723-14.845,13.627
				c-1.555,0.354-3.063,1.176-4.38,1.461c-2.333,0.502-5.05,0.254-6.814,1.217c-2.107,1.149-3.051,3.738-3.894,6.084
				c-4.669,3.445-15.392,5.092-21.416,8.031c-1.981,0.965-4.679,1.932-2.92,4.379c8.168-0.265,16.558-3.207,23.36-5.84
				c2.612-1.011,5.222-2.293,6.571-3.65c1.425-1.432,1.61-4.652,3.164-5.598c1.656-1.006,4.851-0.277,6.813-0.486
				c7.061-0.75,13.207-5.129,18.253-9.004C204.391,87.614,204.244,85.071,205.034,82.989z M107.203,140.665
				c-0.429-2.879-0.894-6.207-0.73-9.004c0.306-5.268-0.682-9.23-1.217-14.846c-0.193-2.025,0.243-4.38,0.243-6.57
				c0-1.297-0.411-2.545-0.243-3.65c0.559-3.691,3.984-7.428,7.057-9.248c2.938-1.74,7.146-2.3,10.222-4.137
				c2.009-1.2,6.316-4.541,6.813-6.571c0.764-3.121-2.838-8.546-5.11-9.491c-2.498-1.039-7.288,0.094-8.761,1.461
				c-1.186,1.1-2.314,4.154-2.677,5.596c-0.55,2.193-0.073,4.777-0.974,7.545c-3.098,1.789-6.834,2.927-9.491,4.867
				c-3.656,2.67-3.275,6.729-2.435,12.41c0.378,2.553,0.075,5.42,0.487,7.789c0.172,0.991,0.793,2.111,0.973,3.163
				c1.271,7.425,0.559,16.724,1.947,22.876c0.394,1.74,0.948,3.832,2.19,4.623C108.781,146.463,107.527,142.85,107.203,140.665z
				 M127.401,110.487c3.854-1.681,6.665-3.798,9.734-6.084c2.802-2.086,8.381-5.082,10.221-7.543
				c1.83-2.449,2.585-7.836,1.46-10.951c-0.729-2.019-2.625-5.181-4.38-5.842c-3.374-1.27-8.778,1.969-9.978,4.867
				c-1.614,3.902,1.763,7.182,2.434,10.951c0.429,0.545,1.459,0.486,1.947,0.975c-8.113,5.271-17.359,9.41-26.04,14.114
				c-0.334,0.771-0.053,0.813,0,1.704C117.103,115.505,122.858,111.255,127.401,110.487z"/>
			<path fill="#078DB8" d="M211.604,63.276c3.334,2.52,3.041,11.35,2.679,17.521c-0.273,4.646,2.513,13.881-2.921,12.168
				c-1.83-5.047-0.471-14.492-1.217-20.93C209.725,68.413,207.578,64.478,211.604,63.276z"/>
			<path fill="#078DB8" d="M203.574,88.829c-5.043,3.875-11.192,8.254-18.254,9.004c-1.963,0.207-5.157-0.521-6.812,0.486
				c-1.553,0.943-1.738,4.164-3.164,5.598c-1.351,1.357-3.958,2.639-6.57,3.65c-6.805,2.633-15.193,5.574-23.361,5.84
				c-1.759-2.447,0.938-3.414,2.92-4.381c6.023-2.938,16.747-4.586,21.416-8.031c0.843-2.346,1.785-4.934,3.895-6.084
				c1.766-0.963,4.48-0.713,6.813-1.217c1.315-0.283,2.827-1.107,4.38-1.459c8.4-1.906,16.002-2.677,14.846-13.629
				c-0.356-3.376-2.334-6.736-1.705-10.465c2.108-2.876,4.336-4.363,6.084,0.244c0.584,1.539,1.69,4.141,1.705,4.38
				c0.086,1.507,0.941,6.494,0.729,7.788c-0.169,1.036-1.072,1.41-1.46,2.434C204.244,85.071,204.391,87.614,203.574,88.829z"/>
			<path fill="#078DB8" d="M105.5,147.479c-1.243-0.791-1.797-2.881-2.19-4.623c-1.389-6.152-0.677-15.452-1.947-22.876
				c-0.18-1.052-0.801-2.171-0.973-3.164c-0.412-2.368-0.108-5.235-0.487-7.788c-0.841-5.681-1.223-9.74,2.435-12.41
				c2.656-1.94,6.394-3.078,9.491-4.867c0.9-2.768,0.423-5.353,0.974-7.545c0.362-1.441,1.491-4.496,2.677-5.596
				c1.474-1.367,6.264-2.5,8.762-1.461c2.271,0.945,5.875,6.371,5.109,9.491c-0.497,2.03-4.805,5.371-6.813,6.571
				c-3.076,1.837-7.284,2.396-10.222,4.137c-3.072,1.82-6.499,5.557-7.057,9.248c-0.167,1.105,0.243,2.354,0.243,3.65
				c0,2.189-0.437,4.545-0.243,6.57c0.535,5.614,1.522,9.578,1.217,14.846c-0.163,2.797,0.302,6.125,0.73,9.004
				C107.527,142.85,108.781,146.463,105.5,147.479z M124.968,85.909c0.442-2.336-2.503-3.144-4.867-3.895
				c-1.016,1.875-2.701,5.393-1.217,7.544C120.849,88.663,124.592,87.896,124.968,85.909z"/>
			<path fill="#078DB8" d="M112.801,112.679c-0.053-0.891-0.334-0.934,0-1.704c8.681-4.704,17.927-8.843,26.04-14.114
				c-0.487-0.486-1.52-0.429-1.947-0.975c-0.67-3.771-4.047-7.049-2.434-10.951c1.199-2.898,6.604-6.137,9.978-4.867
				c1.756,0.661,3.652,3.823,4.38,5.842c1.125,3.115,0.37,8.502-1.46,10.951c-1.84,2.461-7.419,5.457-10.221,7.543
				c-3.07,2.286-5.881,4.403-9.734,6.084C122.858,111.255,117.103,115.505,112.801,112.679z M141.517,86.639
				c-0.983,1.062-1.967,2.81-1.217,4.867c1.359,0.577,2.222,0.342,3.164-0.487C142.946,89.428,143.511,86.753,141.517,86.639z"/>
			<path fill="#FFFFFF" d="M118.884,89.559c-1.484-2.151,0.201-5.669,1.217-7.544c2.364,0.751,5.31,1.559,4.867,3.895
				C124.592,87.896,120.849,88.663,118.884,89.559z"/>
			<path fill="#FFFFFF" d="M143.464,91.019c-0.942,0.829-1.805,1.062-3.164,0.487c-0.75-2.058,0.232-3.808,1.217-4.867
				C143.511,86.753,142.946,89.428,143.464,91.019z"/>
		</g>
	</g>
</g>
<g id="_x30_4-Roum_1_">
	<g>
		<path fill="#008CB7" d="M53.511,35.771c-1.062,0-1.423-0.072-1.423-0.072c-0.108,0.973-0.99,2.737-1.206,3.098
			c-0.396,0.666-1.333,1.962-3.241,2.178c-1.765,0.198-4.015-1.494-4.015-1.494s1.278,0.288,3.078-0.27
			c3.331-1.045,4.357-3.386,4.357-3.386s0.09,0-0.09-0.162c-0.756-0.684-0.918-0.954-1.261-1.494
			c-0.432-0.684,0.181-2.287,0.343-2.646c0.162-0.342,0.162,0,0.162,0s0.018,0.81,1.26,1.458c0.559,0.288,0.954,0.486,2.035,0.486
			V35.771z"/>
		<path fill="#008CB7" d="M59.052,35.771c-1.62,0.018-2.952-0.378-3.187-1.675c0,0-0.414,0.9-0.828,1.314
			c-0.234,0.216-0.612,0.343-1.891,0.36v-2.305c2.232-0.018,2.521-0.702,2.521-0.702s0.234-0.828,0.469-1.225
			c0.197-0.27,0.359-0.234,0.359-0.234c0,1.242,0.828,2.161,2.557,2.161V35.771z M54.856,38.147l1.225-1.225l1.278,1.261
			l-1.242,1.224L54.856,38.147z"/>
		<path fill="#008CB7" d="M67.081,35.771c-1.368,0-2.053-0.198-2.484-0.612l-0.486,1.171c-1.873-1.693-2.881-1.585-2.881-1.585
			s-0.559,0.918-1.603,1.026c0,0-0.558,0-0.973,0v-2.305c2.27,0.054,2.503-0.846,2.503-0.846c0.811-2.269,3.295-1.999,3.295-1.999
			c-0.504,1.747,0.486,2.863,2.629,2.845V35.771z M63.769,33.628c-0.234-0.432,0-1.008,0-1.008c-0.576,0-0.955,0.648-0.955,0.648
			C63.354,33.268,63.769,33.628,63.769,33.628z"/>
		<path fill="#008CB7" d="M70.77,33.196c0-0.504-0.072-0.846-0.252-1.351l-0.145,0.288c-0.252,0.288-0.521,0.738-1.386,0.774
			c-2.197,0.09-1.711-2.431-1.08-3.709c1.224-2.521,2.862-0.703,2.862-0.703s1.387,1.458,1.368,3.781
			c-0.018,1.98-0.521,3.115-0.521,3.115c-0.396,0.198-3.313,0.378-4.97,0.378v-2.305C68.609,33.466,70.77,33.196,70.77,33.196z
			 M67.223,26.156l1.206-1.225l1.297,1.26l-1.242,1.225L67.223,26.156z M68.411,24.391l1.206-1.224l1.297,1.26l-1.243,1.224
			L68.411,24.391z M69.563,29.865c-0.396-0.126-0.9,0.396-0.937,0.63c0,0.162,0.198,0.432,0.792,0.504
			c0.414,0.054,0.847-0.252,0.883-0.342C70.031,30.027,69.726,29.919,69.563,29.865z M69.762,26.209l1.206-1.224l1.296,1.26
			l-1.242,1.225L69.762,26.209z"/>
		<path fill="#008CB7" d="M81.86,35.771c-0.198,0-0.721,0.018-1.081,0.018c0,0.162-0.09,0.576-0.126,0.738
			c-1.008,4.178-3.619,4.466-3.619,4.466c-3.204,0.324-5.059-1.351-5.059-1.351s0.521,0.145,1.818,0.145
			c1.962,0,5.312-2.521,5.581-3.998c-0.306,0,0.036-0.035-0.324,0c-2.988,0.307-2.557-2.106-2.557-2.106
			c0.162-1.584,1.026-2.628,1.711-3.079c1.008-0.667,2.07,1.08,2.07,1.08s0.433,0.756,0.612,1.801v-0.018c0,0,0.774,0,0.973,0
			V35.771z M78.601,33.538c0.108,0,0.324-0.018,0.541-0.018c0-0.036-0.019-0.198-0.126-0.378c-0.612-1.062-1.099,0.072-1.188,0.162
			C77.827,33.304,77.809,33.574,78.601,33.538z"/>
		<path fill="#008CB7" d="M81.172,33.466c2.323,0,2.755-0.108,2.755-0.108c-0.071-0.558-0.918-1.729-0.918-1.729
			c0.145-0.558,0.99-1.819,0.99-1.819s1.404,1.981,1.387,3.601c0,0-0.126,1.243-0.774,2.143c0,0-1.026,0.216-3.439,0.216V33.466z
			 M82.091,27.47l1.225-1.225l1.278,1.26l-1.243,1.225L82.091,27.47z"/>
		<path fill="#008CB7" d="M87.904,37.805l6.969-12.963h2.395l-7.04,12.963H87.904z"/>
		<path fill="#008CB7" d="M108.445,35.771c-1.584-0.036-1.729,0.18-1.729,0.18s0.666,0.198,0.702,0.919
			c-0.09,0.756-0.594,2.16-0.594,2.16s-2.323,1.675-5.384,1.782c-6.608,0.253-1.891-6.968-1.891-6.968
			c-3.024,5.366,2.089,4.628,2.089,4.628c2.106-0.091,4.213-1.261,4.213-1.261l0.198-0.108c0.145-0.54-2.539-0.594-2.539-0.594
			l1.062-2.358c1.026-0.504,2.161-0.685,3.871-0.685V35.771z M100.631,43.045l1.225-1.225l1.278,1.261l-1.242,1.224L100.631,43.045z
			 M103.224,43.081l1.225-1.225l1.278,1.26l-1.242,1.225L103.224,43.081z"/>
		<path fill="#008CB7" d="M107.919,33.466c2.323,0,2.755-0.108,2.755-0.108c-0.071-0.558-0.918-1.729-0.918-1.729
			c0.145-0.558,0.99-1.819,0.99-1.819s1.404,1.981,1.387,3.601c0,0-0.126,1.243-0.774,2.143c0,0-1.026,0.216-3.439,0.216V33.466z
			 M108.838,27.47l1.224-1.225l1.279,1.26l-1.243,1.225L108.838,27.47z"/>
		<path fill="#008CB7" d="M117.983,35.771c0,0-3.728,0.162-3.745-2.305l-0.036-7.256c0-0.378,1.404-1.476,1.404-1.476
			c0,0.702,0.036,4.825,0.036,7.148c0,1.747,2.341,1.584,2.341,1.584V35.771z"/>
		<path fill="#008CB7" d="M123.49,35.771c-1.62,0.018-2.952-0.378-3.187-1.675c0,0-0.414,0.9-0.828,1.314
			c-0.234,0.216-0.612,0.343-1.891,0.36v-2.305c2.232-0.018,2.521-0.702,2.521-0.702s0.234-0.828,0.469-1.225
			c0.197-0.27,0.359-0.234,0.359-0.234c0,1.242,0.828,2.161,2.557,2.161V35.771z M118.107,28.479l1.224-1.225l1.278,1.26
			l-1.242,1.225L118.107,28.479z M119.35,26.588l1.225-1.225l1.278,1.261l-1.243,1.224L119.35,26.588z M120.7,28.532l1.224-1.224
			l1.278,1.26l-1.242,1.225L120.7,28.532z"/>
		<path fill="#008CB7" d="M124.786,33.34c0.144-0.576-0.271-4.897-0.271-4.897c-0.036-0.126-0.162-0.792-0.486-1.26
			c-0.594-0.864,1.026-2.269,1.026-2.269s0.271,1.296,1.53,1.549c0,0-0.774,0.828-0.647,1.818c0.09,0.666,0.162,3.907,0.126,4.735
			c-0.036,0.937-0.469,1.98-0.883,2.593c0,0-1.08,0.162-1.98,0.162v-2.305C124.3,33.466,124.786,33.34,124.786,33.34z"/>
		<path fill="#008CB7" d="M129.646,25.075c0.054,2.143,0.108,3.241,0.162,4.303c0.054,1.008,0.072,2.611,0.108,3.872
			c0.035,1.494-0.973,2.7-1.279,3.061c-0.09,0.108-0.09,0-0.09,0c-0.072-1.242-0.18-3.493-0.18-3.493l-0.108-5.023
			C128.224,26.191,129.646,25.075,129.646,25.075z"/>
		<path fill="#008CB7" d="M145.164,35.843c0.162,0.612,0.144,1.225,0.144,1.225s-0.018,1.764-0.864,2.628
			c-1.53,1.585-5.96,1.675-5.96,1.675c-6.193,0.09-1.458-7.382-1.458-7.382c-1.404,3.115-1.566,4.664,1.692,4.808
			c2.953,0.126,5.456-1.261,5.456-1.261c0-2.143-1.297-3.997-1.297-3.997c0.055-0.541,1.062-1.963,1.062-1.963
			c0.378,0.702,0.721,1.422,0.9,1.945c0.234,0,0.666,0,1.44,0v2.304C145.758,35.824,145.65,35.843,145.164,35.843z M138.412,31.485
			l1.224-1.225l1.279,1.261l-1.243,1.224L138.412,31.485z"/>
		<path fill="#008CB7" d="M145.79,33.466c2.323,0,2.755-0.108,2.755-0.108c-0.071-0.558-0.918-1.729-0.918-1.729
			c0.145-0.558,0.99-1.819,0.99-1.819s1.404,1.981,1.387,3.601c0,0-0.126,1.243-0.774,2.143c0,0-1.026,0.216-3.439,0.216V33.466z
			 M146.078,38.634l1.225-1.225l1.278,1.26l-1.242,1.225L146.078,38.634z M148.617,38.688l1.225-1.225l1.278,1.261l-1.242,1.225
			L148.617,38.688z"/>
		<path fill="#008CB7" d="M160.878,35.771c-1.062,0-1.423-0.072-1.423-0.072c-0.108,0.973-0.99,2.737-1.206,3.098
			c-0.396,0.666-1.333,1.962-3.241,2.178c-1.765,0.198-4.015-1.494-4.015-1.494s1.278,0.288,3.078-0.27
			c3.331-1.045,4.357-3.386,4.357-3.386s0.09,0-0.09-0.162c-0.756-0.684-0.918-0.954-1.261-1.494
			c-0.432-0.684,0.181-2.287,0.343-2.646c0.162-0.342,0.162,0,0.162,0s0.018,0.81,1.26,1.458c0.559,0.288,0.954,0.486,2.035,0.486
			V35.771z"/>
		<path fill="#008CB7" d="M172.991,35.771c-0.756,0-1.963,0-2.809-0.559c0,0-0.09,0.288-0.288,0.559c0,0-2.521,0.756-2.989-0.937
			c0,0-0.198,1.225-2.16,1.225c-1.314,0-1.404-1.135-1.404-1.135s-0.738,0.847-2.972,0.847v-2.305c2.413,0,3.331-0.72,3.529-1.026
			c0.216-0.342,0.576-0.342,0.469-0.072c-0.217,0.576-0.181,0.756-0.181,0.756s0.09,0.468,0.937,0.468
			c1.494,0,2.251-1.188,2.431-1.44c0.145-0.198,0.378-0.126,0.378-0.126s-0.107,0.468-0.107,0.558
			c-0.091,0.576,0.342,0.864,1.008,0.864c0.378,0,0.973-0.072,0.973-0.072s0-0.18,0-0.468s0.558-1.116,0.558-1.116
			c0.09,1.404,1.423,1.674,2.629,1.674V35.771z M163.845,28.676l1.225-1.224l1.278,1.26l-1.243,1.224L163.845,28.676z
			 M164.997,26.624l1.225-1.225l1.278,1.26l-1.243,1.225L164.997,26.624z M166.401,28.712l1.225-1.224l1.278,1.26l-1.242,1.224
			L166.401,28.712z"/>
		<path fill="#008CB7" d="M172.573,33.466c2.323,0,2.755-0.108,2.755-0.108c-0.071-0.558-0.918-1.729-0.918-1.729
			c0.145-0.558,0.99-1.819,0.99-1.819s1.404,1.981,1.387,3.601c0,0-0.126,1.243-0.774,2.143c0,0-1.026,0.216-3.439,0.216V33.466z
			 M172.861,27.776l1.225-1.225l1.278,1.26l-1.242,1.225L172.861,27.776z M175.4,27.83l1.225-1.224l1.278,1.26l-1.242,1.224
			L175.4,27.83z"/>
	</g>
	<g>
		<g>
			<path fill="#737996" d="M4.28,35.758v-1.963c0.362-1.864,5.872-4.503,5.872-6.68c0-1.04-0.677-1.649-1.765-1.649
				c-1.188,0-1.881,0.792-2.145,1.88L4.33,26.934c0.247-1.831,1.963-3.25,4.09-3.25c2.096,0,3.877,1.204,3.877,3.431
				c0,2.903-2.673,4.09-5.642,6.796h5.642v1.847H4.28z"/>
			<path fill="#737996" d="M18.304,23.684c3.15,0,4.338,2.705,4.338,6.12s-1.188,6.12-4.338,6.12s-4.339-2.705-4.339-6.12
				S15.154,23.684,18.304,23.684z M18.304,34.142c1.303,0,2.193-1.088,2.193-4.338s-0.891-4.338-2.193-4.338
				c-1.304,0-2.194,1.088-2.194,4.338S17,34.142,18.304,34.142z"/>
			<path fill="#737996" d="M25.597,35.758v-1.649h1.848v-8.214h-2.111v-1.386c1.089-0.049,2.045-0.297,2.59-0.825h1.666v10.425h1.83
				v1.649H25.597z"/>
			<path fill="#737996" d="M35.001,23.849h6.434v1.847h-4.816l-0.165,2.706c0.379-0.396,0.94-0.693,2.227-0.693
				c2.145,0,3.562,2.012,3.562,3.958c0,2.606-1.518,4.256-4.387,4.256c-1.881,0-3.2-0.891-3.86-2.227l1.781-0.923
				c0.363,0.841,1.304,1.336,2.111,1.353c1.518,0.049,2.211-0.973,2.211-2.458c0-1.221-0.775-2.177-2.029-2.177
				c-0.841,0-1.468,0.429-1.798,1.023l-1.716-0.33L35.001,23.849z"/>
		</g>
	</g>
	<g>
		<path fill="#4B438C" d="M181.736,35.798v-1.963c0.361-1.864,5.871-4.503,5.871-6.681c0-1.039-0.676-1.649-1.764-1.649
			c-1.188,0-1.881,0.792-2.145,1.881l-1.914-0.412c0.248-1.831,1.963-3.25,4.09-3.25c2.096,0,3.877,1.204,3.877,3.431
			c0,2.903-2.672,4.091-5.641,6.796h5.641v1.848H181.736z"/>
		<path fill="#4B438C" d="M191.404,35.798v-1.963c0.363-1.864,5.873-4.503,5.873-6.681c0-1.039-0.678-1.649-1.766-1.649
			c-1.188,0-1.881,0.792-2.145,1.881l-1.912-0.412c0.246-1.831,1.963-3.25,4.09-3.25c2.096,0,3.877,1.204,3.877,3.431
			c0,2.903-2.674,4.091-5.643,6.796h5.643v1.848H191.404z"/>
		<path fill="#4B438C" d="M205.084,32.4v-1.782h4.041V32.4H205.084z"/>
		<path fill="#4B438C" d="M215.395,35.798v-1.963c0.363-1.864,5.873-4.503,5.873-6.681c0-1.039-0.678-1.649-1.766-1.649
			c-1.188,0-1.881,0.792-2.145,1.881l-1.912-0.412c0.246-1.831,1.963-3.25,4.09-3.25c2.096,0,3.877,1.204,3.877,3.431
			c0,2.903-2.674,4.091-5.643,6.796h5.643v1.848H215.395z"/>
		<path fill="#4B438C" d="M226.549,35.798v-1.649h1.848v-8.215h-2.111v-1.385c1.088-0.05,2.045-0.297,2.59-0.825h1.666v10.425h1.83
			v1.649H226.549z"/>
		<path fill="#4B438C" d="M238.742,32.4v-1.782h4.041V32.4H238.742z"/>
		<path fill="#4B438C" d="M250.539,35.798v-1.649h1.848v-8.215h-2.111v-1.385c1.088-0.05,2.045-0.297,2.59-0.825h1.666v10.425h1.83
			v1.649H250.539z"/>
		<path fill="#4B438C" d="M258.195,30.965l5.08-7.076h2.326v7.521h1.682v1.649h-1.682v2.738h-2.045V33.06h-5.361V30.965z
			 M263.557,31.41v-5.312h-0.033l-3.68,5.312H263.557z"/>
		<path fill="#4B438C" d="M272.402,32.4v-1.782h4.041V32.4H272.402z"/>
		<path fill="#4B438C" d="M282.748,23.889h8.164v1.237l-4.898,10.672h-2.359l4.816-10.062h-5.723V23.889z"/>
	</g>
</g>
</svg>
